<?xml version="1.0" standalone="no"?>
<!DOCTYPE svg PUBLIC "-//W3C//DTD SVG 1.1//EN" "http://www.w3.org/Graphics/SVG/1.1/DTD/svg11.dtd" >
<svg xmlns="http://www.w3.org/2000/svg" xmlns:xlink="http://www.w3.org/1999/xlink" version="1.1">
<metadata>
Created by FontForge 20170731 at Tue Mar 22 14:52:27 2011
 By Aleksey,,,
Copyright 2010 Monotype Imaging Inc. All rights reserved. Designed by Nick Job.
</metadata>
<defs>
<font id="CamphorPro-MediumItalic" horiz-adv-x="563" >
  <font-face 
    font-family="Camphor Pro Medium"
    font-weight="500"
    font-style="italic"
    font-stretch="normal"
    units-per-em="1000"
    panose-1="2 11 6 4 3 4 4 9 2 4"
    ascent="800"
    descent="-200"
    x-height="500"
    cap-height="688"
    bbox="-269 -250 1162 938"
    underline-thickness="62"
    underline-position="-249"
    slope="-10"
    unicode-range="U+0020-FB04"
  />
<missing-glyph horiz-adv-x="500" 
d="M12 0v665h475v-665h-475zM88 618l162 -243l161 243h-323zM60 575v-484l40 61l80 120l41 61zM440 575l-162 -242l162 -243v485zM411 48l-161 242l-162 -242h323z" />
    <glyph glyph-name="IJ" unicode="IJ" horiz-adv-x="761" 
d="M48 0l129 688h104l-130 -688h-103zM752 688l-98 -522q-16 -83 -73 -130.5t-141 -47.5q-72 0 -152 41l17 87q65 -41 124 -41q48 0 81.5 29t42.5 78l95 506h104z" />
    <glyph glyph-name="ij" unicode="ij" horiz-adv-x="503" 
d="M29 0l93 500h101l-94 -500h-100zM138 636q0 28 19 46.5t48 18.5q23 0 38 -14.5t15 -37.5q0 -28 -19 -47t-48 -19q-23 0 -38 15t-15 38zM474 500l-111 -592q-12 -65 -55.5 -102t-108.5 -37q-55 0 -115 29l15 81q44 -26 83 -26q33 0 55.5 19.5t28.5 51.5l107 576h101z
M389 636q0 28 19 46.5t48 18.5q23 0 38 -14.5t15 -37.5q0 -28 -19 -47t-48 -19q-23 0 -38 15t-15 38z" />
    <glyph glyph-name="napostrophe" unicode="&#x27;n" horiz-adv-x="685" 
d="M153 0l93 500h98l-9 -47q73 59 151 59q62 0 103.5 -40.5t41.5 -101.5q0 -18 -6 -54l-59 -316h-100l57 311q4 15 4 34q0 37 -22 58.5t-59 21.5q-60 0 -125 -62l-68 -363h-100zM24 465l124 223h104l-137 -223h-91z" />
    <glyph glyph-name="f_b" unicode="fb" horiz-adv-x="895" 
d="M38 -141l105 560h-91l15 81h91l12 62q14 77 71.5 123t138.5 46q101 0 209 -61l-38 -205q61 47 128 47q80 0 130 -55.5t50 -144.5q0 -140 -73 -232t-184 -92q-69 0 -131 50l-7 -38h-100l116 624q-46 25 -95 25q-46 0 -77.5 -25.5t-39.5 -69.5l-9 -54h138l-15 -81h-138
l-105 -560h-101zM756 298q0 61 -28.5 94.5t-79.5 33.5q-57 0 -114 -55l-48 -252q51 -45 105 -45q71 0 118 64t47 160z" />
    <glyph glyph-name="f_f_b" unicode="ffb" horiz-adv-x="1194" 
d="M38 -141l105 560h-91l15 81h91l17 93q12 65 56 101.5t109 36.5q53 0 114 -29l-15 -80q-45 25 -83 25q-32 0 -54.5 -19t-28.5 -52l-14 -76h198l11 62q14 77 71.5 123t139.5 46q102 0 210 -61l-39 -205q62 47 129 47q80 0 130 -56t50 -144q0 -140 -73.5 -232t-184.5 -92
q-69 0 -131 50l-7 -38h-101l117 624q-46 25 -95 25q-46 0 -77.5 -25.5t-38.5 -69.5l-10 -54h138l-15 -81h-139l-105 -560h-100l105 560h-198l-105 -560h-101zM1055 298q0 60 -29 94t-79 34q-57 0 -115 -55l-47 -252q51 -45 105 -45q71 0 118 64t47 160z" />
    <glyph glyph-name="f_h" unicode="fh" horiz-adv-x="895" 
d="M38 -141l105 560h-91l15 81h91l12 62q14 78 71.5 123.5t138.5 45.5q101 0 209 -61l-40 -215q71 57 148 57q62 0 103 -40.5t41 -101.5q0 -24 -5 -54l-59 -316h-101l58 311q4 20 4 34q0 36 -22.5 58t-59.5 22q-60 0 -124 -62l-68 -363h-100l116 624q-46 25 -95 25
q-46 0 -77.5 -25.5t-39.5 -69.5l-9 -54h138l-15 -81h-138l-105 -560h-101z" />
    <glyph glyph-name="f_f_h" unicode="ffh" horiz-adv-x="1194" 
d="M38 -141l105 560h-91l15 81h91l17 93q12 65 56 101.5t109 36.5q53 0 114 -29l-15 -80q-45 25 -83 25q-32 0 -54.5 -19t-28.5 -52l-14 -76h198l11 62q15 78 72 123.5t139 45.5q102 0 210 -61l-41 -215q70 57 148 57q62 0 103.5 -40.5t41.5 -101.5q0 -18 -6 -54l-59 -316
h-101l58 311q4 20 4 34q0 36 -22.5 58t-59.5 22q-60 0 -124 -62l-68 -363h-101l117 624q-46 25 -95 25q-46 0 -77.5 -25.5t-38.5 -69.5l-10 -54h138l-15 -81h-139l-105 -560h-100l105 560h-198l-105 -560h-101z" />
    <glyph glyph-name="f_j" unicode="fj" horiz-adv-x="586" 
d="M52 419l15 81h91l12 62q14 78 69 123.5t134 45.5q73 0 149 -40l-15 -83q-65 41 -123 41q-46 0 -77 -25.5t-39 -71.5l-9 -52h299l-106 -561q-14 -78 -71 -124t-139 -46q-98 0 -210 62l111 588h-91zM244 419l-103 -542q49 -26 96 -26q46 0 77.5 26t39.5 70l88 472h-198z
" />
    <glyph glyph-name="f_f_j" unicode="ffj" horiz-adv-x="885" 
d="M38 -141l105 560h-91l15 81h91l17 93q12 65 56 101.5t109 36.5q53 0 114 -29l-15 -80q-45 25 -83 25q-32 0 -54.5 -19t-28.5 -52l-14 -76h198l11 62q15 78 69.5 123.5t133.5 45.5q74 0 151 -40l-15 -83q-67 41 -125 41q-46 0 -75.5 -25.5t-38.5 -71.5l-10 -52h299
l-105 -561q-15 -78 -72 -124t-139 -46q-100 0 -210 62l111 588h-198l-105 -560h-101zM542 419l-101 -542q47 -26 95 -26q46 0 77 25.5t39 70.5l89 472h-199z" />
    <glyph glyph-name="f_k" unicode="fk" horiz-adv-x="823" 
d="M38 -141l105 560h-91l15 81h91l12 62q14 78 71.5 123.5t138.5 45.5q101 0 208 -61l-70 -371l210 201h125l-263 -249l177 -251h-114l-150 217l-41 -217h-98l116 624q-46 25 -95 25q-46 0 -77.5 -25.5t-39.5 -69.5l-9 -54h138l-15 -81h-138l-105 -560h-101z" />
    <glyph glyph-name="f_f_k" unicode="ffk" horiz-adv-x="1122" 
d="M38 -141l105 560h-91l15 81h91l17 93q12 65 56 101.5t109 36.5q53 0 114 -29l-15 -80q-45 25 -83 25q-32 0 -54.5 -19t-28.5 -52l-14 -76h198l11 62q15 78 72 123.5t139 45.5q101 0 208 -61l-70 -371l210 201h125l-263 -249l177 -251h-114l-150 217l-41 -217h-99l117 624
q-46 25 -95 25q-46 0 -77.5 -25.5t-38.5 -69.5l-10 -54h138l-15 -81h-139l-105 -560h-100l105 560h-198l-105 -560h-101z" />
    <glyph glyph-name="f_t" unicode="ft" horiz-adv-x="708" 
d="M38 -141l105 560h-91l15 81h91l12 62q14 78 71.5 123.5t138.5 45.5q101 0 209 -61l-31 -170h158l-15 -81h-159l-48 -257q-4 -22 -4 -31q0 -27 18 -43t48 -16q39 0 84 24l-16 -90q-48 -18 -98 -18q-64 0 -101.5 33.5t-37.5 91.5q0 12 4 38l51 268h-198l-105 -560h-101z
M259 500h198l23 124q-46 25 -95 25q-46 0 -77.5 -25.5t-39.5 -69.5z" />
    <glyph glyph-name="f_f_t" unicode="fft" horiz-adv-x="1008" 
d="M38 -141l105 560h-91l15 81h91l17 93q12 65 56 101.5t109 36.5q53 0 114 -29l-15 -80q-45 25 -83 25q-32 0 -54.5 -19t-28.5 -52l-14 -76h198l11 62q15 78 72 123.5t139 45.5q102 0 210 -61l-32 -170h158l-15 -81h-158l-49 -257q-4 -22 -4 -31q0 -27 18 -43t48 -16
q39 0 84 24l-16 -90q-48 -18 -98 -18q-64 0 -101 33.5t-37 91.5q0 21 4 38l50 268h-199l-105 -560h-100l105 560h-198l-105 -560h-101zM558 500h198l23 124q-46 25 -95 25q-46 0 -77.5 -25.5t-38.5 -69.5z" />
    <glyph glyph-name="f_thorn" unicode="f&#xfe;" horiz-adv-x="895" 
d="M38 -141l105 560h-91l15 81h91l12 62q14 77 71.5 123t138.5 46q101 0 209 -61l-38 -205q61 47 128 47q80 0 130 -55.5t50 -144.5q0 -140 -73 -232t-184 -92q-69 0 -131 50l-48 -257h-101l158 843q-46 25 -95 25q-46 0 -77.5 -25.5t-39.5 -69.5l-9 -54h138l-15 -81h-138
l-105 -560h-101zM756 298q0 61 -28.5 94.5t-79.5 33.5q-57 0 -114 -55l-48 -252q51 -45 105 -45q71 0 118 64t47 160z" />
    <glyph glyph-name="f_f_thorn" unicode="ff&#xfe;" horiz-adv-x="1194" 
d="M38 -141l105 560h-91l15 81h91l17 93q12 65 56 101.5t109 36.5q53 0 114 -29l-15 -80q-45 25 -83 25q-32 0 -54.5 -19t-28.5 -52l-14 -76h198l11 62q14 77 71.5 123t139.5 46q102 0 210 -61l-39 -205q62 47 129 47q80 0 130 -56t50 -144q0 -140 -73.5 -232t-184.5 -92
q-69 0 -131 50l-48 -257h-101l158 843q-46 25 -95 25q-46 0 -77.5 -25.5t-38.5 -69.5l-10 -54h138l-15 -81h-139l-105 -560h-100l105 560h-198l-105 -560h-101zM1055 298q0 60 -29 94t-79 34q-57 0 -115 -55l-47 -252q51 -45 105 -45q71 0 118 64t47 160z" />
    <glyph glyph-name="f_f" unicode="ff" horiz-adv-x="669" 
d="M38 -141l105 560h-91l15 81h91l17 93q12 65 56 101.5t109 36.5q53 0 114 -29l-15 -80q-45 25 -83 25q-32 0 -54.5 -19t-28.5 -52l-14 -76h198l17 93q12 64 56 101t109 37q53 0 114 -29l-15 -80q-44 25 -83 25q-32 0 -54.5 -19t-28.5 -52l-14 -76h138l-15 -81h-139
l-105 -560h-100l105 560h-198l-105 -560h-101z" />
    <glyph glyph-name="fi" unicode="fi" horiz-adv-x="586" 
d="M38 -141l105 560h-91l15 81h91l12 62q14 78 69 123.5t134 45.5q73 0 149 -40l-15 -83q-65 41 -123 41q-46 0 -77 -25.5t-39 -71.5l-9 -52h299l-94 -500h-100l78 419h-198l-105 -560h-101z" />
    <glyph glyph-name="fl" unicode="fl" horiz-adv-x="586" 
d="M38 -141l105 560h-91l15 81h91l12 62q14 78 71.5 123.5t138.5 45.5q101 0 209 -61l-125 -670h-100l116 624q-46 25 -95 25q-46 0 -77.5 -25.5t-39.5 -69.5l-9 -54h138l-15 -81h-138l-105 -560h-101z" />
    <glyph glyph-name="f_f_i" unicode="ffi" horiz-adv-x="885" 
d="M38 -141l105 560h-91l15 81h91l17 93q12 65 56 101.5t109 36.5q53 0 114 -29l-15 -80q-45 25 -83 25q-32 0 -54.5 -19t-28.5 -52l-14 -76h198l11 62q15 78 69.5 123.5t133.5 45.5q74 0 151 -40l-15 -83q-67 41 -126 41q-45 0 -75 -25.5t-38 -71.5l-10 -52h299l-94 -500
h-101l79 419h-199l-105 -560h-100l105 560h-198l-105 -560h-101z" />
    <glyph glyph-name="f_f_l" unicode="ffl" horiz-adv-x="885" 
d="M38 -141l105 560h-91l15 81h91l17 93q12 65 56 101.5t109 36.5q53 0 114 -29l-15 -80q-45 25 -83 25q-32 0 -54.5 -19t-28.5 -52l-14 -76h198l11 62q15 78 72 123.5t139 45.5q102 0 210 -61l-126 -670h-101l117 624q-46 25 -95 25q-46 0 -77.5 -25.5t-38.5 -69.5l-10 -54
h138l-15 -81h-139l-105 -560h-100l105 560h-198l-105 -560h-101z" />
    <glyph glyph-name=".notdef" horiz-adv-x="500" 
d="M12 0v665h475v-665h-475zM88 618l162 -243l161 243h-323zM60 575v-484l40 61l80 120l41 61zM440 575l-162 -242l162 -243v485zM411 48l-161 242l-162 -242h323z" />
    <glyph glyph-name=".null" horiz-adv-x="0" 
 />
    <glyph glyph-name="nonmarkingreturn" horiz-adv-x="333" 
 />
    <glyph glyph-name="space" unicode=" " horiz-adv-x="250" 
 />
    <glyph glyph-name="exclam" unicode="!" horiz-adv-x="278" 
d="M80 201l91 487h101l-91 -487h-101zM40 45q0 30 20 50t50 20q25 0 41 -16t16 -41q0 -29 -20 -49.5t-50 -20.5q-25 0 -41 16t-16 41z" />
    <glyph glyph-name="quotedbl" unicode="&#x22;" horiz-adv-x="428" 
d="M296 450l45 238h87l-45 -238h-87zM119 450l44 238h87l-45 -238h-86z" />
    <glyph glyph-name="numbersign" unicode="#" 
d="M-7 181l16 86h101l48 154h-90l16 86h101l57 181h90l-57 -181h150l56 181h91l-57 -181h90l-16 -86h-101l-48 -154h90l-16 -86h-101l-56 -181h-91l56 181h-148l-57 -181h-90l56 181h-90zM248 421l-48 -154h149l48 154h-149z" />
    <glyph glyph-name="dollar" unicode="$" 
d="M168 -125l27 149q-65 9 -137 48l18 92q86 -61 170 -61q55 0 90.5 28.5t35.5 72.5q0 29 -18 51.5t-45 36.5t-59 31.5t-59 36t-45 50.5t-18 74q0 74 51.5 124t136.5 58l28 147h87l-28 -149q59 -9 122 -42l-18 -90q-82 54 -155 54q-53 0 -86.5 -27t-33.5 -69q0 -32 25 -55.5
t60.5 -41t71.5 -38t61 -57.5t25 -88q0 -77 -53 -128.5t-140 -59.5l-27 -147h-87z" />
    <glyph glyph-name="percent" unicode="%" horiz-adv-x="845" 
d="M454 128q0 96 57 162t141 66q62 0 102.5 -39.5t40.5 -100.5q0 -96 -57 -162t-141 -66q-62 0 -102.5 39.5t-40.5 100.5zM528 137q0 -40 21 -64t56 -24q49 0 82.5 46t33.5 112q0 40 -21 64t-56 24q-49 0 -82.5 -46t-33.5 -112zM85 474q0 96 57 161t141 65q61 0 101.5 -40
t40.5 -102q0 -96 -57 -161t-140 -65q-62 0 -102.5 40t-40.5 102zM159 482q0 -39 21 -64t55 -25q49 0 82.5 45.5t33.5 111.5q0 40 -20.5 64.5t-55.5 24.5q-49 0 -82.5 -45.5t-33.5 -111.5zM75 0l642 688h87l-641 -688h-88z" />
    <glyph glyph-name="ampersand" unicode="&#x26;" horiz-adv-x="635" 
d="M646 389l-15 -79h-123l-50 -271q-102 -51 -214 -51q-88 0 -147 50.5t-59 124.5q0 70 45 124t119 74q-40 20 -63 56.5t-23 79.5q0 86 66 144.5t163 58.5q83 0 168 -41l-17 -88q-71 44 -141 44q-58 0 -97 -34.5t-39 -86.5q0 -46 35.5 -75.5t90.5 -29.5h301zM142 176
q0 -45 34 -74t85 -29q53 0 107 24l41 213h-90q-79 0 -128 -37t-49 -97z" />
    <glyph glyph-name="quotesingle" unicode="'" horiz-adv-x="250" 
d="M119 450l44 238h87l-45 -238h-86z" />
    <glyph glyph-name="parenleft" unicode="(" horiz-adv-x="327" 
d="M64 192q0 150 60.5 286.5t173.5 240.5h118q-122 -101 -187 -235.5t-65 -284.5q0 -190 82 -355h-98q-84 171 -84 348z" />
    <glyph glyph-name="parenright" unicode=")" horiz-adv-x="327" 
d="M270 372q0 -151 -60 -287.5t-173 -240.5h-119q122 101 187.5 235.5t65.5 284.5q0 189 -83 355h98q84 -168 84 -347z" />
    <glyph glyph-name="asterisk" unicode="*" horiz-adv-x="452" 
d="M472 447h-146l45 -141l-76 -24l-46 140l-119 -87l-46 65l118 86l-118 87l46 65l119 -86l46 139l76 -25l-45 -140h146v-79z" />
    <glyph glyph-name="plus" unicode="+" 
d="M37 238v87h207v207h87v-207h207v-87h-207v-207h-87v207h-207z" />
    <glyph glyph-name="comma" unicode="," horiz-adv-x="250" 
d="M-70 -125l123 223h104l-136 -223h-91z" />
    <glyph glyph-name="hyphen" unicode="-" horiz-adv-x="313" 
d="M25 214l15 81h248l-15 -81h-248z" />
    <glyph glyph-name="period" unicode="." horiz-adv-x="250" 
d="M26 45q0 30 20 50t50 20q25 0 41 -16t16 -41q0 -29 -20 -49.5t-50 -20.5q-25 0 -41 16t-16 41z" />
    <glyph glyph-name="slash" unicode="/" horiz-adv-x="375" 
d="M-51 -156l382 875h106l-382 -875h-106z" />
    <glyph glyph-name="zero" unicode="0" 
d="M40 238q0 196 90 329t224 133q95 0 149.5 -66.5t54.5 -183.5q0 -196 -90 -329t-224 -133q-95 0 -149.5 66.5t-54.5 183.5zM143 250q0 -81 30 -128t80 -47q83 0 143 107t60 256q0 81 -30.5 128t-80.5 47q-83 0 -142.5 -107t-59.5 -256z" />
    <glyph glyph-name="one" unicode="1" 
d="M234 0l107 574l-189 -86l19 98l227 102h69l-129 -688h-104z" />
    <glyph glyph-name="two" unicode="2" 
d="M11 0l14 73q388 270 388 430q0 49 -29 78.5t-78 29.5q-87 0 -177 -61l18 100q90 50 183 50q84 0 136.5 -48t52.5 -125q0 -96 -86.5 -203t-259.5 -237h278l-16 -87h-424z" />
    <glyph glyph-name="three" unicode="3" 
d="M198 309l16 81h36q70 0 116.5 37t46.5 93q0 42 -31.5 68.5t-79.5 26.5q-75 0 -160 -45l17 95q79 35 163 35t138.5 -46t54.5 -117q0 -65 -41.5 -117.5t-108.5 -71.5q49 -16 77.5 -56t28.5 -91q0 -93 -72.5 -153t-183.5 -60q-96 0 -189 55l17 91q86 -61 168 -61
q68 0 112 37t44 93q0 47 -38 76.5t-97 29.5h-34z" />
    <glyph glyph-name="four" unicode="4" 
d="M283 0l34 182h-305l14 74l396 432h88l-79 -427h105l-15 -79h-106l-34 -182h-98zM129 261h203l52 277z" />
    <glyph glyph-name="five" unicode="5" 
d="M534 688l-16 -87h-263l-35 -182q28 5 62 5q88 0 144.5 -53t56.5 -135q0 -109 -77.5 -178.5t-198.5 -69.5q-83 0 -169 49l18 93q79 -55 151 -55q73 0 122 42t49 107q0 55 -38.5 88.5t-101.5 33.5q-60 0 -125 -16l67 358h354z" />
    <glyph glyph-name="six" unicode="6" 
d="M360 688h145q-212 -140 -297 -285q60 36 125 36q79 0 132 -55t53 -137q0 -109 -76 -184t-186 -75q-91 0 -149 59t-58 155q0 125 81 252t230 234zM167 297q-18 -43 -18 -90q0 -59 32 -95.5t84 -36.5q62 0 107 47.5t45 114.5q0 51 -31.5 83.5t-81.5 32.5q-73 0 -137 -56z
" />
    <glyph glyph-name="seven" unicode="7" 
d="M69 0l368 601h-317l16 87h436l-13 -65l-377 -623h-113z" />
    <glyph glyph-name="eight" unicode="8" 
d="M111 490q0 89 70.5 149.5t174.5 60.5q83 0 137.5 -47t54.5 -119q0 -64 -37 -112t-104 -73q46 -19 72 -57t26 -86q0 -94 -74.5 -156t-188.5 -62q-86 0 -145.5 49.5t-59.5 121.5q0 69 42.5 122t115.5 74q-40 18 -62 54t-22 81zM138 173q0 -45 32 -74t81 -29q66 0 109.5 39
t43.5 98q0 45 -32.5 74t-82.5 29q-66 0 -108.5 -39t-42.5 -98zM209 488q0 -44 29 -71t75 -27q58 0 98 38t40 93q0 43 -29.5 70t-74.5 27q-59 0 -98.5 -37.5t-39.5 -92.5z" />
    <glyph glyph-name="nine" unicode="9" 
d="M238 0h-145q215 143 297 285q-57 -35 -125 -35q-79 0 -131.5 54.5t-52.5 136.5q0 109 75.5 184t185.5 75q91 0 149.5 -59t58.5 -155q0 -125 -81.5 -251.5t-230.5 -234.5zM431 392q18 42 18 89q0 59 -32 95.5t-84 36.5q-62 0 -107 -47.5t-45 -113.5q0 -51 32 -84t81 -33
q74 0 137 57z" />
    <glyph glyph-name="colon" unicode=":" horiz-adv-x="250" 
d="M26 45q0 30 20 50t50 20q25 0 41 -16t16 -41q0 -29 -20 -49.5t-50 -20.5q-25 0 -41 16t-16 41zM97 442q0 30 20 50t50 20q25 0 41 -16t16 -41q0 -30 -20 -50t-50 -20q-25 0 -41 16t-16 41z" />
    <glyph glyph-name="semicolon" unicode=";" horiz-adv-x="250" 
d="M-70 -125l123 223h104l-136 -223h-91zM97 442q0 30 20 50t50 20q25 0 41 -16t16 -41q0 -30 -20 -50t-50 -20q-25 0 -41 16t-16 41z" />
    <glyph glyph-name="less" unicode="&#x3c;" 
d="M538 31l-501 215v71l501 215v-94l-366 -156l366 -157v-94z" />
    <glyph glyph-name="equal" unicode="=" 
d="M37 135v87h501v-87h-501zM37 341v87h501v-87h-501z" />
    <glyph glyph-name="greater" unicode="&#x3e;" 
d="M37 532l501 -215v-71l-501 -215v94l366 157l-366 156v94z" />
    <glyph glyph-name="question" unicode="?" horiz-adv-x="448" 
d="M136 202l5 27q8 43 31.5 79.5t50.5 61t53.5 47.5t44 50t17.5 58q0 39 -25.5 63t-67.5 24q-74 0 -153 -58l19 103q74 43 161 43q76 0 124 -45t48 -116q0 -44 -19 -82.5t-47 -66.5t-57 -53.5t-53.5 -56t-31.5 -62.5l-3 -16h-97zM101 45q0 30 20.5 50t49.5 20q26 0 42 -16
t16 -41q0 -29 -20.5 -49.5t-50.5 -20.5q-25 0 -41 16t-16 41z" />
    <glyph glyph-name="at" unicode="@" horiz-adv-x="968" 
d="M716 469l-56 -298q-2 -14 -2 -20q0 -20 13 -32.5t34 -12.5q57 0 98 69.5t41 171.5q0 125 -82 199t-217 74q-177 0 -295 -126.5t-118 -314.5q0 -135 85 -217t226 -82q108 0 232 61l-16 -89q-113 -52 -224 -52q-176 0 -285 103t-109 269q0 229 145 378.5t366 149.5
q167 0 275 -96t108 -248q0 -142 -73.5 -238t-181.5 -96q-79 0 -109 52q-64 -52 -140 -52q-69 0 -112.5 49t-43.5 126q0 122 64 202t160 80q61 0 114 -41l5 31h98zM375 210q0 -50 23.5 -77.5t65.5 -27.5q50 0 94 44l41 210q-42 37 -87 37q-59 0 -98 -53.5t-39 -132.5z" />
    <glyph glyph-name="A" unicode="A" horiz-adv-x="631" 
d="M-31 0l391 688h84l135 -688h-96l-34 183h-272l-101 -183h-107zM383 554l-162 -292h215z" />
    <glyph glyph-name="B" unicode="B" horiz-adv-x="604" 
d="M206 310l-43 -230h127q67 0 109 37.5t42 96.5q0 45 -30.5 70.5t-81.5 25.5h-123zM48 0l129 688h218q82 0 132 -42.5t50 -113.5q0 -62 -35 -111t-93 -71q43 -15 69 -51.5t26 -84.5q0 -92 -72.5 -153t-182.5 -61h-241zM262 608l-41 -219h113q62 0 102.5 36.5t40.5 91.5
q0 41 -29.5 66t-76.5 25h-109z" />
    <glyph glyph-name="C" unicode="C" horiz-adv-x="609" 
d="M59 265q0 189 107.5 312t272.5 123q101 0 196 -59l-18 -92q-85 64 -173 64q-120 0 -199 -95.5t-79 -239.5q0 -92 52 -147.5t139 -55.5q93 0 181 54l-17 -98q-87 -43 -188 -43q-120 0 -197 78t-77 199z" />
    <glyph glyph-name="D" unicode="D" horiz-adv-x="694" 
d="M48 0l129 688h207q127 0 206 -73.5t79 -190.5q0 -194 -105.5 -309t-284.5 -115h-231zM265 604l-98 -520h119q123 0 200 91.5t77 237.5q0 89 -52.5 140t-145.5 51h-100z" />
    <glyph glyph-name="E" unicode="E" horiz-adv-x="550" 
d="M48 0l129 688h396l-16 -84h-292l-40 -213h253l-15 -83h-253l-43 -224h300l-15 -84h-404z" />
    <glyph glyph-name="F" unicode="F" horiz-adv-x="527" 
d="M48 0l129 688h396l-16 -84h-292l-44 -231h254l-16 -84h-254l-54 -289h-103z" />
    <glyph glyph-name="G" unicode="G" horiz-adv-x="674" 
d="M629 361l-61 -324q-116 -49 -226 -49q-125 0 -204 78t-79 199q0 189 109 312t278 123q106 0 207 -66l-17 -92q-93 71 -187 71q-122 0 -203.5 -95.5t-81.5 -239.5q0 -91 53 -147t139 -56q63 0 126 26l35 182h-150l15 78h247z" />
    <glyph glyph-name="H" unicode="H" horiz-adv-x="725" 
d="M48 0l129 688h104l-56 -296h328l56 296h103l-129 -688h-104l58 308h-328l-58 -308h-103z" />
    <glyph glyph-name="I" unicode="I" horiz-adv-x="293" 
d="M48 0l129 688h104l-130 -688h-103z" />
    <glyph glyph-name="J" unicode="J" horiz-adv-x="468" 
d="M459 688l-98 -522q-16 -83 -73 -130.5t-141 -47.5q-72 0 -152 41l17 87q65 -41 124 -41q48 0 81.5 29t42.5 78l95 506h104z" />
    <glyph glyph-name="K" unicode="K" horiz-adv-x="616" 
d="M48 0l129 688h102l-56 -296l323 296h135l-377 -342l259 -346h-119l-235 314l-60 -314h-101z" />
    <glyph glyph-name="L" unicode="L" horiz-adv-x="499" 
d="M48 0l129 688h104l-114 -604h281l-16 -84h-384z" />
    <glyph glyph-name="M" unicode="M" horiz-adv-x="815" 
d="M48 0l129 688h85l160 -326l281 326h99l-129 -688h-98l98 520l-235 -274h-60l-135 275l-97 -521h-98z" />
    <glyph glyph-name="N" unicode="N" horiz-adv-x="725" 
d="M48 0l129 688h85l255 -521l97 521h98l-129 -688h-85l-255 521l-97 -521h-98z" />
    <glyph glyph-name="O" unicode="O" horiz-adv-x="725" 
d="M59 264q0 190 106 313t268 123q121 0 194.5 -76t73.5 -200q0 -190 -106 -313t-268 -123q-121 0 -194.5 76t-73.5 200zM166 275q0 -92 46 -146t125 -54q107 0 182 98.5t75 239.5q0 92 -46 146t-125 54q-107 0 -182 -98.5t-75 -239.5z" />
    <glyph glyph-name="P" unicode="P" horiz-adv-x="588" 
d="M48 0l129 688h208q94 0 150 -49.5t56 -132.5q0 -107 -80 -178t-201 -71h-112l-49 -257h-101zM264 606l-51 -267h99q77 0 125.5 43t48.5 112q0 52 -34.5 82t-94.5 30h-93z" />
    <glyph glyph-name="Q" unicode="Q" horiz-adv-x="725" 
d="M59 264q0 190 106 313t268 123q121 0 194.5 -76t73.5 -200q0 -127 -50 -227.5t-137 -155.5l106 -143h-113l-78 107q-49 -17 -102 -17q-121 0 -194.5 76t-73.5 200zM166 275q0 -92 46 -146t125 -54q107 0 182 98.5t75 239.5q0 92 -46 146t-125 54q-107 0 -182 -98.5
t-75 -239.5z" />
    <glyph glyph-name="R" unicode="R" horiz-adv-x="600" 
d="M406 0l-111 264h-96l-50 -264h-101l129 688h204q92 0 147 -48.5t55 -129.5q0 -84 -52 -147.5t-136 -85.5l119 -277h-108zM264 606l-50 -260h94q76 0 123.5 43.5t47.5 108.5q0 50 -34 79t-92 29h-89z" />
    <glyph glyph-name="S" unicode="S" horiz-adv-x="538" 
d="M26 47l17 93q98 -69 188 -69q63 0 102.5 32.5t39.5 83.5q0 38 -28 66.5t-67.5 48.5t-79.5 42.5t-68 62t-28 93.5q0 88 67 144t174 56q93 0 188 -52l-16 -91q-90 60 -172 60q-62 0 -100.5 -30.5t-38.5 -79.5q0 -37 28 -64t68 -46.5t79.5 -42.5t67.5 -63.5t28 -96.5
q0 -90 -68 -148t-176 -58q-98 0 -205 59z" />
    <glyph glyph-name="T" unicode="T" horiz-adv-x="577" 
d="M190 0l113 604h-211l16 84h526l-16 -84h-212l-113 -604h-103z" />
    <glyph glyph-name="U" unicode="U" horiz-adv-x="725" 
d="M715 688l-84 -454q-21 -113 -103 -179.5t-201 -66.5q-104 0 -171.5 60.5t-67.5 153.5q0 27 7 67l78 419h104l-79 -419q-5 -30 -5 -53q0 -63 39.5 -102t104.5 -39q74 0 126 46t66 124l83 443h103z" />
    <glyph glyph-name="V" unicode="V" horiz-adv-x="631" 
d="M697 688l-391 -688h-83l-136 688h100l98 -545l301 545h111z" />
    <glyph glyph-name="W" unicode="W" horiz-adv-x="1006" 
d="M1066 688l-356 -688h-91l-66 555l-273 -555h-91l-96 688h97l66 -555l273 555h91l66 -555l273 555h107z" />
    <glyph glyph-name="X" unicode="X" horiz-adv-x="638" 
d="M-33 0l305 354l-166 334h110l128 -263l215 263h122l-289 -342l171 -346h-112l-131 275l-228 -275h-125z" />
    <glyph glyph-name="Y" unicode="Y" horiz-adv-x="591" 
d="M191 0l56 296l-164 392h109l118 -303l231 303h124l-316 -401l-55 -287h-103z" />
    <glyph glyph-name="Z" unicode="Z" horiz-adv-x="612" 
d="M-6 0l14 71l483 533h-363l16 84h494l-14 -71l-483 -533h389l-16 -84h-520z" />
    <glyph glyph-name="bracketleft" unicode="[" horiz-adv-x="327" 
d="M20 -156l164 875h203l-15 -78h-104l-135 -719h105l-16 -78h-202z" />
    <glyph glyph-name="backslash" unicode="\" horiz-adv-x="375" 
d="M235 -156l-167 875h99l167 -875h-99z" />
    <glyph glyph-name="bracketright" unicode="]" horiz-adv-x="327" 
d="M318 719l-164 -875h-202l14 78h105l135 719h-105l14 78h203z" />
    <glyph glyph-name="asciicircum" unicode="^" 
d="M49 188l214 500h72l215 -500h-95l-156 365l-156 -365h-94z" />
    <glyph glyph-name="underscore" unicode="_" horiz-adv-x="500" 
d="M-79 -166l16 81h500l-16 -81h-500z" />
    <glyph glyph-name="grave" unicode="`" horiz-adv-x="250" 
d="M164 565l-91 154h91l76 -154h-76z" />
    <glyph glyph-name="a" unicode="a" horiz-adv-x="561" 
d="M532 500l-94 -500h-97l7 38q-64 -50 -132 -50q-80 0 -130 56t-50 145q0 139 73.5 231t183.5 92q68 0 131 -49l8 37h100zM140 202q0 -61 28.5 -94.5t79.5 -33.5q55 0 114 56l47 251q-50 45 -104 45q-71 0 -118 -63.5t-47 -160.5z" />
    <glyph glyph-name="b" unicode="b" horiz-adv-x="561" 
d="M29 0l135 719h100l-47 -254q61 47 128 47q80 0 130 -56t50 -144q0 -140 -73.5 -232t-183.5 -92q-70 0 -132 50l-7 -38h-100zM421 298q0 61 -28.5 94.5t-79.5 33.5q-56 0 -114 -55l-47 -251q49 -46 104 -46q71 0 118 64t47 160z" />
    <glyph glyph-name="c" unicode="c" horiz-adv-x="472" 
d="M36 195q0 137 81 227t205 90q77 0 148 -43l-17 -87q-63 46 -126 46q-81 0 -134 -62.5t-53 -157.5q0 -62 35.5 -99t93.5 -37q65 0 134 39l-17 -91q-70 -32 -142 -32q-91 0 -149.5 58t-58.5 149z" />
    <glyph glyph-name="d" unicode="d" horiz-adv-x="561" 
d="M573 719l-135 -719h-97l7 38q-64 -50 -132 -50q-80 0 -130 56t-50 145q0 139 73.5 231t183.5 92q68 0 131 -49l49 256h100zM140 202q0 -61 28.5 -94.5t79.5 -33.5q55 0 114 56l47 251q-50 45 -104 45q-71 0 -118 -63.5t-47 -160.5z" />
    <glyph glyph-name="e" unicode="e" horiz-adv-x="510" 
d="M36 195q0 139 75.5 228t194.5 89q78 0 127.5 -52t49.5 -134q0 -48 -12 -101h-335q-2 -16 -2 -25q0 -59 37 -96t98 -37q75 0 151 47l-17 -91q-78 -35 -159 -35q-91 0 -149.5 58.5t-58.5 148.5zM148 292h238q3 20 3 36q0 47 -25 76t-66 29q-54 0 -94 -37.5t-56 -103.5z" />
    <glyph glyph-name="f" unicode="f" horiz-adv-x="370" 
d="M38 -141l105 560h-91l15 81h91l17 93q12 65 56 101.5t109 36.5q53 0 114 -28l-15 -81q-45 25 -83 25q-32 0 -54.5 -19t-28.5 -52l-14 -76h138l-15 -81h-138l-105 -560h-101z" />
    <glyph glyph-name="g" unicode="g" horiz-adv-x="561" 
d="M532 500l-97 -517q-19 -99 -86.5 -156.5t-165.5 -57.5q-92 0 -178 47l16 85q81 -52 161 -52q57 0 99.5 37t53.5 98l9 52q-62 -48 -128 -48q-80 0 -130 56t-50 145q0 139 73.5 231t183.5 92q68 0 131 -49l8 37h100zM140 202q0 -61 28.5 -94.5t79.5 -33.5q55 0 114 56
l47 251q-50 45 -104 45q-71 0 -118 -63.5t-47 -160.5z" />
    <glyph glyph-name="h" unicode="h" horiz-adv-x="561" 
d="M29 0l135 719h100l-49 -264q69 57 147 57q62 0 103.5 -40.5t41.5 -101.5q0 -18 -6 -54l-59 -316h-100l57 311q4 13 4 34q0 36 -22 58t-59 22q-61 0 -125 -62l-68 -363h-100z" />
    <glyph glyph-name="i" unicode="i" horiz-adv-x="251" 
d="M29 0l93 500h101l-94 -500h-100zM138 636q0 28 19 46.5t48 18.5q23 0 38 -14.5t15 -37.5q0 -28 -19 -47t-48 -19q-23 0 -38 15t-15 38z" />
    <glyph glyph-name="j" unicode="j" horiz-adv-x="251" 
d="M223 500l-111 -592q-12 -65 -55.5 -102t-108.5 -37q-55 0 -115 29l15 81q44 -26 83 -26q33 0 55.5 19.5t28.5 51.5l107 576h101zM138 636q0 28 19 46.5t48 18.5q23 0 38 -14.5t15 -37.5q0 -28 -19 -47t-48 -19q-23 0 -38 15t-15 38z" />
    <glyph glyph-name="k" unicode="k" horiz-adv-x="489" 
d="M29 0l135 719h98l-79 -420l211 201h124l-262 -249l176 -251h-113l-151 217l-41 -217h-98z" />
    <glyph glyph-name="l" unicode="l" horiz-adv-x="251" 
d="M29 0l135 719h100l-135 -719h-100z" />
    <glyph glyph-name="m" unicode="m" horiz-adv-x="846" 
d="M29 0l93 500h98l-9 -44q72 56 144 56q42 0 76.5 -21t51.5 -56q87 77 172 77q59 0 99 -40t40 -98q0 -23 -5 -51l-61 -323h-101l60 316q4 22 4 34q0 33 -21 54t-56 21q-60 0 -117 -59l-69 -366h-100l60 316q3 16 3 34q0 33 -21 54t-55 21q-56 0 -118 -59l-68 -366h-100z
" />
    <glyph glyph-name="n" unicode="n" horiz-adv-x="561" 
d="M29 0l93 500h98l-9 -47q73 59 151 59q62 0 103.5 -40.5t41.5 -101.5q0 -18 -6 -54l-59 -316h-100l57 311q4 15 4 34q0 37 -22 58.5t-59 21.5q-60 0 -125 -62l-68 -363h-100z" />
    <glyph glyph-name="o" unicode="o" horiz-adv-x="561" 
d="M36 195q0 138 79.5 227.5t203.5 89.5q92 0 149 -57t57 -149q0 -139 -80 -228.5t-204 -89.5q-92 0 -148.5 57t-56.5 150zM140 205q0 -61 30 -97t82 -36q71 0 120 65t49 159q0 60 -30.5 96t-81.5 36q-71 0 -120 -64.5t-49 -158.5z" />
    <glyph glyph-name="p" unicode="p" horiz-adv-x="561" 
d="M-12 -219l134 719h98l-7 -37q63 49 132 49q80 0 130 -56t50 -144q0 -140 -73.5 -232t-183.5 -92q-70 0 -132 50l-48 -257h-100zM421 298q0 61 -28.5 94.5t-79.5 33.5q-56 0 -114 -55l-47 -251q49 -46 104 -46q71 0 118 64t47 160z" />
    <glyph glyph-name="q" unicode="q" horiz-adv-x="561" 
d="M532 500l-135 -719h-100l47 255q-62 -48 -128 -48q-80 0 -130 56t-50 145q0 139 73.5 231t183.5 92q68 0 131 -49l8 37h100zM140 202q0 -61 28.5 -94.5t79.5 -33.5q55 0 114 56l47 251q-50 45 -104 45q-71 0 -118 -63.5t-47 -160.5z" />
    <glyph glyph-name="r" unicode="r" horiz-adv-x="382" 
d="M29 0l93 500h98l-10 -51q68 63 137 63q31 0 53 -12l-17 -89q-27 12 -51 12q-71 0 -137 -71l-66 -352h-100z" />
    <glyph glyph-name="s" unicode="s" horiz-adv-x="421" 
d="M13 31l16 88q73 -51 139 -51q40 0 64.5 19.5t24.5 51.5q0 24 -19.5 42.5t-47.5 32.5t-56 30.5t-47.5 45.5t-19.5 69q0 68 51.5 110.5t134.5 42.5q73 0 143 -38l-15 -86q-68 44 -128 44q-38 0 -62 -18.5t-24 -48.5q0 -23 19.5 -41t48 -31.5t56.5 -30t47.5 -46.5t19.5 -71
q0 -71 -52.5 -114t-137.5 -43q-77 0 -155 43z" />
    <glyph glyph-name="t" unicode="t" horiz-adv-x="409" 
d="M285 641l-26 -141h158l-15 -81h-158l-49 -257q-3 -16 -3 -30q0 -27 17.5 -43.5t47.5 -16.5q37 0 85 24l-17 -90q-49 -18 -98 -18q-62 0 -100 34.5t-38 91.5q0 13 4 37l50 268h-91l15 81h91l26 141h101z" />
    <glyph glyph-name="u" unicode="u" horiz-adv-x="561" 
d="M532 500l-94 -500h-97l9 48q-74 -60 -152 -60q-62 0 -103 40.5t-41 101.5q0 25 5 55l60 315h100l-58 -310q-3 -16 -3 -34q0 -37 22 -58.5t59 -21.5q61 0 124 61l69 363h100z" />
    <glyph glyph-name="v" unicode="v" horiz-adv-x="490" 
d="M522 500l-284 -500h-83l-98 500h97l63 -365l197 365h108z" />
    <glyph glyph-name="w" unicode="w" horiz-adv-x="764" 
d="M792 500l-260 -500h-90l-40 376l-180 -376h-90l-71 500h95l41 -376l180 376h89l41 -376l181 376h104z" />
    <glyph glyph-name="x" unicode="x" horiz-adv-x="497" 
d="M-32 0l221 257l-119 243h106l82 -175l140 175h116l-210 -249l123 -251h-107l-84 183l-149 -183h-119z" />
    <glyph glyph-name="y" unicode="y" horiz-adv-x="490" 
d="M522 500l-409 -719h-103l141 237l-94 482h97l63 -365l197 365h108z" />
    <glyph glyph-name="z" unicode="z" horiz-adv-x="475" 
d="M-8 0l13 68l321 351h-241l16 81h369l-14 -67l-320 -352h261l-16 -81h-389z" />
    <glyph glyph-name="braceleft" unicode="{" horiz-adv-x="327" 
d="M387 719l-15 -78h-16q-37 0 -62.5 -21.5t-32.5 -58.5l-31 -166q-8 -43 -37 -73.5t-73 -42.5q31 -11 49 -38.5t18 -63.5q0 -13 -4 -35l-24 -127q-4 -18 -4 -28q0 -30 18.5 -47.5t49.5 -17.5h15l-16 -78h-23q-66 0 -104 36t-38 98q0 22 4 41l25 130q4 20 4 30q0 26 -18 45
t-44 19h-10l15 77h8q33 0 60.5 26.5t34.5 66.5l31 168q12 64 62.5 101t124.5 37h33z" />
    <glyph glyph-name="bar" unicode="|" horiz-adv-x="250" 
d="M82 -250v1001h87v-1001h-87z" />
    <glyph glyph-name="braceright" unicode="}" horiz-adv-x="327" 
d="M-49 -156l15 78h16q37 0 62.5 22t32.5 59l32 165q8 43 37 73.5t72 42.5q-31 11 -49 38.5t-18 63.5q0 13 4 35l24 127q4 18 4 28q0 30 -18.5 47.5t-50.5 17.5h-13l14 78h25q66 0 103.5 -36t37.5 -98q0 -22 -4 -41l-25 -130q-4 -20 -4 -30q0 -26 18 -45t44 -19h10l-14 -77
h-9q-33 0 -60 -26.5t-34 -66.5l-31 -168q-12 -64 -63 -101t-125 -37h-33z" />
    <glyph glyph-name="asciitilde" unicode="~" 
d="M32 203q0 77 40.5 124.5t105.5 47.5q34 0 66 -15.5t53 -34.5t45.5 -34.5t44.5 -15.5q30 0 49.5 24t19.5 61h87q0 -77 -40.5 -124.5t-105.5 -47.5q-34 0 -66 15.5t-53 34.5t-45.5 34.5t-44.5 15.5q-30 0 -49.5 -24t-19.5 -61h-87z" />
    <glyph glyph-name="uni00A0" unicode="&#xa0;" horiz-adv-x="250" 
 />
    <glyph glyph-name="exclamdown" unicode="&#xa1;" horiz-adv-x="278" 
d="M198 299l-91 -487h-100l91 487h100zM238 455q0 -30 -20 -50t-50 -20q-25 0 -41 16t-16 41q0 30 20 50t50 20q25 0 41 -16t16 -41z" />
    <glyph glyph-name="cent" unicode="&#xa2;" 
d="M217 -63l29 154q-67 17 -107 70.5t-40 127.5q0 125 67.5 211.5t174.5 101.5l28 149h87l-28 -149q53 -7 105 -39l-16 -87q-64 46 -127 46q-81 0 -134.5 -62.5t-53.5 -157.5q0 -61 35.5 -98.5t94.5 -37.5q64 0 134 39l-17 -92q-57 -26 -118 -30l-28 -146h-86z" />
    <glyph glyph-name="sterling" unicode="&#xa3;" 
d="M9 0l12 65l117 244h-64l15 82h87l85 178q64 131 187 131q58 0 122 -32l-16 -86q-47 31 -91 31q-69 0 -103 -71l-73 -151h143l-15 -82h-166l-109 -225h344l-16 -84h-459z" />
    <glyph glyph-name="currency" unicode="&#xa4;" 
d="M93 344q0 66 32 113l-89 88l62 62l88 -89q47 32 113 32t113 -32l88 89l62 -62l-89 -88q32 -49 32 -113q0 -66 -32 -113l89 -88l-62 -62l-89 89q-46 -32 -112 -32t-113 32l-88 -89l-62 62l89 88q-32 47 -32 113zM173 344q0 -56 35.5 -91t90.5 -35q56 0 91.5 35.5
t35.5 90.5q0 56 -36 91.5t-91 35.5t-90.5 -35.5t-35.5 -91.5z" />
    <glyph glyph-name="yen" unicode="&#xa5;" 
d="M177 0l26 139h-150l13 71h150l17 89h-150l13 70h125l-133 319h108l106 -272l208 272h122l-252 -319h119l-13 -70h-149l-17 -89h150l-14 -71h-149l-27 -139h-103z" />
    <glyph glyph-name="brokenbar" unicode="&#xa6;" horiz-adv-x="250" 
d="M82 313v375h87v-375h-87zM82 -188v376h87v-376h-87z" />
    <glyph glyph-name="section" unicode="&#xa7;" horiz-adv-x="490" 
d="M2 -88l18 92q83 -58 155 -58q48 0 77 23t29 61q0 29 -22.5 50t-54.5 37t-64 35t-54.5 54.5t-22.5 84.5q0 93 90 154q-31 37 -31 86q0 74 57.5 121.5t147.5 47.5q79 0 159 -42l-16 -90q-75 49 -143 49q-45 0 -73 -22.5t-28 -57.5q0 -24 16 -42.5t40 -30t52 -28.5t52 -34.5
t40 -50.5t16 -75q0 -96 -87 -152q29 -38 29 -88q0 -77 -57.5 -125t-151.5 -48q-83 0 -173 49zM218 392q-58 -37 -58 -95q0 -19 6 -33.5t22 -27.5t26 -19.5t38 -20.5l38 -19q57 37 57 93q0 20 -6 35.5t-22 28.5t-26.5 19.5t-37.5 19.5t-37 19z" />
    <glyph glyph-name="dieresis" unicode="&#xa8;" horiz-adv-x="250" 
d="M36 636q0 27 18.5 45.5t46.5 18.5q23 0 37 -14t14 -37q0 -28 -18.5 -46.5t-45.5 -18.5q-23 0 -37.5 14.5t-14.5 37.5zM242 636q0 27 18.5 45.5t45.5 18.5q23 0 37.5 -14.5t14.5 -36.5q0 -28 -18 -46.5t-46 -18.5q-23 0 -37.5 14.5t-14.5 37.5z" />
    <glyph glyph-name="copyright" unicode="&#xa9;" horiz-adv-x="845" 
d="M81 344q0 158 100.5 259t258.5 101t259 -101t101 -259t-101 -259t-259 -101t-258.5 101t-100.5 259zM142 344q0 -131 83.5 -215t214.5 -84t215 84t84 215t-84 215t-215 84t-214.5 -84t-83.5 -215zM253 344q0 92 56.5 151t144.5 59q61 0 117 -29v-71q-56 35 -104 35
q-59 0 -96 -40.5t-37 -104.5t37 -104t96 -40q50 0 104 34v-71q-60 -29 -117 -29q-88 0 -144.5 59t-56.5 151z" />
    <glyph glyph-name="ordfeminine" unicode="&#xaa;" horiz-adv-x="368" 
d="M40 252l11 59h288l-12 -59h-287zM399 688l-59 -313h-72l4 22q-38 -29 -80 -29q-50 0 -81 35.5t-31 91.5q0 86 45.5 143.5t114.5 57.5q43 0 79 -30l4 22h76zM157 504q0 -34 16 -53t44 -19q32 0 64 32l27 142q-28 25 -58 25q-40 0 -66.5 -36t-26.5 -91z" />
    <glyph glyph-name="guillemotleft" unicode="&#xab;" horiz-adv-x="619" 
d="M617 461l-226 -214l141 -207h-100l-163 213l234 208h114zM393 461l-226 -214l141 -207h-100l-164 213l234 208h115z" />
    <glyph glyph-name="logicalnot" unicode="&#xac;" 
d="M37 238v87h501v-294h-87v207h-414z" />
    <glyph glyph-name="uni00AD" unicode="&#xad;" horiz-adv-x="313" 
d="M25 214l15 81h248l-15 -81h-248z" />
    <glyph glyph-name="registered" unicode="&#xae;" horiz-adv-x="500" 
d="M79 485q0 95 60.5 155t154.5 60t154.5 -60t60.5 -155t-60.5 -155t-154.5 -60t-154.5 60t-60.5 155zM121 485q0 -76 48.5 -124.5t124.5 -48.5q77 0 125.5 48.5t48.5 124.5t-49 124.5t-125 48.5t-124.5 -48.5t-48.5 -124.5zM265 565v-74h30q18 0 29 10t11 27q0 16 -11 26.5
t-29 10.5h-30zM219 368v234h83q36 0 58.5 -21t22.5 -53q0 -49 -46 -68l54 -92h-51l-49 85h-26v-85h-46z" />
    <glyph glyph-name="macron" unicode="&#xaf;" horiz-adv-x="250" 
d="M33 607l13 71h317l-13 -71h-317z" />
    <glyph glyph-name="degree" unicode="&#xb0;" horiz-adv-x="358" 
d="M103 569q0 58 36.5 94.5t94.5 36.5q57 0 94 -36.5t37 -94.5t-37 -94.5t-94 -36.5q-58 0 -94.5 36.5t-36.5 94.5zM166 569q0 -29 19 -48t49 -19q29 0 48 19t19 48t-19 48t-48 19q-30 0 -49 -19t-19 -48z" />
    <glyph glyph-name="plusminus" unicode="&#xb1;" 
d="M37 344v87h207v207h87v-207h207v-87h-207v-207h-87v207h-207zM37 0v87h501v-87h-501z" />
    <glyph glyph-name="twosuperior" unicode="&#xb2;" horiz-adv-x="311" 
d="M49 407l10 52q216 145 216 235q0 27 -15.5 43t-42.5 16q-50 0 -100 -37l13 76q53 28 111 28q51 0 83 -30.5t32 -80.5q0 -100 -184 -237h146l-12 -65h-257z" />
    <glyph glyph-name="threesuperior" unicode="&#xb3;" horiz-adv-x="307" 
d="M158 583l12 61h20q37 0 60.5 18.5t23.5 46.5q0 21 -16 34t-41 13q-43 0 -94 -27l13 71q48 20 97 20q52 0 85 -27.5t33 -71.5q0 -37 -23.5 -67t-61.5 -42q29 -11 45 -33.5t16 -51.5q0 -55 -44.5 -91t-111.5 -36q-61 0 -113 32l11 68q50 -36 100 -36q33 0 56 18.5t23 45.5
q0 25 -19.5 40t-50.5 15h-20z" />
    <glyph glyph-name="acute" unicode="&#xb4;" horiz-adv-x="250" 
d="M123 565l134 154h104l-149 -154h-89z" />
    <glyph glyph-name="mu" unicode="&#xb5;" horiz-adv-x="565" 
d="M-12 -219l134 719h101l-58 -310q-3 -16 -3 -34q0 -37 22 -58.5t59 -21.5q61 0 125 61l68 363h100l-94 -500h-97l9 48q-64 -56 -132 -56q-52 0 -88 36l-46 -247h-100z" />
    <glyph glyph-name="paragraph" unicode="&#xb6;" horiz-adv-x="580" 
d="M312 285h-42q-88 0 -140.5 46.5t-52.5 123.5q0 100 75 166.5t188 66.5h227l-152 -813h-87l136 726h-92z" />
    <glyph glyph-name="periodcentered" unicode="&#xb7;" horiz-adv-x="250" 
d="M61 243q0 30 20 50t50 20q25 0 41 -16t16 -41q0 -29 -20 -49.5t-50 -20.5q-25 0 -41 16t-16 41z" />
    <glyph glyph-name="cedilla" unicode="&#xb8;" horiz-adv-x="250" 
d="M120 0l-22 -53q25 -8 40.5 -28t15.5 -46q0 -44 -37 -74t-92 -30q-42 0 -85 24l13 61q34 -23 67 -23q24 0 39.5 12.5t15.5 31.5t-15.5 30.5t-39.5 11.5h-4l36 83h68z" />
    <glyph glyph-name="onesuperior" unicode="&#xb9;" horiz-adv-x="259" 
d="M148 407l61 320l-108 -46l13 72l139 60h50l-76 -406h-79z" />
    <glyph glyph-name="ordmasculine" unicode="&#xba;" horiz-adv-x="368" 
d="M40 252l11 59h288l-12 -59h-287zM80 499q0 86 50.5 141.5t130.5 55.5q59 0 96 -36.5t37 -94.5q0 -86 -51.5 -141.5t-130.5 -55.5q-59 0 -95.5 36t-36.5 95zM157 505q0 -34 17 -54t46 -20q41 0 68.5 36.5t27.5 91.5q0 33 -17.5 53t-46.5 20q-40 0 -67.5 -36.5t-27.5 -90.5
z" />
    <glyph glyph-name="guillemotright" unicode="&#xbb;" horiz-adv-x="619" 
d="M2 40l226 213l-141 208h100l164 -214l-235 -207h-114zM226 40l226 213l-141 208h100l164 -214l-234 -207h-115z" />
    <glyph glyph-name="onequarter" unicode="&#xbc;" horiz-adv-x="845" 
d="M167 282l61 320l-108 -46l13 72l139 60h50l-76 -406h-79zM75 0l642 688h87l-641 -688h-88zM645 0l19 100h-175l10 56l230 250h66l-46 -246h60l-11 -60h-61l-19 -100h-73zM574 160h101l25 137z" />
    <glyph glyph-name="onehalf" unicode="&#xbd;" horiz-adv-x="845" 
d="M75 0l642 688h87l-641 -688h-88zM490 0l10 52q216 145 216 235q0 27 -15.5 43t-42.5 16q-50 0 -100 -37l13 76q53 28 111 28q51 0 83 -30.5t32 -80.5q0 -100 -184 -237h146l-12 -65h-257zM167 282l61 320l-108 -46l13 72l139 60h50l-76 -406h-79z" />
    <glyph glyph-name="threequarters" unicode="&#xbe;" horiz-adv-x="845" 
d="M154 458l12 61h20q37 0 60.5 18.5t23.5 46.5q0 21 -16 34t-41 13q-43 0 -94 -27l13 71q48 20 97 20q52 0 85 -27.5t33 -71.5q0 -37 -23.5 -67t-61.5 -42q29 -11 45 -33.5t16 -51.5q0 -55 -44.5 -91t-111.5 -36q-61 0 -113 32l11 68q50 -36 100 -36q33 0 56 18.5t23 45.5
q0 25 -19.5 40t-50.5 15h-20zM75 0l642 688h87l-641 -688h-88zM645 0l19 100h-175l10 56l230 250h66l-46 -246h60l-11 -60h-61l-19 -100h-73zM574 160h101l25 137z" />
    <glyph glyph-name="questiondown" unicode="&#xbf;" horiz-adv-x="448" 
d="M312 299l-5 -27q-8 -43 -31.5 -79.5t-50.5 -61t-53 -47.5t-43.5 -50t-17.5 -58q0 -39 25.5 -63t67.5 -24q74 0 153 58l-19 -103q-75 -43 -161 -43q-77 0 -125 45t-48 116q0 44 19 82.5t47 66.5t57 53.5t53.5 56t31.5 62.5l4 16h96zM347 456q0 -30 -20 -50t-50 -20
q-25 0 -41 16t-16 41q0 29 20 49.5t50 20.5q25 0 41 -16t16 -41z" />
    <glyph glyph-name="Agrave" unicode="&#xc0;" horiz-adv-x="631" 
d="M-31 0l391 688h84l135 -688h-96l-34 183h-272l-101 -183h-107zM383 554l-162 -292h215zM393 753l-91 154h91l76 -154h-76z" />
    <glyph glyph-name="Aacute" unicode="&#xc1;" horiz-adv-x="631" 
d="M-31 0l391 688h84l135 -688h-96l-34 183h-272l-101 -183h-107zM383 554l-162 -292h215zM352 753l134 154h104l-149 -154h-89z" />
    <glyph glyph-name="Acircumflex" unicode="&#xc2;" horiz-adv-x="631" 
d="M-31 0l391 688h84l135 -688h-96l-34 183h-272l-101 -183h-107zM383 554l-162 -292h215zM260 753l135 154h87l76 -154h-73l-54 91l-87 -91h-84z" />
    <glyph glyph-name="Atilde" unicode="&#xc3;" horiz-adv-x="631" 
d="M-31 0l391 688h84l135 -688h-96l-34 183h-272l-101 -183h-107zM383 554l-162 -292h215zM258 779q8 50 38 81.5t73 31.5q31 0 67.5 -28t50.5 -28q17 0 30 12.5t16 32.5h64q-8 -50 -38.5 -81.5t-72.5 -31.5q-32 0 -68 28t-50 28q-18 0 -30.5 -12.5t-16.5 -32.5h-63z" />
    <glyph glyph-name="Adieresis" unicode="&#xc4;" horiz-adv-x="631" 
d="M-31 0l391 688h84l135 -688h-96l-34 183h-272l-101 -183h-107zM383 554l-162 -292h215zM265 824q0 27 18.5 45.5t46.5 18.5q22 0 36.5 -14t14.5 -37q0 -28 -18.5 -46.5t-45.5 -18.5q-23 0 -37.5 14.5t-14.5 37.5zM471 824q0 27 18.5 45.5t45.5 18.5q23 0 37.5 -14.5
t14.5 -36.5q0 -28 -18 -46.5t-46 -18.5q-23 0 -37.5 14.5t-14.5 37.5z" />
    <glyph glyph-name="Aring" unicode="&#xc5;" horiz-adv-x="631" 
d="M-31 0l391 688h84l135 -688h-96l-34 183h-272l-101 -183h-107zM383 554l-162 -292h215zM326 820q0 47 32 79t79 32q40 0 65 -25.5t25 -65.5q0 -47 -31.5 -78.5t-78.5 -31.5q-40 0 -65.5 25t-25.5 65zM376 825q0 -20 12.5 -33t33.5 -13q23 0 39.5 16t16.5 40q0 20 -13 33
t-33 13q-24 0 -40 -16t-16 -40z" />
    <glyph glyph-name="AE" unicode="&#xc6;" horiz-adv-x="901" 
d="M399 0l33 176h-237l-142 -176h-118l561 688h428l-16 -84h-292l-40 -213h254l-16 -83h-254l-42 -224h300l-15 -84h-404zM504 560l-247 -306h190z" />
    <glyph glyph-name="Ccedilla" unicode="&#xc7;" horiz-adv-x="609" 
d="M59 265q0 190 107.5 312.5t272.5 122.5q101 0 196 -59l-18 -92q-85 64 -173 64q-120 0 -199 -95.5t-79 -239.5q0 -92 52 -147.5t139 -55.5q93 0 181 54l-17 -98q-83 -41 -178 -43l-17 -41q25 -8 40.5 -28t15.5 -46q0 -44 -36.5 -74t-91.5 -30q-43 0 -85 24l12 61
q34 -23 67 -23q25 0 40 12t15 32q0 19 -15 30.5t-40 11.5h-4l33 76q-98 18 -158 92t-60 180z" />
    <glyph glyph-name="Egrave" unicode="&#xc8;" horiz-adv-x="550" 
d="M48 0l129 688h396l-16 -84h-292l-40 -213h253l-15 -83h-253l-43 -224h300l-15 -84h-404zM363 753l-91 154h91l76 -154h-76z" />
    <glyph glyph-name="Eacute" unicode="&#xc9;" horiz-adv-x="550" 
d="M48 0l129 688h396l-16 -84h-292l-40 -213h253l-15 -83h-253l-43 -224h300l-15 -84h-404zM322 753l134 154h104l-149 -154h-89z" />
    <glyph glyph-name="Ecircumflex" unicode="&#xca;" horiz-adv-x="550" 
d="M48 0l129 688h396l-16 -84h-292l-40 -213h253l-15 -83h-253l-43 -224h300l-15 -84h-404zM230 753l135 154h87l76 -154h-73l-54 91l-87 -91h-84z" />
    <glyph glyph-name="Edieresis" unicode="&#xcb;" horiz-adv-x="550" 
d="M48 0l129 688h396l-16 -84h-292l-40 -213h253l-15 -83h-253l-43 -224h300l-15 -84h-404zM235 824q0 27 18.5 45.5t46.5 18.5q22 0 36.5 -14t14.5 -37q0 -28 -18.5 -46.5t-45.5 -18.5q-23 0 -37.5 14.5t-14.5 37.5zM441 824q0 27 18.5 45.5t45.5 18.5q23 0 37.5 -14.5
t14.5 -36.5q0 -28 -18 -46.5t-46 -18.5q-23 0 -37.5 14.5t-14.5 37.5z" />
    <glyph glyph-name="Igrave" unicode="&#xcc;" horiz-adv-x="293" 
d="M48 0l129 688h104l-130 -688h-103zM221 753l-91 154h91l76 -154h-76z" />
    <glyph glyph-name="Iacute" unicode="&#xcd;" horiz-adv-x="293" 
d="M48 0l129 688h104l-130 -688h-103zM180 753l134 154h104l-149 -154h-89z" />
    <glyph glyph-name="Icircumflex" unicode="&#xce;" horiz-adv-x="293" 
d="M48 0l129 688h104l-130 -688h-103zM88 753l135 154h87l76 -154h-73l-54 91l-87 -91h-84z" />
    <glyph glyph-name="Idieresis" unicode="&#xcf;" horiz-adv-x="293" 
d="M48 0l129 688h104l-130 -688h-103zM93 824q0 27 18.5 45.5t46.5 18.5q22 0 36.5 -14t14.5 -37q0 -28 -18.5 -46.5t-45.5 -18.5q-23 0 -37.5 14.5t-14.5 37.5zM299 824q0 27 18.5 45.5t45.5 18.5q23 0 37.5 -14.5t14.5 -36.5q0 -28 -18 -46.5t-46 -18.5q-23 0 -37.5 14.5
t-14.5 37.5z" />
    <glyph glyph-name="Eth" unicode="&#xd0;" horiz-adv-x="709" 
d="M36 314l14 72h86l57 302h207q127 0 206 -73.5t79 -190.5q0 -194 -105.5 -309t-284.5 -115h-231l59 314h-87zM280 604l-40 -218h151l-14 -72h-151l-43 -230h119q123 0 199.5 91.5t76.5 237.5q0 89 -52 140t-145 51h-101z" />
    <glyph glyph-name="Ntilde" unicode="&#xd1;" horiz-adv-x="725" 
d="M48 0l129 688h85l255 -521l97 521h98l-129 -688h-85l-255 521l-97 -521h-98zM301 779q8 50 38 81.5t73 31.5q31 0 67.5 -28t50.5 -28q17 0 30 12.5t16 32.5h64q-8 -50 -38.5 -81.5t-72.5 -31.5q-24 0 -46.5 14t-40.5 28t-31 14q-18 0 -30.5 -12.5t-16.5 -32.5h-63z" />
    <glyph glyph-name="Ograve" unicode="&#xd2;" horiz-adv-x="725" 
d="M59 264q0 190 106 313t268 123q121 0 194.5 -76t73.5 -200q0 -190 -106 -313t-268 -123q-121 0 -194.5 76t-73.5 200zM166 275q0 -92 46 -146t125 -54q107 0 182 98.5t75 239.5q0 92 -46 146t-125 54q-107 0 -182 -98.5t-75 -239.5zM436 753l-91 154h91l76 -154h-76z" />
    <glyph glyph-name="Oacute" unicode="&#xd3;" horiz-adv-x="725" 
d="M59 264q0 190 106 313t268 123q121 0 194.5 -76t73.5 -200q0 -190 -106 -313t-268 -123q-121 0 -194.5 76t-73.5 200zM166 275q0 -92 46 -146t125 -54q107 0 182 98.5t75 239.5q0 92 -46 146t-125 54q-107 0 -182 -98.5t-75 -239.5zM395 753l134 154h104l-149 -154h-89z
" />
    <glyph glyph-name="Ocircumflex" unicode="&#xd4;" horiz-adv-x="725" 
d="M59 264q0 190 106 313t268 123q121 0 194.5 -76t73.5 -200q0 -190 -106 -313t-268 -123q-121 0 -194.5 76t-73.5 200zM166 275q0 -92 46 -146t125 -54q107 0 182 98.5t75 239.5q0 92 -46 146t-125 54q-107 0 -182 -98.5t-75 -239.5zM303 753l135 154h87l76 -154h-73
l-54 91l-87 -91h-84z" />
    <glyph glyph-name="Otilde" unicode="&#xd5;" horiz-adv-x="725" 
d="M59 264q0 190 106 313t268 123q121 0 194.5 -76t73.5 -200q0 -190 -106 -313t-268 -123q-121 0 -194.5 76t-73.5 200zM166 275q0 -92 46 -146t125 -54q107 0 182 98.5t75 239.5q0 92 -46 146t-125 54q-107 0 -182 -98.5t-75 -239.5zM301 779q8 50 38 81.5t73 31.5
q31 0 67.5 -28t50.5 -28q17 0 30 12.5t16 32.5h64q-8 -50 -38.5 -81.5t-72.5 -31.5q-24 0 -46.5 14t-40.5 28t-31 14q-18 0 -30.5 -12.5t-16.5 -32.5h-63z" />
    <glyph glyph-name="Odieresis" unicode="&#xd6;" horiz-adv-x="725" 
d="M59 264q0 190 106 313t268 123q121 0 194.5 -76t73.5 -200q0 -190 -106 -313t-268 -123q-121 0 -194.5 76t-73.5 200zM166 275q0 -92 46 -146t125 -54q107 0 182 98.5t75 239.5q0 92 -46 146t-125 54q-107 0 -182 -98.5t-75 -239.5zM308 824q0 27 18.5 45.5t46.5 18.5
q23 0 37 -14t14 -37q0 -28 -18.5 -46.5t-45.5 -18.5q-23 0 -37.5 14.5t-14.5 37.5zM514 824q0 27 18.5 45.5t45.5 18.5q23 0 37.5 -14.5t14.5 -36.5q0 -28 -18 -46.5t-46 -18.5q-23 0 -37.5 14.5t-14.5 37.5z" />
    <glyph glyph-name="multiply" unicode="&#xd7;" 
d="M119 52l-61 61l168 169l-168 168l61 61l169 -168l168 168l61 -61l-168 -168l168 -169l-61 -61l-168 168z" />
    <glyph glyph-name="Oslash" unicode="&#xd8;" horiz-adv-x="725" 
d="M59 264q0 190 106 313t268 123q107 0 177 -62l47 50h87l-90 -97q47 -69 47 -167q0 -190 -106 -313t-268 -123q-105 0 -177 62l-47 -50h-87l90 97q-47 69 -47 167zM594 413q0 53 -17 95l-358 -384q41 -49 118 -49q107 0 182 98.5t75 239.5zM166 275q0 -53 17 -95l358 384
q-43 49 -118 49q-107 0 -182 -98.5t-75 -239.5z" />
    <glyph glyph-name="Ugrave" unicode="&#xd9;" horiz-adv-x="725" 
d="M715 688l-84 -454q-21 -113 -103 -179.5t-201 -66.5q-104 0 -171.5 60.5t-67.5 153.5q0 27 7 67l78 419h104l-79 -419q-5 -30 -5 -53q0 -63 39.5 -102t104.5 -39q74 0 126 46t66 124l83 443h103zM436 753l-91 154h91l76 -154h-76z" />
    <glyph glyph-name="Uacute" unicode="&#xda;" horiz-adv-x="725" 
d="M715 688l-84 -454q-21 -113 -103 -179.5t-201 -66.5q-104 0 -171.5 60.5t-67.5 153.5q0 27 7 67l78 419h104l-79 -419q-5 -30 -5 -53q0 -63 39.5 -102t104.5 -39q74 0 126 46t66 124l83 443h103zM395 753l134 154h104l-149 -154h-89z" />
    <glyph glyph-name="Ucircumflex" unicode="&#xdb;" horiz-adv-x="725" 
d="M715 688l-84 -454q-21 -113 -103 -179.5t-201 -66.5q-104 0 -171.5 60.5t-67.5 153.5q0 27 7 67l78 419h104l-79 -419q-5 -30 -5 -53q0 -63 39.5 -102t104.5 -39q74 0 126 46t66 124l83 443h103zM303 753l135 154h87l76 -154h-73l-54 91l-87 -91h-84z" />
    <glyph glyph-name="Udieresis" unicode="&#xdc;" horiz-adv-x="725" 
d="M715 688l-84 -454q-21 -113 -103 -179.5t-201 -66.5q-104 0 -171.5 60.5t-67.5 153.5q0 27 7 67l78 419h104l-79 -419q-5 -30 -5 -53q0 -63 39.5 -102t104.5 -39q74 0 126 46t66 124l83 443h103zM308 824q0 27 18.5 45.5t46.5 18.5q23 0 37 -14t14 -37q0 -28 -18.5 -46.5
t-45.5 -18.5q-23 0 -37.5 14.5t-14.5 37.5zM514 824q0 27 18.5 45.5t45.5 18.5q23 0 37.5 -14.5t14.5 -36.5q0 -28 -18 -46.5t-46 -18.5q-23 0 -37.5 14.5t-14.5 37.5z" />
    <glyph glyph-name="Yacute" unicode="&#xdd;" horiz-adv-x="591" 
d="M191 0l56 296l-164 392h109l118 -303l231 303h124l-316 -401l-55 -287h-103zM323 753l134 154h104l-149 -154h-89z" />
    <glyph glyph-name="Thorn" unicode="&#xde;" horiz-adv-x="588" 
d="M48 0l129 688h102l-24 -124h106q94 0 150.5 -50t56.5 -133q0 -107 -80 -178t-201 -71h-113l-25 -132h-101zM240 482l-50 -268h99q77 0 125.5 43.5t48.5 112.5q0 52 -34.5 82t-94.5 30h-94z" />
    <glyph glyph-name="germandbls" unicode="&#xdf;" horiz-adv-x="649" 
d="M249 31l16 88q73 -51 139 -51q41 0 65.5 20t24.5 53q0 19 -13 36t-32.5 29t-42 28t-42 31.5t-32.5 41.5t-13 57q0 36 17.5 67t38 50t38 44t17.5 49q0 32 -24.5 53.5t-61.5 21.5q-43 0 -73 -25.5t-38 -69.5l-130 -695h-101l132 703q14 78 71.5 123.5t139.5 45.5
q83 0 134.5 -41t51.5 -107q0 -37 -17.5 -69t-38 -50.5t-38 -43t-17.5 -47.5t18 -42.5t43.5 -35.5t51 -34t43.5 -47.5t18 -66.5q0 -71 -52.5 -115t-137.5 -44q-75 0 -155 43z" />
    <glyph glyph-name="agrave" unicode="&#xe0;" horiz-adv-x="561" 
d="M532 500l-94 -500h-97l7 38q-64 -50 -132 -50q-80 0 -130 56t-50 145q0 139 73.5 231t183.5 92q68 0 131 -49l8 37h100zM140 202q0 -61 28.5 -94.5t79.5 -33.5q55 0 114 56l47 251q-50 45 -104 45q-71 0 -118 -63.5t-47 -160.5zM319 565l-91 154h91l76 -154h-76z" />
    <glyph glyph-name="aacute" unicode="&#xe1;" horiz-adv-x="561" 
d="M532 500l-94 -500h-97l7 38q-64 -50 -132 -50q-80 0 -130 56t-50 145q0 139 73.5 231t183.5 92q68 0 131 -49l8 37h100zM140 202q0 -61 28.5 -94.5t79.5 -33.5q55 0 114 56l47 251q-50 45 -104 45q-71 0 -118 -63.5t-47 -160.5zM278 565l134 154h104l-149 -154h-89z" />
    <glyph glyph-name="acircumflex" unicode="&#xe2;" horiz-adv-x="561" 
d="M532 500l-94 -500h-97l7 38q-64 -50 -132 -50q-80 0 -130 56t-50 145q0 139 73.5 231t183.5 92q68 0 131 -49l8 37h100zM140 202q0 -61 28.5 -94.5t79.5 -33.5q55 0 114 56l47 251q-50 45 -104 45q-71 0 -118 -63.5t-47 -160.5zM186 565l135 154h87l76 -154h-73l-54 91
l-87 -91h-84z" />
    <glyph glyph-name="atilde" unicode="&#xe3;" horiz-adv-x="561" 
d="M532 500l-94 -500h-97l7 38q-64 -50 -132 -50q-80 0 -130 56t-50 145q0 139 73.5 231t183.5 92q68 0 131 -49l8 37h100zM140 202q0 -61 28.5 -94.5t79.5 -33.5q55 0 114 56l47 251q-50 45 -104 45q-71 0 -118 -63.5t-47 -160.5zM184 591q8 50 38 81.5t73 31.5
q31 0 67.5 -28t50.5 -28q17 0 30 12.5t16 32.5h64q-8 -50 -38.5 -81.5t-72.5 -31.5q-32 0 -68 28t-50 28q-18 0 -30.5 -12.5t-16.5 -32.5h-63z" />
    <glyph glyph-name="adieresis" unicode="&#xe4;" horiz-adv-x="561" 
d="M532 500l-94 -500h-97l7 38q-64 -50 -132 -50q-80 0 -130 56t-50 145q0 139 73.5 231t183.5 92q68 0 131 -49l8 37h100zM140 202q0 -61 28.5 -94.5t79.5 -33.5q55 0 114 56l47 251q-50 45 -104 45q-71 0 -118 -63.5t-47 -160.5zM191 636q0 27 18.5 45.5t46.5 18.5
q22 0 36.5 -14t14.5 -37q0 -28 -18.5 -46.5t-45.5 -18.5q-23 0 -37.5 14.5t-14.5 37.5zM397 636q0 27 18.5 45.5t45.5 18.5q23 0 37.5 -14.5t14.5 -36.5q0 -28 -18 -46.5t-46 -18.5q-23 0 -37.5 14.5t-14.5 37.5z" />
    <glyph glyph-name="aring" unicode="&#xe5;" horiz-adv-x="561" 
d="M532 500l-94 -500h-97l7 38q-64 -50 -132 -50q-80 0 -130 56t-50 145q0 139 73.5 231t183.5 92q68 0 131 -49l8 37h100zM140 202q0 -61 28.5 -94.5t79.5 -33.5q55 0 114 56l47 251q-50 45 -104 45q-71 0 -118 -63.5t-47 -160.5zM252 632q0 47 32 79t79 32q40 0 65 -25.5
t25 -65.5q0 -47 -31.5 -78.5t-78.5 -31.5q-40 0 -65.5 25t-25.5 65zM302 637q0 -20 12.5 -33t33.5 -13q23 0 39.5 16t16.5 40q0 20 -13 33t-33 13q-24 0 -40 -16t-16 -40z" />
    <glyph glyph-name="ae" unicode="&#xe6;" horiz-adv-x="809" 
d="M351 303l5 26q3 13 3 26q0 35 -25 56.5t-65 21.5q-77 0 -159 -42l16 87q84 34 162 34q98 0 143 -73q68 73 174 73q78 0 127.5 -52t49.5 -134q0 -50 -13 -101h-334q-2 -16 -2 -25q0 -59 37 -96t98 -37q75 0 151 47l-17 -91q-78 -35 -160 -35q-103 0 -165 81
q-101 -81 -203 -81q-69 0 -112.5 36.5t-43.5 94.5q0 83 71.5 136t182.5 53q36 0 79 -5zM118 135q0 -32 22.5 -50.5t62.5 -18.5q74 0 142 66q-9 32 -9 63q0 25 4 44q-29 5 -68 5q-67 0 -110.5 -31t-43.5 -78zM446 292h239q3 20 3 36q0 47 -25 76t-66 29q-54 0 -94.5 -37.5
t-56.5 -103.5z" />
    <glyph glyph-name="ccedilla" unicode="&#xe7;" horiz-adv-x="472" 
d="M36 195q0 137 81 227t205 90q77 0 148 -43l-17 -87q-63 46 -126 46q-81 0 -134 -62.5t-53 -157.5q0 -62 35.5 -99t93.5 -37q65 0 134 39l-17 -91q-59 -28 -123 -31l-17 -42q25 -8 40.5 -28t15.5 -46q0 -44 -36.5 -74t-91.5 -30q-44 0 -85 24l12 61q34 -23 67 -23
q25 0 40 12t15 32q0 19 -15 30.5t-40 11.5h-4l33 76q-73 14 -117 69t-44 133z" />
    <glyph glyph-name="egrave" unicode="&#xe8;" horiz-adv-x="510" 
d="M36 195q0 139 75.5 228t194.5 89q78 0 127.5 -52t49.5 -134q0 -48 -12 -101h-335q-2 -16 -2 -25q0 -59 37 -96t98 -37q75 0 151 47l-17 -91q-78 -35 -159 -35q-91 0 -149.5 58.5t-58.5 148.5zM148 292h238q3 20 3 36q0 47 -25 76t-66 29q-54 0 -94 -37.5t-56 -103.5z
M314 565l-91 154h91l76 -154h-76z" />
    <glyph glyph-name="eacute" unicode="&#xe9;" horiz-adv-x="510" 
d="M36 195q0 139 75.5 228t194.5 89q78 0 127.5 -52t49.5 -134q0 -48 -12 -101h-335q-2 -16 -2 -25q0 -59 37 -96t98 -37q75 0 151 47l-17 -91q-78 -35 -159 -35q-91 0 -149.5 58.5t-58.5 148.5zM148 292h238q3 20 3 36q0 47 -25 76t-66 29q-54 0 -94 -37.5t-56 -103.5z
M273 565l134 154h104l-149 -154h-89z" />
    <glyph glyph-name="ecircumflex" unicode="&#xea;" horiz-adv-x="510" 
d="M36 195q0 139 75.5 228t194.5 89q78 0 127.5 -52t49.5 -134q0 -48 -12 -101h-335q-2 -16 -2 -25q0 -59 37 -96t98 -37q75 0 151 47l-17 -91q-78 -35 -159 -35q-91 0 -149.5 58.5t-58.5 148.5zM148 292h238q3 20 3 36q0 47 -25 76t-66 29q-54 0 -94 -37.5t-56 -103.5z
M181 565l135 154h87l76 -154h-73l-54 91l-87 -91h-84z" />
    <glyph glyph-name="edieresis" unicode="&#xeb;" horiz-adv-x="510" 
d="M36 195q0 139 75.5 228t194.5 89q78 0 127.5 -52t49.5 -134q0 -48 -12 -101h-335q-2 -16 -2 -25q0 -59 37 -96t98 -37q75 0 151 47l-17 -91q-78 -35 -159 -35q-91 0 -149.5 58.5t-58.5 148.5zM148 292h238q3 20 3 36q0 47 -25 76t-66 29q-54 0 -94 -37.5t-56 -103.5z
M186 636q0 27 18.5 45.5t46.5 18.5q23 0 37 -14t14 -37q0 -28 -18.5 -46.5t-45.5 -18.5q-23 0 -37.5 14.5t-14.5 37.5zM392 636q0 27 18.5 45.5t45.5 18.5q23 0 37.5 -14.5t14.5 -36.5q0 -28 -18 -46.5t-46 -18.5q-23 0 -37.5 14.5t-14.5 37.5z" />
    <glyph glyph-name="igrave" unicode="&#xec;" horiz-adv-x="251" 
d="M29 0l93 500h101l-94 -500h-100zM165 565l-91 154h91l76 -154h-76z" />
    <glyph glyph-name="iacute" unicode="&#xed;" horiz-adv-x="251" 
d="M29 0l93 500h101l-94 -500h-100zM124 565l134 154h104l-149 -154h-89z" />
    <glyph glyph-name="icircumflex" unicode="&#xee;" horiz-adv-x="251" 
d="M29 0l93 500h101l-94 -500h-100zM32 565l135 154h87l76 -154h-73l-54 91l-87 -91h-84z" />
    <glyph glyph-name="idieresis" unicode="&#xef;" horiz-adv-x="251" 
d="M29 0l93 500h101l-94 -500h-100zM37 636q0 27 18.5 45.5t46.5 18.5q22 0 36.5 -14t14.5 -37q0 -28 -18.5 -46.5t-45.5 -18.5q-23 0 -37.5 14.5t-14.5 37.5zM243 636q0 27 18.5 45.5t45.5 18.5q23 0 37.5 -14.5t14.5 -36.5q0 -28 -18 -46.5t-46 -18.5q-23 0 -37.5 14.5
t-14.5 37.5z" />
    <glyph glyph-name="eth" unicode="&#xf0;" horiz-adv-x="561" 
d="M36 195q0 138 75 227.5t190 89.5q54 0 105 -34q-22 67 -65 123l-140 -45l14 73l82 27q-26 27 -72 63h127q21 -18 37 -35l116 38l-14 -73l-57 -19q94 -128 94 -281q0 -157 -82 -259t-209 -102q-88 0 -144.5 58t-56.5 149zM140 205q0 -60 30 -96.5t80 -36.5
q75 0 124.5 72.5t49.5 173.5q0 34 -4 63q-52 47 -113 47q-70 0 -118.5 -65.5t-48.5 -157.5z" />
    <glyph glyph-name="ntilde" unicode="&#xf1;" horiz-adv-x="561" 
d="M29 0l93 500h98l-9 -47q73 59 151 59q62 0 103.5 -40.5t41.5 -101.5q0 -18 -6 -54l-59 -316h-100l57 311q4 15 4 34q0 37 -22 58.5t-59 21.5q-60 0 -125 -62l-68 -363h-100zM186 591q8 50 38 81.5t73 31.5q31 0 67.5 -28t50.5 -28q17 0 30 12.5t16 32.5h64
q-8 -50 -38.5 -81.5t-72.5 -31.5q-24 0 -46.5 14t-40.5 28t-31 14q-18 0 -30.5 -12.5t-16.5 -32.5h-63z" />
    <glyph glyph-name="ograve" unicode="&#xf2;" horiz-adv-x="561" 
d="M36 195q0 138 79.5 227.5t203.5 89.5q92 0 149 -57t57 -149q0 -139 -80 -228.5t-204 -89.5q-92 0 -148.5 57t-56.5 150zM140 205q0 -61 30 -97t82 -36q71 0 120 65t49 159q0 60 -30.5 96t-81.5 36q-71 0 -120 -64.5t-49 -158.5zM319 565l-91 154h91l76 -154h-76z" />
    <glyph glyph-name="oacute" unicode="&#xf3;" horiz-adv-x="561" 
d="M36 195q0 138 79.5 227.5t203.5 89.5q92 0 149 -57t57 -149q0 -139 -80 -228.5t-204 -89.5q-92 0 -148.5 57t-56.5 150zM140 205q0 -61 30 -97t82 -36q71 0 120 65t49 159q0 60 -30.5 96t-81.5 36q-71 0 -120 -64.5t-49 -158.5zM278 565l134 154h104l-149 -154h-89z" />
    <glyph glyph-name="ocircumflex" unicode="&#xf4;" horiz-adv-x="561" 
d="M36 195q0 138 79.5 227.5t203.5 89.5q92 0 149 -57t57 -149q0 -139 -80 -228.5t-204 -89.5q-92 0 -148.5 57t-56.5 150zM140 205q0 -61 30 -97t82 -36q71 0 120 65t49 159q0 60 -30.5 96t-81.5 36q-71 0 -120 -64.5t-49 -158.5zM186 565l135 154h87l76 -154h-73l-54 91
l-87 -91h-84z" />
    <glyph glyph-name="otilde" unicode="&#xf5;" horiz-adv-x="561" 
d="M36 195q0 138 79.5 227.5t203.5 89.5q92 0 149 -57t57 -149q0 -139 -80 -228.5t-204 -89.5q-92 0 -148.5 57t-56.5 150zM140 205q0 -61 30 -97t82 -36q71 0 120 65t49 159q0 60 -30.5 96t-81.5 36q-71 0 -120 -64.5t-49 -158.5zM184 591q8 50 38 81.5t73 31.5
q31 0 67.5 -28t50.5 -28q17 0 30 12.5t16 32.5h64q-8 -50 -38.5 -81.5t-72.5 -31.5q-32 0 -68 28t-50 28q-18 0 -30.5 -12.5t-16.5 -32.5h-63z" />
    <glyph glyph-name="odieresis" unicode="&#xf6;" horiz-adv-x="561" 
d="M36 195q0 138 79.5 227.5t203.5 89.5q92 0 149 -57t57 -149q0 -139 -80 -228.5t-204 -89.5q-92 0 -148.5 57t-56.5 150zM140 205q0 -61 30 -97t82 -36q71 0 120 65t49 159q0 60 -30.5 96t-81.5 36q-71 0 -120 -64.5t-49 -158.5zM191 636q0 27 18.5 45.5t46.5 18.5
q22 0 36.5 -14t14.5 -37q0 -28 -18.5 -46.5t-45.5 -18.5q-23 0 -37.5 14.5t-14.5 37.5zM397 636q0 27 18.5 45.5t45.5 18.5q23 0 37.5 -14.5t14.5 -36.5q0 -28 -18 -46.5t-46 -18.5q-23 0 -37.5 14.5t-14.5 37.5z" />
    <glyph glyph-name="divide" unicode="&#xf7;" 
d="M230 94q0 25 16.5 41.5t41.5 16.5t41.5 -16.5t16.5 -41.5t-16.5 -41.5t-41.5 -16.5q-26 0 -42 16t-16 42zM37 238v87h501v-87h-501zM230 469q0 25 16 41.5t42 16.5q25 0 41.5 -16.5t16.5 -41.5t-16.5 -41.5t-41.5 -16.5t-41.5 16.5t-16.5 41.5z" />
    <glyph glyph-name="oslash" unicode="&#xf8;" horiz-adv-x="561" 
d="M36 192q0 138 80.5 229t202.5 91q76 0 130 -41l28 29h73l-63 -67q38 -52 38 -124q0 -138 -81 -229.5t-203 -91.5q-78 0 -129 42l-28 -30h-74l64 68q-38 52 -38 124zM425 298q0 30 -11 57l-237 -255q30 -30 75 -30q70 0 121.5 67t51.5 161zM136 203q0 -34 10 -57l238 255
q-29 29 -75 29q-71 0 -122 -66.5t-51 -160.5z" />
    <glyph glyph-name="ugrave" unicode="&#xf9;" horiz-adv-x="561" 
d="M532 500l-94 -500h-97l9 48q-74 -60 -152 -60q-62 0 -103 40.5t-41 101.5q0 25 5 55l60 315h100l-58 -310q-3 -16 -3 -34q0 -37 22 -58.5t59 -21.5q61 0 124 61l69 363h100zM317 565l-91 154h91l76 -154h-76z" />
    <glyph glyph-name="uacute" unicode="&#xfa;" horiz-adv-x="561" 
d="M532 500l-94 -500h-97l9 48q-74 -60 -152 -60q-62 0 -103 40.5t-41 101.5q0 25 5 55l60 315h100l-58 -310q-3 -16 -3 -34q0 -37 22 -58.5t59 -21.5q61 0 124 61l69 363h100zM276 565l134 154h104l-149 -154h-89z" />
    <glyph glyph-name="ucircumflex" unicode="&#xfb;" horiz-adv-x="561" 
d="M532 500l-94 -500h-97l9 48q-74 -60 -152 -60q-62 0 -103 40.5t-41 101.5q0 25 5 55l60 315h100l-58 -310q-3 -16 -3 -34q0 -37 22 -58.5t59 -21.5q61 0 124 61l69 363h100zM184 565l135 154h87l76 -154h-73l-54 91l-87 -91h-84z" />
    <glyph glyph-name="udieresis" unicode="&#xfc;" horiz-adv-x="561" 
d="M532 500l-94 -500h-97l9 48q-74 -60 -152 -60q-62 0 -103 40.5t-41 101.5q0 25 5 55l60 315h100l-58 -310q-3 -16 -3 -34q0 -37 22 -58.5t59 -21.5q61 0 124 61l69 363h100zM189 636q0 27 18.5 45.5t46.5 18.5q22 0 36.5 -14t14.5 -37q0 -28 -18.5 -46.5t-45.5 -18.5
q-23 0 -37.5 14.5t-14.5 37.5zM395 636q0 27 18.5 45.5t45.5 18.5q23 0 37.5 -14.5t14.5 -36.5q0 -28 -18 -46.5t-46 -18.5q-23 0 -37.5 14.5t-14.5 37.5z" />
    <glyph glyph-name="yacute" unicode="&#xfd;" horiz-adv-x="490" 
d="M522 500l-409 -719h-103l141 237l-94 482h97l63 -365l197 365h108zM239 565l134 154h104l-149 -154h-89z" />
    <glyph glyph-name="thorn" unicode="&#xfe;" horiz-adv-x="561" 
d="M-12 -219l176 938h100l-47 -254q61 47 128 47q80 0 130 -56t50 -144q0 -140 -73.5 -232t-183.5 -92q-70 0 -132 50l-48 -257h-100zM421 298q0 61 -28.5 94.5t-79.5 33.5q-56 0 -114 -55l-47 -251q49 -46 104 -46q71 0 118 64t47 160z" />
    <glyph glyph-name="ydieresis" unicode="&#xff;" horiz-adv-x="490" 
d="M522 500l-409 -719h-103l141 237l-94 482h97l63 -365l197 365h108zM152 636q0 27 18.5 45.5t46.5 18.5q23 0 37 -14t14 -37q0 -28 -18.5 -46.5t-45.5 -18.5q-23 0 -37.5 14.5t-14.5 37.5zM358 636q0 27 18.5 45.5t45.5 18.5q23 0 37.5 -14.5t14.5 -36.5q0 -28 -18 -46.5
t-46 -18.5q-23 0 -37.5 14.5t-14.5 37.5z" />
    <glyph glyph-name="Amacron" unicode="&#x100;" horiz-adv-x="631" 
d="M-31 0l391 688h84l135 -688h-96l-34 183h-272l-101 -183h-107zM383 554l-162 -292h215zM262 795l13 71h317l-13 -71h-317z" />
    <glyph glyph-name="amacron" unicode="&#x101;" horiz-adv-x="561" 
d="M532 500l-94 -500h-97l7 38q-64 -50 -132 -50q-80 0 -130 56t-50 145q0 139 73.5 231t183.5 92q68 0 131 -49l8 37h100zM140 202q0 -61 28.5 -94.5t79.5 -33.5q55 0 114 56l47 251q-50 45 -104 45q-71 0 -118 -63.5t-47 -160.5zM188 607l13 71h317l-13 -71h-317z" />
    <glyph glyph-name="Abreve" unicode="&#x102;" horiz-adv-x="631" 
d="M-31 0l391 688h84l135 -688h-96l-34 183h-272l-101 -183h-107zM383 554l-162 -292h215zM298 907h65q-1 -7 -1 -18q0 -28 19.5 -46t50.5 -18q35 0 59 22.5t29 59.5h68q-10 -73 -53.5 -113t-111.5 -40q-55 0 -91.5 35t-36.5 86q0 15 3 32z" />
    <glyph glyph-name="abreve" unicode="&#x103;" horiz-adv-x="561" 
d="M532 500l-94 -500h-97l7 38q-64 -50 -132 -50q-80 0 -130 56t-50 145q0 139 73.5 231t183.5 92q68 0 131 -49l8 37h100zM140 202q0 -61 28.5 -94.5t79.5 -33.5q55 0 114 56l47 251q-50 45 -104 45q-71 0 -118 -63.5t-47 -160.5zM224 719h65q-1 -7 -1 -18q0 -28 19.5 -46
t50.5 -18q35 0 59 22.5t29 59.5h68q-10 -73 -53.5 -113t-111.5 -40q-55 0 -91.5 35t-36.5 86q0 15 3 32z" />
    <glyph glyph-name="Aogonek" unicode="&#x104;" horiz-adv-x="631" 
d="M501 0h-18l-34 183h-272l-101 -183h-107l391 688h84l135 -688q-107 -55 -107 -116q0 -17 12 -28.5t30 -11.5t37 8l-12 -64q-26 -10 -56 -10q-39 0 -65 22.5t-26 57.5q0 42 28.5 79t80.5 63zM383 554l-162 -292h215z" />
    <glyph glyph-name="aogonek" unicode="&#x105;" horiz-adv-x="561" 
d="M360 0h-19l7 38q-64 -50 -132 -50q-80 0 -130 56t-50 145q0 139 73.5 231t183.5 92q68 0 131 -49l8 37h100l-94 -500q-107 -55 -107 -116q0 -17 12 -28.5t30 -11.5t37 8l-12 -64q-26 -10 -56 -10q-39 0 -65 22.5t-26 57.5q0 42 28.5 79t80.5 63zM140 202
q0 -61 28.5 -94.5t79.5 -33.5q55 0 114 56l47 251q-50 45 -104 45q-71 0 -118 -63.5t-47 -160.5z" />
    <glyph glyph-name="Cacute" unicode="&#x106;" horiz-adv-x="609" 
d="M59 265q0 189 107.5 312t272.5 123q101 0 196 -59l-18 -92q-85 64 -173 64q-120 0 -199 -95.5t-79 -239.5q0 -92 52 -147.5t139 -55.5q93 0 181 54l-17 -98q-87 -43 -188 -43q-120 0 -197 78t-77 199zM387 753l134 154h104l-149 -154h-89z" />
    <glyph glyph-name="cacute" unicode="&#x107;" horiz-adv-x="472" 
d="M36 195q0 137 81 227t205 90q77 0 148 -43l-17 -87q-63 46 -126 46q-81 0 -134 -62.5t-53 -157.5q0 -62 35.5 -99t93.5 -37q65 0 134 39l-17 -91q-70 -32 -142 -32q-91 0 -149.5 58t-58.5 149zM271 565l134 154h104l-149 -154h-89z" />
    <glyph glyph-name="Ccircumflex" unicode="&#x108;" horiz-adv-x="609" 
d="M59 265q0 189 107.5 312t272.5 123q101 0 196 -59l-18 -92q-85 64 -173 64q-120 0 -199 -95.5t-79 -239.5q0 -92 52 -147.5t139 -55.5q93 0 181 54l-17 -98q-87 -43 -188 -43q-120 0 -197 78t-77 199zM295 753l135 154h87l76 -154h-73l-54 91l-87 -91h-84z" />
    <glyph glyph-name="ccircumflex" unicode="&#x109;" horiz-adv-x="472" 
d="M36 195q0 137 81 227t205 90q77 0 148 -43l-17 -87q-63 46 -126 46q-81 0 -134 -62.5t-53 -157.5q0 -62 35.5 -99t93.5 -37q65 0 134 39l-17 -91q-70 -32 -142 -32q-91 0 -149.5 58t-58.5 149zM179 565l135 154h87l76 -154h-73l-54 91l-87 -91h-84z" />
    <glyph glyph-name="Cdotaccent" unicode="&#x10a;" horiz-adv-x="609" 
d="M59 265q0 189 107.5 312t272.5 123q101 0 196 -59l-18 -92q-85 64 -173 64q-120 0 -199 -95.5t-79 -239.5q0 -92 52 -147.5t139 -55.5q93 0 181 54l-17 -98q-87 -43 -188 -43q-120 0 -197 78t-77 199zM401 824q0 28 19 46.5t47 18.5q23 0 38.5 -14.5t15.5 -37.5
q0 -28 -19 -47t-47 -19q-24 0 -39 15t-15 38z" />
    <glyph glyph-name="cdotaccent" unicode="&#x10b;" horiz-adv-x="472" 
d="M36 195q0 137 81 227t205 90q77 0 148 -43l-17 -87q-63 46 -126 46q-81 0 -134 -62.5t-53 -157.5q0 -62 35.5 -99t93.5 -37q65 0 134 39l-17 -91q-70 -32 -142 -32q-91 0 -149.5 58t-58.5 149zM285 636q0 28 19 46.5t47 18.5q23 0 38.5 -14.5t15.5 -37.5q0 -28 -19 -47
t-47 -19q-24 0 -39 15t-15 38z" />
    <glyph glyph-name="Ccaron" unicode="&#x10c;" horiz-adv-x="609" 
d="M59 265q0 189 107.5 312t272.5 123q101 0 196 -59l-18 -92q-85 64 -173 64q-120 0 -199 -95.5t-79 -239.5q0 -92 52 -147.5t139 -55.5q93 0 181 54l-17 -98q-87 -43 -188 -43q-120 0 -197 78t-77 199zM627 907l-134 -154h-88l-76 154h74l53 -91l88 91h83z" />
    <glyph glyph-name="ccaron" unicode="&#x10d;" horiz-adv-x="472" 
d="M36 195q0 137 81 227t205 90q77 0 148 -43l-17 -87q-63 46 -126 46q-81 0 -134 -62.5t-53 -157.5q0 -62 35.5 -99t93.5 -37q65 0 134 39l-17 -91q-70 -32 -142 -32q-91 0 -149.5 58t-58.5 149zM511 719l-134 -154h-88l-76 154h74l53 -91l88 91h83z" />
    <glyph glyph-name="Dcaron" unicode="&#x10e;" horiz-adv-x="694" 
d="M48 0l129 688h207q127 0 206 -73.5t79 -190.5q0 -194 -105.5 -309t-284.5 -115h-231zM265 604l-98 -520h119q123 0 200 91.5t77 237.5q0 89 -52.5 140t-145.5 51h-100zM604 907l-134 -154h-88l-76 154h74l53 -91l88 91h83z" />
    <glyph glyph-name="dcaron" unicode="&#x10f;" horiz-adv-x="561" 
d="M573 719l-135 -719h-97l7 38q-64 -50 -132 -50q-80 0 -130 56t-50 145q0 139 73.5 231t183.5 92q68 0 131 -49l49 256h100zM140 202q0 -61 28.5 -94.5t79.5 -33.5q55 0 114 56l47 251q-50 45 -104 45q-71 0 -118 -63.5t-47 -160.5zM594 565l83 154h90l-94 -154h-79z" />
    <glyph glyph-name="Dcroat" unicode="&#x110;" horiz-adv-x="709" 
d="M36 314l14 72h86l57 302h207q127 0 206 -73.5t79 -190.5q0 -194 -105.5 -309t-284.5 -115h-231l59 314h-87zM280 604l-40 -218h151l-14 -72h-151l-43 -230h119q123 0 199.5 91.5t76.5 237.5q0 89 -52 140t-145 51h-101z" />
    <glyph glyph-name="dcroat" unicode="&#x111;" horiz-adv-x="561" 
d="M573 719l-12 -69h70l-13 -71h-71l-109 -579h-97l7 38q-64 -50 -132 -50q-80 0 -130 56t-50 145q0 139 73.5 231t183.5 92q68 0 131 -49l22 116h-152l14 71h151l14 69h100zM140 202q0 -61 28.5 -94.5t79.5 -33.5q55 0 114 56l47 251q-50 45 -104 45q-71 0 -118 -63.5
t-47 -160.5z" />
    <glyph glyph-name="Emacron" unicode="&#x112;" horiz-adv-x="550" 
d="M48 0l129 688h396l-16 -84h-292l-40 -213h253l-15 -83h-253l-43 -224h300l-15 -84h-404zM232 795l13 71h317l-13 -71h-317z" />
    <glyph glyph-name="emacron" unicode="&#x113;" horiz-adv-x="510" 
d="M36 195q0 139 75.5 228t194.5 89q78 0 127.5 -52t49.5 -134q0 -48 -12 -101h-335q-2 -16 -2 -25q0 -59 37 -96t98 -37q75 0 151 47l-17 -91q-78 -35 -159 -35q-91 0 -149.5 58.5t-58.5 148.5zM148 292h238q3 20 3 36q0 47 -25 76t-66 29q-54 0 -94 -37.5t-56 -103.5z
M175 607l13 71h317l-13 -71h-317z" />
    <glyph glyph-name="Ebreve" unicode="&#x114;" horiz-adv-x="550" 
d="M48 0l129 688h396l-16 -84h-292l-40 -213h253l-15 -83h-253l-43 -224h300l-15 -84h-404zM268 907h65q-1 -7 -1 -18q0 -28 19.5 -46t50.5 -18q35 0 59 22.5t29 59.5h68q-10 -73 -53.5 -113t-111.5 -40q-55 0 -91.5 35t-36.5 86q0 15 3 32z" />
    <glyph glyph-name="ebreve" unicode="&#x115;" horiz-adv-x="510" 
d="M36 195q0 139 75.5 228t194.5 89q78 0 127.5 -52t49.5 -134q0 -48 -12 -101h-335q-2 -16 -2 -25q0 -59 37 -96t98 -37q75 0 151 47l-17 -91q-78 -35 -159 -35q-91 0 -149.5 58.5t-58.5 148.5zM148 292h238q3 20 3 36q0 47 -25 76t-66 29q-54 0 -94 -37.5t-56 -103.5z
M211 719h65q-1 -7 -1 -18q0 -28 19.5 -46t50.5 -18q35 0 59 22.5t29 59.5h68q-10 -73 -53.5 -113t-111.5 -40q-55 0 -91.5 35t-36.5 86q0 15 3 32z" />
    <glyph glyph-name="Edotaccent" unicode="&#x116;" horiz-adv-x="550" 
d="M48 0l129 688h396l-16 -84h-292l-40 -213h253l-15 -83h-253l-43 -224h300l-15 -84h-404zM336 824q0 28 19 46.5t47 18.5q23 0 38.5 -14.5t15.5 -37.5q0 -28 -19 -47t-47 -19q-24 0 -39 15t-15 38z" />
    <glyph glyph-name="edotaccent" unicode="&#x117;" horiz-adv-x="510" 
d="M36 195q0 139 75.5 228t194.5 89q78 0 127.5 -52t49.5 -134q0 -48 -12 -101h-335q-2 -16 -2 -25q0 -59 37 -96t98 -37q75 0 151 47l-17 -91q-78 -35 -159 -35q-91 0 -149.5 58.5t-58.5 148.5zM148 292h238q3 20 3 36q0 47 -25 76t-66 29q-54 0 -94 -37.5t-56 -103.5z
M279 636q0 28 19 46.5t47 18.5q23 0 38.5 -14.5t15.5 -37.5q0 -28 -19 -47t-47 -19q-24 0 -39 15t-15 38z" />
    <glyph glyph-name="Eogonek" unicode="&#x118;" horiz-adv-x="550" 
d="M48 0l129 688h396l-16 -84h-292l-40 -213h253l-15 -83h-253l-43 -224h300l-15 -84q-107 -55 -107 -116q0 -17 12 -28.5t30 -11.5t37 8l-12 -64q-26 -10 -56 -10q-39 0 -65 22.5t-26 57.5q0 42 28.5 79t80.5 63h-326z" />
    <glyph glyph-name="eogonek" unicode="&#x119;" horiz-adv-x="510" 
d="M36 195q0 139 75.5 228t194.5 89q78 0 127.5 -52t49.5 -134q0 -48 -12 -101h-335q-2 -16 -2 -25q0 -59 37 -96t98 -37q75 0 151 47l-17 -91q-111 -62 -111 -135q0 -19 12.5 -31.5t29.5 -12.5t38 8l-13 -64q-26 -10 -56 -10q-39 0 -64.5 23.5t-25.5 60.5q0 78 80 130
q-32 -4 -49 -4q-91 0 -149.5 58.5t-58.5 148.5zM148 292h238q3 20 3 36q0 47 -25 76t-66 29q-54 0 -94 -37.5t-56 -103.5z" />
    <glyph glyph-name="Ecaron" unicode="&#x11a;" horiz-adv-x="550" 
d="M48 0l129 688h396l-16 -84h-292l-40 -213h253l-15 -83h-253l-43 -224h300l-15 -84h-404zM562 907l-134 -154h-88l-76 154h74l53 -91l88 91h83z" />
    <glyph glyph-name="ecaron" unicode="&#x11b;" horiz-adv-x="510" 
d="M36 195q0 139 75.5 228t194.5 89q78 0 127.5 -52t49.5 -134q0 -48 -12 -101h-335q-2 -16 -2 -25q0 -59 37 -96t98 -37q75 0 151 47l-17 -91q-78 -35 -159 -35q-91 0 -149.5 58.5t-58.5 148.5zM148 292h238q3 20 3 36q0 47 -25 76t-66 29q-54 0 -94 -37.5t-56 -103.5z
M505 719l-134 -154h-88l-76 154h74l53 -91l88 91h83z" />
    <glyph glyph-name="Gcircumflex" unicode="&#x11c;" horiz-adv-x="674" 
d="M629 361l-61 -324q-116 -49 -226 -49q-125 0 -204 78t-79 199q0 189 109 312t278 123q106 0 207 -66l-17 -92q-93 71 -187 71q-122 0 -203.5 -95.5t-81.5 -239.5q0 -91 53 -147t139 -56q63 0 126 26l35 182h-150l15 78h247zM309 753l135 154h87l76 -154h-73l-54 91
l-87 -91h-84z" />
    <glyph glyph-name="gcircumflex" unicode="&#x11d;" horiz-adv-x="561" 
d="M532 500l-97 -517q-19 -99 -86.5 -156.5t-165.5 -57.5q-92 0 -178 47l16 85q81 -52 161 -52q57 0 99.5 37t53.5 98l9 52q-62 -48 -128 -48q-80 0 -130 56t-50 145q0 139 73.5 231t183.5 92q68 0 131 -49l8 37h100zM140 202q0 -61 28.5 -94.5t79.5 -33.5q55 0 114 56
l47 251q-50 45 -104 45q-71 0 -118 -63.5t-47 -160.5zM186 565l135 154h87l76 -154h-73l-54 91l-87 -91h-84z" />
    <glyph glyph-name="Gbreve" unicode="&#x11e;" horiz-adv-x="674" 
d="M629 361l-61 -324q-116 -49 -226 -49q-125 0 -204 78t-79 199q0 189 109 312t278 123q106 0 207 -66l-17 -92q-93 71 -187 71q-122 0 -203.5 -95.5t-81.5 -239.5q0 -91 53 -147t139 -56q63 0 126 26l35 182h-150l15 78h247zM347 907h65q-1 -7 -1 -18q0 -28 19.5 -46
t50.5 -18q35 0 59 22.5t29 59.5h68q-10 -73 -53.5 -113t-111.5 -40q-55 0 -91.5 35t-36.5 86q0 15 3 32z" />
    <glyph glyph-name="gbreve" unicode="&#x11f;" horiz-adv-x="561" 
d="M532 500l-97 -517q-19 -99 -86.5 -156.5t-165.5 -57.5q-92 0 -178 47l16 85q81 -52 161 -52q57 0 99.5 37t53.5 98l9 52q-62 -48 -128 -48q-80 0 -130 56t-50 145q0 139 73.5 231t183.5 92q68 0 131 -49l8 37h100zM140 202q0 -61 28.5 -94.5t79.5 -33.5q55 0 114 56
l47 251q-50 45 -104 45q-71 0 -118 -63.5t-47 -160.5zM224 719h65q-1 -7 -1 -18q0 -28 19.5 -46t50.5 -18q35 0 59 22.5t29 59.5h68q-10 -73 -53.5 -113t-111.5 -40q-55 0 -91.5 35t-36.5 86q0 15 3 32z" />
    <glyph glyph-name="Gdotaccent" unicode="&#x120;" horiz-adv-x="674" 
d="M629 361l-61 -324q-116 -49 -226 -49q-125 0 -204 78t-79 199q0 189 109 312t278 123q106 0 207 -66l-17 -92q-93 71 -187 71q-122 0 -203.5 -95.5t-81.5 -239.5q0 -91 53 -147t139 -56q63 0 126 26l35 182h-150l15 78h247zM415 824q0 28 19 46.5t47 18.5
q23 0 38.5 -14.5t15.5 -37.5q0 -28 -19 -47t-47 -19q-24 0 -39 15t-15 38z" />
    <glyph glyph-name="gdotaccent" unicode="&#x121;" horiz-adv-x="561" 
d="M532 500l-97 -517q-19 -99 -86.5 -156.5t-165.5 -57.5q-92 0 -178 47l16 85q81 -52 161 -52q57 0 99.5 37t53.5 98l9 52q-62 -48 -128 -48q-80 0 -130 56t-50 145q0 139 73.5 231t183.5 92q68 0 131 -49l8 37h100zM140 202q0 -61 28.5 -94.5t79.5 -33.5q55 0 114 56
l47 251q-50 45 -104 45q-71 0 -118 -63.5t-47 -160.5zM292 636q0 28 19 46.5t47 18.5q23 0 38.5 -14.5t15.5 -37.5q0 -28 -19 -47t-47 -19q-24 0 -39 15t-15 38z" />
    <glyph glyph-name="Gcommaaccent" unicode="&#x122;" horiz-adv-x="674" 
d="M629 361l-61 -324q-116 -49 -226 -49q-125 0 -204 78t-79 199q0 189 109 312t278 123q106 0 207 -66l-17 -92q-93 71 -187 71q-122 0 -203.5 -95.5t-81.5 -239.5q0 -91 53 -147t139 -56q63 0 126 26l35 182h-150l15 78h247zM175 -242l96 178h96l-109 -178h-83z" />
    <glyph glyph-name="gcommaaccent" unicode="&#x123;" horiz-adv-x="561" 
d="M532 500l-97 -517q-19 -99 -86.5 -156.5t-165.5 -57.5q-92 0 -178 47l16 85q81 -52 161 -52q57 0 99.5 37t53.5 98l9 52q-62 -48 -128 -48q-80 0 -130 56t-50 145q0 139 73.5 231t183.5 92q68 0 131 -49l8 37h100zM140 202q0 -61 28.5 -94.5t79.5 -33.5q55 0 114 56
l47 251q-50 45 -104 45q-71 0 -118 -63.5t-47 -160.5zM473 743l-96 -178h-96l109 178h83z" />
    <glyph glyph-name="Hcircumflex" unicode="&#x124;" horiz-adv-x="725" 
d="M48 0l129 688h104l-56 -296h328l56 296h103l-129 -688h-104l58 308h-328l-58 -308h-103zM303 753l135 154h87l76 -154h-73l-54 91l-87 -91h-84z" />
    <glyph glyph-name="hcircumflex" unicode="&#x125;" horiz-adv-x="561" 
d="M29 0l135 719h100l-49 -264q69 57 147 57q62 0 103.5 -40.5t41.5 -101.5q0 -18 -6 -54l-59 -316h-100l57 311q4 13 4 34q0 36 -22 58t-59 22q-61 0 -125 -62l-68 -363h-100zM73 784l135 154h87l76 -154h-73l-54 91l-87 -91h-84z" />
    <glyph glyph-name="Hbar" unicode="&#x126;" horiz-adv-x="725" 
d="M48 0l92 493h-82l13 71h83l23 124h104l-23 -124h327l24 124h103l-23 -124h82l-13 -71h-83l-92 -493h-104l58 308h-328l-58 -308h-103zM244 493l-19 -101h328l19 101h-328z" />
    <glyph glyph-name="hbar" unicode="&#x127;" horiz-adv-x="561" 
d="M29 0l108 579h-71l13 71h72l13 69h100l-13 -69h152l-14 -71h-151l-23 -124q69 57 147 57q62 0 103.5 -40.5t41.5 -101.5q0 -18 -6 -54l-59 -316h-100l57 311q4 13 4 34q0 36 -22 58t-59 22q-61 0 -125 -62l-68 -363h-100z" />
    <glyph glyph-name="Itilde" unicode="&#x128;" horiz-adv-x="293" 
d="M48 0l129 688h104l-130 -688h-103zM86 779q8 50 38 81.5t73 31.5q31 0 67.5 -28t50.5 -28q17 0 30 12.5t16 32.5h64q-8 -50 -38.5 -81.5t-72.5 -31.5q-24 0 -46.5 14t-40.5 28t-31 14q-18 0 -30.5 -12.5t-16.5 -32.5h-63z" />
    <glyph glyph-name="itilde" unicode="&#x129;" horiz-adv-x="251" 
d="M29 0l93 500h101l-94 -500h-100zM30 591q8 50 38 81.5t73 31.5q31 0 67.5 -28t50.5 -28q17 0 30 12.5t16 32.5h64q-8 -50 -38.5 -81.5t-72.5 -31.5q-24 0 -46.5 14t-40.5 28t-31 14q-18 0 -30.5 -12.5t-16.5 -32.5h-63z" />
    <glyph glyph-name="Imacron" unicode="&#x12a;" horiz-adv-x="293" 
d="M48 0l129 688h104l-130 -688h-103zM90 795l13 71h317l-13 -71h-317z" />
    <glyph glyph-name="imacron" unicode="&#x12b;" horiz-adv-x="251" 
d="M29 0l93 500h101l-94 -500h-100zM34 607l13 71h317l-13 -71h-317z" />
    <glyph glyph-name="Ibreve" unicode="&#x12c;" horiz-adv-x="293" 
d="M48 0l129 688h104l-130 -688h-103zM126 907h65q-1 -7 -1 -18q0 -28 19.5 -46t50.5 -18q35 0 59 22.5t29 59.5h68q-10 -73 -53.5 -113t-111.5 -40q-55 0 -91.5 35t-36.5 86q0 15 3 32z" />
    <glyph glyph-name="ibreve" unicode="&#x12d;" horiz-adv-x="251" 
d="M29 0l93 500h101l-94 -500h-100zM70 719h65q-1 -7 -1 -18q0 -28 19.5 -46t50.5 -18q35 0 59 22.5t29 59.5h68q-10 -73 -53.5 -113t-111.5 -40q-55 0 -91.5 35t-36.5 86q0 15 3 32z" />
    <glyph glyph-name="Iogonek" unicode="&#x12e;" horiz-adv-x="298" 
d="M50 0l129 688h104l-130 -688q-107 -55 -107 -116q0 -17 12 -28.5t30 -11.5t37 8l-12 -64q-26 -10 -56 -10q-39 0 -65 22.5t-26 57.5q0 42 28.5 79t80.5 63h-25z" />
    <glyph glyph-name="iogonek" unicode="&#x12f;" horiz-adv-x="251" 
d="M29 0l93 500h101l-94 -500q-107 -55 -107 -116q0 -17 12 -28.5t30 -11.5t37 8l-12 -64q-26 -10 -56 -10q-39 0 -65 22.5t-26 57.5q0 42 28.5 79t80.5 63h-22zM138 636q0 28 19 46.5t48 18.5q23 0 38 -14.5t15 -37.5q0 -28 -19 -47t-48 -19q-23 0 -38 15t-15 38z" />
    <glyph glyph-name="Idotaccent" unicode="&#x130;" horiz-adv-x="293" 
d="M48 0l129 688h104l-130 -688h-103zM194 824q0 28 19 46.5t47 18.5q23 0 38.5 -14.5t15.5 -37.5q0 -28 -19 -47t-47 -19q-24 0 -39 15t-15 38z" />
    <glyph glyph-name="dotlessi" unicode="&#x131;" horiz-adv-x="251" 
d="M29 0l93 500h101l-94 -500h-100z" />
    <glyph glyph-name="Jcircumflex" unicode="&#x134;" horiz-adv-x="468" 
d="M459 688l-98 -522q-16 -83 -73 -130.5t-141 -47.5q-72 0 -152 41l17 87q65 -41 124 -41q48 0 81.5 29t42.5 78l95 506h104zM266 753l135 154h87l76 -154h-73l-54 91l-87 -91h-84z" />
    <glyph glyph-name="jcircumflex" unicode="&#x135;" horiz-adv-x="251" 
d="M223 500l-111 -592q-12 -65 -55.5 -102t-108.5 -37q-55 0 -115 29l15 81q44 -26 83 -26q33 0 55.5 19.5t28.5 51.5l107 576h101zM32 565l135 154h87l76 -154h-73l-54 91l-87 -91h-84z" />
    <glyph glyph-name="Kcommaaccent" unicode="&#x136;" horiz-adv-x="616" 
d="M48 0l129 688h102l-56 -296l323 296h135l-377 -342l259 -346h-119l-235 314l-60 -314h-101zM116 -242l96 178h96l-109 -178h-83z" />
    <glyph glyph-name="kcommaaccent" unicode="&#x137;" horiz-adv-x="489" 
d="M29 0l135 719h98l-79 -420l211 201h124l-262 -249l176 -251h-113l-151 217l-41 -217h-98zM54 -242l96 178h96l-109 -178h-83z" />
    <glyph glyph-name="kgreenlandic" unicode="&#x138;" horiz-adv-x="489" 
d="M29 0l94 500h98l-38 -201l211 201h124l-262 -249l176 -251h-113l-151 217l-41 -217h-98z" />
    <glyph glyph-name="Lacute" unicode="&#x139;" horiz-adv-x="499" 
d="M48 0l129 688h104l-114 -604h281l-16 -84h-384zM180 753l134 154h104l-149 -154h-89z" />
    <glyph glyph-name="lacute" unicode="&#x13a;" horiz-adv-x="251" 
d="M29 0l135 719h100l-135 -719h-100zM165 784l134 154h104l-149 -154h-89z" />
    <glyph glyph-name="Lcommaaccent" unicode="&#x13b;" horiz-adv-x="499" 
d="M48 0l129 688h104l-114 -604h281l-16 -84h-384zM80 -242l96 178h96l-109 -178h-83z" />
    <glyph glyph-name="lcommaaccent" unicode="&#x13c;" horiz-adv-x="251" 
d="M29 0l135 719h100l-135 -719h-100zM-67 -242l96 178h96l-109 -178h-83z" />
    <glyph glyph-name="Lcaron" unicode="&#x13d;" horiz-adv-x="499" 
d="M48 0l129 688h104l-114 -604h281l-16 -84h-384zM322 565l83 154h90l-94 -154h-79z" />
    <glyph glyph-name="lcaron" unicode="&#x13e;" horiz-adv-x="251" 
d="M29 0l135 719h100l-135 -719h-100zM285 565l83 154h90l-94 -154h-79z" />
    <glyph glyph-name="Ldot" unicode="&#x13f;" horiz-adv-x="499" 
d="M48 0l129 688h104l-114 -604h281l-16 -84h-384zM356 352q0 28 19 46.5t47 18.5q23 0 38.5 -14.5t15.5 -37.5q0 -28 -19 -47t-47 -19q-24 0 -39 15t-15 38z" />
    <glyph glyph-name="ldot" unicode="&#x140;" horiz-adv-x="369" 
d="M29 0l135 719h100l-135 -719h-100zM268 344q0 28 19 46.5t47 18.5q23 0 38.5 -14.5t15.5 -37.5q0 -28 -19 -47t-47 -19q-24 0 -39 15t-15 38z" />
    <glyph glyph-name="Lslash" unicode="&#x141;" horiz-adv-x="530" 
d="M79 0l49 263l-84 -34l16 85l84 35l65 339h103l-56 -295l156 62l-16 -85l-156 -62l-41 -224h280l-16 -84h-384z" />
    <glyph glyph-name="lslash" unicode="&#x142;" horiz-adv-x="303" 
d="M54 0l56 299l-98 -40l16 86l98 39l63 335h100l-54 -290l99 40l-16 -86l-99 -40l-65 -343h-100z" />
    <glyph glyph-name="Nacute" unicode="&#x143;" horiz-adv-x="725" 
d="M48 0l129 688h85l255 -521l97 521h98l-129 -688h-85l-255 521l-97 -521h-98zM395 753l134 154h104l-149 -154h-89z" />
    <glyph glyph-name="nacute" unicode="&#x144;" horiz-adv-x="561" 
d="M29 0l93 500h98l-9 -47q73 59 151 59q62 0 103.5 -40.5t41.5 -101.5q0 -18 -6 -54l-59 -316h-100l57 311q4 15 4 34q0 37 -22 58.5t-59 21.5q-60 0 -125 -62l-68 -363h-100zM280 565l134 154h104l-149 -154h-89z" />
    <glyph glyph-name="Ncommaaccent" unicode="&#x145;" horiz-adv-x="725" 
d="M48 0l129 688h85l255 -521l97 521h98l-129 -688h-85l-255 521l-97 -521h-98zM169 -242l96 178h96l-109 -178h-83z" />
    <glyph glyph-name="ncommaaccent" unicode="&#x146;" horiz-adv-x="561" 
d="M29 0l93 500h98l-9 -47q73 59 151 59q62 0 103.5 -40.5t41.5 -101.5q0 -18 -6 -54l-59 -316h-100l57 311q4 15 4 34q0 37 -22 58.5t-59 21.5q-60 0 -125 -62l-68 -363h-100zM89 -242l96 178h96l-109 -178h-83z" />
    <glyph glyph-name="Ncaron" unicode="&#x147;" horiz-adv-x="725" 
d="M48 0l129 688h85l255 -521l97 521h98l-129 -688h-85l-255 521l-97 -521h-98zM635 907l-134 -154h-88l-76 154h74l53 -91l88 91h83z" />
    <glyph glyph-name="ncaron" unicode="&#x148;" horiz-adv-x="561" 
d="M29 0l93 500h98l-9 -47q73 59 151 59q62 0 103.5 -40.5t41.5 -101.5q0 -18 -6 -54l-59 -316h-100l57 311q4 15 4 34q0 37 -22 58.5t-59 21.5q-60 0 -125 -62l-68 -363h-100zM520 719l-134 -154h-88l-76 154h74l53 -91l88 91h83z" />
    <glyph glyph-name="Eng" unicode="&#x14a;" horiz-adv-x="725" 
d="M48 0l129 688h85l254 -521l98 521h98l-139 -741q-15 -82 -72.5 -130t-141.5 -48q-72 0 -152 41l17 87q65 -41 125 -41q48 0 82 29t43 78l11 61l-241 497l-98 -521h-98z" />
    <glyph glyph-name="eng" unicode="&#x14b;" horiz-adv-x="561" 
d="M29 0l93 500h98l-9 -47q73 59 151 59q62 0 103.5 -40.5t41.5 -101.5q0 -18 -6 -54l-76 -408q-12 -65 -56 -102t-109 -37q-54 0 -114 30l15 80q44 -26 83 -26q32 0 55 19.5t29 51.5l71 387q4 13 4 34q0 36 -22 58t-59 22q-60 0 -125 -62l-68 -363h-100z" />
    <glyph glyph-name="Omacron" unicode="&#x14c;" horiz-adv-x="725" 
d="M59 264q0 190 106 313t268 123q121 0 194.5 -76t73.5 -200q0 -190 -106 -313t-268 -123q-121 0 -194.5 76t-73.5 200zM166 275q0 -92 46 -146t125 -54q107 0 182 98.5t75 239.5q0 92 -46 146t-125 54q-107 0 -182 -98.5t-75 -239.5zM305 795l13 71h317l-13 -71h-317z" />
    <glyph glyph-name="omacron" unicode="&#x14d;" horiz-adv-x="561" 
d="M36 195q0 138 79.5 227.5t203.5 89.5q92 0 149 -57t57 -149q0 -139 -80 -228.5t-204 -89.5q-92 0 -148.5 57t-56.5 150zM140 205q0 -61 30 -97t82 -36q71 0 120 65t49 159q0 60 -30.5 96t-81.5 36q-71 0 -120 -64.5t-49 -158.5zM188 607l13 71h317l-13 -71h-317z" />
    <glyph glyph-name="Obreve" unicode="&#x14e;" horiz-adv-x="725" 
d="M59 264q0 190 106 313t268 123q121 0 194.5 -76t73.5 -200q0 -190 -106 -313t-268 -123q-121 0 -194.5 76t-73.5 200zM166 275q0 -92 46 -146t125 -54q107 0 182 98.5t75 239.5q0 92 -46 146t-125 54q-107 0 -182 -98.5t-75 -239.5zM341 907h65q-1 -7 -1 -18
q0 -28 19.5 -46t50.5 -18q35 0 59 22.5t29 59.5h68q-10 -73 -53.5 -113t-111.5 -40q-55 0 -91.5 35t-36.5 86q0 15 3 32z" />
    <glyph glyph-name="obreve" unicode="&#x14f;" horiz-adv-x="561" 
d="M36 195q0 138 79.5 227.5t203.5 89.5q92 0 149 -57t57 -149q0 -139 -80 -228.5t-204 -89.5q-92 0 -148.5 57t-56.5 150zM140 205q0 -61 30 -97t82 -36q71 0 120 65t49 159q0 60 -30.5 96t-81.5 36q-71 0 -120 -64.5t-49 -158.5zM224 719h65q-1 -7 -1 -18q0 -28 19.5 -46
t50.5 -18q35 0 59 22.5t29 59.5h68q-10 -73 -53.5 -113t-111.5 -40q-55 0 -91.5 35t-36.5 86q0 15 3 32z" />
    <glyph glyph-name="Ohungarumlaut" unicode="&#x150;" horiz-adv-x="725" 
d="M59 264q0 190 106 313t268 123q121 0 194.5 -76t73.5 -200q0 -190 -106 -313t-268 -123q-121 0 -194.5 76t-73.5 200zM166 275q0 -92 46 -146t125 -54q107 0 182 98.5t75 239.5q0 92 -46 146t-125 54q-107 0 -182 -98.5t-75 -239.5zM486 753l134 154h105l-149 -154h-90z
M302 753l134 154h105l-150 -154h-89z" />
    <glyph glyph-name="ohungarumlaut" unicode="&#x151;" horiz-adv-x="561" 
d="M36 195q0 138 79.5 227.5t203.5 89.5q92 0 149 -57t57 -149q0 -139 -80 -228.5t-204 -89.5q-92 0 -148.5 57t-56.5 150zM140 205q0 -61 30 -97t82 -36q71 0 120 65t49 159q0 60 -30.5 96t-81.5 36q-71 0 -120 -64.5t-49 -158.5zM369 565l134 154h105l-149 -154h-90z
M185 565l134 154h105l-150 -154h-89z" />
    <glyph glyph-name="OE" unicode="&#x152;" horiz-adv-x="931" 
d="M954 688l-16 -84h-292l-41 -213h254l-15 -83h-254l-42 -224h300l-15 -84h-489q-127 0 -206 73.5t-79 190.5q0 194 106 309t285 115h504zM444 84l98 520h-99q-124 0 -200.5 -91t-76.5 -238q0 -89 52.5 -140t145.5 -51h80z" />
    <glyph glyph-name="oe" unicode="&#x153;" horiz-adv-x="886" 
d="M36 193q0 139 80 229t203 90q55 0 100 -25t70 -70q71 95 193 95q78 0 127 -52t49 -134q0 -53 -11 -101h-335q-2 -16 -2 -25q0 -59 37 -96t98 -37q74 0 151 47l-17 -91q-78 -35 -160 -35q-58 0 -103.5 27t-69.5 73q-79 -100 -205 -100q-89 0 -147 58t-58 147zM524 292h238
q3 20 3 36q0 47 -25 76t-67 29q-54 0 -94 -37.5t-55 -103.5zM140 205q0 -61 30 -97t82 -36q71 0 120 65t49 159q0 60 -30.5 96t-81.5 36q-71 0 -120 -64.5t-49 -158.5z" />
    <glyph glyph-name="Racute" unicode="&#x154;" horiz-adv-x="600" 
d="M406 0l-111 264h-96l-50 -264h-101l129 688h204q92 0 147 -48.5t55 -129.5q0 -84 -52 -147.5t-136 -85.5l119 -277h-108zM264 606l-50 -260h94q76 0 123.5 43.5t47.5 108.5q0 50 -34 79t-92 29h-89zM333 753l134 154h104l-149 -154h-89z" />
    <glyph glyph-name="racute" unicode="&#x155;" horiz-adv-x="382" 
d="M29 0l93 500h98l-10 -51q68 63 137 63q31 0 53 -12l-17 -89q-27 12 -51 12q-71 0 -137 -71l-66 -352h-100zM208 565l134 154h104l-149 -154h-89z" />
    <glyph glyph-name="Rcommaaccent" unicode="&#x156;" horiz-adv-x="600" 
d="M406 0l-111 264h-96l-50 -264h-101l129 688h204q92 0 147 -48.5t55 -129.5q0 -84 -52 -147.5t-136 -85.5l119 -277h-108zM264 606l-50 -260h94q76 0 123.5 43.5t47.5 108.5q0 50 -34 79t-92 29h-89zM107 -242l96 178h96l-109 -178h-83z" />
    <glyph glyph-name="rcommaaccent" unicode="&#x157;" horiz-adv-x="382" 
d="M29 0l93 500h98l-10 -51q68 63 137 63q31 0 53 -12l-17 -89q-27 12 -51 12q-71 0 -137 -71l-66 -352h-100zM-67 -242l96 178h96l-109 -178h-83z" />
    <glyph glyph-name="Rcaron" unicode="&#x158;" horiz-adv-x="600" 
d="M406 0l-111 264h-96l-50 -264h-101l129 688h204q92 0 147 -48.5t55 -129.5q0 -84 -52 -147.5t-136 -85.5l119 -277h-108zM264 606l-50 -260h94q76 0 123.5 43.5t47.5 108.5q0 50 -34 79t-92 29h-89zM573 907l-134 -154h-88l-76 154h74l53 -91l88 91h83z" />
    <glyph glyph-name="rcaron" unicode="&#x159;" horiz-adv-x="382" 
d="M29 0l93 500h98l-10 -51q68 63 137 63q31 0 53 -12l-17 -89q-27 12 -51 12q-71 0 -137 -71l-66 -352h-100zM448 719l-134 -154h-88l-76 154h74l53 -91l88 91h83z" />
    <glyph glyph-name="Sacute" unicode="&#x15a;" horiz-adv-x="538" 
d="M26 47l17 93q98 -69 188 -69q63 0 102.5 32.5t39.5 83.5q0 38 -28 66.5t-67.5 48.5t-79.5 42.5t-68 62t-28 93.5q0 88 67 144t174 56q93 0 188 -52l-16 -91q-90 60 -172 60q-62 0 -100.5 -30.5t-38.5 -79.5q0 -37 28 -64t68 -46.5t79.5 -42.5t67.5 -63.5t28 -96.5
q0 -90 -68 -148t-176 -58q-98 0 -205 59zM302 753l134 154h104l-149 -154h-89z" />
    <glyph glyph-name="sacute" unicode="&#x15b;" horiz-adv-x="421" 
d="M13 31l16 88q73 -51 139 -51q40 0 64.5 19.5t24.5 51.5q0 24 -19.5 42.5t-47.5 32.5t-56 30.5t-47.5 45.5t-19.5 69q0 68 51.5 110.5t134.5 42.5q73 0 143 -38l-15 -86q-68 44 -128 44q-38 0 -62 -18.5t-24 -48.5q0 -23 19.5 -41t48 -31.5t56.5 -30t47.5 -46.5t19.5 -71
q0 -71 -52.5 -114t-137.5 -43q-77 0 -155 43zM210 565l134 154h104l-149 -154h-89z" />
    <glyph glyph-name="Scircumflex" unicode="&#x15c;" horiz-adv-x="538" 
d="M26 47l17 93q98 -69 188 -69q63 0 102.5 32.5t39.5 83.5q0 38 -28 66.5t-67.5 48.5t-79.5 42.5t-68 62t-28 93.5q0 88 67 144t174 56q93 0 188 -52l-16 -91q-90 60 -172 60q-62 0 -100.5 -30.5t-38.5 -79.5q0 -37 28 -64t68 -46.5t79.5 -42.5t67.5 -63.5t28 -96.5
q0 -90 -68 -148t-176 -58q-98 0 -205 59zM210 753l135 154h87l76 -154h-73l-54 91l-87 -91h-84z" />
    <glyph glyph-name="scircumflex" unicode="&#x15d;" horiz-adv-x="421" 
d="M13 31l16 88q73 -51 139 -51q40 0 64.5 19.5t24.5 51.5q0 24 -19.5 42.5t-47.5 32.5t-56 30.5t-47.5 45.5t-19.5 69q0 68 51.5 110.5t134.5 42.5q73 0 143 -38l-15 -86q-68 44 -128 44q-38 0 -62 -18.5t-24 -48.5q0 -23 19.5 -41t48 -31.5t56.5 -30t47.5 -46.5t19.5 -71
q0 -71 -52.5 -114t-137.5 -43q-77 0 -155 43zM118 565l135 154h87l76 -154h-73l-54 91l-87 -91h-84z" />
    <glyph glyph-name="Scedilla" unicode="&#x15e;" horiz-adv-x="538" 
d="M26 47l17 93q98 -69 188 -69q63 0 102.5 32t39.5 84q0 38 -28 66.5t-67.5 48.5t-79.5 42.5t-68 62t-28 93.5q0 88 67 144t174 56q93 0 188 -52l-16 -91q-90 60 -172 60q-62 0 -100.5 -30.5t-38.5 -79.5q0 -37 28 -64t68 -46.5t79.5 -42.5t67.5 -63.5t28 -96.5
q0 -84 -59.5 -140t-156.5 -64l-17 -43q25 -8 40.5 -28t15.5 -46q0 -44 -37 -74t-92 -30q-43 0 -85 24l12 61q35 -23 67 -23q25 0 40.5 12.5t15.5 31.5t-15.5 30.5t-40.5 11.5h-4l33 74q-86 10 -166 56z" />
    <glyph glyph-name="scedilla" unicode="&#x15f;" horiz-adv-x="421" 
d="M13 31l16 88q73 -51 139 -51q40 0 64.5 19.5t24.5 51.5q0 24 -19.5 42.5t-47.5 32.5t-56 30.5t-47.5 45.5t-19.5 69q0 68 51.5 110.5t134.5 42.5q73 0 143 -38l-15 -86q-68 44 -128 44q-38 0 -62 -18.5t-24 -48.5q0 -23 19.5 -41t48 -31.5t56.5 -30t47.5 -46.5t19.5 -71
q0 -63 -42 -104.5t-113 -49.5l-18 -44q25 -8 40.5 -28t15.5 -46q0 -44 -36.5 -74t-91.5 -30q-44 0 -86 24l12 61q35 -23 68 -23q24 0 39.5 12.5t15.5 31.5t-15 30.5t-40 11.5h-4l32 73q-61 8 -122 41z" />
    <glyph glyph-name="Scaron" unicode="&#x160;" horiz-adv-x="538" 
d="M26 47l17 93q98 -69 188 -69q63 0 102.5 32.5t39.5 83.5q0 38 -28 66.5t-67.5 48.5t-79.5 42.5t-68 62t-28 93.5q0 88 67 144t174 56q93 0 188 -52l-16 -91q-90 60 -172 60q-62 0 -100.5 -30.5t-38.5 -79.5q0 -37 28 -64t68 -46.5t79.5 -42.5t67.5 -63.5t28 -96.5
q0 -90 -68 -148t-176 -58q-98 0 -205 59zM542 907l-134 -154h-88l-76 154h74l53 -91l88 91h83z" />
    <glyph glyph-name="scaron" unicode="&#x161;" horiz-adv-x="421" 
d="M13 31l16 88q73 -51 139 -51q40 0 64.5 19.5t24.5 51.5q0 24 -19.5 42.5t-47.5 32.5t-56 30.5t-47.5 45.5t-19.5 69q0 68 51.5 110.5t134.5 42.5q73 0 143 -38l-15 -86q-68 44 -128 44q-38 0 -62 -18.5t-24 -48.5q0 -23 19.5 -41t48 -31.5t56.5 -30t47.5 -46.5t19.5 -71
q0 -71 -52.5 -114t-137.5 -43q-77 0 -155 43zM450 719l-134 -154h-88l-76 154h74l53 -91l88 91h83z" />
    <glyph glyph-name="uni0162" unicode="&#x162;" horiz-adv-x="577" 
d="M190 0l113 604h-211l16 84h526l-16 -84h-212l-113 -604h-103zM95 -242l96 178h96l-109 -178h-83z" />
    <glyph glyph-name="uni0163" unicode="&#x163;" horiz-adv-x="409" 
d="M285 641l-26 -141h158l-15 -81h-158l-49 -257q-3 -16 -3 -30q0 -27 17.5 -43.5t47.5 -16.5q37 0 85 24l-17 -90q-49 -18 -98 -18q-62 0 -100 34.5t-38 91.5q0 13 4 37l50 268h-91l15 81h91l26 141h101zM43 -242l96 178h96l-109 -178h-83z" />
    <glyph glyph-name="Tcaron" unicode="&#x164;" horiz-adv-x="577" 
d="M190 0l113 604h-211l16 84h526l-16 -84h-212l-113 -604h-103zM562 907l-134 -154h-88l-76 154h74l53 -91l88 91h83z" />
    <glyph glyph-name="tcaron" unicode="&#x165;" horiz-adv-x="409" 
d="M285 641l-26 -141h158l-15 -81h-158l-49 -257q-3 -16 -3 -30q0 -27 17.5 -43.5t47.5 -16.5q37 0 85 24l-17 -90q-49 -18 -98 -18q-62 0 -100 34.5t-38 91.5q0 13 4 37l50 268h-91l15 81h91l26 141h101zM328 565l83 154h90l-94 -154h-79z" />
    <glyph glyph-name="Tbar" unicode="&#x166;" horiz-adv-x="577" 
d="M190 0l54 296h-134l14 70h134l45 238h-211l16 84h526l-16 -84h-212l-45 -238h135l-14 -70h-134l-55 -296h-103z" />
    <glyph glyph-name="tbar" unicode="&#x167;" horiz-adv-x="409" 
d="M285 641l-26 -141h158l-15 -81h-158l-25 -129h142l-13 -71h-143l-10 -57q-3 -16 -3 -30q0 -27 17.5 -43.5t47.5 -16.5q37 0 85 24l-17 -90q-49 -18 -98 -18q-62 0 -100 34.5t-38 91.5q0 13 4 37l12 68h-84l14 71h83l25 129h-91l15 81h91l26 141h101z" />
    <glyph glyph-name="Utilde" unicode="&#x168;" horiz-adv-x="725" 
d="M715 688l-84 -454q-21 -113 -103 -179.5t-201 -66.5q-104 0 -171.5 60.5t-67.5 153.5q0 27 7 67l78 419h104l-79 -419q-5 -30 -5 -53q0 -63 39.5 -102t104.5 -39q74 0 126 46t66 124l83 443h103zM301 779q8 50 38 81.5t73 31.5q31 0 67.5 -28t50.5 -28q17 0 30 12.5
t16 32.5h64q-8 -50 -38.5 -81.5t-72.5 -31.5q-24 0 -46.5 14t-40.5 28t-31 14q-18 0 -30.5 -12.5t-16.5 -32.5h-63z" />
    <glyph glyph-name="utilde" unicode="&#x169;" horiz-adv-x="561" 
d="M532 500l-94 -500h-97l9 48q-74 -60 -152 -60q-62 0 -103 40.5t-41 101.5q0 25 5 55l60 315h100l-58 -310q-3 -16 -3 -34q0 -37 22 -58.5t59 -21.5q61 0 124 61l69 363h100zM182 591q8 50 38 81.5t73 31.5q31 0 67.5 -28t50.5 -28q17 0 30 12.5t16 32.5h64
q-8 -50 -38.5 -81.5t-72.5 -31.5q-32 0 -68 28t-50 28q-18 0 -30.5 -12.5t-16.5 -32.5h-63z" />
    <glyph glyph-name="Umacron" unicode="&#x16a;" horiz-adv-x="725" 
d="M715 688l-84 -454q-21 -113 -103 -179.5t-201 -66.5q-104 0 -171.5 60.5t-67.5 153.5q0 27 7 67l78 419h104l-79 -419q-5 -30 -5 -53q0 -63 39.5 -102t104.5 -39q74 0 126 46t66 124l83 443h103zM305 795l13 71h317l-13 -71h-317z" />
    <glyph glyph-name="umacron" unicode="&#x16b;" horiz-adv-x="561" 
d="M532 500l-94 -500h-97l9 48q-74 -60 -152 -60q-62 0 -103 40.5t-41 101.5q0 25 5 55l60 315h100l-58 -310q-3 -16 -3 -34q0 -37 22 -58.5t59 -21.5q61 0 124 61l69 363h100zM186 607l13 71h317l-13 -71h-317z" />
    <glyph glyph-name="Ubreve" unicode="&#x16c;" horiz-adv-x="725" 
d="M715 688l-84 -454q-21 -113 -103 -179.5t-201 -66.5q-104 0 -171.5 60.5t-67.5 153.5q0 27 7 67l78 419h104l-79 -419q-5 -30 -5 -53q0 -63 39.5 -102t104.5 -39q74 0 126 46t66 124l83 443h103zM341 907h65q-1 -7 -1 -18q0 -28 19.5 -46t50.5 -18q35 0 59 22.5t29 59.5
h68q-10 -73 -53.5 -113t-111.5 -40q-55 0 -91.5 35t-36.5 86q0 15 3 32z" />
    <glyph glyph-name="ubreve" unicode="&#x16d;" horiz-adv-x="561" 
d="M532 500l-94 -500h-97l9 48q-74 -60 -152 -60q-62 0 -103 40.5t-41 101.5q0 25 5 55l60 315h100l-58 -310q-3 -16 -3 -34q0 -37 22 -58.5t59 -21.5q61 0 124 61l69 363h100zM222 719h65q-1 -7 -1 -18q0 -28 19.5 -46t50.5 -18q35 0 59 22.5t29 59.5h68
q-10 -73 -53.5 -113t-111.5 -40q-55 0 -91.5 35t-36.5 86q0 15 3 32z" />
    <glyph glyph-name="Uring" unicode="&#x16e;" horiz-adv-x="725" 
d="M715 688l-84 -454q-21 -113 -103 -179.5t-201 -66.5q-104 0 -171.5 60.5t-67.5 153.5q0 27 7 67l78 419h104l-79 -419q-5 -30 -5 -53q0 -63 39.5 -102t104.5 -39q74 0 126 46t66 124l83 443h103zM369 820q0 47 32 79t79 32q40 0 65 -25.5t25 -65.5q0 -47 -31.5 -78.5
t-78.5 -31.5q-40 0 -65.5 25t-25.5 65zM419 825q0 -20 12.5 -33t33.5 -13q23 0 39.5 16t16.5 40q0 20 -13 33t-33 13q-24 0 -40 -16t-16 -40z" />
    <glyph glyph-name="uring" unicode="&#x16f;" horiz-adv-x="561" 
d="M532 500l-94 -500h-97l9 48q-74 -60 -152 -60q-62 0 -103 40.5t-41 101.5q0 25 5 55l60 315h100l-58 -310q-3 -16 -3 -34q0 -37 22 -58.5t59 -21.5q61 0 124 61l69 363h100zM250 632q0 47 32 79t79 32q40 0 65 -25.5t25 -65.5q0 -47 -31.5 -78.5t-78.5 -31.5
q-40 0 -65.5 25t-25.5 65zM300 637q0 -20 12.5 -33t33.5 -13q23 0 39.5 16t16.5 40q0 20 -13 33t-33 13q-24 0 -40 -16t-16 -40z" />
    <glyph glyph-name="Uhungarumlaut" unicode="&#x170;" horiz-adv-x="725" 
d="M715 688l-84 -454q-21 -113 -103 -179.5t-201 -66.5q-104 0 -171.5 60.5t-67.5 153.5q0 27 7 67l78 419h104l-79 -419q-5 -30 -5 -53q0 -63 39.5 -102t104.5 -39q74 0 126 46t66 124l83 443h103zM486 753l134 154h105l-149 -154h-90zM302 753l134 154h105l-150 -154h-89z
" />
    <glyph glyph-name="uhungarumlaut" unicode="&#x171;" horiz-adv-x="561" 
d="M532 500l-94 -500h-97l9 48q-74 -60 -152 -60q-62 0 -103 40.5t-41 101.5q0 25 5 55l60 315h100l-58 -310q-3 -16 -3 -34q0 -37 22 -58.5t59 -21.5q61 0 124 61l69 363h100zM367 565l134 154h105l-149 -154h-90zM183 565l134 154h105l-150 -154h-89z" />
    <glyph glyph-name="Uogonek" unicode="&#x172;" horiz-adv-x="725" 
d="M715 688l-84 -454q-30 -156 -184 -225q-57 -25 -87.5 -59t-30.5 -66q0 -17 12 -28.5t31 -11.5q15 0 37 8l-13 -64q-26 -10 -56 -10q-39 0 -65 22.5t-26 57.5q0 76 90 131q-3 0 -9 -0.5t-8 -0.5q-102 0 -168 60.5t-66 153.5q0 29 7 67l78 419h104l-79 -419q-5 -30 -5 -53
q0 -63 39.5 -102t104.5 -39q74 0 126 45.5t66 122.5l83 445h103z" />
    <glyph glyph-name="uogonek" unicode="&#x173;" horiz-adv-x="561" 
d="M360 0h-19l9 48q-74 -60 -152 -60q-62 0 -103 40.5t-41 101.5q0 25 5 55l60 315h100l-58 -310q-3 -16 -3 -34q0 -37 22 -58.5t59 -21.5q61 0 124 61l69 363h100l-94 -500q-107 -55 -107 -116q0 -17 12 -28.5t30 -11.5t37 8l-12 -64q-26 -10 -56 -10q-39 0 -65 22.5
t-26 57.5q0 42 28.5 79t80.5 63z" />
    <glyph glyph-name="Wcircumflex" unicode="&#x174;" horiz-adv-x="1006" 
d="M1066 688l-356 -688h-91l-66 555l-273 -555h-91l-96 688h97l66 -555l273 555h91l66 -555l273 555h107zM438 753l135 154h87l76 -154h-73l-54 91l-87 -91h-84z" />
    <glyph glyph-name="wcircumflex" unicode="&#x175;" horiz-adv-x="764" 
d="M792 500l-260 -500h-90l-40 376l-180 -376h-90l-71 500h95l41 -376l180 376h89l41 -376l181 376h104zM284 565l135 154h87l76 -154h-73l-54 91l-87 -91h-84z" />
    <glyph glyph-name="Ycircumflex" unicode="&#x176;" horiz-adv-x="591" 
d="M191 0l56 296l-164 392h109l118 -303l231 303h124l-316 -401l-55 -287h-103zM231 753l135 154h87l76 -154h-73l-54 91l-87 -91h-84z" />
    <glyph glyph-name="ycircumflex" unicode="&#x177;" horiz-adv-x="490" 
d="M522 500l-409 -719h-103l141 237l-94 482h97l63 -365l197 365h108zM147 565l135 154h87l76 -154h-73l-54 91l-87 -91h-84z" />
    <glyph glyph-name="Ydieresis" unicode="&#x178;" horiz-adv-x="591" 
d="M191 0l56 296l-164 392h109l118 -303l231 303h124l-316 -401l-55 -287h-103zM236 824q0 27 18.5 45.5t46.5 18.5q23 0 37 -14t14 -37q0 -28 -18.5 -46.5t-45.5 -18.5q-23 0 -37.5 14.5t-14.5 37.5zM442 824q0 27 18.5 45.5t45.5 18.5q23 0 37.5 -14.5t14.5 -36.5
q0 -28 -18 -46.5t-46 -18.5q-23 0 -37.5 14.5t-14.5 37.5z" />
    <glyph glyph-name="Zacute" unicode="&#x179;" horiz-adv-x="612" 
d="M-6 0l14 71l483 533h-363l16 84h494l-14 -71l-483 -533h389l-16 -84h-520zM339 753l134 154h104l-149 -154h-89z" />
    <glyph glyph-name="zacute" unicode="&#x17a;" horiz-adv-x="475" 
d="M-8 0l13 68l321 351h-241l16 81h369l-14 -67l-320 -352h261l-16 -81h-389zM236 565l134 154h104l-149 -154h-89z" />
    <glyph glyph-name="Zdotaccent" unicode="&#x17b;" horiz-adv-x="612" 
d="M-6 0l14 71l483 533h-363l16 84h494l-14 -71l-483 -533h389l-16 -84h-520zM353 824q0 28 19 46.5t47 18.5q23 0 38.5 -14.5t15.5 -37.5q0 -28 -19 -47t-47 -19q-24 0 -39 15t-15 38z" />
    <glyph glyph-name="zdotaccent" unicode="&#x17c;" horiz-adv-x="475" 
d="M-8 0l13 68l321 351h-241l16 81h369l-14 -67l-320 -352h261l-16 -81h-389zM250 636q0 28 19 46.5t47 18.5q23 0 38.5 -14.5t15.5 -37.5q0 -28 -19 -47t-47 -19q-24 0 -39 15t-15 38z" />
    <glyph glyph-name="Zcaron" unicode="&#x17d;" horiz-adv-x="612" 
d="M-6 0l14 71l483 533h-363l16 84h494l-14 -71l-483 -533h389l-16 -84h-520zM579 907l-134 -154h-88l-76 154h74l53 -91l88 91h83z" />
    <glyph glyph-name="zcaron" unicode="&#x17e;" horiz-adv-x="475" 
d="M-8 0l13 68l321 351h-241l16 81h369l-14 -67l-320 -352h261l-16 -81h-389zM476 719l-134 -154h-88l-76 154h74l53 -91l88 91h83z" />
    <glyph glyph-name="florin" unicode="&#x192;" 
d="M139 360l15 81h103l23 123q12 63 55.5 99.5t107.5 36.5q54 0 105 -25l-15 -83q-40 21 -74 21q-30 0 -51.5 -18.5t-27.5 -49.5l-20 -104h128l-15 -81h-128l-67 -361q-11 -63 -54.5 -99.5t-107.5 -36.5q-56 0 -106 25l16 83q39 -21 74 -21q29 0 50.5 18.5t27.5 49.5l64 342
h-103z" />
    <glyph glyph-name="Scommaaccent" unicode="&#x218;" horiz-adv-x="538" 
d="M26 47l17 93q98 -69 188 -69q63 0 102.5 32.5t39.5 83.5q0 38 -28 66.5t-67.5 48.5t-79.5 42.5t-68 62t-28 93.5q0 88 67 144t174 56q93 0 188 -52l-16 -91q-90 60 -172 60q-62 0 -100.5 -30.5t-38.5 -79.5q0 -37 28 -64t68 -46.5t79.5 -42.5t67.5 -63.5t28 -96.5
q0 -90 -68 -148t-176 -58q-98 0 -205 59zM76 -242l96 178h96l-109 -178h-83z" />
    <glyph glyph-name="scommaaccent" unicode="&#x219;" horiz-adv-x="421" 
d="M13 31l16 88q73 -51 139 -51q40 0 64.5 19.5t24.5 51.5q0 24 -19.5 42.5t-47.5 32.5t-56 30.5t-47.5 45.5t-19.5 69q0 68 51.5 110.5t134.5 42.5q73 0 143 -38l-15 -86q-68 44 -128 44q-38 0 -62 -18.5t-24 -48.5q0 -23 19.5 -41t48 -31.5t56.5 -30t47.5 -46.5t19.5 -71
q0 -71 -52.5 -114t-137.5 -43q-77 0 -155 43zM19 -242l96 178h96l-109 -178h-83z" />
    <glyph glyph-name="uni021A" unicode="&#x21a;" horiz-adv-x="577" 
d="M190 0l113 604h-211l16 84h526l-16 -84h-212l-113 -604h-103zM95 -242l96 178h96l-109 -178h-83z" />
    <glyph glyph-name="uni021B" unicode="&#x21b;" horiz-adv-x="409" 
d="M285 641l-26 -141h158l-15 -81h-158l-49 -257q-3 -16 -3 -30q0 -27 17.5 -43.5t47.5 -16.5q37 0 85 24l-17 -90q-49 -18 -98 -18q-62 0 -100 34.5t-38 91.5q0 13 4 37l50 268h-91l15 81h91l26 141h101zM43 -242l96 178h96l-109 -178h-83z" />
    <glyph glyph-name="dotlessj" unicode="&#x237;" horiz-adv-x="251" 
d="M223 500l-111 -592q-12 -65 -55.5 -102t-108.5 -37q-55 0 -115 29l15 81q44 -26 83 -26q33 0 55.5 19.5t28.5 51.5l107 576h101z" />
    <glyph glyph-name="circumflex" unicode="&#x2c6;" horiz-adv-x="250" 
d="M31 565l135 154h87l76 -154h-73l-54 91l-87 -91h-84z" />
    <glyph glyph-name="caron" unicode="&#x2c7;" horiz-adv-x="250" 
d="M363 719l-134 -154h-88l-76 154h74l53 -91l88 91h83z" />
    <glyph glyph-name="uni02C9" unicode="&#x2c9;" horiz-adv-x="250" 
d="M33 607l13 71h317l-13 -71h-317z" />
    <glyph glyph-name="breve" unicode="&#x2d8;" horiz-adv-x="250" 
d="M69 719h65q-1 -7 -1 -18q0 -28 19.5 -46t50.5 -18q35 0 59 22.5t29 59.5h68q-10 -73 -53.5 -113t-111.5 -40q-55 0 -91.5 35t-36.5 86q0 15 3 32z" />
    <glyph glyph-name="dotaccent" unicode="&#x2d9;" horiz-adv-x="250" 
d="M137 636q0 28 19 46.5t47 18.5q23 0 38.5 -14.5t15.5 -37.5q0 -28 -19 -47t-47 -19q-24 0 -39 15t-15 38z" />
    <glyph glyph-name="ring" unicode="&#x2da;" horiz-adv-x="250" 
d="M97 632q0 47 32 79t79 32q40 0 65 -25.5t25 -65.5q0 -47 -31.5 -78.5t-78.5 -31.5q-40 0 -65.5 25t-25.5 65zM147 637q0 -20 12.5 -33t33.5 -13q23 0 39.5 16t16.5 40q0 20 -13 33t-33 13q-24 0 -40 -16t-16 -40z" />
    <glyph glyph-name="ogonek" unicode="&#x2db;" horiz-adv-x="250" 
d="M50 0h78q-107 -55 -107 -116q0 -17 12 -28.5t30 -11.5t37 8l-12 -64q-26 -10 -56 -10q-39 0 -65 22.5t-26 57.5q0 42 28.5 79t80.5 63z" />
    <glyph glyph-name="tilde" unicode="&#x2dc;" horiz-adv-x="250" 
d="M29 591q8 50 38 81.5t73 31.5q31 0 67.5 -28t50.5 -28q17 0 30 12.5t16 32.5h64q-8 -50 -38.5 -81.5t-72.5 -31.5q-31 0 -68 28t-50 28q-18 0 -30.5 -12.5t-16.5 -32.5h-63z" />
    <glyph glyph-name="hungarumlaut" unicode="&#x2dd;" horiz-adv-x="250" 
d="M214 565l134 154h105l-149 -154h-90zM30 565l134 154h105l-150 -154h-89z" />
    <glyph glyph-name="uni0394" unicode="&#x394;" horiz-adv-x="631" 
d="M-9 0l12 59l357 629h84l125 -635l-9 -53h-569zM381 545l-256 -463h340z" />
    <glyph glyph-name="uni03A9" unicode="&#x3a9;" horiz-adv-x="756" 
d="M-9 0l15 82h180q-100 134 -100 274q0 151 99 247.5t256 96.5q117 0 197 -74t80 -183q0 -200 -203 -361h172l-16 -82h-292l12 64q221 169 221 362q0 84 -50 135.5t-131 51.5q-110 0 -176 -76.5t-66 -201.5q0 -135 94 -271l-12 -64h-280z" />
    <glyph glyph-name="uni03BC" unicode="&#x3bc;" horiz-adv-x="565" 
d="M-12 -219l134 719h101l-58 -310q-3 -16 -3 -34q0 -37 22 -58.5t59 -21.5q61 0 125 61l68 363h100l-94 -500h-97l9 48q-64 -56 -132 -56q-52 0 -88 36l-46 -247h-100z" />
    <glyph glyph-name="pi" unicode="&#x3c0;" horiz-adv-x="584" 
d="M54 0l79 421h-88l15 79h557l-14 -79h-88l-79 -421h-100l78 421h-181l-79 -421h-100z" />
    <glyph glyph-name="Wgrave" unicode="&#x1e80;" horiz-adv-x="1006" 
d="M1066 688l-356 -688h-91l-66 555l-273 -555h-91l-96 688h97l66 -555l273 555h91l66 -555l273 555h107zM571 753l-91 154h91l76 -154h-76z" />
    <glyph glyph-name="wgrave" unicode="&#x1e81;" horiz-adv-x="764" 
d="M792 500l-260 -500h-90l-40 376l-180 -376h-90l-71 500h95l41 -376l180 376h89l41 -376l181 376h104zM417 565l-91 154h91l76 -154h-76z" />
    <glyph glyph-name="Wacute" unicode="&#x1e82;" horiz-adv-x="1006" 
d="M1066 688l-356 -688h-91l-66 555l-273 -555h-91l-96 688h97l66 -555l273 555h91l66 -555l273 555h107zM530 753l134 154h104l-149 -154h-89z" />
    <glyph glyph-name="wacute" unicode="&#x1e83;" horiz-adv-x="764" 
d="M792 500l-260 -500h-90l-40 376l-180 -376h-90l-71 500h95l41 -376l180 376h89l41 -376l181 376h104zM376 565l134 154h104l-149 -154h-89z" />
    <glyph glyph-name="Wdieresis" unicode="&#x1e84;" horiz-adv-x="1006" 
d="M1066 688l-356 -688h-91l-66 555l-273 -555h-91l-96 688h97l66 -555l273 555h91l66 -555l273 555h107zM443 824q0 27 18.5 45.5t46.5 18.5q22 0 36.5 -14t14.5 -37q0 -28 -18.5 -46.5t-45.5 -18.5q-23 0 -37.5 14.5t-14.5 37.5zM649 824q0 27 18.5 45.5t45.5 18.5
q23 0 37.5 -14.5t14.5 -36.5q0 -28 -18 -46.5t-46 -18.5q-23 0 -37.5 14.5t-14.5 37.5z" />
    <glyph glyph-name="wdieresis" unicode="&#x1e85;" horiz-adv-x="764" 
d="M792 500l-260 -500h-90l-40 376l-180 -376h-90l-71 500h95l41 -376l180 376h89l41 -376l181 376h104zM289 636q0 27 18.5 45.5t46.5 18.5q22 0 36.5 -14t14.5 -37q0 -28 -18.5 -46.5t-45.5 -18.5q-23 0 -37.5 14.5t-14.5 37.5zM495 636q0 27 18.5 45.5t45.5 18.5
q23 0 37.5 -14.5t14.5 -36.5q0 -28 -18 -46.5t-46 -18.5q-23 0 -37.5 14.5t-14.5 37.5z" />
    <glyph glyph-name="uni1E9E" unicode="&#x1e9e;" horiz-adv-x="724" 
d="M48 0l129 688h545l-14 -71l-183 -211q66 -15 107 -64t41 -113q0 -101 -74 -171t-182 -70q-75 0 -152 41l18 92q66 -46 134 -46q64 0 107.5 40.5t43.5 100.5q0 57 -40.5 90t-109.5 33h-19l14 71l168 194h-318l-114 -604h-101z" />
    <glyph glyph-name="Ygrave" unicode="&#x1ef2;" horiz-adv-x="591" 
d="M191 0l56 296l-164 392h109l118 -303l231 303h124l-316 -401l-55 -287h-103zM364 753l-91 154h91l76 -154h-76z" />
    <glyph glyph-name="ygrave" unicode="&#x1ef3;" horiz-adv-x="490" 
d="M522 500l-409 -719h-103l141 237l-94 482h97l63 -365l197 365h108zM280 565l-91 154h91l76 -154h-76z" />
    <glyph glyph-name="figuredash" unicode="&#x2012;" 
d="M51 312l12 64h483l-12 -64h-483z" />
    <glyph glyph-name="endash" unicode="&#x2013;" horiz-adv-x="500" 
d="M24 214l16 81h436l-16 -81h-436z" />
    <glyph glyph-name="emdash" unicode="&#x2014;" horiz-adv-x="1000" 
d="M24 214l16 81h936l-16 -81h-936z" />
    <glyph glyph-name="quoteleft" unicode="&#x2018;" horiz-adv-x="250" 
d="M300 688l-123 -223h-105l137 223h91z" />
    <glyph glyph-name="quoteright" unicode="&#x2019;" horiz-adv-x="250" 
d="M72 465l124 223h104l-137 -223h-91z" />
    <glyph glyph-name="quotesinglbase" unicode="&#x201a;" horiz-adv-x="250" 
d="M-70 -125l123 223h104l-136 -223h-91z" />
    <glyph glyph-name="quotedblleft" unicode="&#x201c;" horiz-adv-x="428" 
d="M477 688l-123 -223h-104l136 223h91zM300 688l-123 -223h-105l137 223h91z" />
    <glyph glyph-name="quotedblright" unicode="&#x201d;" horiz-adv-x="428" 
d="M72 465l124 223h104l-137 -223h-91zM250 465l123 223h104l-136 -223h-91z" />
    <glyph glyph-name="quotedblbase" unicode="&#x201e;" horiz-adv-x="428" 
d="M107 -125l124 223h103l-136 -223h-91zM-70 -125l123 223h104l-136 -223h-91z" />
    <glyph glyph-name="dagger" unicode="&#x2020;" horiz-adv-x="452" 
d="M136 0l82 443h-158l16 87h159l29 158h87l-30 -158h158l-16 -87h-158l-82 -443h-87z" />
    <glyph glyph-name="daggerdbl" unicode="&#x2021;" horiz-adv-x="452" 
d="M136 0l29 158h-159l17 87h158l37 198h-158l16 87h159l29 158h87l-30 -158h158l-16 -87h-158l-37 -198h158l-16 -87h-159l-28 -158h-87z" />
    <glyph glyph-name="bullet" unicode="&#x2022;" horiz-adv-x="500" 
d="M127 344q0 58 41.5 99.5t99.5 41.5t99.5 -41.5t41.5 -99.5t-41.5 -99.5t-99.5 -41.5t-99.5 41.5t-41.5 99.5z" />
    <glyph glyph-name="ellipsis" unicode="&#x2026;" horiz-adv-x="1001" 
d="M735 45q0 31 19.5 50.5t50.5 19.5q25 0 41 -15.5t16 -41.5q0 -31 -19.5 -50.5t-50.5 -19.5q-25 0 -41 16t-16 41zM401 45q0 31 19.5 50.5t50.5 19.5q25 0 41 -15.5t16 -41.5q0 -31 -19.5 -50.5t-50.5 -19.5q-25 0 -41 16t-16 41zM67 45q0 31 20 50.5t50 19.5q26 0 42 -16
t16 -41q0 -31 -19.5 -50.5t-50.5 -19.5q-25 0 -41.5 16t-16.5 41z" />
    <glyph glyph-name="perthousand" unicode="&#x2030;" horiz-adv-x="1211" 
d="M454 128q0 96 57 162t141 66q62 0 102.5 -39.5t40.5 -100.5q0 -96 -57 -162t-141 -66q-62 0 -102.5 39.5t-40.5 100.5zM528 137q0 -40 21 -64t56 -24q49 0 82.5 46t33.5 112q0 40 -21 64t-56 24q-49 0 -82.5 -46t-33.5 -112zM85 474q0 96 57 161t141 65q61 0 101.5 -40
t40.5 -102q0 -96 -57 -161t-140 -65q-62 0 -102.5 40t-40.5 102zM159 482q0 -39 21 -64t55 -25q49 0 82.5 45.5t33.5 111.5q0 40 -20.5 64.5t-55.5 24.5q-49 0 -82.5 -45.5t-33.5 -111.5zM75 0l642 688h87l-641 -688h-88zM821 128q0 96 57 162t141 66q62 0 102.5 -39.5
t40.5 -100.5q0 -96 -57 -162t-141 -66q-62 0 -102.5 39.5t-40.5 100.5zM895 137q0 -40 21 -64t55 -24q49 0 83 46.5t34 111.5q0 40 -21 64t-55 24q-49 0 -83 -46.5t-34 -111.5z" />
    <glyph glyph-name="guilsinglleft" unicode="&#x2039;" horiz-adv-x="395" 
d="M393 461l-226 -214l141 -207h-100l-164 213l234 208h115z" />
    <glyph glyph-name="guilsinglright" unicode="&#x203a;" horiz-adv-x="395" 
d="M2 40l226 213l-141 208h100l164 -214l-235 -207h-114z" />
    <glyph glyph-name="fraction" unicode="&#x2044;" horiz-adv-x="156" 
d="M-269 0l642 688h87l-641 -688h-88z" />
    <glyph glyph-name="uni2070" unicode="&#x2070;" horiz-adv-x="374" 
d="M97 548q0 116 54.5 194t134.5 78q58 0 91 -39t33 -109q0 -116 -54.5 -194t-134.5 -78q-58 0 -91 39t-33 109zM174 554q0 -41 14.5 -65t39.5 -24q43 0 73.5 59t30.5 142q0 41 -14.5 65t-39.5 24q-43 0 -73.5 -59t-30.5 -142z" />
    <glyph glyph-name="uni2074" unicode="&#x2074;" horiz-adv-x="348" 
d="M222 407l19 100h-175l10 56l230 250h66l-46 -246h60l-11 -60h-61l-19 -100h-73zM151 567h101l25 137z" />
    <glyph glyph-name="uni2075" unicode="&#x2075;" horiz-adv-x="312" 
d="M365 813l-13 -65h-147l-16 -89q20 2 30 2q52 0 85 -31.5t33 -80.5q0 -66 -47.5 -107.5t-121.5 -41.5q-50 0 -101 28l13 69q46 -32 88 -32q39 0 64.5 21.5t25.5 54.5q0 27 -21 44.5t-55 17.5t-73 -9l40 219h216z" />
    <glyph glyph-name="uni2076" unicode="&#x2076;" horiz-adv-x="347" 
d="M264 813h106q-118 -78 -170 -159q31 16 64 16q47 0 79 -33t32 -82q0 -66 -46.5 -110.5t-114.5 -44.5q-55 0 -91 36.5t-36 94.5q0 72 46.5 146.5t130.5 135.5zM171 577q-8 -22 -8 -44q0 -30 16.5 -49t43.5 -19q31 0 53.5 24t22.5 58q0 26 -16.5 42.5t-42.5 16.5
q-35 0 -69 -29z" />
    <glyph glyph-name="uni2077" unicode="&#x2077;" horiz-adv-x="284" 
d="M66 407l207 341h-177l13 65h265l-9 -49l-215 -357h-84z" />
    <glyph glyph-name="uni2078" unicode="&#x2078;" horiz-adv-x="348" 
d="M125 694q0 54 42.5 90t106.5 36q52 0 85.5 -28.5t33.5 -71.5q0 -77 -78 -107q53 -24 53 -83q0 -56 -45.5 -93t-115.5 -37q-53 0 -89 29.5t-36 73.5q0 40 24 70.5t64 42.5q-45 24 -45 78zM157 513q0 -23 16.5 -38t41.5 -15q34 0 55.5 20t21.5 52q0 23 -16 37.5t-41 14.5
q-34 0 -56 -20t-22 -51zM198 692q0 -22 14.5 -36t37.5 -14q30 0 50 19.5t20 48.5q0 22 -15 36t-38 14q-29 0 -49 -19.5t-20 -48.5z" />
    <glyph glyph-name="uni2079" unicode="&#x2079;" horiz-adv-x="347" 
d="M217 407h-106q118 78 170 159q-31 -16 -64 -16q-47 0 -79 33t-32 82q0 66 46 110.5t114 44.5q56 0 92 -36t36 -95q0 -72 -46.5 -146.5t-130.5 -135.5zM310 643q8 22 8 44q0 30 -16.5 49t-42.5 19q-32 0 -54.5 -24t-22.5 -58q0 -26 16 -42.5t42 -16.5q38 0 70 29z" />
    <glyph glyph-name="uni207A" unicode="&#x207a;" horiz-adv-x="344" 
d="M92 577v66h115v115h66v-115h115v-66h-115v-115h-66v115h-115z" />
    <glyph glyph-name="uni207B" unicode="&#x207b;" horiz-adv-x="344" 
d="M92 577v66h296v-66h-296z" />
    <glyph glyph-name="uni207C" unicode="&#x207c;" horiz-adv-x="344" 
d="M92 515v65h296v-65h-296zM92 640v65h296v-65h-296z" />
    <glyph glyph-name="uni207D" unicode="&#x207d;" horiz-adv-x="210" 
d="M102 558q0 181 136 311h88q-71 -61 -109.5 -140t-38.5 -166q0 -115 48 -212h-73q-51 100 -51 207z" />
    <glyph glyph-name="uni207E" unicode="&#x207e;" horiz-adv-x="210" 
d="M239 663q0 -181 -136 -312h-89q149 127 149 307q0 114 -48 211h73q51 -100 51 -206z" />
    <glyph glyph-name="uni2080" unicode="&#x2080;" horiz-adv-x="374" 
d="M-3 16q0 116 54.5 194t134.5 78q58 0 91 -39t33 -109q0 -116 -54.5 -194t-134.5 -78q-58 0 -91 39t-33 109zM74 22q0 -41 14.5 -65t39.5 -24q43 0 73.5 59t30.5 142q0 41 -14.5 65t-39.5 24q-43 0 -73.5 -59t-30.5 -142z" />
    <glyph glyph-name="uni2081" unicode="&#x2081;" horiz-adv-x="259" 
d="M48 -125l61 320l-108 -46l13 72l139 60h50l-76 -406h-79z" />
    <glyph glyph-name="uni2082" unicode="&#x2082;" horiz-adv-x="311" 
d="M-51 -125l10 52q216 145 216 235q0 27 -15.5 43t-42.5 16q-50 0 -100 -37l13 76q53 28 111 28q51 0 83 -30.5t32 -80.5q0 -100 -184 -237h146l-12 -65h-257z" />
    <glyph glyph-name="uni2083" unicode="&#x2083;" horiz-adv-x="307" 
d="M58 51l12 61h20q37 0 60.5 18.5t23.5 46.5q0 21 -16 34t-41 13q-43 0 -94 -27l13 71q48 20 97 20q52 0 85 -27.5t33 -71.5q0 -37 -23.5 -67t-61.5 -42q29 -11 45 -33.5t16 -51.5q0 -55 -44.5 -91t-111.5 -36q-61 0 -113 32l11 68q50 -36 100 -36q33 0 56 18.5t23 45.5
q0 25 -19.5 40t-50.5 15h-20z" />
    <glyph glyph-name="uni2084" unicode="&#x2084;" horiz-adv-x="348" 
d="M122 -125l19 100h-175l10 56l230 250h66l-46 -246h60l-11 -60h-61l-19 -100h-73zM51 35h101l25 137z" />
    <glyph glyph-name="uni2085" unicode="&#x2085;" horiz-adv-x="312" 
d="M265 281l-13 -65h-147l-16 -89q20 2 30 2q52 0 85 -31.5t33 -80.5q0 -66 -47.5 -107.5t-121.5 -41.5q-50 0 -101 28l13 69q46 -32 88 -32q39 0 64.5 21.5t25.5 54.5q0 27 -21 44.5t-55 17.5t-73 -9l40 219h216z" />
    <glyph glyph-name="uni2086" unicode="&#x2086;" horiz-adv-x="347" 
d="M164 281h106q-118 -78 -170 -159q31 16 64 16q47 0 79 -33t32 -82q0 -66 -46.5 -110.5t-114.5 -44.5q-55 0 -91 36.5t-36 94.5q0 72 46.5 146.5t130.5 135.5zM71 45q-8 -22 -8 -44q0 -30 16.5 -49t43.5 -19q31 0 53.5 24t22.5 58q0 26 -16.5 42.5t-42.5 16.5
q-35 0 -69 -29z" />
    <glyph glyph-name="uni2087" unicode="&#x2087;" horiz-adv-x="284" 
d="M-34 -125l207 341h-177l13 65h265l-9 -49l-215 -357h-84z" />
    <glyph glyph-name="uni2088" unicode="&#x2088;" horiz-adv-x="348" 
d="M25 162q0 54 42.5 90t106.5 36q52 0 85.5 -28.5t33.5 -71.5q0 -77 -78 -107q53 -24 53 -83q0 -56 -45.5 -93t-115.5 -37q-53 0 -89 29.5t-36 73.5q0 40 24 70.5t64 42.5q-45 24 -45 78zM57 -19q0 -23 16.5 -38t41.5 -15q34 0 55.5 20t21.5 52q0 23 -16 37.5t-41 14.5
q-34 0 -56 -20t-22 -51zM98 160q0 -22 14.5 -36t37.5 -14q30 0 50 19.5t20 48.5q0 22 -15 36t-38 14q-29 0 -49 -19.5t-20 -48.5z" />
    <glyph glyph-name="uni2089" unicode="&#x2089;" horiz-adv-x="347" 
d="M117 -125h-106q118 78 170 159q-31 -16 -64 -16q-47 0 -79 33t-32 82q0 66 46 110.5t114 44.5q56 0 92 -36t36 -95q0 -72 -46.5 -146.5t-130.5 -135.5zM210 111q8 22 8 44q0 30 -16.5 49t-42.5 19q-32 0 -54.5 -24t-22.5 -58q0 -26 16 -42.5t42 -16.5q38 0 70 29z" />
    <glyph glyph-name="uni208A" unicode="&#x208a;" horiz-adv-x="344" 
d="M-8 45v66h115v115h66v-115h115v-66h-115v-115h-66v115h-115z" />
    <glyph glyph-name="uni208B" unicode="&#x208b;" horiz-adv-x="344" 
d="M-8 45v66h296v-66h-296z" />
    <glyph glyph-name="uni208C" unicode="&#x208c;" horiz-adv-x="344" 
d="M-8 -17v65h296v-65h-296zM-8 108v65h296v-65h-296z" />
    <glyph glyph-name="uni208D" unicode="&#x208d;" horiz-adv-x="210" 
d="M2 26q0 181 136 311h88q-71 -61 -109.5 -140t-38.5 -166q0 -115 48 -212h-73q-51 100 -51 207z" />
    <glyph glyph-name="uni208E" unicode="&#x208e;" horiz-adv-x="210" 
d="M139 131q0 -181 -136 -312h-89q149 127 149 307q0 114 -48 211h73q51 -100 51 -206z" />
    <glyph glyph-name="Euro" unicode="&#x20ac;" 
d="M9 233l13 70h68q3 43 12 82h-65l14 70h73q43 112 126 178.5t186 66.5q86 0 163 -45l-16 -88q-67 48 -141 48q-67 0 -122.5 -43t-87.5 -117h222l-13 -70h-236q-10 -45 -13 -82h233l-13 -70h-218q8 -75 50 -117.5t110 -42.5q69 0 143 41l-18 -94q-73 -32 -149 -32
q-101 0 -167.5 68t-73.5 177h-80z" />
    <glyph glyph-name="afii61289" unicode="&#x2113;" horiz-adv-x="396" 
d="M306 96l-16 -90q-50 -18 -97 -18q-63 0 -101.5 34.5t-38.5 91.5q0 20 4 37l80 426q14 73 55 113.5t102 40.5q56 0 91.5 -38t35.5 -99q0 -89 -63 -176.5t-182 -163.5l-17 -92q-3 -16 -3 -30q0 -27 18 -43.5t48 -16.5q36 0 84 24zM347 584q0 29 -13 47t-34 18
q-23 0 -40 -21t-24 -59l-40 -211q151 107 151 226z" />
    <glyph glyph-name="numero" unicode="&#x2116;" horiz-adv-x="1092" 
d="M48 0l129 688h85l255 -521l97 521h98l-129 -688h-85l-255 521l-97 -521h-98zM765 252l11 59h288l-12 -59h-287zM805 499q0 86 50.5 141.5t130.5 55.5q59 0 96 -36.5t37 -94.5q0 -86 -51.5 -141.5t-130.5 -55.5q-59 0 -95.5 36t-36.5 95zM882 505q0 -34 17 -54t46 -20
q41 0 68.5 36.5t27.5 91.5q0 33 -17.5 53t-46.5 20q-40 0 -67.5 -36.5t-27.5 -90.5z" />
    <glyph glyph-name="uni2117" unicode="&#x2117;" horiz-adv-x="845" 
d="M81 344q0 158 100.5 259t258.5 101t259 -101t101 -259t-101 -259t-259 -101t-258.5 101t-100.5 259zM142 344q0 -131 83.5 -215t214.5 -84t215 84t84 215t-84 215t-215 84t-214.5 -84t-83.5 -215zM322 141v406h145q62 0 102 -36.5t40 -93.5q0 -58 -40 -94.5t-102 -36.5
h-68v-145h-77zM399 485v-136h57q33 0 53.5 19t20.5 49t-20.5 49t-53.5 19h-57z" />
    <glyph glyph-name="uni2120" unicode="&#x2120;" horiz-adv-x="854" 
d="M87 302v71q56 -36 113 -36q34 0 54.5 16t20.5 42q0 22 -20 36.5t-49 23.5t-58 20.5t-49 37t-20 64.5q0 52 40 85t105 33q52 0 110 -22v-71q-50 30 -104 30q-33 0 -53 -15t-20 -39q0 -22 20.5 -35.5t49.5 -22.5t57.5 -20.5t49 -37.5t20.5 -66q0 -54 -41.5 -87.5
t-106.5 -33.5q-60 0 -119 27zM444 282v406h68l130 -181l130 181h68v-406h-74v281l-101 -141h-47l-100 141v-281h-74z" />
    <glyph glyph-name="trademark" unicode="&#x2122;" horiz-adv-x="880" 
d="M188 282v342h-123v64h325v-64h-123v-342h-79zM470 282v406h67l130 -181l131 181h67v-406h-73v281l-101 -141h-47l-101 141v-281h-73z" />
    <glyph glyph-name="Omega" unicode="&#x2126;" horiz-adv-x="756" 
d="M-9 0l15 82h180q-100 134 -100 274q0 151 99 247.5t256 96.5q117 0 197 -74t80 -183q0 -200 -203 -361h172l-16 -82h-292l12 64q221 169 221 362q0 84 -50 135.5t-131 51.5q-110 0 -176 -76.5t-66 -201.5q0 -135 94 -271l-12 -64h-280z" />
    <glyph glyph-name="estimated" unicode="&#x212e;" horiz-adv-x="938" 
d="M113 344q0 148 114.5 252t276.5 104t276.5 -104t114.5 -252v-16h-641v-191q46 -55 111 -86t139 -31q76 0 142 32t111 89h68q-54 -71 -138.5 -112t-182.5 -41q-162 0 -276.5 104.5t-114.5 251.5zM254 551v-191h500v191q-45 55 -110.5 86.5t-139.5 31.5t-139 -31.5
t-111 -86.5z" />
    <glyph glyph-name="onethird" unicode="&#x2153;" horiz-adv-x="845" 
d="M167 282l61 320l-108 -46l13 72l139 60h50l-76 -406h-79zM75 0l642 688h87l-641 -688h-88zM601 176l12 61h20q37 0 60.5 18.5t23.5 46.5q0 21 -16 34t-41 13q-43 0 -94 -27l13 71q48 20 97 20q52 0 85 -27.5t33 -71.5q0 -37 -23.5 -67t-61.5 -42q29 -11 45 -33.5
t16 -51.5q0 -55 -44.5 -91t-111.5 -36q-61 0 -113 32l11 68q50 -36 100 -36q33 0 56 18.5t23 45.5q0 25 -19.5 40t-50.5 15h-20z" />
    <glyph glyph-name="twothirds" unicode="&#x2154;" horiz-adv-x="845" 
d="M43 282l10 52q216 145 216 235q0 27 -15.5 43t-42.5 16q-50 0 -100 -37l13 76q53 28 111 28q51 0 83 -30.5t32 -80.5q0 -100 -184 -237h146l-12 -65h-257zM75 0l642 688h87l-641 -688h-88zM601 176l12 61h20q37 0 60.5 18.5t23.5 46.5q0 21 -16 34t-41 13q-43 0 -94 -27
l13 71q48 20 97 20q52 0 85 -27.5t33 -71.5q0 -37 -23.5 -67t-61.5 -42q29 -11 45 -33.5t16 -51.5q0 -55 -44.5 -91t-111.5 -36q-61 0 -113 32l11 68q50 -36 100 -36q33 0 56 18.5t23 45.5q0 25 -19.5 40t-50.5 15h-20z" />
    <glyph glyph-name="uni2155" unicode="&#x2155;" horiz-adv-x="845" 
d="M167 282l61 320l-108 -46l13 72l139 60h50l-76 -406h-79zM75 0l642 688h87l-641 -688h-88zM806 406l-13 -65h-147l-16 -89q20 2 30 2q52 0 85 -31.5t33 -80.5q0 -66 -47.5 -107.5t-121.5 -41.5q-50 0 -101 28l13 69q46 -32 88 -32q39 0 64.5 21.5t25.5 54.5
q0 27 -21 44.5t-55 17.5t-73 -9l40 219h216z" />
    <glyph glyph-name="uni2156" unicode="&#x2156;" horiz-adv-x="845" 
d="M43 282l10 52q216 145 216 235q0 27 -15.5 43t-42.5 16q-50 0 -100 -37l13 76q53 28 111 28q51 0 83 -30.5t32 -80.5q0 -100 -184 -237h146l-12 -65h-257zM75 0l642 688h87l-641 -688h-88zM806 406l-13 -65h-147l-16 -89q20 2 30 2q52 0 85 -31.5t33 -80.5
q0 -66 -47.5 -107.5t-121.5 -41.5q-50 0 -101 28l13 69q46 -32 88 -32q39 0 64.5 21.5t25.5 54.5q0 27 -21 44.5t-55 17.5t-73 -9l40 219h216z" />
    <glyph glyph-name="uni2157" unicode="&#x2157;" horiz-adv-x="845" 
d="M154 458l12 61h20q37 0 60.5 18.5t23.5 46.5q0 21 -16 34t-41 13q-43 0 -94 -27l13 71q48 20 97 20q52 0 85 -27.5t33 -71.5q0 -37 -23.5 -67t-61.5 -42q29 -11 45 -33.5t16 -51.5q0 -55 -44.5 -91t-111.5 -36q-61 0 -113 32l11 68q50 -36 100 -36q33 0 56 18.5t23 45.5
q0 25 -19.5 40t-50.5 15h-20zM75 0l642 688h87l-641 -688h-88zM806 406l-13 -65h-147l-16 -89q20 2 30 2q52 0 85 -31.5t33 -80.5q0 -66 -47.5 -107.5t-121.5 -41.5q-50 0 -101 28l13 69q46 -32 88 -32q39 0 64.5 21.5t25.5 54.5q0 27 -21 44.5t-55 17.5t-73 -9l40 219h216z
" />
    <glyph glyph-name="uni2158" unicode="&#x2158;" horiz-adv-x="845" 
d="M197 282l19 100h-175l10 56l230 250h66l-46 -246h60l-11 -60h-61l-19 -100h-73zM126 442h101l25 137zM75 0l642 688h87l-641 -688h-88zM806 406l-13 -65h-147l-16 -89q20 2 30 2q52 0 85 -31.5t33 -80.5q0 -66 -47.5 -107.5t-121.5 -41.5q-50 0 -101 28l13 69
q46 -32 88 -32q39 0 64.5 21.5t25.5 54.5q0 27 -21 44.5t-55 17.5t-73 -9l40 219h216z" />
    <glyph glyph-name="uni2159" unicode="&#x2159;" horiz-adv-x="845" 
d="M167 282l61 320l-108 -46l13 72l139 60h50l-76 -406h-79zM75 0l642 688h87l-641 -688h-88zM687 406h106q-118 -78 -170 -159q31 16 64 16q47 0 79 -33t32 -82q0 -66 -46.5 -110.5t-114.5 -44.5q-55 0 -91 36.5t-36 94.5q0 72 46.5 146.5t130.5 135.5zM594 170
q-8 -22 -8 -44q0 -30 16.5 -49t43.5 -19q31 0 53.5 24t22.5 58q0 26 -16.5 42.5t-42.5 16.5q-35 0 -69 -29z" />
    <glyph glyph-name="uni215A" unicode="&#x215a;" horiz-adv-x="845" 
d="M358 688l-13 -65h-147l-16 -89q20 2 30 2q52 0 85 -31.5t33 -80.5q0 -66 -47.5 -107.5t-121.5 -41.5q-50 0 -101 28l13 69q46 -32 88 -32q39 0 64.5 21.5t25.5 54.5q0 27 -21 44.5t-55 17.5t-73 -9l40 219h216zM75 0l642 688h87l-641 -688h-88zM687 406h106
q-118 -78 -170 -159q31 16 64 16q47 0 79 -33t32 -82q0 -66 -46.5 -110.5t-114.5 -44.5q-55 0 -91 36.5t-36 94.5q0 72 46.5 146.5t130.5 135.5zM594 170q-8 -22 -8 -44q0 -30 16.5 -49t43.5 -19q31 0 53.5 24t22.5 58q0 26 -16.5 42.5t-42.5 16.5q-35 0 -69 -29z" />
    <glyph glyph-name="oneeighth" unicode="&#x215b;" horiz-adv-x="845" 
d="M167 282l61 320l-108 -46l13 72l139 60h50l-76 -406h-79zM75 0l642 688h87l-641 -688h-88zM548 287q0 54 42.5 90t106.5 36q52 0 85.5 -28.5t33.5 -71.5q0 -77 -78 -107q53 -24 53 -83q0 -56 -45.5 -93t-115.5 -37q-53 0 -89 29.5t-36 73.5q0 40 24 70.5t64 42.5
q-45 24 -45 78zM580 106q0 -23 16.5 -38t41.5 -15q34 0 55.5 20t21.5 52q0 23 -16 37.5t-41 14.5q-34 0 -56 -20t-22 -51zM621 285q0 -22 14.5 -36t37.5 -14q30 0 50 19.5t20 48.5q0 22 -15 36t-38 14q-29 0 -49 -19.5t-20 -48.5z" />
    <glyph glyph-name="threeeighths" unicode="&#x215c;" horiz-adv-x="845" 
d="M151 458l12 61h20q37 0 60.5 18.5t23.5 46.5q0 21 -16 34t-41 13q-43 0 -94 -27l13 71q48 20 97 20q52 0 85 -27.5t33 -71.5q0 -37 -23.5 -67t-61.5 -42q29 -11 45 -33.5t16 -51.5q0 -55 -44.5 -91t-111.5 -36q-61 0 -113 32l11 68q50 -36 100 -36q33 0 56 18.5t23 45.5
q0 25 -19.5 40t-50.5 15h-20zM75 0l642 688h87l-641 -688h-88zM548 287q0 54 42.5 90t106.5 36q52 0 85.5 -28.5t33.5 -71.5q0 -77 -78 -107q53 -24 53 -83q0 -56 -45.5 -93t-115.5 -37q-53 0 -89 29.5t-36 73.5q0 40 24 70.5t64 42.5q-45 24 -45 78zM580 106
q0 -23 16.5 -38t41.5 -15q34 0 55.5 20t21.5 52q0 23 -16 37.5t-41 14.5q-34 0 -56 -20t-22 -51zM621 285q0 -22 14.5 -36t37.5 -14q30 0 50 19.5t20 48.5q0 22 -15 36t-38 14q-29 0 -49 -19.5t-20 -48.5z" />
    <glyph glyph-name="fiveeighths" unicode="&#x215d;" horiz-adv-x="845" 
d="M358 688l-13 -65h-147l-16 -89q20 2 30 2q52 0 85 -31.5t33 -80.5q0 -66 -47.5 -107.5t-121.5 -41.5q-50 0 -101 28l13 69q46 -32 88 -32q39 0 64.5 21.5t25.5 54.5q0 27 -21 44.5t-55 17.5t-73 -9l40 219h216zM75 0l642 688h87l-641 -688h-88zM548 287q0 54 42.5 90
t106.5 36q52 0 85.5 -28.5t33.5 -71.5q0 -77 -78 -107q53 -24 53 -83q0 -56 -45.5 -93t-115.5 -37q-53 0 -89 29.5t-36 73.5q0 40 24 70.5t64 42.5q-45 24 -45 78zM580 106q0 -23 16.5 -38t41.5 -15q34 0 55.5 20t21.5 52q0 23 -16 37.5t-41 14.5q-34 0 -56 -20t-22 -51z
M621 285q0 -22 14.5 -36t37.5 -14q30 0 50 19.5t20 48.5q0 22 -15 36t-38 14q-29 0 -49 -19.5t-20 -48.5z" />
    <glyph glyph-name="seveneighths" unicode="&#x215e;" horiz-adv-x="845" 
d="M74 282l207 341h-177l13 65h265l-9 -49l-215 -357h-84zM75 0l642 688h87l-641 -688h-88zM548 287q0 54 42.5 90t106.5 36q52 0 85.5 -28.5t33.5 -71.5q0 -77 -78 -107q53 -24 53 -83q0 -56 -45.5 -93t-115.5 -37q-53 0 -89 29.5t-36 73.5q0 40 24 70.5t64 42.5
q-45 24 -45 78zM580 106q0 -23 16.5 -38t41.5 -15q34 0 55.5 20t21.5 52q0 23 -16 37.5t-41 14.5q-34 0 -56 -20t-22 -51zM621 285q0 -22 14.5 -36t37.5 -14q30 0 50 19.5t20 48.5q0 22 -15 36t-38 14q-29 0 -49 -19.5t-20 -48.5z" />
    <glyph glyph-name="uni215F" unicode="&#x215f;" horiz-adv-x="500" 
d="M167 282l61 320l-108 -46l13 72l139 60h50l-76 -406h-79zM75 0l642 688h87l-641 -688h-88z" />
    <glyph glyph-name="arrowleft" unicode="&#x2190;" horiz-adv-x="1000" 
d="M937 234h-690l234 -234h-136l-282 282l282 282h136l-234 -234h690v-96z" />
    <glyph glyph-name="arrowup" unicode="&#x2191;" horiz-adv-x="1000" 
d="M452 -155v690l-234 -234v136l282 282l282 -282v-136l-234 234v-690h-96z" />
    <glyph glyph-name="arrowright" unicode="&#x2192;" horiz-adv-x="1000" 
d="M63 330h690l-234 234h136l282 -282l-282 -282h-136l234 234h-690v96z" />
    <glyph glyph-name="arrowdown" unicode="&#x2193;" horiz-adv-x="1000" 
d="M548 719v-690l234 234v-136l-282 -282l-282 282v136l234 -234v690h96z" />
    <glyph glyph-name="uni2196" unicode="&#x2196;" horiz-adv-x="1000" 
d="M775 -61l-488 488v-331l-96 96v399h399l96 -96h-331l488 -488z" />
    <glyph glyph-name="uni2197" unicode="&#x2197;" horiz-adv-x="1000" 
d="M157 7l488 488h-331l96 96h399v-399l-96 -96v331l-488 -488z" />
    <glyph glyph-name="uni2198" unicode="&#x2198;" horiz-adv-x="1000" 
d="M225 625l488 -488v331l96 -96v-399h-399l-96 96h331l-488 488z" />
    <glyph glyph-name="uni2199" unicode="&#x2199;" horiz-adv-x="1000" 
d="M843 557l-488 -488h331l-96 -96h-399v399l96 96v-331l488 488z" />
    <glyph glyph-name="partialdiff" unicode="&#x2202;" horiz-adv-x="576" 
d="M60 255q0 113 65 185t167 72q83 0 142 -58q-12 90 -56.5 142.5t-109.5 52.5q-74 0 -147 -48v91q75 39 160 39q120 0 193.5 -104.5t73.5 -277.5q0 -161 -70.5 -261t-182.5 -100q-104 0 -169.5 74.5t-65.5 192.5zM162 252q0 -79 37 -129.5t97 -50.5q67 0 108 62.5t41 167.5
q0 28 -3 56q-62 70 -135 70q-64 0 -104.5 -49t-40.5 -127z" />
    <glyph glyph-name="Delta" unicode="&#x2206;" horiz-adv-x="631" 
d="M-9 0l12 59l357 629h84l125 -635l-9 -53h-569zM381 545l-256 -463h340z" />
    <glyph glyph-name="product" unicode="&#x220f;" horiz-adv-x="772" 
d="M110 -219v938h582v-938h-104v856h-375v-856h-103z" />
    <glyph glyph-name="summation" unicode="&#x2211;" horiz-adv-x="671" 
d="M67 -219v63l319 412l-304 400v63h526v-82h-394l266 -351v-60l-282 -363h426v-82h-557z" />
    <glyph glyph-name="minus" unicode="&#x2212;" 
d="M37 238v87h501v-87h-501z" />
    <glyph glyph-name="uni2215" unicode="&#x2215;" horiz-adv-x="156" 
d="M-269 0l642 688h87l-641 -688h-88z" />
    <glyph glyph-name="uni2219" unicode="&#x2219;" horiz-adv-x="250" 
d="M61 243q0 30 20 50t50 20q25 0 41 -16t16 -41q0 -29 -20 -49.5t-50 -20.5q-25 0 -41 16t-16 41z" />
    <glyph glyph-name="radical" unicode="&#x221a;" horiz-adv-x="688" 
d="M645 719l-235 -938h-92l-112 337l-157 -53v88l211 70l100 -300l199 796h86z" />
    <glyph glyph-name="infinity" unicode="&#x221e;" horiz-adv-x="803" 
d="M46 282q0 87 50.5 142.5t129.5 55.5q100 0 159 -93l22 -35l23 35q63 93 159 93q79 0 129.5 -55.5t50.5 -142.5q0 -88 -50.5 -143.5t-129.5 -55.5q-96 0 -159 93l-23 35l-22 -35q-59 -93 -159 -93q-79 0 -129.5 55.5t-50.5 143.5zM137 282q0 -52 26.5 -84t68.5 -32
q55 0 92 57l39 59l-39 58q-38 58 -92 58q-42 0 -68.5 -32.5t-26.5 -83.5zM678 282q0 51 -26.5 83.5t-68.5 32.5q-54 0 -92 -58l-39 -58l39 -59q37 -57 92 -57q42 0 68.5 32t26.5 84z" />
    <glyph glyph-name="integral" unicode="&#x222b;" horiz-adv-x="500" 
d="M292 451q0 -54 11 -195t11 -203q0 -136 -49.5 -210t-144.5 -74q-37 0 -76 17l15 82q28 -15 51 -15q99 0 99 196q0 54 -11.5 195t-11.5 203q0 135 50 209.5t144 74.5q37 0 77 -16l-15 -82q-26 14 -52 14q-98 0 -98 -196z" />
    <glyph glyph-name="approxequal" unicode="&#x2248;" 
d="M37 119v93q59 44 133 44q53 0 122 -29q67 -29 115 -29q68 0 131 50v-93q-61 -44 -133 -44q-54 0 -123 29q-67 29 -114 29q-68 0 -131 -50zM37 316v92q61 45 133 45q53 0 122 -29q67 -29 115 -29q68 0 131 50v-93q-59 -44 -133 -44q-58 0 -123 29q-67 29 -114 29
q-68 0 -131 -50z" />
    <glyph glyph-name="notequal" unicode="&#x2260;" 
d="M98 0l68 135h-129v87h172l60 119h-232v87h275l68 135h97l-68 -135h129v-87h-172l-60 -119h232v-87h-275l-68 -135h-97z" />
    <glyph glyph-name="lessequal" unicode="&#x2264;" 
d="M37 0v87h501v-87h-501zM538 137l-501 215v72l501 214v-94l-366 -156l366 -156v-95z" />
    <glyph glyph-name="greaterequal" unicode="&#x2265;" 
d="M37 0v87h501v-87h-501zM37 638l501 -214v-72l-501 -215v95l366 156l-366 156v94z" />
    <glyph glyph-name="lozenge" unicode="&#x25ca;" 
d="M259 0l-200 344l200 344h81l199 -344l-199 -344h-81zM299 583l-139 -239l139 -239l140 239z" />
    <glyph glyph-name="zero.lnum_pnum" unicode="&#xe010;" horiz-adv-x="609" 
d="M63 238q0 196 90 329t224 133q95 0 149.5 -66.5t54.5 -183.5q0 -196 -90 -329t-224 -133q-95 0 -149.5 66.5t-54.5 183.5zM166 250q0 -81 30 -128t80 -47q83 0 143 107t60 256q0 81 -30.5 128t-80.5 47q-83 0 -142.5 -107t-59.5 -256z" />
    <glyph glyph-name="one.lnum_pnum" unicode="&#xe011;" horiz-adv-x="403" 
d="M154 0l107 574l-189 -86l19 98l227 102h69l-129 -688h-104z" />
    <glyph glyph-name="two.lnum_pnum" unicode="&#xe012;" horiz-adv-x="503" 
d="M-19 0l14 73q388 270 388 430q0 49 -29 78.5t-78 29.5q-87 0 -177 -61l18 100q90 50 183 50q84 0 136.5 -48t52.5 -125q0 -96 -86.5 -203t-259.5 -237h278l-16 -87h-424z" />
    <glyph glyph-name="three.lnum_pnum" unicode="&#xe013;" horiz-adv-x="495" 
d="M164 309l16 81h36q70 0 116.5 37t46.5 93q0 42 -31.5 68.5t-79.5 26.5q-75 0 -160 -45l17 95q79 35 163 35t138.5 -46t54.5 -117q0 -65 -41.5 -117.5t-108.5 -71.5q49 -16 77.5 -56t28.5 -91q0 -93 -72.5 -153t-183.5 -60q-96 0 -189 55l17 91q86 -61 168 -61
q67 0 111.5 37t44.5 93q0 47 -38 76.5t-97 29.5h-34z" />
    <glyph glyph-name="four.lnum_pnum" unicode="&#xe014;" horiz-adv-x="561" 
d="M282 0l34 182h-305l14 74l396 432h88l-79 -427h105l-15 -79h-106l-34 -182h-98zM128 261h203l52 277z" />
    <glyph glyph-name="five.lnum_pnum" unicode="&#xe015;" horiz-adv-x="503" 
d="M504 688l-16 -87h-263l-35 -182q28 5 62 5q88 0 144.5 -53t56.5 -135q0 -109 -77.5 -178.5t-198.5 -69.5q-83 0 -169 49l18 93q79 -55 151 -55q73 0 122 42t49 107q0 55 -38.5 88.5t-101.5 33.5q-60 0 -125 -16l67 358h354z" />
    <glyph glyph-name="six.lnum_pnum" unicode="&#xe016;" horiz-adv-x="557" 
d="M357 688h145q-212 -140 -297 -285q60 36 125 36q79 0 132 -55t53 -137q0 -109 -76 -184t-186 -75q-91 0 -149 59t-58 155q0 125 81 252t230 234zM164 297q-18 -43 -18 -90q0 -59 32 -95.5t84 -36.5q62 0 107 47.5t45 114.5q0 51 -31.5 83.5t-81.5 32.5q-73 0 -137 -56z
" />
    <glyph glyph-name="seven.lnum_pnum" unicode="&#xe017;" horiz-adv-x="452" 
d="M13 0l368 601h-317l16 87h436l-13 -65l-377 -623h-113z" />
    <glyph glyph-name="eight.lnum_pnum" unicode="&#xe018;" horiz-adv-x="561" 
d="M110 490q0 89 70.5 149.5t174.5 60.5q83 0 137.5 -47t54.5 -119q0 -64 -37 -112t-104 -73q46 -19 72 -57t26 -86q0 -94 -74.5 -156t-188.5 -62q-86 0 -145.5 49.5t-59.5 121.5q0 69 42.5 122t115.5 74q-40 18 -62 54t-22 81zM137 173q0 -45 32 -74t81 -29q66 0 109.5 39
t43.5 98q0 45 -32.5 74t-82.5 29q-66 0 -108.5 -39t-42.5 -98zM208 488q0 -44 29 -71t75 -27q58 0 98 38t40 93q0 43 -29.5 70t-74.5 27q-59 0 -98.5 -37.5t-39.5 -92.5z" />
    <glyph glyph-name="nine.lnum_pnum" unicode="&#xe019;" horiz-adv-x="557" 
d="M235 0h-145q215 143 297 285q-57 -35 -125 -35q-79 0 -131.5 54.5t-52.5 136.5q0 109 75.5 184t185.5 75q91 0 149.5 -59t58.5 -155q0 -125 -81.5 -251.5t-230.5 -234.5zM428 392q18 42 18 89q0 59 -32 95.5t-84 36.5q-62 0 -107 -47.5t-45 -113.5q0 -51 32 -84t81 -33
q74 0 137 57z" />
    <glyph glyph-name="zero.onum_tnum" unicode="&#xe020;" 
d="M36 206q0 145 82.5 241.5t207.5 96.5q92 0 149 -60.5t57 -158.5q0 -145 -82.5 -241t-207.5 -96q-92 0 -149 60.5t-57 157.5zM138 216q0 -65 32 -104.5t84 -39.5q73 0 125 71.5t52 172.5q0 65 -32 104t-84 39q-73 0 -125 -71t-52 -172z" />
    <glyph glyph-name="one.onum_tnum" unicode="&#xe021;" 
d="M225 0l79 422l-151 -67l18 95l187 82h68l-100 -532h-101z" />
    <glyph glyph-name="two.onum_tnum" unicode="&#xe022;" 
d="M45 0l12 70q307 191 307 306q0 38 -21.5 60t-59.5 22q-64 0 -145 -52l18 97q79 41 152 41t117 -41t44 -109q0 -134 -255 -310h207l-16 -84h-360z" />
    <glyph glyph-name="three.onum_tnum" unicode="&#xe023;" 
d="M185 185l15 79h32q61 0 101 32t40 81q0 36 -26.5 59t-69.5 23q-69 0 -146 -41l17 93q77 33 150 33q78 0 127.5 -44t49.5 -111q0 -57 -36.5 -102.5t-96.5 -63.5q44 -16 69.5 -53.5t25.5 -86.5q0 -82 -67 -135.5t-169 -53.5q-86 0 -173 50l17 90q78 -56 153 -56
q58 0 96.5 32t38.5 81q0 41 -33.5 67.5t-85.5 26.5h-29z" />
    <glyph glyph-name="four.onum_tnum" unicode="&#xe024;" 
d="M254 -94l31 163h-275l13 72l358 391h88l-73 -386h96l-15 -77h-95l-31 -163h-97zM125 146h175l44 240z" />
    <glyph glyph-name="five.onum_tnum" unicode="&#xe025;" 
d="M491 532l-16 -86h-236l-29 -156q25 4 54 4q79 0 130.5 -48t51.5 -120q0 -103 -71 -167.5t-183 -64.5q-73 0 -155 45l17 92q72 -51 138 -51q64 0 107 37t43 94q0 47 -34 76.5t-89 29.5q-51 0 -115 -14l61 329h326z" />
    <glyph glyph-name="six.onum_tnum" unicode="&#xe026;" 
d="M339 626h142q-190 -126 -267 -255q52 30 109 30q73 0 121 -50t48 -125q0 -101 -69.5 -169.5t-171.5 -68.5q-83 0 -137.5 55t-54.5 143q0 113 73 227.5t207 212.5zM175 269q-16 -36 -16 -79q0 -51 28 -83.5t74 -32.5q54 0 93 41.5t39 99.5q0 45 -28 74t-71 29
q-62 0 -119 -49z" />
    <glyph glyph-name="seven.onum_tnum" unicode="&#xe027;" 
d="M62 -94l330 540h-286l17 86h402l-13 -65l-339 -561h-111z" />
    <glyph glyph-name="eight.onum_tnum" unicode="&#xe028;" 
d="M119 444q0 82 65 137.5t162 55.5q77 0 126.5 -43.5t49.5 -109.5q0 -57 -33 -100.5t-93 -66.5q41 -17 64 -51.5t23 -77.5q0 -86 -69 -143t-174 -57q-79 0 -133.5 46t-54.5 113q0 61 39 108.5t104 67.5q-35 17 -55.5 49t-20.5 72zM152 159q0 -39 28 -65t70 -26q57 0 95 35
t38 87q0 38 -27.5 63.5t-70.5 25.5q-57 0 -95 -34t-38 -86zM216 443q0 -38 25 -62t64 -24q52 0 86.5 33t34.5 82q0 37 -25 61t-65 24q-51 0 -85.5 -32.5t-34.5 -81.5z" />
    <glyph glyph-name="nine.onum_tnum" unicode="&#xe029;" 
d="M229 -94h-142q191 127 267 255q-52 -30 -109 -30q-73 0 -121 50t-48 125q0 100 69.5 169t171.5 69q83 0 137.5 -55t54.5 -143q0 -113 -73 -227.5t-207 -212.5zM393 263q16 36 16 79q0 51 -28 83.5t-74 32.5q-54 0 -93 -41.5t-39 -99.5q0 -45 28 -74t71 -29q62 0 119 49z
" />
    <glyph glyph-name="dollar.onum" unicode="&#xe02a;" 
d="M160 -164l25 139q-59 9 -121 43l17 89q80 -54 156 -54q47 0 77.5 24t30.5 62q0 29 -22.5 51t-54.5 38t-64.5 35t-55 51.5t-22.5 77.5q0 67 46 112t123 54l26 138h87l-26 -139q55 -9 110 -38l-18 -88q-77 48 -142 48q-46 0 -74.5 -23t-28.5 -59q0 -27 22.5 -48t54.5 -37
t64 -34.5t54.5 -52.5t22.5 -80q0 -70 -48 -116.5t-127 -54.5l-25 -138h-87z" />
    <glyph glyph-name="cent.onum" unicode="&#xe02b;" 
d="M206 -109l27 145q-61 17 -97.5 65.5t-36.5 115.5q0 113 61.5 191.5t159.5 92.5l27 140h86l-26 -142q47 -6 92 -34l-17 -86q-56 41 -116 41q-72 0 -117.5 -53.5t-45.5 -136.5q0 -54 31 -86.5t82 -32.5q60 0 123 36l-17 -91q-49 -22 -104 -27l-26 -138h-86z" />
    <glyph glyph-name="Euro.onum" unicode="&#xe02c;" 
d="M32 210l13 68h58q3 35 11 69h-56l13 69h64q40 101 115.5 161t169.5 60q77 0 150 -41l-16 -87q-59 44 -129 44q-58 0 -106 -36.5t-76 -100.5h200l-13 -69h-215q-7 -26 -11 -69h213l-13 -68h-196q7 -64 44.5 -101t96.5 -37q62 0 130 37l-17 -91q-69 -30 -136 -30
q-93 0 -155 62t-69 160h-70z" />
    <glyph glyph-name="sterling.onum" unicode="&#xe02d;" 
d="M28 0l12 65l103 213h-58l16 81h79l75 156q28 59 73 90.5t100 31.5q53 0 113 -29l-16 -84q-41 28 -82 28q-61 0 -91 -64l-61 -129h125l-16 -81h-148l-93 -195h305l-15 -83h-421z" />
    <glyph glyph-name="yen.onum" unicode="&#xe02e;" 
d="M183 0l24 126h-132l13 71h132l14 72h-132l13 71h106l-120 286h107l93 -241l182 241h122l-227 -286h109l-13 -71h-140l-13 -72h139l-13 -71h-140l-23 -126h-101z" />
    <glyph glyph-name="zero.onum_pnum" unicode="&#xe030;" horiz-adv-x="578" 
d="M44 206q0 145 82.5 241.5t207.5 96.5q92 0 149 -60.5t57 -158.5q0 -145 -82.5 -241t-207.5 -96q-92 0 -149 60.5t-57 157.5zM146 216q0 -65 32 -104.5t84 -39.5q73 0 125 71.5t52 172.5q0 65 -32 104t-84 39q-73 0 -125 -71t-52 -172z" />
    <glyph glyph-name="one.onum_pnum" unicode="&#xe031;" horiz-adv-x="341" 
d="M114 0l79 422l-151 -67l18 95l187 82h68l-100 -532h-101z" />
    <glyph glyph-name="two.onum_pnum" unicode="&#xe032;" horiz-adv-x="429" 
d="M-22 0l12 70q307 191 307 306q0 38 -21.5 60t-59.5 22q-64 0 -145 -52l18 97q79 41 152 41t117 -41t44 -109q0 -134 -255 -310h207l-16 -84h-360z" />
    <glyph glyph-name="three.onum_pnum" unicode="&#xe033;" horiz-adv-x="445" 
d="M126 185l15 79h32q61 0 101 32t40 81q0 36 -26.5 59t-69.5 23q-69 0 -146 -41l17 93q77 33 150 33q78 0 127.5 -44t49.5 -111q0 -57 -36.5 -102.5t-96.5 -63.5q44 -16 69.5 -53.5t25.5 -86.5q0 -82 -67 -135.5t-169 -53.5q-86 0 -173 50l17 90q78 -56 153 -56
q58 0 96.5 32t38.5 81q0 41 -33.5 67.5t-85.5 26.5h-29z" />
    <glyph glyph-name="four.onum_pnum" unicode="&#xe034;" horiz-adv-x="514" 
d="M230 -94l31 163h-275l13 72l358 391h88l-73 -386h96l-15 -77h-95l-31 -163h-97zM101 146h175l44 240z" />
    <glyph glyph-name="five.onum_pnum" unicode="&#xe035;" horiz-adv-x="444" 
d="M432 532l-16 -86h-236l-29 -156q25 4 54 4q79 0 130.5 -48t51.5 -120q0 -103 -71 -167.5t-183 -64.5q-73 0 -155 45l17 92q72 -51 138 -51q64 0 107 37t43 94q0 47 -34 76.5t-89 29.5q-51 0 -115 -14l61 329h326z" />
    <glyph glyph-name="six.onum_pnum" unicode="&#xe036;" horiz-adv-x="516" 
d="M316 626h142q-190 -126 -267 -255q52 30 109 30q73 0 121 -50t48 -125q0 -101 -69.5 -169.5t-171.5 -68.5q-83 0 -137.5 55t-54.5 143q0 113 73 227.5t207 212.5zM152 269q-16 -36 -16 -79q0 -51 28 -83.5t74 -32.5q54 0 93 41.5t39 99.5q0 45 -28 74t-71 29
q-62 0 -119 -49z" />
    <glyph glyph-name="seven.onum_pnum" unicode="&#xe037;" horiz-adv-x="413" 
d="M-13 -94l330 540h-286l17 86h402l-13 -65l-339 -561h-111z" />
    <glyph glyph-name="eight.onum_pnum" unicode="&#xe038;" horiz-adv-x="514" 
d="M95 444q0 82 65 137.5t162 55.5q77 0 126.5 -43.5t49.5 -109.5q0 -57 -33 -100.5t-93 -66.5q41 -17 64 -51.5t23 -77.5q0 -86 -69 -143t-174 -57q-79 0 -133.5 46t-54.5 113q0 61 39 108.5t104 67.5q-35 17 -55.5 49t-20.5 72zM128 159q0 -39 28 -65t70 -26q57 0 95 35
t38 87q0 38 -27.5 63.5t-70.5 25.5q-57 0 -95 -34t-38 -86zM192 443q0 -38 25 -62t64 -24q52 0 86.5 33t34.5 82q0 37 -25 61t-65 24q-51 0 -85.5 -32.5t-34.5 -81.5z" />
    <glyph glyph-name="nine.onum_pnum" unicode="&#xe039;" horiz-adv-x="516" 
d="M206 -94h-142q191 127 267 255q-53 -30 -109 -30q-73 0 -121 50t-48 125q0 100 69.5 169t171.5 69q83 0 137.5 -55t54.5 -143q0 -113 -73 -227.5t-207 -212.5zM370 263q16 36 16 79q0 51 -28 83.5t-74 32.5q-54 0 -93 -41.5t-39 -99.5q0 -45 28 -74t71 -29q62 0 119 49z
" />
    <glyph glyph-name="zero.numerator" unicode="&#xe040;" horiz-adv-x="374" 
d="M74 423q0 116 54.5 194t134.5 78q58 0 91 -39t33 -109q0 -116 -54.5 -194t-134.5 -78q-58 0 -91 39t-33 109zM151 429q0 -41 14.5 -65t39.5 -24q43 0 73.5 59t30.5 142q0 41 -14.5 65t-39.5 24q-43 0 -73.5 -59t-30.5 -142z" />
    <glyph glyph-name="one.numerator" unicode="&#xe041;" horiz-adv-x="259" 
d="M125 282l61 320l-108 -46l13 72l139 60h50l-76 -406h-79z" />
    <glyph glyph-name="two.numerator" unicode="&#xe042;" horiz-adv-x="311" 
d="M26 282l10 52q216 145 216 235q0 27 -15.5 43t-42.5 16q-50 0 -100 -37l13 76q53 28 111 28q51 0 83 -30.5t32 -80.5q0 -100 -184 -237h146l-12 -65h-257z" />
    <glyph glyph-name="three.numerator" unicode="&#xe043;" horiz-adv-x="307" 
d="M135 458l12 61h20q37 0 60.5 18.5t23.5 46.5q0 21 -16 34t-41 13q-43 0 -94 -27l13 71q48 20 97 20q52 0 85 -27.5t33 -71.5q0 -37 -23.5 -67t-61.5 -42q29 -11 45 -33.5t16 -51.5q0 -55 -44.5 -91t-111.5 -36q-61 0 -113 32l11 68q50 -36 100 -36q33 0 56 18.5t23 45.5
q0 25 -19.5 40t-50.5 15h-20z" />
    <glyph glyph-name="four.numerator" unicode="&#xe044;" horiz-adv-x="348" 
d="M199 282l19 100h-175l10 56l230 250h66l-46 -246h60l-11 -60h-61l-19 -100h-73zM128 442h101l25 137z" />
    <glyph glyph-name="five.numerator" unicode="&#xe045;" horiz-adv-x="312" 
d="M342 688l-13 -65h-147l-16 -89q20 2 30 2q52 0 85 -31.5t33 -80.5q0 -66 -47.5 -107.5t-121.5 -41.5q-50 0 -101 28l13 69q46 -32 88 -32q39 0 64.5 21.5t25.5 54.5q0 27 -21 44.5t-55 17.5t-73 -9l40 219h216z" />
    <glyph glyph-name="six.numerator" unicode="&#xe046;" horiz-adv-x="347" 
d="M241 688h106q-118 -78 -170 -159q31 16 64 16q47 0 79 -33t32 -82q0 -66 -46.5 -110.5t-114.5 -44.5q-55 0 -91 36.5t-36 94.5q0 72 46.5 146.5t130.5 135.5zM148 452q-8 -22 -8 -44q0 -30 16.5 -49t43.5 -19q31 0 53.5 24t22.5 58q0 26 -16.5 42.5t-42.5 16.5
q-35 0 -69 -29z" />
    <glyph glyph-name="seven.numerator" unicode="&#xe047;" horiz-adv-x="284" 
d="M43 282l207 341h-177l13 65h265l-9 -49l-215 -357h-84z" />
    <glyph glyph-name="eight.numerator" unicode="&#xe048;" horiz-adv-x="348" 
d="M102 569q0 54 42.5 90t106.5 36q52 0 85.5 -28.5t33.5 -71.5q0 -77 -78 -107q53 -24 53 -83q0 -56 -45.5 -93t-115.5 -37q-53 0 -89 29.5t-36 73.5q0 40 24 70.5t64 42.5q-45 24 -45 78zM134 388q0 -23 16.5 -38t41.5 -15q34 0 55.5 20t21.5 52q0 23 -16 37.5t-41 14.5
q-34 0 -56 -20t-22 -51zM175 567q0 -22 14.5 -36t37.5 -14q30 0 50 19.5t20 48.5q0 22 -15 36t-38 14q-29 0 -49 -19.5t-20 -48.5z" />
    <glyph glyph-name="nine.numerator" unicode="&#xe049;" horiz-adv-x="347" 
d="M194 282h-106q118 78 170 159q-31 -16 -64 -16q-47 0 -79 33t-32 82q0 66 46 110.5t114 44.5q55 0 91.5 -36.5t36.5 -94.5q0 -72 -46.5 -146.5t-130.5 -135.5zM287 518q8 22 8 44q0 30 -16.5 49t-42.5 19q-32 0 -54.5 -24t-22.5 -58q0 -26 16 -42.5t42 -16.5q38 0 70 29z
" />
    <glyph glyph-name="plus.numerator" unicode="&#xe04a;" horiz-adv-x="344" 
d="M69 452v66h115v115h66v-115h115v-66h-115v-115h-66v115h-115z" />
    <glyph glyph-name="minus.numerator" unicode="&#xe04b;" horiz-adv-x="344" 
d="M69 452v66h296v-66h-296z" />
    <glyph glyph-name="equal.numerator" unicode="&#xe04c;" horiz-adv-x="344" 
d="M69 390v65h296v-65h-296zM69 515v65h296v-65h-296z" />
    <glyph glyph-name="parenleft.numerator" unicode="&#xe04d;" horiz-adv-x="210" 
d="M79 433q0 181 136 311h88q-71 -61 -109.5 -140t-38.5 -166q0 -114 48 -212h-73q-51 100 -51 207z" />
    <glyph glyph-name="parenright.numerator" unicode="&#xe04e;" horiz-adv-x="210" 
d="M216 538q0 -181 -136 -312h-89q149 127 149 307q0 113 -48 211h73q51 -100 51 -206z" />
    <glyph glyph-name="zero.denominator" unicode="&#xe050;" horiz-adv-x="374" 
d="M21 141q0 116 54.5 194t134.5 78q58 0 91 -39t33 -109q0 -116 -54.5 -194t-134.5 -78q-58 0 -91 39t-33 109zM98 147q0 -41 14.5 -65t39.5 -24q43 0 73.5 59t30.5 142q0 41 -14.5 65t-39.5 24q-43 0 -73.5 -59t-30.5 -142z" />
    <glyph glyph-name="one.denominator" unicode="&#xe051;" horiz-adv-x="259" 
d="M72 0l61 320l-108 -46l13 72l139 60h50l-76 -406h-79z" />
    <glyph glyph-name="two.denominator" unicode="&#xe052;" horiz-adv-x="311" 
d="M-27 0l10 52q216 145 216 235q0 27 -15.5 43t-42.5 16q-50 0 -100 -37l13 76q53 28 111 28q51 0 83 -30.5t32 -80.5q0 -100 -184 -237h146l-12 -65h-257z" />
    <glyph glyph-name="three.denominator" unicode="&#xe053;" horiz-adv-x="307" 
d="M82 176l12 61h20q37 0 60.5 18.5t23.5 46.5q0 21 -16 34t-41 13q-43 0 -94 -27l13 71q48 20 97 20q52 0 85 -27.5t33 -71.5q0 -37 -23.5 -67t-61.5 -42q29 -11 45 -33.5t16 -51.5q0 -55 -44.5 -91t-111.5 -36q-61 0 -113 32l11 68q50 -36 100 -36q33 0 56 18.5t23 45.5
q0 25 -19.5 40t-50.5 15h-20z" />
    <glyph glyph-name="four.denominator" unicode="&#xe054;" horiz-adv-x="348" 
d="M146 0l19 100h-175l10 56l230 250h66l-46 -246h60l-11 -60h-61l-19 -100h-73zM75 160h101l25 137z" />
    <glyph glyph-name="five.denominator" unicode="&#xe055;" horiz-adv-x="312" 
d="M289 406l-13 -65h-147l-16 -89q20 2 30 2q52 0 85 -31.5t33 -80.5q0 -66 -47.5 -107.5t-121.5 -41.5q-50 0 -101 28l13 69q46 -32 88 -32q39 0 64.5 21.5t25.5 54.5q0 27 -21 44.5t-55 17.5t-73 -9l40 219h216z" />
    <glyph glyph-name="six.denominator" unicode="&#xe056;" horiz-adv-x="347" 
d="M188 406h106q-118 -78 -170 -159q31 16 64 16q47 0 79 -33t32 -82q0 -66 -46.5 -110.5t-114.5 -44.5q-55 0 -91 36.5t-36 94.5q0 72 46.5 146.5t130.5 135.5zM95 170q-8 -22 -8 -44q0 -30 16.5 -49t43.5 -19q31 0 53.5 24t22.5 58q0 26 -16.5 42.5t-42.5 16.5
q-35 0 -69 -29z" />
    <glyph glyph-name="seven.denominator" unicode="&#xe057;" horiz-adv-x="284" 
d="M-10 0l207 341h-177l13 65h265l-9 -49l-215 -357h-84z" />
    <glyph glyph-name="eight.denominator" unicode="&#xe058;" horiz-adv-x="348" 
d="M49 287q0 54 42.5 90t106.5 36q52 0 85.5 -28.5t33.5 -71.5q0 -77 -78 -107q53 -24 53 -83q0 -56 -45.5 -93t-115.5 -37q-53 0 -89 29.5t-36 73.5q0 40 24 70.5t64 42.5q-45 24 -45 78zM81 106q0 -23 16.5 -38t41.5 -15q34 0 55.5 20t21.5 52q0 23 -16 37.5t-41 14.5
q-34 0 -56 -20t-22 -51zM122 285q0 -22 14.5 -36t37.5 -14q30 0 50 19.5t20 48.5q0 22 -15 36t-38 14q-29 0 -49 -19.5t-20 -48.5z" />
    <glyph glyph-name="nine.denominator" unicode="&#xe059;" horiz-adv-x="347" 
d="M141 0h-106q118 78 170 159q-31 -16 -64 -16q-47 0 -79 33t-32 82q0 66 46 110.5t114 44.5q56 0 92 -36.5t36 -94.5q0 -72 -46.5 -146.5t-130.5 -135.5zM234 236q8 22 8 44q0 30 -16.5 49t-42.5 19q-32 0 -54.5 -24t-22.5 -58q0 -26 16 -42.5t42 -16.5q38 0 70 29z" />
    <glyph glyph-name="plus.denominator" unicode="&#xe05a;" horiz-adv-x="344" 
d="M16 170v66h115v115h66v-115h115v-66h-115v-115h-66v115h-115z" />
    <glyph glyph-name="minus.denominator" unicode="&#xe05b;" horiz-adv-x="344" 
d="M16 170v66h296v-66h-296z" />
    <glyph glyph-name="equal.denominator" unicode="&#xe05c;" horiz-adv-x="344" 
d="M16 108v65h296v-65h-296zM16 233v65h296v-65h-296z" />
    <glyph glyph-name="parenleft.denominator" unicode="&#xe05d;" horiz-adv-x="210" 
d="M26 151q0 181 136 311h88q-71 -61 -109.5 -140t-38.5 -166q0 -115 48 -212h-73q-51 100 -51 207z" />
    <glyph glyph-name="parenright.denominator" unicode="&#xe05e;" horiz-adv-x="210" 
d="M163 256q0 -181 -136 -312h-89q149 127 149 307q0 113 -48 211h73q51 -100 51 -206z" />
    <glyph glyph-name="period.superior" unicode="&#xe060;" horiz-adv-x="160" 
d="M70 441q0 22 14.5 36.5t36.5 14.5q18 0 29.5 -11.5t11.5 -29.5q0 -22 -14.5 -36.5t-36.5 -14.5q-19 0 -30 11t-11 30z" />
    <glyph glyph-name="comma.superior" unicode="&#xe061;" horiz-adv-x="160" 
d="M9 332l78 144h77l-88 -144h-67z" />
    <glyph glyph-name="period.inferior" unicode="&#xe062;" horiz-adv-x="160" 
d="M-30 -91q0 22 14.5 36.5t36.5 14.5q18 0 29.5 -11.5t11.5 -29.5q0 -22 -14.5 -36.5t-36.5 -14.5q-19 0 -30 11t-11 30z" />
    <glyph glyph-name="comma.inferior" unicode="&#xe063;" horiz-adv-x="160" 
d="M-91 -200l78 144h77l-88 -144h-67z" />
    <glyph glyph-name="period.numerator" unicode="&#xe064;" horiz-adv-x="160" 
d="M47 316q0 22 14.5 36.5t36.5 14.5q18 0 29.5 -11.5t11.5 -29.5q0 -22 -14.5 -36.5t-36.5 -14.5q-19 0 -30 11t-11 30z" />
    <glyph glyph-name="comma.numerator" unicode="&#xe065;" horiz-adv-x="160" 
d="M-14 207l78 144h77l-88 -144h-67z" />
    <glyph glyph-name="period.denominator" unicode="&#xe066;" horiz-adv-x="160" 
d="M-6 34q0 22 14.5 36.5t36.5 14.5q18 0 29.5 -11.5t11.5 -29.5q0 -22 -14.5 -36.5t-36.5 -14.5q-19 0 -30 11t-11 30z" />
    <glyph glyph-name="comma.denominator" unicode="&#xe067;" horiz-adv-x="160" 
d="M-67 -75l78 144h77l-88 -144h-67z" />
    <glyph glyph-name="onehalf.nut" unicode="&#xe080;" 
d="M295 438l61 320l-108 -46l13 72l139 60h50l-76 -406h-79zM51 312l12 64h483l-12 -64h-483zM68 -156l10 52q216 145 216 235q0 27 -15.5 43t-42.5 16q-50 0 -100 -37l13 76q53 28 111 28q51 0 83 -30.5t32 -80.5q0 -100 -184 -237h146l-12 -65h-257z" />
    <glyph glyph-name="onethird.nut" unicode="&#xe081;" 
d="M298 438l61 320l-108 -46l13 72l139 60h50l-76 -406h-79zM51 312l12 64h483l-12 -64h-483zM180 20l12 61h20q37 0 60.5 18.5t23.5 46.5q0 21 -16 34t-41 13q-43 0 -94 -27l13 71q48 20 97 20q52 0 85 -27.5t33 -71.5q0 -37 -23.5 -67t-61.5 -42q29 -11 45 -33.5t16 -51.5
q0 -55 -44.5 -91t-111.5 -36q-61 0 -113 32l11 68q50 -36 100 -36q33 0 56 18.5t23 45.5q0 25 -19.5 40t-50.5 15h-20z" />
    <glyph glyph-name="twothirds.nut" unicode="&#xe082;" 
d="M181 438l10 52q216 145 216 235q0 27 -15.5 43t-42.5 16q-50 0 -100 -37l13 76q53 28 111 28q51 0 83 -30.5t32 -80.5q0 -100 -184 -237h146l-12 -65h-257zM51 312l12 64h483l-12 -64h-483zM180 20l12 61h20q37 0 60.5 18.5t23.5 46.5q0 21 -16 34t-41 13q-43 0 -94 -27
l13 71q48 20 97 20q52 0 85 -27.5t33 -71.5q0 -37 -23.5 -67t-61.5 -42q29 -11 45 -33.5t16 -51.5q0 -55 -44.5 -91t-111.5 -36q-61 0 -113 32l11 68q50 -36 100 -36q33 0 56 18.5t23 45.5q0 25 -19.5 40t-50.5 15h-20z" />
    <glyph glyph-name="onequarter.nut" unicode="&#xe083;" 
d="M298 438l61 320l-108 -46l13 72l139 60h50l-76 -406h-79zM51 312l12 64h483l-12 -64h-483zM224 -156l19 100h-175l10 56l230 250h66l-46 -246h60l-11 -60h-61l-19 -100h-73zM153 4h101l25 137z" />
    <glyph glyph-name="quarter.nut" unicode="&#xe084;" 
d="M292 614l12 61h20q37 0 60.5 18.5t23.5 46.5q0 21 -16 34t-41 13q-43 0 -94 -27l13 71q48 20 97 20q52 0 85 -27.5t33 -71.5q0 -37 -23.5 -67t-61.5 -42q29 -11 45 -33.5t16 -51.5q0 -55 -44.5 -91t-111.5 -36q-61 0 -113 32l11 68q50 -36 100 -36q33 0 56 18.5t23 45.5
q0 25 -19.5 40t-50.5 15h-20zM51 312l12 64h483l-12 -64h-483zM224 -156l19 100h-175l10 56l230 250h66l-46 -246h60l-11 -60h-61l-19 -100h-73zM153 4h101l25 137z" />
    <glyph glyph-name="onefifth.nut" unicode="&#xe085;" 
d="M298 438l61 320l-108 -46l13 72l139 60h50l-76 -406h-79zM51 312l12 64h483l-12 -64h-483zM385 250l-13 -65h-147l-16 -89q20 2 30 2q52 0 85 -31.5t33 -80.5q0 -66 -47.5 -107.5t-121.5 -41.5q-50 0 -101 28l13 69q46 -32 88 -32q39 0 64.5 21.5t25.5 54.5
q0 27 -21 44.5t-55 17.5t-73 -9l40 219h216z" />
    <glyph glyph-name="twofifths.nut" unicode="&#xe086;" 
d="M181 438l10 52q216 145 216 235q0 27 -15.5 43t-42.5 16q-50 0 -100 -37l13 76q53 28 111 28q51 0 83 -30.5t32 -80.5q0 -100 -184 -237h146l-12 -65h-257zM51 312l12 64h483l-12 -64h-483zM385 250l-13 -65h-147l-16 -89q20 2 30 2q52 0 85 -31.5t33 -80.5
q0 -66 -47.5 -107.5t-121.5 -41.5q-50 0 -101 28l13 69q46 -32 88 -32q39 0 64.5 21.5t25.5 54.5q0 27 -21 44.5t-55 17.5t-73 -9l40 219h216z" />
    <glyph glyph-name="threefifths.nut" unicode="&#xe087;" 
d="M290 614l12 61h20q37 0 60.5 18.5t23.5 46.5q0 21 -16 34t-41 13q-43 0 -94 -27l13 71q48 20 97 20q52 0 85 -27.5t33 -71.5q0 -37 -23.5 -67t-61.5 -42q29 -11 45 -33.5t16 -51.5q0 -55 -44.5 -91t-111.5 -36q-61 0 -113 32l11 68q50 -36 100 -36q33 0 56 18.5t23 45.5
q0 25 -19.5 40t-50.5 15h-20zM51 312l12 64h483l-12 -64h-483zM385 250l-13 -65h-147l-16 -89q20 2 30 2q52 0 85 -31.5t33 -80.5q0 -66 -47.5 -107.5t-121.5 -41.5q-50 0 -101 28l13 69q46 -32 88 -32q39 0 64.5 21.5t25.5 54.5q0 27 -21 44.5t-55 17.5t-73 -9l40 219h216z
" />
    <glyph glyph-name="fourfifths.nut" unicode="&#xe088;" 
d="M336 438l19 100h-175l10 56l230 250h66l-46 -246h60l-11 -60h-61l-19 -100h-73zM265 598h101l25 137zM51 312l12 64h483l-12 -64h-483zM385 250l-13 -65h-147l-16 -89q20 2 30 2q52 0 85 -31.5t33 -80.5q0 -66 -47.5 -107.5t-121.5 -41.5q-50 0 -101 28l13 69
q46 -32 88 -32q39 0 64.5 21.5t25.5 54.5q0 27 -21 44.5t-55 17.5t-73 -9l40 219h216z" />
    <glyph glyph-name="onesixth.nut" unicode="&#xe089;" 
d="M298 438l61 320l-108 -46l13 72l139 60h50l-76 -406h-79zM51 312l12 64h483l-12 -64h-483zM266 250h106q-118 -78 -170 -159q31 16 64 16q47 0 79 -33t32 -82q0 -66 -46.5 -110.5t-114.5 -44.5q-55 0 -91 36.5t-36 94.5q0 72 46.5 146.5t130.5 135.5zM173 14
q-8 -22 -8 -44q0 -30 16.5 -49t43.5 -19q31 0 53.5 24t22.5 58q0 26 -16.5 42.5t-42.5 16.5q-35 0 -69 -29z" />
    <glyph glyph-name="fivesixths.nut" unicode="&#xe08a;" 
d="M497 844l-13 -65h-147l-16 -89q20 2 30 2q52 0 85 -31.5t33 -80.5q0 -66 -47.5 -107.5t-121.5 -41.5q-50 0 -101 28l13 69q46 -32 88 -32q39 0 64.5 21.5t25.5 54.5q0 27 -21 44.5t-55 17.5t-73 -9l40 219h216zM51 312l12 64h483l-12 -64h-483zM266 250h106
q-118 -78 -170 -159q31 16 64 16q47 0 79 -33t32 -82q0 -66 -46.5 -110.5t-114.5 -44.5q-55 0 -91 36.5t-36 94.5q0 72 46.5 146.5t130.5 135.5zM173 14q-8 -22 -8 -44q0 -30 16.5 -49t43.5 -19q31 0 53.5 24t22.5 58q0 26 -16.5 42.5t-42.5 16.5q-35 0 -69 -29z" />
    <glyph glyph-name="oneeighth.nut" unicode="&#xe08b;" 
d="M298 438l61 320l-108 -46l13 72l139 60h50l-76 -406h-79zM51 312l12 64h483l-12 -64h-483zM127 131q0 54 42.5 90t106.5 36q52 0 85.5 -28.5t33.5 -71.5q0 -77 -78 -107q53 -24 53 -83q0 -56 -45.5 -93t-115.5 -37q-53 0 -89 29.5t-36 73.5q0 40 24 70.5t64 42.5
q-45 24 -45 78zM159 -50q0 -23 16.5 -38t41.5 -15q34 0 55.5 20t21.5 52q0 23 -16 37.5t-41 14.5q-34 0 -56 -20t-22 -51zM200 129q0 -22 14.5 -36t37.5 -14q30 0 50 19.5t20 48.5q0 22 -15 36t-38 14q-29 0 -49 -19.5t-20 -48.5z" />
    <glyph glyph-name="threeeighths.nut" unicode="&#xe08c;" 
d="M290 614l12 61h20q37 0 60.5 18.5t23.5 46.5q0 21 -16 34t-41 13q-43 0 -94 -27l13 71q48 20 97 20q52 0 85 -27.5t33 -71.5q0 -37 -23.5 -67t-61.5 -42q29 -11 45 -33.5t16 -51.5q0 -55 -44.5 -91t-111.5 -36q-61 0 -113 32l11 68q50 -36 100 -36q33 0 56 18.5t23 45.5
q0 25 -19.5 40t-50.5 15h-20zM51 312l12 64h483l-12 -64h-483zM127 131q0 54 42.5 90t106.5 36q52 0 85.5 -28.5t33.5 -71.5q0 -77 -78 -107q53 -24 53 -83q0 -56 -45.5 -93t-115.5 -37q-53 0 -89 29.5t-36 73.5q0 40 24 70.5t64 42.5q-45 24 -45 78zM159 -50
q0 -23 16.5 -38t41.5 -15q34 0 55.5 20t21.5 52q0 23 -16 37.5t-41 14.5q-34 0 -56 -20t-22 -51zM200 129q0 -22 14.5 -36t37.5 -14q30 0 50 19.5t20 48.5q0 22 -15 36t-38 14q-29 0 -49 -19.5t-20 -48.5z" />
    <glyph glyph-name="fiveeighths.nut" unicode="&#xe08d;" 
d="M497 844l-13 -65h-147l-16 -89q20 2 30 2q52 0 85 -31.5t33 -80.5q0 -66 -47.5 -107.5t-121.5 -41.5q-50 0 -101 28l13 69q46 -32 88 -32q39 0 64.5 21.5t25.5 54.5q0 27 -21 44.5t-55 17.5t-73 -9l40 219h216zM51 312l12 64h483l-12 -64h-483zM127 131q0 54 42.5 90
t106.5 36q52 0 85.5 -28.5t33.5 -71.5q0 -77 -78 -107q53 -24 53 -83q0 -56 -45.5 -93t-115.5 -37q-53 0 -89 29.5t-36 73.5q0 40 24 70.5t64 42.5q-45 24 -45 78zM159 -50q0 -23 16.5 -38t41.5 -15q34 0 55.5 20t21.5 52q0 23 -16 37.5t-41 14.5q-34 0 -56 -20t-22 -51z
M200 129q0 -22 14.5 -36t37.5 -14q30 0 50 19.5t20 48.5q0 22 -15 36t-38 14q-29 0 -49 -19.5t-20 -48.5z" />
    <glyph glyph-name="seveneighths.nut" unicode="&#xe08e;" 
d="M212 438l207 341h-177l13 65h265l-9 -49l-215 -357h-84zM51 312l12 64h483l-12 -64h-483zM127 131q0 54 42.5 90t106.5 36q52 0 85.5 -28.5t33.5 -71.5q0 -77 -78 -107q53 -24 53 -83q0 -56 -45.5 -93t-115.5 -37q-53 0 -89 29.5t-36 73.5q0 40 24 70.5t64 42.5
q-45 24 -45 78zM159 -50q0 -23 16.5 -38t41.5 -15q34 0 55.5 20t21.5 52q0 23 -16 37.5t-41 14.5q-34 0 -56 -20t-22 -51zM200 129q0 -22 14.5 -36t37.5 -14q30 0 50 19.5t20 48.5q0 22 -15 36t-38 14q-29 0 -49 -19.5t-20 -48.5z" />
    <glyph glyph-name="fractionone.nut" unicode="&#xe08f;" 
d="M298 438l61 320l-108 -46l13 72l139 60h50l-76 -406h-79zM51 312l12 64h483l-12 -64h-483z" />
    <glyph glyph-name="A.superior" unicode="&#xe100;" horiz-adv-x="392" 
d="M16 282l231 406h65l79 -406h-72l-17 96h-152l-52 -96h-82zM266 590l-84 -153h110z" />
    <glyph glyph-name="B.superior" unicode="&#xe101;" horiz-adv-x="376" 
d="M173 459l-23 -117h66q33 0 55 19t22 49q0 23 -15.5 36t-42.5 13h-62zM64 282l76 406h137q51 0 81.5 -25.5t30.5 -68.5q0 -35 -20 -64t-53 -42q25 -10 39.5 -31t14.5 -48q0 -55 -44 -91t-110 -36h-152zM204 627l-21 -109h59q31 0 51 18t20 46q0 21 -14 33t-39 12h-56z" />
    <glyph glyph-name="C.superior" unicode="&#xe102;" horiz-adv-x="375" 
d="M72 440q0 112 64.5 183.5t163.5 71.5q60 0 119 -35l-13 -67q-50 36 -101 36q-67 0 -110 -50t-43 -129q0 -49 29.5 -79.5t76.5 -30.5q53 0 107 32l-13 -72q-54 -25 -114 -25q-73 0 -119.5 46.5t-46.5 118.5z" />
    <glyph glyph-name="D.superior" unicode="&#xe103;" horiz-adv-x="429" 
d="M64 282l76 406h134q76 0 123 -44t47 -114q0 -113 -63 -180.5t-169 -67.5h-148zM207 624l-52 -278h62q65 0 106 49.5t41 127.5q0 47 -27.5 74t-75.5 27h-54z" />
    <glyph glyph-name="E.superior" unicode="&#xe104;" horiz-adv-x="340" 
d="M64 282l76 406h243l-12 -64h-164l-20 -104h141l-12 -63h-141l-20 -111h168l-12 -64h-247z" />
    <glyph glyph-name="F.superior" unicode="&#xe105;" horiz-adv-x="326" 
d="M64 282l76 406h243l-12 -64h-164l-22 -117h140l-12 -65h-140l-30 -160h-79z" />
    <glyph glyph-name="G.superior" unicode="&#xe106;" horiz-adv-x="417" 
d="M420 501l-37 -198q-69 -28 -139 -28q-75 0 -123.5 46.5t-48.5 118.5q0 112 65.5 183.5t167.5 71.5q65 0 127 -39l-12 -69q-54 42 -111 42q-69 0 -113.5 -50t-44.5 -129q0 -49 29 -79.5t76 -30.5q30 0 62 12l17 90h-81l10 59h156z" />
    <glyph glyph-name="H.superior" unicode="&#xe107;" horiz-adv-x="447" 
d="M64 282l76 406h79l-32 -168h173l31 168h79l-77 -406h-78l33 174h-173l-32 -174h-79z" />
    <glyph glyph-name="I.superior" unicode="&#xe108;" horiz-adv-x="196" 
d="M64 282l76 406h79l-76 -406h-79z" />
    <glyph glyph-name="J.superior" unicode="&#xe109;" horiz-adv-x="293" 
d="M318 688l-56 -303q-10 -51 -45.5 -80.5t-87.5 -29.5q-45 0 -92 24l12 64q35 -23 69 -23q26 0 44.5 16t23.5 42l54 290h78z" />
    <glyph glyph-name="K.superior" unicode="&#xe10a;" horiz-adv-x="388" 
d="M64 282l76 406h77l-31 -166l174 166h98l-215 -203l145 -203h-89l-125 178l-33 -178h-77z" />
    <glyph glyph-name="L.superior" unicode="&#xe10b;" horiz-adv-x="312" 
d="M64 282l76 406h79l-64 -341h158l-13 -65h-236z" />
    <glyph glyph-name="M.superior" unicode="&#xe10c;" horiz-adv-x="499" 
d="M64 282l76 406h65l88 -179l155 179h74l-76 -406h-74l53 281l-120 -141h-45l-70 142l-53 -282h-73z" />
    <glyph glyph-name="N.superior" unicode="&#xe10d;" horiz-adv-x="447" 
d="M64 282l76 406h64l140 -282l53 282h73l-77 -406h-64l-139 282l-53 -282h-73z" />
    <glyph glyph-name="O.superior" unicode="&#xe10e;" horiz-adv-x="447" 
d="M72 440q0 112 64 183.5t162 71.5q74 0 119 -45.5t45 -119.5q0 -112 -64 -183.5t-162 -71.5q-74 0 -119 45.5t-45 119.5zM153 446q0 -48 24.5 -77t65.5 -29q58 0 98.5 53.5t40.5 129.5q0 49 -25 77.5t-66 28.5q-58 0 -98 -53t-40 -130z" />
    <glyph glyph-name="P.superior" unicode="&#xe10f;" horiz-adv-x="367" 
d="M64 282l76 406h134q56 0 90 -30t34 -81q0 -64 -48.5 -107t-121.5 -43h-60l-27 -145h-77zM206 626l-26 -137h50q39 0 64 22.5t25 57.5q0 27 -17.5 42t-48.5 15h-47z" />
    <glyph glyph-name="Q.superior" unicode="&#xe110;" horiz-adv-x="447" 
d="M153 446q0 -48 24.5 -77t65.5 -29q58 0 98.5 53.5t40.5 129.5q0 49 -25 77.5t-66 28.5q-58 0 -98 -53t-40 -130zM72 440q0 112 64 183.5t162 71.5q74 0 119 -45.5t45 -119.5q0 -73 -29 -131t-79 -91l62 -87h-83l-43 61q-24 -7 -54 -7q-74 0 -119 45.5t-45 119.5z" />
    <glyph glyph-name="R.superior" unicode="&#xe111;" horiz-adv-x="373" 
d="M274 282l-59 150h-46l-28 -150h-77l76 406h131q56 0 89 -29.5t33 -79.5q0 -47 -28.5 -84.5t-75.5 -51.5l66 -161h-81zM206 626l-25 -133h47q38 0 62 22.5t24 55.5q0 26 -17 40.5t-47 14.5h-44z" />
    <glyph glyph-name="S.superior" unicode="&#xe112;" horiz-adv-x="335" 
d="M53 309l12 67q59 -39 111 -39q33 0 53.5 16.5t20.5 42.5q0 24 -24 42t-53 29.5t-53 38.5t-24 67q0 53 41.5 87.5t107.5 34.5q57 0 115 -31l-13 -66q-52 34 -102 34q-32 0 -51.5 -15t-19.5 -40q0 -19 16 -33t38 -25t44.5 -24t38.5 -37t16 -57q0 -56 -41.5 -91t-109.5 -35
q-60 0 -123 34z" />
    <glyph glyph-name="T.superior" unicode="&#xe113;" horiz-adv-x="358" 
d="M145 282l64 342h-119l12 64h317l-12 -64h-120l-64 -342h-78z" />
    <glyph glyph-name="U.superior" unicode="&#xe114;" horiz-adv-x="447" 
d="M472 688l-50 -266q-13 -68 -62.5 -107.5t-123.5 -39.5q-65 0 -106 36t-41 93q0 21 4 38l45 246h79l-46 -246q-3 -14 -3 -27q0 -33 20.5 -54t54.5 -21q40 0 67 24.5t35 66.5l49 257h78z" />
    <glyph glyph-name="V.superior" unicode="&#xe115;" horiz-adv-x="392" 
d="M462 688l-230 -406h-65l-79 406h75l52 -301l164 301h83z" />
    <glyph glyph-name="W.superior" unicode="&#xe116;" horiz-adv-x="614" 
d="M682 688l-212 -406h-69l-34 309l-150 -309h-69l-57 406h73l35 -309l148 309h70l34 -309l149 309h82z" />
    <glyph glyph-name="X.superior" unicode="&#xe117;" horiz-adv-x="398" 
d="M15 282l180 209l-97 197h82l69 -144l115 144h91l-170 -203l101 -203h-85l-69 151l-124 -151h-93z" />
    <glyph glyph-name="Y.superior" unicode="&#xe118;" horiz-adv-x="370" 
d="M148 282l32 172l-95 234h82l62 -167l123 167h93l-188 -241l-31 -165h-78z" />
    <glyph glyph-name="Z.superior" unicode="&#xe119;" horiz-adv-x="379" 
d="M35 282l9 52l264 290h-198l12 64h299l-10 -52l-264 -290h213l-11 -64h-314z" />
    <glyph glyph-name="ordfeminine.cap" unicode="&#xe11a;" horiz-adv-x="423" 
d="M7 158l11 60h374l-11 -60h-374zM32 282l230 406h65l80 -406h-72l-17 96h-153l-52 -96h-81zM282 590l-84 -153h110z" />
    <glyph glyph-name="ordmasculine.cap" unicode="&#xe11b;" horiz-adv-x="447" 
d="M23 158l11 60h367l-12 -60h-366zM72 440q0 112 64 183.5t162 71.5q74 0 119 -45.5t45 -119.5q0 -112 -64 -183.5t-162 -71.5q-74 0 -119 45.5t-45 119.5zM153 446q0 -48 24.5 -77t65.5 -29q58 0 98.5 53.5t40.5 129.5q0 49 -25 77.5t-66 28.5q-58 0 -98 -53t-40 -130z
" />
    <glyph glyph-name="registered.superior" unicode="&#xe11c;" horiz-adv-x="500" 
d="M79 485q0 95 60.5 155t154.5 60t154.5 -60t60.5 -155t-60.5 -155t-154.5 -60t-154.5 60t-60.5 155zM121 485q0 -76 48.5 -124.5t124.5 -48.5q77 0 125.5 48.5t48.5 124.5t-49 124.5t-125 48.5t-124.5 -48.5t-48.5 -124.5zM265 565v-74h30q18 0 29 10t11 27q0 16 -11 26.5
t-29 10.5h-30zM219 368v234h83q36 0 58.5 -21t22.5 -53q0 -49 -46 -68l54 -92h-51l-49 85h-26v-85h-46z" />
    <glyph glyph-name="a.superior" unicode="&#xe120;" horiz-adv-x="368" 
d="M381 594l-58 -312h-73l4 21q-38 -29 -80 -29q-50 0 -81 35.5t-31 91.5q0 86 45.5 143.5t115.5 57.5q41 0 79 -30l4 22h75zM139 410q0 -34 16 -53t45 -19q33 0 63 32l27 142q-25 25 -58 25q-40 0 -66.5 -36t-26.5 -91z" />
    <glyph glyph-name="b.superior" unicode="&#xe121;" horiz-adv-x="368" 
d="M57 282l84 449h75l-30 -157q39 28 78 28q50 0 81 -35.5t31 -91.5q0 -86 -46 -143.5t-115 -57.5q-41 0 -79 29l-4 -21h-75zM299 466q0 33 -16.5 52t-44.5 19q-31 0 -64 -31l-26 -142q28 -26 57 -26q40 0 67 36.5t27 91.5z" />
    <glyph glyph-name="c.superior" unicode="&#xe122;" horiz-adv-x="309" 
d="M62 405q0 86 51 141.5t130 55.5q46 0 95 -27l-12 -65q-38 28 -78 28q-47 0 -78 -35t-31 -89q0 -34 21 -55t54 -21q43 0 84 24l-12 -68q-46 -20 -91 -20q-59 0 -96 36.5t-37 94.5z" />
    <glyph glyph-name="d.superior" unicode="&#xe123;" horiz-adv-x="368" 
d="M407 731l-84 -449h-73l4 21q-38 -29 -80 -29q-50 0 -81 35.5t-31 91.5q0 86 45.5 143.5t115.5 57.5q41 0 79 -30l30 159h75zM139 410q0 -34 16 -53t45 -19q33 0 63 32l27 142q-25 25 -58 25q-40 0 -66.5 -36t-26.5 -91z" />
    <glyph glyph-name="e.superior" unicode="&#xe124;" horiz-adv-x="335" 
d="M62 404q0 87 48 142.5t124 55.5q50 0 82.5 -33.5t32.5 -85.5q0 -28 -8 -65h-205q-1 -5 -1 -13q0 -34 21.5 -53.5t57.5 -19.5q45 0 96 30l-12 -66q-52 -22 -103 -22q-58 0 -95.5 37t-37.5 93zM144 466h133q2 8 2 20q0 26 -14 42t-37 16q-30 0 -53 -21t-31 -57z" />
    <glyph glyph-name="f.superior" unicode="&#xe125;" horiz-adv-x="245" 
d="M61 194l64 339h-55l12 61h54l10 53q7 43 36 67.5t72 24.5q35 0 74 -18l-12 -60q-26 14 -49 14q-40 0 -48 -40l-7 -41h81l-11 -61h-82l-64 -339h-75z" />
    <glyph glyph-name="g.superior" unicode="&#xe126;" horiz-adv-x="368" 
d="M381 594l-60 -320q-12 -63 -56 -100t-108 -37q-59 0 -115 30l12 63q53 -33 103 -33q33 0 56.5 21t31.5 55l6 28q-38 -27 -77 -27q-50 0 -81 35.5t-31 91.5q0 86 45.5 143.5t115.5 57.5q41 0 79 -30l4 22h75zM139 410q0 -34 16 -53t45 -19q33 0 63 32l27 142
q-25 25 -58 25q-40 0 -66.5 -36t-26.5 -91z" />
    <glyph glyph-name="h.superior" unicode="&#xe127;" horiz-adv-x="368" 
d="M57 282l84 449h75l-30 -162q44 33 88 33q40 0 66 -25.5t26 -65.5q0 -10 -4 -34l-37 -195h-76l36 190q2 6 2 20q0 20 -12 31.5t-33 11.5q-35 0 -69 -34l-41 -219h-75z" />
    <glyph glyph-name="i.superior" unicode="&#xe128;" horiz-adv-x="176" 
d="M57 282l58 312h76l-59 -312h-75zM125 676q0 21 14 34.5t34 13.5q17 0 27.5 -11t10.5 -27q0 -21 -13.5 -34.5t-34.5 -13.5q-17 0 -27.5 11t-10.5 27z" />
    <glyph glyph-name="j.superior" unicode="&#xe129;" horiz-adv-x="176" 
d="M191 594l-69 -366q-8 -43 -36.5 -67t-71.5 -24q-34 0 -73 17l11 61q25 -14 49 -14q39 0 47 40l67 353h76zM125 676q0 21 14 34.5t34 13.5q17 0 27.5 -11t10.5 -27q0 -21 -13.5 -34.5t-34.5 -13.5q-17 0 -27.5 11t-10.5 27z" />
    <glyph glyph-name="k.superior" unicode="&#xe12a;" horiz-adv-x="326" 
d="M57 282l84 449h74l-48 -255l119 118h91l-158 -156l104 -156h-84l-84 129l-25 -129h-73z" />
    <glyph glyph-name="l.superior" unicode="&#xe12b;" horiz-adv-x="176" 
d="M57 282l84 449h75l-84 -449h-75z" />
    <glyph glyph-name="m.superior" unicode="&#xe12c;" horiz-adv-x="545" 
d="M57 282l58 312h72l-4 -26q43 34 87 34q54 0 80 -47q52 47 106 47q37 0 62.5 -25.5t25.5 -62.5q0 -17 -3 -32l-38 -200h-76l37 194q2 10 2 18q0 18 -11.5 29.5t-30.5 11.5q-31 0 -65 -31l-41 -222h-76l36 194q2 10 2 18q0 18 -11.5 29.5t-30.5 11.5q-31 0 -64 -31
l-42 -222h-75z" />
    <glyph glyph-name="n.superior" unicode="&#xe12d;" horiz-adv-x="368" 
d="M57 282l58 312h72l-5 -28q49 36 92 36q40 0 66 -25.5t26 -65.5q0 -12 -4 -34l-37 -195h-76l36 190q2 6 2 20q0 20 -12.5 31.5t-32.5 11.5q-33 0 -69 -34l-41 -219h-75z" />
    <glyph glyph-name="o.superior" unicode="&#xe12e;" horiz-adv-x="368" 
d="M62 405q0 86 51 141.5t130 55.5q59 0 96 -36.5t37 -94.5q0 -86 -51.5 -141.5t-130.5 -55.5q-58 0 -95 36.5t-37 94.5zM139 411q0 -33 17.5 -53t46.5 -20q40 0 67.5 36.5t27.5 90.5q0 33 -17.5 53t-45.5 20q-41 0 -68.5 -36.5t-27.5 -90.5z" />
    <glyph glyph-name="p.superior" unicode="&#xe12f;" horiz-adv-x="368" 
d="M31 145l84 449h72l-4 -22q39 30 81 30q50 0 81 -35.5t31 -91.5q0 -86 -46 -143.5t-115 -57.5q-41 0 -79 29l-30 -158h-75zM299 466q0 33 -16.5 52t-44.5 19q-31 0 -64 -31l-26 -142q28 -26 57 -26q40 0 67 36.5t27 91.5z" />
    <glyph glyph-name="q.superior" unicode="&#xe130;" horiz-adv-x="368" 
d="M381 594l-84 -449h-76l30 156q-38 -27 -77 -27q-50 0 -81 35.5t-31 91.5q0 86 45.5 143.5t115.5 57.5q41 0 79 -30l4 22h75zM139 410q0 -34 16 -53t45 -19q33 0 63 32l27 142q-25 25 -58 25q-40 0 -66.5 -36t-26.5 -91z" />
    <glyph glyph-name="r.superior" unicode="&#xe131;" horiz-adv-x="254" 
d="M57 282l58 312h72l-5 -30q43 38 82 38q15 0 31 -7l-12 -67q-17 7 -29 7q-43 0 -82 -41l-40 -212h-75z" />
    <glyph glyph-name="s.superior" unicode="&#xe132;" horiz-adv-x="278" 
d="M47 301l13 64q45 -31 87 -31q21 0 34.5 10.5t13.5 26.5t-18 29t-39.5 21.5t-39.5 30t-18 51.5q0 44 33.5 71.5t88.5 27.5q46 0 92 -24l-12 -63q-42 27 -80 27q-21 0 -33.5 -9.5t-12.5 -25.5q0 -15 18 -27.5t39.5 -21t39.5 -30.5t18 -53q0 -46 -34 -73.5t-90 -27.5
q-49 0 -100 27z" />
    <glyph glyph-name="t.superior" unicode="&#xe133;" horiz-adv-x="270" 
d="M228 682l-16 -88h92l-11 -61h-93l-27 -144q-1 -6 -1 -19q0 -32 36 -32q24 0 51 12l-12 -65q-31 -11 -62 -11q-41 0 -66 22.5t-25 59.5q0 8 2 24l29 153h-55l12 61h54l17 88h75z" />
    <glyph glyph-name="u.superior" unicode="&#xe134;" horiz-adv-x="368" 
d="M381 594l-58 -312h-73l5 28q-43 -36 -92 -36q-39 0 -65 25.5t-26 65.5q0 12 4 34l37 195h75l-35 -190q-3 -18 -3 -20q0 -20 12.5 -32t32.5 -12q36 0 69 35l42 219h75z" />
    <glyph glyph-name="v.superior" unicode="&#xe135;" horiz-adv-x="324" 
d="M376 594l-177 -312h-64l-60 312h72l35 -212l112 212h82z" />
    <glyph glyph-name="w.superior" unicode="&#xe136;" horiz-adv-x="495" 
d="M544 594l-163 -312h-67l-22 221l-103 -221h-67l-44 312h70l22 -221l103 221h68l22 -221l103 221h78z" />
    <glyph glyph-name="x.superior" unicode="&#xe137;" horiz-adv-x="330" 
d="M18 282l138 160l-74 152h78l47 -101l79 101h86l-130 -156l76 -156h-80l-48 106l-84 -106h-88z" />
    <glyph glyph-name="y.superior" unicode="&#xe138;" horiz-adv-x="324" 
d="M376 594l-255 -449h-78l90 149l-58 300h72l35 -212l112 212h82z" />
    <glyph glyph-name="z.superior" unicode="&#xe139;" horiz-adv-x="313" 
d="M36 282l9 49l185 202h-139l11 61h236l-9 -49l-185 -202h151l-12 -61h-247z" />
    <glyph glyph-name="a_superior.alt" unicode="&#xe13a;" horiz-adv-x="335" 
d="M223 282l5 24q-41 -32 -89 -32q-38 0 -63 23.5t-25 59.5q0 52 44.5 85.5t115.5 33.5q15 0 45 -2l2 12q2 10 2 14q0 19 -15 31.5t-38 12.5q-45 0 -102 -27l13 63q54 22 104 22q49 0 80 -25.5t31 -65.5q0 -17 -3 -33l-37 -196h-70zM126 371q0 -18 11.5 -28.5t30.5 -10.5
q34 0 68 32l12 64q-13 2 -37 2q-38 0 -61.5 -16.5t-23.5 -42.5z" />
    <glyph glyph-name="l_superior.alt" unicode="&#xe13b;" horiz-adv-x="210" 
d="M217 731l-67 -351q0 -3 -0.5 -8t-0.5 -7q0 -27 29 -27q20 0 38 7l-12 -63q-26 -8 -51 -8q-36 0 -59 20.5t-23 53.5q0 10 3 22l67 361h76z" />
    <glyph glyph-name="y_superior.alt" unicode="&#xe13c;" horiz-adv-x="368" 
d="M381 594l-60 -320q-12 -63 -56 -100t-108 -37q-59 0 -115 30l12 63q53 -33 103 -33q33 0 57.5 21t31.5 55l6 34q-44 -33 -89 -33q-39 0 -65 25.5t-26 65.5q0 12 4 34l37 195h75l-35 -190q-3 -18 -3 -20q0 -19 12.5 -31.5t32.5 -12.5q36 0 69 35l42 219h75z" />
    <glyph glyph-name="ordfeminine.alt" unicode="&#xe13d;" horiz-adv-x="335" 
d="M40 252l11 59h256l-12 -59h-255zM241 375l5 25q-43 -32 -89 -32q-38 0 -63 23.5t-25 59.5q0 53 44.5 86t114.5 33q16 0 46 -2l2 12q0 2 1 7t1 7q0 19 -15 31t-38 12q-47 0 -102 -26l13 63q54 22 104 22q48 0 79 -26t31 -65q0 -17 -3 -33l-36 -197h-70zM143 465
q0 -18 11.5 -28.5t31.5 -10.5q37 0 67 32l13 64q-13 2 -38 2q-38 0 -61.5 -16.5t-23.5 -42.5z" />
    <glyph glyph-name="a.sc" unicode="&#xe200;" horiz-adv-x="516" 
d="M-29 0l301 532h83l104 -532h-93l-22 127h-199l-70 -127h-104zM297 405l-111 -202h146z" />
    <glyph glyph-name="b.sc" unicode="&#xe201;" horiz-adv-x="494" 
d="M172 233l-30 -157h89q45 0 74 25.5t29 65.5q0 31 -21 48.5t-57 17.5h-84zM33 0l99 532h179q66 0 106.5 -34t40.5 -89q0 -47 -26.5 -84.5t-70.5 -54.5q32 -12 51.5 -40t19.5 -63q0 -72 -57.5 -119.5t-144.5 -47.5h-197zM213 456l-28 -150h79q43 0 70 25t27 63
q0 28 -19.5 45t-52.5 17h-76z" />
    <glyph glyph-name="c.sc" unicode="&#xe202;" horiz-adv-x="495" 
d="M42 207q0 147 84 242t214 95q77 0 156 -45l-16 -87q-68 47 -134 47q-87 0 -144 -68t-57 -171q0 -66 38.5 -107t101.5 -41q65 0 140 42l-18 -92q-71 -34 -147 -34q-96 0 -157 62t-61 157z" />
    <glyph glyph-name="d.sc" unicode="&#xe203;" horiz-adv-x="565" 
d="M33 0l99 532h174q98 0 160 -58t62 -150q0 -147 -82.5 -235.5t-221.5 -88.5h-191zM218 451l-70 -370h84q85 0 139 65.5t54 169.5q0 62 -36.5 98.5t-99.5 36.5h-71z" />
    <glyph glyph-name="e.sc" unicode="&#xe204;" horiz-adv-x="449" 
d="M33 0l99 532h316l-15 -79h-217l-27 -146h187l-15 -75h-186l-29 -153h223l-15 -79h-321z" />
    <glyph glyph-name="f.sc" unicode="&#xe205;" horiz-adv-x="431" 
d="M33 0l99 532h316l-15 -79h-217l-30 -162h187l-15 -78h-187l-40 -213h-98z" />
    <glyph glyph-name="g.sc" unicode="&#xe206;" horiz-adv-x="549" 
d="M496 287l-49 -262q-94 -37 -181 -37q-99 0 -161.5 62t-62.5 157q0 147 85.5 242t218.5 95q83 0 167 -52l-16 -85q-74 54 -147 54q-89 0 -148 -68.5t-59 -172.5q0 -66 38.5 -108t99.5 -42q36 0 84 17l22 124h-105l14 76h200z" />
    <glyph glyph-name="h.sc" unicode="&#xe207;" horiz-adv-x="588" 
d="M33 0l99 532h101l-42 -222h228l42 222h100l-100 -532h-100l43 229h-228l-43 -229h-100z" />
    <glyph glyph-name="i.sc" unicode="&#xe208;" horiz-adv-x="259" 
d="M33 0l99 532h101l-100 -532h-100z" />
    <glyph glyph-name="j.sc" unicode="&#xe209;" horiz-adv-x="386" 
d="M364 532l-74 -398q-13 -67 -59.5 -106.5t-114.5 -39.5q-57 0 -121 32l16 81q46 -28 92 -28q35 0 59 21t31 57l70 381h101z" />
    <glyph glyph-name="k.sc" unicode="&#xe20a;" horiz-adv-x="510" 
d="M33 0l99 532h99l-41 -218l229 218h126l-281 -265l191 -267h-115l-165 234l-44 -234h-98z" />
    <glyph glyph-name="l.sc" unicode="&#xe20b;" horiz-adv-x="411" 
d="M33 0l99 532h101l-85 -451h208l-16 -81h-307z" />
    <glyph glyph-name="m.sc" unicode="&#xe20c;" horiz-adv-x="657" 
d="M33 0l99 532h82l117 -236l205 236h94l-100 -532h-93l70 371l-161 -188h-57l-93 190l-70 -373h-93z" />
    <glyph glyph-name="n.sc" unicode="&#xe20d;" horiz-adv-x="588" 
d="M33 0l99 532h82l184 -373l70 373h93l-100 -532h-81l-184 373l-70 -373h-93z" />
    <glyph glyph-name="o.sc" unicode="&#xe20e;" horiz-adv-x="588" 
d="M42 207q0 148 83 242.5t212 94.5q97 0 156 -61t59 -159q0 -148 -83 -242t-212 -94q-97 0 -156 60.5t-59 158.5zM145 216q0 -66 33 -105t88 -39q76 0 129 71t53 173q0 66 -32.5 104.5t-87.5 38.5q-76 0 -129.5 -70.5t-53.5 -172.5z" />
    <glyph glyph-name="p.sc" unicode="&#xe20f;" horiz-adv-x="483" 
d="M33 0l99 532h173q75 0 119 -39.5t44 -105.5q0 -83 -63 -139t-157 -56h-83l-35 -192h-97zM214 454l-34 -185h69q53 0 86 30t33 77q0 37 -23.5 57.5t-65.5 20.5h-65z" />
    <glyph glyph-name="q.sc" unicode="&#xe210;" horiz-adv-x="588" 
d="M42 207q0 148 83 242.5t212 94.5q97 0 156 -61t59 -159q0 -97 -38.5 -174t-104.5 -119l81 -109h-106l-57 77q-35 -11 -70 -11q-97 0 -156 60.5t-59 158.5zM145 216q0 -66 33 -105t88 -39q76 0 129 71t53 173q0 66 -32.5 104.5t-87.5 38.5q-76 0 -129.5 -70.5
t-53.5 -172.5z" />
    <glyph glyph-name="r.sc" unicode="&#xe211;" horiz-adv-x="491" 
d="M311 0l-80 198h-65l-36 -198h-97l99 532h171q73 0 116 -38.5t43 -103.5q0 -62 -38 -111t-100 -69l87 -210h-100zM214 454l-33 -179h65q51 0 83.5 30t32.5 75q0 35 -22.5 54.5t-62.5 19.5h-63z" />
    <glyph glyph-name="s.sc" unicode="&#xe212;" horiz-adv-x="440" 
d="M18 34l17 87q76 -53 145 -53q43 0 70 23t27 59q0 26 -21 45.5t-50.5 34t-59 31.5t-50.5 47.5t-21 72.5q0 71 53.5 117t140.5 46q74 0 149 -41l-16 -85q-69 45 -133 45q-42 0 -68.5 -21.5t-26.5 -55.5q0 -25 21 -43.5t50.5 -33t59 -31.5t50.5 -48.5t21 -74.5
q0 -73 -54.5 -120t-141.5 -47q-79 0 -162 46z" />
    <glyph glyph-name="t.sc" unicode="&#xe213;" horiz-adv-x="471" 
d="M139 0l85 451h-157l15 81h414l-15 -81h-157l-84 -451h-101z" />
    <glyph glyph-name="u.sc" unicode="&#xe214;" horiz-adv-x="588" 
d="M566 532l-64 -348q-16 -90 -83 -143t-162 -53q-86 0 -140 46t-54 120q0 26 4 49l61 329h101l-61 -327q-3 -18 -3 -37q0 -43 27.5 -69.5t73.5 -26.5q52 0 89 32.5t47 86.5l64 341h100z" />
    <glyph glyph-name="v.sc" unicode="&#xe215;" horiz-adv-x="516" 
d="M551 532l-301 -532h-83l-104 532h97l68 -396l216 396h107z" />
    <glyph glyph-name="w.sc" unicode="&#xe216;" horiz-adv-x="805" 
d="M837 532l-278 -532h-88l-46 405l-194 -405h-89l-75 532h96l45 -406l194 406h89l46 -406l196 406h104z" />
    <glyph glyph-name="x.sc" unicode="&#xe217;" horiz-adv-x="524" 
d="M-30 0l236 274l-128 258h105l91 -191l152 191h117l-222 -266l130 -266h-108l-91 199l-163 -199h-119z" />
    <glyph glyph-name="y.sc" unicode="&#xe218;" horiz-adv-x="487" 
d="M142 0l43 226l-125 306h107l81 -220l162 220h121l-247 -316l-42 -216h-100z" />
    <glyph glyph-name="z.sc" unicode="&#xe219;" horiz-adv-x="499" 
d="M-6 0l13 67l348 384h-262l15 81h391l-13 -67l-348 -384h282l-16 -81h-410z" />
    <glyph glyph-name="agrave.sc" unicode="&#xe21a;" horiz-adv-x="516" 
d="M-29 0l301 532h83l104 -532h-93l-22 127h-199l-70 -127h-104zM297 405l-111 -202h146zM307 596l-91 154h91l76 -154h-76z" />
    <glyph glyph-name="aacute.sc" unicode="&#xe21b;" horiz-adv-x="516" 
d="M-29 0l301 532h83l104 -532h-93l-22 127h-199l-70 -127h-104zM297 405l-111 -202h146zM266 596l134 154h104l-149 -154h-89z" />
    <glyph glyph-name="acircumflex.sc" unicode="&#xe21c;" horiz-adv-x="516" 
d="M-29 0l301 532h83l104 -532h-93l-22 127h-199l-70 -127h-104zM297 405l-111 -202h146zM174 596l135 154h87l76 -154h-73l-54 91l-87 -91h-84z" />
    <glyph glyph-name="atilde.sc" unicode="&#xe21d;" horiz-adv-x="516" 
d="M-29 0l301 532h83l104 -532h-93l-22 127h-199l-70 -127h-104zM297 405l-111 -202h146zM172 622q8 50 38 81.5t73 31.5q31 0 67.5 -28t50.5 -28q17 0 30 12.5t16 32.5h64q-8 -50 -38.5 -81.5t-72.5 -31.5q-32 0 -68 28t-50 28q-18 0 -30.5 -12.5t-16.5 -32.5h-63z" />
    <glyph glyph-name="adieresis.sc" unicode="&#xe21e;" horiz-adv-x="516" 
d="M-29 0l301 532h83l104 -532h-93l-22 127h-199l-70 -127h-104zM297 405l-111 -202h146zM179 667q0 27 18.5 45.5t46.5 18.5q22 0 36.5 -14.5t14.5 -36.5q0 -28 -18.5 -46.5t-45.5 -18.5q-23 0 -37.5 14.5t-14.5 37.5zM385 667q0 27 18.5 45.5t45.5 18.5q23 0 37.5 -14.5
t14.5 -36.5q0 -28 -18 -46.5t-46 -18.5q-23 0 -37.5 14.5t-14.5 37.5z" />
    <glyph glyph-name="aring.sc" unicode="&#xe21f;" horiz-adv-x="516" 
d="M-29 0l301 532h83l104 -532h-93l-22 127h-199l-70 -127h-104zM297 405l-111 -202h146zM240 663q0 47 32 79t79 32q40 0 65 -25.5t25 -65.5q0 -47 -31.5 -78.5t-78.5 -31.5q-40 0 -65.5 25t-25.5 65zM290 668q0 -20 12.5 -33t33.5 -13q23 0 39.5 16t16.5 40q0 20 -13 33
t-33 13q-24 0 -40 -16t-16 -40z" />
    <glyph glyph-name="amacron.sc" unicode="&#xe221;" horiz-adv-x="516" 
d="M-29 0l301 532h83l104 -532h-93l-22 127h-199l-70 -127h-104zM297 405l-111 -202h146zM176 638l13 71h317l-13 -71h-317z" />
    <glyph glyph-name="abreve.sc" unicode="&#xe222;" horiz-adv-x="516" 
d="M-29 0l301 532h83l104 -532h-93l-22 127h-199l-70 -127h-104zM297 405l-111 -202h146zM212 750h65q-1 -7 -1 -18q0 -28 19.5 -46t50.5 -18q35 0 59 22.5t29 59.5h68q-10 -73 -53.5 -113t-111.5 -40q-55 0 -91.5 35t-36.5 86q0 16 3 32z" />
    <glyph glyph-name="aogonek.sc" unicode="&#xe223;" horiz-adv-x="516" 
d="M381 0h-15l-22 127h-199l-70 -127h-104l301 532h83l104 -532q-107 -55 -107 -116q0 -17 12 -28.5t30 -11.5t37 8l-12 -64q-26 -10 -56 -10q-39 0 -65 22.5t-26 57.5q0 42 28.5 79t80.5 63zM297 405l-111 -202h146z" />
    <glyph glyph-name="ae.sc" unicode="&#xe224;" horiz-adv-x="724" 
d="M307 0l22 120h-176l-96 -120h-112l431 532h346l-15 -79h-217l-27 -146h187l-15 -75h-186l-29 -153h223l-15 -79h-321zM384 414l-174 -220h133z" />
    <glyph glyph-name="cacute.sc" unicode="&#xe226;" horiz-adv-x="495" 
d="M42 207q0 147 84 242t214 95q77 0 156 -45l-16 -87q-68 47 -134 47q-87 0 -144 -68t-57 -171q0 -66 38.5 -107t101.5 -41q65 0 140 42l-18 -92q-71 -34 -147 -34q-96 0 -157 62t-61 157zM293 596l134 154h104l-149 -154h-89z" />
    <glyph glyph-name="ccircumflex.sc" unicode="&#xe227;" horiz-adv-x="495" 
d="M42 207q0 147 84 242t214 95q77 0 156 -45l-16 -87q-68 47 -134 47q-87 0 -144 -68t-57 -171q0 -66 38.5 -107t101.5 -41q65 0 140 42l-18 -92q-71 -34 -147 -34q-96 0 -157 62t-61 157zM201 596l135 154h87l76 -154h-73l-54 91l-87 -91h-84z" />
    <glyph glyph-name="ccaron.sc" unicode="&#xe228;" horiz-adv-x="495" 
d="M42 207q0 147 84 242t214 95q77 0 156 -45l-16 -87q-68 47 -134 47q-87 0 -144 -68t-57 -171q0 -66 38.5 -107t101.5 -41q65 0 140 42l-18 -92q-71 -34 -147 -34q-96 0 -157 62t-61 157zM533 750l-134 -154h-88l-76 154h74l53 -91l88 91h83z" />
    <glyph glyph-name="cdotaccent.sc" unicode="&#xe229;" horiz-adv-x="495" 
d="M42 207q0 147 84 242t214 95q77 0 156 -45l-16 -87q-68 47 -134 47q-87 0 -144 -68t-57 -171q0 -66 38.5 -107t101.5 -41q65 0 140 42l-18 -92q-71 -34 -147 -34q-96 0 -157 62t-61 157zM307 667q0 28 19 46.5t47 18.5q23 0 38.5 -14.5t15.5 -37.5q0 -28 -19 -47t-47 -19
q-24 0 -39 15t-15 38z" />
    <glyph glyph-name="ccedilla.sc" unicode="&#xe22a;" horiz-adv-x="495" 
d="M42 207q0 147 84 242t214 95q77 0 156 -45l-16 -87q-68 47 -134 47q-87 0 -144 -68t-57 -171q0 -66 38.5 -107t101.5 -41q65 0 140 42l-18 -92q-58 -30 -128 -33l-18 -42q26 -8 41.5 -28t15.5 -46q0 -44 -36.5 -74t-91.5 -30q-44 0 -86 24l12 61q34 -23 68 -23
q24 0 39.5 12.5t15.5 31.5t-15.5 30.5t-39.5 11.5h-4l33 76q-77 14 -124 73t-47 141z" />
    <glyph glyph-name="dcaron.sc" unicode="&#xe22b;" horiz-adv-x="565" 
d="M33 0l99 532h174q98 0 160 -58t62 -150q0 -147 -82.5 -235.5t-221.5 -88.5h-191zM218 451l-70 -370h84q85 0 139 65.5t54 169.5q0 62 -36.5 98.5t-99.5 36.5h-71zM514 750l-134 -154h-88l-76 154h74l53 -91l88 91h83z" />
    <glyph glyph-name="dcroat.sc" unicode="&#xe22c;" horiz-adv-x="576" 
d="M44 0l45 236h-74l13 67h73l43 229h174q98 0 160 -58t62 -150q0 -147 -83 -235.5t-221 -88.5h-192zM227 451l-27 -148h113l-13 -67h-112l-30 -155h88q85 0 139 66t54 169q0 62 -37 98.5t-100 36.5h-75z" />
    <glyph glyph-name="egrave.sc" unicode="&#xe22d;" horiz-adv-x="449" 
d="M33 0l99 532h316l-15 -79h-217l-27 -146h187l-15 -75h-186l-29 -153h223l-15 -79h-321zM280 596l-91 154h91l76 -154h-76z" />
    <glyph glyph-name="eacute.sc" unicode="&#xe22e;" horiz-adv-x="449" 
d="M33 0l99 532h316l-15 -79h-217l-27 -146h187l-15 -75h-186l-29 -153h223l-15 -79h-321zM239 596l134 154h104l-149 -154h-89z" />
    <glyph glyph-name="ecircumflex.sc" unicode="&#xe22f;" horiz-adv-x="449" 
d="M33 0l99 532h316l-15 -79h-217l-27 -146h187l-15 -75h-186l-29 -153h223l-15 -79h-321zM147 596l135 154h87l76 -154h-73l-54 91l-87 -91h-84z" />
    <glyph glyph-name="ecaron.sc" unicode="&#xe230;" horiz-adv-x="449" 
d="M33 0l99 532h316l-15 -79h-217l-27 -146h187l-15 -75h-186l-29 -153h223l-15 -79h-321zM479 750l-134 -154h-88l-76 154h74l53 -91l88 91h83z" />
    <glyph glyph-name="edieresis.sc" unicode="&#xe231;" horiz-adv-x="449" 
d="M33 0l99 532h316l-15 -79h-217l-27 -146h187l-15 -75h-186l-29 -153h223l-15 -79h-321zM152 667q0 27 18.5 45.5t46.5 18.5q23 0 37 -14.5t14 -36.5q0 -28 -18.5 -46.5t-45.5 -18.5q-23 0 -37.5 14.5t-14.5 37.5zM358 667q0 27 18.5 45.5t45.5 18.5q23 0 37.5 -14.5
t14.5 -36.5q0 -28 -18 -46.5t-46 -18.5q-23 0 -37.5 14.5t-14.5 37.5z" />
    <glyph glyph-name="emacron.sc" unicode="&#xe232;" horiz-adv-x="449" 
d="M33 0l99 532h316l-15 -79h-217l-27 -146h187l-15 -75h-186l-29 -153h223l-15 -79h-321zM149 638l13 71h317l-13 -71h-317z" />
    <glyph glyph-name="ebreve.sc" unicode="&#xe233;" horiz-adv-x="449" 
d="M33 0l99 532h316l-15 -79h-217l-27 -146h187l-15 -75h-186l-29 -153h223l-15 -79h-321zM185 750h65q-1 -7 -1 -18q0 -28 19.5 -46t50.5 -18q35 0 59 22.5t29 59.5h68q-10 -73 -53.5 -113t-111.5 -40q-55 0 -91.5 35t-36.5 86q0 16 3 32z" />
    <glyph glyph-name="edotaccent.sc" unicode="&#xe234;" horiz-adv-x="449" 
d="M33 0l99 532h316l-15 -79h-217l-27 -146h187l-15 -75h-186l-29 -153h223l-15 -79h-321zM253 667q0 28 19 46.5t47 18.5q23 0 38.5 -14.5t15.5 -37.5q0 -28 -19 -47t-47 -19q-24 0 -39 15t-15 38z" />
    <glyph glyph-name="eogonek.sc" unicode="&#xe235;" horiz-adv-x="449" 
d="M33 0l99 532h316l-15 -79h-217l-27 -146h187l-15 -75h-186l-29 -153h223l-15 -79q-107 -55 -107 -116q0 -17 12 -28.5t30 -11.5t37 8l-12 -64q-26 -10 -56 -10q-39 0 -65 22.5t-26 57.5q0 42 28.5 79t80.5 63h-243z" />
    <glyph glyph-name="gcircumflex.sc" unicode="&#xe236;" horiz-adv-x="549" 
d="M496 287l-49 -262q-94 -37 -181 -37q-99 0 -161.5 62t-62.5 157q0 147 85.5 242t218.5 95q83 0 167 -52l-16 -85q-74 54 -147 54q-89 0 -148 -68.5t-59 -172.5q0 -66 38.5 -108t99.5 -42q36 0 84 17l22 124h-105l14 76h200zM212 596l135 154h87l76 -154h-73l-54 91
l-87 -91h-84z" />
    <glyph glyph-name="gbreve.sc" unicode="&#xe237;" horiz-adv-x="549" 
d="M496 287l-49 -262q-94 -37 -181 -37q-99 0 -161.5 62t-62.5 157q0 147 85.5 242t218.5 95q83 0 167 -52l-16 -85q-74 54 -147 54q-89 0 -148 -68.5t-59 -172.5q0 -66 38.5 -108t99.5 -42q36 0 84 17l22 124h-105l14 76h200zM250 750h65q-1 -7 -1 -18q0 -28 19.5 -46
t50.5 -18q35 0 59 22.5t29 59.5h68q-10 -73 -53.5 -113t-111.5 -40q-55 0 -91.5 35t-36.5 86q0 16 3 32z" />
    <glyph glyph-name="gdotaccent.sc" unicode="&#xe238;" horiz-adv-x="549" 
d="M496 287l-49 -262q-94 -37 -181 -37q-99 0 -161.5 62t-62.5 157q0 147 85.5 242t218.5 95q83 0 167 -52l-16 -85q-74 54 -147 54q-89 0 -148 -68.5t-59 -172.5q0 -66 38.5 -108t99.5 -42q36 0 84 17l22 124h-105l14 76h200zM318 667q0 28 19 46.5t47 18.5
q23 0 38.5 -14.5t15.5 -37.5q0 -28 -19 -47t-47 -19q-24 0 -39 15t-15 38z" />
    <glyph glyph-name="gcommaaccent.sc" unicode="&#xe239;" horiz-adv-x="549" 
d="M496 287l-49 -262q-94 -37 -181 -37q-99 0 -161.5 62t-62.5 157q0 147 85.5 242t218.5 95q83 0 167 -52l-16 -85q-74 54 -147 54q-89 0 -148 -68.5t-59 -172.5q0 -66 38.5 -108t99.5 -42q36 0 84 17l22 124h-105l14 76h200zM107 -242l96 178h96l-109 -178h-83z" />
    <glyph glyph-name="hcircumflex.sc" unicode="&#xe23a;" horiz-adv-x="588" 
d="M33 0l99 532h101l-42 -222h228l42 222h100l-100 -532h-100l43 229h-228l-43 -229h-100zM206 596l135 154h87l76 -154h-73l-54 91l-87 -91h-84z" />
    <glyph glyph-name="hbar.sc" unicode="&#xe23b;" horiz-adv-x="588" 
d="M33 0l71 379h-67l11 64h68l16 89h101l-17 -89h228l17 89h100l-17 -89h68l-12 -64h-67l-72 -379h-100l43 231h-228l-43 -231h-100zM204 379l-13 -71h227l14 71h-228z" />
    <glyph glyph-name="igrave.sc" unicode="&#xe23c;" horiz-adv-x="259" 
d="M33 0l99 532h101l-100 -532h-100zM174 596l-91 154h91l76 -154h-76z" />
    <glyph glyph-name="iacute.sc" unicode="&#xe23d;" horiz-adv-x="259" 
d="M33 0l99 532h101l-100 -532h-100zM133 596l134 154h104l-149 -154h-89z" />
    <glyph glyph-name="icircumflex.sc" unicode="&#xe23e;" horiz-adv-x="259" 
d="M33 0l99 532h101l-100 -532h-100zM41 596l135 154h87l76 -154h-73l-54 91l-87 -91h-84z" />
    <glyph glyph-name="itilde.sc" unicode="&#xe23f;" horiz-adv-x="259" 
d="M33 0l99 532h101l-100 -532h-100zM39 622q8 50 38 81.5t73 31.5q31 0 67.5 -28t50.5 -28q17 0 30 12.5t16 32.5h64q-8 -50 -38.5 -81.5t-72.5 -31.5q-31 0 -68 28t-50 28q-18 0 -30.5 -12.5t-16.5 -32.5h-63z" />
    <glyph glyph-name="idieresis.sc" unicode="&#xe240;" horiz-adv-x="259" 
d="M33 0l99 532h101l-100 -532h-100zM46 667q0 27 18.5 45.5t46.5 18.5q23 0 37 -14.5t14 -36.5q0 -28 -18.5 -46.5t-45.5 -18.5q-23 0 -37.5 14.5t-14.5 37.5zM252 667q0 27 18.5 45.5t45.5 18.5q23 0 37.5 -14.5t14.5 -36.5q0 -28 -18 -46.5t-46 -18.5q-23 0 -37.5 14.5
t-14.5 37.5z" />
    <glyph glyph-name="imacron.sc" unicode="&#xe241;" horiz-adv-x="259" 
d="M33 0l99 532h101l-100 -532h-100zM43 638l13 71h317l-13 -71h-317z" />
    <glyph glyph-name="ibreve.sc" unicode="&#xe242;" horiz-adv-x="259" 
d="M33 0l99 532h101l-100 -532h-100zM79 750h65q-1 -7 -1 -18q0 -28 19.5 -46t50.5 -18q35 0 59 22.5t29 59.5h68q-10 -73 -53.5 -113t-111.5 -40q-55 0 -91.5 35t-36.5 86q0 16 3 32z" />
    <glyph glyph-name="idotaccent.sc" unicode="&#xe243;" horiz-adv-x="259" 
d="M33 0l99 532h101l-100 -532h-100zM147 667q0 28 19 46.5t47 18.5q23 0 38.5 -14.5t15.5 -37.5q0 -28 -19 -47t-47 -19q-24 0 -39 15t-15 38z" />
    <glyph glyph-name="iogonek.sc" unicode="&#xe244;" horiz-adv-x="259" 
d="M33 0l99 532h101l-100 -532q-107 -55 -107 -116q0 -17 12 -28.5t30 -11.5t37 8l-12 -64q-26 -10 -56 -10q-39 0 -65 22.5t-26 57.5q0 42 28.5 79t80.5 63h-22z" />
    <glyph glyph-name="ij.sc" unicode="&#xe245;" horiz-adv-x="646" 
d="M623 532l-74 -398q-13 -67 -59.5 -106.5t-114.5 -39.5q-57 0 -121 32l16 81q46 -28 92 -28q35 0 59 21t31 57l70 381h101zM33 0l99 532h101l-100 -532h-100z" />
    <glyph glyph-name="jcircumflex.sc" unicode="&#xe246;" horiz-adv-x="386" 
d="M364 532l-74 -398q-13 -67 -59.5 -106.5t-114.5 -39.5q-57 0 -121 32l16 81q46 -28 92 -28q35 0 59 21t31 57l70 381h101zM173 596l135 154h87l76 -154h-73l-54 91l-87 -91h-84z" />
    <glyph glyph-name="kcommaaccent.sc" unicode="&#xe247;" horiz-adv-x="510" 
d="M33 0l99 532h99l-41 -218l229 218h126l-281 -265l191 -267h-115l-165 234l-44 -234h-98zM65 -242l96 178h96l-109 -178h-83z" />
    <glyph glyph-name="lacute.sc" unicode="&#xe248;" horiz-adv-x="412" 
d="M33 0l99 532h101l-85 -451h208l-16 -81h-307zM133 596l134 154h104l-149 -154h-89z" />
    <glyph glyph-name="lcaron.sc" unicode="&#xe249;" horiz-adv-x="412" 
d="M33 0l99 532h101l-85 -451h208l-16 -81h-307zM256 409l83 154h90l-94 -154h-79z" />
    <glyph glyph-name="ldot.sc" unicode="&#xe24a;" horiz-adv-x="412" 
d="M33 0l99 532h101l-85 -451h208l-16 -81h-307zM281 273q0 28 19 46.5t47 18.5q23 0 38.5 -14.5t15.5 -37.5q0 -28 -19 -47t-47 -19q-24 0 -39 15t-15 38z" />
    <glyph glyph-name="lcommaaccent.sc" unicode="&#xe24b;" horiz-adv-x="412" 
d="M33 0l99 532h101l-85 -451h208l-16 -81h-307zM33 -242l96 178h96l-109 -178h-83z" />
    <glyph glyph-name="lslash.sc" unicode="&#xe24c;" horiz-adv-x="423" 
d="M44 0l37 192l-67 -25l16 82l66 25l48 258h100l-40 -214l130 52l-15 -82l-130 -52l-29 -155h207l-16 -81h-307z" />
    <glyph glyph-name="nacute.sc" unicode="&#xe24d;" horiz-adv-x="588" 
d="M33 0l99 532h82l184 -373l70 373h93l-100 -532h-81l-184 373l-70 -373h-93zM298 596l134 154h104l-149 -154h-89z" />
    <glyph glyph-name="ncaron.sc" unicode="&#xe24e;" horiz-adv-x="588" 
d="M33 0l99 532h82l184 -373l70 373h93l-100 -532h-81l-184 373l-70 -373h-93zM538 750l-134 -154h-88l-76 154h74l53 -91l88 91h83z" />
    <glyph glyph-name="ntilde.sc" unicode="&#xe24f;" horiz-adv-x="588" 
d="M33 0l99 532h82l184 -373l70 373h93l-100 -532h-81l-184 373l-70 -373h-93zM204 622q8 50 38 81.5t73 31.5q31 0 67.5 -28t50.5 -28q17 0 30 12.5t16 32.5h64q-8 -50 -38.5 -81.5t-72.5 -31.5q-32 0 -68 28t-50 28q-18 0 -30.5 -12.5t-16.5 -32.5h-63z" />
    <glyph glyph-name="ncommaaccent.sc" unicode="&#xe250;" horiz-adv-x="588" 
d="M33 0l99 532h82l184 -373l70 373h93l-100 -532h-81l-184 373l-70 -373h-93zM101 -242l96 178h96l-109 -178h-83z" />
    <glyph glyph-name="napostrophe.sc" unicode="&#xe251;" horiz-adv-x="776" 
d="M72 465l124 223h104l-137 -223h-91zM221 0l99 532h82l184 -373l70 373h93l-100 -532h-81l-184 373l-70 -373h-93z" />
    <glyph glyph-name="ograve.sc" unicode="&#xe252;" horiz-adv-x="588" 
d="M42 207q0 148 83 242.5t212 94.5q97 0 156 -61t59 -159q0 -148 -83 -242t-212 -94q-97 0 -156 60.5t-59 158.5zM145 216q0 -66 33 -105t88 -39q76 0 129 71t53 173q0 66 -32.5 104.5t-87.5 38.5q-76 0 -129.5 -70.5t-53.5 -172.5zM339 596l-91 154h91l76 -154h-76z" />
    <glyph glyph-name="oacute.sc" unicode="&#xe253;" horiz-adv-x="588" 
d="M42 207q0 148 83 242.5t212 94.5q97 0 156 -61t59 -159q0 -148 -83 -242t-212 -94q-97 0 -156 60.5t-59 158.5zM145 216q0 -66 33 -105t88 -39q76 0 129 71t53 173q0 66 -32.5 104.5t-87.5 38.5q-76 0 -129.5 -70.5t-53.5 -172.5zM298 596l134 154h104l-149 -154h-89z
" />
    <glyph glyph-name="ocircumflex.sc" unicode="&#xe254;" horiz-adv-x="588" 
d="M42 207q0 148 83 242.5t212 94.5q97 0 156 -61t59 -159q0 -148 -83 -242t-212 -94q-97 0 -156 60.5t-59 158.5zM145 216q0 -66 33 -105t88 -39q76 0 129 71t53 173q0 66 -32.5 104.5t-87.5 38.5q-76 0 -129.5 -70.5t-53.5 -172.5zM206 596l135 154h87l76 -154h-73l-54 91
l-87 -91h-84z" />
    <glyph glyph-name="otilde.sc" unicode="&#xe255;" horiz-adv-x="588" 
d="M42 207q0 148 83 242.5t212 94.5q97 0 156 -61t59 -159q0 -148 -83 -242t-212 -94q-97 0 -156 60.5t-59 158.5zM145 216q0 -66 33 -105t88 -39q76 0 129 71t53 173q0 66 -32.5 104.5t-87.5 38.5q-76 0 -129.5 -70.5t-53.5 -172.5zM204 622q8 50 38 81.5t73 31.5
q31 0 67.5 -28t50.5 -28q17 0 30 12.5t16 32.5h64q-8 -50 -38.5 -81.5t-72.5 -31.5q-32 0 -68 28t-50 28q-18 0 -30.5 -12.5t-16.5 -32.5h-63z" />
    <glyph glyph-name="odieresis.sc" unicode="&#xe256;" horiz-adv-x="588" 
d="M42 207q0 148 83 242.5t212 94.5q97 0 156 -61t59 -159q0 -148 -83 -242t-212 -94q-97 0 -156 60.5t-59 158.5zM145 216q0 -66 33 -105t88 -39q76 0 129 71t53 173q0 66 -32.5 104.5t-87.5 38.5q-76 0 -129.5 -70.5t-53.5 -172.5zM211 667q0 27 18.5 45.5t46.5 18.5
q22 0 36.5 -14.5t14.5 -36.5q0 -28 -18.5 -46.5t-45.5 -18.5q-23 0 -37.5 14.5t-14.5 37.5zM417 667q0 27 18.5 45.5t45.5 18.5q23 0 37.5 -14.5t14.5 -36.5q0 -28 -18 -46.5t-46 -18.5q-23 0 -37.5 14.5t-14.5 37.5z" />
    <glyph glyph-name="omacron.sc" unicode="&#xe257;" horiz-adv-x="588" 
d="M42 207q0 148 83 242.5t212 94.5q97 0 156 -61t59 -159q0 -148 -83 -242t-212 -94q-97 0 -156 60.5t-59 158.5zM145 216q0 -66 33 -105t88 -39q76 0 129 71t53 173q0 66 -32.5 104.5t-87.5 38.5q-76 0 -129.5 -70.5t-53.5 -172.5zM208 638l13 71h317l-13 -71h-317z" />
    <glyph glyph-name="obreve.sc" unicode="&#xe258;" horiz-adv-x="588" 
d="M42 207q0 148 83 242.5t212 94.5q97 0 156 -61t59 -159q0 -148 -83 -242t-212 -94q-97 0 -156 60.5t-59 158.5zM145 216q0 -66 33 -105t88 -39q76 0 129 71t53 173q0 66 -32.5 104.5t-87.5 38.5q-76 0 -129.5 -70.5t-53.5 -172.5zM244 750h65q-1 -7 -1 -18
q0 -28 19.5 -46t50.5 -18q35 0 59 22.5t29 59.5h68q-10 -73 -53.5 -113t-111.5 -40q-55 0 -91.5 35t-36.5 86q0 16 3 32z" />
    <glyph glyph-name="ohungarumlaut.sc" unicode="&#xe259;" horiz-adv-x="588" 
d="M42 207q0 148 83 242.5t212 94.5q97 0 156 -61t59 -159q0 -148 -83 -242t-212 -94q-97 0 -156 60.5t-59 158.5zM145 216q0 -66 33 -105t88 -39q76 0 129 71t53 173q0 66 -32.5 104.5t-87.5 38.5q-76 0 -129.5 -70.5t-53.5 -172.5zM389 596l134 154h105l-149 -154h-90z
M205 596l134 154h105l-150 -154h-89z" />
    <glyph glyph-name="oslash.sc" unicode="&#xe25a;" horiz-adv-x="588" 
d="M42 207q0 147 83 242t212 95q83 0 138 -47l33 35h74l-69 -74q39 -56 39 -134q0 -147 -83.5 -241.5t-212.5 -94.5q-82 0 -137 47l-33 -35h-74l69 73q-39 56 -39 134zM452 316q0 35 -11 65l-258 -277q31 -34 82 -34q78 0 132.5 71.5t54.5 174.5zM142 216q0 -34 10 -66
l259 278q-30 33 -83 33q-78 0 -132 -71t-54 -174z" />
    <glyph glyph-name="oe.sc" unicode="&#xe25c;" horiz-adv-x="739" 
d="M737 532l-15 -79h-217l-26 -146h186l-14 -75h-187l-29 -153h224l-16 -79h-379q-98 0 -160 57.5t-62 149.5q0 148 83 236.5t221 88.5h391zM337 81l70 370h-69q-85 0 -139 -66t-54 -169q0 -62 37 -98.5t100 -36.5h55z" />
    <glyph glyph-name="racute.sc" unicode="&#xe25d;" horiz-adv-x="491" 
d="M311 0l-80 198h-65l-36 -198h-97l99 532h171q73 0 116 -38.5t43 -103.5q0 -62 -38 -111t-100 -69l87 -210h-100zM214 454l-33 -179h65q51 0 83.5 30t32.5 75q0 35 -22.5 54.5t-62.5 19.5h-63zM251 596l134 154h104l-149 -154h-89z" />
    <glyph glyph-name="rcaron.sc" unicode="&#xe25e;" horiz-adv-x="491" 
d="M311 0l-80 198h-65l-36 -198h-97l99 532h171q73 0 116 -38.5t43 -103.5q0 -62 -38 -111t-100 -69l87 -210h-100zM214 454l-33 -179h65q51 0 83.5 30t32.5 75q0 35 -22.5 54.5t-62.5 19.5h-63zM491 750l-134 -154h-88l-76 154h74l53 -91l88 91h83z" />
    <glyph glyph-name="rcommaaccent.sc" unicode="&#xe25f;" horiz-adv-x="491" 
d="M311 0l-80 198h-65l-36 -198h-97l99 532h171q73 0 116 -38.5t43 -103.5q0 -62 -38 -111t-100 -69l87 -210h-100zM214 454l-33 -179h65q51 0 83.5 30t32.5 75q0 35 -22.5 54.5t-62.5 19.5h-63zM54 -242l96 178h96l-109 -178h-83z" />
    <glyph glyph-name="sacute.sc" unicode="&#xe260;" horiz-adv-x="440" 
d="M18 34l17 87q76 -53 145 -53q43 0 70 23t27 59q0 26 -21 45.5t-50.5 34t-59 31.5t-50.5 47.5t-21 72.5q0 71 53.5 117t140.5 46q74 0 149 -41l-16 -85q-69 45 -133 45q-42 0 -68.5 -21.5t-26.5 -55.5q0 -25 21 -43.5t50.5 -33t59 -31.5t50.5 -48.5t21 -74.5
q0 -73 -54.5 -120t-141.5 -47q-79 0 -162 46zM224 596l134 154h104l-149 -154h-89z" />
    <glyph glyph-name="scircumflex.sc" unicode="&#xe261;" horiz-adv-x="440" 
d="M18 34l17 87q76 -53 145 -53q43 0 70 23t27 59q0 26 -21 45.5t-50.5 34t-59 31.5t-50.5 47.5t-21 72.5q0 71 53.5 117t140.5 46q74 0 149 -41l-16 -85q-69 45 -133 45q-42 0 -68.5 -21.5t-26.5 -55.5q0 -25 21 -43.5t50.5 -33t59 -31.5t50.5 -48.5t21 -74.5
q0 -73 -54.5 -120t-141.5 -47q-79 0 -162 46zM132 596l135 154h87l76 -154h-73l-54 91l-87 -91h-84z" />
    <glyph glyph-name="scaron.sc" unicode="&#xe262;" horiz-adv-x="440" 
d="M18 34l17 87q76 -53 145 -53q43 0 70 23t27 59q0 26 -21 45.5t-50.5 34t-59 31.5t-50.5 47.5t-21 72.5q0 71 53.5 117t140.5 46q74 0 149 -41l-16 -85q-69 45 -133 45q-42 0 -68.5 -21.5t-26.5 -55.5q0 -25 21 -43.5t50.5 -33t59 -31.5t50.5 -48.5t21 -74.5
q0 -73 -54.5 -120t-141.5 -47q-79 0 -162 46zM464 750l-134 -154h-88l-76 154h74l53 -91l88 91h83z" />
    <glyph glyph-name="scedilla.sc" unicode="&#xe263;" horiz-adv-x="440" 
d="M18 34l17 87q76 -53 145 -53q43 0 70 23t27 59q0 26 -21 45.5t-50.5 34t-59 31.5t-50.5 47.5t-21 72.5q0 71 53.5 117t140.5 46q74 0 149 -41l-16 -85q-69 45 -133 45q-42 0 -68.5 -21.5t-26.5 -55.5q0 -25 21 -43.5t50.5 -33t59 -31.5t50.5 -48.5t21 -74.5
q0 -66 -45 -111.5t-120 -52.5l-18 -44q25 -8 40.5 -28t15.5 -46q0 -44 -37 -74t-92 -30q-42 0 -85 24l12 61q35 -23 67 -23q25 0 40.5 12.5t15.5 31.5t-15 30.5t-40 11.5h-4l32 74q-60 7 -125 43z" />
    <glyph glyph-name="scommaaccent.sc" unicode="&#xe264;" horiz-adv-x="440" 
d="M18 34l17 87q76 -53 145 -53q43 0 70 23t27 59q0 26 -21 45.5t-50.5 34t-59 31.5t-50.5 47.5t-21 72.5q0 71 53.5 117t140.5 46q74 0 149 -41l-16 -85q-69 45 -133 45q-42 0 -68.5 -21.5t-26.5 -55.5q0 -25 21 -43.5t50.5 -33t59 -31.5t50.5 -48.5t21 -74.5
q0 -73 -54.5 -120t-141.5 -47q-79 0 -162 46zM27 -242l96 178h96l-109 -178h-83z" />
    <glyph glyph-name="germandbls.sc" unicode="&#xe265;" horiz-adv-x="588" 
d="M33 0l99 532h438l-13 -67l-129 -150q46 -15 74.5 -52t28.5 -83q0 -80 -59 -136t-145 -56q-55 0 -117 32l17 85q49 -35 100 -35q45 0 75 28.5t30 69.5q0 40 -29.5 63.5t-78.5 23.5h-16l13 66l112 132h-219l-84 -453h-97z" />
    <glyph glyph-name="tcaron.sc" unicode="&#xe266;" horiz-adv-x="471" 
d="M139 0l85 451h-157l15 81h414l-15 -81h-157l-84 -451h-101zM479 750l-134 -154h-88l-76 154h74l53 -91l88 91h83z" />
    <glyph glyph-name="tbar.sc" unicode="&#xe268;" horiz-adv-x="471" 
d="M139 0l41 217h-105l13 71h105l31 162h-157l15 82h414l-15 -82h-157l-31 -162h104l-12 -71h-105l-40 -217h-101z" />
    <glyph glyph-name="ugrave.sc" unicode="&#xe269;" horiz-adv-x="588" 
d="M566 532l-64 -348q-16 -90 -83 -143t-162 -53q-86 0 -140 46t-54 120q0 26 4 49l61 329h101l-61 -327q-3 -18 -3 -37q0 -43 27.5 -69.5t73.5 -26.5q52 0 89 32.5t47 86.5l64 341h100zM339 596l-91 154h91l76 -154h-76z" />
    <glyph glyph-name="uacute.sc" unicode="&#xe26a;" horiz-adv-x="588" 
d="M566 532l-64 -348q-16 -90 -83 -143t-162 -53q-86 0 -140 46t-54 120q0 26 4 49l61 329h101l-61 -327q-3 -18 -3 -37q0 -43 27.5 -69.5t73.5 -26.5q52 0 89 32.5t47 86.5l64 341h100zM298 596l134 154h104l-149 -154h-89z" />
    <glyph glyph-name="ucircumflex.sc" unicode="&#xe26b;" horiz-adv-x="588" 
d="M566 532l-64 -348q-16 -90 -83 -143t-162 -53q-86 0 -140 46t-54 120q0 26 4 49l61 329h101l-61 -327q-3 -18 -3 -37q0 -43 27.5 -69.5t73.5 -26.5q52 0 89 32.5t47 86.5l64 341h100zM206 596l135 154h87l76 -154h-73l-54 91l-87 -91h-84z" />
    <glyph glyph-name="utilde.sc" unicode="&#xe26c;" horiz-adv-x="588" 
d="M566 532l-64 -348q-16 -90 -83 -143t-162 -53q-86 0 -140 46t-54 120q0 26 4 49l61 329h101l-61 -327q-3 -18 -3 -37q0 -43 27.5 -69.5t73.5 -26.5q52 0 89 32.5t47 86.5l64 341h100zM204 622q8 50 38 81.5t73 31.5q31 0 67.5 -28t50.5 -28q17 0 30 12.5t16 32.5h64
q-8 -50 -38.5 -81.5t-72.5 -31.5q-32 0 -68 28t-50 28q-18 0 -30.5 -12.5t-16.5 -32.5h-63z" />
    <glyph glyph-name="udieresis.sc" unicode="&#xe26d;" horiz-adv-x="588" 
d="M566 532l-64 -348q-16 -90 -83 -143t-162 -53q-86 0 -140 46t-54 120q0 26 4 49l61 329h101l-61 -327q-3 -18 -3 -37q0 -43 27.5 -69.5t73.5 -26.5q52 0 89 32.5t47 86.5l64 341h100zM211 667q0 27 18.5 45.5t46.5 18.5q22 0 36.5 -14.5t14.5 -36.5q0 -28 -18.5 -46.5
t-45.5 -18.5q-23 0 -37.5 14.5t-14.5 37.5zM417 667q0 27 18.5 45.5t45.5 18.5q23 0 37.5 -14.5t14.5 -36.5q0 -28 -18 -46.5t-46 -18.5q-23 0 -37.5 14.5t-14.5 37.5z" />
    <glyph glyph-name="uring.sc" unicode="&#xe26e;" horiz-adv-x="588" 
d="M566 532l-64 -348q-16 -90 -83 -143t-162 -53q-86 0 -140 46t-54 120q0 26 4 49l61 329h101l-61 -327q-3 -18 -3 -37q0 -43 27.5 -69.5t73.5 -26.5q52 0 89 32.5t47 86.5l64 341h100zM208 638l13 71h317l-13 -71h-317z" />
    <glyph glyph-name="umacron.sc" unicode="&#xe26f;" horiz-adv-x="588" 
d="M566 532l-64 -348q-16 -90 -83 -143t-162 -53q-86 0 -140 46t-54 120q0 26 4 49l61 329h101l-61 -327q-3 -18 -3 -37q0 -43 27.5 -69.5t73.5 -26.5q52 0 89 32.5t47 86.5l64 341h100zM244 750h65q-1 -7 -1 -18q0 -28 19.5 -46t50.5 -18q35 0 59 22.5t29 59.5h68
q-10 -73 -53.5 -113t-111.5 -40q-55 0 -91.5 35t-36.5 86q0 16 3 32z" />
    <glyph glyph-name="ubreve.sc" unicode="&#xe270;" horiz-adv-x="588" 
d="M566 532l-64 -348q-16 -90 -83 -143t-162 -53q-86 0 -140 46t-54 120q0 26 4 49l61 329h101l-61 -327q-3 -18 -3 -37q0 -43 27.5 -69.5t73.5 -26.5q52 0 89 32.5t47 86.5l64 341h100zM272 663q0 47 32 79t79 32q40 0 65 -25.5t25 -65.5q0 -47 -31.5 -78.5t-78.5 -31.5
q-40 0 -65.5 25t-25.5 65zM322 668q0 -20 12.5 -33t33.5 -13q23 0 39.5 16t16.5 40q0 20 -13 33t-33 13q-24 0 -40 -16t-16 -40z" />
    <glyph glyph-name="uhungarumlaut.sc" unicode="&#xe271;" horiz-adv-x="588" 
d="M566 532l-64 -348q-16 -90 -83 -143t-162 -53q-86 0 -140 46t-54 120q0 26 4 49l61 329h101l-61 -327q-3 -18 -3 -37q0 -43 27.5 -69.5t73.5 -26.5q52 0 89 32.5t47 86.5l64 341h100zM389 596l134 154h105l-149 -154h-90zM205 596l134 154h105l-150 -154h-89z" />
    <glyph glyph-name="uogonek.sc" unicode="&#xe272;" horiz-adv-x="588" 
d="M566 532l-65 -348q-22 -118 -136 -176q-49 -25 -77 -57.5t-28 -66.5q0 -17 12.5 -28.5t30.5 -11.5t37 8l-12 -64q-27 -10 -57 -10q-39 0 -65 22.5t-26 57.5t24 70.5t63 60.5q-3 0 -6.5 -0.5t-5.5 -0.5q-82 0 -137 46t-55 119q0 27 4 50l62 329h100l-61 -327
q-3 -18 -3 -37q0 -43 27.5 -69.5t73.5 -26.5q52 0 89 32.5t47 86.5l64 341h100z" />
    <glyph glyph-name="wgrave.sc" unicode="&#xe273;" horiz-adv-x="805" 
d="M837 532l-278 -532h-88l-46 405l-194 -405h-89l-75 532h96l45 -406l194 406h89l46 -406l196 406h104zM443 596l-91 154h91l76 -154h-76z" />
    <glyph glyph-name="wacute.sc" unicode="&#xe274;" horiz-adv-x="805" 
d="M837 532l-278 -532h-88l-46 405l-194 -405h-89l-75 532h96l45 -406l194 406h89l46 -406l196 406h104zM402 596l134 154h104l-149 -154h-89z" />
    <glyph glyph-name="wcircumflex.sc" unicode="&#xe275;" horiz-adv-x="805" 
d="M837 532l-278 -532h-88l-46 405l-194 -405h-89l-75 532h96l45 -406l194 406h89l46 -406l196 406h104zM307 596l135 154h87l76 -154h-73l-54 91l-87 -91h-84z" />
    <glyph glyph-name="wdieresis.sc" unicode="&#xe276;" horiz-adv-x="805" 
d="M837 532l-278 -532h-88l-46 405l-194 -405h-89l-75 532h96l45 -406l194 406h89l46 -406l196 406h104zM315 667q0 27 18.5 45.5t46.5 18.5q22 0 36.5 -14.5t14.5 -36.5q0 -28 -18.5 -46.5t-45.5 -18.5q-23 0 -37.5 14.5t-14.5 37.5zM521 667q0 27 18.5 45.5t45.5 18.5
q23 0 37.5 -14.5t14.5 -36.5q0 -28 -18 -46.5t-46 -18.5q-23 0 -37.5 14.5t-14.5 37.5z" />
    <glyph glyph-name="ygrave.sc" unicode="&#xe277;" horiz-adv-x="487" 
d="M142 0l43 226l-125 306h107l81 -220l162 220h121l-247 -316l-42 -216h-100zM285 596l-91 154h91l76 -154h-76z" />
    <glyph glyph-name="yacute.sc" unicode="&#xe278;" horiz-adv-x="487" 
d="M142 0l43 226l-125 306h107l81 -220l162 220h121l-247 -316l-42 -216h-100zM244 596l134 154h104l-149 -154h-89z" />
    <glyph glyph-name="ycircumflex.sc" unicode="&#xe279;" horiz-adv-x="487" 
d="M142 0l43 226l-125 306h107l81 -220l162 220h121l-247 -316l-42 -216h-100zM152 596l135 154h87l76 -154h-73l-54 91l-87 -91h-84z" />
    <glyph glyph-name="ydieresis.sc" unicode="&#xe27a;" horiz-adv-x="487" 
d="M142 0l43 226l-125 306h107l81 -220l162 220h121l-247 -316l-42 -216h-100zM157 667q0 27 18.5 45.5t46.5 18.5q22 0 36.5 -14.5t14.5 -36.5q0 -28 -18.5 -46.5t-45.5 -18.5q-23 0 -37.5 14.5t-14.5 37.5zM363 667q0 27 18.5 45.5t45.5 18.5q23 0 37.5 -14.5t14.5 -36.5
q0 -28 -18 -46.5t-46 -18.5q-23 0 -37.5 14.5t-14.5 37.5z" />
    <glyph glyph-name="zacute.sc" unicode="&#xe27b;" horiz-adv-x="499" 
d="M-6 0l13 67l348 384h-262l15 81h391l-13 -67l-348 -384h282l-16 -81h-410zM253 596l134 154h104l-149 -154h-89z" />
    <glyph glyph-name="zcaron.sc" unicode="&#xe27c;" horiz-adv-x="499" 
d="M-6 0l13 67l348 384h-262l15 81h391l-13 -67l-348 -384h282l-16 -81h-410zM493 750l-134 -154h-88l-76 154h74l53 -91l88 91h83z" />
    <glyph glyph-name="zdotaccent.sc" unicode="&#xe27d;" horiz-adv-x="499" 
d="M-6 0l13 67l348 384h-262l15 81h391l-13 -67l-348 -384h282l-16 -81h-410zM267 667q0 28 19 46.5t47 18.5q23 0 38.5 -14.5t15.5 -37.5q0 -28 -19 -47t-47 -19q-24 0 -39 15t-15 38z" />
    <glyph glyph-name="eng.sc" unicode="&#xe27e;" horiz-adv-x="588" 
d="M33 0l99 532h82l184 -373l70 373h93l-115 -617q-13 -68 -59 -107t-115 -39q-56 0 -120 32l15 82q49 -29 93 -29q37 0 61.5 21t31.5 57l16 86l-173 355l-70 -373h-93z" />
    <glyph glyph-name="eth.sc" unicode="&#xe27f;" horiz-adv-x="576" 
d="M44 0l45 236h-74l13 67h73l43 229h174q98 0 160 -58t62 -150q0 -147 -83 -235.5t-221 -88.5h-192zM227 451l-27 -148h113l-13 -67h-112l-30 -155h88q85 0 139 66t54 169q0 62 -37 98.5t-100 36.5h-75z" />
    <glyph glyph-name="thorn.sc" unicode="&#xe280;" horiz-adv-x="483" 
d="M33 0l99 532h98l-18 -92h76q74 0 118.5 -39.5t44.5 -105.5q0 -83 -63.5 -139t-157.5 -56h-82l-18 -100h-97zM197 362l-35 -184h70q53 0 86 29.5t33 76.5q0 36 -24 57t-66 21h-64z" />
    <glyph glyph-name="quoteleft.sc" unicode="&#xe281;" horiz-adv-x="250" 
d="M271 532l-123 -223h-105l137 223h91z" />
    <glyph glyph-name="quoteright.sc" unicode="&#xe282;" horiz-adv-x="250" 
d="M43 309l124 223h104l-137 -223h-91z" />
    <glyph glyph-name="quotedblleft.sc" unicode="&#xe283;" horiz-adv-x="428" 
d="M448 532l-123 -223h-104l136 223h91zM271 532l-123 -223h-105l137 223h91z" />
    <glyph glyph-name="quotedblright.sc" unicode="&#xe284;" horiz-adv-x="428" 
d="M43 309l124 223h104l-137 -223h-91zM221 309l123 223h104l-136 -223h-91z" />
    <glyph glyph-name="exclam.sc" unicode="&#xe285;" horiz-adv-x="257" 
d="M64 166l68 366h98l-69 -366h-97zM33 40q0 27 19 45.5t46 18.5q23 0 37.5 -14.5t14.5 -36.5q0 -28 -18.5 -46.5t-46.5 -18.5q-23 0 -37.5 15t-14.5 37z" />
    <glyph glyph-name="exclamdown.sc" unicode="&#xe286;" horiz-adv-x="229" 
d="M185 366l-69 -366h-97l68 366h98zM215 492q0 -27 -18.5 -46t-45.5 -19q-23 0 -37.5 14.5t-14.5 37.5q0 28 18.5 46.5t45.5 18.5q23 0 37.5 -15t14.5 -37z" />
    <glyph glyph-name="question.sc" unicode="&#xe287;" horiz-adv-x="369" 
d="M100 166l5 24q6 31 22.5 57.5t36 43.5t38.5 32.5t31.5 34t12.5 39.5q0 26 -18 43t-46 17q-52 0 -116 -42l18 95q62 34 126 34q62 0 100.5 -37.5t38.5 -94.5q0 -42 -21.5 -76.5t-48 -54.5t-52 -47.5t-31.5 -54.5l-2 -13h-94zM74 40q0 27 18 45.5t46 18.5q22 0 36.5 -14
t14.5 -37q0 -28 -18 -46.5t-46 -18.5q-22 0 -36.5 14.5t-14.5 37.5z" />
    <glyph glyph-name="questiondown.sc" unicode="&#xe288;" horiz-adv-x="369" 
d="M275 366l-5 -24q-6 -31 -22.5 -57.5t-36 -43.5t-38.5 -33t-31.5 -34.5t-12.5 -39.5q0 -26 18 -42.5t46 -16.5q52 0 116 42l-17 -96q-64 -33 -127 -33q-62 0 -100.5 37.5t-38.5 94.5q0 41 22 75.5t49 54.5t52 47.5t30 55.5l2 13h94zM302 492q0 -27 -18.5 -46t-46.5 -19
q-23 0 -37.5 14.5t-14.5 37.5q0 28 19 46.5t46 18.5q22 0 37 -15t15 -37z" />
    <glyph glyph-name="slash.sc" unicode="&#xe289;" horiz-adv-x="313" 
d="M-40 -72l295 677h103l-295 -677h-103z" />
    <glyph glyph-name="backslash.sc" unicode="&#xe28a;" horiz-adv-x="313" 
d="M172 -72l-125 677h96l125 -677h-96z" />
    <glyph glyph-name="parenleft.sc" unicode="&#xe28b;" horiz-adv-x="278" 
d="M53 197q0 115 45.5 220t131.5 187h114q-94 -79 -144.5 -182.5t-50.5 -218.5q0 -147 65 -275h-95q-66 130 -66 269z" />
    <glyph glyph-name="parenright.sc" unicode="&#xe28c;" horiz-adv-x="278" 
d="M230 334q0 -114 -45 -219t-131 -187h-114q94 79 144 182.5t50 218.5q0 145 -64 275h95q65 -132 65 -270z" />
    <glyph glyph-name="bracketleft.sc" unicode="&#xe28d;" horiz-adv-x="278" 
d="M15 -72l127 676h172l-13 -76h-78l-99 -524h78l-15 -76h-172z" />
    <glyph glyph-name="bracketright.sc" unicode="&#xe28e;" horiz-adv-x="278" 
d="M269 604l-127 -676h-173l14 76h78l98 524h-77l14 76h173z" />
    <glyph glyph-name="braceleft.sc" unicode="&#xe28f;" horiz-adv-x="278" 
d="M314 604l-14 -76h-13q-25 0 -43 -15.5t-23 -41.5l-21 -116q-12 -69 -87 -92q24 -8 38 -30t14 -51q0 -4 -0.5 -8.5t-1.5 -10t-1 -8.5l-16 -87q-2 -12 -2 -19q0 -21 13 -33.5t35 -12.5h10l-15 -75h-22q-54 0 -85.5 30t-31.5 80q0 20 4 33l16 91l3 21q0 20 -12 32.5
t-31 12.5h-9l15 75h7q24 0 42 19.5t24 49.5l23 118q10 52 51.5 83t102.5 31h30z" />
    <glyph glyph-name="braceright.sc" unicode="&#xe290;" horiz-adv-x="278" 
d="M-31 -72l15 76h13q25 0 43 15.5t22 41.5l22 116q6 33 29 57t58 34q-24 9 -38 31t-14 51q0 14 3 27l15 86q3 11 3 20q0 21 -13 33t-35 12h-11l15 76h24q54 0 85 -30t31 -80q0 -19 -4 -34l-16 -90l-3 -21q0 -20 12 -33t31 -13h8l-14 -75h-7q-23 0 -42.5 -19t-24.5 -49
l-22 -119q-10 -52 -51.5 -82.5t-102.5 -30.5h-31z" />
    </font>
</defs>
</svg>
