<?xml version="1.0" standalone="no"?>
<!DOCTYPE svg PUBLIC "-//W3C//DTD SVG 1.1//EN" "http://www.w3.org/Graphics/SVG/1.1/DTD/svg11.dtd" >
<svg xmlns="http://www.w3.org/2000/svg" xmlns:xlink="http://www.w3.org/1999/xlink" version="1.1">
<metadata>
Created by FontForge 20170731 at Tue Mar 22 14:47:50 2011
 By Aleksey,,,
Copyright 2010 Monotype Imaging Inc. All rights reserved. Designed by Nick Job.
</metadata>
<defs>
<font id="CamphorPro-LightItalic" horiz-adv-x="563" >
  <font-face 
    font-family="Camphor Pro Light"
    font-weight="300"
    font-style="italic"
    font-stretch="normal"
    units-per-em="1000"
    panose-1="2 11 3 4 3 4 4 9 2 4"
    ascent="800"
    descent="-200"
    x-height="500"
    cap-height="688"
    bbox="-256 -250 1151 938"
    underline-thickness="62"
    underline-position="-249"
    slope="-10"
    unicode-range="U+0020-FB04"
  />
<missing-glyph horiz-adv-x="500" 
d="M12 0v665h475v-665h-475zM88 618l162 -243l161 243h-323zM60 575v-484l40 61l80 120l41 61zM440 575l-162 -242l162 -243v485zM411 48l-161 242l-162 -242h323z" />
    <glyph glyph-name="IJ" unicode="IJ" horiz-adv-x="728" 
d="M56 0l129 688h65l-130 -688h-64zM710 688l-100 -535q-14 -76 -68 -120.5t-131 -44.5q-69 0 -145 43l12 58q68 -47 132 -47q54 0 90.5 32.5t47.5 88.5l98 525h64z" />
    <glyph glyph-name="ij" unicode="ij" horiz-adv-x="458" 
d="M36 0l94 500h63l-94 -500h-63zM146 643q0 20 13 32.5t33 12.5q16 0 26.5 -10t10.5 -26q0 -20 -13.5 -33t-32.5 -13q-16 0 -26.5 10.5t-10.5 26.5zM422 500l-113 -605q-11 -58 -51.5 -92t-98.5 -34q-51 0 -110 31l11 53q49 -32 92 -32q37 0 62.5 22.5t33.5 61.5l111 595
h63zM375 643q0 20 13 32.5t33 12.5q16 0 26.5 -10t10.5 -26q0 -20 -13 -33t-33 -13q-16 0 -26.5 10.5t-10.5 26.5z" />
    <glyph glyph-name="napostrophe" unicode="&#x27;n" horiz-adv-x="629" 
d="M120 0l94 500h62l-10 -52q76 64 158 64q62 0 103.5 -39t41.5 -99q0 -19 -6 -51l-60 -323h-62l59 321q5 23 5 41q0 44 -27.5 70.5t-72.5 26.5q-73 0 -151 -75l-71 -384h-63zM33 491l110 197h68l-120 -197h-58z" />
    <glyph glyph-name="f_b" unicode="fb" horiz-adv-x="869" 
d="M48 -141l111 591h-99l9 50h99l15 75q14 72 65.5 114t124.5 42q86 0 177 -54l-41 -220q66 55 139 55q81 0 130.5 -54t49.5 -142q0 -143 -73 -235.5t-185 -92.5q-73 0 -139 57l-8 -45h-62l121 650q-51 29 -106 29q-53 0 -88 -29.5t-45 -82.5l-12 -67h156l-9 -50h-156
l-111 -591h-63zM763 306q0 73 -33.5 113t-94.5 40q-69 0 -138 -67l-56 -295q62 -57 126 -57q85 0 140.5 76t55.5 190z" />
    <glyph glyph-name="f_f_b" unicode="ffb" horiz-adv-x="1155" 
d="M48 -141l111 591h-99l9 50h99l20 106q10 58 50.5 91.5t98.5 33.5q51 0 110 -31l-11 -52q-50 31 -92 31q-38 0 -63.5 -22t-32.5 -62l-17 -95h224l13 75q13 72 65 114t127 42q86 0 176 -54l-41 -220q67 55 139 55q80 0 130 -54t50 -142q0 -143 -72.5 -235.5t-184.5 -92.5
q-74 0 -140 57l-8 -45h-63l123 650q-52 29 -107 29q-53 0 -88 -29.5t-45 -82.5l-13 -67h157l-10 -50h-156l-111 -591h-62l111 591h-223l-111 -591h-63zM1050 306q0 72 -34.5 112.5t-95.5 40.5q-68 0 -138 -67l-55 -295q62 -57 127 -57q83 0 139.5 76t56.5 190z" />
    <glyph glyph-name="f_h" unicode="fh" horiz-adv-x="869" 
d="M48 -141l111 591h-99l9 50h99l15 75q14 72 65.5 114t124.5 42q86 0 177 -54l-43 -229q76 64 157 64q62 0 103 -39t41 -99q0 -24 -5 -51l-60 -323h-62l60 321q4 26 4 41q0 44 -27.5 70.5t-72.5 26.5q-73 0 -150 -74l-72 -385h-62l121 650q-51 29 -106 29q-53 0 -88 -29.5
t-45 -82.5l-12 -67h156l-9 -50h-156l-111 -591h-63z" />
    <glyph glyph-name="f_f_h" unicode="ffh" horiz-adv-x="1155" 
d="M48 -141l111 591h-99l9 50h99l20 106q10 58 50.5 91.5t98.5 33.5q51 0 110 -31l-11 -52q-50 31 -92 31q-38 0 -63.5 -22t-32.5 -62l-17 -95h224l13 75q13 72 65 114t127 42q86 0 176 -54l-43 -229q76 64 158 64q62 0 103 -39t41 -99q0 -19 -6 -51l-60 -323h-62l59 321
q5 22 5 41q0 44 -27 70.5t-73 26.5q-74 0 -151 -74l-71 -385h-63l123 650q-52 29 -107 29q-53 0 -88 -29.5t-45 -82.5l-13 -67h157l-10 -50h-156l-111 -591h-62l111 591h-223l-111 -591h-63z" />
    <glyph glyph-name="f_j" unicode="fj" horiz-adv-x="553" 
d="M60 450l9 50h99l15 75q14 72 62.5 114t120.5 42q70 0 140 -41l-10 -54q-65 43 -124 43q-51 0 -85 -29.5t-44 -83.5l-12 -66h285l-107 -574q-14 -72 -65.5 -114.5t-126.5 -42.5q-82 0 -176 54l118 627h-99zM222 450l-114 -599q54 -30 107 -30t88.5 30t45.5 83l96 516h-223
z" />
    <glyph glyph-name="f_f_j" unicode="ffj" horiz-adv-x="839" 
d="M48 -141l111 591h-99l9 50h99l20 106q10 58 50.5 91.5t98.5 33.5q51 0 110 -31l-11 -52q-50 31 -92 31q-38 0 -63.5 -22t-32.5 -62l-17 -95h224l13 75q13 72 62.5 114t121.5 42q70 0 140 -41l-10 -54q-66 43 -124 43q-52 0 -85.5 -29.5t-43.5 -83.5l-13 -66h287
l-108 -574q-14 -72 -65.5 -114.5t-125.5 -42.5q-83 0 -177 54l118 627h-223l-111 -591h-63zM507 450l-112 -599q53 -30 106 -30q54 0 88.5 29.5t44.5 83.5l97 516h-224z" />
    <glyph glyph-name="f_k" unicode="fk" horiz-adv-x="787" 
d="M48 -141l111 591h-99l9 50h99l15 75q14 72 65.5 114t124.5 42q86 0 176 -54l-75 -400l247 223h85l-280 -248l194 -252h-74l-179 234l-44 -234h-62l121 650q-51 29 -106 29q-53 0 -88 -29.5t-45 -82.5l-12 -67h156l-9 -50h-156l-111 -591h-63z" />
    <glyph glyph-name="f_f_k" unicode="ffk" horiz-adv-x="1073" 
d="M48 -141l111 591h-99l9 50h99l20 106q10 58 50.5 91.5t98.5 33.5q51 0 110 -31l-11 -52q-50 31 -92 31q-38 0 -63.5 -22t-32.5 -62l-17 -95h224l13 75q13 72 65 114t127 42q84 0 176 -54l-76 -400l248 223h84l-279 -248l193 -252h-74l-180 234l-44 -234h-62l123 650
q-52 29 -107 29q-53 0 -88 -29.5t-45 -82.5l-13 -67h157l-10 -50h-156l-111 -591h-62l111 591h-223l-111 -591h-63z" />
    <glyph glyph-name="f_t" unicode="ft" horiz-adv-x="687" 
d="M48 -141l111 591h-99l9 50h99l15 75q14 72 65.5 114t124.5 42q86 0 177 -54l-34 -177h179l-9 -50h-179l-58 -307q-3 -17 -3 -34q0 -32 21 -50.5t56 -18.5q43 0 92 28l-12 -60q-43 -20 -93 -20q-60 0 -94 30t-34 84q0 6 5 39l58 309h-223l-111 -591h-63zM231 500h224
l27 150q-51 29 -106 29q-53 0 -88 -29.5t-45 -82.5z" />
    <glyph glyph-name="f_f_t" unicode="fft" horiz-adv-x="974" 
d="M48 -141l111 591h-99l9 50h99l20 106q10 58 50.5 91.5t98.5 33.5q51 0 110 -31l-11 -52q-50 31 -92 31q-38 0 -63.5 -22t-32.5 -62l-17 -95h224l13 75q13 72 65 114t127 42q86 0 176 -54l-33 -177h179l-10 -50h-178l-58 -307q-5 -18 -5 -34q0 -31 21.5 -50t57.5 -19
q43 0 90 28l-10 -60q-44 -20 -94 -20q-60 0 -94 30t-34 84q0 17 5 39l58 309h-224l-111 -591h-62l111 591h-223l-111 -591h-63zM516 500h224l29 150q-52 29 -107 29q-53 0 -88 -29.5t-45 -82.5z" />
    <glyph glyph-name="f_thorn" unicode="f&#xfe;" horiz-adv-x="869" 
d="M48 -141l111 591h-99l9 50h99l15 75q14 72 65.5 114t124.5 42q86 0 177 -54l-41 -220q66 55 139 55q81 0 130.5 -54t49.5 -142q0 -143 -73 -235.5t-185 -92.5q-73 0 -139 57l-49 -264h-62l162 869q-51 29 -106 29q-53 0 -88 -29.5t-45 -82.5l-12 -67h156l-9 -50h-156
l-111 -591h-63zM763 306q0 73 -33.5 113t-94.5 40q-69 0 -138 -67l-56 -295q62 -57 126 -57q85 0 140.5 76t55.5 190z" />
    <glyph glyph-name="f_f_thorn" unicode="ff&#xfe;" horiz-adv-x="1155" 
d="M48 -141l111 591h-99l9 50h99l20 106q10 58 50.5 91.5t98.5 33.5q51 0 110 -31l-11 -52q-50 31 -92 31q-38 0 -63.5 -22t-32.5 -62l-17 -95h224l13 75q13 72 65 114t127 42q86 0 176 -54l-41 -220q67 55 139 55q80 0 130 -54t50 -142q0 -143 -72.5 -235.5t-184.5 -92.5
q-74 0 -140 57l-49 -264h-63l164 869q-52 29 -107 29q-53 0 -88 -29.5t-45 -82.5l-13 -67h157l-10 -50h-156l-111 -591h-62l111 591h-223l-111 -591h-63zM1050 306q0 72 -34.5 112.5t-95.5 40.5q-68 0 -138 -67l-55 -295q62 -57 127 -57q83 0 139.5 76t56.5 190z" />
    <glyph glyph-name="f_f" unicode="ff" horiz-adv-x="648" 
d="M48 -141l111 591h-99l9 50h99l20 106q10 58 50.5 91.5t98.5 33.5q51 0 110 -31l-11 -52q-50 31 -92 31q-38 0 -63.5 -22t-32.5 -62l-17 -95h224l19 106q10 58 50.5 91.5t98.5 33.5q52 0 109 -31l-10 -52q-48 31 -91 31q-38 0 -63 -22t-33 -62l-19 -95h157l-10 -50h-156
l-111 -591h-62l111 591h-223l-111 -591h-63z" />
    <glyph glyph-name="fi" unicode="fi" horiz-adv-x="553" 
d="M48 -141l111 591h-99l9 50h99l15 75q14 72 62.5 114t120.5 42q70 0 140 -41l-10 -54q-65 43 -124 43q-51 0 -85 -29.5t-44 -83.5l-12 -66h285l-93 -500h-62l84 450h-223l-111 -591h-63z" />
    <glyph glyph-name="fl" unicode="fl" horiz-adv-x="553" 
d="M48 -141l111 591h-99l9 50h99l15 75q14 72 65.5 114t124.5 42q86 0 177 -54l-127 -677h-62l121 650q-51 29 -106 29q-53 0 -88 -29.5t-45 -82.5l-12 -67h156l-9 -50h-156l-111 -591h-63z" />
    <glyph glyph-name="f_f_i" unicode="ffi" horiz-adv-x="839" 
d="M48 -141l111 591h-99l9 50h99l20 106q10 58 50.5 91.5t98.5 33.5q51 0 110 -31l-11 -52q-50 31 -92 31q-38 0 -63.5 -22t-32.5 -62l-17 -95h224l13 75q13 72 62.5 114t121.5 42q70 0 140 -41l-10 -54q-68 43 -126 43q-51 0 -83.5 -29.5t-43.5 -83.5l-13 -66h287l-94 -500
h-63l85 450h-224l-111 -591h-62l111 591h-223l-111 -591h-63z" />
    <glyph glyph-name="f_f_l" unicode="ffl" horiz-adv-x="839" 
d="M48 -141l111 591h-99l9 50h99l20 106q10 58 50.5 91.5t98.5 33.5q51 0 110 -31l-11 -52q-50 31 -92 31q-38 0 -63.5 -22t-32.5 -62l-17 -95h224l13 75q13 72 65 114t127 42q86 0 176 -54l-127 -677h-63l123 650q-52 29 -107 29q-53 0 -88 -29.5t-45 -82.5l-13 -67h156
l-9 -50h-156l-111 -591h-62l111 591h-223l-111 -591h-63z" />
    <glyph glyph-name=".notdef" horiz-adv-x="500" 
d="M12 0v665h475v-665h-475zM88 618l162 -243l161 243h-323zM60 575v-484l40 61l80 120l41 61zM440 575l-162 -242l162 -243v485zM411 48l-161 242l-162 -242h323z" />
    <glyph glyph-name=".null" horiz-adv-x="0" 
 />
    <glyph glyph-name="nonmarkingreturn" horiz-adv-x="333" 
 />
    <glyph glyph-name="space" unicode=" " horiz-adv-x="250" 
 />
    <glyph glyph-name="exclam" unicode="!" horiz-adv-x="257" 
d="M87 191l93 497h62l-93 -497h-62zM45 29q0 22 14 36t36 14q18 0 29.5 -11.5t11.5 -29.5q0 -21 -14 -35.5t-36 -14.5q-18 0 -29.5 11.5t-11.5 29.5z" />
    <glyph glyph-name="quotedbl" unicode="&#x22;" horiz-adv-x="412" 
d="M302 476l40 212h54l-40 -212h-54zM140 476l39 212h55l-40 -212h-54z" />
    <glyph glyph-name="numbersign" unicode="#" 
d="M5 200l10 54h111l56 180h-104l10 54h111l63 200h57l-63 -200h176l63 200h57l-63 -200h104l-9 -54h-112l-56 -180h104l-10 -54h-111l-62 -200h-57l62 200h-175l-63 -200h-57l62 200h-104zM238 434l-56 -180h177l56 180h-177z" />
    <glyph glyph-name="dollar" unicode="$" 
d="M184 -125l27 147q-72 9 -144 52l13 61q88 -62 169 -62q65 0 107.5 35t42.5 89q0 39 -26.5 68t-64.5 48t-76 40t-64.5 56.5t-26.5 84.5q0 73 53 121t138 52l28 146h55l-28 -148q62 -8 128 -45l-13 -59q-83 55 -153 55q-63 0 -103.5 -33.5t-40.5 -85.5q0 -37 26.5 -65
t64.5 -47t75.5 -40t64 -57.5t26.5 -87.5q0 -76 -55 -125.5t-141 -53.5l-27 -146h-55z" />
    <glyph glyph-name="percent" unicode="%" horiz-adv-x="845" 
d="M460 127q0 96 55.5 162.5t136.5 66.5q58 0 97.5 -40t39.5 -99q0 -96 -55.5 -162.5t-136.5 -66.5q-58 0 -97.5 40t-39.5 99zM512 134q0 -46 24.5 -74.5t65.5 -28.5q56 0 95.5 52.5t39.5 126.5q0 46 -24.5 74.5t-65.5 28.5q-56 0 -95.5 -52t-39.5 -127zM91 472
q0 96 55.5 162t136.5 66q58 0 97 -40t39 -100q0 -96 -55.5 -162t-135.5 -66q-59 0 -98 40t-39 100zM143 478q0 -46 25 -74t65 -28q56 0 95 52t39 126q0 47 -24.5 75t-64.5 28q-56 0 -95.5 -52t-39.5 -127zM88 0l642 688h61l-641 -688h-62z" />
    <glyph glyph-name="ampersand" unicode="&#x26;" horiz-adv-x="622" 
d="M625 375l-10 -51h-127l-54 -288q-93 -48 -197 -48q-82 0 -138.5 49.5t-56.5 120.5q0 72 48.5 128t127.5 73q-44 20 -69.5 59t-25.5 84q0 85 62.5 141.5t155.5 56.5q82 0 162 -43l-10 -57q-76 46 -148 46q-68 0 -112 -41t-44 -104q0 -54 42.5 -90t106.5 -36h287zM108 164
q0 -53 39.5 -87.5t99.5 -34.5q67 0 130 28l48 254h-104q-96 0 -154.5 -43.5t-58.5 -116.5z" />
    <glyph glyph-name="quotesingle" unicode="'" horiz-adv-x="250" 
d="M140 476l39 212h55l-40 -212h-54z" />
    <glyph glyph-name="parenleft" unicode="(" horiz-adv-x="317" 
d="M74 189q0 154 62 291.5t179 238.5h77q-123 -100 -188.5 -235t-65.5 -287q0 -186 82 -353h-63q-83 172 -83 345z" />
    <glyph glyph-name="parenright" unicode=")" horiz-adv-x="317" 
d="M249 374q0 -155 -61.5 -292.5t-178.5 -237.5h-77q123 101 189 236t66 287q0 184 -83 352h63q82 -167 82 -345z" />
    <glyph glyph-name="asterisk" unicode="*" horiz-adv-x="442" 
d="M459 471h-155l48 -149l-50 -16l-48 149l-127 -93l-30 43l125 91l-125 93l30 42l127 -91l48 147l50 -16l-48 -148h155v-52z" />
    <glyph glyph-name="plus" unicode="+" 
d="M37 254v55h223v223h55v-223h223v-55h-223v-223h-55v223h-223z" />
    <glyph glyph-name="comma" unicode="," horiz-adv-x="250" 
d="M-44 -125l110 197h67l-119 -197h-58z" />
    <glyph glyph-name="hyphen" unicode="-" horiz-adv-x="313" 
d="M32 230l10 49h239l-10 -49h-239z" />
    <glyph glyph-name="period" unicode="." horiz-adv-x="250" 
d="M42 29q0 22 14 36t36 14q17 0 28.5 -11.5t11.5 -29.5q0 -21 -14 -35.5t-36 -14.5q-17 0 -28.5 11.5t-11.5 29.5z" />
    <glyph glyph-name="slash" unicode="/" horiz-adv-x="375" 
d="M-32 -156l383 875h67l-384 -875h-66z" />
    <glyph glyph-name="zero" unicode="0" 
d="M48 236q0 197 88 330.5t218 133.5q91 0 143.5 -66t52.5 -181q0 -197 -88 -331t-218 -134q-91 0 -143.5 66.5t-52.5 181.5zM114 247q0 -95 37 -150t98 -55q96 0 166 118t70 281q0 95 -37.5 150t-98.5 55q-95 0 -165 -118t-70 -281z" />
    <glyph glyph-name="one" unicode="1" 
d="M255 0l115 616l-199 -95l13 64l218 103h46l-129 -688h-64z" />
    <glyph glyph-name="two" unicode="2" 
d="M18 0l9 51q214 157 316 268.5t102 202.5q0 56 -33.5 89.5t-89.5 33.5q-89 0 -180 -62l12 68q85 49 178 49q79 0 129 -46t50 -117q0 -103 -95.5 -215.5t-298.5 -267.5h321l-10 -54h-410z" />
    <glyph glyph-name="three" unicode="3" 
d="M205 324l10 51h38q80 0 134.5 45t54.5 112q0 49 -37 81.5t-93 32.5q-76 0 -160 -43l11 62q78 35 160 35q79 0 131.5 -45t52.5 -113t-45 -122t-116 -72q53 -15 84 -56t31 -95q0 -92 -70.5 -150.5t-178.5 -58.5q-91 0 -182 55l12 60q84 -61 169 -61q81 0 132.5 43.5
t51.5 112.5q0 55 -44.5 90.5t-113.5 35.5h-32z" />
    <glyph glyph-name="four" unicode="4" 
d="M305 0l37 198h-317l9 48l407 442h56l-82 -440h111l-10 -50h-111l-37 -198h-63zM106 248h246l62 336z" />
    <glyph glyph-name="five" unicode="5" 
d="M528 688l-10 -54h-282l-43 -225q38 7 77 7q87 0 145 -53.5t58 -133.5q0 -106 -73.5 -173.5t-189.5 -67.5q-84 0 -167 51l12 61q80 -58 155 -58q83 0 139.5 50t56.5 128q0 65 -43 104.5t-113 39.5q-55 0 -127 -16l64 340h341z" />
    <glyph glyph-name="six" unicode="6" 
d="M386 688h98q-226 -149 -309 -306q68 47 149 47q78 0 129.5 -53t51.5 -133q0 -106 -73.5 -180.5t-177.5 -74.5q-87 0 -141 56t-54 148q0 128 85 256.5t242 239.5zM145 306q-21 -52 -21 -109q0 -70 37.5 -112.5t98.5 -42.5q72 0 126 57.5t54 135.5q0 61 -37.5 100.5
t-94.5 39.5q-88 0 -163 -69z" />
    <glyph glyph-name="seven" unicode="7" 
d="M86 0l391 634h-341l10 54h416l-7 -41l-396 -647h-73z" />
    <glyph glyph-name="eight" unicode="8" 
d="M123 494q0 88 67 147t166 59q78 0 130 -45.5t52 -114.5q0 -67 -40.5 -117t-111.5 -73q50 -20 78.5 -59t28.5 -89q0 -92 -71.5 -153t-179.5 -61q-81 0 -138 48t-57 118q0 72 45 126t124 74q-44 17 -68.5 54.5t-24.5 85.5zM113 163q0 -53 38 -87.5t96 -34.5
q78 0 129.5 45.5t51.5 114.5q0 54 -38.5 88t-97.5 34q-78 0 -128.5 -45t-50.5 -115zM187 493q0 -53 34.5 -85t88.5 -32q69 0 116 45t47 110q0 52 -34 84t-88 32q-70 0 -117 -44.5t-47 -109.5z" />
    <glyph glyph-name="nine" unicode="9" 
d="M212 0h-98q227 153 309 306q-66 -47 -148 -47q-79 0 -130 53t-51 133q0 106 73 180.5t177 74.5q87 0 141.5 -56t54.5 -148q0 -127 -85 -255.5t-243 -240.5zM453 382q21 49 21 109q0 70 -37 112.5t-99 42.5q-72 0 -125.5 -57.5t-53.5 -134.5q0 -61 37 -101t94 -40
q88 0 163 69z" />
    <glyph glyph-name="colon" unicode=":" horiz-adv-x="250" 
d="M42 29q0 22 14 36t36 14q17 0 28.5 -11.5t11.5 -29.5q0 -21 -14 -35.5t-36 -14.5q-17 0 -28.5 11.5t-11.5 29.5zM118 462q0 22 14.5 36t35.5 14q18 0 29 -11t11 -30q0 -21 -14 -35.5t-35 -14.5q-18 0 -29.5 12t-11.5 29z" />
    <glyph glyph-name="semicolon" unicode=";" horiz-adv-x="250" 
d="M-44 -125l110 197h67l-119 -197h-58zM118 462q0 22 14.5 36t35.5 14q18 0 29 -11t11 -30q0 -21 -14 -35.5t-35 -14.5q-18 0 -29.5 12t-11.5 29z" />
    <glyph glyph-name="less" unicode="&#x3c;" 
d="M538 43l-501 216v45l501 216v-59l-417 -179l417 -180v-59z" />
    <glyph glyph-name="equal" unicode="=" 
d="M37 155v54h501v-54h-501zM37 354v54h501v-54h-501z" />
    <glyph glyph-name="greater" unicode="&#x3e;" 
d="M37 520l501 -216v-45l-501 -216v59l417 180l-417 179v59z" />
    <glyph glyph-name="question" unicode="?" horiz-adv-x="441" 
d="M148 192l4 22q9 46 34.5 85t55.5 65.5t58.5 52t47.5 56.5t19 68q0 48 -30 77t-79 29q-78 0 -159 -63l13 70q74 46 158 46q72 0 118 -43t46 -109q0 -39 -14.5 -73t-36 -58t-48.5 -49.5t-51.5 -47t-44.5 -52t-28 -63.5l-3 -13h-60zM110 29q0 22 14.5 36t35.5 14
q18 0 29.5 -11.5t11.5 -29.5q0 -21 -14.5 -35.5t-35.5 -14.5q-18 0 -29.5 11.5t-11.5 29.5z" />
    <glyph glyph-name="at" unicode="@" horiz-adv-x="958" 
d="M698 469l-60 -320q-2 -16 -2 -23q0 -23 15.5 -37.5t40.5 -14.5q68 0 116.5 80.5t48.5 199.5q0 135 -86 215t-227 80q-188 0 -312 -135.5t-124 -339.5q0 -146 90 -234.5t238 -88.5q106 0 229 64l-11 -59q-112 -56 -223 -56q-172 0 -278 102t-106 267q0 231 141.5 381
t359.5 150q162 0 266.5 -95t104.5 -246q0 -140 -69 -238.5t-168 -98.5q-75 0 -101 56q-66 -56 -140 -56q-70 0 -113.5 47t-43.5 124q0 125 63.5 205.5t161.5 80.5q65 0 121 -48l7 38h61zM347 202q0 -61 29 -94.5t81 -33.5q58 0 116 56l48 250q-50 47 -107 47
q-72 0 -119.5 -64t-47.5 -161z" />
    <glyph glyph-name="A" unicode="A" horiz-adv-x="615" 
d="M-21 0l391 688h50l137 -688h-62l-40 208h-291l-117 -208h-68zM381 596l-188 -337h253z" />
    <glyph glyph-name="B" unicode="B" horiz-adv-x="588" 
d="M180 324l-51 -273h148q80 0 130 44.5t50 114.5q0 53 -36 83.5t-98 30.5h-143zM56 0l129 688h198q79 0 127 -41.5t48 -111.5q0 -63 -37.5 -112.5t-97.5 -70.5q46 -14 73 -52t27 -88q0 -92 -70 -152t-177 -60h-220zM239 637l-49 -262h131q74 0 123 44t49 109q0 49 -35.5 79
t-91.5 30h-127z" />
    <glyph glyph-name="C" unicode="C" horiz-adv-x="601" 
d="M64 260q0 190 105 315t266 125q100 0 189 -59l-12 -61q-86 66 -175 66q-131 0 -218.5 -108t-87.5 -269q0 -102 57 -164.5t150 -62.5q97 0 184 55l-12 -66q-82 -43 -181 -43q-116 0 -190.5 76t-74.5 196z" />
    <glyph glyph-name="D" unicode="D" horiz-adv-x="678" 
d="M56 0l128 688h182q125 0 203.5 -72.5t78.5 -187.5q0 -198 -104 -313t-284 -115h-204zM240 636l-110 -584h135q143 0 230 101t87 267q0 101 -61 158.5t-169 57.5h-112z" />
    <glyph glyph-name="E" unicode="E" horiz-adv-x="543" 
d="M56 0l129 688h378l-10 -52h-313l-49 -261h274l-9 -51h-275l-51 -272h321l-9 -52h-386z" />
    <glyph glyph-name="F" unicode="F" horiz-adv-x="519" 
d="M56 0l129 688h378l-10 -52h-313l-52 -273h274l-9 -52h-275l-58 -311h-64z" />
    <glyph glyph-name="G" unicode="G" horiz-adv-x="658" 
d="M608 348l-58 -309q-107 -51 -215 -51q-120 0 -195.5 76t-75.5 196q0 190 106 315t270 125q101 0 197 -65l-11 -61q-92 72 -185 72q-132 0 -221.5 -108.5t-89.5 -268.5q0 -102 58 -164.5t153 -62.5q78 0 154 34l41 222h-164l10 50h226z" />
    <glyph glyph-name="H" unicode="H" horiz-adv-x="709" 
d="M56 0l129 688h65l-59 -312h375l59 312h63l-129 -688h-64l61 324h-375l-61 -324h-64z" />
    <glyph glyph-name="I" unicode="I" horiz-adv-x="270" 
d="M56 0l129 688h65l-130 -688h-64z" />
    <glyph glyph-name="J" unicode="J" horiz-adv-x="458" 
d="M440 688l-100 -535q-14 -76 -68 -120.5t-131 -44.5q-69 0 -145 43l12 58q68 -47 132 -47q54 0 90.5 32.5t47.5 88.5l98 525h64z" />
    <glyph glyph-name="K" unicode="K" horiz-adv-x="588" 
d="M56 0l129 688h64l-60 -318l361 318h93l-393 -340l275 -348h-78l-265 332l-63 -332h-63z" />
    <glyph glyph-name="L" unicode="L" horiz-adv-x="489" 
d="M56 0l129 688h65l-120 -636h299l-10 -52h-363z" />
    <glyph glyph-name="M" unicode="M" horiz-adv-x="802" 
d="M56 0l129 688h54l172 -356l305 356h65l-129 -688h-63l109 580l-275 -322h-41l-155 320l-108 -578h-63z" />
    <glyph glyph-name="N" unicode="N" horiz-adv-x="709" 
d="M56 0l129 688h54l279 -578l108 578h62l-129 -688h-54l-278 578l-108 -578h-63z" />
    <glyph glyph-name="O" unicode="O" horiz-adv-x="709" 
d="M64 260q0 190 103 315t258 125q116 0 185.5 -74t69.5 -198q0 -190 -102.5 -315t-257.5 -125q-117 0 -186.5 74t-69.5 198zM131 268q0 -104 52.5 -165t141.5 -61q120 0 204 109.5t84 268.5q0 104 -52.5 165t-141.5 61q-120 0 -204 -109.5t-84 -268.5z" />
    <glyph glyph-name="P" unicode="P" horiz-adv-x="569" 
d="M56 0l129 688h184q91 0 146 -47.5t55 -127.5q0 -106 -77 -174.5t-196 -68.5h-127l-51 -270h-63zM239 636l-59 -315h118q92 0 149 50.5t57 132.5q0 61 -41.5 96.5t-112.5 35.5h-111z" />
    <glyph glyph-name="Q" unicode="Q" horiz-adv-x="709" 
d="M64 260q0 190 103 315t258 125q116 0 185.5 -74t69.5 -198q0 -131 -51.5 -235t-139.5 -158l107 -137h-76l-85 112q-57 -22 -115 -22q-117 0 -186.5 74t-69.5 198zM131 268q0 -104 52.5 -165t141.5 -61q120 0 204 109.5t84 268.5q0 104 -52.5 165t-141.5 61
q-120 0 -204 -109.5t-84 -268.5z" />
    <glyph glyph-name="R" unicode="R" horiz-adv-x="584" 
d="M418 0l-126 277h-121l-52 -277h-63l129 688h180q90 0 143.5 -46.5t53.5 -124.5q0 -88 -57 -153t-148 -81l129 -283h-68zM239 636l-58 -307h113q89 0 145.5 50.5t56.5 128.5q0 59 -40.5 93.5t-109.5 34.5h-107z" />
    <glyph glyph-name="S" unicode="S" horiz-adv-x="528" 
d="M30 49l12 63q97 -71 186 -71q73 0 119.5 39t46.5 99q0 44 -29.5 76.5t-71 54t-83.5 44.5t-71.5 62t-29.5 93q0 84 63 137.5t163 53.5q89 0 182 -53l-12 -61q-88 61 -170 61q-72 0 -117 -36.5t-45 -95.5q0 -42 29.5 -73.5t71.5 -52.5t83.5 -44.5t71 -63.5t29.5 -96
q0 -87 -64.5 -142t-165.5 -55q-96 0 -198 61z" />
    <glyph glyph-name="T" unicode="T" horiz-adv-x="567" 
d="M204 0l119 636h-224l10 52h513l-10 -52h-225l-118 -636h-65z" />
    <glyph glyph-name="U" unicode="U" horiz-adv-x="709" 
d="M692 688l-86 -459q-21 -111 -98 -176t-188 -65q-97 0 -161 58.5t-64 148.5q0 27 7 69l79 424h65l-80 -424q-7 -37 -7 -62q0 -70 46.5 -115t119.5 -45q84 0 142.5 52t75.5 141l85 453h64z" />
    <glyph glyph-name="V" unicode="V" horiz-adv-x="615" 
d="M672 688l-392 -688h-49l-137 688h63l112 -593l333 593h70z" />
    <glyph glyph-name="W" unicode="W" horiz-adv-x="990" 
d="M1041 688l-355 -688h-57l-76 599l-301 -599h-57l-95 688h61l76 -599l302 599h57l76 -599l301 599h68z" />
    <glyph glyph-name="X" unicode="X" horiz-adv-x="617" 
d="M-23 0l305 352l-168 336h72l142 -288l243 288h80l-292 -340l174 -348h-73l-147 300l-255 -300h-81z" />
    <glyph glyph-name="Y" unicode="Y" horiz-adv-x="570" 
d="M200 0l57 301l-167 387h69l137 -331l261 331h79l-315 -392l-57 -296h-64z" />
    <glyph glyph-name="Z" unicode="Z" horiz-adv-x="602" 
d="M-3 0l10 49l530 587h-399l10 52h478l-9 -49l-532 -587h426l-10 -52h-504z" />
    <glyph glyph-name="bracketleft" unicode="[" horiz-adv-x="317" 
d="M36 -156l164 875h174l-9 -49h-111l-146 -777h111l-10 -49h-173z" />
    <glyph glyph-name="backslash" unicode="\" horiz-adv-x="375" 
d="M266 -156l-169 875h61l169 -875h-61z" />
    <glyph glyph-name="bracketright" unicode="]" horiz-adv-x="317" 
d="M292 719l-164 -875h-174l9 49h112l145 777h-111l9 49h174z" />
    <glyph glyph-name="asciicircum" unicode="^" 
d="M61 188l216 500h45l216 -500h-59l-180 416l-180 -416h-58z" />
    <glyph glyph-name="underscore" unicode="_" horiz-adv-x="500" 
d="M-76 -150l10 49h500l-10 -49h-500z" />
    <glyph glyph-name="grave" unicode="`" horiz-adv-x="250" 
d="M176 575l-84 144h63l72 -144h-51z" />
    <glyph glyph-name="a" unicode="a" horiz-adv-x="545" 
d="M509 500l-94 -500h-61l7 45q-68 -57 -140 -57q-80 0 -130 54.5t-50 142.5q0 142 73 234.5t185 92.5q72 0 139 -56l9 44h62zM106 195q0 -73 34 -114t95 -41q66 0 137 69l56 294q-59 56 -126 56q-85 0 -140.5 -75t-55.5 -189z" />
    <glyph glyph-name="b" unicode="b" horiz-adv-x="545" 
d="M36 0l135 719h63l-49 -262q66 55 139 55q80 0 130 -54t50 -142q0 -143 -72.5 -235.5t-185.5 -92.5q-73 0 -139 57l-8 -45h-63zM440 306q0 72 -34.5 112.5t-95.5 40.5q-68 0 -138 -67l-55 -294q61 -58 126 -58q84 0 140.5 76t56.5 190z" />
    <glyph glyph-name="c" unicode="c" horiz-adv-x="464" 
d="M41 190q0 139 78.5 230.5t198.5 91.5q75 0 142 -43l-11 -57q-63 48 -129 48q-92 0 -153 -74.5t-61 -186.5q0 -72 40 -115.5t106 -43.5q68 0 135 41l-11 -61q-66 -32 -136 -32q-88 0 -143.5 56.5t-55.5 145.5z" />
    <glyph glyph-name="d" unicode="d" horiz-adv-x="545" 
d="M550 719l-135 -719h-61l7 45q-68 -57 -140 -57q-80 0 -130 54.5t-50 142.5q0 142 73 234.5t185 92.5q72 0 139 -56l50 263h62zM106 195q0 -73 34 -114t95 -41q66 0 137 69l56 294q-59 56 -126 56q-85 0 -140.5 -75t-55.5 -189z" />
    <glyph glyph-name="e" unicode="e" horiz-adv-x="497" 
d="M41 193q0 142 72.5 230.5t188.5 88.5q72 0 117.5 -50t45.5 -129q0 -53 -10 -95h-348q-3 -20 -3 -39q0 -71 41.5 -115.5t106.5 -44.5q76 0 149 48l-11 -64q-73 -35 -150 -35q-86 0 -142.5 58t-56.5 147zM115 285h286q4 21 4 46q0 58 -30 94t-79 36q-65 0 -113.5 -47
t-67.5 -129z" />
    <glyph glyph-name="f" unicode="f" horiz-adv-x="363" 
d="M48 -141l111 591h-99l9 50h99l20 106q10 58 50.5 91.5t98.5 33.5q50 0 110 -30l-11 -53q-50 31 -92 31q-38 0 -63.5 -22t-32.5 -62l-17 -95h156l-9 -50h-156l-111 -591h-63z" />
    <glyph glyph-name="g" unicode="g" horiz-adv-x="545" 
d="M509 500l-99 -527q-18 -95 -80 -149.5t-152 -54.5q-86 0 -168 44l11 57q79 -50 157 -50q64 0 111 43t60 116l11 65q-67 -56 -139 -56q-80 0 -130 54.5t-50 142.5q0 142 73 234.5t185 92.5q72 0 139 -56l9 44h62zM106 195q0 -73 34 -114t95 -41q66 0 137 69l56 294
q-59 56 -126 56q-85 0 -140.5 -75t-55.5 -189z" />
    <glyph glyph-name="h" unicode="h" horiz-adv-x="545" 
d="M36 0l135 719h63l-51 -271q76 64 157 64q62 0 103.5 -39t41.5 -99q0 -19 -6 -51l-60 -323h-62l59 321q5 22 5 41q0 44 -27.5 70.5t-72.5 26.5q-74 0 -151 -74l-71 -385h-63z" />
    <glyph glyph-name="i" unicode="i" horiz-adv-x="229" 
d="M36 0l94 500h63l-94 -500h-63zM146 643q0 20 13 32.5t33 12.5q16 0 26.5 -10t10.5 -26q0 -20 -13.5 -33t-32.5 -13q-16 0 -26.5 10.5t-10.5 26.5z" />
    <glyph glyph-name="j" unicode="j" horiz-adv-x="229" 
d="M193 500l-113 -605q-11 -58 -51.5 -92t-98.5 -34q-51 0 -110 31l11 53q49 -32 92 -32q37 0 62.5 22.5t33.5 61.5l111 595h63zM146 643q0 20 13 32.5t33 12.5q16 0 26.5 -10t10.5 -26q0 -20 -13.5 -33t-32.5 -13q-16 0 -26.5 10.5t-10.5 26.5z" />
    <glyph glyph-name="k" unicode="k" horiz-adv-x="463" 
d="M36 0l135 719h62l-83 -442l248 223h84l-280 -248l194 -252h-74l-180 234l-44 -234h-62z" />
    <glyph glyph-name="l" unicode="l" horiz-adv-x="229" 
d="M36 0l135 719h63l-135 -719h-63z" />
    <glyph glyph-name="m" unicode="m" horiz-adv-x="833" 
d="M36 0l94 500h62l-10 -50q71 62 151 62q44 0 79 -22t51 -59q86 81 174 81q58 0 97.5 -38.5t39.5 -95.5q0 -21 -5 -48l-62 -330h-62l62 328q4 24 4 39q0 40 -25.5 66t-67.5 26q-73 0 -143 -73l-72 -386h-62l62 328q4 24 4 39q0 40 -26 66t-68 26q-68 0 -143 -73l-71 -386
h-63z" />
    <glyph glyph-name="n" unicode="n" horiz-adv-x="545" 
d="M36 0l94 500h62l-10 -52q76 64 158 64q62 0 103.5 -39t41.5 -99q0 -19 -6 -51l-60 -323h-62l59 321q5 23 5 41q0 44 -27.5 70.5t-72.5 26.5q-73 0 -151 -75l-71 -384h-63z" />
    <glyph glyph-name="o" unicode="o" horiz-adv-x="545" 
d="M41 190q0 140 76 231t195 91q87 0 139.5 -55t52.5 -146q0 -141 -76 -232t-194 -91q-88 0 -140.5 55t-52.5 147zM106 198q0 -72 36 -115t97 -43q84 0 142.5 76.5t58.5 186.5q0 72 -36.5 114.5t-97.5 42.5q-83 0 -141.5 -76.5t-58.5 -185.5z" />
    <glyph glyph-name="p" unicode="p" horiz-adv-x="545" 
d="M-5 -219l135 719h62l-8 -44q65 56 140 56q80 0 130 -54t50 -142q0 -143 -72.5 -235.5t-185.5 -92.5q-73 0 -139 57l-49 -264h-63zM440 306q0 72 -34.5 112.5t-95.5 40.5q-68 0 -138 -67l-55 -294q61 -58 126 -58q84 0 140.5 76t56.5 190z" />
    <glyph glyph-name="q" unicode="q" horiz-adv-x="545" 
d="M509 500l-135 -719h-62l48 263q-67 -56 -139 -56q-80 0 -130 54.5t-50 142.5q0 142 73 234.5t185 92.5q72 0 139 -56l9 44h62zM106 195q0 -73 34 -114t95 -41q66 0 137 69l56 294q-59 56 -126 56q-85 0 -140.5 -75t-55.5 -189z" />
    <glyph glyph-name="r" unicode="r" horiz-adv-x="372" 
d="M36 0l94 500h62l-11 -56q70 68 147 68q34 0 59 -14l-11 -58q-29 16 -58 16q-77 0 -149 -81l-70 -375h-63z" />
    <glyph glyph-name="s" unicode="s" horiz-adv-x="411" 
d="M17 33l10 58q74 -52 138 -52q50 0 81.5 26t31.5 67q0 30 -21 52.5t-51 37.5t-60 32t-51 45.5t-21 68.5q0 64 47.5 104t123.5 40q69 0 137 -39l-10 -57q-66 45 -127 45q-48 0 -78.5 -24.5t-30.5 -64.5q0 -29 21 -50.5t51 -36.5t60 -31.5t51 -46.5t21 -71
q0 -65 -48.5 -106.5t-126.5 -41.5q-72 0 -148 45z" />
    <glyph glyph-name="t" unicode="t" horiz-adv-x="402" 
d="M257 641l-26 -141h179l-10 -50h-178l-59 -307q-3 -17 -3 -33q0 -32 20.5 -51t57.5 -19q40 0 91 28l-11 -60q-51 -20 -94 -20q-58 0 -92.5 31t-34.5 83q0 13 4 39l58 309h-99l9 50h99l26 141h63z" />
    <glyph glyph-name="u" unicode="u" horiz-adv-x="545" 
d="M508 500l-93 -500h-61l9 53q-76 -65 -158 -65q-62 0 -103 39.5t-41 98.5q0 24 5 52l60 322h63l-61 -320q-4 -19 -4 -41q0 -45 27.5 -71.5t72.5 -26.5q73 0 150 75l73 384h61z" />
    <glyph glyph-name="v" unicode="v" horiz-adv-x="474" 
d="M498 500l-286 -500h-49l-99 500h61l76 -413l229 413h68z" />
    <glyph glyph-name="w" unicode="w" horiz-adv-x="748" 
d="M768 500l-260 -500h-55l-50 419l-209 -419h-55l-71 500h59l51 -419l209 419h55l52 -419l209 419h65z" />
    <glyph glyph-name="x" unicode="x" horiz-adv-x="476" 
d="M-23 0l222 256l-120 244h68l97 -200l165 200h76l-212 -248l124 -252h-68l-100 208l-175 -208h-77z" />
    <glyph glyph-name="y" unicode="y" horiz-adv-x="474" 
d="M498 500l-411 -719h-64l137 234l-96 485h61l76 -413l229 413h68z" />
    <glyph glyph-name="z" unicode="z" horiz-adv-x="465" 
d="M-5 0l9 45l367 405h-276l10 50h353l-9 -45l-367 -405h296l-10 -50h-373z" />
    <glyph glyph-name="braceleft" unicode="{" horiz-adv-x="317" 
d="M374 719l-9 -49h-16q-43 0 -72 -23.5t-36 -66.5l-35 -188q-8 -42 -35.5 -71.5t-69.5 -40.5q63 -23 63 -98q0 -13 -4 -35l-28 -149q-4 -20 -4 -30q0 -35 20.5 -55t55.5 -20h15l-10 -49h-14q-60 0 -94.5 32.5t-34.5 88.5q0 11 4 37l28 149q4 22 4 35q0 29 -20 50t-49 21
h-10l10 49h10q35 0 65 28.5t38 71.5l35 188q11 59 56 92t114 33h23z" />
    <glyph glyph-name="bar" unicode="|" horiz-adv-x="250" 
d="M98 -250v1001h55v-1001h-55z" />
    <glyph glyph-name="braceright" unicode="}" horiz-adv-x="317" 
d="M-46 -156l9 49h16q43 0 71.5 24t36.5 67l35 187q18 89 106 112q-64 23 -64 98q0 13 4 35l27 149q5 27 5 30q0 35 -20.5 55t-55.5 20h-15l9 49h15q61 0 95 -32.5t34 -88.5q0 -20 -4 -37l-28 -149q-4 -22 -4 -35q0 -29 20 -50t48 -21h10l-8 -49h-10q-36 0 -66 -28t-38 -72
l-35 -188q-10 -58 -56 -91.5t-114 -33.5h-23z" />
    <glyph glyph-name="asciitilde" unicode="~" 
d="M48 212q0 68 36 110.5t94 42.5q33 0 65 -17.5t53 -39t47.5 -39t49.5 -17.5q35 0 57.5 27.5t22.5 71.5h54q0 -68 -36 -110.5t-94 -42.5q-33 0 -65 17.5t-53 39t-47.5 39t-49.5 17.5q-35 0 -57.5 -27.5t-22.5 -71.5h-54z" />
    <glyph glyph-name="uni00A0" unicode="&#xa0;" horiz-adv-x="250" 
 />
    <glyph glyph-name="exclamdown" unicode="&#xa1;" horiz-adv-x="257" 
d="M171 309l-94 -497h-61l92 497h63zM212 471q0 -21 -14 -35.5t-36 -14.5q-17 0 -29 12t-12 29q0 22 14.5 36t35.5 14q19 0 30 -11t11 -30z" />
    <glyph glyph-name="cent" unicode="&#xa2;" 
d="M234 -63l28 149q-70 14 -112 67.5t-42 130.5q0 131 70.5 220.5t181.5 99.5l27 147h54l-27 -147q61 -6 112 -41l-10 -57q-65 48 -130 48q-92 0 -153 -75t-61 -187q0 -71 40.5 -114.5t106.5 -43.5q68 0 135 41l-11 -62q-59 -28 -128 -31l-27 -145h-54z" />
    <glyph glyph-name="sterling" unicode="&#xa3;" 
d="M14 0l8 40l137 285h-76l9 50h91l100 210q54 115 167 115q55 0 115 -33l-11 -57q-51 36 -98 36q-74 0 -112 -79l-93 -192h161l-9 -50h-176l-131 -273h377l-10 -52h-449z" />
    <glyph glyph-name="currency" unicode="&#xa4;" 
d="M101 344q0 72 38 122l-91 91l38 38l91 -91q51 39 122 39t122 -39l91 91l38 -38l-91 -91q39 -53 39 -122q0 -71 -39 -122l91 -91l-38 -38l-92 91q-49 -38 -121 -38t-122 38l-91 -91l-38 38l91 91q-38 50 -38 122zM154 344q0 -64 40.5 -104.5t104.5 -40.5t105 40.5
t41 104.5t-40.5 105t-105.5 41q-64 0 -104.5 -41t-40.5 -105z" />
    <glyph glyph-name="yen" unicode="&#xa5;" 
d="M196 0l30 158h-159l9 47h159l20 104h-159l8 47h144l-143 332h69l124 -300l237 300h78l-267 -332h140l-8 -47h-159l-20 -104h160l-10 -47h-158l-30 -158h-65z" />
    <glyph glyph-name="brokenbar" unicode="&#xa6;" horiz-adv-x="250" 
d="M98 313v375h55v-375h-55zM98 -188v376h55v-376h-55z" />
    <glyph glyph-name="section" unicode="&#xa7;" horiz-adv-x="477" 
d="M5 -86l12 62q84 -60 154 -60q59 0 94 29t35 78q0 29 -17 52t-42.5 36.5t-55.5 31t-55.5 35t-42.5 48.5t-17 72q0 93 94 152q-35 36 -35 91q0 70 52.5 114.5t136.5 44.5q78 0 152 -43l-10 -61q-76 51 -142 51q-56 0 -90.5 -28.5t-34.5 -74.5q0 -33 23.5 -57.5t57.5 -41.5
t68 -37t57.5 -55t23.5 -84q0 -95 -92 -150q34 -41 34 -93q0 -72 -53.5 -117.5t-140.5 -45.5q-78 0 -166 51zM207 414q-75 -45 -75 -114q0 -22 8 -40t26 -32.5t33 -23.5t44 -24t45 -25q73 41 73 112q0 24 -8 42t-25.5 32.5t-33 24t-43.5 24.5t-44 24z" />
    <glyph glyph-name="dieresis" unicode="&#xa8;" horiz-adv-x="250" 
d="M58 643q0 20 13 32.5t33 12.5q16 0 26 -10t10 -26q0 -19 -13 -32.5t-32 -13.5q-16 0 -26.5 10.5t-10.5 26.5zM256 643q0 19 13 32t33 13q16 0 26 -10t10 -26q0 -20 -13 -33t-33 -13q-16 0 -26 10.5t-10 26.5z" />
    <glyph glyph-name="copyright" unicode="&#xa9;" horiz-adv-x="845" 
d="M81 344q0 158 100.5 259t258.5 101t259 -101t101 -259t-101 -259t-259 -101t-258.5 101t-100.5 259zM127 344q0 -138 88 -226t225 -88q138 0 226 88t88 226t-88 226t-226 88q-137 0 -225 -88t-88 -226zM258 344q0 92 55 151t141 59q61 0 112 -30v-51q-56 35 -105 35
q-64 0 -105 -46t-41 -118t41 -117.5t105 -45.5q51 0 105 34v-51q-54 -30 -112 -30q-86 0 -141 59t-55 151z" />
    <glyph glyph-name="ordfeminine" unicode="&#xaa;" horiz-adv-x="358" 
d="M47 261l8 41h268l-9 -41h-267zM385 688l-58 -313h-52l5 26q-41 -33 -85 -33q-50 0 -81 34.5t-31 90.5q0 88 45.5 145.5t115.5 57.5q44 0 83 -34l5 26h53zM137 500q0 -41 19 -64t54 -23q38 0 78 38l31 168q-32 31 -71 31q-48 0 -79.5 -42.5t-31.5 -107.5z" />
    <glyph glyph-name="guillemotleft" unicode="&#xab;" horiz-adv-x="577" 
d="M565 456l-221 -208l141 -203h-63l-161 207l232 204h72zM357 456l-221 -208l141 -203h-64l-161 207l231 204h74z" />
    <glyph glyph-name="logicalnot" unicode="&#xac;" 
d="M37 254v55h501v-278h-54v223h-447z" />
    <glyph glyph-name="uni00AD" unicode="&#xad;" horiz-adv-x="313" 
d="M32 230l10 49h239l-10 -49h-239z" />
    <glyph glyph-name="registered" unicode="&#xae;" horiz-adv-x="500" 
d="M79 485q0 95 60.5 155t154.5 60t154.5 -60t60.5 -155t-60.5 -155t-154.5 -60t-154.5 60t-60.5 155zM113 485q0 -79 50.5 -130t130.5 -51t130.5 51t50.5 130t-50.5 130t-130.5 51t-130.5 -51t-50.5 -130zM261 572v-86h34q21 0 33.5 12.5t12.5 30.5q0 19 -12.5 31t-33.5 12
h-34zM223 368v234h78q35 0 57 -20.5t22 -52.5q0 -50 -50 -68l57 -93h-41l-53 88h-32v-88h-38z" />
    <glyph glyph-name="macron" unicode="&#xaf;" horiz-adv-x="250" 
d="M49 624l10 47h290l-9 -47h-291z" />
    <glyph glyph-name="degree" unicode="&#xb0;" horiz-adv-x="348" 
d="M110 582q0 52 33.5 85t85.5 33q51 0 84 -33t33 -85t-33 -85t-84 -33q-52 0 -85.5 33t-33.5 85zM156 582q0 -32 20.5 -52.5t52.5 -20.5q31 0 51.5 20.5t20.5 52.5t-20.5 52.5t-51.5 20.5q-32 0 -52.5 -20.5t-20.5 -52.5z" />
    <glyph glyph-name="plusminus" unicode="&#xb1;" 
d="M37 340v54h223v223h55v-223h223v-54h-223v-224h-55v224h-223zM37 0v54h501v-54h-501z" />
    <glyph glyph-name="twosuperior" unicode="&#xb2;" horiz-adv-x="307" 
d="M51 407l7 39q234 166 234 260q0 31 -18 49t-48 18q-53 0 -104 -38l10 57q52 28 107 28q49 0 79.5 -29t30.5 -76q0 -56 -52.5 -118.5t-160.5 -143.5h172l-8 -46h-249z" />
    <glyph glyph-name="threesuperior" unicode="&#xb3;" horiz-adv-x="303" 
d="M159 592l9 43h22q42 0 71 23.5t29 57.5q0 26 -19.5 42.5t-49.5 16.5q-43 0 -94 -27l9 52q48 20 96 20q49 0 80.5 -27t31.5 -70q0 -38 -25.5 -69t-65.5 -42q31 -9 48.5 -32.5t17.5 -55.5q0 -54 -43 -89t-108 -35q-58 0 -110 32l8 49q52 -36 101 -36q41 0 68.5 23t27.5 57
q0 30 -23.5 48.5t-60.5 18.5h-20z" />
    <glyph glyph-name="acute" unicode="&#xb4;" horiz-adv-x="250" 
d="M142 575l128 144h72l-140 -144h-60z" />
    <glyph glyph-name="mu" unicode="&#xb5;" horiz-adv-x="549" 
d="M-5 -219l135 719h63l-61 -320q-4 -19 -4 -41q0 -45 27.5 -71.5t72.5 -26.5q73 0 151 75l72 384h61l-93 -500h-61l9 53q-73 -64 -153 -64q-67 0 -108 52l-48 -260h-63z" />
    <glyph glyph-name="paragraph" unicode="&#xb6;" horiz-adv-x="567" 
d="M314 306h-47q-83 0 -133 43.5t-50 115.5q0 97 70 160t179 63h212l-151 -813h-54l141 759h-105z" />
    <glyph glyph-name="periodcentered" unicode="&#xb7;" horiz-adv-x="250" 
d="M80 246q0 22 14 36t36 14q17 0 28.5 -11.5t11.5 -29.5q0 -21 -14 -35.5t-36 -14.5q-17 0 -28.5 11.5t-11.5 29.5z" />
    <glyph glyph-name="cedilla" unicode="&#xb8;" horiz-adv-x="250" 
d="M111 0l-26 -62q27 -6 43.5 -26t16.5 -46q0 -41 -34 -69t-84 -28q-39 0 -80 24l9 45q35 -24 71 -24q28 0 45.5 14.5t17.5 36.5q0 21 -17.5 34t-45.5 13h-4l39 88h49z" />
    <glyph glyph-name="onesuperior" unicode="&#xb9;" horiz-adv-x="246" 
d="M155 407l64 345l-113 -52l10 52l132 61h38l-76 -406h-55z" />
    <glyph glyph-name="ordmasculine" unicode="&#xba;" horiz-adv-x="358" 
d="M47 261l8 41h268l-9 -41h-267zM83 496q0 87 48.5 143.5t124.5 56.5q56 0 90.5 -35.5t34.5 -92.5q0 -87 -49 -143.5t-125 -56.5q-56 0 -90 35t-34 93zM137 501q0 -41 20.5 -65t55.5 -24q47 0 80 44t33 107q0 40 -20.5 64t-54.5 24q-48 0 -81 -43.5t-33 -106.5z" />
    <glyph glyph-name="guillemotright" unicode="&#xbb;" horiz-adv-x="577" 
d="M12 45l221 207l-141 204h64l161 -208l-232 -203h-73zM221 45l221 207l-141 204h63l161 -208l-231 -203h-73z" />
    <glyph glyph-name="onequarter" unicode="&#xbc;" horiz-adv-x="845" 
d="M181 282l64 345l-113 -52l10 52l132 61h38l-76 -406h-55zM88 0l642 688h61l-641 -688h-62zM658 0l21 110h-183l7 39l237 257h47l-48 -253h63l-8 -43h-63l-20 -110h-53zM560 153h127l32 171z" />
    <glyph glyph-name="onehalf" unicode="&#xbd;" horiz-adv-x="845" 
d="M88 0l642 688h61l-641 -688h-62zM494 0l7 39q234 166 234 260q0 31 -18 49t-48 18q-53 0 -104 -38l10 57q52 28 107 28q49 0 79.5 -29t30.5 -76q0 -56 -52.5 -118.5t-160.5 -143.5h172l-8 -46h-249zM181 282l64 345l-113 -52l10 52l132 61h38l-76 -406h-55z" />
    <glyph glyph-name="threequarters" unicode="&#xbe;" horiz-adv-x="845" 
d="M157 467l9 43h22q42 0 71 23.5t29 57.5q0 26 -19.5 42.5t-49.5 16.5q-43 0 -94 -27l9 52q48 20 96 20q49 0 80.5 -27t31.5 -70q0 -38 -25.5 -69t-65.5 -42q31 -9 48.5 -32.5t17.5 -55.5q0 -54 -43 -89t-108 -35q-58 0 -110 32l8 49q52 -36 101 -36q41 0 68.5 23t27.5 57
q0 30 -23.5 48.5t-60.5 18.5h-20zM88 0l642 688h61l-641 -688h-62zM658 0l21 110h-183l7 39l237 257h47l-48 -253h63l-8 -43h-63l-20 -110h-53zM560 153h127l32 171z" />
    <glyph glyph-name="questiondown" unicode="&#xbf;" horiz-adv-x="441" 
d="M293 309l-5 -22q-10 -46 -36.5 -85t-55.5 -65.5t-57 -51.5t-46.5 -56.5t-18.5 -68.5q0 -48 30 -77t79 -29q77 0 158 63l-13 -70q-72 -46 -158 -46q-71 0 -117 43t-46 109q0 39 14.5 73t36 58t48.5 49.5t51.5 47t44.5 52t28 63.5l3 13h60zM331 472q0 -22 -14.5 -36
t-35.5 -14q-18 0 -30 11.5t-12 29.5q0 21 14.5 35.5t35.5 14.5q18 0 30 -11.5t12 -29.5z" />
    <glyph glyph-name="Agrave" unicode="&#xc0;" horiz-adv-x="615" 
d="M-21 0l391 688h50l137 -688h-62l-40 208h-291l-117 -208h-68zM381 596l-188 -337h253zM398 763l-84 144h63l72 -144h-51z" />
    <glyph glyph-name="Aacute" unicode="&#xc1;" horiz-adv-x="615" 
d="M-21 0l391 688h50l137 -688h-62l-40 208h-291l-117 -208h-68zM381 596l-188 -337h253zM364 763l128 144h72l-140 -144h-60z" />
    <glyph glyph-name="Acircumflex" unicode="&#xc2;" horiz-adv-x="615" 
d="M-21 0l391 688h50l137 -688h-62l-40 208h-291l-117 -208h-68zM381 596l-188 -337h253zM279 763l128 144h52l71 -144h-49l-55 94l-89 -94h-58z" />
    <glyph glyph-name="Atilde" unicode="&#xc3;" horiz-adv-x="615" 
d="M-21 0l391 688h50l137 -688h-62l-40 208h-291l-117 -208h-68zM381 596l-188 -337h253zM270 793q8 42 33.5 68.5t62.5 26.5q28 0 62.5 -28.5t49.5 -28.5q18 0 31.5 12.5t17.5 33.5h45q-7 -42 -33 -68t-62 -26q-29 0 -63.5 28.5t-49.5 28.5q-18 0 -31.5 -13t-16.5 -34h-46z
" />
    <glyph glyph-name="Adieresis" unicode="&#xc4;" horiz-adv-x="615" 
d="M-21 0l391 688h50l137 -688h-62l-40 208h-291l-117 -208h-68zM381 596l-188 -337h253zM280 831q0 20 13 32.5t33 12.5q16 0 26 -10t10 -26q0 -19 -13 -32.5t-32 -13.5q-16 0 -26.5 10.5t-10.5 26.5zM478 831q0 19 13 32t33 13q16 0 26 -10t10 -26q0 -20 -13 -33t-33 -13
q-16 0 -26 10.5t-10 26.5z" />
    <glyph glyph-name="Aring" unicode="&#xc5;" horiz-adv-x="615" 
d="M-21 0l391 688h50l137 -688h-62l-40 208h-291l-117 -208h-68zM381 596l-188 -337h253zM328 826q0 44 29 73t73 29q37 0 60 -23.5t23 -59.5q0 -44 -29 -73t-72 -29q-37 0 -60.5 23t-23.5 60zM367 830q0 -21 13.5 -35t35.5 -14q25 0 42 17t17 42q0 22 -13.5 35.5
t-35.5 13.5q-25 0 -42 -17t-17 -42z" />
    <glyph glyph-name="AE" unicode="&#xc6;" horiz-adv-x="888" 
d="M402 0l38 206h-254l-169 -206h-75l569 688h397l-10 -52h-312l-49 -261h274l-10 -51h-274l-51 -272h320l-9 -52h-385zM516 608l-288 -351h222z" />
    <glyph glyph-name="Ccedilla" unicode="&#xc7;" horiz-adv-x="601" 
d="M64 260q0 191 105 315.5t266 124.5q100 0 189 -59l-12 -61q-86 66 -175 66q-131 0 -218.5 -108t-87.5 -269q0 -101 57 -164t150 -63q97 0 184 55l-12 -66q-82 -43 -179 -43l-21 -50q27 -6 44 -26t17 -46q0 -41 -34 -69t-85 -28q-40 0 -79 24l9 45q34 -24 70 -24
q28 0 46 14t18 37q0 21 -17.5 34t-46.5 13h-3l34 80q-99 15 -159 88t-60 180z" />
    <glyph glyph-name="Egrave" unicode="&#xc8;" horiz-adv-x="543" 
d="M56 0l129 688h378l-10 -52h-313l-49 -261h274l-9 -51h-275l-51 -272h321l-9 -52h-386zM373 763l-84 144h63l72 -144h-51z" />
    <glyph glyph-name="Eacute" unicode="&#xc9;" horiz-adv-x="543" 
d="M56 0l129 688h378l-10 -52h-313l-49 -261h274l-9 -51h-275l-51 -272h321l-9 -52h-386zM339 763l128 144h72l-140 -144h-60z" />
    <glyph glyph-name="Ecircumflex" unicode="&#xca;" horiz-adv-x="543" 
d="M56 0l129 688h378l-10 -52h-313l-49 -261h274l-9 -51h-275l-51 -272h321l-9 -52h-386zM254 763l128 144h52l71 -144h-49l-55 94l-89 -94h-58z" />
    <glyph glyph-name="Edieresis" unicode="&#xcb;" horiz-adv-x="543" 
d="M56 0l129 688h378l-10 -52h-313l-49 -261h274l-9 -51h-275l-51 -272h321l-9 -52h-386zM255 831q0 20 13 32.5t33 12.5q16 0 26 -10t10 -26q0 -19 -13 -32.5t-32 -13.5q-16 0 -26.5 10.5t-10.5 26.5zM453 831q0 19 13 32t33 13q16 0 26 -10t10 -26q0 -20 -13 -33t-33 -13
q-16 0 -26 10.5t-10 26.5z" />
    <glyph glyph-name="Igrave" unicode="&#xcc;" horiz-adv-x="270" 
d="M56 0l129 688h65l-130 -688h-64zM221 763l-84 144h63l72 -144h-51z" />
    <glyph glyph-name="Iacute" unicode="&#xcd;" horiz-adv-x="270" 
d="M56 0l129 688h65l-130 -688h-64zM187 763l128 144h72l-140 -144h-60z" />
    <glyph glyph-name="Icircumflex" unicode="&#xce;" horiz-adv-x="270" 
d="M56 0l129 688h65l-130 -688h-64zM102 763l128 144h52l71 -144h-49l-55 94l-89 -94h-58z" />
    <glyph glyph-name="Idieresis" unicode="&#xcf;" horiz-adv-x="270" 
d="M56 0l129 688h65l-130 -688h-64zM103 831q0 20 13 32.5t33 12.5q16 0 26 -10t10 -26q0 -19 -13 -32.5t-32 -13.5q-16 0 -26.5 10.5t-10.5 26.5zM301 831q0 19 13 32t33 13q16 0 26 -10t10 -26q0 -20 -13 -33t-33 -13q-16 0 -26 10.5t-10 26.5z" />
    <glyph glyph-name="Eth" unicode="&#xd0;" horiz-adv-x="693" 
d="M43 326l10 48h89l58 314h181q126 0 204.5 -72t78.5 -188q0 -198 -104.5 -313t-283.5 -115h-205l62 326h-90zM255 636l-49 -262h167l-9 -48h-167l-51 -274h135q142 0 229 101t87 267q0 101 -60.5 158.5t-168.5 57.5h-113z" />
    <glyph glyph-name="Ntilde" unicode="&#xd1;" horiz-adv-x="709" 
d="M56 0l129 688h54l279 -578l108 578h62l-129 -688h-54l-278 578l-108 -578h-63zM313 793q8 42 33.5 68.5t62.5 26.5q28 0 62.5 -28.5t49.5 -28.5q18 0 31.5 12.5t17.5 33.5h45q-7 -42 -33 -68t-62 -26q-29 0 -63.5 28.5t-49.5 28.5q-18 0 -31.5 -13t-16.5 -34h-46z" />
    <glyph glyph-name="Ograve" unicode="&#xd2;" horiz-adv-x="709" 
d="M64 260q0 190 103 315t258 125q116 0 185.5 -74t69.5 -198q0 -190 -102.5 -315t-257.5 -125q-117 0 -186.5 74t-69.5 198zM131 268q0 -104 52.5 -165t141.5 -61q120 0 204 109.5t84 268.5q0 104 -52.5 165t-141.5 61q-120 0 -204 -109.5t-84 -268.5zM441 763l-84 144h63
l72 -144h-51z" />
    <glyph glyph-name="Oacute" unicode="&#xd3;" horiz-adv-x="709" 
d="M64 260q0 190 103 315t258 125q116 0 185.5 -74t69.5 -198q0 -190 -102.5 -315t-257.5 -125q-117 0 -186.5 74t-69.5 198zM131 268q0 -104 52.5 -165t141.5 -61q120 0 204 109.5t84 268.5q0 104 -52.5 165t-141.5 61q-120 0 -204 -109.5t-84 -268.5zM407 763l128 144h72
l-140 -144h-60z" />
    <glyph glyph-name="Ocircumflex" unicode="&#xd4;" horiz-adv-x="709" 
d="M64 260q0 190 103 315t258 125q116 0 185.5 -74t69.5 -198q0 -190 -102.5 -315t-257.5 -125q-117 0 -186.5 74t-69.5 198zM131 268q0 -104 52.5 -165t141.5 -61q120 0 204 109.5t84 268.5q0 104 -52.5 165t-141.5 61q-120 0 -204 -109.5t-84 -268.5zM322 763l128 144h52
l71 -144h-49l-55 94l-89 -94h-58z" />
    <glyph glyph-name="Otilde" unicode="&#xd5;" horiz-adv-x="709" 
d="M64 260q0 190 103 315t258 125q116 0 185.5 -74t69.5 -198q0 -190 -102.5 -315t-257.5 -125q-117 0 -186.5 74t-69.5 198zM131 268q0 -104 52.5 -165t141.5 -61q120 0 204 109.5t84 268.5q0 104 -52.5 165t-141.5 61q-120 0 -204 -109.5t-84 -268.5zM313 793
q8 42 33.5 68.5t62.5 26.5q28 0 62.5 -28.5t49.5 -28.5q18 0 31.5 12.5t17.5 33.5h45q-7 -42 -33 -68t-62 -26q-29 0 -63.5 28.5t-49.5 28.5q-18 0 -31.5 -13t-16.5 -34h-46z" />
    <glyph glyph-name="Odieresis" unicode="&#xd6;" horiz-adv-x="709" 
d="M64 260q0 190 103 315t258 125q116 0 185.5 -74t69.5 -198q0 -190 -102.5 -315t-257.5 -125q-117 0 -186.5 74t-69.5 198zM131 268q0 -104 52.5 -165t141.5 -61q120 0 204 109.5t84 268.5q0 104 -52.5 165t-141.5 61q-120 0 -204 -109.5t-84 -268.5zM323 831
q0 20 13 32.5t33 12.5q16 0 26 -10t10 -26q0 -19 -13 -32.5t-32 -13.5q-16 0 -26.5 10.5t-10.5 26.5zM521 831q0 19 13 32t33 13q16 0 26 -10t10 -26q0 -20 -13 -33t-33 -13q-16 0 -26 10.5t-10 26.5z" />
    <glyph glyph-name="multiply" unicode="&#xd7;" 
d="M108 63l-39 39l180 180l-180 179l39 39l180 -180l179 180l39 -39l-180 -179l180 -180l-39 -39l-179 180z" />
    <glyph glyph-name="Oslash" unicode="&#xd8;" horiz-adv-x="709" 
d="M64 260q0 190 103 315t258 125q115 0 181 -71l55 59h63l-88 -95q44 -68 44 -165q0 -190 -102.5 -315t-257.5 -125q-113 0 -182 71l-55 -59h-63l88 95q-44 70 -44 165zM613 420q0 70 -25 122l-406 -436q50 -64 143 -64q120 0 204 109.5t84 268.5zM131 268q0 -70 25 -122
l407 436q-52 64 -144 64q-120 0 -204 -109.5t-84 -268.5z" />
    <glyph glyph-name="Ugrave" unicode="&#xd9;" horiz-adv-x="709" 
d="M692 688l-86 -459q-21 -111 -98 -176t-188 -65q-97 0 -161 58.5t-64 148.5q0 27 7 69l79 424h65l-80 -424q-7 -37 -7 -62q0 -70 46.5 -115t119.5 -45q84 0 142.5 52t75.5 141l85 453h64zM441 763l-84 144h63l72 -144h-51z" />
    <glyph glyph-name="Uacute" unicode="&#xda;" horiz-adv-x="709" 
d="M692 688l-86 -459q-21 -111 -98 -176t-188 -65q-97 0 -161 58.5t-64 148.5q0 27 7 69l79 424h65l-80 -424q-7 -37 -7 -62q0 -70 46.5 -115t119.5 -45q84 0 142.5 52t75.5 141l85 453h64zM407 763l128 144h72l-140 -144h-60z" />
    <glyph glyph-name="Ucircumflex" unicode="&#xdb;" horiz-adv-x="709" 
d="M692 688l-86 -459q-21 -111 -98 -176t-188 -65q-97 0 -161 58.5t-64 148.5q0 27 7 69l79 424h65l-80 -424q-7 -37 -7 -62q0 -70 46.5 -115t119.5 -45q84 0 142.5 52t75.5 141l85 453h64zM322 763l128 144h52l71 -144h-49l-55 94l-89 -94h-58z" />
    <glyph glyph-name="Udieresis" unicode="&#xdc;" horiz-adv-x="709" 
d="M692 688l-86 -459q-21 -111 -98 -176t-188 -65q-97 0 -161 58.5t-64 148.5q0 27 7 69l79 424h65l-80 -424q-7 -37 -7 -62q0 -70 46.5 -115t119.5 -45q84 0 142.5 52t75.5 141l85 453h64zM323 831q0 20 13 32.5t33 12.5q16 0 26 -10t10 -26q0 -19 -13 -32.5t-32 -13.5
q-16 0 -26.5 10.5t-10.5 26.5zM521 831q0 19 13 32t33 13q16 0 26 -10t10 -26q0 -20 -13 -33t-33 -13q-16 0 -26 10.5t-10 26.5z" />
    <glyph glyph-name="Yacute" unicode="&#xdd;" horiz-adv-x="570" 
d="M200 0l57 301l-167 387h69l137 -331l261 331h79l-315 -392l-57 -296h-64zM332 763l128 144h72l-140 -144h-60z" />
    <glyph glyph-name="Thorn" unicode="&#xde;" horiz-adv-x="569" 
d="M56 0l129 688h64l-25 -132h120q91 0 146.5 -48t55.5 -127q0 -106 -77.5 -175t-195.5 -69h-128l-26 -137h-63zM214 504l-59 -315h118q92 0 149 50.5t57 132.5q0 61 -41 96.5t-112 35.5h-112z" />
    <glyph glyph-name="germandbls" unicode="&#xdf;" horiz-adv-x="626" 
d="M240 33l11 58q74 -52 137 -52q51 0 82 26t31 67q0 28 -19.5 51t-47 39.5t-55 35t-47 47t-19.5 64.5q0 37 19 69.5t41.5 52t41.5 47t19 54.5q0 38 -27.5 62.5t-71.5 24.5q-52 0 -86 -29.5t-44 -82.5l-133 -708h-62l134 716q13 72 65 114t126 42q73 0 117.5 -36.5
t44.5 -97.5q0 -37 -19 -69t-42 -52t-42 -47t-19 -54t19.5 -49.5t47 -39t55.5 -35t47.5 -47.5t19.5 -67q0 -66 -49 -107.5t-127 -41.5q-70 0 -148 45z" />
    <glyph glyph-name="agrave" unicode="&#xe0;" horiz-adv-x="545" 
d="M509 500l-94 -500h-61l7 45q-68 -57 -140 -57q-80 0 -130 54.5t-50 142.5q0 142 73 234.5t185 92.5q72 0 139 -56l9 44h62zM106 195q0 -73 34 -114t95 -41q66 0 137 69l56 294q-59 56 -126 56q-85 0 -140.5 -75t-55.5 -189zM324 575l-84 144h63l72 -144h-51z" />
    <glyph glyph-name="aacute" unicode="&#xe1;" horiz-adv-x="545" 
d="M509 500l-94 -500h-61l7 45q-68 -57 -140 -57q-80 0 -130 54.5t-50 142.5q0 142 73 234.5t185 92.5q72 0 139 -56l9 44h62zM106 195q0 -73 34 -114t95 -41q66 0 137 69l56 294q-59 56 -126 56q-85 0 -140.5 -75t-55.5 -189zM290 575l128 144h72l-140 -144h-60z" />
    <glyph glyph-name="acircumflex" unicode="&#xe2;" horiz-adv-x="545" 
d="M509 500l-94 -500h-61l7 45q-68 -57 -140 -57q-80 0 -130 54.5t-50 142.5q0 142 73 234.5t185 92.5q72 0 139 -56l9 44h62zM106 195q0 -73 34 -114t95 -41q66 0 137 69l56 294q-59 56 -126 56q-85 0 -140.5 -75t-55.5 -189zM205 575l128 144h52l71 -144h-49l-55 94
l-89 -94h-58z" />
    <glyph glyph-name="atilde" unicode="&#xe3;" horiz-adv-x="545" 
d="M509 500l-94 -500h-61l7 45q-68 -57 -140 -57q-80 0 -130 54.5t-50 142.5q0 142 73 234.5t185 92.5q72 0 139 -56l9 44h62zM106 195q0 -73 34 -114t95 -41q66 0 137 69l56 294q-59 56 -126 56q-85 0 -140.5 -75t-55.5 -189zM196 605q8 42 33.5 68.5t62.5 26.5
q28 0 62.5 -28.5t49.5 -28.5q18 0 31.5 12.5t17.5 33.5h45q-7 -42 -33 -68t-62 -26q-29 0 -63.5 28.5t-49.5 28.5q-18 0 -31.5 -13t-16.5 -34h-46z" />
    <glyph glyph-name="adieresis" unicode="&#xe4;" horiz-adv-x="545" 
d="M509 500l-94 -500h-61l7 45q-68 -57 -140 -57q-80 0 -130 54.5t-50 142.5q0 142 73 234.5t185 92.5q72 0 139 -56l9 44h62zM106 195q0 -73 34 -114t95 -41q66 0 137 69l56 294q-59 56 -126 56q-85 0 -140.5 -75t-55.5 -189zM206 643q0 20 13 32.5t33 12.5q16 0 26 -10
t10 -26q0 -19 -13 -32.5t-32 -13.5q-16 0 -26.5 10.5t-10.5 26.5zM404 643q0 19 13 32t33 13q16 0 26 -10t10 -26q0 -20 -13 -33t-33 -13q-16 0 -26 10.5t-10 26.5z" />
    <glyph glyph-name="aring" unicode="&#xe5;" horiz-adv-x="545" 
d="M509 500l-94 -500h-61l7 45q-68 -57 -140 -57q-80 0 -130 54.5t-50 142.5q0 142 73 234.5t185 92.5q72 0 139 -56l9 44h62zM106 195q0 -73 34 -114t95 -41q66 0 137 69l56 294q-59 56 -126 56q-85 0 -140.5 -75t-55.5 -189zM254 638q0 44 29 73t73 29q37 0 60 -23.5
t23 -59.5q0 -44 -29 -73t-72 -29q-37 0 -60.5 23t-23.5 60zM293 642q0 -21 13.5 -35t35.5 -14q25 0 42 17t17 42q0 22 -13.5 35.5t-35.5 13.5q-25 0 -42 -17t-17 -42z" />
    <glyph glyph-name="ae" unicode="&#xe6;" horiz-adv-x="806" 
d="M364 294l8 37q3 18 3 36q0 42 -28.5 68t-73.5 26q-73 0 -153 -41l11 59q78 33 151 33q51 0 89.5 -23t54.5 -64q70 87 186 87q72 0 117.5 -50t45.5 -129q0 -48 -11 -95h-348q-2 -13 -2 -39q0 -71 41 -115.5t106 -44.5q76 0 150 48l-12 -64q-72 -35 -150 -35
q-52 0 -95.5 23.5t-70.5 65.5q-106 -89 -207 -89q-70 0 -112 34.5t-42 93.5q0 80 71.5 132t180.5 52q45 0 90 -6zM85 122q0 -38 28 -61t76 -23q90 0 173 83q-10 34 -10 72q0 31 4 56q-35 5 -82 5q-83 0 -136 -37t-53 -95zM424 285h285q4 21 4 46q0 58 -29.5 94t-78.5 36
q-65 0 -113.5 -47t-67.5 -129z" />
    <glyph glyph-name="ccedilla" unicode="&#xe7;" horiz-adv-x="464" 
d="M41 190q0 139 78.5 230.5t198.5 91.5q75 0 142 -43l-11 -57q-63 48 -129 48q-92 0 -153 -74.5t-61 -186.5q0 -72 40 -115.5t106 -43.5q68 0 135 41l-11 -61q-58 -29 -125 -32l-21 -50q27 -6 44 -26t17 -46q0 -41 -34 -69t-85 -28q-40 0 -79 24l9 45q34 -24 70 -24
q28 0 45.5 14t17.5 37q0 21 -17.5 34t-45.5 13h-4l35 80q-73 11 -117.5 65t-44.5 133z" />
    <glyph glyph-name="egrave" unicode="&#xe8;" horiz-adv-x="497" 
d="M41 193q0 142 72.5 230.5t188.5 88.5q72 0 117.5 -50t45.5 -129q0 -53 -10 -95h-348q-3 -20 -3 -39q0 -71 41.5 -115.5t106.5 -44.5q76 0 149 48l-11 -64q-73 -35 -150 -35q-86 0 -142.5 58t-56.5 147zM115 285h286q4 21 4 46q0 58 -30 94t-79 36q-65 0 -113.5 -47
t-67.5 -129zM319 575l-84 144h63l72 -144h-51z" />
    <glyph glyph-name="eacute" unicode="&#xe9;" horiz-adv-x="497" 
d="M41 193q0 142 72.5 230.5t188.5 88.5q72 0 117.5 -50t45.5 -129q0 -53 -10 -95h-348q-3 -20 -3 -39q0 -71 41.5 -115.5t106.5 -44.5q76 0 149 48l-11 -64q-73 -35 -150 -35q-86 0 -142.5 58t-56.5 147zM115 285h286q4 21 4 46q0 58 -30 94t-79 36q-65 0 -113.5 -47
t-67.5 -129zM285 575l128 144h72l-140 -144h-60z" />
    <glyph glyph-name="ecircumflex" unicode="&#xea;" horiz-adv-x="497" 
d="M41 193q0 142 72.5 230.5t188.5 88.5q72 0 117.5 -50t45.5 -129q0 -53 -10 -95h-348q-3 -20 -3 -39q0 -71 41.5 -115.5t106.5 -44.5q76 0 149 48l-11 -64q-73 -35 -150 -35q-86 0 -142.5 58t-56.5 147zM115 285h286q4 21 4 46q0 58 -30 94t-79 36q-65 0 -113.5 -47
t-67.5 -129zM200 575l128 144h52l71 -144h-49l-55 94l-89 -94h-58z" />
    <glyph glyph-name="edieresis" unicode="&#xeb;" horiz-adv-x="497" 
d="M41 193q0 142 72.5 230.5t188.5 88.5q72 0 117.5 -50t45.5 -129q0 -53 -10 -95h-348q-3 -20 -3 -39q0 -71 41.5 -115.5t106.5 -44.5q76 0 149 48l-11 -64q-73 -35 -150 -35q-86 0 -142.5 58t-56.5 147zM115 285h286q4 21 4 46q0 58 -30 94t-79 36q-65 0 -113.5 -47
t-67.5 -129zM201 643q0 20 13 32.5t33 12.5q16 0 26 -10t10 -26q0 -19 -13 -32.5t-32 -13.5q-16 0 -26.5 10.5t-10.5 26.5zM399 643q0 19 13 32t33 13q16 0 26 -10t10 -26q0 -20 -13 -33t-33 -13q-16 0 -26 10.5t-10 26.5z" />
    <glyph glyph-name="igrave" unicode="&#xec;" horiz-adv-x="229" 
d="M36 0l94 500h63l-94 -500h-63zM165 575l-84 144h63l72 -144h-51z" />
    <glyph glyph-name="iacute" unicode="&#xed;" horiz-adv-x="229" 
d="M36 0l94 500h63l-94 -500h-63zM131 575l128 144h72l-140 -144h-60z" />
    <glyph glyph-name="icircumflex" unicode="&#xee;" horiz-adv-x="229" 
d="M36 0l94 500h63l-94 -500h-63zM46 575l128 144h52l71 -144h-49l-55 94l-89 -94h-58z" />
    <glyph glyph-name="idieresis" unicode="&#xef;" horiz-adv-x="229" 
d="M36 0l94 500h63l-94 -500h-63zM47 643q0 20 13 32.5t33 12.5q16 0 26 -10t10 -26q0 -19 -13 -32.5t-32 -13.5q-16 0 -26.5 10.5t-10.5 26.5zM245 643q0 19 13 32t33 13q16 0 26 -10t10 -26q0 -20 -13 -33t-33 -13q-16 0 -26 10.5t-10 26.5z" />
    <glyph glyph-name="eth" unicode="&#xf0;" horiz-adv-x="545" 
d="M41 190q0 139 75 230.5t188 91.5q63 0 123 -44q-31 87 -85 152l-137 -48l11 51l95 33q-27 28 -70 63h85q16 -13 45 -42l116 40l-9 -51l-76 -26q105 -131 105 -295q0 -157 -77 -257t-199 -100q-83 0 -136.5 56.5t-53.5 145.5zM106 198q0 -72 36 -115t97 -43
q87 0 145.5 82.5t58.5 202.5q0 42 -4 75q-63 60 -136 60q-82 0 -139.5 -77t-57.5 -185z" />
    <glyph glyph-name="ntilde" unicode="&#xf1;" horiz-adv-x="545" 
d="M36 0l94 500h62l-10 -52q76 64 158 64q62 0 103.5 -39t41.5 -99q0 -19 -6 -51l-60 -323h-62l59 321q5 23 5 41q0 44 -27.5 70.5t-72.5 26.5q-73 0 -151 -75l-71 -384h-63zM198 605q8 42 33.5 68.5t62.5 26.5q28 0 62.5 -28.5t49.5 -28.5q18 0 31.5 12.5t17.5 33.5h45
q-7 -42 -33 -68t-62 -26q-29 0 -63.5 28.5t-49.5 28.5q-18 0 -31.5 -13t-16.5 -34h-46z" />
    <glyph glyph-name="ograve" unicode="&#xf2;" horiz-adv-x="545" 
d="M41 190q0 140 76 231t195 91q87 0 139.5 -55t52.5 -146q0 -141 -76 -232t-194 -91q-88 0 -140.5 55t-52.5 147zM106 198q0 -72 36 -115t97 -43q84 0 142.5 76.5t58.5 186.5q0 72 -36.5 114.5t-97.5 42.5q-83 0 -141.5 -76.5t-58.5 -185.5zM324 575l-84 144h63l72 -144
h-51z" />
    <glyph glyph-name="oacute" unicode="&#xf3;" horiz-adv-x="545" 
d="M41 190q0 140 76 231t195 91q87 0 139.5 -55t52.5 -146q0 -141 -76 -232t-194 -91q-88 0 -140.5 55t-52.5 147zM106 198q0 -72 36 -115t97 -43q84 0 142.5 76.5t58.5 186.5q0 72 -36.5 114.5t-97.5 42.5q-83 0 -141.5 -76.5t-58.5 -185.5zM290 575l128 144h72l-140 -144
h-60z" />
    <glyph glyph-name="ocircumflex" unicode="&#xf4;" horiz-adv-x="545" 
d="M41 190q0 140 76 231t195 91q87 0 139.5 -55t52.5 -146q0 -141 -76 -232t-194 -91q-88 0 -140.5 55t-52.5 147zM106 198q0 -72 36 -115t97 -43q84 0 142.5 76.5t58.5 186.5q0 72 -36.5 114.5t-97.5 42.5q-83 0 -141.5 -76.5t-58.5 -185.5zM205 575l128 144h52l71 -144
h-49l-55 94l-89 -94h-58z" />
    <glyph glyph-name="otilde" unicode="&#xf5;" horiz-adv-x="545" 
d="M41 190q0 140 76 231t195 91q87 0 139.5 -55t52.5 -146q0 -141 -76 -232t-194 -91q-88 0 -140.5 55t-52.5 147zM106 198q0 -72 36 -115t97 -43q84 0 142.5 76.5t58.5 186.5q0 72 -36.5 114.5t-97.5 42.5q-83 0 -141.5 -76.5t-58.5 -185.5zM196 605q8 42 33.5 68.5
t62.5 26.5q28 0 62.5 -28.5t49.5 -28.5q18 0 31.5 12.5t17.5 33.5h45q-7 -42 -33 -68t-62 -26q-29 0 -63.5 28.5t-49.5 28.5q-18 0 -31.5 -13t-16.5 -34h-46z" />
    <glyph glyph-name="odieresis" unicode="&#xf6;" horiz-adv-x="545" 
d="M41 190q0 140 76 231t195 91q87 0 139.5 -55t52.5 -146q0 -141 -76 -232t-194 -91q-88 0 -140.5 55t-52.5 147zM106 198q0 -72 36 -115t97 -43q84 0 142.5 76.5t58.5 186.5q0 72 -36.5 114.5t-97.5 42.5q-83 0 -141.5 -76.5t-58.5 -185.5zM206 643q0 20 13 32.5t33 12.5
q16 0 26 -10t10 -26q0 -19 -13 -32.5t-32 -13.5q-16 0 -26.5 10.5t-10.5 26.5zM404 643q0 19 13 32t33 13q16 0 26 -10t10 -26q0 -20 -13 -33t-33 -13q-16 0 -26 10.5t-10 26.5z" />
    <glyph glyph-name="divide" unicode="&#xf7;" 
d="M246 94q0 17 12 29t30 12q17 0 29 -12t12 -29q0 -18 -12 -29.5t-29 -11.5q-18 0 -30 11.5t-12 29.5zM37 254v55h501v-55h-501zM246 469q0 18 12 29.5t30 11.5q17 0 29 -11.5t12 -29.5q0 -17 -12 -29t-29 -12q-18 0 -30 12t-12 29z" />
    <glyph glyph-name="oslash" unicode="&#xf8;" horiz-adv-x="545" 
d="M41 189q0 139 77 231t194 92q79 0 130 -48l34 36h59l-64 -69q33 -50 33 -119q0 -139 -77 -231.5t-193 -92.5q-82 0 -131 49l-34 -37h-59l65 69q-34 51 -34 120zM441 303q0 42 -17 79l-280 -301q35 -41 95 -41q84 0 143 76.5t59 186.5zM105 198q0 -47 15 -80l281 302
q-35 40 -95 40q-84 0 -142.5 -76t-58.5 -186z" />
    <glyph glyph-name="ugrave" unicode="&#xf9;" horiz-adv-x="545" 
d="M508 500l-93 -500h-61l9 53q-76 -65 -158 -65q-62 0 -103 39.5t-41 98.5q0 24 5 52l60 322h63l-61 -320q-4 -19 -4 -41q0 -45 27.5 -71.5t72.5 -26.5q73 0 150 75l73 384h61zM322 575l-84 144h63l72 -144h-51z" />
    <glyph glyph-name="uacute" unicode="&#xfa;" horiz-adv-x="545" 
d="M508 500l-93 -500h-61l9 53q-76 -65 -158 -65q-62 0 -103 39.5t-41 98.5q0 24 5 52l60 322h63l-61 -320q-4 -19 -4 -41q0 -45 27.5 -71.5t72.5 -26.5q73 0 150 75l73 384h61zM288 575l128 144h72l-140 -144h-60z" />
    <glyph glyph-name="ucircumflex" unicode="&#xfb;" horiz-adv-x="545" 
d="M508 500l-93 -500h-61l9 53q-76 -65 -158 -65q-62 0 -103 39.5t-41 98.5q0 24 5 52l60 322h63l-61 -320q-4 -19 -4 -41q0 -45 27.5 -71.5t72.5 -26.5q73 0 150 75l73 384h61zM203 575l128 144h52l71 -144h-49l-55 94l-89 -94h-58z" />
    <glyph glyph-name="udieresis" unicode="&#xfc;" horiz-adv-x="545" 
d="M508 500l-93 -500h-61l9 53q-76 -65 -158 -65q-62 0 -103 39.5t-41 98.5q0 24 5 52l60 322h63l-61 -320q-4 -19 -4 -41q0 -45 27.5 -71.5t72.5 -26.5q73 0 150 75l73 384h61zM204 643q0 20 13 32.5t33 12.5q16 0 26 -10t10 -26q0 -19 -13 -32.5t-32 -13.5
q-16 0 -26.5 10.5t-10.5 26.5zM402 643q0 19 13 32t33 13q16 0 26 -10t10 -26q0 -20 -13 -33t-33 -13q-16 0 -26 10.5t-10 26.5z" />
    <glyph glyph-name="yacute" unicode="&#xfd;" horiz-adv-x="474" 
d="M498 500l-411 -719h-64l137 234l-96 485h61l76 -413l229 413h68zM251 575l128 144h72l-140 -144h-60z" />
    <glyph glyph-name="thorn" unicode="&#xfe;" horiz-adv-x="545" 
d="M-5 -219l176 938h63l-49 -262q66 55 139 55q80 0 130 -54t50 -142q0 -143 -72.5 -235.5t-185.5 -92.5q-73 0 -139 57l-49 -264h-63zM440 306q0 72 -34.5 112.5t-95.5 40.5q-68 0 -138 -67l-55 -294q61 -58 126 -58q84 0 140.5 76t56.5 190z" />
    <glyph glyph-name="ydieresis" unicode="&#xff;" horiz-adv-x="474" 
d="M498 500l-411 -719h-64l137 234l-96 485h61l76 -413l229 413h68zM167 643q0 20 13 32.5t33 12.5q16 0 26 -10t10 -26q0 -19 -13 -32.5t-32 -13.5q-16 0 -26.5 10.5t-10.5 26.5zM365 643q0 19 13 32t33 13q16 0 26 -10t10 -26q0 -20 -13 -33t-33 -13q-16 0 -26 10.5
t-10 26.5z" />
    <glyph glyph-name="Amacron" unicode="&#x100;" horiz-adv-x="615" 
d="M-21 0l391 688h50l137 -688h-62l-40 208h-291l-117 -208h-68zM381 596l-188 -337h253zM271 812l10 47h290l-9 -47h-291z" />
    <glyph glyph-name="amacron" unicode="&#x101;" horiz-adv-x="545" 
d="M509 500l-94 -500h-61l7 45q-68 -57 -140 -57q-80 0 -130 54.5t-50 142.5q0 142 73 234.5t185 92.5q72 0 139 -56l9 44h62zM106 195q0 -73 34 -114t95 -41q66 0 137 69l56 294q-59 56 -126 56q-85 0 -140.5 -75t-55.5 -189zM197 624l10 47h290l-9 -47h-291z" />
    <glyph glyph-name="Abreve" unicode="&#x102;" horiz-adv-x="615" 
d="M-21 0l391 688h50l137 -688h-62l-40 208h-291l-117 -208h-68zM381 596l-188 -337h253zM305 907h47q-1 -8 -1 -20q0 -29 20.5 -48t51.5 -19q38 0 63 23.5t31 63.5h48q-9 -65 -47.5 -101t-99.5 -36q-50 0 -82.5 31t-32.5 78q0 18 2 28z" />
    <glyph glyph-name="abreve" unicode="&#x103;" horiz-adv-x="545" 
d="M509 500l-94 -500h-61l7 45q-68 -57 -140 -57q-80 0 -130 54.5t-50 142.5q0 142 73 234.5t185 92.5q72 0 139 -56l9 44h62zM106 195q0 -73 34 -114t95 -41q66 0 137 69l56 294q-59 56 -126 56q-85 0 -140.5 -75t-55.5 -189zM231 719h47q-1 -8 -1 -20q0 -29 20.5 -48
t51.5 -19q38 0 63 23.5t31 63.5h48q-9 -65 -47.5 -101t-99.5 -36q-50 0 -82.5 31t-32.5 78q0 18 2 28z" />
    <glyph glyph-name="Aogonek" unicode="&#x104;" horiz-adv-x="615" 
d="M500 0h-5l-40 208h-291l-117 -208h-68l391 688h50l137 -688q-55 -29 -85.5 -62t-30.5 -65q0 -18 13 -30t32 -12t40 8l-9 -46q-20 -10 -46 -10q-37 0 -61 20.5t-24 53.5q0 41 30 78.5t84 64.5zM381 596l-188 -337h253z" />
    <glyph glyph-name="aogonek" unicode="&#x105;" horiz-adv-x="545" 
d="M358 0h-4l7 45q-68 -57 -140 -57q-80 0 -130 54.5t-50 142.5q0 142 73 234.5t185 92.5q72 0 139 -56l9 44h62l-94 -500q-55 -29 -85.5 -62t-30.5 -65q0 -18 13 -30t32 -12t40 8l-9 -46q-20 -10 -46 -10q-37 0 -61 20.5t-24 53.5q0 41 30 78.5t84 64.5zM106 195
q0 -73 34 -114t95 -41q66 0 137 69l56 294q-59 56 -126 56q-85 0 -140.5 -75t-55.5 -189z" />
    <glyph glyph-name="Cacute" unicode="&#x106;" horiz-adv-x="601" 
d="M64 260q0 190 105 315t266 125q100 0 189 -59l-12 -61q-86 66 -175 66q-131 0 -218.5 -108t-87.5 -269q0 -102 57 -164.5t150 -62.5q97 0 184 55l-12 -66q-82 -43 -181 -43q-116 0 -190.5 76t-74.5 196zM403 763l128 144h72l-140 -144h-60z" />
    <glyph glyph-name="cacute" unicode="&#x107;" horiz-adv-x="464" 
d="M41 190q0 139 78.5 230.5t198.5 91.5q75 0 142 -43l-11 -57q-63 48 -129 48q-92 0 -153 -74.5t-61 -186.5q0 -72 40 -115.5t106 -43.5q68 0 135 41l-11 -61q-66 -32 -136 -32q-88 0 -143.5 56.5t-55.5 145.5zM288 575l128 144h72l-140 -144h-60z" />
    <glyph glyph-name="Ccircumflex" unicode="&#x108;" horiz-adv-x="601" 
d="M64 260q0 190 105 315t266 125q100 0 189 -59l-12 -61q-86 66 -175 66q-131 0 -218.5 -108t-87.5 -269q0 -102 57 -164.5t150 -62.5q97 0 184 55l-12 -66q-82 -43 -181 -43q-116 0 -190.5 76t-74.5 196zM318 763l128 144h52l71 -144h-49l-55 94l-89 -94h-58z" />
    <glyph glyph-name="ccircumflex" unicode="&#x109;" horiz-adv-x="464" 
d="M41 190q0 139 78.5 230.5t198.5 91.5q75 0 142 -43l-11 -57q-63 48 -129 48q-92 0 -153 -74.5t-61 -186.5q0 -72 40 -115.5t106 -43.5q68 0 135 41l-11 -61q-66 -32 -136 -32q-88 0 -143.5 56.5t-55.5 145.5zM203 575l128 144h52l71 -144h-49l-55 94l-89 -94h-58z" />
    <glyph glyph-name="Cdotaccent" unicode="&#x10a;" horiz-adv-x="601" 
d="M64 260q0 190 105 315t266 125q100 0 189 -59l-12 -61q-86 66 -175 66q-131 0 -218.5 -108t-87.5 -269q0 -102 57 -164.5t150 -62.5q97 0 184 55l-12 -66q-82 -43 -181 -43q-116 0 -190.5 76t-74.5 196zM417 831q0 19 13 32t33 13q17 0 27.5 -10t10.5 -26
q0 -20 -13.5 -33t-32.5 -13q-17 0 -27.5 10.5t-10.5 26.5z" />
    <glyph glyph-name="cdotaccent" unicode="&#x10b;" horiz-adv-x="464" 
d="M41 190q0 139 78.5 230.5t198.5 91.5q75 0 142 -43l-11 -57q-63 48 -129 48q-92 0 -153 -74.5t-61 -186.5q0 -72 40 -115.5t106 -43.5q68 0 135 41l-11 -61q-66 -32 -136 -32q-88 0 -143.5 56.5t-55.5 145.5zM302 643q0 19 13 32t33 13q17 0 27.5 -10t10.5 -26
q0 -20 -13 -33t-33 -13q-17 0 -27.5 10.5t-10.5 26.5z" />
    <glyph glyph-name="Ccaron" unicode="&#x10c;" horiz-adv-x="601" 
d="M64 260q0 190 105 315t266 125q100 0 189 -59l-12 -61q-86 66 -175 66q-131 0 -218.5 -108t-87.5 -269q0 -102 57 -164.5t150 -62.5q97 0 184 55l-12 -66q-82 -43 -181 -43q-116 0 -190.5 76t-74.5 196zM599 907l-127 -144h-51l-72 144h49l55 -92l89 92h57z" />
    <glyph glyph-name="ccaron" unicode="&#x10d;" horiz-adv-x="464" 
d="M41 190q0 139 78.5 230.5t198.5 91.5q75 0 142 -43l-11 -57q-63 48 -129 48q-92 0 -153 -74.5t-61 -186.5q0 -72 40 -115.5t106 -43.5q68 0 135 41l-11 -61q-66 -32 -136 -32q-88 0 -143.5 56.5t-55.5 145.5zM484 719l-127 -144h-51l-72 144h49l55 -92l89 92h57z" />
    <glyph glyph-name="Dcaron" unicode="&#x10e;" horiz-adv-x="678" 
d="M56 0l128 688h182q125 0 203.5 -72.5t78.5 -187.5q0 -198 -104 -313t-284 -115h-204zM240 636l-110 -584h135q143 0 230 101t87 267q0 101 -61 158.5t-169 57.5h-112zM572 907l-127 -144h-51l-72 144h49l55 -92l89 92h57z" />
    <glyph glyph-name="dcaron" unicode="&#x10f;" horiz-adv-x="545" 
d="M550 719l-135 -719h-61l7 45q-68 -57 -140 -57q-80 0 -130 54.5t-50 142.5q0 142 73 234.5t185 92.5q72 0 139 -56l50 263h62zM106 195q0 -73 34 -114t95 -41q66 0 137 69l56 294q-59 56 -126 56q-85 0 -140.5 -75t-55.5 -189zM594 575l79 144h61l-87 -144h-53z" />
    <glyph glyph-name="Dcroat" unicode="&#x110;" horiz-adv-x="693" 
d="M43 326l10 48h89l58 314h181q126 0 204.5 -72t78.5 -188q0 -198 -104.5 -313t-283.5 -115h-205l62 326h-90zM255 636l-49 -262h167l-9 -48h-167l-51 -274h135q142 0 229 101t87 267q0 101 -60.5 158.5t-168.5 57.5h-113z" />
    <glyph glyph-name="dcroat" unicode="&#x111;" horiz-adv-x="545" 
d="M550 719l-14 -79h76l-10 -47h-76l-111 -593h-61l7 45q-68 -57 -140 -57q-80 0 -130 54.5t-50 142.5q0 142 73 234.5t185 92.5q72 0 139 -56l26 137h-154l9 47h153l16 79h62zM106 195q0 -73 34 -114t95 -41q66 0 137 69l56 294q-59 56 -126 56q-85 0 -140.5 -75
t-55.5 -189z" />
    <glyph glyph-name="Emacron" unicode="&#x112;" horiz-adv-x="543" 
d="M56 0l129 688h378l-10 -52h-313l-49 -261h274l-9 -51h-275l-51 -272h321l-9 -52h-386zM246 812l10 47h290l-9 -47h-291z" />
    <glyph glyph-name="emacron" unicode="&#x113;" horiz-adv-x="497" 
d="M41 193q0 142 72.5 230.5t188.5 88.5q72 0 117.5 -50t45.5 -129q0 -53 -10 -95h-348q-3 -20 -3 -39q0 -71 41.5 -115.5t106.5 -44.5q76 0 149 48l-11 -64q-73 -35 -150 -35q-86 0 -142.5 58t-56.5 147zM115 285h286q4 21 4 46q0 58 -30 94t-79 36q-65 0 -113.5 -47
t-67.5 -129zM184 624l10 47h290l-9 -47h-291z" />
    <glyph glyph-name="Ebreve" unicode="&#x114;" horiz-adv-x="543" 
d="M56 0l129 688h378l-10 -52h-313l-49 -261h274l-9 -51h-275l-51 -272h321l-9 -52h-386zM280 907h47q-1 -8 -1 -20q0 -29 20.5 -48t51.5 -19q38 0 63 23.5t31 63.5h48q-9 -65 -47.5 -101t-99.5 -36q-50 0 -82.5 31t-32.5 78q0 18 2 28z" />
    <glyph glyph-name="ebreve" unicode="&#x115;" horiz-adv-x="497" 
d="M41 193q0 142 72.5 230.5t188.5 88.5q72 0 117.5 -50t45.5 -129q0 -53 -10 -95h-348q-3 -20 -3 -39q0 -71 41.5 -115.5t106.5 -44.5q76 0 149 48l-11 -64q-73 -35 -150 -35q-86 0 -142.5 58t-56.5 147zM115 285h286q4 21 4 46q0 58 -30 94t-79 36q-65 0 -113.5 -47
t-67.5 -129zM218 719h47q-1 -8 -1 -20q0 -29 20.5 -48t51.5 -19q38 0 63 23.5t31 63.5h48q-9 -65 -47.5 -101t-99.5 -36q-50 0 -82.5 31t-32.5 78q0 18 2 28z" />
    <glyph glyph-name="Edotaccent" unicode="&#x116;" horiz-adv-x="543" 
d="M56 0l129 688h378l-10 -52h-313l-49 -261h274l-9 -51h-275l-51 -272h321l-9 -52h-386zM353 831q0 19 13 32t33 13q17 0 27.5 -10t10.5 -26q0 -20 -13.5 -33t-32.5 -13q-17 0 -27.5 10.5t-10.5 26.5z" />
    <glyph glyph-name="edotaccent" unicode="&#x117;" horiz-adv-x="497" 
d="M41 193q0 142 72.5 230.5t188.5 88.5q72 0 117.5 -50t45.5 -129q0 -53 -10 -95h-348q-3 -20 -3 -39q0 -71 41.5 -115.5t106.5 -44.5q76 0 149 48l-11 -64q-73 -35 -150 -35q-86 0 -142.5 58t-56.5 147zM115 285h286q4 21 4 46q0 58 -30 94t-79 36q-65 0 -113.5 -47
t-67.5 -129zM291 643q0 19 13 32t33 13q17 0 27.5 -10t10.5 -26q0 -20 -13.5 -33t-32.5 -13q-17 0 -27.5 10.5t-10.5 26.5z" />
    <glyph glyph-name="Eogonek" unicode="&#x118;" horiz-adv-x="543" 
d="M56 0l129 688h378l-10 -52h-313l-49 -261h274l-9 -51h-275l-51 -272h321l-9 -52q-55 -29 -85.5 -62t-30.5 -65q0 -18 13 -30t32 -12t40 8l-9 -46q-20 -10 -46 -10q-37 0 -61 20.5t-24 53.5q0 41 30 78.5t84 64.5h-329z" />
    <glyph glyph-name="eogonek" unicode="&#x119;" horiz-adv-x="497" 
d="M41 193q0 142 72.5 230.5t188.5 88.5q72 0 117.5 -50t45.5 -129q0 -53 -10 -95h-348q-3 -20 -3 -39q0 -71 41 -115.5t107 -44.5q76 0 149 48l-11 -64q-120 -69 -120 -146q0 -20 13 -33t32 -13t41 8l-10 -46q-20 -10 -46 -10q-37 0 -60.5 22t-23.5 56q0 76 80 133
q-27 -6 -56 -6q-86 0 -142.5 58t-56.5 147zM115 285h286q4 21 4 46q0 58 -30 94t-79 36q-65 0 -113.5 -47t-67.5 -129z" />
    <glyph glyph-name="Ecaron" unicode="&#x11a;" horiz-adv-x="543" 
d="M56 0l129 688h378l-10 -52h-313l-49 -261h274l-9 -51h-275l-51 -272h321l-9 -52h-386zM535 907l-127 -144h-51l-72 144h49l55 -92l89 92h57z" />
    <glyph glyph-name="ecaron" unicode="&#x11b;" horiz-adv-x="497" 
d="M41 193q0 142 72.5 230.5t188.5 88.5q72 0 117.5 -50t45.5 -129q0 -53 -10 -95h-348q-3 -20 -3 -39q0 -71 41.5 -115.5t106.5 -44.5q76 0 149 48l-11 -64q-73 -35 -150 -35q-86 0 -142.5 58t-56.5 147zM115 285h286q4 21 4 46q0 58 -30 94t-79 36q-65 0 -113.5 -47
t-67.5 -129zM473 719l-127 -144h-51l-72 144h49l55 -92l89 92h57z" />
    <glyph glyph-name="Gcircumflex" unicode="&#x11c;" horiz-adv-x="658" 
d="M608 348l-58 -309q-107 -51 -215 -51q-120 0 -195.5 76t-75.5 196q0 190 106 315t270 125q101 0 197 -65l-11 -61q-92 72 -185 72q-132 0 -221.5 -108.5t-89.5 -268.5q0 -102 58 -164.5t153 -62.5q78 0 154 34l41 222h-164l10 50h226zM328 763l128 144h52l71 -144h-49
l-55 94l-89 -94h-58z" />
    <glyph glyph-name="gcircumflex" unicode="&#x11d;" horiz-adv-x="545" 
d="M509 500l-99 -527q-18 -95 -80 -149.5t-152 -54.5q-86 0 -168 44l11 57q79 -50 157 -50q64 0 111 43t60 116l11 65q-67 -56 -139 -56q-80 0 -130 54.5t-50 142.5q0 142 73 234.5t185 92.5q72 0 139 -56l9 44h62zM106 195q0 -73 34 -114t95 -41q66 0 137 69l56 294
q-59 56 -126 56q-85 0 -140.5 -75t-55.5 -189zM205 575l128 144h52l71 -144h-49l-55 94l-89 -94h-58z" />
    <glyph glyph-name="Gbreve" unicode="&#x11e;" horiz-adv-x="658" 
d="M608 348l-58 -309q-107 -51 -215 -51q-120 0 -195.5 76t-75.5 196q0 190 106 315t270 125q101 0 197 -65l-11 -61q-92 72 -185 72q-132 0 -221.5 -108.5t-89.5 -268.5q0 -102 58 -164.5t153 -62.5q78 0 154 34l41 222h-164l10 50h226zM354 907h47q-1 -8 -1 -20
q0 -29 20.5 -48t51.5 -19q38 0 63 23.5t31 63.5h48q-9 -65 -47.5 -101t-99.5 -36q-50 0 -82.5 31t-32.5 78q0 18 2 28z" />
    <glyph glyph-name="gbreve" unicode="&#x11f;" horiz-adv-x="545" 
d="M509 500l-99 -527q-18 -95 -80 -149.5t-152 -54.5q-86 0 -168 44l11 57q79 -50 157 -50q64 0 111 43t60 116l11 65q-67 -56 -139 -56q-80 0 -130 54.5t-50 142.5q0 142 73 234.5t185 92.5q72 0 139 -56l9 44h62zM106 195q0 -73 34 -114t95 -41q66 0 137 69l56 294
q-59 56 -126 56q-85 0 -140.5 -75t-55.5 -189zM231 719h47q-1 -8 -1 -20q0 -29 20.5 -48t51.5 -19q38 0 63 23.5t31 63.5h48q-9 -65 -47.5 -101t-99.5 -36q-50 0 -82.5 31t-32.5 78q0 18 2 28z" />
    <glyph glyph-name="Gdotaccent" unicode="&#x120;" horiz-adv-x="658" 
d="M608 348l-58 -309q-107 -51 -215 -51q-120 0 -195.5 76t-75.5 196q0 190 106 315t270 125q101 0 197 -65l-11 -61q-92 72 -185 72q-132 0 -221.5 -108.5t-89.5 -268.5q0 -102 58 -164.5t153 -62.5q78 0 154 34l41 222h-164l10 50h226zM427 831q0 19 13 32t33 13
q17 0 27.5 -10t10.5 -26q0 -20 -13.5 -33t-32.5 -13q-17 0 -27.5 10.5t-10.5 26.5z" />
    <glyph glyph-name="gdotaccent" unicode="&#x121;" horiz-adv-x="545" 
d="M509 500l-99 -527q-18 -95 -80 -149.5t-152 -54.5q-86 0 -168 44l11 57q79 -50 157 -50q64 0 111 43t60 116l11 65q-67 -56 -139 -56q-80 0 -130 54.5t-50 142.5q0 142 73 234.5t185 92.5q72 0 139 -56l9 44h62zM106 195q0 -73 34 -114t95 -41q66 0 137 69l56 294
q-59 56 -126 56q-85 0 -140.5 -75t-55.5 -189zM304 643q0 19 13 32t33 13q17 0 27.5 -10t10.5 -26q0 -20 -13 -33t-33 -13q-17 0 -27.5 10.5t-10.5 26.5z" />
    <glyph glyph-name="Gcommaaccent" unicode="&#x122;" horiz-adv-x="658" 
d="M608 348l-58 -309q-107 -51 -215 -51q-120 0 -195.5 76t-75.5 196q0 190 106 315t270 125q101 0 197 -65l-11 -61q-92 72 -185 72q-132 0 -221.5 -108.5t-89.5 -268.5q0 -102 58 -164.5t153 -62.5q78 0 154 34l41 222h-164l10 50h226zM184 -242l93 168h64l-103 -168h-54z
" />
    <glyph glyph-name="gcommaaccent" unicode="&#x123;" horiz-adv-x="545" 
d="M509 500l-99 -527q-18 -95 -80 -149.5t-152 -54.5q-86 0 -168 44l11 57q79 -50 157 -50q64 0 111 43t60 116l11 65q-67 -56 -139 -56q-80 0 -130 54.5t-50 142.5q0 142 73 234.5t185 92.5q72 0 139 -56l9 44h62zM106 195q0 -73 34 -114t95 -41q66 0 137 69l56 294
q-59 56 -126 56q-85 0 -140.5 -75t-55.5 -189zM450 743l-93 -168h-64l103 168h54z" />
    <glyph glyph-name="Hcircumflex" unicode="&#x124;" horiz-adv-x="709" 
d="M56 0l129 688h65l-59 -312h375l59 312h63l-129 -688h-64l61 324h-375l-61 -324h-64zM322 763l128 144h52l71 -144h-49l-55 94l-89 -94h-58z" />
    <glyph glyph-name="hcircumflex" unicode="&#x125;" horiz-adv-x="545" 
d="M36 0l135 719h63l-51 -271q76 64 157 64q62 0 103.5 -39t41.5 -99q0 -19 -6 -51l-60 -323h-62l59 321q5 22 5 41q0 44 -27.5 70.5t-72.5 26.5q-74 0 -151 -74l-71 -385h-63zM87 794l128 144h52l71 -144h-49l-55 94l-89 -94h-58z" />
    <glyph glyph-name="Hbar" unicode="&#x126;" horiz-adv-x="709" 
d="M56 0l93 498h-87l8 48h89l26 142h65l-27 -142h375l27 142h63l-26 -142h87l-8 -48h-88l-94 -498h-64l61 324h-375l-61 -324h-64zM213 498l-22 -122h375l22 122h-375z" />
    <glyph glyph-name="hbar" unicode="&#x127;" horiz-adv-x="545" 
d="M36 0l111 593h-76l9 47h77l14 79h63l-15 -79h153l-9 -47h-153l-27 -145q76 64 157 64q62 0 103.5 -39t41.5 -99q0 -19 -6 -51l-60 -323h-62l59 321q5 22 5 41q0 44 -27.5 70.5t-72.5 26.5q-74 0 -151 -74l-71 -385h-63z" />
    <glyph glyph-name="Itilde" unicode="&#x128;" horiz-adv-x="270" 
d="M56 0l129 688h65l-130 -688h-64zM93 793q8 42 33.5 68.5t62.5 26.5q28 0 62.5 -28.5t49.5 -28.5q18 0 31.5 12.5t17.5 33.5h45q-7 -42 -33 -68t-62 -26q-29 0 -63.5 28.5t-49.5 28.5q-18 0 -31.5 -13t-16.5 -34h-46z" />
    <glyph glyph-name="itilde" unicode="&#x129;" horiz-adv-x="229" 
d="M36 0l94 500h63l-94 -500h-63zM37 605q8 42 33.5 68.5t62.5 26.5q28 0 62.5 -28.5t49.5 -28.5q18 0 31.5 12.5t17.5 33.5h45q-7 -42 -33 -68t-62 -26q-29 0 -63.5 28.5t-49.5 28.5q-18 0 -31.5 -13t-16.5 -34h-46z" />
    <glyph glyph-name="Imacron" unicode="&#x12a;" horiz-adv-x="270" 
d="M56 0l129 688h65l-130 -688h-64zM94 812l10 47h290l-9 -47h-291z" />
    <glyph glyph-name="imacron" unicode="&#x12b;" horiz-adv-x="229" 
d="M36 0l94 500h63l-94 -500h-63zM38 624l10 47h290l-9 -47h-291z" />
    <glyph glyph-name="Ibreve" unicode="&#x12c;" horiz-adv-x="270" 
d="M56 0l129 688h65l-130 -688h-64zM128 907h47q-1 -8 -1 -20q0 -29 20.5 -48t51.5 -19q38 0 63 23.5t31 63.5h48q-9 -65 -47.5 -101t-99.5 -36q-50 0 -82.5 31t-32.5 78q0 18 2 28z" />
    <glyph glyph-name="ibreve" unicode="&#x12d;" horiz-adv-x="229" 
d="M36 0l94 500h63l-94 -500h-63zM72 719h47q-1 -8 -1 -20q0 -29 20.5 -48t51.5 -19q38 0 63 23.5t31 63.5h48q-9 -65 -47.5 -101t-99.5 -36q-50 0 -82.5 31t-32.5 78q0 18 2 28z" />
    <glyph glyph-name="Iogonek" unicode="&#x12e;" horiz-adv-x="277" 
d="M60 0l129 688h65l-130 -688q-55 -29 -85.5 -62t-30.5 -65q0 -18 13 -30t32 -12t40 8l-9 -46q-20 -10 -46 -10q-37 0 -61 20.5t-24 53.5q0 41 30 78.5t84 64.5h-7z" />
    <glyph glyph-name="iogonek" unicode="&#x12f;" horiz-adv-x="229" 
d="M36 0l94 500h63l-94 -500q-55 -29 -85.5 -62t-30.5 -65q0 -18 13 -30t32 -12t40 8l-9 -46q-20 -10 -46 -10q-37 0 -61 20.5t-24 53.5q0 41 30 78.5t84 64.5h-6zM146 643q0 20 13 32.5t33 12.5q16 0 26.5 -10t10.5 -26q0 -20 -13.5 -33t-32.5 -13q-16 0 -26.5 10.5
t-10.5 26.5z" />
    <glyph glyph-name="Idotaccent" unicode="&#x130;" horiz-adv-x="270" 
d="M56 0l129 688h65l-130 -688h-64zM201 831q0 19 13 32t33 13q17 0 27.5 -10t10.5 -26q0 -20 -13.5 -33t-32.5 -13q-17 0 -27.5 10.5t-10.5 26.5z" />
    <glyph glyph-name="dotlessi" unicode="&#x131;" horiz-adv-x="229" 
d="M36 0l94 500h63l-94 -500h-63z" />
    <glyph glyph-name="Jcircumflex" unicode="&#x134;" horiz-adv-x="458" 
d="M440 688l-100 -535q-14 -76 -68 -120.5t-131 -44.5q-69 0 -145 43l12 58q68 -47 132 -47q54 0 90.5 32.5t47.5 88.5l98 525h64zM294 763l128 144h52l71 -144h-49l-55 94l-89 -94h-58z" />
    <glyph glyph-name="jcircumflex" unicode="&#x135;" horiz-adv-x="229" 
d="M193 500l-114 -605q-11 -58 -51 -92t-98 -34q-51 0 -110 31l11 53q49 -32 92 -32q37 0 62.5 22.5t33.5 61.5l111 595h63zM46 575l128 144h52l71 -144h-49l-55 94l-89 -94h-58z" />
    <glyph glyph-name="Kcommaaccent" unicode="&#x136;" horiz-adv-x="588" 
d="M56 0l129 688h64l-60 -318l361 318h93l-393 -340l275 -348h-78l-265 332l-63 -332h-63zM120 -242l93 168h64l-103 -168h-54z" />
    <glyph glyph-name="kcommaaccent" unicode="&#x137;" horiz-adv-x="463" 
d="M36 0l135 719h62l-83 -442l248 223h84l-280 -248l194 -252h-74l-180 234l-44 -234h-62zM58 -242l93 168h64l-103 -168h-54z" />
    <glyph glyph-name="kgreenlandic" unicode="&#x138;" horiz-adv-x="463" 
d="M36 0l94 500h62l-42 -223l248 223h84l-280 -248l194 -252h-74l-180 234l-44 -234h-62z" />
    <glyph glyph-name="Lacute" unicode="&#x139;" horiz-adv-x="489" 
d="M56 0l129 688h65l-120 -636h299l-10 -52h-363zM187 763l128 144h72l-140 -144h-60z" />
    <glyph glyph-name="lacute" unicode="&#x13a;" horiz-adv-x="229" 
d="M36 0l135 719h63l-135 -719h-63zM172 794l128 144h72l-140 -144h-60z" />
    <glyph glyph-name="Lcommaaccent" unicode="&#x13b;" horiz-adv-x="489" 
d="M56 0l129 688h65l-120 -636h299l-10 -52h-363zM91 -242l93 168h64l-103 -168h-54z" />
    <glyph glyph-name="lcommaaccent" unicode="&#x13c;" horiz-adv-x="229" 
d="M36 0l135 719h63l-135 -719h-63zM-63 -242l93 168h64l-103 -168h-54z" />
    <glyph glyph-name="Lcaron" unicode="&#x13d;" horiz-adv-x="489" 
d="M56 0l129 688h65l-120 -636h299l-10 -52h-363zM314 575l79 144h61l-87 -144h-53z" />
    <glyph glyph-name="lcaron" unicode="&#x13e;" horiz-adv-x="229" 
d="M36 0l135 719h63l-135 -719h-63zM279 575l79 144h61l-87 -144h-53z" />
    <glyph glyph-name="Ldot" unicode="&#x13f;" horiz-adv-x="489" 
d="M56 0l129 688h65l-120 -636h299l-10 -52h-363zM356 348q0 19 13 32t33 13q17 0 27.5 -10t10.5 -26q0 -19 -13 -32.5t-33 -13.5q-17 0 -27.5 10.5t-10.5 26.5z" />
    <glyph glyph-name="ldot" unicode="&#x140;" horiz-adv-x="327" 
d="M36 0l135 719h63l-135 -719h-63zM254 346q0 19 13 32t33 13q17 0 27.5 -10t10.5 -26q0 -19 -13 -32.5t-33 -13.5q-17 0 -27.5 10.5t-10.5 26.5z" />
    <glyph glyph-name="Lslash" unicode="&#x141;" horiz-adv-x="520" 
d="M87 0l52 280l-88 -35l11 56l88 36l66 351h65l-61 -324l168 67l-11 -57l-168 -66l-47 -256h298l-10 -52h-363z" />
    <glyph glyph-name="lslash" unicode="&#x142;" horiz-adv-x="287" 
d="M65 0l61 322l-108 -44l10 57l108 44l64 340h62l-58 -313l108 44l-10 -57l-109 -44l-66 -349h-62z" />
    <glyph glyph-name="Nacute" unicode="&#x143;" horiz-adv-x="709" 
d="M56 0l129 688h54l279 -578l108 578h62l-129 -688h-54l-278 578l-108 -578h-63zM407 763l128 144h72l-140 -144h-60z" />
    <glyph glyph-name="nacute" unicode="&#x144;" horiz-adv-x="545" 
d="M36 0l94 500h62l-10 -52q76 64 158 64q62 0 103.5 -39t41.5 -99q0 -19 -6 -51l-60 -323h-62l59 321q5 23 5 41q0 44 -27.5 70.5t-72.5 26.5q-73 0 -151 -75l-71 -384h-63zM292 575l128 144h72l-140 -144h-60z" />
    <glyph glyph-name="Ncommaaccent" unicode="&#x145;" horiz-adv-x="709" 
d="M56 0l129 688h54l279 -578l108 578h62l-129 -688h-54l-278 578l-108 -578h-63zM178 -242l93 168h64l-103 -168h-54z" />
    <glyph glyph-name="ncommaaccent" unicode="&#x146;" horiz-adv-x="545" 
d="M36 0l94 500h62l-10 -52q76 64 158 64q62 0 103.5 -39t41.5 -99q0 -19 -6 -51l-60 -323h-62l59 321q5 23 5 41q0 44 -27.5 70.5t-72.5 26.5q-73 0 -151 -75l-71 -384h-63zM98 -242l93 168h64l-103 -168h-54z" />
    <glyph glyph-name="Ncaron" unicode="&#x147;" horiz-adv-x="709" 
d="M56 0l129 688h54l279 -578l108 578h62l-129 -688h-54l-278 578l-108 -578h-63zM603 907l-127 -144h-51l-72 144h49l55 -92l89 92h57z" />
    <glyph glyph-name="ncaron" unicode="&#x148;" horiz-adv-x="545" 
d="M36 0l94 500h62l-10 -52q76 64 158 64q62 0 103.5 -39t41.5 -99q0 -19 -6 -51l-60 -323h-62l59 321q5 23 5 41q0 44 -27.5 70.5t-72.5 26.5q-73 0 -151 -75l-71 -384h-63zM488 719l-127 -144h-51l-72 144h49l55 -92l89 92h57z" />
    <glyph glyph-name="Eng" unicode="&#x14a;" horiz-adv-x="709" 
d="M56 0l129 688h54l278 -578l109 578h62l-141 -754q-14 -76 -68 -120.5t-131 -44.5q-69 0 -145 43l11 58q70 -47 133 -47q53 0 89.5 32t47.5 89l14 71l-270 563l-109 -578h-63z" />
    <glyph glyph-name="eng" unicode="&#x14b;" horiz-adv-x="545" 
d="M36 0l94 500h62l-10 -52q76 64 158 64q62 0 103.5 -39t41.5 -99q0 -19 -6 -51l-79 -428q-11 -59 -51.5 -92.5t-98.5 -33.5q-53 0 -109 32l10 52q49 -32 91 -32q38 0 64 22.5t33 61.5l77 416q5 22 5 41q0 44 -27.5 70.5t-72.5 26.5q-73 0 -151 -75l-71 -384h-63z" />
    <glyph glyph-name="Omacron" unicode="&#x14c;" horiz-adv-x="709" 
d="M64 260q0 190 103 315t258 125q116 0 185.5 -74t69.5 -198q0 -190 -102.5 -315t-257.5 -125q-117 0 -186.5 74t-69.5 198zM131 268q0 -104 52.5 -165t141.5 -61q120 0 204 109.5t84 268.5q0 104 -52.5 165t-141.5 61q-120 0 -204 -109.5t-84 -268.5zM314 812l10 47h290
l-9 -47h-291z" />
    <glyph glyph-name="omacron" unicode="&#x14d;" horiz-adv-x="545" 
d="M41 190q0 140 76 231t195 91q87 0 139.5 -55t52.5 -146q0 -141 -76 -232t-194 -91q-88 0 -140.5 55t-52.5 147zM106 198q0 -72 36 -115t97 -43q84 0 142.5 76.5t58.5 186.5q0 72 -36.5 114.5t-97.5 42.5q-83 0 -141.5 -76.5t-58.5 -185.5zM197 624l10 47h290l-9 -47h-291
z" />
    <glyph glyph-name="Obreve" unicode="&#x14e;" horiz-adv-x="709" 
d="M64 260q0 190 103 315t258 125q116 0 185.5 -74t69.5 -198q0 -190 -102.5 -315t-257.5 -125q-117 0 -186.5 74t-69.5 198zM131 268q0 -104 52.5 -165t141.5 -61q120 0 204 109.5t84 268.5q0 104 -52.5 165t-141.5 61q-120 0 -204 -109.5t-84 -268.5zM348 907h47
q-1 -8 -1 -20q0 -29 20.5 -48t51.5 -19q38 0 63 23.5t31 63.5h48q-9 -65 -47.5 -101t-99.5 -36q-50 0 -82.5 31t-32.5 78q0 18 2 28z" />
    <glyph glyph-name="obreve" unicode="&#x14f;" horiz-adv-x="545" 
d="M41 190q0 140 76 231t195 91q87 0 139.5 -55t52.5 -146q0 -141 -76 -232t-194 -91q-88 0 -140.5 55t-52.5 147zM106 198q0 -72 36 -115t97 -43q84 0 142.5 76.5t58.5 186.5q0 72 -36.5 114.5t-97.5 42.5q-83 0 -141.5 -76.5t-58.5 -185.5zM231 719h47q-1 -8 -1 -20
q0 -29 20.5 -48t51.5 -19q38 0 63 23.5t31 63.5h48q-9 -65 -47.5 -101t-99.5 -36q-50 0 -82.5 31t-32.5 78q0 18 2 28z" />
    <glyph glyph-name="Ohungarumlaut" unicode="&#x150;" horiz-adv-x="709" 
d="M64 260q0 190 103 315t258 125q116 0 185.5 -74t69.5 -198q0 -190 -102.5 -315t-257.5 -125q-117 0 -186.5 74t-69.5 198zM131 268q0 -104 52.5 -165t141.5 -61q120 0 204 109.5t84 268.5q0 104 -52.5 165t-141.5 61q-120 0 -204 -109.5t-84 -268.5zM489 763l127 144h73
l-139 -144h-61zM325 763l128 144h73l-140 -144h-61z" />
    <glyph glyph-name="ohungarumlaut" unicode="&#x151;" horiz-adv-x="545" 
d="M41 190q0 140 76 231t195 91q87 0 139.5 -55t52.5 -146q0 -141 -76 -232t-194 -91q-88 0 -140.5 55t-52.5 147zM106 198q0 -72 36 -115t97 -43q84 0 142.5 76.5t58.5 186.5q0 72 -36.5 114.5t-97.5 42.5q-83 0 -141.5 -76.5t-58.5 -185.5zM372 575l127 144h73l-139 -144
h-61zM208 575l128 144h73l-140 -144h-61z" />
    <glyph glyph-name="OE" unicode="&#x152;" horiz-adv-x="931" 
d="M951 688l-10 -52h-313l-49 -261h274l-9 -51h-274l-52 -272h321l-9 -52h-483q-125 0 -204 72.5t-79 187.5q0 198 104.5 313t284.5 115h498zM454 52l110 584h-116q-143 0 -230 -101t-87 -267q0 -101 61 -158.5t169 -57.5h93z" />
    <glyph glyph-name="oe" unicode="&#x153;" horiz-adv-x="888" 
d="M41 189q0 139 77 231t194 92q59 0 106.5 -31t67.5 -86q33 56 87 86.5t119 30.5q72 0 117.5 -50t45.5 -129q0 -53 -10 -95h-348q-3 -19 -3 -39q0 -71 41.5 -115.5t106.5 -44.5q76 0 149 48l-11 -64q-73 -35 -151 -35q-64 0 -112 34t-69 91q-37 -59 -92.5 -92t-121.5 -33
q-85 0 -139 56t-54 145zM505 285h286q4 21 4 46q0 58 -30 94t-79 36q-65 0 -113.5 -47t-67.5 -129zM106 198q0 -72 36 -115t97 -43q84 0 142.5 76.5t58.5 186.5q0 72 -36.5 114.5t-97.5 42.5q-83 0 -141.5 -76.5t-58.5 -185.5z" />
    <glyph glyph-name="Racute" unicode="&#x154;" horiz-adv-x="584" 
d="M418 0l-126 277h-121l-52 -277h-63l129 688h180q90 0 143.5 -46.5t53.5 -124.5q0 -88 -57 -153t-148 -81l129 -283h-68zM239 636l-58 -307h113q89 0 145.5 50.5t56.5 128.5q0 59 -40.5 93.5t-109.5 34.5h-107zM344 763l128 144h72l-140 -144h-60z" />
    <glyph glyph-name="racute" unicode="&#x155;" horiz-adv-x="372" 
d="M36 0l94 500h62l-11 -56q70 68 147 68q34 0 59 -14l-11 -58q-29 16 -58 16q-77 0 -149 -81l-70 -375h-63zM222 575l128 144h72l-140 -144h-60z" />
    <glyph glyph-name="Rcommaaccent" unicode="&#x156;" horiz-adv-x="584" 
d="M418 0l-126 277h-121l-52 -277h-63l129 688h180q90 0 143.5 -46.5t53.5 -124.5q0 -88 -57 -153t-148 -81l129 -283h-68zM239 636l-58 -307h113q89 0 145.5 50.5t56.5 128.5q0 59 -40.5 93.5t-109.5 34.5h-107zM115 -242l93 168h64l-103 -168h-54z" />
    <glyph glyph-name="rcommaaccent" unicode="&#x157;" horiz-adv-x="372" 
d="M36 0l94 500h62l-11 -56q70 68 147 68q34 0 59 -14l-11 -58q-29 16 -58 16q-77 0 -149 -81l-70 -375h-63zM-63 -242l93 168h64l-103 -168h-54z" />
    <glyph glyph-name="Rcaron" unicode="&#x158;" horiz-adv-x="584" 
d="M418 0l-126 277h-121l-52 -277h-63l129 688h180q90 0 143.5 -46.5t53.5 -124.5q0 -88 -57 -153t-148 -81l129 -283h-68zM239 636l-58 -307h113q89 0 145.5 50.5t56.5 128.5q0 59 -40.5 93.5t-109.5 34.5h-107zM540 907l-127 -144h-51l-72 144h49l55 -92l89 92h57z" />
    <glyph glyph-name="rcaron" unicode="&#x159;" horiz-adv-x="372" 
d="M36 0l94 500h62l-11 -56q70 68 147 68q34 0 59 -14l-11 -58q-29 16 -58 16q-77 0 -149 -81l-70 -375h-63zM418 719l-127 -144h-51l-72 144h49l55 -92l89 92h57z" />
    <glyph glyph-name="Sacute" unicode="&#x15a;" horiz-adv-x="528" 
d="M30 49l12 63q97 -71 186 -71q73 0 119.5 39t46.5 99q0 44 -29.5 76.5t-71 54t-83.5 44.5t-71.5 62t-29.5 93q0 84 63 137.5t163 53.5q89 0 182 -53l-12 -61q-88 61 -170 61q-72 0 -117 -36.5t-45 -95.5q0 -42 29.5 -73.5t71.5 -52.5t83.5 -44.5t71 -63.5t29.5 -96
q0 -87 -64.5 -142t-165.5 -55q-96 0 -198 61zM316 763l128 144h72l-140 -144h-60z" />
    <glyph glyph-name="sacute" unicode="&#x15b;" horiz-adv-x="411" 
d="M17 33l10 58q74 -52 138 -52q50 0 81.5 26t31.5 67q0 30 -21 52.5t-51 37.5t-60 32t-51 45.5t-21 68.5q0 64 47.5 104t123.5 40q69 0 137 -39l-10 -57q-66 45 -127 45q-48 0 -78.5 -24.5t-30.5 -64.5q0 -29 21 -50.5t51 -36.5t60 -31.5t51 -46.5t21 -71
q0 -65 -48.5 -106.5t-126.5 -41.5q-72 0 -148 45zM222 575l128 144h72l-140 -144h-60z" />
    <glyph glyph-name="Scircumflex" unicode="&#x15c;" horiz-adv-x="528" 
d="M30 49l12 63q97 -71 186 -71q73 0 119.5 39t46.5 99q0 44 -29.5 76.5t-71 54t-83.5 44.5t-71.5 62t-29.5 93q0 84 63 137.5t163 53.5q89 0 182 -53l-12 -61q-88 61 -170 61q-72 0 -117 -36.5t-45 -95.5q0 -42 29.5 -73.5t71.5 -52.5t83.5 -44.5t71 -63.5t29.5 -96
q0 -87 -64.5 -142t-165.5 -55q-96 0 -198 61zM231 763l128 144h52l71 -144h-49l-55 94l-89 -94h-58z" />
    <glyph glyph-name="scircumflex" unicode="&#x15d;" horiz-adv-x="411" 
d="M17 33l10 58q74 -52 138 -52q50 0 81.5 26t31.5 67q0 30 -21 52.5t-51 37.5t-60 32t-51 45.5t-21 68.5q0 64 47.5 104t123.5 40q69 0 137 -39l-10 -57q-66 45 -127 45q-48 0 -78.5 -24.5t-30.5 -64.5q0 -29 21 -50.5t51 -36.5t60 -31.5t51 -46.5t21 -71
q0 -65 -48.5 -106.5t-126.5 -41.5q-72 0 -148 45zM137 575l128 144h52l71 -144h-49l-55 94l-89 -94h-58z" />
    <glyph glyph-name="Scedilla" unicode="&#x15e;" horiz-adv-x="528" 
d="M30 49l12 63q97 -71 186 -71q73 0 119.5 38.5t46.5 99.5q0 44 -29.5 76.5t-71 54t-83.5 44.5t-71.5 62t-29.5 93q0 84 63 137.5t163 53.5q89 0 182 -53l-12 -61q-88 61 -170 61q-72 0 -117 -36.5t-45 -95.5q0 -42 29.5 -73.5t71.5 -52.5t83.5 -44.5t71 -63.5t29.5 -96
q0 -82 -59.5 -136.5t-154.5 -59.5l-20 -51q26 -6 43 -26t17 -46q0 -41 -34 -69t-85 -28q-40 0 -79 24l9 45q35 -24 70 -24q28 0 46 14t18 37q0 21 -17.5 34t-46.5 13h-4l35 78q-84 9 -166 59z" />
    <glyph glyph-name="scedilla" unicode="&#x15f;" horiz-adv-x="411" 
d="M17 33l10 58q74 -52 138 -52q50 0 81.5 25.5t31.5 67.5q0 30 -21 52.5t-51 37.5t-60 32t-51 45.5t-21 68.5q0 64 47.5 104t123.5 40q69 0 137 -39l-10 -57q-66 45 -127 45q-48 0 -78.5 -24.5t-30.5 -64.5q0 -29 21 -50.5t51 -36.5t60 -31.5t51 -46.5t21 -71
q0 -60 -42 -100t-111 -47l-21 -51q27 -6 43 -26t16 -46q0 -41 -33.5 -69t-83.5 -28q-40 0 -81 24l9 45q36 -24 72 -24q27 0 44.5 14.5t17.5 36.5q0 21 -17 34t-45 13h-4l33 78q-61 8 -120 43z" />
    <glyph glyph-name="Scaron" unicode="&#x160;" horiz-adv-x="528" 
d="M30 49l12 63q97 -71 186 -71q73 0 119.5 39t46.5 99q0 44 -29.5 76.5t-71 54t-83.5 44.5t-71.5 62t-29.5 93q0 84 63 137.5t163 53.5q89 0 182 -53l-12 -61q-88 61 -170 61q-72 0 -117 -36.5t-45 -95.5q0 -42 29.5 -73.5t71.5 -52.5t83.5 -44.5t71 -63.5t29.5 -96
q0 -87 -64.5 -142t-165.5 -55q-96 0 -198 61zM512 907l-127 -144h-51l-72 144h49l55 -92l89 92h57z" />
    <glyph glyph-name="scaron" unicode="&#x161;" horiz-adv-x="411" 
d="M17 33l10 58q74 -52 138 -52q50 0 81.5 26t31.5 67q0 30 -21 52.5t-51 37.5t-60 32t-51 45.5t-21 68.5q0 64 47.5 104t123.5 40q69 0 137 -39l-10 -57q-66 45 -127 45q-48 0 -78.5 -24.5t-30.5 -64.5q0 -29 21 -50.5t51 -36.5t60 -31.5t51 -46.5t21 -71
q0 -65 -48.5 -106.5t-126.5 -41.5q-72 0 -148 45zM418 719l-127 -144h-51l-72 144h49l55 -92l89 92h57z" />
    <glyph glyph-name="uni0162" unicode="&#x162;" horiz-adv-x="567" 
d="M204 0l119 636h-224l10 52h513l-10 -52h-225l-118 -636h-65zM106 -242l93 168h64l-103 -168h-54z" />
    <glyph glyph-name="uni0163" unicode="&#x163;" horiz-adv-x="402" 
d="M257 641l-26 -141h179l-10 -50h-178l-59 -307q-3 -17 -3 -33q0 -32 20.5 -51t57.5 -19q40 0 91 28l-11 -60q-51 -20 -94 -20q-58 0 -92.5 31t-34.5 83q0 13 4 39l58 309h-99l9 50h99l26 141h63zM57 -242l93 168h64l-103 -168h-54z" />
    <glyph glyph-name="Tcaron" unicode="&#x164;" horiz-adv-x="567" 
d="M204 0l119 636h-224l10 52h513l-10 -52h-225l-118 -636h-65zM532 907l-127 -144h-51l-72 144h49l55 -92l89 92h57z" />
    <glyph glyph-name="tcaron" unicode="&#x165;" horiz-adv-x="402" 
d="M257 641l-26 -141h179l-10 -50h-178l-59 -307q-3 -17 -3 -33q0 -32 20.5 -51t57.5 -19q40 0 91 28l-11 -60q-51 -20 -94 -20q-58 0 -92.5 31t-34.5 83q0 13 4 39l58 309h-99l9 50h99l26 141h63zM323 575l79 144h61l-87 -144h-53z" />
    <glyph glyph-name="Tbar" unicode="&#x166;" horiz-adv-x="567" 
d="M204 0l58 314h-143l10 47h142l52 275h-224l10 52h513l-10 -52h-225l-51 -275h144l-10 -47h-144l-57 -314h-65z" />
    <glyph glyph-name="tbar" unicode="&#x167;" horiz-adv-x="402" 
d="M257 641l-26 -141h179l-10 -50h-178l-34 -172h163l-9 -47h-162l-17 -88q-3 -17 -3 -33q0 -32 20.5 -51t57.5 -19q40 0 91 28l-11 -60q-51 -20 -94 -20q-58 0 -92.5 31t-34.5 83q0 13 4 39l17 90h-92l9 47h91l33 172h-99l9 50h99l26 141h63z" />
    <glyph glyph-name="Utilde" unicode="&#x168;" horiz-adv-x="709" 
d="M692 688l-86 -459q-21 -111 -98 -176t-188 -65q-97 0 -161 58.5t-64 148.5q0 27 7 69l79 424h65l-80 -424q-7 -37 -7 -62q0 -70 46.5 -115t119.5 -45q84 0 142.5 52t75.5 141l85 453h64zM313 793q8 42 33.5 68.5t62.5 26.5q28 0 62.5 -28.5t49.5 -28.5q18 0 31.5 12.5
t17.5 33.5h45q-7 -42 -33 -68t-62 -26q-29 0 -63.5 28.5t-49.5 28.5q-18 0 -31.5 -13t-16.5 -34h-46z" />
    <glyph glyph-name="utilde" unicode="&#x169;" horiz-adv-x="545" 
d="M508 500l-93 -500h-61l9 53q-76 -65 -158 -65q-62 0 -103 39.5t-41 98.5q0 24 5 52l60 322h63l-61 -320q-4 -19 -4 -41q0 -45 27.5 -71.5t72.5 -26.5q73 0 150 75l73 384h61zM194 605q8 42 33.5 68.5t62.5 26.5q28 0 62.5 -28.5t49.5 -28.5q18 0 31.5 12.5t17.5 33.5h45
q-7 -42 -33 -68t-62 -26q-29 0 -63.5 28.5t-49.5 28.5q-18 0 -31.5 -13t-16.5 -34h-46z" />
    <glyph glyph-name="Umacron" unicode="&#x16a;" horiz-adv-x="709" 
d="M692 688l-86 -459q-21 -111 -98 -176t-188 -65q-97 0 -161 58.5t-64 148.5q0 27 7 69l79 424h65l-80 -424q-7 -37 -7 -62q0 -70 46.5 -115t119.5 -45q84 0 142.5 52t75.5 141l85 453h64zM314 812l10 47h290l-9 -47h-291z" />
    <glyph glyph-name="umacron" unicode="&#x16b;" horiz-adv-x="545" 
d="M508 500l-93 -500h-61l9 53q-76 -65 -158 -65q-62 0 -103 39.5t-41 98.5q0 24 5 52l60 322h63l-61 -320q-4 -19 -4 -41q0 -45 27.5 -71.5t72.5 -26.5q73 0 150 75l73 384h61zM195 624l10 47h290l-9 -47h-291z" />
    <glyph glyph-name="Ubreve" unicode="&#x16c;" horiz-adv-x="709" 
d="M692 688l-86 -459q-21 -111 -98 -176t-188 -65q-97 0 -161 58.5t-64 148.5q0 27 7 69l79 424h65l-80 -424q-7 -37 -7 -62q0 -70 46.5 -115t119.5 -45q84 0 142.5 52t75.5 141l85 453h64zM348 907h47q-1 -8 -1 -20q0 -29 20.5 -48t51.5 -19q38 0 63 23.5t31 63.5h48
q-9 -65 -47.5 -101t-99.5 -36q-50 0 -82.5 31t-32.5 78q0 18 2 28z" />
    <glyph glyph-name="ubreve" unicode="&#x16d;" horiz-adv-x="545" 
d="M508 500l-93 -500h-61l9 53q-76 -65 -158 -65q-62 0 -103 39.5t-41 98.5q0 24 5 52l60 322h63l-61 -320q-4 -19 -4 -41q0 -45 27.5 -71.5t72.5 -26.5q73 0 150 75l73 384h61zM229 719h47q-1 -8 -1 -20q0 -29 20.5 -48t51.5 -19q38 0 63 23.5t31 63.5h48
q-9 -65 -47.5 -101t-99.5 -36q-50 0 -82.5 31t-32.5 78q0 18 2 28z" />
    <glyph glyph-name="Uring" unicode="&#x16e;" horiz-adv-x="709" 
d="M692 688l-86 -459q-21 -111 -98 -176t-188 -65q-97 0 -161 58.5t-64 148.5q0 27 7 69l79 424h65l-80 -424q-7 -37 -7 -62q0 -70 46.5 -115t119.5 -45q84 0 142.5 52t75.5 141l85 453h64zM371 826q0 44 29.5 73t72.5 29q37 0 60 -23.5t23 -59.5q0 -44 -29 -73t-72 -29
q-37 0 -60.5 23t-23.5 60zM410 830q0 -21 13.5 -35t35.5 -14q25 0 42 17t17 42q0 22 -13.5 35.5t-35.5 13.5q-25 0 -42 -17t-17 -42z" />
    <glyph glyph-name="uring" unicode="&#x16f;" horiz-adv-x="545" 
d="M508 500l-93 -500h-61l9 53q-76 -65 -158 -65q-62 0 -103 39.5t-41 98.5q0 24 5 52l60 322h63l-61 -320q-4 -19 -4 -41q0 -45 27.5 -71.5t72.5 -26.5q73 0 150 75l73 384h61zM252 638q0 44 29 73t73 29q37 0 60 -23.5t23 -59.5q0 -44 -29 -73t-72 -29q-37 0 -60.5 23
t-23.5 60zM291 642q0 -21 13.5 -35t35.5 -14q25 0 42 17t17 42q0 22 -13.5 35.5t-35.5 13.5q-25 0 -42 -17t-17 -42z" />
    <glyph glyph-name="Uhungarumlaut" unicode="&#x170;" horiz-adv-x="709" 
d="M692 688l-86 -459q-21 -111 -98 -176t-188 -65q-97 0 -161 58.5t-64 148.5q0 27 7 69l79 424h65l-80 -424q-7 -37 -7 -62q0 -70 46.5 -115t119.5 -45q84 0 142.5 52t75.5 141l85 453h64zM489 763l127 144h73l-139 -144h-61zM325 763l128 144h73l-140 -144h-61z" />
    <glyph glyph-name="uhungarumlaut" unicode="&#x171;" horiz-adv-x="545" 
d="M508 500l-93 -500h-61l9 53q-76 -65 -158 -65q-62 0 -103 39.5t-41 98.5q0 24 5 52l60 322h63l-61 -320q-4 -19 -4 -41q0 -45 27.5 -71.5t72.5 -26.5q73 0 150 75l73 384h61zM370 575l127 144h73l-139 -144h-61zM206 575l128 144h73l-140 -144h-61z" />
    <glyph glyph-name="Uogonek" unicode="&#x172;" horiz-adv-x="709" 
d="M692 688l-86 -459q-14 -78 -58 -134t-112 -85q-62 -27 -95 -65t-33 -72q0 -18 13 -30t32 -12q18 0 40 8l-9 -46q-20 -10 -47 -10q-36 0 -60 20.5t-24 53.5q0 79 90 133q-16 -2 -25 -2q-99 0 -161 58.5t-62 148.5q0 27 7 69l79 424h65l-80 -424q-7 -37 -7 -62
q0 -70 46.5 -115t119.5 -45q84 0 142.5 51.5t75.5 140.5l85 454h64z" />
    <glyph glyph-name="uogonek" unicode="&#x173;" horiz-adv-x="545" 
d="M358 0h-4l9 53q-76 -65 -158 -65q-62 0 -103 39.5t-41 98.5q0 24 5 52l60 322h63l-61 -320q-4 -19 -4 -41q0 -45 27.5 -71.5t72.5 -26.5q73 0 150 75l73 384h61l-93 -500q-55 -29 -85.5 -62t-30.5 -65q0 -18 13 -30t32 -12t40 8l-9 -46q-20 -10 -46 -10q-37 0 -61 20.5
t-24 53.5q0 41 30 78.5t84 64.5z" />
    <glyph glyph-name="Wcircumflex" unicode="&#x174;" horiz-adv-x="990" 
d="M1041 688l-355 -688h-57l-76 599l-301 -599h-57l-95 688h61l76 -599l302 599h57l76 -599l301 599h68zM457 763l128 144h52l71 -144h-49l-55 94l-89 -94h-58z" />
    <glyph glyph-name="wcircumflex" unicode="&#x175;" horiz-adv-x="748" 
d="M768 500l-260 -500h-55l-50 419l-209 -419h-55l-71 500h59l51 -419l209 419h55l52 -419l209 419h65zM302 575l128 144h52l71 -144h-49l-55 94l-89 -94h-58z" />
    <glyph glyph-name="Ycircumflex" unicode="&#x176;" horiz-adv-x="570" 
d="M200 0l57 301l-167 387h69l137 -331l261 331h79l-315 -392l-57 -296h-64zM247 763l128 144h52l71 -144h-49l-55 94l-89 -94h-58z" />
    <glyph glyph-name="ycircumflex" unicode="&#x177;" horiz-adv-x="474" 
d="M498 500l-411 -719h-64l137 234l-96 485h61l76 -413l229 413h68zM166 575l128 144h52l71 -144h-49l-55 94l-89 -94h-58z" />
    <glyph glyph-name="Ydieresis" unicode="&#x178;" horiz-adv-x="570" 
d="M200 0l57 301l-167 387h69l137 -331l261 331h79l-315 -392l-57 -296h-64zM248 831q0 20 13 32.5t33 12.5q16 0 26 -10t10 -26q0 -19 -13 -32.5t-32 -13.5q-16 0 -26.5 10.5t-10.5 26.5zM446 831q0 19 13 32t33 13q16 0 26 -10t10 -26q0 -20 -13 -33t-33 -13
q-16 0 -26 10.5t-10 26.5z" />
    <glyph glyph-name="Zacute" unicode="&#x179;" horiz-adv-x="602" 
d="M-3 0l10 49l530 587h-399l10 52h478l-9 -49l-532 -587h426l-10 -52h-504zM353 763l128 144h72l-140 -144h-60z" />
    <glyph glyph-name="zacute" unicode="&#x17a;" horiz-adv-x="465" 
d="M-5 0l9 45l367 405h-276l10 50h353l-9 -45l-367 -405h296l-10 -50h-373zM250 575l128 144h72l-140 -144h-60z" />
    <glyph glyph-name="Zdotaccent" unicode="&#x17b;" horiz-adv-x="602" 
d="M-3 0l10 49l530 587h-399l10 52h478l-9 -49l-532 -587h426l-10 -52h-504zM367 831q0 19 13 32t33 13q17 0 27.5 -10t10.5 -26q0 -20 -13.5 -33t-32.5 -13q-17 0 -27.5 10.5t-10.5 26.5z" />
    <glyph glyph-name="zdotaccent" unicode="&#x17c;" horiz-adv-x="465" 
d="M-5 0l9 45l367 405h-276l10 50h353l-9 -45l-367 -405h296l-10 -50h-373zM264 643q0 19 13 32t33 13q17 0 27.5 -10t10.5 -26q0 -20 -13 -33t-33 -13q-17 0 -27.5 10.5t-10.5 26.5z" />
    <glyph glyph-name="Zcaron" unicode="&#x17d;" horiz-adv-x="602" 
d="M-3 0l10 49l530 587h-399l10 52h478l-9 -49l-532 -587h426l-10 -52h-504zM549 907l-127 -144h-51l-72 144h49l55 -92l89 92h57z" />
    <glyph glyph-name="zcaron" unicode="&#x17e;" horiz-adv-x="465" 
d="M-5 0l9 45l367 405h-276l10 50h353l-9 -45l-367 -405h296l-10 -50h-373zM446 719l-127 -144h-51l-72 144h49l55 -92l89 92h57z" />
    <glyph glyph-name="florin" unicode="&#x192;" 
d="M154 383l9 50h113l26 145q11 56 50 89t95 33q49 0 96 -25l-10 -54q-43 25 -79 25q-34 0 -58.5 -21.5t-31.5 -57.5l-25 -134h142l-9 -50h-142l-74 -398q-11 -56 -50 -89t-95 -33q-50 0 -96 26l10 53q45 -25 80 -25q33 0 57.5 21.5t31.5 57.5l72 387h-112z" />
    <glyph glyph-name="Scommaaccent" unicode="&#x218;" horiz-adv-x="528" 
d="M30 49l12 63q97 -71 186 -71q73 0 119.5 39t46.5 99q0 44 -29.5 76.5t-71 54t-83.5 44.5t-71.5 62t-29.5 93q0 84 63 137.5t163 53.5q89 0 182 -53l-12 -61q-88 61 -170 61q-72 0 -117 -36.5t-45 -95.5q0 -42 29.5 -73.5t71.5 -52.5t83.5 -44.5t71 -63.5t29.5 -96
q0 -87 -64.5 -142t-165.5 -55q-96 0 -198 61zM87 -242l93 168h64l-103 -168h-54z" />
    <glyph glyph-name="scommaaccent" unicode="&#x219;" horiz-adv-x="411" 
d="M17 33l10 58q74 -52 138 -52q50 0 81.5 26t31.5 67q0 30 -21 52.5t-51 37.5t-60 32t-51 45.5t-21 68.5q0 64 47.5 104t123.5 40q69 0 137 -39l-10 -57q-66 45 -127 45q-48 0 -78.5 -24.5t-30.5 -64.5q0 -29 21 -50.5t51 -36.5t60 -31.5t51 -46.5t21 -71
q0 -65 -48.5 -106.5t-126.5 -41.5q-72 0 -148 45zM28 -242l93 168h64l-103 -168h-54z" />
    <glyph glyph-name="uni021A" unicode="&#x21a;" horiz-adv-x="567" 
d="M204 0l119 636h-224l10 52h513l-10 -52h-225l-118 -636h-65zM106 -242l93 168h64l-103 -168h-54z" />
    <glyph glyph-name="uni021B" unicode="&#x21b;" horiz-adv-x="402" 
d="M257 641l-26 -141h179l-10 -50h-178l-59 -307q-3 -17 -3 -33q0 -32 20.5 -51t57.5 -19q40 0 91 28l-11 -60q-51 -20 -94 -20q-58 0 -92.5 31t-34.5 83q0 13 4 39l58 309h-99l9 50h99l26 141h63zM57 -242l93 168h64l-103 -168h-54z" />
    <glyph glyph-name="dotlessj" unicode="&#x237;" horiz-adv-x="229" 
d="M193 500l-114 -605q-11 -58 -51 -92t-98 -34q-51 0 -110 31l11 53q49 -32 92 -32q37 0 62.5 22.5t33.5 61.5l111 595h63z" />
    <glyph glyph-name="circumflex" unicode="&#x2c6;" horiz-adv-x="250" 
d="M57 575l128 144h52l71 -144h-49l-55 94l-89 -94h-58z" />
    <glyph glyph-name="caron" unicode="&#x2c7;" horiz-adv-x="250" 
d="M338 719l-127 -144h-51l-72 144h49l55 -92l89 92h57z" />
    <glyph glyph-name="uni02C9" unicode="&#x2c9;" horiz-adv-x="250" 
d="M49 624l10 47h290l-9 -47h-291z" />
    <glyph glyph-name="breve" unicode="&#x2d8;" horiz-adv-x="250" 
d="M83 719h47q-1 -8 -1 -20q0 -29 20.5 -48t51.5 -19q38 0 63 23.5t31 63.5h48q-9 -65 -47.5 -101t-99.5 -36q-50 0 -82.5 31t-32.5 78q0 18 2 28z" />
    <glyph glyph-name="dotaccent" unicode="&#x2d9;" horiz-adv-x="250" 
d="M156 643q0 19 13 32t33 13q17 0 27.5 -10t10.5 -26q0 -20 -13 -33t-33 -13q-17 0 -27.5 10.5t-10.5 26.5z" />
    <glyph glyph-name="ring" unicode="&#x2da;" horiz-adv-x="250" 
d="M106 638q0 44 29 73t73 29q37 0 60 -23.5t23 -59.5q0 -44 -29 -73t-72 -29q-37 0 -60.5 23t-23.5 60zM145 642q0 -21 13.5 -35t35.5 -14q25 0 42 17t17 42q0 22 -13.5 35.5t-35.5 13.5q-25 0 -42 -17t-17 -42z" />
    <glyph glyph-name="ogonek" unicode="&#x2db;" horiz-adv-x="250" 
d="M52 0h57q-55 -29 -85.5 -62t-30.5 -65q0 -18 13 -30t32 -12t40 8l-9 -46q-20 -10 -46 -10q-37 0 -61 20.5t-24 53.5q0 41 30 78.5t84 64.5z" />
    <glyph glyph-name="tilde" unicode="&#x2dc;" horiz-adv-x="250" 
d="M48 605q8 42 33.5 68.5t62.5 26.5q28 0 62.5 -28.5t49.5 -28.5q18 0 31.5 12.5t17.5 33.5h45q-7 -42 -33 -68t-62 -26q-29 0 -63.5 28.5t-49.5 28.5q-18 0 -31.5 -13t-16.5 -34h-46z" />
    <glyph glyph-name="hungarumlaut" unicode="&#x2dd;" horiz-adv-x="250" 
d="M224 575l127 144h73l-139 -144h-61zM60 575l128 144h73l-140 -144h-61z" />
    <glyph glyph-name="uni0394" unicode="&#x394;" horiz-adv-x="615" 
d="M-7 0l8 38l369 650h50l130 -654l-5 -34h-552zM381 593l-304 -541h407z" />
    <glyph glyph-name="uni03A9" unicode="&#x3a9;" horiz-adv-x="740" 
d="M-5 0l10 52h197q-116 146 -116 292q0 156 97 256t250 100q112 0 189 -73t77 -179q0 -221 -229 -396h192l-10 -52h-273l9 45q244 183 244 390q0 95 -57 153t-148 58q-124 0 -199.5 -87.5t-75.5 -228.5q0 -134 115 -285l-9 -45h-263z" />
    <glyph glyph-name="uni03BC" unicode="&#x3bc;" horiz-adv-x="549" 
d="M-5 -219l135 719h63l-61 -320q-4 -19 -4 -41q0 -45 27.5 -71.5t72.5 -26.5q73 0 151 75l72 384h61l-93 -500h-61l9 53q-73 -64 -153 -64q-67 0 -108 52l-48 -260h-63z" />
    <glyph glyph-name="pi" unicode="&#x3c0;" horiz-adv-x="568" 
d="M63 0l84 451h-95l10 49h537l-9 -49h-94l-84 -451h-63l84 451h-224l-84 -451h-62z" />
    <glyph glyph-name="Wgrave" unicode="&#x1e80;" horiz-adv-x="990" 
d="M1041 688l-355 -688h-57l-76 599l-301 -599h-57l-95 688h61l76 -599l302 599h57l76 -599l301 599h68zM576 763l-84 144h63l72 -144h-51z" />
    <glyph glyph-name="wgrave" unicode="&#x1e81;" horiz-adv-x="748" 
d="M768 500l-260 -500h-55l-50 419l-209 -419h-55l-71 500h59l51 -419l209 419h55l52 -419l209 419h65zM421 575l-84 144h63l72 -144h-51z" />
    <glyph glyph-name="Wacute" unicode="&#x1e82;" horiz-adv-x="990" 
d="M1041 688l-355 -688h-57l-76 599l-301 -599h-57l-95 688h61l76 -599l302 599h57l76 -599l301 599h68zM542 763l128 144h72l-140 -144h-60z" />
    <glyph glyph-name="wacute" unicode="&#x1e83;" horiz-adv-x="748" 
d="M768 500l-260 -500h-55l-50 419l-209 -419h-55l-71 500h59l51 -419l209 419h55l52 -419l209 419h65zM387 575l128 144h72l-140 -144h-60z" />
    <glyph glyph-name="Wdieresis" unicode="&#x1e84;" horiz-adv-x="990" 
d="M1041 688l-355 -688h-57l-76 599l-301 -599h-57l-95 688h61l76 -599l302 599h57l76 -599l301 599h68zM458 831q0 20 13 32.5t33 12.5q16 0 26 -10t10 -26q0 -19 -13 -32.5t-32 -13.5q-16 0 -26.5 10.5t-10.5 26.5zM656 831q0 19 13 32t33 13q16 0 26 -10t10 -26
q0 -20 -13 -33t-33 -13q-16 0 -26 10.5t-10 26.5z" />
    <glyph glyph-name="wdieresis" unicode="&#x1e85;" horiz-adv-x="748" 
d="M768 500l-260 -500h-55l-50 419l-209 -419h-55l-71 500h59l51 -419l209 419h55l52 -419l209 419h65zM303 643q0 20 13 32.5t33 12.5q16 0 26 -10t10 -26q0 -19 -13 -32.5t-32 -13.5q-16 0 -26.5 10.5t-10.5 26.5zM501 643q0 19 13 32t33 13q16 0 26 -10t10 -26
q0 -20 -13 -33t-33 -13q-16 0 -26 10.5t-10 26.5z" />
    <glyph glyph-name="uni1E9E" unicode="&#x1e9e;" horiz-adv-x="709" 
d="M56 0l129 688h515l-10 -49l-207 -238q73 -10 120.5 -60.5t47.5 -118.5q0 -99 -70.5 -166.5t-173.5 -67.5q-77 0 -152 43l12 61q72 -50 140 -50q75 0 126 49t51 121q0 66 -45 104.5t-124 38.5h-13l9 48l202 233h-374l-120 -636h-63z" />
    <glyph glyph-name="Ygrave" unicode="&#x1ef2;" horiz-adv-x="570" 
d="M200 0l57 301l-167 387h69l137 -331l261 331h79l-315 -392l-57 -296h-64zM366 763l-84 144h63l72 -144h-51z" />
    <glyph glyph-name="ygrave" unicode="&#x1ef3;" horiz-adv-x="474" 
d="M498 500l-411 -719h-64l137 234l-96 485h61l76 -413l229 413h68zM285 575l-84 144h63l72 -144h-51z" />
    <glyph glyph-name="figuredash" unicode="&#x2012;" 
d="M58 322l9 45h472l-8 -45h-473z" />
    <glyph glyph-name="endash" unicode="&#x2013;" horiz-adv-x="500" 
d="M32 230l10 49h426l-10 -49h-426z" />
    <glyph glyph-name="emdash" unicode="&#x2014;" horiz-adv-x="1000" 
d="M32 230l10 49h926l-10 -49h-926z" />
    <glyph glyph-name="quoteleft" unicode="&#x2018;" horiz-adv-x="250" 
d="M278 688l-111 -197h-67l119 197h59z" />
    <glyph glyph-name="quoteright" unicode="&#x2019;" horiz-adv-x="250" 
d="M100 491l110 197h68l-120 -197h-58z" />
    <glyph glyph-name="quotesinglbase" unicode="&#x201a;" horiz-adv-x="250" 
d="M-44 -125l110 197h67l-119 -197h-58z" />
    <glyph glyph-name="quotedblleft" unicode="&#x201c;" horiz-adv-x="412" 
d="M439 688l-109 -197h-68l119 197h58zM278 688l-111 -197h-67l119 197h59z" />
    <glyph glyph-name="quotedblright" unicode="&#x201d;" horiz-adv-x="412" 
d="M100 491l110 197h68l-120 -197h-58zM262 491l109 197h68l-119 -197h-58z" />
    <glyph glyph-name="quotedblbase" unicode="&#x201e;" horiz-adv-x="412" 
d="M117 -125l111 197h67l-119 -197h-59zM-44 -125l110 197h67l-119 -197h-58z" />
    <glyph glyph-name="dagger" unicode="&#x2020;" horiz-adv-x="442" 
d="M147 0l87 470h-164l11 54h164l30 164h54l-30 -164h164l-10 -54h-164l-88 -470h-54z" />
    <glyph glyph-name="daggerdbl" unicode="&#x2021;" horiz-adv-x="442" 
d="M147 0l30 164h-164l10 54h165l46 252h-164l11 54h164l30 164h54l-30 -164h164l-10 -54h-164l-47 -252h164l-10 -54h-165l-30 -164h-54z" />
    <glyph glyph-name="bullet" unicode="&#x2022;" horiz-adv-x="500" 
d="M127 344q0 58 41.5 99.5t99.5 41.5t99.5 -41.5t41.5 -99.5t-41.5 -99.5t-99.5 -41.5t-99.5 41.5t-41.5 99.5z" />
    <glyph glyph-name="ellipsis" unicode="&#x2026;" horiz-adv-x="1001" 
d="M751 29q0 22 14 36t36 14q18 0 29 -11.5t11 -29.5q0 -22 -14 -36t-36 -14q-17 0 -28.5 11.5t-11.5 29.5zM417 29q0 22 14 36t36 14q18 0 29 -11.5t11 -29.5q0 -22 -14 -36t-36 -14q-17 0 -28.5 11.5t-11.5 29.5zM83 29q0 22 14 36t36 14q18 0 29.5 -11.5t11.5 -29.5
q0 -22 -14 -36t-36 -14q-18 0 -29.5 11.5t-11.5 29.5z" />
    <glyph glyph-name="perthousand" unicode="&#x2030;" horiz-adv-x="1206" 
d="M460 127q0 96 55.5 162.5t136.5 66.5q58 0 97.5 -40t39.5 -99q0 -96 -55.5 -162.5t-136.5 -66.5q-58 0 -97.5 40t-39.5 99zM512 134q0 -46 24.5 -74.5t65.5 -28.5q56 0 95.5 52.5t39.5 126.5q0 46 -24.5 74.5t-65.5 28.5q-56 0 -95.5 -52t-39.5 -127zM91 472
q0 96 55.5 162t136.5 66q58 0 97 -40t39 -100q0 -96 -55.5 -162t-135.5 -66q-59 0 -98 40t-39 100zM143 478q0 -46 25 -74t65 -28q56 0 95 52t39 126q0 47 -24.5 75t-64.5 28q-56 0 -95.5 -52t-39.5 -127zM88 0l642 688h61l-641 -688h-62zM822 127q0 96 55.5 162.5
t136.5 66.5q58 0 97.5 -40t39.5 -99q0 -96 -55.5 -162.5t-136.5 -66.5q-59 0 -98 40t-39 99zM874 134q0 -46 24.5 -74.5t65.5 -28.5q56 0 95 52.5t39 126.5q0 46 -24.5 74.5t-64.5 28.5q-56 0 -95.5 -52t-39.5 -127z" />
    <glyph glyph-name="guilsinglleft" unicode="&#x2039;" horiz-adv-x="369" 
d="M357 456l-221 -208l141 -203h-64l-161 207l231 204h74z" />
    <glyph glyph-name="guilsinglright" unicode="&#x203a;" horiz-adv-x="369" 
d="M12 45l221 207l-141 204h64l161 -208l-232 -203h-73z" />
    <glyph glyph-name="fraction" unicode="&#x2044;" horiz-adv-x="156" 
d="M-256 0l642 688h61l-641 -688h-62z" />
    <glyph glyph-name="uni2070" unicode="&#x2070;" horiz-adv-x="371" 
d="M99 547q0 116 53 194.5t132 78.5q56 0 87.5 -39t31.5 -108q0 -116 -52.5 -194.5t-131.5 -78.5q-56 0 -88 39t-32 108zM154 553q0 -50 19 -78.5t51 -28.5q50 0 87 65.5t37 155.5q0 50 -19 78.5t-51 28.5q-50 0 -87 -65.5t-37 -155.5z" />
    <glyph glyph-name="uni2074" unicode="&#x2074;" horiz-adv-x="341" 
d="M232 407l21 110h-183l7 39l237 257h47l-48 -253h63l-8 -43h-63l-20 -110h-53zM134 560h127l32 171z" />
    <glyph glyph-name="uni2075" unicode="&#x2075;" horiz-adv-x="308" 
d="M359 813l-9 -46h-158l-22 -114q21 3 39 3q52 0 86 -31.5t34 -79.5q0 -64 -45 -104.5t-117 -40.5q-50 0 -99 29l9 50q47 -33 90 -33q45 0 75.5 26t30.5 67q0 33 -24 53.5t-62 20.5q-35 0 -74 -9l38 209h208z" />
    <glyph glyph-name="uni2076" unicode="&#x2076;" horiz-adv-x="339" 
d="M277 813h77q-127 -83 -176 -172q34 23 77 23q46 0 77.5 -32t31.5 -79q0 -64 -44.5 -108.5t-109.5 -44.5q-53 0 -86.5 34.5t-33.5 89.5q0 75 48.5 150t138.5 139zM155 583q-11 -28 -11 -56q0 -36 20 -58.5t52 -22.5q38 0 65.5 30t27.5 70q0 32 -19.5 52.5t-50.5 20.5
q-43 0 -84 -36z" />
    <glyph glyph-name="uni2077" unicode="&#x2077;" horiz-adv-x="277" 
d="M73 407l221 360h-191l8 46h255l-7 -35l-225 -371h-61z" />
    <glyph glyph-name="uni2078" unicode="&#x2078;" horiz-adv-x="341" 
d="M129 696q0 53 41 88.5t101 35.5q49 0 80.5 -27.5t31.5 -69.5q0 -38 -22.5 -67.5t-61.5 -42.5q59 -25 59 -85q0 -55 -43.5 -91.5t-110.5 -36.5q-50 0 -84.5 29t-34.5 71q0 41 25.5 72.5t69.5 43.5q-24 10 -37.5 32t-13.5 48zM138 507q0 -28 20 -46t51 -18q41 0 67.5 24
t26.5 61q0 28 -19.5 46t-50.5 18q-41 0 -68 -24t-27 -61zM182 695q0 -28 17.5 -44.5t46.5 -16.5q36 0 60 24t24 58q0 28 -17.5 44.5t-46.5 16.5q-36 0 -60 -24t-24 -58z" />
    <glyph glyph-name="uni2079" unicode="&#x2079;" horiz-adv-x="339" 
d="M197 407h-79q128 84 178 172q-36 -23 -78 -23q-46 0 -77.5 32t-31.5 79q0 64 44.5 108.5t108.5 44.5q53 0 87 -34.5t34 -89.5q0 -74 -48.5 -149.5t-137.5 -139.5zM318 637q10 26 10 56q0 36 -19 58.5t-52 22.5q-38 0 -66 -29.5t-28 -70.5q0 -32 20 -52.5t50 -20.5
q46 0 85 36z" />
    <glyph glyph-name="uni207A" unicode="&#x207a;" horiz-adv-x="344" 
d="M92 587v46h125v125h46v-125h125v-46h-125v-125h-46v125h-125z" />
    <glyph glyph-name="uni207B" unicode="&#x207b;" horiz-adv-x="344" 
d="M92 587v46h296v-46h-296z" />
    <glyph glyph-name="uni207C" unicode="&#x207c;" horiz-adv-x="344" 
d="M92 528v45h296v-45h-296zM92 647v45h296v-45h-296z" />
    <glyph glyph-name="uni207D" unicode="&#x207d;" horiz-adv-x="203" 
d="M109 557q0 187 139 312h63q-72 -60 -110.5 -139.5t-38.5 -168.5q0 -111 48 -210h-52q-49 100 -49 206z" />
    <glyph glyph-name="uni207E" unicode="&#x207e;" horiz-adv-x="203" 
d="M226 664q0 -186 -139 -313h-64q150 125 150 308q0 111 -48 210h52q49 -100 49 -205z" />
    <glyph glyph-name="uni2080" unicode="&#x2080;" horiz-adv-x="371" 
d="M-1 15q0 116 53 194.5t132 78.5q56 0 87.5 -39t31.5 -108q0 -116 -52.5 -194.5t-131.5 -78.5q-56 0 -88 39t-32 108zM54 21q0 -50 19 -78.5t51 -28.5q50 0 87 65.5t37 155.5q0 50 -19 78.5t-51 28.5q-50 0 -87 -65.5t-37 -155.5z" />
    <glyph glyph-name="uni2081" unicode="&#x2081;" horiz-adv-x="246" 
d="M55 -125l64 345l-113 -52l10 52l132 61h38l-76 -406h-55z" />
    <glyph glyph-name="uni2082" unicode="&#x2082;" horiz-adv-x="307" 
d="M-49 -125l7 39q234 166 234 260q0 31 -18 49t-48 18q-53 0 -104 -38l10 57q52 28 107 28q49 0 79.5 -29t30.5 -76q0 -56 -52.5 -118.5t-160.5 -143.5h172l-8 -46h-249z" />
    <glyph glyph-name="uni2083" unicode="&#x2083;" horiz-adv-x="303" 
d="M59 60l9 43h22q42 0 71 23.5t29 57.5q0 26 -19.5 42.5t-49.5 16.5q-43 0 -94 -27l9 52q48 20 96 20q49 0 80.5 -27t31.5 -70q0 -38 -25.5 -69t-65.5 -42q31 -9 48.5 -32.5t17.5 -55.5q0 -54 -43 -89t-108 -35q-58 0 -110 32l8 49q52 -36 101 -36q41 0 68.5 23t27.5 57
q0 30 -23.5 48.5t-60.5 18.5h-20z" />
    <glyph glyph-name="uni2084" unicode="&#x2084;" horiz-adv-x="341" 
d="M132 -125l21 110h-183l7 39l237 257h47l-48 -253h63l-8 -43h-63l-20 -110h-53zM34 28h127l32 171z" />
    <glyph glyph-name="uni2085" unicode="&#x2085;" horiz-adv-x="308" 
d="M259 281l-9 -46h-158l-22 -114q21 3 39 3q52 0 86 -31.5t34 -79.5q0 -64 -45 -104.5t-117 -40.5q-50 0 -99 29l9 50q47 -33 90 -33q45 0 75.5 26t30.5 67q0 33 -24 53.5t-62 20.5q-35 0 -74 -9l38 209h208z" />
    <glyph glyph-name="uni2086" unicode="&#x2086;" horiz-adv-x="339" 
d="M177 281h77q-127 -83 -176 -172q34 23 77 23q46 0 77.5 -32t31.5 -79q0 -64 -44.5 -108.5t-109.5 -44.5q-53 0 -86.5 34.5t-33.5 89.5q0 75 48.5 150t138.5 139zM55 51q-11 -28 -11 -56q0 -36 20 -58.5t52 -22.5q38 0 65.5 30t27.5 70q0 32 -19.5 52.5t-50.5 20.5
q-43 0 -84 -36z" />
    <glyph glyph-name="uni2087" unicode="&#x2087;" horiz-adv-x="277" 
d="M-27 -125l221 360h-191l8 46h255l-7 -35l-225 -371h-61z" />
    <glyph glyph-name="uni2088" unicode="&#x2088;" horiz-adv-x="341" 
d="M29 164q0 53 41 88.5t101 35.5q49 0 80.5 -27.5t31.5 -69.5q0 -38 -22.5 -67.5t-61.5 -42.5q59 -25 59 -85q0 -55 -43.5 -91.5t-110.5 -36.5q-50 0 -84.5 29t-34.5 71q0 41 25.5 72.5t69.5 43.5q-24 10 -37.5 32t-13.5 48zM38 -25q0 -28 20 -46t51 -18q41 0 67.5 24
t26.5 61q0 28 -19.5 46t-50.5 18q-41 0 -68 -24t-27 -61zM82 163q0 -28 17.5 -44.5t46.5 -16.5q36 0 60 24t24 58q0 28 -17.5 44.5t-46.5 16.5q-36 0 -60 -24t-24 -58z" />
    <glyph glyph-name="uni2089" unicode="&#x2089;" horiz-adv-x="339" 
d="M97 -125h-79q128 84 178 172q-36 -23 -78 -23q-46 0 -77.5 32t-31.5 79q0 64 44.5 108.5t108.5 44.5q53 0 87 -34.5t34 -89.5q0 -74 -48.5 -149.5t-137.5 -139.5zM218 105q10 26 10 56q0 36 -19 58.5t-52 22.5q-38 0 -66 -29.5t-28 -70.5q0 -32 20 -52.5t50 -20.5
q46 0 85 36z" />
    <glyph glyph-name="uni208A" unicode="&#x208a;" horiz-adv-x="344" 
d="M-8 55v46h125v125h46v-125h125v-46h-125v-125h-46v125h-125z" />
    <glyph glyph-name="uni208B" unicode="&#x208b;" horiz-adv-x="344" 
d="M-8 55v46h296v-46h-296z" />
    <glyph glyph-name="uni208C" unicode="&#x208c;" horiz-adv-x="344" 
d="M-8 -4v45h296v-45h-296zM-8 115v45h296v-45h-296z" />
    <glyph glyph-name="uni208D" unicode="&#x208d;" horiz-adv-x="203" 
d="M9 25q0 187 139 312h63q-72 -60 -110.5 -139.5t-38.5 -168.5q0 -111 48 -210h-52q-49 100 -49 206z" />
    <glyph glyph-name="uni208E" unicode="&#x208e;" horiz-adv-x="203" 
d="M126 132q0 -186 -139 -313h-64q150 125 150 308q0 111 -48 210h52q49 -100 49 -205z" />
    <glyph glyph-name="Euro" unicode="&#x20ac;" 
d="M14 246l9 47h80q3 61 15 102h-76l9 47h80q41 117 123 187.5t185 70.5q81 0 155 -47l-10 -57q-69 50 -144 50q-79 0 -143 -55t-99 -149h235l-8 -47h-242q-12 -46 -15 -102h237l-9 -47h-229q3 -94 50 -149t125 -55q70 0 145 44l-12 -64q-71 -34 -142 -34
q-102 0 -165.5 71.5t-65.5 186.5h-88z" />
    <glyph glyph-name="afii61289" unicode="&#x2113;" horiz-adv-x="380" 
d="M290 68l-10 -60q-51 -20 -94 -20q-58 0 -92.5 31t-34.5 83q0 22 4 39l84 449q12 67 49 104t91 37q50 0 81 -35.5t31 -92.5q0 -91 -66 -181.5t-187 -167.5l-21 -111q-4 -22 -4 -33q0 -32 21 -51t58 -19q39 0 90 28zM346 599q0 36 -16 58t-43 22q-61 0 -80 -97l-48 -257
q90 59 138.5 130.5t48.5 143.5z" />
    <glyph glyph-name="numero" unicode="&#x2116;" horiz-adv-x="1068" 
d="M56 0l129 688h54l279 -578l108 578h62l-129 -688h-54l-278 578l-108 -578h-63zM756 261l8 41h268l-9 -41h-267zM792 496q0 87 48.5 143.5t124.5 56.5q56 0 90.5 -35.5t34.5 -92.5q0 -87 -49 -143.5t-125 -56.5q-56 0 -90 35t-34 93zM846 501q0 -41 20.5 -65t55.5 -24
q47 0 80 44t33 107q0 40 -20.5 64t-54.5 24q-48 0 -81 -43.5t-33 -106.5z" />
    <glyph glyph-name="uni2117" unicode="&#x2117;" horiz-adv-x="845" 
d="M81 344q0 158 100.5 259t258.5 101t259 -101t101 -259t-101 -259t-259 -101t-258.5 101t-100.5 259zM127 344q0 -138 88 -226t225 -88q138 0 226 88t88 226t-88 226t-226 88q-137 0 -225 -88t-88 -226zM332 141v406h130q61 0 99.5 -35.5t38.5 -90.5q0 -56 -38.5 -92
t-99.5 -36h-76v-152h-54zM386 503v-165h68q40 0 65 23t25 60t-25 59.5t-65 22.5h-68z" />
    <glyph glyph-name="uni2120" unicode="&#x2120;" horiz-adv-x="841" 
d="M89 303v53q57 -37 111 -37q40 0 64.5 19.5t24.5 51.5q0 27 -21.5 44t-51.5 26.5t-60.5 21.5t-52 37t-21.5 63q0 50 38 81.5t99 31.5q52 0 106 -23v-53q-49 31 -102 31q-38 0 -62 -18.5t-24 -48.5q0 -26 21.5 -42.5t51.5 -26t60.5 -21.5t52 -37.5t21.5 -64.5
q0 -51 -39 -83.5t-101 -32.5q-59 0 -115 28zM442 282v406h49l141 -200l141 200h48v-406h-53v317l-119 -170h-34l-119 170v-317h-54z" />
    <glyph glyph-name="trademark" unicode="&#x2122;" horiz-adv-x="866" 
d="M197 282v361h-130v45h316v-45h-131v-361h-55zM468 282v406h48l141 -200l142 200h47v-406h-52v317l-119 -170h-35l-119 170v-317h-53z" />
    <glyph glyph-name="Omega" unicode="&#x2126;" horiz-adv-x="740" 
d="M-5 0l10 52h197q-116 146 -116 292q0 156 97 256t250 100q112 0 189 -73t77 -179q0 -221 -229 -396h192l-10 -52h-273l9 45q244 183 244 390q0 95 -57 153t-148 58q-124 0 -199.5 -87.5t-75.5 -228.5q0 -134 115 -285l-9 -45h-263z" />
    <glyph glyph-name="estimated" unicode="&#x212e;" horiz-adv-x="938" 
d="M113 344q0 148 114.5 252t276.5 104t276.5 -104t114.5 -252v-16h-641v-191q46 -55 111 -86t139 -31q76 0 142 32t111 89h68q-54 -71 -138.5 -112t-182.5 -41q-162 0 -276.5 104.5t-114.5 251.5zM254 551v-191h500v191q-45 55 -110.5 86.5t-139.5 31.5t-139 -31.5
t-111 -86.5z" />
    <glyph glyph-name="onethird" unicode="&#x2153;" horiz-adv-x="845" 
d="M181 282l64 345l-113 -52l10 52l132 61h38l-76 -406h-55zM88 0l642 688h61l-641 -688h-62zM604 185l9 43h22q42 0 71 23.5t29 57.5q0 26 -19.5 42.5t-49.5 16.5q-43 0 -94 -27l9 52q48 20 96 20q49 0 80.5 -27t31.5 -70q0 -38 -25.5 -69t-65.5 -42q31 -9 48.5 -32.5
t17.5 -55.5q0 -54 -43 -89t-108 -35q-58 0 -110 32l8 49q52 -36 101 -36q41 0 68.5 23t27.5 57q0 30 -23.5 48.5t-60.5 18.5h-20z" />
    <glyph glyph-name="twothirds" unicode="&#x2154;" horiz-adv-x="845" 
d="M47 282l7 39q234 166 234 260q0 31 -18 49t-48 18q-53 0 -104 -38l10 57q52 28 107 28q49 0 79.5 -29t30.5 -76q0 -56 -52.5 -118.5t-160.5 -143.5h172l-8 -46h-249zM88 0l642 688h61l-641 -688h-62zM604 185l9 43h22q42 0 71 23.5t29 57.5q0 26 -19.5 42.5t-49.5 16.5
q-43 0 -94 -27l9 52q48 20 96 20q49 0 80.5 -27t31.5 -70q0 -38 -25.5 -69t-65.5 -42q31 -9 48.5 -32.5t17.5 -55.5q0 -54 -43 -89t-108 -35q-58 0 -110 32l8 49q52 -36 101 -36q41 0 68.5 23t27.5 57q0 30 -23.5 48.5t-60.5 18.5h-20z" />
    <glyph glyph-name="uni2155" unicode="&#x2155;" horiz-adv-x="845" 
d="M181 282l64 345l-113 -52l10 52l132 61h38l-76 -406h-55zM88 0l642 688h61l-641 -688h-62zM802 406l-9 -46h-158l-22 -114q21 3 39 3q52 0 86 -31.5t34 -79.5q0 -64 -45 -104.5t-117 -40.5q-50 0 -99 29l9 50q47 -33 90 -33q45 0 75.5 26t30.5 67q0 33 -24 53.5t-62 20.5
q-35 0 -74 -9l38 209h208z" />
    <glyph glyph-name="uni2156" unicode="&#x2156;" horiz-adv-x="845" 
d="M47 282l7 39q234 166 234 260q0 31 -18 49t-48 18q-53 0 -104 -38l10 57q52 28 107 28q49 0 79.5 -29t30.5 -76q0 -56 -52.5 -118.5t-160.5 -143.5h172l-8 -46h-249zM88 0l642 688h61l-641 -688h-62zM802 406l-9 -46h-158l-22 -114q21 3 39 3q52 0 86 -31.5t34 -79.5
q0 -64 -45 -104.5t-117 -40.5q-50 0 -99 29l9 50q47 -33 90 -33q45 0 75.5 26t30.5 67q0 33 -24 53.5t-62 20.5q-35 0 -74 -9l38 209h208z" />
    <glyph glyph-name="uni2157" unicode="&#x2157;" horiz-adv-x="845" 
d="M157 467l9 43h22q42 0 71 23.5t29 57.5q0 26 -19.5 42.5t-49.5 16.5q-43 0 -94 -27l9 52q48 20 96 20q49 0 80.5 -27t31.5 -70q0 -38 -25.5 -69t-65.5 -42q31 -9 48.5 -32.5t17.5 -55.5q0 -54 -43 -89t-108 -35q-58 0 -110 32l8 49q52 -36 101 -36q41 0 68.5 23t27.5 57
q0 30 -23.5 48.5t-60.5 18.5h-20zM88 0l642 688h61l-641 -688h-62zM802 406l-9 -46h-158l-22 -114q21 3 39 3q52 0 86 -31.5t34 -79.5q0 -64 -45 -104.5t-117 -40.5q-50 0 -99 29l9 50q47 -33 90 -33q45 0 75.5 26t30.5 67q0 33 -24 53.5t-62 20.5q-35 0 -74 -9l38 209h208z
" />
    <glyph glyph-name="uni2158" unicode="&#x2158;" horiz-adv-x="845" 
d="M210 282l21 110h-183l7 39l237 257h47l-48 -253h63l-8 -43h-63l-20 -110h-53zM112 435h127l32 171zM88 0l642 688h61l-641 -688h-62zM802 406l-9 -46h-158l-22 -114q21 3 39 3q52 0 86 -31.5t34 -79.5q0 -64 -45 -104.5t-117 -40.5q-50 0 -99 29l9 50q47 -33 90 -33
q45 0 75.5 26t30.5 67q0 33 -24 53.5t-62 20.5q-35 0 -74 -9l38 209h208z" />
    <glyph glyph-name="uni2159" unicode="&#x2159;" horiz-adv-x="845" 
d="M181 282l64 345l-113 -52l10 52l132 61h38l-76 -406h-55zM88 0l642 688h61l-641 -688h-62zM704 406h77q-127 -83 -176 -172q35 23 77 23q46 0 77.5 -32t31.5 -79q0 -64 -44.5 -108.5t-109.5 -44.5q-53 0 -86.5 34.5t-33.5 89.5q0 75 48.5 150t138.5 139zM582 176
q-11 -28 -11 -56q0 -36 20 -58.5t52 -22.5q38 0 65.5 30t27.5 70q0 32 -19.5 52.5t-50.5 20.5q-43 0 -84 -36z" />
    <glyph glyph-name="uni215A" unicode="&#x215a;" horiz-adv-x="845" 
d="M354 688l-9 -46h-158l-22 -114q21 3 39 3q52 0 86 -31.5t34 -79.5q0 -64 -45 -104.5t-117 -40.5q-50 0 -99 29l9 50q47 -33 90 -33q45 0 75.5 26t30.5 67q0 33 -24 53.5t-62 20.5q-35 0 -74 -9l38 209h208zM88 0l642 688h61l-641 -688h-62zM704 406h77
q-127 -83 -176 -172q35 23 77 23q46 0 77.5 -32t31.5 -79q0 -64 -44.5 -108.5t-109.5 -44.5q-53 0 -86.5 34.5t-33.5 89.5q0 75 48.5 150t138.5 139zM582 176q-11 -28 -11 -56q0 -36 20 -58.5t52 -22.5q38 0 65.5 30t27.5 70q0 32 -19.5 52.5t-50.5 20.5q-43 0 -84 -36z" />
    <glyph glyph-name="oneeighth" unicode="&#x215b;" horiz-adv-x="845" 
d="M181 282l64 345l-113 -52l10 52l132 61h38l-76 -406h-55zM88 0l642 688h61l-641 -688h-62zM555 289q0 53 41 88.5t101 35.5q49 0 80.5 -27.5t31.5 -69.5q0 -38 -22.5 -67.5t-61.5 -42.5q59 -25 59 -85q0 -55 -43.5 -91.5t-110.5 -36.5q-50 0 -84.5 29t-34.5 71
q0 41 25.5 72.5t69.5 43.5q-24 10 -37.5 32t-13.5 48zM564 100q0 -28 20 -46t51 -18q41 0 67.5 24t26.5 61q0 28 -19.5 46t-50.5 18q-41 0 -68 -24t-27 -61zM608 288q0 -28 17.5 -44.5t46.5 -16.5q36 0 60 24t24 58q0 28 -17.5 44.5t-46.5 16.5q-36 0 -60 -24t-24 -58z" />
    <glyph glyph-name="threeeighths" unicode="&#x215c;" horiz-adv-x="845" 
d="M154 467l9 43h22q42 0 71 23.5t29 57.5q0 26 -19.5 42.5t-49.5 16.5q-43 0 -94 -27l9 52q48 20 96 20q49 0 80.5 -27t31.5 -70q0 -38 -25.5 -69t-65.5 -42q31 -9 48.5 -32.5t17.5 -55.5q0 -54 -43 -89t-108 -35q-58 0 -110 32l8 49q52 -36 101 -36q41 0 68.5 23t27.5 57
q0 30 -23.5 48.5t-60.5 18.5h-20zM88 0l642 688h61l-641 -688h-62zM555 289q0 53 41 88.5t101 35.5q49 0 80.5 -27.5t31.5 -69.5q0 -38 -22.5 -67.5t-61.5 -42.5q59 -25 59 -85q0 -55 -43.5 -91.5t-110.5 -36.5q-50 0 -84.5 29t-34.5 71q0 41 25.5 72.5t69.5 43.5
q-24 10 -37.5 32t-13.5 48zM564 100q0 -28 20 -46t51 -18q41 0 67.5 24t26.5 61q0 28 -19.5 46t-50.5 18q-41 0 -68 -24t-27 -61zM608 288q0 -28 17.5 -44.5t46.5 -16.5q36 0 60 24t24 58q0 28 -17.5 44.5t-46.5 16.5q-36 0 -60 -24t-24 -58z" />
    <glyph glyph-name="fiveeighths" unicode="&#x215d;" horiz-adv-x="845" 
d="M354 688l-9 -46h-158l-22 -114q21 3 39 3q52 0 86 -31.5t34 -79.5q0 -64 -45 -104.5t-117 -40.5q-50 0 -99 29l9 50q47 -33 90 -33q45 0 75.5 26t30.5 67q0 33 -24 53.5t-62 20.5q-35 0 -74 -9l38 209h208zM88 0l642 688h61l-641 -688h-62zM555 289q0 53 41 88.5
t101 35.5q49 0 80.5 -27.5t31.5 -69.5q0 -38 -22.5 -67.5t-61.5 -42.5q59 -25 59 -85q0 -55 -43.5 -91.5t-110.5 -36.5q-50 0 -84.5 29t-34.5 71q0 41 25.5 72.5t69.5 43.5q-24 10 -37.5 32t-13.5 48zM564 100q0 -28 20 -46t51 -18q41 0 67.5 24t26.5 61q0 28 -19.5 46
t-50.5 18q-41 0 -68 -24t-27 -61zM608 288q0 -28 17.5 -44.5t46.5 -16.5q36 0 60 24t24 58q0 28 -17.5 44.5t-46.5 16.5q-36 0 -60 -24t-24 -58z" />
    <glyph glyph-name="seveneighths" unicode="&#x215e;" horiz-adv-x="845" 
d="M84 282l221 360h-191l8 46h255l-7 -35l-225 -371h-61zM88 0l642 688h61l-641 -688h-62zM555 289q0 53 41 88.5t101 35.5q49 0 80.5 -27.5t31.5 -69.5q0 -38 -22.5 -67.5t-61.5 -42.5q59 -25 59 -85q0 -55 -43.5 -91.5t-110.5 -36.5q-50 0 -84.5 29t-34.5 71
q0 41 25.5 72.5t69.5 43.5q-24 10 -37.5 32t-13.5 48zM564 100q0 -28 20 -46t51 -18q41 0 67.5 24t26.5 61q0 28 -19.5 46t-50.5 18q-41 0 -68 -24t-27 -61zM608 288q0 -28 17.5 -44.5t46.5 -16.5q36 0 60 24t24 58q0 28 -17.5 44.5t-46.5 16.5q-36 0 -60 -24t-24 -58z" />
    <glyph glyph-name="uni215F" unicode="&#x215f;" horiz-adv-x="500" 
d="M181 282l64 345l-113 -52l10 52l132 61h38l-76 -406h-55zM88 0l642 688h61l-641 -688h-62z" />
    <glyph glyph-name="arrowleft" unicode="&#x2190;" horiz-adv-x="1000" 
d="M937 252h-758l251 -252h-85l-282 282l282 282h85l-251 -252h758v-60z" />
    <glyph glyph-name="arrowup" unicode="&#x2191;" horiz-adv-x="1000" 
d="M470 -155v758l-252 -251v85l282 282l282 -282v-85l-252 251v-758h-60z" />
    <glyph glyph-name="arrowright" unicode="&#x2192;" horiz-adv-x="1000" 
d="M63 312h758l-251 252h85l282 -282l-282 -282h-85l251 252h-758v60z" />
    <glyph glyph-name="arrowdown" unicode="&#x2193;" horiz-adv-x="1000" 
d="M530 719v-758l252 251v-85l-282 -282l-282 282v85l252 -251v758h60z" />
    <glyph glyph-name="uni2196" unicode="&#x2196;" horiz-adv-x="1000" 
d="M788 -48l-537 536v-356l-60 60v399h399l60 -60h-356l536 -537z" />
    <glyph glyph-name="uni2197" unicode="&#x2197;" horiz-adv-x="1000" 
d="M170 -6l536 537h-356l60 60h399v-399l-60 -60v356l-537 -536z" />
    <glyph glyph-name="uni2198" unicode="&#x2198;" horiz-adv-x="1000" 
d="M212 612l537 -536v356l60 -60v-399h-399l-60 60h356l-536 537z" />
    <glyph glyph-name="uni2199" unicode="&#x2199;" horiz-adv-x="1000" 
d="M830 570l-536 -537h356l-60 -60h-399v399l60 60v-356l537 536z" />
    <glyph glyph-name="partialdiff" unicode="&#x2202;" horiz-adv-x="560" 
d="M45 253q0 114 63.5 186.5t165.5 72.5q95 0 162 -74q-12 111 -63.5 176t-126.5 65q-73 0 -141 -48v61q70 39 148 39q117 0 185.5 -103.5t68.5 -282.5q0 -159 -66 -258t-173 -99q-98 0 -160.5 74t-62.5 191zM109 250q0 -92 44.5 -151t115.5 -59q78 0 126.5 74.5t48.5 195.5
q0 28 -3 61q-72 89 -161 89q-77 0 -124 -58t-47 -152z" />
    <glyph glyph-name="Delta" unicode="&#x2206;" horiz-adv-x="615" 
d="M-7 0l8 38l369 650h50l130 -654l-5 -34h-552zM381 593l-304 -541h407z" />
    <glyph glyph-name="product" unicode="&#x220f;" horiz-adv-x="756" 
d="M121 -219v938h550v-938h-64v887h-422v-887h-64z" />
    <glyph glyph-name="summation" unicode="&#x2211;" horiz-adv-x="661" 
d="M69 -219v42l336 433l-320 421v42h513v-51h-432l297 -392v-40l-313 -403h464v-52h-545z" />
    <glyph glyph-name="minus" unicode="&#x2212;" 
d="M37 254v55h501v-55h-501z" />
    <glyph glyph-name="uni2215" unicode="&#x2215;" horiz-adv-x="156" 
d="M-256 0l642 688h61l-641 -688h-62z" />
    <glyph glyph-name="uni2219" unicode="&#x2219;" horiz-adv-x="250" 
d="M80 246q0 22 14 36t36 14q17 0 28.5 -11.5t11.5 -29.5q0 -21 -14 -35.5t-36 -14.5q-17 0 -28.5 11.5t-11.5 29.5z" />
    <glyph glyph-name="radical" unicode="&#x221a;" horiz-adv-x="688" 
d="M631 719l-235 -938h-53l-120 359l-164 -56v56l199 67l109 -326l209 838h55z" />
    <glyph glyph-name="infinity" unicode="&#x221e;" horiz-adv-x="787" 
d="M51 282q0 82 46.5 133.5t120.5 51.5q91 0 154 -94l28 -43l27 43q59 94 155 94q73 0 119.5 -51.5t46.5 -133.5t-46.5 -134t-119.5 -52q-93 0 -155 95l-27 42l-28 -42q-62 -95 -154 -95q-74 0 -120.5 52t-46.5 134zM109 282q0 -59 30.5 -97t79.5 -38q63 0 108 69l43 66
l-43 65q-45 69 -108 69q-49 0 -79.5 -37.5t-30.5 -96.5zM690 282q0 59 -30.5 96.5t-79.5 37.5q-63 0 -108 -69l-44 -65l44 -66q45 -69 108 -69q49 0 79.5 38t30.5 97z" />
    <glyph glyph-name="integral" unicode="&#x222b;" horiz-adv-x="500" 
d="M273 461q0 -59 10.5 -211.5t10.5 -218.5q0 -128 -43 -195t-127 -67q-34 0 -67 15l9 53q29 -16 54 -16q108 0 108 218q0 59 -11 211.5t-11 218.5q0 127 44 194.5t126 67.5q34 0 68 -14l-9 -53q-27 15 -55 15q-107 0 -107 -218z" />
    <glyph glyph-name="approxequal" unicode="&#x2248;" 
d="M37 141v63q54 43 131 43q59 0 124 -30q69 -31 115 -31q66 0 131 52v-63q-56 -43 -131 -43q-59 0 -124 30q-65 31 -115 31q-66 0 -131 -52zM37 325v63q53 43 131 43q59 0 124 -30q63 -30 115 -30q67 0 131 51v-63q-54 -43 -131 -43q-57 0 -124 31q-63 30 -115 30
q-66 0 -131 -52z" />
    <glyph glyph-name="notequal" unicode="&#x2260;" 
d="M117 0l77 155h-157v54h184l72 145h-256v54h283l78 155h60l-77 -155h157v-54h-184l-72 -145h256v-54h-283l-78 -155h-60z" />
    <glyph glyph-name="lessequal" unicode="&#x2264;" 
d="M37 0v54h501v-54h-501zM538 128l-501 217v44l501 216v-59l-417 -179l417 -180v-59z" />
    <glyph glyph-name="greaterequal" unicode="&#x2265;" 
d="M37 0v54h501v-54h-501zM37 605l501 -216v-44l-501 -217v59l417 180l-417 179v59z" />
    <glyph glyph-name="lozenge" unicode="&#x25ca;" 
d="M277 0l-202 344l202 344h44l202 -344l-202 -344h-44zM299 618l-161 -274l161 -273l162 273z" />
    <glyph glyph-name="zero.lnum_pnum" unicode="&#xe010;" horiz-adv-x="604" 
d="M69 236q0 197 88 330.5t218 133.5q91 0 143.5 -66t52.5 -181q0 -197 -88 -331t-218 -134q-91 0 -143.5 66.5t-52.5 181.5zM135 247q0 -95 37 -150t98 -55q96 0 166 118t70 281q0 95 -37.5 150t-98.5 55q-95 0 -165 -118t-70 -281z" />
    <glyph glyph-name="one.lnum_pnum" unicode="&#xe011;" horiz-adv-x="382" 
d="M165 0l115 616l-199 -95l13 64l218 103h46l-129 -688h-64z" />
    <glyph glyph-name="two.lnum_pnum" unicode="&#xe012;" horiz-adv-x="496" 
d="M-16 0l9 51q214 157 316 268.5t102 202.5q0 56 -33.5 89.5t-89.5 33.5q-89 0 -180 -62l12 68q85 49 178 49q79 0 129 -46t50 -117q0 -103 -95.5 -215.5t-298.5 -267.5h321l-10 -54h-410z" />
    <glyph glyph-name="three.lnum_pnum" unicode="&#xe013;" horiz-adv-x="488" 
d="M167 324l10 51h38q80 0 134.5 45t54.5 112q0 49 -37 81.5t-93 32.5q-76 0 -160 -43l11 62q78 35 160 35q79 0 131.5 -45t52.5 -113t-45 -122t-116 -72q53 -15 84 -56t31 -95q0 -92 -70.5 -150.5t-178.5 -58.5q-91 0 -182 55l12 60q84 -61 169 -61q81 0 132.5 43.5
t51.5 112.5q0 55 -44.5 90.5t-113.5 35.5h-32z" />
    <glyph glyph-name="four.lnum_pnum" unicode="&#xe014;" horiz-adv-x="551" 
d="M299 0l37 198h-317l9 48l407 442h56l-82 -440h111l-10 -50h-111l-37 -198h-63zM100 248h246l62 336z" />
    <glyph glyph-name="five.lnum_pnum" unicode="&#xe015;" horiz-adv-x="496" 
d="M494 688l-10 -54h-282l-43 -225q38 7 77 7q87 0 145 -53.5t58 -133.5q0 -106 -73.5 -173.5t-189.5 -67.5q-84 0 -167 51l12 61q80 -58 155 -58q83 0 139.5 50t56.5 128q0 65 -43 104.5t-113 39.5q-55 0 -127 -16l64 340h341z" />
    <glyph glyph-name="six.lnum_pnum" unicode="&#xe016;" horiz-adv-x="544" 
d="M376 688h98q-226 -149 -309 -306q68 47 149 47q78 0 129.5 -53t51.5 -133q0 -106 -73.5 -180.5t-177.5 -74.5q-87 0 -141 56t-54 148q0 128 85 256.5t242 239.5zM135 306q-21 -52 -21 -109q0 -70 37.5 -112.5t98.5 -42.5q72 0 126 57.5t54 135.5q0 61 -37.5 100.5
t-94.5 39.5q-88 0 -163 -69z" />
    <glyph glyph-name="seven.lnum_pnum" unicode="&#xe017;" horiz-adv-x="442" 
d="M25 0l391 634h-341l10 54h416l-7 -41l-396 -647h-73z" />
    <glyph glyph-name="eight.lnum_pnum" unicode="&#xe018;" horiz-adv-x="551" 
d="M117 494q0 88 67 147t166 59q78 0 130 -45.5t52 -114.5q0 -67 -40.5 -117t-111.5 -73q50 -20 78.5 -59t28.5 -89q0 -92 -71.5 -153t-179.5 -61q-81 0 -138 48t-57 118q0 72 45 126t124 74q-44 17 -68.5 54.5t-24.5 85.5zM107 163q0 -53 38 -87.5t96 -34.5
q78 0 129.5 45.5t51.5 114.5q0 54 -38.5 88t-97.5 34q-78 0 -128.5 -45t-50.5 -115zM181 493q0 -53 34.5 -85t88.5 -32q69 0 116 45t47 110q0 52 -34 84t-88 32q-70 0 -117 -44.5t-47 -109.5z" />
    <glyph glyph-name="nine.lnum_pnum" unicode="&#xe019;" horiz-adv-x="544" 
d="M202 0h-98q227 153 309 306q-66 -47 -148 -47q-79 0 -130 53t-51 133q0 106 73 180.5t177 74.5q87 0 141.5 -56t54.5 -148q0 -127 -85 -255.5t-243 -240.5zM443 382q21 49 21 109q0 70 -37 112.5t-99 42.5q-72 0 -125.5 -57.5t-53.5 -134.5q0 -61 37 -101t94 -40
q88 0 163 69z" />
    <glyph glyph-name="zero.onum_tnum" unicode="&#xe020;" 
d="M43 201q0 148 80.5 245.5t202.5 97.5q89 0 144 -59t55 -155q0 -147 -80.5 -244.5t-201.5 -97.5q-89 0 -144.5 58.5t-55.5 154.5zM108 209q0 -76 39 -122.5t103 -46.5q88 0 149.5 82t61.5 201q0 76 -39 122t-103 46q-88 0 -149.5 -82t-61.5 -200z" />
    <glyph glyph-name="one.onum_tnum" unicode="&#xe021;" 
d="M245 0l87 464l-159 -72l11 61l177 79h46l-100 -532h-62z" />
    <glyph glyph-name="two.onum_tnum" unicode="&#xe022;" 
d="M55 0l9 48q332 219 332 345q0 46 -25 72t-70 26q-65 0 -148 -52l12 63q75 42 145 42q68 0 109 -39.5t41 -103.5q0 -72 -72.5 -157t-226.5 -192h246l-9 -52h-343z" />
    <glyph glyph-name="three.onum_tnum" unicode="&#xe023;" 
d="M193 200l9 49h34q72 0 120 40t48 100q0 44 -32 73t-83 29q-68 0 -146 -40l11 61q75 32 146 32q73 0 120.5 -43.5t47.5 -108.5q0 -58 -40 -105t-103 -64q47 -15 74.5 -54t27.5 -91q0 -82 -64.5 -133t-163.5 -51q-79 0 -166 49l11 58q82 -55 155 -55q71 0 117.5 39.5
t46.5 100.5q0 49 -40 81.5t-102 32.5h-28z" />
    <glyph glyph-name="four.onum_tnum" unicode="&#xe024;" 
d="M276 -94l34 179h-287l8 46l368 401h56l-75 -399h101l-10 -48h-100l-34 -179h-61zM101 133h218l55 301z" />
    <glyph glyph-name="five.onum_tnum" unicode="&#xe025;" 
d="M485 532l-10 -53h-255l-37 -199q40 5 68 5q79 0 132 -48.5t53 -120.5q0 -98 -67 -160t-174 -62q-74 0 -152 47l11 60q74 -55 141 -55q75 0 125.5 45.5t50.5 115.5q0 58 -38.5 92.5t-101.5 34.5q-58 0 -116 -13l58 311h312z" />
    <glyph glyph-name="six.onum_tnum" unicode="&#xe026;" 
d="M366 626h94q-204 -138 -279 -277q61 43 133 43q71 0 118 -48.5t47 -121.5q0 -97 -67 -165.5t-162 -68.5q-79 0 -129.5 52t-50.5 136q0 115 77 231.5t219 218.5zM153 279q-19 -43 -19 -99q0 -63 33.5 -101.5t88.5 -38.5q65 0 112.5 52t47.5 121q0 55 -33.5 91t-84.5 36
q-76 0 -145 -61z" />
    <glyph glyph-name="seven.onum_tnum" unicode="&#xe027;" 
d="M80 -94l354 573h-312l10 53h383l-7 -41l-359 -585h-69z" />
    <glyph glyph-name="eight.onum_tnum" unicode="&#xe028;" 
d="M131 447q0 82 61.5 136t153.5 54q73 0 119.5 -41.5t46.5 -104.5q0 -60 -36.5 -105.5t-100.5 -67.5q45 -17 70.5 -52.5t25.5 -80.5q0 -85 -65.5 -141t-165.5 -56q-73 0 -125.5 45t-52.5 108q0 64 41.5 113t112.5 68q-40 16 -62.5 49.5t-22.5 75.5zM126 150q0 -47 34 -79
t85 -32q70 0 116 41.5t46 103.5q0 47 -33.5 77.5t-85.5 30.5q-69 0 -115.5 -40.5t-46.5 -101.5zM194 448q0 -47 30 -76t78 -29q62 0 104.5 40t42.5 99q0 46 -30 75t-78 29q-62 0 -104.5 -40t-42.5 -98z" />
    <glyph glyph-name="nine.onum_tnum" unicode="&#xe029;" 
d="M202 -94h-94q203 137 279 277q-61 -43 -133 -43q-71 0 -118 48.5t-47 121.5q0 97 67 165.5t162 68.5q79 0 129.5 -52t50.5 -136q0 -115 -77 -231.5t-219 -218.5zM415 253q19 45 19 99q0 62 -33.5 100.5t-88.5 38.5q-65 0 -112.5 -51.5t-47.5 -120.5q0 -56 33 -91.5
t85 -35.5q76 0 145 61z" />
    <glyph glyph-name="dollar.onum" unicode="&#xe02a;" 
d="M176 -164l25 138q-65 8 -128 46l12 58q77 -55 154 -55q58 0 95.5 30.5t37.5 78.5q0 35 -24 60.5t-58.5 43.5t-68.5 37t-58 51.5t-24 77.5q0 66 48 110t125 48l25 136h55l-26 -138q57 -7 116 -40l-13 -57q-74 48 -140 48q-57 0 -92.5 -28.5t-35.5 -74.5q0 -34 24 -58.5
t58.5 -42t68.5 -37t58 -53t24 -79.5q0 -69 -49.5 -114.5t-128.5 -49.5l-25 -136h-55z" />
    <glyph glyph-name="cent.onum" unicode="&#xe02b;" 
d="M225 -109l26 140q-64 13 -103 61.5t-39 118.5q0 120 64.5 202t165.5 90l26 138h54l-25 -139q53 -6 99 -37l-11 -56q-55 43 -119 43q-82 0 -135.5 -65.5t-53.5 -166.5q0 -63 35 -102t94 -39q63 0 125 37l-12 -60q-53 -26 -113 -29l-26 -136h-52z" />
    <glyph glyph-name="Euro.onum" unicode="&#xe02c;" 
d="M37 223l9 46h70q3 43 14 88h-67l8 46h72q36 106 111.5 170t168.5 64q74 0 142 -43l-11 -55q-60 46 -130 46t-127.5 -49t-87.5 -133h213l-8 -46h-221q-12 -47 -13 -88h218l-10 -46h-208q3 -84 45.5 -133.5t112.5 -49.5q57 0 131 40l-12 -59q-66 -33 -128 -33
q-94 0 -153.5 65t-60.5 170h-78z" />
    <glyph glyph-name="sterling.onum" unicode="&#xe02d;" 
d="M33 0l8 40l123 254h-69l9 49h83l90 188q25 51 65 78.5t88 27.5q51 0 106 -31l-11 -53q-44 32 -89 32q-66 0 -100 -72l-81 -170h142l-10 -49h-157l-116 -244h339l-9 -50h-411z" />
    <glyph glyph-name="yen.onum" unicode="&#xe02e;" 
d="M202 0l27 143h-140l9 47h140l17 89h-140l8 47h126l-130 300h67l112 -269l211 269h77l-243 -300h131l-8 -47h-150l-16 -89h149l-9 -47h-149l-26 -143h-63z" />
    <glyph glyph-name="zero.onum_pnum" unicode="&#xe030;" horiz-adv-x="573" 
d="M48 201q0 148 80.5 245.5t202.5 97.5q89 0 144 -59t55 -155q0 -147 -80.5 -244.5t-201.5 -97.5q-89 0 -144.5 58.5t-55.5 154.5zM113 209q0 -76 39 -122.5t103 -46.5q88 0 149.5 82t61.5 201q0 76 -39 122t-103 46q-88 0 -149.5 -82t-61.5 -200z" />
    <glyph glyph-name="one.onum_pnum" unicode="&#xe031;" horiz-adv-x="320" 
d="M124 0l87 464l-159 -72l11 61l177 79h46l-100 -532h-62z" />
    <glyph glyph-name="two.onum_pnum" unicode="&#xe032;" horiz-adv-x="424" 
d="M-14 0l9 48q332 219 332 345q0 46 -25 72t-70 26q-65 0 -148 -52l12 63q75 42 145 42q68 0 109 -39.5t41 -103.5q0 -72 -72.5 -157t-226.5 -192h246l-9 -52h-343z" />
    <glyph glyph-name="three.onum_pnum" unicode="&#xe033;" horiz-adv-x="440" 
d="M131 200l9 49h34q72 0 120 40t48 100q0 44 -32 73t-83 29q-68 0 -146 -40l11 61q75 32 146 32q73 0 120.5 -43.5t47.5 -108.5q0 -58 -40 -105t-103 -64q47 -15 74.5 -54t27.5 -91q0 -82 -64.5 -133t-163.5 -51q-79 0 -166 49l11 58q82 -55 155 -55q71 0 117.5 39.5
t46.5 100.5q0 49 -40 81.5t-102 32.5h-28z" />
    <glyph glyph-name="four.onum_pnum" unicode="&#xe034;" horiz-adv-x="504" 
d="M247 -94l34 179h-287l8 46l368 401h56l-75 -399h101l-10 -48h-100l-34 -179h-61zM72 133h218l55 301z" />
    <glyph glyph-name="five.onum_pnum" unicode="&#xe035;" horiz-adv-x="434" 
d="M421 532l-10 -53h-255l-37 -199q40 5 68 5q79 0 132 -48.5t53 -120.5q0 -98 -67 -160t-174 -62q-74 0 -152 47l11 60q74 -55 141 -55q75 0 125.5 45.5t50.5 115.5q0 58 -38.5 92.5t-101.5 34.5q-58 0 -116 -13l58 311h312z" />
    <glyph glyph-name="six.onum_pnum" unicode="&#xe036;" horiz-adv-x="504" 
d="M337 626h94q-204 -138 -279 -277q61 43 133 43q71 0 118 -48.5t47 -121.5q0 -97 -67 -165.5t-162 -68.5q-79 0 -129.5 52t-50.5 136q0 115 77 231.5t219 218.5zM124 279q-19 -43 -19 -99q0 -63 33.5 -101.5t88.5 -38.5q65 0 112.5 52t47.5 121q0 55 -33.5 91t-84.5 36
q-76 0 -145 -61z" />
    <glyph glyph-name="seven.onum_pnum" unicode="&#xe037;" horiz-adv-x="403" 
d="M0 -94l354 573h-312l10 53h383l-7 -41l-359 -585h-69z" />
    <glyph glyph-name="eight.onum_pnum" unicode="&#xe038;" horiz-adv-x="504" 
d="M102 447q0 82 61.5 136t153.5 54q73 0 119.5 -41.5t46.5 -104.5q0 -60 -36.5 -105.5t-100.5 -67.5q45 -17 70.5 -52.5t25.5 -80.5q0 -85 -65.5 -141t-165.5 -56q-73 0 -125.5 45t-52.5 108q0 64 41.5 113t112.5 68q-40 16 -62.5 49.5t-22.5 75.5zM97 150q0 -47 34 -79
t85 -32q70 0 116 41.5t46 103.5q0 47 -33.5 77.5t-85.5 30.5q-69 0 -115.5 -40.5t-46.5 -101.5zM165 448q0 -47 30 -76t78 -29q62 0 104.5 40t42.5 99q0 46 -30 75t-78 29q-62 0 -104.5 -40t-42.5 -98z" />
    <glyph glyph-name="nine.onum_pnum" unicode="&#xe039;" horiz-adv-x="504" 
d="M173 -94h-94q203 137 279 277q-61 -43 -133 -43q-71 0 -118 48.5t-47 121.5q0 97 67 165.5t162 68.5q79 0 129.5 -52t50.5 -136q0 -115 -77 -231.5t-219 -218.5zM386 253q19 45 19 99q0 62 -33.5 100.5t-88.5 38.5q-65 0 -112.5 -51.5t-47.5 -120.5q0 -56 33 -91.5
t85 -35.5q76 0 145 61z" />
    <glyph glyph-name="zero.numerator" unicode="&#xe040;" horiz-adv-x="371" 
d="M76 422q0 116 53 194.5t132 78.5q56 0 87.5 -39t31.5 -108q0 -116 -52.5 -194.5t-131.5 -78.5q-56 0 -88 39t-32 108zM131 428q0 -50 19 -78.5t51 -28.5q50 0 87 65.5t37 155.5q0 50 -19 78.5t-51 28.5q-50 0 -87 -65.5t-37 -155.5z" />
    <glyph glyph-name="one.numerator" unicode="&#xe041;" horiz-adv-x="246" 
d="M132 282l64 345l-113 -52l10 52l132 61h38l-76 -406h-55z" />
    <glyph glyph-name="two.numerator" unicode="&#xe042;" horiz-adv-x="307" 
d="M28 282l7 39q234 166 234 260q0 31 -18 49t-48 18q-53 0 -104 -38l10 57q52 28 107 28q49 0 79.5 -29t30.5 -76q0 -56 -52.5 -118.5t-160.5 -143.5h172l-8 -46h-249z" />
    <glyph glyph-name="three.numerator" unicode="&#xe043;" horiz-adv-x="303" 
d="M136 467l9 43h22q42 0 71 23.5t29 57.5q0 26 -19.5 42.5t-49.5 16.5q-43 0 -94 -27l9 52q48 20 96 20q49 0 80.5 -27t31.5 -70q0 -38 -25.5 -69t-65.5 -42q31 -9 48.5 -32.5t17.5 -55.5q0 -54 -43 -89t-108 -35q-58 0 -110 32l8 49q52 -36 101 -36q41 0 68.5 23t27.5 57
q0 30 -23.5 48.5t-60.5 18.5h-20z" />
    <glyph glyph-name="four.numerator" unicode="&#xe044;" horiz-adv-x="341" 
d="M209 282l21 110h-183l7 39l237 257h47l-48 -253h63l-8 -43h-63l-20 -110h-53zM111 435h127l32 171z" />
    <glyph glyph-name="five.numerator" unicode="&#xe045;" horiz-adv-x="308" 
d="M336 688l-9 -46h-158l-22 -114q21 3 39 3q52 0 86 -31.5t34 -79.5q0 -64 -45 -104.5t-117 -40.5q-50 0 -99 29l9 50q47 -33 90 -33q45 0 75.5 26t30.5 67q0 33 -24 53.5t-62 20.5q-35 0 -74 -9l38 209h208z" />
    <glyph glyph-name="six.numerator" unicode="&#xe046;" horiz-adv-x="339" 
d="M254 688h77q-127 -83 -176 -172q34 23 77 23q46 0 77.5 -32t31.5 -79q0 -64 -44.5 -108.5t-109.5 -44.5q-53 0 -86.5 34.5t-33.5 89.5q0 75 48.5 150t138.5 139zM132 458q-11 -28 -11 -56q0 -36 20 -58.5t52 -22.5q38 0 65.5 30t27.5 70q0 32 -19.5 52.5t-50.5 20.5
q-43 0 -84 -36z" />
    <glyph glyph-name="seven.numerator" unicode="&#xe047;" horiz-adv-x="277" 
d="M50 282l221 360h-191l8 46h255l-7 -35l-225 -371h-61z" />
    <glyph glyph-name="eight.numerator" unicode="&#xe048;" horiz-adv-x="341" 
d="M106 571q0 53 41 88.5t101 35.5q49 0 80.5 -27.5t31.5 -69.5q0 -38 -22.5 -67.5t-61.5 -42.5q59 -25 59 -85q0 -55 -43.5 -91.5t-110.5 -36.5q-50 0 -84.5 29t-34.5 71q0 41 25.5 72.5t69.5 43.5q-24 10 -37.5 32t-13.5 48zM115 382q0 -28 20 -46t51 -18q41 0 67.5 24
t26.5 61q0 28 -19.5 46t-50.5 18q-41 0 -68 -24t-27 -61zM159 570q0 -28 17.5 -44.5t46.5 -16.5q36 0 60 24t24 58q0 28 -17.5 44.5t-46.5 16.5q-36 0 -60 -24t-24 -58z" />
    <glyph glyph-name="nine.numerator" unicode="&#xe049;" horiz-adv-x="339" 
d="M174 282h-79q128 84 178 172q-36 -23 -78 -23q-46 0 -77.5 32t-31.5 79q0 64 44.5 108.5t108.5 44.5q53 0 87 -34.5t34 -89.5q0 -74 -48.5 -149.5t-137.5 -139.5zM295 512q10 26 10 56q0 36 -19 58.5t-52 22.5q-38 0 -66 -29.5t-28 -70.5q0 -32 20 -52.5t50 -20.5
q46 0 85 36z" />
    <glyph glyph-name="plus.numerator" unicode="&#xe04a;" horiz-adv-x="344" 
d="M69 462v46h125v125h46v-125h125v-46h-125v-125h-46v125h-125z" />
    <glyph glyph-name="minus.numerator" unicode="&#xe04b;" horiz-adv-x="344" 
d="M69 462v46h296v-46h-296z" />
    <glyph glyph-name="equal.numerator" unicode="&#xe04c;" horiz-adv-x="344" 
d="M69 403v45h296v-45h-296zM69 522v45h296v-45h-296z" />
    <glyph glyph-name="parenleft.numerator" unicode="&#xe04d;" horiz-adv-x="203" 
d="M86 432q0 187 139 312h63q-72 -60 -110.5 -139.5t-38.5 -168.5q0 -111 48 -210h-52q-49 100 -49 206z" />
    <glyph glyph-name="parenright.numerator" unicode="&#xe04e;" horiz-adv-x="203" 
d="M203 539q0 -186 -139 -313h-64q150 125 150 308q0 111 -48 210h52q49 -100 49 -205z" />
    <glyph glyph-name="zero.denominator" unicode="&#xe050;" horiz-adv-x="371" 
d="M23 140q0 116 53 194.5t132 78.5q56 0 87.5 -39t31.5 -108q0 -116 -52.5 -194.5t-131.5 -78.5q-56 0 -88 39t-32 108zM78 146q0 -50 19 -78.5t51 -28.5q50 0 87 65.5t37 155.5q0 50 -19 78.5t-51 28.5q-50 0 -87 -65.5t-37 -155.5z" />
    <glyph glyph-name="one.denominator" unicode="&#xe051;" horiz-adv-x="246" 
d="M79 0l64 345l-113 -52l10 52l132 61h38l-76 -406h-55z" />
    <glyph glyph-name="two.denominator" unicode="&#xe052;" horiz-adv-x="307" 
d="M-25 0l7 39q234 166 234 260q0 31 -18 49t-48 18q-53 0 -104 -38l10 57q52 28 107 28q49 0 79.5 -29t30.5 -76q0 -56 -52.5 -118.5t-160.5 -143.5h172l-8 -46h-249z" />
    <glyph glyph-name="three.denominator" unicode="&#xe053;" horiz-adv-x="303" 
d="M83 185l9 43h22q42 0 71 23.5t29 57.5q0 26 -19.5 42.5t-49.5 16.5q-43 0 -94 -27l9 52q48 20 96 20q49 0 80.5 -27t31.5 -70q0 -38 -25.5 -69t-65.5 -42q31 -9 48.5 -32.5t17.5 -55.5q0 -54 -43 -89t-108 -35q-58 0 -110 32l8 49q52 -36 101 -36q41 0 68.5 23t27.5 57
q0 30 -23.5 48.5t-60.5 18.5h-20z" />
    <glyph glyph-name="four.denominator" unicode="&#xe054;" horiz-adv-x="341" 
d="M156 0l21 110h-183l7 39l237 257h47l-48 -253h63l-8 -43h-63l-20 -110h-53zM58 153h127l32 171z" />
    <glyph glyph-name="five.denominator" unicode="&#xe055;" horiz-adv-x="308" 
d="M283 406l-9 -46h-158l-22 -114q21 3 39 3q52 0 86 -31.5t34 -79.5q0 -64 -45 -104.5t-117 -40.5q-50 0 -99 29l9 50q47 -33 90 -33q45 0 75.5 26t30.5 67q0 33 -24 53.5t-62 20.5q-35 0 -74 -9l38 209h208z" />
    <glyph glyph-name="six.denominator" unicode="&#xe056;" horiz-adv-x="339" 
d="M201 406h77q-127 -83 -176 -172q34 23 77 23q46 0 77.5 -32t31.5 -79q0 -64 -44.5 -108.5t-109.5 -44.5q-53 0 -86.5 34.5t-33.5 89.5q0 75 48.5 150t138.5 139zM79 176q-11 -28 -11 -56q0 -36 20 -58.5t52 -22.5q38 0 65.5 30t27.5 70q0 32 -19.5 52.5t-50.5 20.5
q-43 0 -84 -36z" />
    <glyph glyph-name="seven.denominator" unicode="&#xe057;" horiz-adv-x="277" 
d="M-3 0l221 360h-191l8 46h255l-7 -35l-225 -371h-61z" />
    <glyph glyph-name="eight.denominator" unicode="&#xe058;" horiz-adv-x="341" 
d="M53 289q0 53 41 88.5t101 35.5q49 0 80.5 -27.5t31.5 -69.5q0 -38 -22.5 -67.5t-61.5 -42.5q59 -25 59 -85q0 -55 -43.5 -91.5t-110.5 -36.5q-50 0 -84.5 29t-34.5 71q0 41 25.5 72.5t69.5 43.5q-24 10 -37.5 32t-13.5 48zM62 100q0 -28 20 -46t51 -18q41 0 67.5 24
t26.5 61q0 28 -19.5 46t-50.5 18q-41 0 -68 -24t-27 -61zM106 288q0 -28 17.5 -44.5t46.5 -16.5q36 0 60 24t24 58q0 28 -17.5 44.5t-46.5 16.5q-36 0 -60 -24t-24 -58z" />
    <glyph glyph-name="nine.denominator" unicode="&#xe059;" horiz-adv-x="339" 
d="M121 0h-79q128 84 178 172q-36 -23 -78 -23q-46 0 -77.5 32t-31.5 79q0 64 44.5 108.5t108.5 44.5q53 0 87 -34.5t34 -89.5q0 -74 -48.5 -149.5t-137.5 -139.5zM242 230q10 26 10 56q0 36 -19 58.5t-52 22.5q-38 0 -66 -29.5t-28 -70.5q0 -32 20 -52.5t50 -20.5
q46 0 85 36z" />
    <glyph glyph-name="plus.denominator" unicode="&#xe05a;" horiz-adv-x="344" 
d="M16 180v46h125v125h46v-125h125v-46h-125v-125h-46v125h-125z" />
    <glyph glyph-name="minus.denominator" unicode="&#xe05b;" horiz-adv-x="344" 
d="M16 180v46h296v-46h-296z" />
    <glyph glyph-name="equal.denominator" unicode="&#xe05c;" horiz-adv-x="344" 
d="M16 121v45h296v-45h-296zM16 240v45h296v-45h-296z" />
    <glyph glyph-name="parenleft.denominator" unicode="&#xe05d;" horiz-adv-x="203" 
d="M33 150q0 187 139 312h63q-72 -60 -110.5 -139.5t-38.5 -168.5q0 -111 48 -210h-52q-49 100 -49 206z" />
    <glyph glyph-name="parenright.denominator" unicode="&#xe05e;" horiz-adv-x="203" 
d="M150 257q0 -186 -139 -313h-64q150 125 150 308q0 111 -48 210h52q49 -100 49 -205z" />
    <glyph glyph-name="period.superior" unicode="&#xe060;" horiz-adv-x="160" 
d="M79 431q0 17 11.5 28t27.5 11q14 0 22.5 -9t8.5 -22q0 -17 -11 -28t-28 -11q-31 0 -31 31z" />
    <glyph glyph-name="comma.superior" unicode="&#xe061;" horiz-adv-x="160" 
d="M24 332l71 129h55l-78 -129h-48z" />
    <glyph glyph-name="period.inferior" unicode="&#xe062;" horiz-adv-x="160" 
d="M-21 -101q0 17 11.5 28t27.5 11q14 0 22.5 -9t8.5 -22q0 -17 -11 -28t-28 -11q-31 0 -31 31z" />
    <glyph glyph-name="comma.inferior" unicode="&#xe063;" horiz-adv-x="160" 
d="M-76 -200l71 129h55l-78 -129h-48z" />
    <glyph glyph-name="period.numerator" unicode="&#xe064;" horiz-adv-x="160" 
d="M56 306q0 16 11 27.5t28 11.5q13 0 22 -8.5t9 -22.5q0 -17 -11 -28t-28 -11q-31 0 -31 31z" />
    <glyph glyph-name="comma.numerator" unicode="&#xe065;" horiz-adv-x="160" 
d="M1 207l71 129h55l-78 -129h-48z" />
    <glyph glyph-name="period.denominator" unicode="&#xe066;" horiz-adv-x="160" 
d="M3 24q0 16 11.5 27.5t27.5 11.5q14 0 22.5 -8.5t8.5 -22.5q0 -17 -11 -28t-28 -11q-31 0 -31 31z" />
    <glyph glyph-name="comma.denominator" unicode="&#xe067;" horiz-adv-x="160" 
d="M-52 -75l71 129h55l-78 -129h-48z" />
    <glyph glyph-name="onehalf.nut" unicode="&#xe080;" 
d="M310 438l64 345l-113 -52l10 52l132 61h38l-76 -406h-55zM58 322l9 45h472l-8 -45h-473zM73 -156l7 39q234 166 234 260q0 31 -18 49t-48 18q-53 0 -104 -38l10 57q52 28 107 28q49 0 79.5 -29t30.5 -76q0 -56 -52.5 -118.5t-160.5 -143.5h172l-8 -46h-249z" />
    <glyph glyph-name="onethird.nut" unicode="&#xe081;" 
d="M311 438l64 345l-113 -52l10 52l132 61h38l-76 -406h-55zM58 322l9 45h472l-8 -45h-473zM183 29l9 43h22q42 0 71 23.5t29 57.5q0 26 -19.5 42.5t-49.5 16.5q-43 0 -94 -27l9 52q48 20 96 20q49 0 80.5 -27t31.5 -70q0 -38 -25.5 -69t-65.5 -42q31 -9 48.5 -32.5
t17.5 -55.5q0 -54 -43 -89t-108 -35q-58 0 -110 32l8 49q52 -36 101 -36q41 0 68.5 23t27.5 57q0 30 -23.5 48.5t-60.5 18.5h-20z" />
    <glyph glyph-name="twothirds.nut" unicode="&#xe082;" 
d="M185 438l7 39q234 166 234 260q0 31 -18 49t-48 18q-53 0 -104 -38l10 57q52 28 107 28q49 0 79.5 -29t30.5 -76q0 -56 -52.5 -118.5t-160.5 -143.5h172l-8 -46h-249zM58 322l9 45h472l-8 -45h-473zM183 29l9 43h22q42 0 71 23.5t29 57.5q0 26 -19.5 42.5t-49.5 16.5
q-43 0 -94 -27l9 52q48 20 96 20q49 0 80.5 -27t31.5 -70q0 -38 -25.5 -69t-65.5 -42q31 -9 48.5 -32.5t17.5 -55.5q0 -54 -43 -89t-108 -35q-58 0 -110 32l8 49q52 -36 101 -36q41 0 68.5 23t27.5 57q0 30 -23.5 48.5t-60.5 18.5h-20z" />
    <glyph glyph-name="onequarter.nut" unicode="&#xe083;" 
d="M311 438l64 345l-113 -52l10 52l132 61h38l-76 -406h-55zM58 322l9 45h472l-8 -45h-473zM237 -156l21 110h-183l7 39l237 257h47l-48 -253h63l-8 -43h-63l-20 -110h-53zM139 -3h127l32 171z" />
    <glyph glyph-name="quarter.nut" unicode="&#xe084;" 
d="M295 623l9 43h22q42 0 71 23.5t29 57.5q0 26 -19.5 42.5t-49.5 16.5q-43 0 -94 -27l9 52q48 20 96 20q49 0 80.5 -27t31.5 -70q0 -38 -25.5 -69t-65.5 -42q31 -9 48.5 -32.5t17.5 -55.5q0 -54 -43 -89t-108 -35q-58 0 -110 32l8 49q52 -36 101 -36q41 0 68.5 23t27.5 57
q0 30 -23.5 48.5t-60.5 18.5h-20zM58 322l9 45h472l-8 -45h-473zM237 -156l21 110h-183l7 39l237 257h47l-48 -253h63l-8 -43h-63l-20 -110h-53zM139 -3h127l32 171z" />
    <glyph glyph-name="onefifth.nut" unicode="&#xe085;" 
d="M311 438l64 345l-113 -52l10 52l132 61h38l-76 -406h-55zM58 322l9 45h472l-8 -45h-473zM381 250l-9 -46h-158l-22 -114q21 3 39 3q52 0 86 -31.5t34 -79.5q0 -64 -45 -104.5t-117 -40.5q-50 0 -99 29l9 50q47 -33 90 -33q45 0 75.5 26t30.5 67q0 33 -24 53.5t-62 20.5
q-35 0 -74 -9l38 209h208z" />
    <glyph glyph-name="twofifths.nut" unicode="&#xe086;" 
d="M185 438l7 39q234 166 234 260q0 31 -18 49t-48 18q-53 0 -104 -38l10 57q52 28 107 28q49 0 79.5 -29t30.5 -76q0 -56 -52.5 -118.5t-160.5 -143.5h172l-8 -46h-249zM58 322l9 45h472l-8 -45h-473zM381 250l-9 -46h-158l-22 -114q21 3 39 3q52 0 86 -31.5t34 -79.5
q0 -64 -45 -104.5t-117 -40.5q-50 0 -99 29l9 50q47 -33 90 -33q45 0 75.5 26t30.5 67q0 33 -24 53.5t-62 20.5q-35 0 -74 -9l38 209h208z" />
    <glyph glyph-name="threefifths.nut" unicode="&#xe087;" 
d="M293 623l9 43h22q42 0 71 23.5t29 57.5q0 26 -19.5 42.5t-49.5 16.5q-43 0 -94 -27l9 52q48 20 96 20q49 0 80.5 -27t31.5 -70q0 -38 -25.5 -69t-65.5 -42q31 -9 48.5 -32.5t17.5 -55.5q0 -54 -43 -89t-108 -35q-58 0 -110 32l8 49q52 -36 101 -36q41 0 68.5 23t27.5 57
q0 30 -23.5 48.5t-60.5 18.5h-20zM58 322l9 45h472l-8 -45h-473zM381 250l-9 -46h-158l-22 -114q21 3 39 3q52 0 86 -31.5t34 -79.5q0 -64 -45 -104.5t-117 -40.5q-50 0 -99 29l9 50q47 -33 90 -33q45 0 75.5 26t30.5 67q0 33 -24 53.5t-62 20.5q-35 0 -74 -9l38 209h208z
" />
    <glyph glyph-name="fourfifths.nut" unicode="&#xe088;" 
d="M349 438l21 110h-183l7 39l237 257h47l-48 -253h63l-8 -43h-63l-20 -110h-53zM251 591h127l32 171zM58 322l9 45h472l-8 -45h-473zM381 250l-9 -46h-158l-22 -114q21 3 39 3q52 0 86 -31.5t34 -79.5q0 -64 -45 -104.5t-117 -40.5q-50 0 -99 29l9 50q47 -33 90 -33
q45 0 75.5 26t30.5 67q0 33 -24 53.5t-62 20.5q-35 0 -74 -9l38 209h208z" />
    <glyph glyph-name="onesixth.nut" unicode="&#xe089;" 
d="M311 438l64 345l-113 -52l10 52l132 61h38l-76 -406h-55zM58 322l9 45h472l-8 -45h-473zM283 250h77q-127 -83 -176 -172q34 23 77 23q46 0 77.5 -32t31.5 -79q0 -64 -44.5 -108.5t-109.5 -44.5q-53 0 -86.5 34.5t-33.5 89.5q0 75 48.5 150t138.5 139zM161 20
q-11 -28 -11 -56q0 -36 20 -58.5t52 -22.5q38 0 65.5 30t27.5 70q0 32 -19.5 52.5t-50.5 20.5q-43 0 -84 -36z" />
    <glyph glyph-name="fivesixths.nut" unicode="&#xe08a;" 
d="M493 844l-9 -46h-158l-22 -114q21 3 39 3q52 0 86 -31.5t34 -79.5q0 -64 -45 -104.5t-117 -40.5q-50 0 -99 29l9 50q47 -33 90 -33q45 0 75.5 26t30.5 67q0 33 -24 53.5t-62 20.5q-35 0 -74 -9l38 209h208zM58 322l9 45h472l-8 -45h-473zM283 250h77q-127 -83 -176 -172
q34 23 77 23q46 0 77.5 -32t31.5 -79q0 -64 -44.5 -108.5t-109.5 -44.5q-53 0 -86.5 34.5t-33.5 89.5q0 75 48.5 150t138.5 139zM161 20q-11 -28 -11 -56q0 -36 20 -58.5t52 -22.5q38 0 65.5 30t27.5 70q0 32 -19.5 52.5t-50.5 20.5q-43 0 -84 -36z" />
    <glyph glyph-name="oneeighth.nut" unicode="&#xe08b;" 
d="M311 438l64 345l-113 -52l10 52l132 61h38l-76 -406h-55zM58 322l9 45h472l-8 -45h-473zM134 133q0 53 41 88.5t101 35.5q49 0 80.5 -27.5t31.5 -69.5q0 -38 -22.5 -67.5t-61.5 -42.5q59 -25 59 -85q0 -55 -43.5 -91.5t-110.5 -36.5q-50 0 -84.5 29t-34.5 71
q0 41 25.5 72.5t69.5 43.5q-24 10 -37.5 32t-13.5 48zM143 -56q0 -28 20 -46t51 -18q41 0 67.5 24t26.5 61q0 28 -19.5 46t-50.5 18q-41 0 -68 -24t-27 -61zM187 132q0 -28 17.5 -44.5t46.5 -16.5q36 0 60 24t24 58q0 28 -17.5 44.5t-46.5 16.5q-36 0 -60 -24t-24 -58z" />
    <glyph glyph-name="threeeighths.nut" unicode="&#xe08c;" 
d="M293 623l9 43h22q42 0 71 23.5t29 57.5q0 26 -19.5 42.5t-49.5 16.5q-43 0 -94 -27l9 52q48 20 96 20q49 0 80.5 -27t31.5 -70q0 -38 -25.5 -69t-65.5 -42q31 -9 48.5 -32.5t17.5 -55.5q0 -54 -43 -89t-108 -35q-58 0 -110 32l8 49q52 -36 101 -36q41 0 68.5 23t27.5 57
q0 30 -23.5 48.5t-60.5 18.5h-20zM58 322l9 45h472l-8 -45h-473zM134 133q0 53 41 88.5t101 35.5q49 0 80.5 -27.5t31.5 -69.5q0 -38 -22.5 -67.5t-61.5 -42.5q59 -25 59 -85q0 -55 -43.5 -91.5t-110.5 -36.5q-50 0 -84.5 29t-34.5 71q0 41 25.5 72.5t69.5 43.5
q-24 10 -37.5 32t-13.5 48zM143 -56q0 -28 20 -46t51 -18q41 0 67.5 24t26.5 61q0 28 -19.5 46t-50.5 18q-41 0 -68 -24t-27 -61zM187 132q0 -28 17.5 -44.5t46.5 -16.5q36 0 60 24t24 58q0 28 -17.5 44.5t-46.5 16.5q-36 0 -60 -24t-24 -58z" />
    <glyph glyph-name="fiveeighths.nut" unicode="&#xe08d;" 
d="M493 844l-9 -46h-158l-22 -114q21 3 39 3q52 0 86 -31.5t34 -79.5q0 -64 -45 -104.5t-117 -40.5q-50 0 -99 29l9 50q47 -33 90 -33q45 0 75.5 26t30.5 67q0 33 -24 53.5t-62 20.5q-35 0 -74 -9l38 209h208zM58 322l9 45h472l-8 -45h-473zM134 133q0 53 41 88.5t101 35.5
q49 0 80.5 -27.5t31.5 -69.5q0 -38 -22.5 -67.5t-61.5 -42.5q59 -25 59 -85q0 -55 -43.5 -91.5t-110.5 -36.5q-50 0 -84.5 29t-34.5 71q0 41 25.5 72.5t69.5 43.5q-24 10 -37.5 32t-13.5 48zM143 -56q0 -28 20 -46t51 -18q41 0 67.5 24t26.5 61q0 28 -19.5 46t-50.5 18
q-41 0 -68 -24t-27 -61zM187 132q0 -28 17.5 -44.5t46.5 -16.5q36 0 60 24t24 58q0 28 -17.5 44.5t-46.5 16.5q-36 0 -60 -24t-24 -58z" />
    <glyph glyph-name="seveneighths.nut" unicode="&#xe08e;" 
d="M222 438l221 360h-191l8 46h255l-7 -35l-225 -371h-61zM58 322l9 45h472l-8 -45h-473zM134 133q0 53 41 88.5t101 35.5q49 0 80.5 -27.5t31.5 -69.5q0 -38 -22.5 -67.5t-61.5 -42.5q59 -25 59 -85q0 -55 -43.5 -91.5t-110.5 -36.5q-50 0 -84.5 29t-34.5 71
q0 41 25.5 72.5t69.5 43.5q-24 10 -37.5 32t-13.5 48zM143 -56q0 -28 20 -46t51 -18q41 0 67.5 24t26.5 61q0 28 -19.5 46t-50.5 18q-41 0 -68 -24t-27 -61zM187 132q0 -28 17.5 -44.5t46.5 -16.5q36 0 60 24t24 58q0 28 -17.5 44.5t-46.5 16.5q-36 0 -60 -24t-24 -58z" />
    <glyph glyph-name="fractionone.nut" unicode="&#xe08f;" 
d="M311 438l64 345l-113 -52l10 52l132 61h38l-76 -406h-55zM58 322l9 45h472l-8 -45h-473z" />
    <glyph glyph-name="A.superior" unicode="&#xe100;" horiz-adv-x="382" 
d="M22 282l232 406h44l80 -406h-52l-21 112h-163l-62 -112h-58zM265 615l-100 -179h133z" />
    <glyph glyph-name="B.superior" unicode="&#xe101;" horiz-adv-x="366" 
d="M157 467l-27 -142h78q42 0 68.5 23t26.5 60q0 28 -19 43.5t-52 15.5h-75zM68 282l77 406h125q49 0 78 -25t29 -67q0 -37 -21 -66t-56 -41q57 -20 57 -82q0 -54 -42.5 -89.5t-106.5 -35.5h-140zM191 645l-27 -136h71q37 0 62.5 23t25.5 57q0 26 -17.5 41t-48.5 15h-66z
" />
    <glyph glyph-name="C.superior" unicode="&#xe102;" horiz-adv-x="371" 
d="M75 437q0 113 63 185.5t160 72.5q59 0 114 -35l-9 -49q-49 37 -102 37q-74 0 -122 -57.5t-48 -145.5q0 -55 32.5 -89.5t83.5 -34.5q54 0 108 32l-10 -53q-50 -25 -109 -25q-71 0 -116 45.5t-45 116.5z" />
    <glyph glyph-name="D.superior" unicode="&#xe103;" horiz-adv-x="419" 
d="M68 282l77 406h119q74 0 120.5 -43t46.5 -112q0 -116 -62 -183.5t-168 -67.5h-133zM191 643l-58 -316h71q77 0 124 55t47 145q0 54 -32.5 85t-89.5 31h-62z" />
    <glyph glyph-name="E.superior" unicode="&#xe104;" horiz-adv-x="335" 
d="M68 282l77 406h231l-8 -45h-177l-25 -133h154l-8 -43h-154l-25 -140h180l-8 -45h-237z" />
    <glyph glyph-name="F.superior" unicode="&#xe105;" horiz-adv-x="322" 
d="M68 282l77 406h231l-8 -45h-177l-26 -142h153l-9 -46h-152l-33 -173h-56z" />
    <glyph glyph-name="G.superior" unicode="&#xe106;" horiz-adv-x="407" 
d="M407 494l-35 -190q-64 -29 -132 -29q-73 0 -119 45.5t-46 116.5q0 113 64 185.5t163 72.5q63 0 120 -39l-8 -50q-54 42 -110 42q-75 0 -124 -57.5t-49 -145.5q0 -55 32 -89.5t84 -34.5q42 0 78 16l22 114h-90l7 43h143z" />
    <glyph glyph-name="H.superior" unicode="&#xe107;" horiz-adv-x="437" 
d="M68 282l77 406h55l-33 -178h200l34 178h55l-77 -406h-55l35 184h-201l-34 -184h-56z" />
    <glyph glyph-name="I.superior" unicode="&#xe108;" horiz-adv-x="182" 
d="M68 282l77 406h55l-76 -406h-56z" />
    <glyph glyph-name="J.superior" unicode="&#xe109;" horiz-adv-x="286" 
d="M308 688l-59 -310q-9 -48 -42 -75.5t-81 -27.5q-43 0 -89 25l9 47q38 -26 74 -26q30 0 50.5 17.5t25.5 47.5l57 302h55z" />
    <glyph glyph-name="K.superior" unicode="&#xe10a;" horiz-adv-x="372" 
d="M68 282l77 406h54l-33 -179l196 179h74l-226 -202l156 -204h-65l-143 188l-35 -188h-55z" />
    <glyph glyph-name="L.superior" unicode="&#xe10b;" horiz-adv-x="305" 
d="M68 282l77 406h55l-67 -361h168l-8 -45h-225z" />
    <glyph glyph-name="M.superior" unicode="&#xe10c;" horiz-adv-x="492" 
d="M68 282l77 406h46l95 -198l170 198h53l-76 -406h-52l60 316l-146 -169h-33l-82 169l-59 -316h-53z" />
    <glyph glyph-name="N.superior" unicode="&#xe10d;" horiz-adv-x="437" 
d="M68 282l77 406h46l153 -316l60 316h52l-77 -406h-45l-154 316l-59 -316h-53z" />
    <glyph glyph-name="O.superior" unicode="&#xe10e;" horiz-adv-x="437" 
d="M75 437q0 112 62 185t157 73q70 0 113 -44.5t43 -117.5q0 -112 -62 -185t-157 -73q-71 0 -113.5 44.5t-42.5 117.5zM132 442q0 -56 28 -88.5t76 -32.5q66 0 111.5 59.5t45.5 146.5q0 56 -28 88.5t-76 32.5q-66 0 -111.5 -59.5t-45.5 -146.5z" />
    <glyph glyph-name="P.superior" unicode="&#xe10f;" horiz-adv-x="356" 
d="M68 282l77 406h119q55 0 88 -29t33 -78q0 -62 -47 -104.5t-117 -42.5h-69l-29 -152h-55zM191 645l-31 -166h61q48 0 78 26.5t30 69.5q0 32 -21.5 51t-58.5 19h-58z" />
    <glyph glyph-name="Q.superior" unicode="&#xe110;" horiz-adv-x="437" 
d="M132 442q0 -56 28 -88.5t76 -32.5q66 0 111.5 59.5t45.5 146.5q0 56 -28 88.5t-76 32.5q-66 0 -111.5 -59.5t-45.5 -146.5zM75 437q0 112 62 185t157 73q70 0 112.5 -44.5t42.5 -117.5q0 -76 -29.5 -136t-80.5 -92l62 -84h-61l-46 64q-32 -10 -63 -10q-71 0 -113.5 44.5
t-42.5 117.5z" />
    <glyph glyph-name="R.superior" unicode="&#xe111;" horiz-adv-x="363" 
d="M281 282l-67 157h-61l-30 -157h-55l77 406h116q54 0 86.5 -28.5t32.5 -75.5q0 -50 -31.5 -88t-81.5 -49l72 -165h-58zM191 645l-30 -162h58q47 0 76 26.5t29 68.5q0 31 -20.5 49t-57.5 18h-55z" />
    <glyph glyph-name="S.superior" unicode="&#xe112;" horiz-adv-x="328" 
d="M55 310l9 50q58 -41 111 -41q39 0 63.5 20t24.5 52q0 28 -25.5 49t-55.5 33t-55.5 39t-25.5 66q0 51 38.5 84t101.5 33q54 0 110 -31l-9 -49q-51 35 -101 35q-39 0 -62.5 -18.5t-23.5 -49.5q0 -27 25.5 -47t55.5 -32t55.5 -40t25.5 -68q0 -53 -39.5 -86.5t-102.5 -33.5
q-58 0 -120 35z" />
    <glyph glyph-name="T.superior" unicode="&#xe113;" horiz-adv-x="351" 
d="M153 282l68 361h-127l9 45h309l-9 -45h-127l-68 -361h-55z" />
    <glyph glyph-name="U.superior" unicode="&#xe114;" horiz-adv-x="437" 
d="M459 688l-51 -269q-13 -67 -60 -105.5t-117 -38.5q-60 0 -99 35.5t-39 89.5q0 20 4 39l46 249h55l-46 -249q-4 -20 -4 -32q0 -38 24 -62t64 -24q46 0 77.5 28t40.5 75l50 264h55z" />
    <glyph glyph-name="V.superior" unicode="&#xe115;" horiz-adv-x="382" 
d="M447 688l-231 -406h-44l-80 406h53l60 -330l184 330h58z" />
    <glyph glyph-name="W.superior" unicode="&#xe116;" horiz-adv-x="604" 
d="M666 688l-210 -406h-48l-40 335l-167 -335h-49l-57 406h52l40 -335l167 335h48l40 -335l167 335h57z" />
    <glyph glyph-name="X.superior" unicode="&#xe117;" horiz-adv-x="385" 
d="M21 282l180 208l-98 198h59l78 -160l131 160h66l-171 -202l101 -204h-60l-80 166l-139 -166h-67z" />
    <glyph glyph-name="Y.superior" unicode="&#xe118;" horiz-adv-x="357" 
d="M153 282l34 175l-98 231h58l74 -183l141 183h65l-186 -236l-33 -170h-55z" />
    <glyph glyph-name="Z.superior" unicode="&#xe119;" horiz-adv-x="372" 
d="M36 282l7 39l293 322h-220l8 45h290l-8 -39l-293 -322h236l-8 -45h-305z" />
    <glyph glyph-name="ordfeminine.cap" unicode="&#xe11a;" horiz-adv-x="413" 
d="M14 167l8 41h354l-8 -41h-354zM38 282l231 406h44l81 -406h-52l-21 112h-164l-62 -112h-57zM281 615l-100 -179h133z" />
    <glyph glyph-name="ordmasculine.cap" unicode="&#xe11b;" horiz-adv-x="437" 
d="M30 167l8 41h347l-9 -41h-346zM75 437q0 112 62 185t157 73q70 0 113 -44.5t43 -117.5q0 -112 -62 -185t-157 -73q-71 0 -113.5 44.5t-42.5 117.5zM132 442q0 -56 28 -88.5t76 -32.5q66 0 111.5 59.5t45.5 146.5q0 56 -28 88.5t-76 32.5q-66 0 -111.5 -59.5t-45.5 -146.5
z" />
    <glyph glyph-name="registered.superior" unicode="&#xe11c;" horiz-adv-x="500" 
d="M79 485q0 95 60.5 155t154.5 60t154.5 -60t60.5 -155t-60.5 -155t-154.5 -60t-154.5 60t-60.5 155zM113 485q0 -79 50.5 -130t130.5 -51t130.5 51t50.5 130t-50.5 130t-130.5 51t-130.5 -51t-50.5 -130zM261 572v-86h34q21 0 33.5 12.5t12.5 30.5q0 19 -12.5 31t-33.5 12
h-34zM223 368v234h78q35 0 57 -20.5t22 -52.5q0 -50 -50 -68l57 -93h-41l-53 88h-32v-88h-38z" />
    <glyph glyph-name="a.superior" unicode="&#xe120;" horiz-adv-x="358" 
d="M368 594l-59 -312h-52l5 25q-41 -33 -85 -33q-50 0 -81 34.5t-31 90.5q0 88 45.5 145.5t115.5 57.5q44 0 84 -34l5 26h53zM119 406q0 -41 19.5 -64t54.5 -23q37 0 77 38l31 168q-32 32 -70 32q-48 0 -80 -43t-32 -108z" />
    <glyph glyph-name="b.superior" unicode="&#xe121;" horiz-adv-x="358" 
d="M61 282l84 449h53l-31 -162q39 33 84 33q50 0 81 -34.5t31 -90.5q0 -88 -45.5 -145.5t-115.5 -57.5q-42 0 -84 33l-4 -25h-53zM309 470q0 41 -19 64t-53 23q-38 0 -79 -38l-31 -168q35 -32 71 -32q47 0 79 43t32 108z" />
    <glyph glyph-name="c.superior" unicode="&#xe122;" horiz-adv-x="305" 
d="M65 402q0 87 49.5 143.5t126.5 56.5q45 0 91 -27l-8 -47q-39 29 -80 29q-54 0 -89.5 -42t-35.5 -106q0 -40 23.5 -65t61.5 -25q44 0 84 24l-8 -49q-43 -20 -87 -20q-56 0 -92 36t-36 92z" />
    <glyph glyph-name="d.superior" unicode="&#xe123;" horiz-adv-x="358" 
d="M394 731l-85 -449h-52l5 25q-41 -33 -85 -33q-50 0 -81 34.5t-31 90.5q0 88 45.5 145.5t115.5 57.5q44 0 84 -34l31 163h53zM119 406q0 -41 19.5 -64t54.5 -23q37 0 77 38l31 168q-32 32 -70 32q-48 0 -80 -43t-32 -108z" />
    <glyph glyph-name="e.superior" unicode="&#xe124;" horiz-adv-x="328" 
d="M65 403q0 88 46.5 143.5t120.5 55.5q47 0 77 -32.5t30 -82.5q0 -25 -8 -62h-213q-1 -6 -1 -19q0 -40 24.5 -65t62.5 -25q46 0 95 30l-9 -50q-49 -22 -97 -22q-56 0 -92 36.5t-36 92.5zM125 462h161q2 10 2 25q0 32 -17 52.5t-45 20.5q-36 0 -63.5 -26t-37.5 -72z" />
    <glyph glyph-name="f.superior" unicode="&#xe125;" horiz-adv-x="241" 
d="M67 194l68 358h-60l9 42h59l11 61q8 39 34 61.5t65 22.5q32 0 70 -19l-8 -43q-29 17 -55 17q-44 0 -54 -47l-10 -53h90l-7 -42h-92l-67 -358h-53z" />
    <glyph glyph-name="g.superior" unicode="&#xe126;" horiz-adv-x="358" 
d="M368 594l-62 -326q-11 -61 -52 -96t-100 -35q-54 0 -109 29l9 45q51 -31 100 -31q37 0 64 24.5t36 65.5l7 36q-40 -32 -84 -32q-50 0 -81 34.5t-31 90.5q0 88 45.5 145.5t115.5 57.5q44 0 84 -34l5 26h53zM119 406q0 -41 19.5 -64t54.5 -23q37 0 77 38l31 168
q-32 32 -70 32q-48 0 -80 -43t-32 -108z" />
    <glyph glyph-name="h.superior" unicode="&#xe127;" horiz-adv-x="358" 
d="M61 282l84 449h53l-31 -167q46 38 94 38q40 0 66 -25t26 -63q0 -9 -4 -33l-38 -199h-53l37 196q2 7 2 24q0 24 -15 39t-40 15q-41 0 -85 -42l-43 -232h-53z" />
    <glyph glyph-name="i.superior" unicode="&#xe128;" horiz-adv-x="163" 
d="M61 282l59 312h52l-58 -312h-53zM129 681q0 15 10.5 25.5t26.5 10.5q12 0 20.5 -8.5t8.5 -21.5q0 -15 -10.5 -25.5t-26.5 -10.5q-12 0 -20.5 8.5t-8.5 21.5z" />
    <glyph glyph-name="j.superior" unicode="&#xe129;" horiz-adv-x="163" 
d="M172 594l-69 -373q-8 -39 -34 -61.5t-65 -22.5q-34 0 -70 19l8 43q28 -17 54 -17q21 0 36 12.5t19 34.5l69 365h52zM129 681q0 15 10.5 25.5t26.5 10.5q12 0 20.5 -8.5t8.5 -21.5q0 -15 -10.5 -25.5t-26.5 -10.5q-12 0 -20.5 8.5t-8.5 21.5z" />
    <glyph glyph-name="k.superior" unicode="&#xe12a;" horiz-adv-x="310" 
d="M61 282l84 449h53l-51 -268l141 131h67l-168 -155l114 -157h-61l-101 139l-26 -139h-52z" />
    <glyph glyph-name="l.superior" unicode="&#xe12b;" horiz-adv-x="163" 
d="M61 282l84 449h53l-84 -449h-53z" />
    <glyph glyph-name="m.superior" unicode="&#xe12c;" horiz-adv-x="538" 
d="M61 282l59 312h51l-6 -29q47 37 92 37q27 0 48.5 -13t31.5 -36q54 49 109 49q37 0 61.5 -24.5t24.5 -61.5q0 -15 -3 -30l-39 -204h-53l38 201q3 9 3 21q0 23 -14.5 37.5t-37.5 14.5q-37 0 -80 -40l-44 -234h-53l38 201q2 6 2 21q0 23 -14 37.5t-38 14.5q-37 0 -79 -40
l-44 -234h-53z" />
    <glyph glyph-name="n.superior" unicode="&#xe12d;" horiz-adv-x="358" 
d="M61 282l59 312h51l-6 -31q50 39 96 39q40 0 66 -25t26 -63q0 -13 -4 -33l-38 -199h-53l37 196q2 7 2 24q0 25 -15 39.5t-40 14.5q-40 0 -85 -42l-43 -232h-53z" />
    <glyph glyph-name="o.superior" unicode="&#xe12e;" horiz-adv-x="358" 
d="M65 402q0 87 49 143.5t125 56.5q56 0 90 -35.5t34 -92.5q0 -87 -48.5 -143.5t-124.5 -56.5q-57 0 -91 35.5t-34 92.5zM119 407q0 -40 21 -64t56 -24q47 0 80 43.5t33 106.5q0 40 -20.5 64t-55.5 24q-47 0 -80.5 -43.5t-33.5 -106.5z" />
    <glyph glyph-name="p.superior" unicode="&#xe12f;" horiz-adv-x="358" 
d="M35 145l85 449h51l-5 -26q42 34 85 34q50 0 81 -34.5t31 -90.5q0 -88 -45.5 -145.5t-115.5 -57.5q-42 0 -84 33l-30 -162h-53zM309 470q0 41 -19 64t-53 23q-38 0 -79 -38l-31 -168q35 -32 71 -32q47 0 79 43t32 108z" />
    <glyph glyph-name="q.superior" unicode="&#xe130;" horiz-adv-x="358" 
d="M368 594l-85 -449h-53l31 161q-40 -32 -84 -32q-50 0 -81 34.5t-31 90.5q0 88 45.5 145.5t115.5 57.5q44 0 84 -34l5 26h53zM119 406q0 -41 19.5 -64t54.5 -23q37 0 77 38l31 168q-32 32 -70 32q-48 0 -80 -43t-32 -108z" />
    <glyph glyph-name="r.superior" unicode="&#xe131;" horiz-adv-x="247" 
d="M61 282l59 312h51l-6 -33q44 41 88 41q20 0 35 -9l-9 -48q-17 9 -34 9q-47 0 -89 -47l-42 -225h-53z" />
    <glyph glyph-name="s.superior" unicode="&#xe132;" horiz-adv-x="272" 
d="M49 302l10 47q44 -32 86 -32q28 0 45.5 14t17.5 36q0 20 -19 35t-42.5 24.5t-42.5 30.5t-19 51q0 42 31 68t81 26q44 0 89 -24l-9 -46q-42 27 -80 27q-27 0 -43.5 -13t-16.5 -34q0 -19 19.5 -34t42.5 -24t42.5 -31t19.5 -53q0 -43 -32 -69.5t-84 -26.5q-47 0 -96 28z" />
    <glyph glyph-name="t.superior" unicode="&#xe133;" horiz-adv-x="266" 
d="M212 682l-16 -88h104l-9 -42h-104l-33 -174q-1 -7 -1 -21q0 -38 44 -38q24 0 54 15l-8 -48q-31 -12 -60 -12q-38 0 -61.5 20.5t-23.5 54.5q0 12 3 24l34 179h-60l9 42h59l16 88h53z" />
    <glyph glyph-name="u.superior" unicode="&#xe134;" horiz-adv-x="358" 
d="M368 594l-59 -312h-52l6 31q-47 -39 -96 -39q-39 0 -64.5 25t-25.5 63q0 20 4 33l36 199h53l-36 -197q-3 -18 -3 -23q0 -25 15 -39.5t40 -14.5q43 0 85 42l44 232h53z" />
    <glyph glyph-name="v.superior" unicode="&#xe135;" horiz-adv-x="314" 
d="M361 594l-178 -312h-43l-61 312h51l42 -240l132 240h57z" />
    <glyph glyph-name="w.superior" unicode="&#xe136;" horiz-adv-x="485" 
d="M529 594l-161 -312h-47l-29 246l-120 -246h-46l-44 312h49l28 -246l121 246h47l28 -246l120 246h54z" />
    <glyph glyph-name="x.superior" unicode="&#xe137;" horiz-adv-x="317" 
d="M23 282l139 160l-75 152h56l56 -116l94 116h62l-132 -155l77 -157h-57l-57 121l-99 -121h-64z" />
    <glyph glyph-name="y.superior" unicode="&#xe138;" horiz-adv-x="314" 
d="M361 594l-256 -449h-55l88 147l-59 302h51l42 -240l132 240h57z" />
    <glyph glyph-name="z.superior" unicode="&#xe139;" horiz-adv-x="306" 
d="M37 282l7 36l213 234h-160l8 42h226l-7 -36l-212 -234h172l-8 -42h-239z" />
    <glyph glyph-name="a_superior.alt" unicode="&#xe13a;" horiz-adv-x="328" 
d="M230 282l6 29q-43 -37 -94 -37q-40 0 -64.5 22t-24.5 59q0 50 45 83.5t114 33.5q25 0 52 -3l4 19q2 12 2 19q0 24 -17 38.5t-43 14.5q-43 0 -98 -26l9 47q51 21 98 21q44 0 73.5 -24.5t29.5 -61.5q0 -16 -3 -31l-39 -203h-50zM107 363q0 -22 13.5 -34.5t38.5 -12.5
q44 0 84 40l15 77q-21 4 -46 4q-46 0 -75.5 -21t-29.5 -53z" />
    <glyph glyph-name="l_superior.alt" unicode="&#xe13b;" horiz-adv-x="203" 
d="M198 731l-68 -364q-2 -12 -2 -17q0 -14 9.5 -22.5t25.5 -8.5q22 0 43 10l-9 -46q-24 -9 -48 -9q-33 0 -54 18.5t-21 48.5q0 10 3 22l68 368h53z" />
    <glyph glyph-name="y_superior.alt" unicode="&#xe13c;" horiz-adv-x="358" 
d="M368 594l-62 -326q-11 -61 -52 -96t-100 -35q-54 0 -109 29l9 45q51 -31 100 -31q38 0 65.5 24.5t34.5 65.5l8 42q-47 -38 -95 -38q-39 0 -64.5 25t-25.5 63q0 20 4 33l36 199h53l-36 -197q-3 -18 -3 -23q0 -24 15 -39t40 -15q43 0 85 42l44 232h53z" />
    <glyph glyph-name="ordfeminine.alt" unicode="&#xe13d;" horiz-adv-x="328" 
d="M47 261l8 41h237l-8 -41h-237zM248 375l6 30q-43 -37 -94 -37q-40 0 -64.5 22t-24.5 59q0 50 44.5 83.5t113.5 33.5q26 0 52 -3l4 19q3 18 3 19q0 23 -17 37.5t-44 14.5q-45 0 -97 -26l9 48q51 21 98 21q44 0 73 -24.5t29 -61.5q0 -16 -3 -31l-38 -204h-50zM124 457
q0 -22 14 -34.5t39 -12.5q45 0 83 40l16 77q-21 4 -47 4q-46 0 -75.5 -21t-29.5 -53z" />
    <glyph glyph-name="a.sc" unicode="&#xe200;" horiz-adv-x="500" 
d="M-19 0l302 532h50l104 -532h-60l-28 152h-217l-85 -152h-66zM295 445l-136 -244h182z" />
    <glyph glyph-name="b.sc" unicode="&#xe201;" horiz-adv-x="478" 
d="M147 246l-37 -198h108q58 0 94.5 32t36.5 83q0 39 -26.5 61t-72.5 22h-103zM40 0l100 532h159q63 0 101.5 -33t38.5 -86q0 -49 -28.5 -87t-75.5 -54q34 -11 55.5 -40t21.5 -67q0 -71 -55 -118t-140 -47h-177zM191 484l-35 -191h96q54 0 89 32t35 80q0 35 -25 57t-67 22
h-93z" />
    <glyph glyph-name="c.sc" unicode="&#xe202;" horiz-adv-x="488" 
d="M47 203q0 148 82 244.5t208 96.5q76 0 149 -45l-11 -57q-67 49 -136 49q-99 0 -163 -80t-64 -201q0 -76 42.5 -123t113.5 -47q67 0 141 43l-12 -61q-70 -34 -140 -34q-93 0 -151.5 60.5t-58.5 154.5z" />
    <glyph glyph-name="d.sc" unicode="&#xe203;" horiz-adv-x="549" 
d="M40 0l100 532h148q97 0 158 -56.5t61 -146.5q0 -152 -81.5 -240.5t-220.5 -88.5h-165zM193 482l-81 -432h100q104 0 168 75t64 198q0 74 -45 116.5t-123 42.5h-83z" />
    <glyph glyph-name="e.sc" unicode="&#xe204;" horiz-adv-x="442" 
d="M40 0l100 532h298l-9 -49h-237l-35 -189h206l-9 -49h-206l-37 -196h242l-9 -49h-304z" />
    <glyph glyph-name="f.sc" unicode="&#xe205;" horiz-adv-x="423" 
d="M40 0l100 532h298l-9 -49h-237l-37 -200h206l-10 -50h-205l-44 -233h-62z" />
    <glyph glyph-name="g.sc" unicode="&#xe206;" horiz-adv-x="533" 
d="M476 274l-46 -247q-89 -39 -170 -39q-94 0 -153.5 60.5t-59.5 154.5q0 148 83 244.5t212 96.5q78 0 156 -51l-11 -57q-70 56 -144 56q-99 0 -165.5 -81t-66.5 -201q0 -76 43 -123t113 -47q55 0 111 25l29 161h-121l10 48h180z" />
    <glyph glyph-name="h.sc" unicode="&#xe207;" horiz-adv-x="572" 
d="M40 0l100 532h62l-44 -238h273l45 238h62l-100 -532h-62l46 245h-273l-46 -245h-63z" />
    <glyph glyph-name="i.sc" unicode="&#xe208;" horiz-adv-x="237" 
d="M40 0l100 532h62l-99 -532h-63z" />
    <glyph glyph-name="j.sc" unicode="&#xe209;" horiz-adv-x="376" 
d="M346 532l-76 -411q-11 -61 -54.5 -97t-105.5 -36q-55 0 -114 34l10 53q52 -33 101 -33q40 0 68 24t35 66l74 400h62z" />
    <glyph glyph-name="k.sc" unicode="&#xe20a;" horiz-adv-x="482" 
d="M40 0l100 532h62l-46 -240l267 240h85l-297 -263l207 -269h-75l-194 251l-47 -251h-62z" />
    <glyph glyph-name="l.sc" unicode="&#xe20b;" horiz-adv-x="401" 
d="M40 0l100 532h62l-90 -482h225l-10 -50h-287z" />
    <glyph glyph-name="m.sc" unicode="&#xe20c;" horiz-adv-x="645" 
d="M40 0l100 532h52l128 -266l230 266h61l-100 -532h-59l80 430l-201 -235h-38l-113 234l-80 -429h-60z" />
    <glyph glyph-name="n.sc" unicode="&#xe20d;" horiz-adv-x="572" 
d="M40 0l100 532h52l206 -429l80 429h60l-100 -532h-51l-207 429l-80 -429h-60z" />
    <glyph glyph-name="o.sc" unicode="&#xe20e;" horiz-adv-x="572" 
d="M47 203q0 148 80 244.5t202 96.5q92 0 147 -59t55 -156q0 -149 -79.5 -245t-202.5 -96q-92 0 -147 59t-55 156zM112 209q0 -78 38 -123.5t104 -45.5q89 0 151 82t62 201q0 77 -38.5 122.5t-104.5 45.5q-89 0 -150.5 -81.5t-61.5 -200.5z" />
    <glyph glyph-name="p.sc" unicode="&#xe20f;" horiz-adv-x="465" 
d="M40 0l100 532h150q72 0 114.5 -37.5t42.5 -100.5q0 -82 -60 -135.5t-152 -53.5h-95l-38 -205h-62zM192 483l-43 -230h87q66 0 107 37t41 96q0 45 -30 71t-82 26h-80z" />
    <glyph glyph-name="q.sc" unicode="&#xe210;" horiz-adv-x="572" 
d="M47 203q0 148 80 244.5t202 96.5q92 0 147 -59t55 -156q0 -101 -39 -181t-107 -122l80 -104h-68l-65 81q-42 -15 -83 -15q-92 0 -147 59t-55 156zM112 209q0 -78 38 -123.5t104 -45.5q89 0 151 82t62 201q0 77 -38.5 122.5t-104.5 45.5q-89 0 -150.5 -81.5t-61.5 -200.5z
" />
    <glyph glyph-name="r.sc" unicode="&#xe211;" horiz-adv-x="476" 
d="M321 0l-94 211h-86l-39 -211h-62l100 532h147q70 0 112 -36.5t42 -97.5q0 -67 -42.5 -117t-111.5 -64l97 -217h-63zM192 483l-42 -224h82q64 0 105 37t41 94q0 43 -29 68t-79 25h-78z" />
    <glyph glyph-name="s.sc" unicode="&#xe212;" horiz-adv-x="430" 
d="M22 35l11 58q76 -54 144 -54q53 0 87 29t34 74q0 32 -22 55.5t-54 39.5t-64 33t-54 47.5t-22 72.5q0 67 50 110.5t129 43.5q71 0 143 -42l-11 -56q-67 46 -132 46q-52 0 -84.5 -28t-32.5 -70q0 -31 22 -53.5t54 -38.5t63.5 -33.5t53.5 -48.5t22 -74q0 -69 -51 -113.5
t-131 -44.5q-72 0 -155 47z" />
    <glyph glyph-name="t.sc" unicode="&#xe213;" horiz-adv-x="461" 
d="M153 0l91 482h-170l10 50h401l-9 -50h-170l-91 -482h-62z" />
    <glyph glyph-name="u.sc" unicode="&#xe214;" horiz-adv-x="572" 
d="M544 532l-67 -355q-16 -87 -78 -138t-150 -51q-80 0 -129.5 44.5t-49.5 116.5q0 22 5 52l61 331h63l-61 -330q-5 -25 -5 -46q0 -53 33 -84.5t88 -31.5q62 0 106 38t56 103l66 351h62z" />
    <glyph glyph-name="v.sc" unicode="&#xe215;" horiz-adv-x="500" 
d="M527 532l-303 -532h-49l-105 532h61l81 -444l248 444h67z" />
    <glyph glyph-name="w.sc" unicode="&#xe216;" horiz-adv-x="788" 
d="M811 532l-276 -532h-55l-56 448l-222 -448h-55l-73 532h61l54 -449l222 449h55l56 -449l224 449h65z" />
    <glyph glyph-name="x.sc" unicode="&#xe217;" horiz-adv-x="504" 
d="M-21 0l237 272l-131 260h68l106 -216l179 216h76l-225 -264l132 -268h-68l-108 224l-189 -224h-77z" />
    <glyph glyph-name="y.sc" unicode="&#xe218;" horiz-adv-x="468" 
d="M151 0l44 231l-129 301h67l101 -247l192 247h77l-247 -306l-43 -226h-62z" />
    <glyph glyph-name="z.sc" unicode="&#xe219;" horiz-adv-x="489" 
d="M-3 0l9 45l394 437h-297l9 50h375l-8 -45l-395 -437h317l-10 -50h-394z" />
    <glyph glyph-name="agrave.sc" unicode="&#xe21a;" horiz-adv-x="500" 
d="M-19 0l302 532h50l104 -532h-60l-28 152h-217l-85 -152h-66zM295 445l-136 -244h182zM312 606l-84 144h63l72 -144h-51z" />
    <glyph glyph-name="aacute.sc" unicode="&#xe21b;" horiz-adv-x="500" 
d="M-19 0l302 532h50l104 -532h-60l-28 152h-217l-85 -152h-66zM295 445l-136 -244h182zM278 606l128 144h72l-140 -144h-60z" />
    <glyph glyph-name="acircumflex.sc" unicode="&#xe21c;" horiz-adv-x="500" 
d="M-19 0l302 532h50l104 -532h-60l-28 152h-217l-85 -152h-66zM295 445l-136 -244h182zM193 606l128 144h52l71 -144h-49l-55 94l-89 -94h-58z" />
    <glyph glyph-name="atilde.sc" unicode="&#xe21d;" horiz-adv-x="500" 
d="M-19 0l302 532h50l104 -532h-60l-28 152h-217l-85 -152h-66zM295 445l-136 -244h182zM184 636q8 42 33.5 68.5t62.5 26.5q28 0 62.5 -28.5t49.5 -28.5q18 0 31.5 12.5t17.5 33.5h45q-7 -42 -33 -68t-62 -26q-29 0 -63.5 28.5t-49.5 28.5q-18 0 -31.5 -13t-16.5 -34h-46z
" />
    <glyph glyph-name="adieresis.sc" unicode="&#xe21e;" horiz-adv-x="500" 
d="M-19 0l302 532h50l104 -532h-60l-28 152h-217l-85 -152h-66zM295 445l-136 -244h182zM194 674q0 20 13 32.5t33 12.5q16 0 26 -10t10 -26q0 -19 -13 -32.5t-32 -13.5q-16 0 -26.5 10.5t-10.5 26.5zM392 674q0 19 13 32t33 13q16 0 26 -10t10 -26q0 -20 -13 -33t-33 -13
q-16 0 -26 10.5t-10 26.5z" />
    <glyph glyph-name="aring.sc" unicode="&#xe21f;" horiz-adv-x="500" 
d="M-19 0l302 532h50l104 -532h-60l-28 152h-217l-85 -152h-66zM295 445l-136 -244h182zM242 669q0 43 29 72.5t73 29.5q37 0 60 -23.5t23 -59.5q0 -44 -29 -73t-72 -29q-37 0 -60.5 23t-23.5 60zM281 673q0 -21 13.5 -35t35.5 -14q25 0 42 17t17 42q0 22 -13.5 35.5
t-35.5 13.5q-25 0 -42 -17t-17 -42z" />
    <glyph glyph-name="amacron.sc" unicode="&#xe221;" horiz-adv-x="500" 
d="M-19 0l302 532h50l104 -532h-60l-28 152h-217l-85 -152h-66zM295 445l-136 -244h182zM185 655l10 47h290l-9 -47h-291z" />
    <glyph glyph-name="abreve.sc" unicode="&#xe222;" horiz-adv-x="500" 
d="M-19 0l302 532h50l104 -532h-60l-28 152h-217l-85 -152h-66zM295 445l-136 -244h182zM219 750h47q-1 -8 -1 -20q0 -29 20.5 -48t51.5 -19q38 0 63 23.5t31 63.5h48q-9 -65 -47.5 -101t-99.5 -36q-50 0 -82.5 31t-32.5 78q0 18 2 28z" />
    <glyph glyph-name="aogonek.sc" unicode="&#xe223;" horiz-adv-x="500" 
d="M380 0h-3l-28 152h-217l-85 -152h-66l302 532h50l104 -532q-55 -29 -85.5 -62t-30.5 -65q0 -18 13 -30t32 -12t40 8l-9 -46q-20 -10 -46 -10q-37 0 -61 20.5t-24 53.5q0 41 30 78.5t84 64.5zM295 445l-136 -244h182z" />
    <glyph glyph-name="ae.sc" unicode="&#xe224;" horiz-adv-x="712" 
d="M310 0l28 150h-192l-122 -150h-72l438 532h317l-9 -49h-236l-35 -189h206l-10 -49h-205l-37 -196h241l-9 -49h-303zM395 456l-210 -258h162z" />
    <glyph glyph-name="cacute.sc" unicode="&#xe226;" horiz-adv-x="488" 
d="M47 203q0 148 82 244.5t208 96.5q76 0 149 -45l-11 -57q-67 49 -136 49q-99 0 -163 -80t-64 -201q0 -76 42.5 -123t113.5 -47q67 0 141 43l-12 -61q-70 -34 -140 -34q-93 0 -151.5 60.5t-58.5 154.5zM309 606l128 144h72l-140 -144h-60z" />
    <glyph glyph-name="ccircumflex.sc" unicode="&#xe227;" horiz-adv-x="488" 
d="M47 203q0 148 82 244.5t208 96.5q76 0 149 -45l-11 -57q-67 49 -136 49q-99 0 -163 -80t-64 -201q0 -76 42.5 -123t113.5 -47q67 0 141 43l-12 -61q-70 -34 -140 -34q-93 0 -151.5 60.5t-58.5 154.5zM224 606l128 144h52l71 -144h-49l-55 94l-89 -94h-58z" />
    <glyph glyph-name="ccaron.sc" unicode="&#xe228;" horiz-adv-x="488" 
d="M47 203q0 148 82 244.5t208 96.5q76 0 149 -45l-11 -57q-67 49 -136 49q-99 0 -163 -80t-64 -201q0 -76 42.5 -123t113.5 -47q67 0 141 43l-12 -61q-70 -34 -140 -34q-93 0 -151.5 60.5t-58.5 154.5zM505 750l-127 -144h-51l-72 144h49l55 -92l89 92h57z" />
    <glyph glyph-name="cdotaccent.sc" unicode="&#xe229;" horiz-adv-x="488" 
d="M47 203q0 148 82 244.5t208 96.5q76 0 149 -45l-11 -57q-67 49 -136 49q-99 0 -163 -80t-64 -201q0 -76 42.5 -123t113.5 -47q67 0 141 43l-12 -61q-70 -34 -140 -34q-93 0 -151.5 60.5t-58.5 154.5zM323 674q0 19 13 32t33 13q17 0 27.5 -10t10.5 -26q0 -19 -13.5 -32.5
t-32.5 -13.5q-17 0 -27.5 10.5t-10.5 26.5z" />
    <glyph glyph-name="ccedilla.sc" unicode="&#xe22a;" horiz-adv-x="488" 
d="M47 203q0 148 82 244.5t208 96.5q76 0 149 -45l-11 -57q-67 49 -136 49q-99 0 -163 -80t-64 -201q0 -76 42.5 -123t113.5 -47q67 0 141 43l-12 -61q-61 -32 -130 -34l-21 -50q27 -6 44 -26t17 -46q0 -41 -34.5 -69t-84.5 -28q-40 0 -80 24l9 45q35 -24 71 -24
q28 0 45.5 14t17.5 37q0 21 -17.5 34t-45.5 13h-4l35 80q-78 12 -125 69.5t-47 141.5z" />
    <glyph glyph-name="dcaron.sc" unicode="&#xe22b;" horiz-adv-x="549" 
d="M40 0l100 532h148q97 0 158 -56.5t61 -146.5q0 -152 -81.5 -240.5t-220.5 -88.5h-165zM193 482l-81 -432h100q104 0 168 75t64 198q0 74 -45 116.5t-123 42.5h-83zM482 750l-127 -144h-51l-72 144h49l55 -92l89 92h57z" />
    <glyph glyph-name="dcroat.sc" unicode="&#xe22c;" horiz-adv-x="560" 
d="M52 0l47 246h-78l9 47h77l44 239h148q98 0 159 -56.5t61 -146.5q0 -151 -81.5 -240t-220.5 -89h-165zM204 482l-35 -189h129l-9 -47h-129l-37 -196h101q105 0 168 75t63 198q0 74 -44.5 116.5t-122.5 42.5h-84z" />
    <glyph glyph-name="egrave.sc" unicode="&#xe22d;" horiz-adv-x="442" 
d="M40 0l100 532h298l-9 -49h-237l-35 -189h206l-9 -49h-206l-37 -196h242l-9 -49h-304zM289 606l-84 144h63l72 -144h-51z" />
    <glyph glyph-name="eacute.sc" unicode="&#xe22e;" horiz-adv-x="442" 
d="M40 0l100 532h298l-9 -49h-237l-35 -189h206l-9 -49h-206l-37 -196h242l-9 -49h-304zM255 606l128 144h72l-140 -144h-60z" />
    <glyph glyph-name="ecircumflex.sc" unicode="&#xe22f;" horiz-adv-x="442" 
d="M40 0l100 532h298l-9 -49h-237l-35 -189h206l-9 -49h-206l-37 -196h242l-9 -49h-304zM170 606l128 144h52l71 -144h-49l-55 94l-89 -94h-58z" />
    <glyph glyph-name="ecaron.sc" unicode="&#xe230;" horiz-adv-x="442" 
d="M40 0l100 532h298l-9 -49h-237l-35 -189h206l-9 -49h-206l-37 -196h242l-9 -49h-304zM451 750l-127 -144h-51l-72 144h49l55 -92l89 92h57z" />
    <glyph glyph-name="edieresis.sc" unicode="&#xe231;" horiz-adv-x="442" 
d="M40 0l100 532h298l-9 -49h-237l-35 -189h206l-9 -49h-206l-37 -196h242l-9 -49h-304zM171 674q0 20 13 32.5t33 12.5q16 0 26 -10t10 -26q0 -19 -13 -32.5t-32 -13.5q-16 0 -26.5 10.5t-10.5 26.5zM369 674q0 19 13 32t33 13q16 0 26 -10t10 -26q0 -20 -13 -33t-33 -13
q-16 0 -26 10.5t-10 26.5z" />
    <glyph glyph-name="emacron.sc" unicode="&#xe232;" horiz-adv-x="442" 
d="M40 0l100 532h298l-9 -49h-237l-35 -189h206l-9 -49h-206l-37 -196h242l-9 -49h-304zM162 655l10 47h290l-9 -47h-291z" />
    <glyph glyph-name="ebreve.sc" unicode="&#xe233;" horiz-adv-x="442" 
d="M40 0l100 532h298l-9 -49h-237l-35 -189h206l-9 -49h-206l-37 -196h242l-9 -49h-304zM196 750h47q-1 -8 -1 -20q0 -29 20.5 -48t51.5 -19q38 0 63 23.5t31 63.5h48q-9 -65 -47.5 -101t-99.5 -36q-50 0 -82.5 31t-32.5 78q0 18 2 28z" />
    <glyph glyph-name="edotaccent.sc" unicode="&#xe234;" horiz-adv-x="442" 
d="M40 0l100 532h298l-9 -49h-237l-35 -189h206l-9 -49h-206l-37 -196h242l-9 -49h-304zM269 674q0 19 13 32t33 13q17 0 27.5 -10t10.5 -26q0 -19 -13.5 -32.5t-32.5 -13.5q-17 0 -27.5 10.5t-10.5 26.5z" />
    <glyph glyph-name="eogonek.sc" unicode="&#xe235;" horiz-adv-x="442" 
d="M40 0l100 532h298l-9 -49h-237l-35 -189h206l-9 -49h-206l-37 -196h242l-9 -49q-55 -29 -85.5 -62t-30.5 -65q0 -18 13 -30t32 -12t40 8l-9 -46q-20 -10 -46 -10q-37 0 -61 20.5t-24 53.5q0 41 30 78.5t84 64.5h-247z" />
    <glyph glyph-name="gcircumflex.sc" unicode="&#xe236;" horiz-adv-x="533" 
d="M476 274l-46 -247q-89 -39 -170 -39q-94 0 -153.5 60.5t-59.5 154.5q0 148 83 244.5t212 96.5q78 0 156 -51l-11 -57q-70 56 -144 56q-99 0 -165.5 -81t-66.5 -201q0 -76 43 -123t113 -47q55 0 111 25l29 161h-121l10 48h180zM230 606l128 144h52l71 -144h-49l-55 94
l-89 -94h-58z" />
    <glyph glyph-name="gbreve.sc" unicode="&#xe237;" horiz-adv-x="533" 
d="M476 274l-46 -247q-89 -39 -170 -39q-94 0 -153.5 60.5t-59.5 154.5q0 148 83 244.5t212 96.5q78 0 156 -51l-11 -57q-70 56 -144 56q-99 0 -165.5 -81t-66.5 -201q0 -76 43 -123t113 -47q55 0 111 25l29 161h-121l10 48h180zM256 750h47q-1 -8 -1 -20q0 -29 20.5 -48
t51.5 -19q38 0 63 23.5t31 63.5h48q-9 -65 -47.5 -101t-99.5 -36q-50 0 -82.5 31t-32.5 78q0 18 2 28z" />
    <glyph glyph-name="gdotaccent.sc" unicode="&#xe238;" horiz-adv-x="533" 
d="M476 274l-46 -247q-89 -39 -170 -39q-94 0 -153.5 60.5t-59.5 154.5q0 148 83 244.5t212 96.5q78 0 156 -51l-11 -57q-70 56 -144 56q-99 0 -165.5 -81t-66.5 -201q0 -76 43 -123t113 -47q55 0 111 25l29 161h-121l10 48h180zM329 674q0 19 13 32t33 13q17 0 27.5 -10
t10.5 -26q0 -19 -13.5 -32.5t-32.5 -13.5q-17 0 -27.5 10.5t-10.5 26.5z" />
    <glyph glyph-name="gcommaaccent.sc" unicode="&#xe239;" horiz-adv-x="533" 
d="M476 274l-46 -247q-89 -39 -170 -39q-94 0 -153.5 60.5t-59.5 154.5q0 148 83 244.5t212 96.5q78 0 156 -51l-11 -57q-70 56 -144 56q-99 0 -165.5 -81t-66.5 -201q0 -76 43 -123t113 -47q55 0 111 25l29 161h-121l10 48h180zM115 -242l93 168h64l-103 -168h-54z" />
    <glyph glyph-name="hcircumflex.sc" unicode="&#xe23a;" horiz-adv-x="572" 
d="M40 0l100 532h62l-44 -238h273l45 238h62l-100 -532h-62l46 245h-273l-46 -245h-63zM224 606l128 144h52l71 -144h-49l-55 94l-89 -94h-58z" />
    <glyph glyph-name="hbar.sc" unicode="&#xe23b;" horiz-adv-x="572" 
d="M40 0l72 382h-72l8 45h72l20 105h62l-19 -105h273l20 105h62l-20 -105h73l-9 -45h-72l-72 -382h-62l46 245h-273l-46 -245h-63zM174 382l-17 -88h274l17 88h-274z" />
    <glyph glyph-name="igrave.sc" unicode="&#xe23c;" horiz-adv-x="237" 
d="M40 0l100 532h62l-99 -532h-63zM175 606l-84 144h63l72 -144h-51z" />
    <glyph glyph-name="iacute.sc" unicode="&#xe23d;" horiz-adv-x="237" 
d="M40 0l100 532h62l-99 -532h-63zM141 606l128 144h72l-140 -144h-60z" />
    <glyph glyph-name="icircumflex.sc" unicode="&#xe23e;" horiz-adv-x="237" 
d="M40 0l100 532h62l-99 -532h-63zM56 606l128 144h52l71 -144h-49l-55 94l-89 -94h-58z" />
    <glyph glyph-name="itilde.sc" unicode="&#xe23f;" horiz-adv-x="237" 
d="M40 0l100 532h62l-99 -532h-63zM47 636q8 42 33.5 68.5t62.5 26.5q28 0 62.5 -28.5t49.5 -28.5q18 0 31.5 12.5t17.5 33.5h45q-7 -42 -33 -68t-62 -26q-29 0 -63.5 28.5t-49.5 28.5q-18 0 -31.5 -13t-16.5 -34h-46z" />
    <glyph glyph-name="idieresis.sc" unicode="&#xe240;" horiz-adv-x="237" 
d="M40 0l100 532h62l-99 -532h-63zM57 674q0 20 13 32.5t33 12.5q16 0 26 -10t10 -26q0 -19 -13 -32.5t-32 -13.5q-16 0 -26.5 10.5t-10.5 26.5zM255 674q0 19 13 32t33 13q16 0 26 -10t10 -26q0 -20 -13 -33t-33 -13q-16 0 -26 10.5t-10 26.5z" />
    <glyph glyph-name="imacron.sc" unicode="&#xe241;" horiz-adv-x="237" 
d="M40 0l100 532h62l-99 -532h-63zM48 655l10 47h290l-9 -47h-291z" />
    <glyph glyph-name="ibreve.sc" unicode="&#xe242;" horiz-adv-x="237" 
d="M40 0l100 532h62l-99 -532h-63zM82 750h47q-1 -8 -1 -20q0 -29 20.5 -48t51.5 -19q38 0 63 23.5t31 63.5h48q-9 -65 -47.5 -101t-99.5 -36q-50 0 -82.5 31t-32.5 78q0 18 2 28z" />
    <glyph glyph-name="idotaccent.sc" unicode="&#xe243;" horiz-adv-x="237" 
d="M40 0l100 532h62l-99 -532h-63zM155 674q0 19 13 32t33 13q17 0 27.5 -10t10.5 -26q0 -19 -13.5 -32.5t-32.5 -13.5q-17 0 -27.5 10.5t-10.5 26.5z" />
    <glyph glyph-name="iogonek.sc" unicode="&#xe244;" horiz-adv-x="237" 
d="M40 0l100 532h62l-99 -532q-55 -29 -85.5 -62t-30.5 -65q0 -18 13 -30t32 -12t40 8l-9 -46q-20 -10 -46 -10q-37 0 -61 20.5t-24 53.5q0 41 30 78.5t84 64.5h-6z" />
    <glyph glyph-name="ij.sc" unicode="&#xe245;" horiz-adv-x="613" 
d="M583 532l-76 -411q-11 -61 -54.5 -97t-105.5 -36q-55 0 -114 34l10 53q53 -33 101 -33q40 0 68 24t35 66l74 400h62zM40 0l100 532h62l-99 -532h-63z" />
    <glyph glyph-name="jcircumflex.sc" unicode="&#xe246;" horiz-adv-x="376" 
d="M346 532l-76 -411q-11 -61 -54.5 -97t-105.5 -36q-55 0 -114 34l10 53q52 -33 101 -33q40 0 68 24t35 66l74 400h62zM200 606l128 144h52l71 -144h-49l-55 94l-89 -94h-58z" />
    <glyph glyph-name="kcommaaccent.sc" unicode="&#xe247;" horiz-adv-x="482" 
d="M40 0l100 532h62l-46 -240l267 240h85l-297 -263l207 -269h-75l-194 251l-47 -251h-62zM69 -242l93 168h64l-103 -168h-54z" />
    <glyph glyph-name="lacute.sc" unicode="&#xe248;" horiz-adv-x="402" 
d="M40 0l100 532h62l-90 -482h225l-10 -50h-287zM141 606l128 144h72l-140 -144h-60z" />
    <glyph glyph-name="lcaron.sc" unicode="&#xe249;" horiz-adv-x="402" 
d="M40 0l100 532h62l-90 -482h225l-10 -50h-287zM246 419l79 144h61l-87 -144h-53z" />
    <glyph glyph-name="ldot.sc" unicode="&#xe24a;" horiz-adv-x="402" 
d="M40 0l100 532h62l-90 -482h225l-10 -50h-287zM281 268q0 19 13 32t33 13q17 0 27.5 -10t10.5 -26q0 -19 -13.5 -32.5t-32.5 -13.5q-17 0 -27.5 10.5t-10.5 26.5z" />
    <glyph glyph-name="lcommaaccent.sc" unicode="&#xe24b;" horiz-adv-x="402" 
d="M40 0l100 532h62l-90 -482h225l-10 -50h-287zM42 -242l93 168h64l-103 -168h-54z" />
    <glyph glyph-name="lslash.sc" unicode="&#xe24c;" horiz-adv-x="413" 
d="M52 0l39 208l-72 -28l11 56l72 28l49 268h63l-46 -240l144 56l-11 -55l-142 -57l-35 -186h224l-10 -50h-286z" />
    <glyph glyph-name="nacute.sc" unicode="&#xe24d;" horiz-adv-x="572" 
d="M40 0l100 532h52l206 -429l80 429h60l-100 -532h-51l-207 429l-80 -429h-60zM309 606l128 144h72l-140 -144h-60z" />
    <glyph glyph-name="ncaron.sc" unicode="&#xe24e;" horiz-adv-x="572" 
d="M40 0l100 532h52l206 -429l80 429h60l-100 -532h-51l-207 429l-80 -429h-60zM505 750l-127 -144h-51l-72 144h49l55 -92l89 92h57z" />
    <glyph glyph-name="ntilde.sc" unicode="&#xe24f;" horiz-adv-x="572" 
d="M40 0l100 532h52l206 -429l80 429h60l-100 -532h-51l-207 429l-80 -429h-60zM215 636q8 42 33.5 68.5t62.5 26.5q28 0 62.5 -28.5t49.5 -28.5q18 0 31.5 12.5t17.5 33.5h45q-7 -42 -33 -68t-62 -26q-29 0 -63.5 28.5t-49.5 28.5q-18 0 -31.5 -13t-16.5 -34h-46z" />
    <glyph glyph-name="ncommaaccent.sc" unicode="&#xe250;" horiz-adv-x="572" 
d="M40 0l100 532h52l206 -429l80 429h60l-100 -532h-51l-207 429l-80 -429h-60zM109 -242l93 168h64l-103 -168h-54z" />
    <glyph glyph-name="napostrophe.sc" unicode="&#xe251;" horiz-adv-x="760" 
d="M100 491l110 197h68l-120 -197h-58zM228 0l100 532h52l206 -429l80 429h60l-100 -532h-51l-207 429l-80 -429h-60z" />
    <glyph glyph-name="ograve.sc" unicode="&#xe252;" horiz-adv-x="572" 
d="M47 203q0 148 80 244.5t202 96.5q92 0 147 -59t55 -156q0 -149 -79.5 -245t-202.5 -96q-92 0 -147 59t-55 156zM112 209q0 -78 38 -123.5t104 -45.5q89 0 151 82t62 201q0 77 -38.5 122.5t-104.5 45.5q-89 0 -150.5 -81.5t-61.5 -200.5zM343 606l-84 144h63l72 -144h-51z
" />
    <glyph glyph-name="oacute.sc" unicode="&#xe253;" horiz-adv-x="572" 
d="M47 203q0 148 80 244.5t202 96.5q92 0 147 -59t55 -156q0 -149 -79.5 -245t-202.5 -96q-92 0 -147 59t-55 156zM112 209q0 -78 38 -123.5t104 -45.5q89 0 151 82t62 201q0 77 -38.5 122.5t-104.5 45.5q-89 0 -150.5 -81.5t-61.5 -200.5zM309 606l128 144h72l-140 -144
h-60z" />
    <glyph glyph-name="ocircumflex.sc" unicode="&#xe254;" horiz-adv-x="572" 
d="M47 203q0 148 80 244.5t202 96.5q92 0 147 -59t55 -156q0 -149 -79.5 -245t-202.5 -96q-92 0 -147 59t-55 156zM112 209q0 -78 38 -123.5t104 -45.5q89 0 151 82t62 201q0 77 -38.5 122.5t-104.5 45.5q-89 0 -150.5 -81.5t-61.5 -200.5zM224 606l128 144h52l71 -144h-49
l-55 94l-89 -94h-58z" />
    <glyph glyph-name="otilde.sc" unicode="&#xe255;" horiz-adv-x="572" 
d="M47 203q0 148 80 244.5t202 96.5q92 0 147 -59t55 -156q0 -149 -79.5 -245t-202.5 -96q-92 0 -147 59t-55 156zM112 209q0 -78 38 -123.5t104 -45.5q89 0 151 82t62 201q0 77 -38.5 122.5t-104.5 45.5q-89 0 -150.5 -81.5t-61.5 -200.5zM215 636q8 42 33.5 68.5
t62.5 26.5q28 0 62.5 -28.5t49.5 -28.5q18 0 31.5 12.5t17.5 33.5h45q-7 -42 -33 -68t-62 -26q-29 0 -63.5 28.5t-49.5 28.5q-18 0 -31.5 -13t-16.5 -34h-46z" />
    <glyph glyph-name="odieresis.sc" unicode="&#xe256;" horiz-adv-x="572" 
d="M47 203q0 148 80 244.5t202 96.5q92 0 147 -59t55 -156q0 -149 -79.5 -245t-202.5 -96q-92 0 -147 59t-55 156zM112 209q0 -78 38 -123.5t104 -45.5q89 0 151 82t62 201q0 77 -38.5 122.5t-104.5 45.5q-89 0 -150.5 -81.5t-61.5 -200.5zM225 674q0 20 13 32.5t33 12.5
q16 0 26 -10t10 -26q0 -19 -13 -32.5t-32 -13.5q-16 0 -26.5 10.5t-10.5 26.5zM423 674q0 19 13 32t33 13q16 0 26 -10t10 -26q0 -20 -13 -33t-33 -13q-16 0 -26 10.5t-10 26.5z" />
    <glyph glyph-name="omacron.sc" unicode="&#xe257;" horiz-adv-x="572" 
d="M47 203q0 148 80 244.5t202 96.5q92 0 147 -59t55 -156q0 -149 -79.5 -245t-202.5 -96q-92 0 -147 59t-55 156zM112 209q0 -78 38 -123.5t104 -45.5q89 0 151 82t62 201q0 77 -38.5 122.5t-104.5 45.5q-89 0 -150.5 -81.5t-61.5 -200.5zM216 655l10 47h290l-9 -47h-291z
" />
    <glyph glyph-name="obreve.sc" unicode="&#xe258;" horiz-adv-x="572" 
d="M47 203q0 148 80 244.5t202 96.5q92 0 147 -59t55 -156q0 -149 -79.5 -245t-202.5 -96q-92 0 -147 59t-55 156zM112 209q0 -78 38 -123.5t104 -45.5q89 0 151 82t62 201q0 77 -38.5 122.5t-104.5 45.5q-89 0 -150.5 -81.5t-61.5 -200.5zM250 750h47q-1 -8 -1 -20
q0 -29 20.5 -48t51.5 -19q38 0 63 23.5t31 63.5h48q-9 -65 -47.5 -101t-99.5 -36q-50 0 -82.5 31t-32.5 78q0 18 2 28z" />
    <glyph glyph-name="ohungarumlaut.sc" unicode="&#xe259;" horiz-adv-x="572" 
d="M47 203q0 148 80 244.5t202 96.5q92 0 147 -59t55 -156q0 -149 -79.5 -245t-202.5 -96q-92 0 -147 59t-55 156zM112 209q0 -78 38 -123.5t104 -45.5q89 0 151 82t62 201q0 77 -38.5 122.5t-104.5 45.5q-89 0 -150.5 -81.5t-61.5 -200.5zM391 606l127 144h73l-139 -144
h-61zM227 606l128 144h73l-140 -144h-61z" />
    <glyph glyph-name="oslash.sc" unicode="&#xe25a;" horiz-adv-x="572" 
d="M47 203q0 148 80.5 244.5t202.5 96.5q86 0 139 -53l38 41h59l-69 -75q34 -53 34 -128q0 -148 -80 -244.5t-203 -96.5q-84 0 -139 53l-39 -41h-58l69 74q-34 54 -34 129zM468 323q0 47 -16 85l-302 -323q39 -45 103 -45q90 0 152.5 82t62.5 201zM111 209q0 -50 15 -86
l302 324q-37 45 -103 45q-90 0 -152 -82t-62 -201z" />
    <glyph glyph-name="oe.sc" unicode="&#xe25c;" horiz-adv-x="739" 
d="M734 532l-9 -49h-236l-35 -189h206l-9 -49h-206l-37 -196h242l-10 -49h-373q-98 0 -159 56.5t-61 146.5q0 151 81.5 240t220.5 89h385zM346 50l82 432h-86q-104 0 -167 -75t-63 -198q0 -74 44.5 -116.5t122.5 -42.5h67z" />
    <glyph glyph-name="racute.sc" unicode="&#xe25d;" horiz-adv-x="476" 
d="M321 0l-94 211h-86l-39 -211h-62l100 532h147q70 0 112 -36.5t42 -97.5q0 -67 -42.5 -117t-111.5 -64l97 -217h-63zM192 483l-42 -224h82q64 0 105 37t41 94q0 43 -29 68t-79 25h-78zM262 606l128 144h72l-140 -144h-60z" />
    <glyph glyph-name="rcaron.sc" unicode="&#xe25e;" horiz-adv-x="476" 
d="M321 0l-94 211h-86l-39 -211h-62l100 532h147q70 0 112 -36.5t42 -97.5q0 -67 -42.5 -117t-111.5 -64l97 -217h-63zM192 483l-42 -224h82q64 0 105 37t41 94q0 43 -29 68t-79 25h-78zM458 750l-127 -144h-51l-72 144h49l55 -92l89 92h57z" />
    <glyph glyph-name="rcommaaccent.sc" unicode="&#xe25f;" horiz-adv-x="476" 
d="M321 0l-94 211h-86l-39 -211h-62l100 532h147q70 0 112 -36.5t42 -97.5q0 -67 -42.5 -117t-111.5 -64l97 -217h-63zM192 483l-42 -224h82q64 0 105 37t41 94q0 43 -29 68t-79 25h-78zM62 -242l93 168h64l-103 -168h-54z" />
    <glyph glyph-name="sacute.sc" unicode="&#xe260;" horiz-adv-x="430" 
d="M22 35l11 58q76 -54 144 -54q53 0 87 29t34 74q0 32 -22 55.5t-54 39.5t-64 33t-54 47.5t-22 72.5q0 67 50 110.5t129 43.5q71 0 143 -42l-11 -56q-67 46 -132 46q-52 0 -84.5 -28t-32.5 -70q0 -31 22 -53.5t54 -38.5t63.5 -33.5t53.5 -48.5t22 -74q0 -69 -51 -113.5
t-131 -44.5q-72 0 -155 47zM238 606l128 144h72l-140 -144h-60z" />
    <glyph glyph-name="scircumflex.sc" unicode="&#xe261;" horiz-adv-x="430" 
d="M22 35l11 58q76 -54 144 -54q53 0 87 29t34 74q0 32 -22 55.5t-54 39.5t-64 33t-54 47.5t-22 72.5q0 67 50 110.5t129 43.5q71 0 143 -42l-11 -56q-67 46 -132 46q-52 0 -84.5 -28t-32.5 -70q0 -31 22 -53.5t54 -38.5t63.5 -33.5t53.5 -48.5t22 -74q0 -69 -51 -113.5
t-131 -44.5q-72 0 -155 47zM153 606l128 144h52l71 -144h-49l-55 94l-89 -94h-58z" />
    <glyph glyph-name="scaron.sc" unicode="&#xe262;" horiz-adv-x="430" 
d="M22 35l11 58q76 -54 144 -54q53 0 87 29t34 74q0 32 -22 55.5t-54 39.5t-64 33t-54 47.5t-22 72.5q0 67 50 110.5t129 43.5q71 0 143 -42l-11 -56q-67 46 -132 46q-52 0 -84.5 -28t-32.5 -70q0 -31 22 -53.5t54 -38.5t63.5 -33.5t53.5 -48.5t22 -74q0 -69 -51 -113.5
t-131 -44.5q-72 0 -155 47zM434 750l-127 -144h-51l-72 144h49l55 -92l89 92h57z" />
    <glyph glyph-name="scedilla.sc" unicode="&#xe263;" horiz-adv-x="430" 
d="M22 35l11 58q76 -54 144 -54q53 0 87 29t34 74q0 32 -22 55.5t-54 39.5t-64 33t-54 47.5t-22 72.5q0 67 50 110.5t129 43.5q71 0 143 -42l-11 -56q-67 46 -132 46q-52 0 -84.5 -28t-32.5 -70q0 -31 22 -53.5t54 -38.5t63.5 -33.5t53.5 -48.5t22 -74q0 -64 -45 -107.5
t-118 -49.5l-21 -51q26 -6 43 -26t17 -46q0 -41 -34 -69t-85 -28q-38 0 -79 24l9 45q34 -24 70 -24q28 0 46 14t18 37q0 21 -17.5 34t-46.5 13h-4l35 78q-59 7 -125 45z" />
    <glyph glyph-name="scommaaccent.sc" unicode="&#xe264;" horiz-adv-x="430" 
d="M22 35l11 58q76 -54 144 -54q53 0 87 29t34 74q0 32 -22 55.5t-54 39.5t-64 33t-54 47.5t-22 72.5q0 67 50 110.5t129 43.5q71 0 143 -42l-11 -56q-67 46 -132 46q-52 0 -84.5 -28t-32.5 -70q0 -31 22 -53.5t54 -38.5t63.5 -33.5t53.5 -48.5t22 -74q0 -69 -51 -113.5
t-131 -44.5q-72 0 -155 47zM38 -242l93 168h64l-103 -168h-54z" />
    <glyph glyph-name="germandbls.sc" unicode="&#xe265;" horiz-adv-x="572" 
d="M40 0l100 532h408l-9 -45l-152 -176q54 -10 88 -48.5t34 -89.5q0 -79 -55 -132t-137 -53q-57 0 -117 34l12 56q52 -38 105 -38q55 0 92.5 36t37.5 89q0 47 -34 75.5t-91 28.5h-12l9 45l144 169h-271l-90 -483h-62z" />
    <glyph glyph-name="tcaron.sc" unicode="&#xe266;" horiz-adv-x="461" 
d="M153 0l91 482h-170l10 50h401l-9 -50h-170l-91 -482h-62zM449 750l-127 -144h-51l-72 144h49l55 -92l89 92h57z" />
    <glyph glyph-name="tbar.sc" unicode="&#xe268;" horiz-adv-x="461" 
d="M153 0l44 234h-113l9 48h113l38 200h-170l10 50h401l-9 -50h-170l-38 -200h113l-9 -48h-113l-44 -234h-62z" />
    <glyph glyph-name="ugrave.sc" unicode="&#xe269;" horiz-adv-x="572" 
d="M544 532l-67 -355q-16 -87 -78 -138t-150 -51q-80 0 -129.5 44.5t-49.5 116.5q0 22 5 52l61 331h63l-61 -330q-5 -25 -5 -46q0 -53 33 -84.5t88 -31.5q62 0 106 38t56 103l66 351h62zM343 606l-84 144h63l72 -144h-51z" />
    <glyph glyph-name="uacute.sc" unicode="&#xe26a;" horiz-adv-x="572" 
d="M544 532l-67 -355q-16 -87 -78 -138t-150 -51q-80 0 -129.5 44.5t-49.5 116.5q0 22 5 52l61 331h63l-61 -330q-5 -25 -5 -46q0 -53 33 -84.5t88 -31.5q62 0 106 38t56 103l66 351h62zM309 606l128 144h72l-140 -144h-60z" />
    <glyph glyph-name="ucircumflex.sc" unicode="&#xe26b;" horiz-adv-x="572" 
d="M544 532l-67 -355q-16 -87 -78 -138t-150 -51q-80 0 -129.5 44.5t-49.5 116.5q0 22 5 52l61 331h63l-61 -330q-5 -25 -5 -46q0 -53 33 -84.5t88 -31.5q62 0 106 38t56 103l66 351h62zM224 606l128 144h52l71 -144h-49l-55 94l-89 -94h-58z" />
    <glyph glyph-name="utilde.sc" unicode="&#xe26c;" horiz-adv-x="572" 
d="M544 532l-67 -355q-16 -87 -78 -138t-150 -51q-80 0 -129.5 44.5t-49.5 116.5q0 22 5 52l61 331h63l-61 -330q-5 -25 -5 -46q0 -53 33 -84.5t88 -31.5q62 0 106 38t56 103l66 351h62zM215 636q8 42 33.5 68.5t62.5 26.5q28 0 62.5 -28.5t49.5 -28.5q18 0 31.5 12.5
t17.5 33.5h45q-7 -42 -33 -68t-62 -26q-29 0 -63.5 28.5t-49.5 28.5q-18 0 -31.5 -13t-16.5 -34h-46z" />
    <glyph glyph-name="udieresis.sc" unicode="&#xe26d;" horiz-adv-x="572" 
d="M544 532l-67 -355q-16 -87 -78 -138t-150 -51q-80 0 -129.5 44.5t-49.5 116.5q0 22 5 52l61 331h63l-61 -330q-5 -25 -5 -46q0 -53 33 -84.5t88 -31.5q62 0 106 38t56 103l66 351h62zM225 674q0 20 13 32.5t33 12.5q16 0 26 -10t10 -26q0 -19 -13 -32.5t-32 -13.5
q-16 0 -26.5 10.5t-10.5 26.5zM423 674q0 19 13 32t33 13q16 0 26 -10t10 -26q0 -20 -13 -33t-33 -13q-16 0 -26 10.5t-10 26.5z" />
    <glyph glyph-name="uhungarumlaut.sc" unicode="&#xe271;" horiz-adv-x="572" 
d="M544 532l-67 -355q-16 -87 -78 -138t-150 -51q-80 0 -129.5 44.5t-49.5 116.5q0 22 5 52l61 331h63l-61 -330q-5 -25 -5 -46q0 -53 33 -84.5t88 -31.5q62 0 106 38t56 103l66 351h62zM391 606l127 144h73l-139 -144h-61zM227 606l128 144h73l-140 -144h-61z" />
    <glyph glyph-name="uogonek.sc" unicode="&#xe272;" horiz-adv-x="572" 
d="M544 532l-67 -355q-22 -115 -132 -172q-110 -58 -110 -132q0 -18 12.5 -30t31.5 -12t41 8l-9 -46q-21 -10 -47 -10q-37 0 -61 20.5t-24 53.5q0 35 23.5 70.5t62.5 62.5q-12 -2 -17 -2q-79 0 -128.5 44t-49.5 116q0 23 5 53l61 331h63l-61 -330q-5 -25 -5 -46
q0 -53 33 -84.5t88 -31.5q62 0 106 38t56 103l66 351h62z" />
    <glyph glyph-name="wgrave.sc" unicode="&#xe273;" horiz-adv-x="788" 
d="M811 532l-276 -532h-55l-56 448l-222 -448h-55l-73 532h61l54 -449l222 449h55l56 -449l224 449h65zM447 606l-84 144h63l72 -144h-51z" />
    <glyph glyph-name="wacute.sc" unicode="&#xe274;" horiz-adv-x="788" 
d="M811 532l-276 -532h-55l-56 448l-222 -448h-55l-73 532h61l54 -449l222 449h55l56 -449l224 449h65zM413 606l128 144h72l-140 -144h-60z" />
    <glyph glyph-name="wcircumflex.sc" unicode="&#xe275;" horiz-adv-x="788" 
d="M811 532l-276 -532h-55l-56 448l-222 -448h-55l-73 532h61l54 -449l222 449h55l56 -449l224 449h65zM323 606l128 144h52l71 -144h-49l-55 94l-89 -94h-58z" />
    <glyph glyph-name="wdieresis.sc" unicode="&#xe276;" horiz-adv-x="788" 
d="M811 532l-276 -532h-55l-56 448l-222 -448h-55l-73 532h61l54 -449l222 449h55l56 -449l224 449h65zM329 674q0 20 13 32.5t33 12.5q16 0 26 -10t10 -26q0 -19 -13 -32.5t-32 -13.5q-16 0 -26.5 10.5t-10.5 26.5zM527 674q0 19 13 32t33 13q16 0 26 -10t10 -26
q0 -20 -13 -33t-33 -13q-16 0 -26 10.5t-10 26.5z" />
    <glyph glyph-name="ygrave.sc" unicode="&#xe277;" horiz-adv-x="468" 
d="M151 0l44 231l-129 301h67l101 -247l192 247h77l-247 -306l-43 -226h-62zM287 606l-84 144h63l72 -144h-51z" />
    <glyph glyph-name="yacute.sc" unicode="&#xe278;" horiz-adv-x="468" 
d="M151 0l44 231l-129 301h67l101 -247l192 247h77l-247 -306l-43 -226h-62zM253 606l128 144h72l-140 -144h-60z" />
    <glyph glyph-name="ycircumflex.sc" unicode="&#xe279;" horiz-adv-x="468" 
d="M151 0l44 231l-129 301h67l101 -247l192 247h77l-247 -306l-43 -226h-62zM168 606l128 144h52l71 -144h-49l-55 94l-89 -94h-58z" />
    <glyph glyph-name="ydieresis.sc" unicode="&#xe27a;" horiz-adv-x="468" 
d="M151 0l44 231l-129 301h67l101 -247l192 247h77l-247 -306l-43 -226h-62zM169 674q0 20 13 32.5t33 12.5q16 0 26 -10t10 -26q0 -19 -13 -32.5t-32 -13.5q-16 0 -26.5 10.5t-10.5 26.5zM367 674q0 19 13 32t33 13q16 0 26 -10t10 -26q0 -20 -13 -33t-33 -13
q-16 0 -26 10.5t-10 26.5z" />
    <glyph glyph-name="zacute.sc" unicode="&#xe27b;" horiz-adv-x="489" 
d="M-3 0l9 45l394 437h-297l9 50h375l-8 -45l-395 -437h317l-10 -50h-394zM267 606l128 144h72l-140 -144h-60z" />
    <glyph glyph-name="zcaron.sc" unicode="&#xe27c;" horiz-adv-x="489" 
d="M-3 0l9 45l394 437h-297l9 50h375l-8 -45l-395 -437h317l-10 -50h-394zM463 750l-127 -144h-51l-72 144h49l55 -92l89 92h57z" />
    <glyph glyph-name="zdotaccent.sc" unicode="&#xe27d;" horiz-adv-x="489" 
d="M-3 0l9 45l394 437h-297l9 50h375l-8 -45l-395 -437h317l-10 -50h-394zM281 674q0 19 13 32t33 13q17 0 27.5 -10t10.5 -26q0 -19 -13.5 -32.5t-32.5 -13.5q-17 0 -27.5 10.5t-10.5 26.5z" />
    <glyph glyph-name="eng.sc" unicode="&#xe27e;" horiz-adv-x="572" 
d="M40 0l100 532h52l206 -429l80 429h60l-117 -630q-11 -61 -55 -97t-106 -36q-54 0 -113 34l10 54q52 -34 100 -34q42 0 70 24t35 66l18 98l-200 418l-80 -429h-60z" />
    <glyph glyph-name="eth.sc" unicode="&#xe27f;" horiz-adv-x="560" 
d="M52 0l47 246h-78l9 47h77l44 239h148q98 0 159 -56.5t61 -146.5q0 -151 -81.5 -240t-220.5 -89h-165zM204 482l-35 -189h129l-9 -47h-129l-37 -196h101q105 0 168 75t63 198q0 74 -44.5 116.5t-122.5 42.5h-84z" />
    <glyph glyph-name="thorn.sc" unicode="&#xe280;" horiz-adv-x="465" 
d="M40 0l100 532h62l-19 -99h89q71 0 114 -37.5t43 -99.5q0 -82 -60 -135.5t-152 -53.5h-96l-19 -107h-62zM173 384l-43 -228h87q66 0 107 36t41 95q0 45 -29.5 71t-81.5 26h-81z" />
    <glyph glyph-name="quoteleft.sc" unicode="&#xe281;" horiz-adv-x="250" 
d="M249 532l-111 -197h-67l119 197h59z" />
    <glyph glyph-name="quoteright.sc" unicode="&#xe282;" horiz-adv-x="250" 
d="M71 335l110 197h68l-120 -197h-58z" />
    <glyph glyph-name="quotedblleft.sc" unicode="&#xe283;" horiz-adv-x="412" 
d="M410 532l-109 -197h-68l119 197h58zM249 532l-111 -197h-67l119 197h59z" />
    <glyph glyph-name="quotedblright.sc" unicode="&#xe284;" horiz-adv-x="412" 
d="M71 335l110 197h68l-120 -197h-58zM233 335l109 197h68l-119 -197h-58z" />
    <glyph glyph-name="exclam.sc" unicode="&#xe285;" horiz-adv-x="235" 
d="M69 153l71 379h60l-71 -379h-60zM36 25q0 19 13 32.5t33 13.5q16 0 26.5 -10.5t10.5 -26.5q0 -20 -13.5 -33t-33.5 -13q-16 0 -26 10.5t-10 26.5z" />
    <glyph glyph-name="exclamdown.sc" unicode="&#xe286;" horiz-adv-x="219" 
d="M163 379l-71 -379h-60l71 379h60zM196 507q0 -20 -13 -33t-32 -13q-17 0 -27 10.5t-10 26.5q0 19 13 32.5t32 13.5q16 0 26.5 -10.5t10.5 -26.5z" />
    <glyph glyph-name="question.sc" unicode="&#xe287;" horiz-adv-x="362" 
d="M111 153l4 22q8 42 35 76.5t54 53.5t49 47.5t22 60.5q0 34 -22.5 55.5t-57.5 21.5q-59 0 -122 -46l12 63q61 37 124 37q57 0 93.5 -36t36.5 -89q0 -35 -15 -64.5t-37.5 -50.5t-45.5 -40t-43 -44.5t-26 -53.5l-3 -13h-58zM81 25q0 19 13.5 32.5t32.5 13.5q16 0 26 -10.5
t10 -26.5q0 -20 -13 -33t-32 -13q-16 0 -26.5 10t-10.5 27z" />
    <glyph glyph-name="questiondown.sc" unicode="&#xe288;" horiz-adv-x="362" 
d="M256 379l-4 -22q-7 -42 -34 -76.5t-54 -54t-49 -48t-22 -60.5q0 -33 22.5 -55t57.5 -22q57 0 121 47l-11 -64q-62 -36 -125 -36q-56 0 -93 36t-37 88q0 35 15.5 64.5t38.5 50.5t47 40t43.5 44.5t24.5 54.5l2 13h57zM287 507q0 -19 -13.5 -32.5t-32.5 -13.5
q-16 0 -26.5 10.5t-10.5 26.5q0 20 13 33t33 13q16 0 26.5 -10.5t10.5 -26.5z" />
    <glyph glyph-name="slash.sc" unicode="&#xe289;" horiz-adv-x="313" 
d="M-22 -72l297 677h64l-297 -677h-64z" />
    <glyph glyph-name="backslash.sc" unicode="&#xe28a;" horiz-adv-x="313" 
d="M193 -72l-130 677h60l129 -677h-59z" />
    <glyph glyph-name="parenleft.sc" unicode="&#xe28b;" horiz-adv-x="268" 
d="M63 195q0 118 47 224t136 185h74q-95 -78 -145.5 -182.5t-50.5 -221.5q0 -142 65 -272h-61q-65 132 -65 267z" />
    <glyph glyph-name="parenright.sc" unicode="&#xe28c;" horiz-adv-x="268" 
d="M210 337q0 -119 -47 -224.5t-136 -184.5h-73q94 78 144.5 182t50.5 221q0 142 -64 273h61q64 -133 64 -267z" />
    <glyph glyph-name="bracketleft.sc" unicode="&#xe28d;" horiz-adv-x="268" 
d="M30 -72l127 676h144l-8 -48h-84l-109 -580h83l-9 -48h-144z" />
    <glyph glyph-name="bracketright.sc" unicode="&#xe28e;" horiz-adv-x="268" 
d="M244 604l-127 -676h-145l9 48h84l108 580h-84l10 48h145z" />
    <glyph glyph-name="braceleft.sc" unicode="&#xe28f;" horiz-adv-x="268" 
d="M301 604l-8 -48h-13q-31 0 -52 -17.5t-26 -48.5l-26 -138q-12 -67 -82 -88q49 -17 49 -77q0 -4 -0.5 -8.5t-1.5 -10t-1 -8.5l-21 -108q-2 -14 -2 -22q0 -25 15 -39.5t41 -14.5h10l-9 -48h-14q-48 0 -76 26t-28 71q0 15 3 30l21 109q0 1 1.5 11t1.5 15q0 22 -14 36.5
t-36 14.5h-9l10 49h8q26 0 47 20.5t28 54.5l26 138q9 46 46 73.5t91 27.5h21z" />
    <glyph glyph-name="braceright.sc" unicode="&#xe290;" horiz-adv-x="268" 
d="M-28 -72l9 48h13q31 0 51.5 17.5t26.5 48.5l25 137q13 69 83 88q-49 19 -49 78q0 13 3 27l19 107q3 12 3 23q0 25 -15 39.5t-40 14.5h-12l10 48h14q49 0 76.5 -26t27.5 -71q0 -15 -3 -31l-20 -108q0 -1 -1.5 -11t-1.5 -15q0 -22 14 -37t35 -15h8l-8 -49h-8
q-27 0 -47.5 -20t-27.5 -54l-27 -139q-9 -47 -45.5 -73.5t-91.5 -26.5h-21z" />
    <glyph glyph-name="ampersand.sc" unicode="&#xe291;" horiz-adv-x="485" 
d="M490 293l-9 -47h-96l-41 -220q-76 -38 -158 -38q-64 0 -110 39.5t-46 95.5t37 99t97 56q-33 16 -51.5 45.5t-18.5 65.5q0 66 49 110.5t122 44.5q62 0 127 -34l-10 -54q-55 36 -113 36q-49 0 -80.5 -29.5t-31.5 -74.5q0 -40 30.5 -67.5t76.5 -27.5h226zM93 129
q0 -38 29.5 -64t73.5 -26q43 0 93 21l34 186h-77q-68 0 -110.5 -32.5t-42.5 -84.5z" />
    <glyph glyph-name="at.sc" unicode="&#xe292;" horiz-adv-x="763" 
d="M556 435l-45 -241q-2 -8 -2 -16q0 -17 11.5 -27.5t29.5 -10.5q49 0 85.5 59t36.5 145q0 102 -67 164.5t-173 62.5q-142 0 -234.5 -103.5t-92.5 -258.5q0 -111 67.5 -179.5t178.5 -68.5q84 0 177 48l-9 -53q-86 -42 -173 -42q-134 0 -216.5 80.5t-82.5 209.5
q0 180 110 297t281 117q126 0 208 -76t82 -193q0 -109 -55.5 -184.5t-134.5 -75.5q-56 0 -80 44q-50 -44 -108 -44q-53 0 -87.5 37.5t-34.5 96.5q0 95 49.5 157.5t124.5 62.5q50 0 91 -35l5 27h58zM289 232q0 -43 20.5 -68t56.5 -25q43 0 84 39l35 183q-35 32 -77 32
q-51 0 -85 -46.5t-34 -114.5z" />
    <glyph glyph-name="zero.sc" unicode="&#xe300;" horiz-adv-x="491" 
d="M53 183q0 153 67.5 257t169.5 104q71 0 112.5 -52.5t41.5 -142.5q0 -153 -68 -257t-170 -104q-71 0 -112 52.5t-41 142.5zM116 191q0 -69 26 -110t69 -41q70 0 120 89.5t50 211.5q0 69 -26 109.5t-70 40.5q-69 0 -119 -89t-50 -211z" />
    </font>
</defs>
</svg>
