<?xml version="1.0" standalone="no"?>
<!DOCTYPE svg PUBLIC "-//W3C//DTD SVG 1.1//EN" "http://www.w3.org/Graphics/SVG/1.1/DTD/svg11.dtd" >
<svg xmlns="http://www.w3.org/2000/svg" xmlns:xlink="http://www.w3.org/1999/xlink" version="1.1">
<metadata>
Created by FontForge 20170731 at Tue Mar 22 14:33:36 2011
 By Aleksey,,,
Copyright 2010 Monotype Imaging Inc. All rights reserved. Designed by Nick Job.
</metadata>
<defs>
<font id="CamphorPro-BoldItalic" horiz-adv-x="563" >
  <font-face 
    font-family="Camphor Pro"
    font-weight="700"
    font-style="italic"
    font-stretch="normal"
    units-per-em="1000"
    panose-1="2 11 8 4 3 4 4 9 2 4"
    ascent="800"
    descent="-200"
    x-height="500"
    cap-height="688"
    bbox="-277 -250 1194 938"
    underline-thickness="62"
    underline-position="-249"
    slope="-10"
    unicode-range="U+0020-FB04"
  />
<missing-glyph horiz-adv-x="500" 
d="M12 0v665h475v-665h-475zM88 618l162 -243l161 243h-323zM60 575v-484l40 61l80 120l41 61zM440 575l-162 -242l162 -243v485zM411 48l-161 242l-162 -242h323z" />
    <glyph glyph-name="IJ" unicode="IJ" horiz-adv-x="785" 
d="M43 0l129 688h131l-130 -688h-130zM782 688l-96 -512q-16 -88 -76 -138t-149 -50q-77 0 -156 40l21 107q59 -37 117 -37q45 0 76 26.5t39 71.5l92 492h132z" />
    <glyph glyph-name="ij" unicode="ij" horiz-adv-x="536" 
d="M23 0l94 500h128l-94 -500h-128zM133 631q0 34 23 57t57 23q29 0 47 -18.5t18 -46.5q0 -34 -23.5 -57t-57.5 -23q-28 0 -46 18t-18 47zM513 500l-109 -582q-14 -71 -60 -110t-116 -39q-55 0 -119 28l20 101q41 -22 76 -22q29 0 49.5 17t25.5 45l105 562h128zM401 631
q0 34 23 57t57 23q29 0 47 -18.5t18 -46.5q0 -34 -23.5 -57t-57.5 -23q-28 0 -46 18t-18 47z" />
    <glyph glyph-name="napostrophe" unicode="&#x27;n" horiz-adv-x="727" 
d="M178 0l94 500h123l-8 -44q71 56 146 56q63 0 104 -41t41 -104q0 -27 -6 -56l-58 -311h-128l56 303q4 20 4 30q0 31 -18.5 49t-50.5 18q-51 0 -106 -52l-65 -348h-128zM26 446l133 242h129l-148 -242h-114z" />
    <glyph glyph-name="f_b" unicode="fb" horiz-adv-x="914" 
d="M31 -141l100 538h-85l19 103h86l9 52q14 81 76 130t149 49q115 0 233 -67l-36 -193q56 41 119 41q80 0 130 -56.5t50 -146.5q0 -138 -73 -229.5t-183 -91.5q-64 0 -126 45l-6 -33h-128l114 605q-43 22 -88 22q-41 0 -69 -22.5t-35 -60.5l-8 -44h125l-18 -103h-127
l-100 -538h-128zM750 293q0 52 -24 80.5t-68 28.5q-49 0 -98 -46l-42 -221q43 -37 90 -37q61 0 101.5 55.5t40.5 139.5z" />
    <glyph glyph-name="f_f_b" unicode="ffb" horiz-adv-x="1222" 
d="M31 -141l100 538h-85l19 103h86l15 83q13 70 59 109t116 39q58 0 119 -28l-19 -100q-41 21 -77 21q-28 0 -48.5 -17t-25.5 -45l-11 -62h180l10 52q16 82 77 130.5t147 48.5q117 0 233 -67l-36 -193q58 41 120 41q80 0 130 -56.5t50 -146.5q0 -138 -73 -229.5t-183 -91.5
q-65 0 -126 45l-7 -33h-128l114 605q-43 22 -88 22q-41 0 -69 -22.5t-35 -60.5l-8 -44h126l-20 -103h-125l-102 -538h-128l101 538h-180l-100 -538h-128zM1059 293q0 52 -24.5 80.5t-68.5 28.5q-49 0 -98 -46l-41 -221q42 -37 89 -37q61 0 102 55.5t41 139.5z" />
    <glyph glyph-name="f_h" unicode="fh" horiz-adv-x="914" 
d="M31 -141l100 538h-85l19 103h86l9 52q14 82 75.5 130.5t149.5 48.5q115 0 233 -67l-39 -204q69 52 141 52q63 0 104 -41t41 -104q0 -27 -6 -56l-58 -311h-128l56 303q4 20 4 30q0 31 -18.5 49t-50.5 18q-51 0 -105 -52l-66 -348h-128l114 605q-43 22 -88 22
q-41 0 -69 -22.5t-35 -60.5l-8 -44h125l-18 -103h-127l-100 -538h-128z" />
    <glyph glyph-name="f_f_h" unicode="ffh" horiz-adv-x="1222" 
d="M31 -141l100 538h-85l19 103h86l15 83q13 70 59 109t116 39q58 0 119 -28l-19 -100q-41 21 -77 21q-28 0 -48.5 -17t-25.5 -45l-11 -62h180l10 52q15 82 76 130.5t148 48.5q117 0 233 -67l-38 -204q67 52 140 52q63 0 104.5 -41t41.5 -104q0 -27 -6 -56l-59 -311h-128
l57 303l3 30q0 31 -18.5 49t-50.5 18q-50 0 -105 -52l-66 -348h-128l114 605q-43 22 -88 22q-41 0 -69 -22.5t-35 -60.5l-8 -44h126l-20 -103h-125l-102 -538h-128l101 538h-180l-100 -538h-128z" />
    <glyph glyph-name="f_j" unicode="fj" horiz-adv-x="610" 
d="M46 397l19 103h86l9 52q14 82 73.5 130.5t143.5 48.5q75 0 157 -40l-19 -102q-65 38 -123 38q-41 0 -70 -22.5t-36 -62.5l-7 -42h308l-104 -551q-16 -83 -76.5 -131.5t-147.5 -48.5q-113 0 -233 67l105 561h-85zM259 397l-94 -501q44 -23 88 -23q41 0 69 23t35 61l82 440
h-180z" />
    <glyph glyph-name="f_f_j" unicode="ffj" horiz-adv-x="918" 
d="M31 -141l100 538h-85l19 103h86l15 83q13 70 59 109t116 39q58 0 119 -28l-19 -100q-41 21 -77 21q-29 0 -49 -17t-25 -45l-11 -62h180l10 52q15 82 73.5 130.5t142.5 48.5q75 0 158 -40l-19 -102q-67 38 -124 38q-42 0 -70 -22.5t-35 -62.5l-8 -42h308l-103 -551
q-16 -82 -77 -131t-148 -49q-114 0 -233 67l105 561h-180l-100 -538h-128zM568 397l-94 -501q43 -23 87 -23q41 0 69 23t35 61l83 440h-180z" />
    <glyph glyph-name="f_k" unicode="fk" horiz-adv-x="849" 
d="M31 -141l100 538h-85l19 103h86l9 52q14 82 75.5 130.5t149.5 48.5q117 0 230 -67l-65 -349l183 185h154l-251 -249l165 -251h-143l-129 204l-38 -204h-126l114 605q-43 22 -88 22q-41 0 -69 -22.5t-35 -60.5l-8 -44h125l-18 -103h-127l-100 -538h-128z" />
    <glyph glyph-name="f_f_k" unicode="ffk" horiz-adv-x="1158" 
d="M31 -141l100 538h-85l19 103h86l15 83q13 70 59 109t116 39q58 0 119 -28l-19 -100q-41 21 -77 21q-28 0 -48.5 -17t-25.5 -45l-11 -62h180l10 52q15 82 76 130.5t148 48.5q116 0 231 -67l-66 -349l183 185h153l-250 -249l164 -251h-142l-129 204l-38 -204h-126l114 605
q-43 22 -88 22q-41 0 -69 -22.5t-35 -60.5l-8 -44h126l-20 -103h-125l-102 -538h-128l101 538h-180l-100 -538h-128z" />
    <glyph glyph-name="f_t" unicode="ft" horiz-adv-x="723" 
d="M31 -141l100 538h-85l19 103h86l9 52q14 82 75.5 130.5t149.5 48.5q115 0 233 -67l-31 -164h144l-19 -103h-144l-43 -222q-2 -20 -2 -29q0 -24 15 -37.5t41 -13.5q35 0 80 20l-20 -110q-47 -17 -101 -17q-67 0 -107 36t-40 97q0 13 4 37l44 239h-180l-100 -538h-128z
M279 500h180l20 105q-43 22 -88 22q-41 0 -69 -22.5t-35 -60.5z" />
    <glyph glyph-name="f_f_t" unicode="fft" horiz-adv-x="1032" 
d="M31 -141l100 538h-85l19 103h86l15 83q13 70 59 109t116 39q58 0 119 -28l-19 -100q-41 21 -77 21q-28 0 -48.5 -17t-25.5 -45l-11 -62h180l10 52q15 82 76 130.5t148 48.5q117 0 233 -67l-31 -164h144l-19 -103h-144l-42 -222q-4 -20 -4 -29q0 -24 15.5 -37.5
t42.5 -13.5q34 0 79 20l-20 -110q-45 -17 -101 -17q-67 0 -106.5 36t-39.5 97q0 19 3 37l45 239h-180l-102 -538h-128l101 538h-180l-100 -538h-128zM587 500h180l20 105q-43 22 -88 22q-41 0 -69 -22.5t-35 -60.5z" />
    <glyph glyph-name="f_thorn" unicode="f&#xfe;" horiz-adv-x="914" 
d="M31 -141l100 538h-85l19 103h86l9 52q14 81 76 130t149 49q115 0 233 -67l-36 -193q56 41 119 41q80 0 130 -56.5t50 -146.5q0 -138 -73 -229.5t-183 -91.5q-64 0 -126 45l-47 -252h-128l155 824q-43 22 -88 22q-41 0 -69 -22.5t-35 -60.5l-8 -44h125l-18 -103h-127
l-100 -538h-128zM750 293q0 52 -24 80.5t-68 28.5q-49 0 -98 -46l-42 -221q43 -37 90 -37q61 0 101.5 55.5t40.5 139.5z" />
    <glyph glyph-name="f_f_thorn" unicode="ff&#xfe;" horiz-adv-x="1222" 
d="M31 -141l100 538h-85l19 103h86l15 83q13 70 59 109t116 39q58 0 119 -28l-19 -100q-41 21 -77 21q-28 0 -48.5 -17t-25.5 -45l-11 -62h180l10 52q16 82 77 130.5t147 48.5q117 0 233 -67l-36 -193q58 41 120 41q80 0 130 -56.5t50 -146.5q0 -138 -73 -229.5t-183 -91.5
q-65 0 -126 45l-48 -252h-128l155 824q-43 22 -88 22q-41 0 -69 -22.5t-35 -60.5l-8 -44h126l-20 -103h-125l-102 -538h-128l101 538h-180l-100 -538h-128zM1059 293q0 52 -24.5 80.5t-68.5 28.5q-49 0 -98 -46l-41 -221q42 -37 89 -37q61 0 102 55.5t41 139.5z" />
    <glyph glyph-name="f_f" unicode="ff" horiz-adv-x="684" 
d="M31 -141l100 538h-85l19 103h86l15 83q13 70 59 109t116 39q58 0 119 -28l-19 -100q-41 21 -77 21q-29 0 -49 -17t-25 -45l-11 -62h180l16 83q13 70 59 109t116 39q57 0 118 -28l-19 -100q-39 21 -76 21q-29 0 -49.5 -17t-25.5 -45l-11 -62h126l-20 -103h-125l-102 -538
h-128l101 538h-180l-100 -538h-128z" />
    <glyph glyph-name="fi" unicode="fi" horiz-adv-x="610" 
d="M31 -141l100 538h-85l19 103h86l9 52q16 82 74.5 130.5t142.5 48.5q75 0 157 -40l-19 -102q-65 38 -123 38q-41 0 -70 -22.5t-36 -62.5l-7 -42h308l-94 -500h-128l74 397h-180l-100 -538h-128z" />
    <glyph glyph-name="fl" unicode="fl" horiz-adv-x="610" 
d="M31 -141l100 538h-85l19 103h86l9 52q14 82 75.5 130.5t149.5 48.5q115 0 233 -67l-125 -664h-128l114 605q-43 22 -88 22q-41 0 -69 -22.5t-35 -60.5l-8 -44h125l-18 -103h-127l-100 -538h-128z" />
    <glyph glyph-name="f_f_i" unicode="ffi" horiz-adv-x="918" 
d="M31 -141l100 538h-85l19 103h86l15 83q13 70 59 109t116 39q58 0 119 -28l-19 -100q-41 21 -77 21q-29 0 -49 -17t-25 -45l-11 -62h180l10 52q15 82 73.5 130.5t142.5 48.5q75 0 158 -40l-19 -102q-67 38 -125 38q-41 0 -68.5 -22.5t-35.5 -62.5l-8 -42h308l-94 -500
h-128l75 397h-180l-102 -538h-128l101 538h-180l-100 -538h-128z" />
    <glyph glyph-name="f_f_l" unicode="ffl" horiz-adv-x="918" 
d="M31 -141l100 538h-85l19 103h86l15 83q13 70 59 109t116 39q58 0 119 -28l-19 -100q-41 21 -77 21q-28 0 -48.5 -17t-25.5 -45l-11 -62h180l10 52q15 82 76 130.5t148 48.5q117 0 233 -67l-125 -664h-128l114 605q-43 22 -88 22q-41 0 -69 -22.5t-35 -60.5l-8 -44h126
l-20 -103h-125l-102 -538h-128l101 538h-180l-100 -538h-128z" />
    <glyph glyph-name=".notdef" horiz-adv-x="500" 
d="M12 0v665h475v-665h-475zM88 618l162 -243l161 243h-323zM60 575v-484l40 61l80 120l41 61zM440 575l-162 -242l162 -243v485zM411 48l-161 242l-162 -242h323z" />
    <glyph glyph-name=".null" horiz-adv-x="0" 
 />
    <glyph glyph-name="nonmarkingreturn" horiz-adv-x="333" 
 />
    <glyph glyph-name="space" unicode=" " horiz-adv-x="250" 
 />
    <glyph glyph-name="exclam" unicode="!" horiz-adv-x="293" 
d="M75 209l89 479h129l-90 -479h-128zM36 57q0 36 24.5 60t60.5 24q30 0 49 -19t19 -49q0 -36 -24 -60.5t-60 -24.5q-30 0 -49.5 19.5t-19.5 49.5z" />
    <glyph glyph-name="quotedbl" unicode="&#x22;" horiz-adv-x="439" 
d="M292 431l49 257h109l-47 -257h-111zM104 431l47 257h111l-49 -257h-109z" />
    <glyph glyph-name="numbersign" unicode="#" 
d="M-16 167l21 110h93l42 134h-80l21 110h94l52 167h114l-52 -167h130l52 167h115l-52 -167h80l-21 -110h-94l-42 -134h80l-20 -110h-94l-52 -167h-115l52 167h-129l-52 -167h-115l52 167h-80zM255 411l-42 -134h129l43 134h-130z" />
    <glyph glyph-name="dollar" unicode="$" 
d="M156 -125l28 150q-63 10 -133 46l22 113q87 -60 172 -60q47 0 77.5 24t30.5 62q0 29 -24 51t-58.5 39t-68.5 37t-58 56t-24 85q0 75 50 125t134 62l28 148h110l-28 -150q61 -11 117 -40l-21 -111q-82 52 -157 52q-46 0 -74 -22.5t-28 -57.5q0 -27 24 -48t58.5 -37.5
t69 -37t58.5 -57.5t24 -88q0 -78 -52 -130t-139 -63l-27 -148h-111z" />
    <glyph glyph-name="percent" unicode="%" horiz-adv-x="845" 
d="M450 128q0 97 58 162.5t144 65.5q64 0 105.5 -39t41.5 -101q0 -97 -58 -162.5t-144 -65.5q-64 0 -105.5 39t-41.5 101zM539 138q0 -35 18.5 -56t48.5 -21q44 0 74 42.5t30 102.5q0 35 -18.5 56t-48.5 21q-44 0 -74 -42.5t-30 -102.5zM81 475q0 97 58 161t144 64
q64 0 105 -40.5t41 -102.5q0 -97 -57.5 -161t-143.5 -64q-64 0 -105.5 40.5t-41.5 102.5zM170 485q0 -35 18 -57t49 -22q43 0 73 41t30 100q0 36 -18 58t-48 22q-44 0 -74 -41t-30 -101zM67 0l641 688h105l-641 -688h-105z" />
    <glyph glyph-name="ampersand" unicode="&#x26;" horiz-adv-x="645" 
d="M661 399l-19 -99h-119l-48 -258q-109 -54 -227 -54q-91 0 -152 51.5t-61 127.5q0 67 42.5 120t113.5 75q-37 21 -58 56t-21 76q0 88 67.5 147t168.5 59q83 0 171 -40l-20 -109q-69 42 -137 42q-52 0 -86.5 -30t-34.5 -75q0 -39 30.5 -64t78.5 -25h311zM167 185
q0 -39 30 -64.5t74 -25.5q41 0 91 21l35 184h-79q-67 0 -109 -32t-42 -83z" />
    <glyph glyph-name="quotesingle" unicode="'" horiz-adv-x="250" 
d="M104 431l47 257h111l-49 -257h-109z" />
    <glyph glyph-name="parenleft" unicode="(" horiz-adv-x="334" 
d="M57 193q0 149 58.5 284.5t170.5 241.5h148q-121 -102 -186 -235.5t-65 -282.5q0 -193 82 -357h-124q-84 170 -84 349z" />
    <glyph glyph-name="parenright" unicode=")" horiz-adv-x="334" 
d="M285 370q0 -149 -58.5 -284.5t-170.5 -241.5h-148q122 102 187 236t65 283q0 190 -83 356h123q85 -167 85 -349z" />
    <glyph glyph-name="asterisk" unicode="*" horiz-adv-x="459" 
d="M482 430h-141l44 -135l-95 -31l-44 135l-114 -84l-58 81l114 83l-114 83l58 81l114 -83l44 134l95 -31l-44 -134h141v-99z" />
    <glyph glyph-name="plus" unicode="+" 
d="M37 226v111h195v195h111v-195h195v-111h-195v-195h-111v195h-195z" />
    <glyph glyph-name="comma" unicode="," horiz-adv-x="250" 
d="M-89 -125l132 242h131l-149 -242h-114z" />
    <glyph glyph-name="hyphen" unicode="-" horiz-adv-x="313" 
d="M19 203l20 103h255l-20 -103h-255z" />
    <glyph glyph-name="period" unicode="." horiz-adv-x="250" 
d="M15 57q0 36 24 60t61 24q29 0 48.5 -19t19.5 -49q0 -36 -24 -60.5t-61 -24.5q-30 0 -49 19.5t-19 49.5z" />
    <glyph glyph-name="slash" unicode="/" horiz-adv-x="375" 
d="M-64 -156l380 875h135l-381 -875h-134z" />
    <glyph glyph-name="zero" unicode="0" 
d="M35 240q0 196 91.5 328t227.5 132q98 0 153.5 -66.5t55.5 -184.5q0 -197 -91.5 -329t-227.5 -132q-98 0 -153.5 67t-55.5 185zM164 251q0 -71 25 -112t67 -41q74 0 126.5 99.5t52.5 239.5q0 71 -25.5 112t-67.5 41q-74 0 -126 -99.5t-52 -239.5z" />
    <glyph glyph-name="one" unicode="1" 
d="M219 0l102 544l-183 -79l23 121l234 102h85l-129 -688h-132z" />
    <glyph glyph-name="two" unicode="2" 
d="M6 0l17 88q175 117 271 221t96 181q0 45 -26 71t-70 26q-86 0 -174 -61l23 124q91 50 186 50q88 0 141.5 -49.5t53.5 -129.5q0 -181 -311 -411h247l-20 -110h-434z" />
    <glyph glyph-name="three" unicode="3" 
d="M194 299l19 101h36q62 0 102.5 31.5t40.5 79.5q0 36 -27.5 59t-70.5 23q-76 0 -160 -46l22 118q82 35 166 35q87 0 142.5 -47t55.5 -120q0 -64 -39 -114.5t-103 -70.5q47 -17 74 -55.5t27 -88.5q0 -94 -74.5 -155t-188.5 -61q-101 0 -193 55l21 113q84 -61 167 -61
q58 0 97 32t39 79q0 42 -33 67.5t-86 25.5h-34z" />
    <glyph glyph-name="four" unicode="4" 
d="M267 0l33 171h-298l18 93l389 424h111l-78 -418h101l-18 -99h-102l-32 -171h-124zM146 270h172l44 235z" />
    <glyph glyph-name="five" unicode="5" 
d="M538 688l-21 -110h-249l-28 -151q27 3 50 3q88 0 144 -53.5t56 -136.5q0 -110 -80 -181t-204 -71q-88 0 -172 48l22 116q76 -54 150 -54q65 0 108.5 36.5t43.5 92.5q0 47 -35.5 77t-92.5 30q-53 0 -125 -16l70 370h363z" />
    <glyph glyph-name="six" unicode="6" 
d="M341 688h179q-202 -132 -289 -270q51 27 109 27q80 0 133.5 -55.5t53.5 -139.5q0 -111 -77.5 -186.5t-192.5 -75.5q-94 0 -155 61t-61 160q0 123 78.5 248.5t221.5 230.5zM182 290q-14 -39 -14 -76q0 -52 28 -84t73 -32q55 0 93.5 41t38.5 99q0 44 -28 72t-72 28
q-62 0 -119 -48z" />
    <glyph glyph-name="seven" unicode="7" 
d="M57 0l351 578h-299l20 110h449l-15 -82l-364 -606h-142z" />
    <glyph glyph-name="eight" unicode="8" 
d="M103 487q0 91 72.5 152t180.5 61q86 0 142.5 -48t56.5 -122q0 -62 -34.5 -109t-98.5 -72q43 -19 67 -56t24 -84q0 -95 -76.5 -158t-194.5 -63q-90 0 -151 50.5t-61 124.5q0 67 40.5 119t109.5 73q-36 19 -56.5 54t-20.5 78zM156 179q0 -38 28 -63.5t70 -25.5
q58 0 95.5 34t37.5 87q0 39 -28.5 64t-70.5 25q-58 0 -95 -34t-37 -87zM224 484q0 -37 25 -60.5t65 -23.5q51 0 85.5 32.5t34.5 80.5q0 38 -25 61.5t-65 23.5q-51 0 -85.5 -32.5t-34.5 -81.5z" />
    <glyph glyph-name="nine" unicode="9" 
d="M257 0h-179q207 138 289 270q-54 -27 -108 -27q-80 0 -134 56t-54 139q0 112 77.5 187t192.5 75q94 0 155 -61t61 -160q0 -123 -78.5 -248.5t-221.5 -230.5zM416 398q15 38 15 76q0 52 -28.5 84t-72.5 32q-55 0 -93.5 -40.5t-38.5 -98.5q0 -44 27.5 -72.5t71.5 -28.5
q63 0 119 48z" />
    <glyph glyph-name="colon" unicode=":" horiz-adv-x="250" 
d="M15 57q0 36 24 60t61 24q29 0 48.5 -19t19.5 -49q0 -36 -24 -60.5t-61 -24.5q-30 0 -49 19.5t-19 49.5zM82 428q0 36 24.5 60t60.5 24q31 0 49.5 -19t18.5 -50q0 -36 -24 -60t-60 -24q-30 0 -49.5 19t-19.5 50z" />
    <glyph glyph-name="semicolon" unicode=";" horiz-adv-x="250" 
d="M-89 -125l132 242h131l-149 -242h-114zM82 428q0 36 24.5 60t60.5 24q31 0 49.5 -19t18.5 -50q0 -36 -24 -60t-60 -24q-30 0 -49.5 19t-19.5 50z" />
    <glyph glyph-name="less" unicode="&#x3c;" 
d="M538 23l-501 213v91l501 213v-119l-330 -139l330 -140v-119z" />
    <glyph glyph-name="equal" unicode="=" 
d="M37 121v109h501v-109h-501zM37 333v109h501v-109h-501z" />
    <glyph glyph-name="greater" unicode="&#x3e;" 
d="M37 540l501 -213v-91l-501 -213v119l330 140l-330 139v119z" />
    <glyph glyph-name="question" unicode="?" horiz-adv-x="454" 
d="M128 209l6 31q8 42 30 76.5t47 57.5t49.5 43.5t40.5 44.5t16 51q0 34 -22.5 54.5t-59.5 20.5q-69 0 -149 -56l24 126q74 42 163 42q79 0 128.5 -46.5t49.5 -121.5q0 -43 -18 -80.5t-45 -65t-55 -52t-50.5 -52.5t-28.5 -55l-4 -18h-122zM94 57q0 36 24.5 60t60.5 24
q31 0 50 -19t19 -49q0 -36 -24.5 -60.5t-60.5 -24.5q-30 0 -49.5 19.5t-19.5 49.5z" />
    <glyph glyph-name="at" unicode="@" horiz-adv-x="975" 
d="M728 469l-52 -283q-3 -9 -3 -18q0 -17 11 -27.5t29 -10.5q50 0 85.5 61.5t35.5 150.5q0 117 -79 187t-209 70q-169 0 -283 -120t-114 -296q0 -128 81.5 -205t217.5 -77q112 0 235 59l-21 -111q-113 -49 -224 -49q-178 0 -289.5 103.5t-111.5 269.5q0 228 147 377.5
t371 149.5q171 0 281.5 -96.5t110.5 -248.5q0 -143 -77 -238t-191 -95q-80 0 -116 48q-60 -48 -138 -48q-69 0 -113 50t-44 128q0 120 64.5 199.5t160.5 79.5q58 0 108 -37l4 27h123zM394 215q0 -42 20 -65t56 -23q41 0 78 35l34 182q-35 30 -71 30q-50 0 -83.5 -45.5
t-33.5 -113.5z" />
    <glyph glyph-name="A" unicode="A" horiz-adv-x="642" 
d="M-38 0l390 688h109l134 -688h-121l-29 165h-258l-90 -165h-135zM384 524l-143 -261h188z" />
    <glyph glyph-name="B" unicode="B" horiz-adv-x="615" 
d="M225 300l-38 -199h113q56 0 92.5 32.5t36.5 83.5q0 39 -26 61t-70 22h-108zM43 0l129 688h231q85 0 136.5 -43.5t51.5 -115.5q0 -60 -33.5 -108.5t-89.5 -71.5q42 -16 66.5 -52t24.5 -82q0 -92 -74 -153.5t-186 -61.5h-256zM278 587l-35 -188h99q54 0 88.5 31t34.5 79
q0 35 -25 56.5t-66 21.5h-96z" />
    <glyph glyph-name="C" unicode="C" horiz-adv-x="614" 
d="M56 269q0 188 109 309.5t277 121.5q104 0 201 -59l-22 -113q-86 62 -171 62q-113 0 -186.5 -86t-73.5 -219q0 -85 49 -136t131 -51q88 0 180 54l-21 -121q-87 -43 -193 -43q-122 0 -201 79.5t-79 201.5z" />
    <glyph glyph-name="D" unicode="D" horiz-adv-x="705" 
d="M43 0l128 688h226q128 0 207.5 -74.5t79.5 -193.5q0 -191 -106.5 -305.5t-285.5 -114.5h-249zM282 581l-88 -474h107q109 0 179 84.5t70 217.5q0 80 -46.5 126t-128.5 46h-93z" />
    <glyph glyph-name="E" unicode="E" horiz-adv-x="556" 
d="M43 0l129 688h408l-19 -107h-278l-33 -179h237l-18 -105h-239l-36 -190h285l-20 -107h-416z" />
    <glyph glyph-name="F" unicode="F" horiz-adv-x="532" 
d="M43 0l129 688h408l-19 -107h-279l-37 -201h238l-20 -107h-238l-52 -273h-130z" />
    <glyph glyph-name="G" unicode="G" horiz-adv-x="685" 
d="M644 371l-63 -335q-120 -48 -234 -48q-128 0 -209.5 79t-81.5 202q0 189 110.5 310t283.5 121q109 0 215 -66l-22 -115q-93 71 -188 71q-116 0 -191.5 -86t-75.5 -219q0 -83 49.5 -135t129.5 -52q52 0 106 20l30 154h-140l19 99h262z" />
    <glyph glyph-name="H" unicode="H" horiz-adv-x="736" 
d="M43 0l129 688h131l-53 -285h294l54 285h131l-129 -688h-132l56 297h-295l-56 -297h-130z" />
    <glyph glyph-name="I" unicode="I" horiz-adv-x="310" 
d="M43 0l129 688h131l-130 -688h-130z" />
    <glyph glyph-name="J" unicode="J" horiz-adv-x="475" 
d="M472 688l-96 -512q-16 -88 -76 -138t-149 -50q-77 0 -156 40l21 107q59 -37 117 -37q45 0 76 26.5t39 71.5l92 492h132z" />
    <glyph glyph-name="K" unicode="K" horiz-adv-x="635" 
d="M43 0l129 688h128l-52 -281l295 281h165l-364 -343l246 -345h-149l-213 302l-57 -302h-128z" />
    <glyph glyph-name="L" unicode="L" horiz-adv-x="506" 
d="M43 0l129 688h131l-109 -581h267l-20 -107h-398z" />
    <glyph glyph-name="M" unicode="M" horiz-adv-x="825" 
d="M43 0l129 688h107l151 -304l263 304h124l-129 -688h-123l90 478l-206 -240h-74l-120 242l-89 -480h-123z" />
    <glyph glyph-name="N" unicode="N" horiz-adv-x="736" 
d="M43 0l129 688h107l237 -480l89 480h124l-129 -688h-108l-237 480l-89 -480h-123z" />
    <glyph glyph-name="O" unicode="O" horiz-adv-x="736" 
d="M56 268q0 189 107.5 310.5t274.5 121.5q125 0 201.5 -77t76.5 -203q0 -189 -108 -310.5t-275 -121.5q-124 0 -200.5 77.5t-76.5 202.5zM190 279q0 -82 42.5 -131.5t112.5 -49.5q98 0 167 90.5t69 220.5q0 82 -42 131.5t-113 49.5q-97 0 -166.5 -90.5t-69.5 -220.5z" />
    <glyph glyph-name="P" unicode="P" horiz-adv-x="601" 
d="M43 0l129 688h224q96 0 153 -51t57 -137q0 -108 -82 -180.5t-204 -72.5h-103l-46 -247h-128zM281 584l-44 -233h85q67 0 109.5 38t42.5 98q0 45 -30 71t-82 26h-81z" />
    <glyph glyph-name="Q" unicode="Q" horiz-adv-x="736" 
d="M56 268q0 189 107.5 310.5t274.5 121.5q125 0 201.5 -77t76.5 -203q0 -124 -49 -222t-135 -153l106 -147h-141l-72 103q-47 -13 -92 -13q-124 0 -200.5 77.5t-76.5 202.5zM190 279q0 -82 42.5 -131.5t112.5 -49.5q98 0 167 90.5t69 220.5q0 82 -42 131.5t-113 49.5
q-97 0 -166.5 -90.5t-69.5 -220.5z" />
    <glyph glyph-name="R" unicode="R" horiz-adv-x="611" 
d="M398 0l-100 255h-79l-48 -255h-128l129 688h220q95 0 150.5 -49.5t55.5 -134.5q0 -80 -48.5 -143t-127.5 -88l111 -273h-135zM281 584l-43 -225h80q66 0 107 37.5t41 94.5q0 43 -29 68t-79 25h-77z" />
    <glyph glyph-name="S" unicode="S" horiz-adv-x="545" 
d="M23 46l21 114q97 -67 188 -67q56 0 91 27.5t35 72.5q0 34 -27 59.5t-65 44t-76.5 40.5t-65.5 61.5t-27 94.5q0 91 69.5 149t181.5 58q98 0 193 -52l-20 -111q-89 58 -173 58q-54 0 -88 -26t-34 -68q0 -33 27 -57t65.5 -42.5t77 -41t65.5 -63t27 -96.5q0 -94 -71 -153.5
t-185 -59.5q-102 0 -209 58z" />
    <glyph glyph-name="T" unicode="T" horiz-adv-x="584" 
d="M180 0l108 581h-201l20 107h535l-20 -107h-203l-108 -581h-131z" />
    <glyph glyph-name="U" unicode="U" horiz-adv-x="736" 
d="M732 688l-83 -451q-21 -115 -106.5 -182t-209.5 -67q-109 0 -179 61.5t-70 158.5q0 30 6 65l78 415h131l-77 -415q-5 -28 -5 -47q0 -57 35 -92.5t93 -35.5q67 0 114 42t60 112l82 436h131z" />
    <glyph glyph-name="V" unicode="V" horiz-adv-x="642" 
d="M715 688l-390 -688h-108l-135 688h127l87 -511l278 511h141z" />
    <glyph glyph-name="W" unicode="W" horiz-adv-x="1017" 
d="M1085 688l-358 -688h-115l-59 524l-253 -524h-115l-97 688h123l58 -524l254 524h115l58 -524l253 524h136z" />
    <glyph glyph-name="X" unicode="X" horiz-adv-x="653" 
d="M-40 0l305 355l-165 333h138l117 -245l196 245h152l-288 -343l170 -345h-141l-119 257l-209 -257h-156z" />
    <glyph glyph-name="Y" unicode="Y" horiz-adv-x="606" 
d="M184 0l55 292l-161 396h138l104 -284l209 284h157l-317 -408l-53 -280h-132z" />
    <glyph glyph-name="Z" unicode="Z" horiz-adv-x="620" 
d="M-7 0l16 88l449 493h-338l21 107h505l-17 -88l-448 -493h362l-19 -107h-531z" />
    <glyph glyph-name="bracketleft" unicode="[" horiz-adv-x="334" 
d="M9 -156l164 875h224l-19 -98h-100l-128 -679h101l-19 -98h-223z" />
    <glyph glyph-name="backslash" unicode="\" horiz-adv-x="375" 
d="M155 719l283 -875h-134l-284 875h135z" />
    <glyph glyph-name="bracketright" unicode="]" horiz-adv-x="334" 
d="M337 719l-164 -875h-223l18 98h100l128 679h-100l18 98h223z" />
    <glyph glyph-name="asciicircum" unicode="^" 
d="M40 188l213 500h92l213 -500h-120l-139 329l-139 -329h-120z" />
    <glyph glyph-name="underscore" unicode="_" horiz-adv-x="500" 
d="M-81 -177l19 103h501l-20 -103h-500z" />
    <glyph glyph-name="grave" unicode="`" horiz-adv-x="250" 
d="M156 557l-96 162h110l80 -162h-94z" />
    <glyph glyph-name="a" unicode="a" horiz-adv-x="572" 
d="M549 500l-94 -500h-122l6 33q-64 -45 -127 -45q-80 0 -130 56.5t-50 147.5q0 137 73.5 228.5t183.5 91.5q66 0 125 -45l7 33h128zM164 208q0 -52 24.5 -81t67.5 -29q49 0 98 47l41 220q-40 37 -89 37q-61 0 -101.5 -55t-40.5 -139z" />
    <glyph glyph-name="b" unicode="b" horiz-adv-x="572" 
d="M23 0l135 719h128l-46 -248q58 41 120 41q80 0 130 -56.5t50 -146.5q0 -138 -73.5 -229.5t-183.5 -91.5q-64 0 -126 45l-6 -33h-128zM408 293q0 52 -24 80.5t-68 28.5q-49 0 -98 -46l-42 -221q43 -37 90 -37q61 0 101.5 55.5t40.5 139.5z" />
    <glyph glyph-name="c" unicode="c" horiz-adv-x="477" 
d="M32 198q0 137 83 225.5t210 88.5q78 0 152 -43l-20 -109q-61 45 -124 45q-73 0 -121 -53.5t-48 -136.5q0 -54 32 -87t85 -33q66 0 133 38l-21 -113q-70 -32 -146 -32q-94 0 -154.5 59t-60.5 151z" />
    <glyph glyph-name="d" unicode="d" horiz-adv-x="572" 
d="M590 719l-135 -719h-122l6 33q-64 -45 -127 -45q-80 0 -130 56.5t-50 147.5q0 137 73.5 228.5t183.5 91.5q66 0 125 -45l48 252h128zM164 208q0 -52 24.5 -81t67.5 -29q49 0 98 47l41 220q-40 37 -89 37q-61 0 -101.5 -55t-40.5 -139z" />
    <glyph glyph-name="e" unicode="e" horiz-adv-x="520" 
d="M32 197q0 138 78 226.5t199 88.5q82 0 134 -53.5t52 -138.5q0 -53 -13 -105h-325q-1 -4 -1 -15q0 -51 34 -82t91 -31q72 0 152 46l-20 -110q-81 -35 -166 -35q-94 0 -154.5 59t-60.5 150zM171 298h205q2 18 2 28q0 39 -21.5 63t-57.5 24q-45 0 -80 -31t-48 -84z" />
    <glyph glyph-name="f" unicode="f" horiz-adv-x="376" 
d="M31 -141l100 538h-85l19 103h86l15 83q13 70 59 109t116 39q54 0 119 -27l-20 -101q-39 21 -76 21q-29 0 -49 -17t-25 -45l-11 -62h125l-18 -103h-127l-100 -538h-128z" />
    <glyph glyph-name="g" unicode="g" horiz-adv-x="572" 
d="M549 500l-96 -510q-19 -102 -90.5 -161.5t-175.5 -59.5q-96 0 -186 48l21 106q83 -53 164 -53q51 0 89.5 32.5t48.5 84.5l8 43q-59 -42 -120 -42q-80 0 -130 56.5t-50 147.5q0 137 73.5 228.5t183.5 91.5q66 0 125 -45l7 33h128zM164 208q0 -52 24.5 -81t67.5 -29
q49 0 98 47l41 220q-40 37 -89 37q-61 0 -101.5 -55t-40.5 -139z" />
    <glyph glyph-name="h" unicode="h" horiz-adv-x="572" 
d="M23 0l135 719h128l-49 -259q67 52 141 52q63 0 104 -41t41 -104q0 -27 -6 -56l-58 -311h-128l56 303q4 20 4 30q0 31 -18.5 49t-50.5 18q-51 0 -106 -52l-65 -348h-128z" />
    <glyph glyph-name="i" unicode="i" horiz-adv-x="268" 
d="M23 0l94 500h128l-94 -500h-128zM133 631q0 34 23 57t57 23q29 0 47 -18.5t18 -46.5q0 -34 -23.5 -57t-57.5 -23q-28 0 -46 18t-18 47z" />
    <glyph glyph-name="j" unicode="j" horiz-adv-x="268" 
d="M245 500l-109 -582q-14 -71 -60 -110t-116 -39q-55 0 -119 28l20 101q41 -22 76 -22q29 0 49.5 17t25.5 45l105 562h128zM133 631q0 34 23 57t57 23q29 0 47 -18.5t18 -46.5q0 -34 -23.5 -57t-57.5 -23q-28 0 -46 18t-18 47z" />
    <glyph glyph-name="k" unicode="k" horiz-adv-x="508" 
d="M23 0l135 719h125l-76 -404l184 185h153l-250 -249l164 -251h-142l-129 204l-39 -204h-125z" />
    <glyph glyph-name="l" unicode="l" horiz-adv-x="268" 
d="M23 0l135 719h128l-135 -719h-128z" />
    <glyph glyph-name="m" unicode="m" horiz-adv-x="856" 
d="M23 0l94 500h123l-8 -40q70 52 140 52q40 0 73 -19.5t52 -54.5q85 74 170 74q59 0 100 -40.5t41 -100.5q0 -24 -5 -52l-60 -319h-128l58 308q3 15 3 29q0 27 -18 45t-47 18q-50 0 -98 -49l-66 -351h-128l58 308q3 15 3 29q0 27 -17.5 45t-46.5 18q-50 0 -99 -49l-66 -351
h-128z" />
    <glyph glyph-name="n" unicode="n" horiz-adv-x="572" 
d="M23 0l94 500h123l-8 -44q71 56 146 56q63 0 104 -41t41 -104q0 -27 -6 -56l-58 -311h-128l56 303q4 20 4 30q0 31 -18.5 49t-50.5 18q-51 0 -106 -52l-65 -348h-128z" />
    <glyph glyph-name="o" unicode="o" horiz-adv-x="572" 
d="M32 198q0 137 82 225.5t211 88.5q95 0 155 -58.5t60 -151.5q0 -137 -82.5 -225.5t-210.5 -88.5q-95 0 -155 58.5t-60 151.5zM164 209q0 -51 26.5 -82.5t71.5 -31.5q62 0 104 56t42 140q0 52 -26.5 83t-71.5 31q-62 0 -104 -56t-42 -140z" />
    <glyph glyph-name="p" unicode="p" horiz-adv-x="572" 
d="M-18 -219l135 719h123l-6 -33q60 45 126 45q80 0 130 -56.5t50 -146.5q0 -138 -73.5 -229.5t-183.5 -91.5q-64 0 -126 45l-47 -252h-128zM408 293q0 52 -24 80.5t-68 28.5q-49 0 -98 -46l-42 -221q43 -37 90 -37q61 0 101.5 55.5t40.5 139.5z" />
    <glyph glyph-name="q" unicode="q" horiz-adv-x="572" 
d="M549 500l-135 -719h-128l46 249q-59 -42 -120 -42q-80 0 -130 56.5t-50 147.5q0 137 73.5 228.5t183.5 91.5q66 0 125 -45l7 33h128zM164 208q0 -52 24.5 -81t67.5 -29q49 0 98 47l41 220q-40 37 -89 37q-61 0 -101.5 -55t-40.5 -139z" />
    <glyph glyph-name="r" unicode="r" horiz-adv-x="389" 
d="M23 0l94 500h123l-9 -48q65 60 130 60q28 0 49 -10l-22 -112q-22 9 -46 9q-64 0 -128 -64l-63 -335h-128z" />
    <glyph glyph-name="s" unicode="s" horiz-adv-x="428" 
d="M10 30l20 108q72 -49 139 -49q33 0 53 15.5t20 40.5q0 20 -18.5 35.5t-45 28.5t-53 29t-45 45t-18.5 69q0 73 53.5 116.5t142.5 43.5q75 0 148 -38l-19 -106q-69 43 -129 43q-31 0 -50 -14.5t-19 -37.5q0 -16 13.5 -29.5t33.5 -22.5t43.5 -22t43.5 -28.5t33.5 -42.5
t13.5 -62q0 -74 -55 -119t-146 -45q-77 0 -159 42z" />
    <glyph glyph-name="t" unicode="t" horiz-adv-x="415" 
d="M305 641l-26 -141h144l-20 -103h-144l-42 -222q-3 -15 -3 -28q0 -23 16 -37.5t41 -14.5q37 0 80 20l-20 -110q-53 -17 -103 -17q-65 0 -105 37t-40 97q0 14 4 36l44 239h-85l19 103h86l26 141h128z" />
    <glyph glyph-name="u" unicode="u" horiz-adv-x="572" 
d="M549 500l-94 -500h-122l8 44q-73 -56 -147 -56q-63 0 -104 41.5t-41 103.5q0 25 5 57l59 310h128l-56 -303q-3 -14 -3 -29q0 -32 18 -50t50 -18q51 0 105 52l66 348h128z" />
    <glyph glyph-name="v" unicode="v" horiz-adv-x="501" 
d="M540 500l-283 -500h-108l-96 500h122l53 -331l174 331h138z" />
    <glyph glyph-name="w" unicode="w" horiz-adv-x="775" 
d="M810 500l-261 -500h-115l-32 346l-160 -346h-115l-70 500h119l34 -345l160 345h113l34 -345l160 345h133z" />
    <glyph glyph-name="x" unicode="x" horiz-adv-x="512" 
d="M-39 0l221 257l-119 243h133l72 -156l122 156h145l-209 -249l123 -251h-136l-73 165l-130 -165h-149z" />
    <glyph glyph-name="y" unicode="y" horiz-adv-x="501" 
d="M540 500l-408 -719h-132l145 239l-92 480h122l53 -331l174 331h138z" />
    <glyph glyph-name="z" unicode="z" horiz-adv-x="483" 
d="M-9 0l15 84l287 313h-215l20 103h380l-16 -84l-286 -313h234l-19 -103h-400z" />
    <glyph glyph-name="braceleft" unicode="{" horiz-adv-x="334" 
d="M396 719l-18 -98h-17q-32 0 -56 -20.5t-30 -53.5l-28 -151q-8 -42 -38 -73.5t-75 -43.5q32 -12 50.5 -41t18.5 -65q0 -13 -4 -35l-21 -111q-3 -13 -3 -26q0 -26 17 -42.5t45 -16.5h14l-19 -98h-30q-70 0 -111 39t-41 105q0 18 5 43l23 116q0 3 1 8.5t1.5 10t0.5 8.5
q0 25 -16 42t-40 17h-11l19 97h7q31 0 56 25t32 64l29 152q13 68 67 108t133 40h39z" />
    <glyph glyph-name="bar" unicode="|" horiz-adv-x="250" 
d="M70 -250v1001h111v-1001h-111z" />
    <glyph glyph-name="braceright" unicode="}" horiz-adv-x="334" 
d="M-50 -156l18 98h17q32 0 55.5 20.5t29.5 54.5l29 150q8 42 38 73.5t75 43.5q-32 12 -50.5 41t-18.5 65q0 13 4 35l20 111q4 18 4 26q0 26 -17.5 42.5t-45.5 16.5h-13l19 98h30q70 0 110.5 -39t40.5 -105q0 -18 -5 -43l-22 -116q0 -3 -1 -8.5t-1.5 -10t-0.5 -8.5
q0 -25 16 -42t40 -17h10l-18 -97h-8q-30 0 -55 -25t-32 -64l-29 -152q-13 -68 -67 -108t-133 -40h-39z" />
    <glyph glyph-name="asciitilde" unicode="~" 
d="M21 196q0 83 43.5 134.5t113.5 51.5q34 0 66.5 -14t52.5 -31.5t43.5 -31.5t42.5 -14q27 0 44 21t17 55h110q0 -83 -43.5 -134.5t-113.5 -51.5q-43 0 -82 22.5t-69.5 45.5t-53.5 23q-27 0 -44 -21t-17 -55h-110z" />
    <glyph glyph-name="uni00A0" unicode="&#xa0;" horiz-adv-x="250" 
 />
    <glyph glyph-name="exclamdown" unicode="&#xa1;" horiz-adv-x="293" 
d="M218 292l-90 -480h-128l90 480h128zM257 443q0 -36 -24 -60t-61 -24q-30 0 -49 19t-19 50q0 36 24 60t60 24q31 0 50 -19t19 -50z" />
    <glyph glyph-name="cent" unicode="&#xa2;" 
d="M204 -63l30 157q-65 20 -103.5 73t-38.5 125q0 121 65.5 205t170.5 103l29 151h110l-29 -151q52 -9 100 -37l-21 -109q-62 45 -124 45q-74 0 -121.5 -54t-47.5 -137q0 -53 32.5 -86t85.5 -33q63 0 133 38l-22 -114q-55 -25 -111 -29l-28 -147h-110z" />
    <glyph glyph-name="sterling" unicode="&#xa3;" 
d="M5 0l16 82l102 216h-56l20 104h84l75 156q68 142 201 142q61 0 127 -32l-21 -106q-43 28 -86 28q-64 0 -95 -66l-59 -122h129l-19 -104h-159l-91 -191h319l-20 -107h-467z" />
    <glyph glyph-name="currency" unicode="&#xa4;" 
d="M88 344q0 61 27 106l-87 87l78 78l86 -87q47 28 107 28q61 0 106 -28l87 87l78 -78l-87 -87q28 -47 28 -106q0 -60 -28 -107l87 -86l-78 -78l-87 87q-43 -27 -106 -27q-62 0 -107 27l-86 -87l-78 78l87 86q-27 45 -27 107zM187 344q0 -50 31.5 -81t80.5 -31
q50 0 81.5 31.5t31.5 80.5q0 50 -32 81.5t-81 31.5t-80.5 -31.5t-31.5 -81.5z" />
    <glyph glyph-name="yen" unicode="&#xa5;" 
d="M163 0l24 126h-144l17 88h143l14 78h-142l16 87h110l-126 309h137l93 -253l186 253h155l-241 -309h104l-17 -87h-143l-14 -78h143l-17 -88h-143l-24 -126h-131z" />
    <glyph glyph-name="brokenbar" unicode="&#xa6;" horiz-adv-x="250" 
d="M70 313v375h111v-375h-111zM70 -188v376h111v-376h-111z" />
    <glyph glyph-name="section" unicode="&#xa7;" horiz-adv-x="500" 
d="M1 -89l20 112q83 -55 157 -55q40 0 64.5 18.5t24.5 49.5q0 24 -21.5 42t-52 33t-61 34t-52 54.5t-21.5 85.5q0 95 86 156q-28 40 -28 84q0 77 61 126t156 49q79 0 163 -42l-20 -110q-74 47 -143 47q-38 0 -61.5 -17.5t-23.5 -46.5q0 -23 21.5 -40.5t51.5 -32t60.5 -33.5
t52 -55.5t21.5 -87.5q0 -96 -84 -154q26 -38 26 -86q0 -80 -60.5 -129.5t-159.5 -49.5q-84 0 -177 48zM226 375q-47 -31 -47 -79q0 -12 2.5 -22t10 -19t12 -14.5t18.5 -13t20 -10.5t24.5 -11.5t24.5 -11.5q46 30 46 77q0 13 -2.5 23.5t-10 19.5l-12.5 15t-18.5 13.5t-20 11
t-23.5 11t-24 10.5z" />
    <glyph glyph-name="dieresis" unicode="&#xa8;" horiz-adv-x="250" 
d="M20 631q0 33 22.5 55t55.5 22q28 0 45.5 -17t17.5 -45q0 -33 -22.5 -55.5t-55.5 -22.5q-27 0 -45 17.5t-18 45.5zM232 631q0 33 22.5 55t55.5 22q27 0 44.5 -17t17.5 -45q0 -33 -22 -55.5t-55 -22.5q-28 0 -45.5 17.5t-17.5 45.5z" />
    <glyph glyph-name="copyright" unicode="&#xa9;" horiz-adv-x="845" 
d="M81 344q0 158 100.5 259t258.5 101t259 -101t101 -259t-101 -259t-259 -101t-258.5 101t-100.5 259zM153 344q0 -126 80.5 -207t206.5 -81q127 0 207.5 81t80.5 207t-80.5 207t-207.5 81q-126 0 -206.5 -81t-80.5 -207zM250 344q0 92 57 151t146 59q61 0 121 -29v-84
q-57 34 -103 34q-55 0 -89.5 -36.5t-34.5 -94.5t34.5 -94t89.5 -36q48 0 103 33v-84q-60 -29 -121 -29q-89 0 -146 59t-57 151z" />
    <glyph glyph-name="ordfeminine" unicode="&#xaa;" horiz-adv-x="374" 
d="M35 245l13 73h303l-15 -73h-301zM409 688l-59 -313h-87l4 19q-38 -26 -77 -26q-50 0 -81.5 36t-31.5 93q0 85 46 142t114 57q41 0 76 -27l3 19h93zM171 508q0 -29 14 -45.5t37 -16.5q26 0 54 26l24 125q-23 20 -49 20q-34 0 -57 -31t-23 -78z" />
    <glyph glyph-name="guillemotleft" unicode="&#xab;" horiz-adv-x="649" 
d="M655 464l-230 -217l141 -211h-126l-166 217l236 211h145zM419 464l-230 -217l141 -211h-126l-165 217l236 211h144z" />
    <glyph glyph-name="logicalnot" unicode="&#xac;" 
d="M37 226v111h501v-306h-110v195h-391z" />
    <glyph glyph-name="uni00AD" unicode="&#xad;" horiz-adv-x="313" 
d="M19 203l20 103h255l-20 -103h-255z" />
    <glyph glyph-name="registered" unicode="&#xae;" horiz-adv-x="500" 
d="M79 485q0 95 60.5 155t154.5 60t154.5 -60t60.5 -155t-60.5 -155t-154.5 -60t-154.5 60t-60.5 155zM126 485q0 -73 47 -120.5t121 -47.5t121 47.5t47 120.5t-47 120.5t-121 47.5t-121 -47.5t-47 -120.5zM269 560v-66h27q15 0 25 9t10 24q0 14 -10 23.5t-25 9.5h-27z
M216 368v234h87q36 0 59 -21t23 -54q0 -49 -43 -68l52 -91h-58l-46 84h-21v-84h-53z" />
    <glyph glyph-name="macron" unicode="&#xaf;" horiz-adv-x="250" 
d="M21 595l17 87h335l-17 -87h-335z" />
    <glyph glyph-name="degree" unicode="&#xb0;" horiz-adv-x="365" 
d="M97 560q0 62 39.5 101t100.5 39q62 0 101.5 -39t39.5 -101t-39.5 -101.5t-101.5 -39.5t-101 39.5t-39 101.5zM174 560q0 -28 17.5 -46t45.5 -18q29 0 46.5 18t17.5 46t-18 45.5t-46 17.5t-45.5 -17.5t-17.5 -45.5z" />
    <glyph glyph-name="plusminus" unicode="&#xb1;" 
d="M37 348v110h195v195h111v-195h195v-110h-195v-196h-111v196h-195zM37 0v110h501v-110h-501z" />
    <glyph glyph-name="twosuperior" unicode="&#xb2;" horiz-adv-x="315" 
d="M48 407l12 61q92 59 147.5 118t55.5 100q0 24 -13.5 38t-38.5 14q-47 0 -98 -36l16 91q54 27 113 27q54 0 86.5 -31.5t32.5 -83.5q0 -100 -163 -219h127l-15 -79h-262z" />
    <glyph glyph-name="threesuperior" unicode="&#xb3;" horiz-adv-x="311" 
d="M157 576l14 74h20q32 0 52 15t20 39q0 17 -13.5 28t-35.5 11q-44 0 -94 -28l15 85q51 20 99 20q54 0 88 -28t34 -72q0 -37 -21.5 -66.5t-58.5 -41.5q56 -24 56 -83q0 -56 -45 -92.5t-113 -36.5q-64 0 -117 32l15 81q49 -36 98 -36q28 0 47.5 16t19.5 38q0 20 -16.5 32.5
t-43.5 12.5h-20z" />
    <glyph glyph-name="acute" unicode="&#xb4;" horiz-adv-x="250" 
d="M109 557l138 162h127l-156 -162h-109z" />
    <glyph glyph-name="mu" unicode="&#xb5;" horiz-adv-x="576" 
d="M-18 -219l135 719h128l-56 -303q-3 -15 -3 -29q0 -32 18 -50t50 -18q51 0 106 52l65 348h128l-94 -500h-122l8 44q-57 -51 -118 -51q-41 0 -73 27l-44 -239h-128z" />
    <glyph glyph-name="paragraph" unicode="&#xb6;" horiz-adv-x="590" 
d="M311 270h-40q-91 0 -145 48.5t-54 129.5q0 102 78.5 171t194.5 69h237l-152 -813h-110l131 703h-82z" />
    <glyph glyph-name="periodcentered" unicode="&#xb7;" horiz-adv-x="250" 
d="M49 242q0 36 24 60t61 24q29 0 48.5 -19t19.5 -49q0 -36 -24 -60.5t-61 -24.5q-30 0 -49 19.5t-19 49.5z" />
    <glyph glyph-name="cedilla" unicode="&#xb8;" horiz-adv-x="250" 
d="M127 0l-21 -47q25 -8 39.5 -28.5t14.5 -46.5q0 -47 -38.5 -78t-97.5 -31q-42 0 -88 24l14 73q32 -23 65 -23q22 0 36 11t14 28t-14 28t-36 11h-4l35 79h81z" />
    <glyph glyph-name="onesuperior" unicode="&#xb9;" horiz-adv-x="268" 
d="M144 407l57 303l-104 -43l16 86l143 60h60l-76 -406h-96z" />
    <glyph glyph-name="ordmasculine" unicode="&#xba;" horiz-adv-x="374" 
d="M35 245l13 73h303l-15 -73h-301zM77 501q0 85 52.5 140t134.5 55q61 0 99.5 -37.5t38.5 -95.5q0 -85 -52.5 -140t-134.5 -55q-61 0 -99.5 37t-38.5 96zM171 508q0 -29 15 -46.5t40 -17.5q35 0 58.5 32t23.5 80q0 28 -15 45.5t-40 17.5q-35 0 -58.5 -31.5t-23.5 -79.5z
" />
    <glyph glyph-name="guillemotright" unicode="&#xbb;" horiz-adv-x="649" 
d="M-6 36l230 217l-141 211h126l166 -217l-237 -211h-144zM230 36l229 217l-141 211h127l165 -217l-236 -211h-144z" />
    <glyph glyph-name="onequarter" unicode="&#xbc;" horiz-adv-x="845" 
d="M159 282l57 303l-104 -43l16 86l143 60h60l-76 -406h-96zM67 0l641 688h105l-641 -688h-105zM636 0l17 94h-170l13 66l225 246h80l-46 -241h58l-13 -71h-58l-18 -94h-88zM584 165h82l21 112z" />
    <glyph glyph-name="onehalf" unicode="&#xbd;" horiz-adv-x="845" 
d="M67 0l641 688h105l-641 -688h-105zM487 0l12 61q92 59 147.5 118t55.5 100q0 24 -13.5 38t-38.5 14q-47 0 -98 -36l16 91q54 27 113 27q54 0 86.5 -31.5t32.5 -83.5q0 -100 -163 -219h127l-15 -79h-262zM159 282l57 303l-104 -43l16 86l143 60h60l-76 -406h-96z" />
    <glyph glyph-name="threequarters" unicode="&#xbe;" horiz-adv-x="845" 
d="M151 451l14 74h20q32 0 52 15t20 39q0 17 -13.5 28t-35.5 11q-44 0 -94 -28l15 85q51 20 99 20q54 0 88 -28t34 -72q0 -37 -21.5 -66.5t-58.5 -41.5q56 -24 56 -83q0 -56 -45 -92.5t-113 -36.5q-64 0 -117 32l15 81q49 -36 98 -36q28 0 47.5 16t19.5 38q0 20 -16.5 32.5
t-43.5 12.5h-20zM67 0l641 688h105l-641 -688h-105zM636 0l17 94h-170l13 66l225 246h80l-46 -241h58l-13 -71h-58l-18 -94h-88zM584 165h82l21 112z" />
    <glyph glyph-name="questiondown" unicode="&#xbf;" horiz-adv-x="454" 
d="M326 292l-6 -31q-8 -42 -30 -76.5t-47 -57.5t-49.5 -43.5t-40.5 -44.5t-16 -51q0 -34 22.5 -54.5t59.5 -20.5q69 0 149 56l-24 -126q-74 -42 -163 -42q-80 0 -129 46.5t-49 121.5q0 43 18.5 80.5t46 65t55.5 52t50 52t27 55.5l3 18h123zM359 444q0 -36 -24.5 -60
t-60.5 -24q-30 0 -49 19t-19 49q0 36 24 60.5t60 24.5q31 0 50 -19.5t19 -49.5z" />
    <glyph glyph-name="Agrave" unicode="&#xc0;" horiz-adv-x="642" 
d="M-38 0l390 688h109l134 -688h-121l-29 165h-258l-90 -165h-135zM384 524l-143 -261h188zM391 745l-96 162h110l80 -162h-94z" />
    <glyph glyph-name="Aacute" unicode="&#xc1;" horiz-adv-x="642" 
d="M-38 0l390 688h109l134 -688h-121l-29 165h-258l-90 -165h-135zM384 524l-143 -261h188zM344 745l138 162h127l-156 -162h-109z" />
    <glyph glyph-name="Acircumflex" unicode="&#xc2;" horiz-adv-x="642" 
d="M-38 0l390 688h109l134 -688h-121l-29 165h-258l-90 -165h-135zM384 524l-143 -261h188zM247 745l140 162h113l79 -162h-91l-53 90l-86 -90h-102z" />
    <glyph glyph-name="Atilde" unicode="&#xc3;" horiz-adv-x="642" 
d="M-38 0l390 688h109l134 -688h-121l-29 165h-258l-90 -165h-135zM384 524l-143 -261h188zM250 769q8 57 41.5 92t80.5 35q33 0 71 -28t51 -28q17 0 29 12t16 32h76q-8 -57 -41.5 -92t-80.5 -35q-33 0 -71 28t-51 28q-18 0 -29.5 -12t-15.5 -32h-76z" />
    <glyph glyph-name="Adieresis" unicode="&#xc4;" horiz-adv-x="642" 
d="M-38 0l390 688h109l134 -688h-121l-29 165h-258l-90 -165h-135zM384 524l-143 -261h188zM255 819q0 33 22.5 55t55.5 22q28 0 45.5 -17t17.5 -45q0 -33 -22.5 -55.5t-55.5 -22.5q-27 0 -45 17.5t-18 45.5zM467 819q0 33 22.5 55t55.5 22q27 0 44.5 -17t17.5 -45
q0 -33 -22 -55.5t-55 -22.5q-28 0 -45.5 17.5t-17.5 45.5z" />
    <glyph glyph-name="Aring" unicode="&#xc5;" horiz-adv-x="642" 
d="M-38 0l390 688h109l134 -688h-121l-29 165h-258l-90 -165h-135zM384 524l-143 -261h188zM325 816q0 49 33.5 82.5t83.5 33.5q43 0 69.5 -26.5t26.5 -68.5q0 -49 -34 -83t-83 -34q-42 0 -69 27t-27 69zM383 822q0 -20 12 -32.5t32 -12.5q23 0 38.5 15.5t15.5 38.5
q0 20 -12.5 32.5t-31.5 12.5q-23 0 -38.5 -15.5t-15.5 -38.5z" />
    <glyph glyph-name="AE" unicode="&#xc6;" horiz-adv-x="911" 
d="M398 0l28 154h-224l-123 -154h-150l556 688h450l-19 -107h-278l-34 -179h239l-20 -105h-239l-35 -190h285l-20 -107h-416zM496 526l-218 -273h167z" />
    <glyph glyph-name="Ccedilla" unicode="&#xc7;" horiz-adv-x="614" 
d="M56 269q0 189 109 310t277 121q104 0 201 -59l-22 -113q-86 62 -171 62q-113 0 -186.5 -86t-73.5 -219q0 -84 49 -135.5t131 -51.5q88 0 180 54l-21 -121q-82 -40 -177 -42l-15 -36q24 -8 38.5 -28.5t14.5 -46.5q0 -47 -38 -78t-97 -31q-43 0 -89 24l14 73q34 -23 64 -23
q23 0 37 11t14 28t-14 28t-36 11h-4l32 73q-98 20 -157.5 94.5t-59.5 180.5z" />
    <glyph glyph-name="Egrave" unicode="&#xc8;" horiz-adv-x="556" 
d="M43 0l129 688h408l-19 -107h-278l-33 -179h237l-18 -105h-239l-36 -190h285l-20 -107h-416zM357 745l-96 162h110l80 -162h-94z" />
    <glyph glyph-name="Eacute" unicode="&#xc9;" horiz-adv-x="556" 
d="M43 0l129 688h408l-19 -107h-278l-33 -179h237l-18 -105h-239l-36 -190h285l-20 -107h-416zM310 745l138 162h127l-156 -162h-109z" />
    <glyph glyph-name="Ecircumflex" unicode="&#xca;" horiz-adv-x="556" 
d="M43 0l129 688h408l-19 -107h-278l-33 -179h237l-18 -105h-239l-36 -190h285l-20 -107h-416zM213 745l140 162h113l79 -162h-91l-53 90l-86 -90h-102z" />
    <glyph glyph-name="Edieresis" unicode="&#xcb;" horiz-adv-x="556" 
d="M43 0l129 688h408l-19 -107h-278l-33 -179h237l-18 -105h-239l-36 -190h285l-20 -107h-416zM221 819q0 33 22.5 55t55.5 22q28 0 45.5 -17t17.5 -45q0 -33 -22.5 -55.5t-55.5 -22.5q-27 0 -45 17.5t-18 45.5zM433 819q0 33 22.5 55t55.5 22q27 0 44.5 -17t17.5 -45
q0 -33 -22 -55.5t-55 -22.5q-28 0 -45.5 17.5t-17.5 45.5z" />
    <glyph glyph-name="Igrave" unicode="&#xcc;" horiz-adv-x="310" 
d="M43 0l129 688h131l-130 -688h-130zM221 745l-96 162h110l80 -162h-94z" />
    <glyph glyph-name="Iacute" unicode="&#xcd;" horiz-adv-x="310" 
d="M43 0l129 688h131l-130 -688h-130zM174 745l138 162h127l-156 -162h-109z" />
    <glyph glyph-name="Icircumflex" unicode="&#xce;" horiz-adv-x="310" 
d="M43 0l129 688h131l-130 -688h-130zM77 745l140 162h113l79 -162h-91l-53 90l-86 -90h-102z" />
    <glyph glyph-name="Idieresis" unicode="&#xcf;" horiz-adv-x="310" 
d="M43 0l129 688h131l-130 -688h-130zM85 819q0 33 22.5 55t55.5 22q28 0 45.5 -17t17.5 -45q0 -33 -22.5 -55.5t-55.5 -22.5q-27 0 -45 17.5t-18 45.5zM297 819q0 33 22.5 55t55.5 22q27 0 44.5 -17t17.5 -45q0 -33 -22 -55.5t-55 -22.5q-28 0 -45.5 17.5t-17.5 45.5z" />
    <glyph glyph-name="Eth" unicode="&#xd0;" horiz-adv-x="720" 
d="M31 306l16 88h85l55 294h226q127 0 207 -74.5t80 -193.5q0 -191 -107 -305.5t-285 -114.5h-250l57 306h-84zM298 581l-34 -187h139l-16 -88h-140l-38 -199h108q109 0 178.5 84.5t69.5 217.5q0 80 -46.5 126t-127.5 46h-93z" />
    <glyph glyph-name="Ntilde" unicode="&#xd1;" horiz-adv-x="736" 
d="M43 0l129 688h107l237 -480l89 480h124l-129 -688h-108l-237 480l-89 -480h-123zM293 769q8 57 41.5 92t80.5 35q33 0 71 -28t51 -28q17 0 29 12t16 32h76q-8 -57 -41.5 -92t-80.5 -35q-33 0 -71 28t-51 28q-18 0 -29.5 -12t-15.5 -32h-76z" />
    <glyph glyph-name="Ograve" unicode="&#xd2;" horiz-adv-x="736" 
d="M56 268q0 189 107.5 310.5t274.5 121.5q125 0 201.5 -77t76.5 -203q0 -189 -108 -310.5t-275 -121.5q-124 0 -200.5 77.5t-76.5 202.5zM190 279q0 -82 42.5 -131.5t112.5 -49.5q98 0 167 90.5t69 220.5q0 82 -42 131.5t-113 49.5q-97 0 -166.5 -90.5t-69.5 -220.5z
M434 745l-96 162h110l80 -162h-94z" />
    <glyph glyph-name="Oacute" unicode="&#xd3;" horiz-adv-x="736" 
d="M56 268q0 189 107.5 310.5t274.5 121.5q125 0 201.5 -77t76.5 -203q0 -189 -108 -310.5t-275 -121.5q-124 0 -200.5 77.5t-76.5 202.5zM190 279q0 -82 42.5 -131.5t112.5 -49.5q98 0 167 90.5t69 220.5q0 82 -42 131.5t-113 49.5q-97 0 -166.5 -90.5t-69.5 -220.5z
M387 745l138 162h127l-156 -162h-109z" />
    <glyph glyph-name="Ocircumflex" unicode="&#xd4;" horiz-adv-x="736" 
d="M56 268q0 189 107.5 310.5t274.5 121.5q125 0 201.5 -77t76.5 -203q0 -189 -108 -310.5t-275 -121.5q-124 0 -200.5 77.5t-76.5 202.5zM190 279q0 -82 42.5 -131.5t112.5 -49.5q98 0 167 90.5t69 220.5q0 82 -42 131.5t-113 49.5q-97 0 -166.5 -90.5t-69.5 -220.5z
M290 745l140 162h113l79 -162h-91l-53 90l-86 -90h-102z" />
    <glyph glyph-name="Otilde" unicode="&#xd5;" horiz-adv-x="736" 
d="M56 268q0 189 107.5 310.5t274.5 121.5q125 0 201.5 -77t76.5 -203q0 -189 -108 -310.5t-275 -121.5q-124 0 -200.5 77.5t-76.5 202.5zM190 279q0 -82 42.5 -131.5t112.5 -49.5q98 0 167 90.5t69 220.5q0 82 -42 131.5t-113 49.5q-97 0 -166.5 -90.5t-69.5 -220.5z
M293 769q8 57 41.5 92t80.5 35q33 0 71 -28t51 -28q17 0 29 12t16 32h76q-8 -57 -41.5 -92t-80.5 -35q-33 0 -71 28t-51 28q-18 0 -29.5 -12t-15.5 -32h-76z" />
    <glyph glyph-name="Odieresis" unicode="&#xd6;" horiz-adv-x="736" 
d="M56 268q0 189 107.5 310.5t274.5 121.5q125 0 201.5 -77t76.5 -203q0 -189 -108 -310.5t-275 -121.5q-124 0 -200.5 77.5t-76.5 202.5zM190 279q0 -82 42.5 -131.5t112.5 -49.5q98 0 167 90.5t69 220.5q0 82 -42 131.5t-113 49.5q-97 0 -166.5 -90.5t-69.5 -220.5z
M298 819q0 33 22.5 55t55.5 22q28 0 45.5 -17t17.5 -45q0 -33 -22.5 -55.5t-55.5 -22.5q-27 0 -45 17.5t-18 45.5zM510 819q0 33 22.5 55t55.5 22q27 0 44.5 -17t17.5 -45q0 -33 -22 -55.5t-55 -22.5q-28 0 -45.5 17.5t-17.5 45.5z" />
    <glyph glyph-name="multiply" unicode="&#xd7;" 
d="M127 44l-77 77l160 161l-160 160l77 77l161 -160l160 160l77 -77l-160 -160l160 -161l-77 -77l-160 160z" />
    <glyph glyph-name="Oslash" unicode="&#xd8;" horiz-adv-x="736" 
d="M56 268q0 189 107.5 310.5t274.5 121.5q103 0 175 -55l40 43h106l-92 -98q49 -71 49 -170q0 -189 -108 -310.5t-275 -121.5q-104 0 -174 56l-41 -44h-106l92 99q-48 70 -48 169zM581 409q0 37 -12 75l-324 -348q40 -38 100 -38q98 0 167 90.5t69 220.5zM190 279
q0 -40 13 -74l323 347q-40 38 -100 38q-97 0 -166.5 -90.5t-69.5 -220.5z" />
    <glyph glyph-name="Ugrave" unicode="&#xd9;" horiz-adv-x="736" 
d="M732 688l-83 -451q-21 -115 -106.5 -182t-209.5 -67q-109 0 -179 61.5t-70 158.5q0 30 6 65l78 415h131l-77 -415q-5 -28 -5 -47q0 -57 35 -92.5t93 -35.5q67 0 114 42t60 112l82 436h131zM434 745l-96 162h110l80 -162h-94z" />
    <glyph glyph-name="Uacute" unicode="&#xda;" horiz-adv-x="736" 
d="M732 688l-83 -451q-21 -115 -106.5 -182t-209.5 -67q-109 0 -179 61.5t-70 158.5q0 30 6 65l78 415h131l-77 -415q-5 -28 -5 -47q0 -57 35 -92.5t93 -35.5q67 0 114 42t60 112l82 436h131zM387 745l138 162h127l-156 -162h-109z" />
    <glyph glyph-name="Ucircumflex" unicode="&#xdb;" horiz-adv-x="736" 
d="M732 688l-83 -451q-21 -115 -106.5 -182t-209.5 -67q-109 0 -179 61.5t-70 158.5q0 30 6 65l78 415h131l-77 -415q-5 -28 -5 -47q0 -57 35 -92.5t93 -35.5q67 0 114 42t60 112l82 436h131zM290 745l140 162h113l79 -162h-91l-53 90l-86 -90h-102z" />
    <glyph glyph-name="Udieresis" unicode="&#xdc;" horiz-adv-x="736" 
d="M732 688l-83 -451q-21 -115 -106.5 -182t-209.5 -67q-109 0 -179 61.5t-70 158.5q0 30 6 65l78 415h131l-77 -415q-5 -28 -5 -47q0 -57 35 -92.5t93 -35.5q67 0 114 42t60 112l82 436h131zM298 819q0 33 22.5 55t55.5 22q28 0 45.5 -17t17.5 -45q0 -33 -22.5 -55.5
t-55.5 -22.5q-27 0 -45 17.5t-18 45.5zM510 819q0 33 22.5 55t55.5 22q27 0 44.5 -17t17.5 -45q0 -33 -22 -55.5t-55 -22.5q-28 0 -45.5 17.5t-17.5 45.5z" />
    <glyph glyph-name="Yacute" unicode="&#xdd;" horiz-adv-x="606" 
d="M184 0l55 292l-161 396h138l104 -284l209 284h157l-317 -408l-53 -280h-132zM316 745l138 162h127l-156 -162h-109z" />
    <glyph glyph-name="Thorn" unicode="&#xde;" horiz-adv-x="601" 
d="M43 0l129 688h128l-23 -119h97q95 0 152.5 -51.5t57.5 -136.5q0 -108 -82 -180.5t-205 -72.5h-102l-24 -128h-128zM259 465l-45 -233h86q67 0 109 38.5t42 97.5q0 45 -30 71t-82 26h-80z" />
    <glyph glyph-name="germandbls" unicode="&#xdf;" horiz-adv-x="666" 
d="M256 30l19 108q72 -49 140 -49q33 0 53 16.5t20 42.5q0 18 -17 34.5t-41 31.5t-48.5 33t-41.5 47.5t-17 66.5q0 35 16 65.5t35.5 48t35.5 41t16 45.5q0 29 -21.5 47.5t-54.5 18.5q-37 0 -63.5 -22.5t-33.5 -60.5l-129 -685h-127l130 693q15 82 76 130.5t148 48.5
q91 0 147.5 -44t56.5 -114q0 -37 -16.5 -68.5t-35.5 -49.5t-35.5 -40.5t-16.5 -42.5t17 -38t41.5 -33t48.5 -33t41 -47.5t17 -66.5q0 -75 -55 -120.5t-146 -45.5q-77 0 -159 42z" />
    <glyph glyph-name="agrave" unicode="&#xe0;" horiz-adv-x="572" 
d="M549 500l-94 -500h-122l6 33q-64 -45 -127 -45q-80 0 -130 56.5t-50 147.5q0 137 73.5 228.5t183.5 91.5q66 0 125 -45l7 33h128zM164 208q0 -52 24.5 -81t67.5 -29q49 0 98 47l41 220q-40 37 -89 37q-61 0 -101.5 -55t-40.5 -139zM317 557l-96 162h110l80 -162h-94z" />
    <glyph glyph-name="aacute" unicode="&#xe1;" horiz-adv-x="572" 
d="M549 500l-94 -500h-122l6 33q-64 -45 -127 -45q-80 0 -130 56.5t-50 147.5q0 137 73.5 228.5t183.5 91.5q66 0 125 -45l7 33h128zM164 208q0 -52 24.5 -81t67.5 -29q49 0 98 47l41 220q-40 37 -89 37q-61 0 -101.5 -55t-40.5 -139zM270 557l138 162h127l-156 -162h-109z
" />
    <glyph glyph-name="acircumflex" unicode="&#xe2;" horiz-adv-x="572" 
d="M549 500l-94 -500h-122l6 33q-64 -45 -127 -45q-80 0 -130 56.5t-50 147.5q0 137 73.5 228.5t183.5 91.5q66 0 125 -45l7 33h128zM164 208q0 -52 24.5 -81t67.5 -29q49 0 98 47l41 220q-40 37 -89 37q-61 0 -101.5 -55t-40.5 -139zM173 557l140 162h113l79 -162h-91
l-53 90l-86 -90h-102z" />
    <glyph glyph-name="atilde" unicode="&#xe3;" horiz-adv-x="572" 
d="M549 500l-94 -500h-122l6 33q-64 -45 -127 -45q-80 0 -130 56.5t-50 147.5q0 137 73.5 228.5t183.5 91.5q66 0 125 -45l7 33h128zM164 208q0 -52 24.5 -81t67.5 -29q49 0 98 47l41 220q-40 37 -89 37q-61 0 -101.5 -55t-40.5 -139zM176 581q8 57 41.5 92t80.5 35
q33 0 71 -28t51 -28q17 0 29 12t16 32h76q-8 -57 -41.5 -92t-80.5 -35q-33 0 -71 28t-51 28q-18 0 -29.5 -12t-15.5 -32h-76z" />
    <glyph glyph-name="adieresis" unicode="&#xe4;" horiz-adv-x="572" 
d="M549 500l-94 -500h-122l6 33q-64 -45 -127 -45q-80 0 -130 56.5t-50 147.5q0 137 73.5 228.5t183.5 91.5q66 0 125 -45l7 33h128zM164 208q0 -52 24.5 -81t67.5 -29q49 0 98 47l41 220q-40 37 -89 37q-61 0 -101.5 -55t-40.5 -139zM181 631q0 33 22.5 55t55.5 22
q28 0 45.5 -17t17.5 -45q0 -33 -22.5 -55.5t-55.5 -22.5q-27 0 -45 17.5t-18 45.5zM393 631q0 33 22.5 55t55.5 22q27 0 44.5 -17t17.5 -45q0 -33 -22 -55.5t-55 -22.5q-28 0 -45.5 17.5t-17.5 45.5z" />
    <glyph glyph-name="aring" unicode="&#xe5;" horiz-adv-x="572" 
d="M549 500l-94 -500h-122l6 33q-64 -45 -127 -45q-80 0 -130 56.5t-50 147.5q0 137 73.5 228.5t183.5 91.5q66 0 125 -45l7 33h128zM164 208q0 -52 24.5 -81t67.5 -29q49 0 98 47l41 220q-40 37 -89 37q-61 0 -101.5 -55t-40.5 -139zM251 628q0 49 33.5 82.5t83.5 33.5
q43 0 69.5 -26.5t26.5 -68.5q0 -49 -34 -83t-83 -34q-42 0 -69 27t-27 69zM309 634q0 -20 12 -32.5t32 -12.5q23 0 38.5 15.5t15.5 38.5q0 20 -12.5 32.5t-31.5 12.5q-23 0 -38.5 -15.5t-15.5 -38.5z" />
    <glyph glyph-name="ae" unicode="&#xe6;" horiz-adv-x="810" 
d="M342 309l3 18q2 7 2 20q0 30 -22.5 48t-58.5 18q-78 0 -164 -42l20 107q86 34 170 34q91 0 142 -63q68 63 166 63q83 0 135 -53.5t52 -138.5q0 -49 -14 -105h-325q-1 -4 -1 -15q0 -51 34 -82t92 -31q72 0 152 46l-20 -110q-82 -35 -167 -35q-97 0 -165 75
q-98 -75 -200 -75q-69 0 -113.5 37.5t-44.5 96.5q0 85 71.5 138t184.5 53q23 0 71 -4zM141 145q0 -27 19.5 -43.5t52.5 -16.5q62 0 120 55q-8 29 -8 57q0 19 3 36q-38 4 -57 4q-56 0 -93 -26t-37 -66zM462 298h205q2 10 2 28q0 39 -21 63t-57 24q-46 0 -81 -31t-48 -84z" />
    <glyph glyph-name="ccedilla" unicode="&#xe7;" horiz-adv-x="477" 
d="M32 198q0 137 83 225.5t210 88.5q78 0 152 -43l-20 -109q-61 45 -124 45q-73 0 -121 -53.5t-48 -136.5q0 -54 32 -87t85 -33q66 0 133 38l-21 -113q-53 -26 -121 -31l-15 -36q24 -8 38.5 -28.5t14.5 -46.5q0 -47 -38 -78t-97 -31q-43 0 -89 24l14 73q34 -23 64 -23
q22 0 36 11t14 28t-14 28t-36 11h-4l33 73q-73 16 -117 71t-44 133z" />
    <glyph glyph-name="egrave" unicode="&#xe8;" horiz-adv-x="520" 
d="M32 197q0 138 78 226.5t199 88.5q82 0 134 -53.5t52 -138.5q0 -53 -13 -105h-325q-1 -4 -1 -15q0 -51 34 -82t91 -31q72 0 152 46l-20 -110q-81 -35 -166 -35q-94 0 -154.5 59t-60.5 150zM171 298h205q2 18 2 28q0 39 -21.5 63t-57.5 24q-45 0 -80 -31t-48 -84zM310 557
l-96 162h110l80 -162h-94z" />
    <glyph glyph-name="eacute" unicode="&#xe9;" horiz-adv-x="520" 
d="M32 197q0 138 78 226.5t199 88.5q82 0 134 -53.5t52 -138.5q0 -53 -13 -105h-325q-1 -4 -1 -15q0 -51 34 -82t91 -31q72 0 152 46l-20 -110q-81 -35 -166 -35q-94 0 -154.5 59t-60.5 150zM171 298h205q2 18 2 28q0 39 -21.5 63t-57.5 24q-45 0 -80 -31t-48 -84zM263 557
l138 162h127l-156 -162h-109z" />
    <glyph glyph-name="ecircumflex" unicode="&#xea;" horiz-adv-x="520" 
d="M32 197q0 138 78 226.5t199 88.5q82 0 134 -53.5t52 -138.5q0 -53 -13 -105h-325q-1 -4 -1 -15q0 -51 34 -82t91 -31q72 0 152 46l-20 -110q-81 -35 -166 -35q-94 0 -154.5 59t-60.5 150zM171 298h205q2 18 2 28q0 39 -21.5 63t-57.5 24q-45 0 -80 -31t-48 -84zM166 557
l140 162h113l79 -162h-91l-53 90l-86 -90h-102z" />
    <glyph glyph-name="edieresis" unicode="&#xeb;" horiz-adv-x="520" 
d="M32 197q0 138 78 226.5t199 88.5q82 0 134 -53.5t52 -138.5q0 -53 -13 -105h-325q-1 -4 -1 -15q0 -51 34 -82t91 -31q72 0 152 46l-20 -110q-81 -35 -166 -35q-94 0 -154.5 59t-60.5 150zM171 298h205q2 18 2 28q0 39 -21.5 63t-57.5 24q-45 0 -80 -31t-48 -84zM174 631
q0 33 22.5 55t55.5 22q28 0 45.5 -17t17.5 -45q0 -33 -22.5 -55.5t-55.5 -22.5q-27 0 -45 17.5t-18 45.5zM386 631q0 33 22.5 55t55.5 22q27 0 44.5 -17t17.5 -45q0 -33 -22 -55.5t-55 -22.5q-28 0 -45.5 17.5t-17.5 45.5z" />
    <glyph glyph-name="igrave" unicode="&#xec;" horiz-adv-x="268" 
d="M23 0l94 500h128l-94 -500h-128zM165 557l-96 162h110l80 -162h-94z" />
    <glyph glyph-name="iacute" unicode="&#xed;" horiz-adv-x="268" 
d="M23 0l94 500h128l-94 -500h-128zM118 557l138 162h127l-156 -162h-109z" />
    <glyph glyph-name="icircumflex" unicode="&#xee;" horiz-adv-x="268" 
d="M23 0l94 500h128l-94 -500h-128zM21 557l140 162h113l79 -162h-91l-53 90l-86 -90h-102z" />
    <glyph glyph-name="idieresis" unicode="&#xef;" horiz-adv-x="268" 
d="M23 0l94 500h128l-94 -500h-128zM29 631q0 33 22.5 55t55.5 22q28 0 45.5 -17t17.5 -45q0 -33 -22.5 -55.5t-55.5 -22.5q-27 0 -45 17.5t-18 45.5zM241 631q0 33 22.5 55t55.5 22q27 0 44.5 -17t17.5 -45q0 -33 -22 -55.5t-55 -22.5q-28 0 -45.5 17.5t-17.5 45.5z" />
    <glyph glyph-name="eth" unicode="&#xf0;" horiz-adv-x="572" 
d="M32 198q0 136 76 225t192 89q47 0 91 -28q-18 56 -51 104l-143 -44l18 89l72 22q-32 34 -73 64h157q11 -9 31 -29l115 35l-16 -88l-44 -15q86 -123 86 -270q0 -158 -85.5 -261t-216.5 -103q-90 0 -149.5 59t-59.5 151zM164 209q0 -51 26 -82.5t68 -31.5q66 0 109 65.5
t43 151.5q0 25 -3 55q-44 38 -96 38q-63 0 -105 -58t-42 -138z" />
    <glyph glyph-name="ntilde" unicode="&#xf1;" horiz-adv-x="572" 
d="M23 0l94 500h123l-8 -44q71 56 146 56q63 0 104 -41t41 -104q0 -27 -6 -56l-58 -311h-128l56 303q4 20 4 30q0 31 -18.5 49t-50.5 18q-51 0 -106 -52l-65 -348h-128zM178 581q8 57 41.5 92t80.5 35q33 0 71 -28t51 -28q17 0 29 12t16 32h76q-8 -57 -41.5 -92t-80.5 -35
q-33 0 -71 28t-51 28q-18 0 -29.5 -12t-15.5 -32h-76z" />
    <glyph glyph-name="ograve" unicode="&#xf2;" horiz-adv-x="572" 
d="M32 198q0 137 82 225.5t211 88.5q95 0 155 -58.5t60 -151.5q0 -137 -82.5 -225.5t-210.5 -88.5q-95 0 -155 58.5t-60 151.5zM164 209q0 -51 26.5 -82.5t71.5 -31.5q62 0 104 56t42 140q0 52 -26.5 83t-71.5 31q-62 0 -104 -56t-42 -140zM317 557l-96 162h110l80 -162h-94
z" />
    <glyph glyph-name="oacute" unicode="&#xf3;" horiz-adv-x="572" 
d="M32 198q0 137 82 225.5t211 88.5q95 0 155 -58.5t60 -151.5q0 -137 -82.5 -225.5t-210.5 -88.5q-95 0 -155 58.5t-60 151.5zM164 209q0 -51 26.5 -82.5t71.5 -31.5q62 0 104 56t42 140q0 52 -26.5 83t-71.5 31q-62 0 -104 -56t-42 -140zM270 557l138 162h127l-156 -162
h-109z" />
    <glyph glyph-name="ocircumflex" unicode="&#xf4;" horiz-adv-x="572" 
d="M32 198q0 137 82 225.5t211 88.5q95 0 155 -58.5t60 -151.5q0 -137 -82.5 -225.5t-210.5 -88.5q-95 0 -155 58.5t-60 151.5zM164 209q0 -51 26.5 -82.5t71.5 -31.5q62 0 104 56t42 140q0 52 -26.5 83t-71.5 31q-62 0 -104 -56t-42 -140zM173 557l140 162h113l79 -162h-91
l-53 90l-86 -90h-102z" />
    <glyph glyph-name="otilde" unicode="&#xf5;" horiz-adv-x="572" 
d="M32 198q0 137 82 225.5t211 88.5q95 0 155 -58.5t60 -151.5q0 -137 -82.5 -225.5t-210.5 -88.5q-95 0 -155 58.5t-60 151.5zM164 209q0 -51 26.5 -82.5t71.5 -31.5q62 0 104 56t42 140q0 52 -26.5 83t-71.5 31q-62 0 -104 -56t-42 -140zM176 581q8 57 41.5 92t80.5 35
q33 0 71 -28t51 -28q17 0 29 12t16 32h76q-8 -57 -41.5 -92t-80.5 -35q-33 0 -71 28t-51 28q-18 0 -29.5 -12t-15.5 -32h-76z" />
    <glyph glyph-name="odieresis" unicode="&#xf6;" horiz-adv-x="572" 
d="M32 198q0 137 82 225.5t211 88.5q95 0 155 -58.5t60 -151.5q0 -137 -82.5 -225.5t-210.5 -88.5q-95 0 -155 58.5t-60 151.5zM164 209q0 -51 26.5 -82.5t71.5 -31.5q62 0 104 56t42 140q0 52 -26.5 83t-71.5 31q-62 0 -104 -56t-42 -140zM181 631q0 33 22.5 55t55.5 22
q28 0 45.5 -17t17.5 -45q0 -33 -22.5 -55.5t-55.5 -22.5q-27 0 -45 17.5t-18 45.5zM393 631q0 33 22.5 55t55.5 22q27 0 44.5 -17t17.5 -45q0 -33 -22 -55.5t-55 -22.5q-28 0 -45.5 17.5t-17.5 45.5z" />
    <glyph glyph-name="divide" unicode="&#xf7;" 
d="M218 94q0 31 19.5 50.5t50.5 19.5t50.5 -19.5t19.5 -50.5t-19.5 -50.5t-50.5 -19.5t-50.5 19.5t-19.5 50.5zM37 226v111h501v-111h-501zM218 469q0 31 19 50.5t51 19.5q31 0 50.5 -19.5t19.5 -50.5t-19.5 -50.5t-50.5 -19.5t-50.5 19.5t-19.5 50.5z" />
    <glyph glyph-name="oslash" unicode="&#xf8;" horiz-adv-x="572" 
d="M32 193q0 138 83 228.5t210 90.5q76 0 128 -37l24 25h84l-62 -66q41 -54 41 -126q0 -138 -83.5 -229t-209.5 -91q-74 0 -128 38l-24 -26h-84l62 67q-41 52 -41 126zM414 294q0 20 -7 41l-207 -222q26 -21 62 -21q61 0 106.5 60t45.5 142zM158 206q0 -24 7 -41l207 223
q-25 20 -62 20q-61 0 -106.5 -59.5t-45.5 -142.5z" />
    <glyph glyph-name="ugrave" unicode="&#xf9;" horiz-adv-x="572" 
d="M549 500l-94 -500h-122l8 44q-73 -56 -147 -56q-63 0 -104 41.5t-41 103.5q0 25 5 57l59 310h128l-56 -303q-3 -14 -3 -29q0 -32 18 -50t50 -18q51 0 105 52l66 348h128zM315 557l-96 162h110l80 -162h-94z" />
    <glyph glyph-name="uacute" unicode="&#xfa;" horiz-adv-x="572" 
d="M549 500l-94 -500h-122l8 44q-73 -56 -147 -56q-63 0 -104 41.5t-41 103.5q0 25 5 57l59 310h128l-56 -303q-3 -14 -3 -29q0 -32 18 -50t50 -18q51 0 105 52l66 348h128zM268 557l138 162h127l-156 -162h-109z" />
    <glyph glyph-name="ucircumflex" unicode="&#xfb;" horiz-adv-x="572" 
d="M549 500l-94 -500h-122l8 44q-73 -56 -147 -56q-63 0 -104 41.5t-41 103.5q0 25 5 57l59 310h128l-56 -303q-3 -14 -3 -29q0 -32 18 -50t50 -18q51 0 105 52l66 348h128zM171 557l140 162h113l79 -162h-91l-53 90l-86 -90h-102z" />
    <glyph glyph-name="udieresis" unicode="&#xfc;" horiz-adv-x="572" 
d="M549 500l-94 -500h-122l8 44q-73 -56 -147 -56q-63 0 -104 41.5t-41 103.5q0 25 5 57l59 310h128l-56 -303q-3 -14 -3 -29q0 -32 18 -50t50 -18q51 0 105 52l66 348h128zM179 631q0 33 22.5 55t55.5 22q28 0 45.5 -17t17.5 -45q0 -33 -22.5 -55.5t-55.5 -22.5
q-27 0 -45 17.5t-18 45.5zM391 631q0 33 22.5 55t55.5 22q27 0 44.5 -17t17.5 -45q0 -33 -22 -55.5t-55 -22.5q-28 0 -45.5 17.5t-17.5 45.5z" />
    <glyph glyph-name="yacute" unicode="&#xfd;" horiz-adv-x="501" 
d="M540 500l-408 -719h-132l145 239l-92 480h122l53 -331l174 331h138zM231 557l138 162h127l-156 -162h-109z" />
    <glyph glyph-name="thorn" unicode="&#xfe;" horiz-adv-x="572" 
d="M-18 -219l176 938h128l-46 -248q58 41 120 41q80 0 130 -56.5t50 -146.5q0 -138 -73.5 -229.5t-183.5 -91.5q-64 0 -126 45l-47 -252h-128zM408 293q0 52 -24 80.5t-68 28.5q-49 0 -98 -46l-42 -221q43 -37 90 -37q61 0 101.5 55.5t40.5 139.5z" />
    <glyph glyph-name="ydieresis" unicode="&#xff;" horiz-adv-x="501" 
d="M540 500l-408 -719h-132l145 239l-92 480h122l53 -331l174 331h138zM142 631q0 33 22.5 55t55.5 22q28 0 45.5 -17t17.5 -45q0 -33 -22.5 -55.5t-55.5 -22.5q-27 0 -45 17.5t-18 45.5zM354 631q0 33 22.5 55t55.5 22q27 0 44.5 -17t17.5 -45q0 -33 -22 -55.5t-55 -22.5
q-28 0 -45.5 17.5t-17.5 45.5z" />
    <glyph glyph-name="Amacron" unicode="&#x100;" horiz-adv-x="642" 
d="M-38 0l390 688h109l134 -688h-121l-29 165h-258l-90 -165h-135zM384 524l-143 -261h188zM256 783l17 87h335l-17 -87h-335z" />
    <glyph glyph-name="amacron" unicode="&#x101;" horiz-adv-x="572" 
d="M549 500l-94 -500h-122l6 33q-64 -45 -127 -45q-80 0 -130 56.5t-50 147.5q0 137 73.5 228.5t183.5 91.5q66 0 125 -45l7 33h128zM164 208q0 -52 24.5 -81t67.5 -29q49 0 98 47l41 220q-40 37 -89 37q-61 0 -101.5 -55t-40.5 -139zM182 595l17 87h335l-17 -87h-335z" />
    <glyph glyph-name="Abreve" unicode="&#x102;" horiz-adv-x="642" 
d="M-38 0l390 688h109l134 -688h-121l-29 165h-258l-90 -165h-135zM384 524l-143 -261h188zM294 907h78q-1 -6 -1 -17q0 -27 19 -44.5t49 -17.5q33 0 56 22t28 57h82q-10 -78 -56.5 -121t-120.5 -43q-58 0 -97.5 37.5t-39.5 91.5q0 17 3 35z" />
    <glyph glyph-name="abreve" unicode="&#x103;" horiz-adv-x="572" 
d="M549 500l-94 -500h-122l6 33q-64 -45 -127 -45q-80 0 -130 56.5t-50 147.5q0 137 73.5 228.5t183.5 91.5q66 0 125 -45l7 33h128zM164 208q0 -52 24.5 -81t67.5 -29q49 0 98 47l41 220q-40 37 -89 37q-61 0 -101.5 -55t-40.5 -139zM220 719h78q-1 -6 -1 -17
q0 -27 19 -44.5t49 -17.5q33 0 56 22t28 57h82q-10 -78 -56.5 -121t-120.5 -43q-58 0 -97.5 37.5t-39.5 91.5q0 17 3 35z" />
    <glyph glyph-name="Aogonek" unicode="&#x104;" horiz-adv-x="642" 
d="M502 0h-28l-29 165h-258l-90 -165h-135l390 688h109l134 -688q-102 -52 -102 -108q0 -16 12.5 -27t29.5 -11t34 7l-15 -76q-28 -11 -62 -11q-41 0 -69 24t-28 60q0 89 107 142zM384 524l-143 -261h188z" />
    <glyph glyph-name="aogonek" unicode="&#x105;" horiz-adv-x="572" 
d="M362 0h-29l6 33q-64 -45 -127 -45q-80 0 -130 56.5t-50 147.5q0 137 73.5 228.5t183.5 91.5q66 0 125 -45l7 33h128l-94 -500q-102 -52 -102 -108q0 -16 12.5 -27t29.5 -11t34 7l-15 -76q-27 -11 -62 -11q-41 0 -69 24t-28 60q0 89 107 142zM164 208q0 -52 24.5 -81
t67.5 -29q49 0 98 47l41 220q-40 37 -89 37q-61 0 -101.5 -55t-40.5 -139z" />
    <glyph glyph-name="Cacute" unicode="&#x106;" horiz-adv-x="614" 
d="M56 269q0 188 109 309.5t277 121.5q104 0 201 -59l-22 -113q-86 62 -171 62q-113 0 -186.5 -86t-73.5 -219q0 -85 49 -136t131 -51q88 0 180 54l-21 -121q-87 -43 -193 -43q-122 0 -201 79.5t-79 201.5zM374 745l138 162h127l-156 -162h-109z" />
    <glyph glyph-name="cacute" unicode="&#x107;" horiz-adv-x="477" 
d="M32 198q0 137 83 225.5t210 88.5q78 0 152 -43l-20 -109q-61 45 -124 45q-73 0 -121 -53.5t-48 -136.5q0 -54 32 -87t85 -33q66 0 133 38l-21 -113q-70 -32 -146 -32q-94 0 -154.5 59t-60.5 151zM259 557l138 162h127l-156 -162h-109z" />
    <glyph glyph-name="Ccircumflex" unicode="&#x108;" horiz-adv-x="614" 
d="M56 269q0 188 109 309.5t277 121.5q104 0 201 -59l-22 -113q-86 62 -171 62q-113 0 -186.5 -86t-73.5 -219q0 -85 49 -136t131 -51q88 0 180 54l-21 -121q-87 -43 -193 -43q-122 0 -201 79.5t-79 201.5zM277 745l140 162h113l79 -162h-91l-53 90l-86 -90h-102z" />
    <glyph glyph-name="ccircumflex" unicode="&#x109;" horiz-adv-x="477" 
d="M32 198q0 137 83 225.5t210 88.5q78 0 152 -43l-20 -109q-61 45 -124 45q-73 0 -121 -53.5t-48 -136.5q0 -54 32 -87t85 -33q66 0 133 38l-21 -113q-70 -32 -146 -32q-94 0 -154.5 59t-60.5 151zM162 557l140 162h113l79 -162h-91l-53 90l-86 -90h-102z" />
    <glyph glyph-name="Cdotaccent" unicode="&#x10a;" horiz-adv-x="614" 
d="M56 269q0 188 109 309.5t277 121.5q104 0 201 -59l-22 -113q-86 62 -171 62q-113 0 -186.5 -86t-73.5 -219q0 -85 49 -136t131 -51q88 0 180 54l-21 -121q-87 -43 -193 -43q-122 0 -201 79.5t-79 201.5zM389 819q0 34 23 57t57 23q29 0 47 -18.5t18 -46.5q0 -34 -23 -57
t-57 -23q-28 0 -46.5 18t-18.5 47z" />
    <glyph glyph-name="cdotaccent" unicode="&#x10b;" horiz-adv-x="477" 
d="M32 198q0 137 83 225.5t210 88.5q78 0 152 -43l-20 -109q-61 45 -124 45q-73 0 -121 -53.5t-48 -136.5q0 -54 32 -87t85 -33q66 0 133 38l-21 -113q-70 -32 -146 -32q-94 0 -154.5 59t-60.5 151zM274 631q0 34 23 57t57 23q28 0 46.5 -18.5t18.5 -46.5q0 -34 -23 -57
t-57 -23q-29 0 -47 18t-18 47z" />
    <glyph glyph-name="Ccaron" unicode="&#x10c;" horiz-adv-x="614" 
d="M56 269q0 188 109 309.5t277 121.5q104 0 201 -59l-22 -113q-86 62 -171 62q-113 0 -186.5 -86t-73.5 -219q0 -85 49 -136t131 -51q88 0 180 54l-21 -121q-87 -43 -193 -43q-122 0 -201 79.5t-79 201.5zM645 907l-139 -162h-113l-79 162h91l53 -90l86 90h101z" />
    <glyph glyph-name="ccaron" unicode="&#x10d;" horiz-adv-x="477" 
d="M32 198q0 137 83 225.5t210 88.5q78 0 152 -43l-20 -109q-61 45 -124 45q-73 0 -121 -53.5t-48 -136.5q0 -54 32 -87t85 -33q66 0 133 38l-21 -113q-70 -32 -146 -32q-94 0 -154.5 59t-60.5 151zM530 719l-139 -162h-113l-79 162h91l53 -90l86 90h101z" />
    <glyph glyph-name="Dcaron" unicode="&#x10e;" horiz-adv-x="705" 
d="M43 0l128 688h226q128 0 207.5 -74.5t79.5 -193.5q0 -191 -106.5 -305.5t-285.5 -114.5h-249zM282 581l-88 -474h107q109 0 179 84.5t70 217.5q0 80 -46.5 126t-128.5 46h-93zM627 907l-139 -162h-113l-79 162h91l53 -90l86 90h101z" />
    <glyph glyph-name="dcaron" unicode="&#x10f;" horiz-adv-x="572" 
d="M590 719l-135 -719h-122l6 33q-64 -45 -127 -45q-80 0 -130 56.5t-50 147.5q0 137 73.5 228.5t183.5 91.5q66 0 125 -45l48 252h128zM164 208q0 -52 24.5 -81t67.5 -29q49 0 98 47l41 220q-40 37 -89 37q-61 0 -101.5 -55t-40.5 -139zM594 557l86 162h110l-99 -162h-97z
" />
    <glyph glyph-name="Dcroat" unicode="&#x110;" horiz-adv-x="720" 
d="M31 306l16 88h85l55 294h226q127 0 207 -74.5t80 -193.5q0 -191 -107 -305.5t-285 -114.5h-250l57 306h-84zM298 581l-34 -187h139l-16 -88h-140l-38 -199h108q109 0 178.5 84.5t69.5 217.5q0 80 -46.5 126t-127.5 46h-93z" />
    <glyph glyph-name="dcroat" unicode="&#x111;" horiz-adv-x="572" 
d="M590 719l-12 -63h67l-16 -87h-67l-107 -569h-122l6 33q-64 -45 -127 -45q-80 0 -130 56.5t-50 147.5q0 137 73.5 228.5t183.5 91.5q66 0 125 -45l19 102h-150l17 87h150l12 63h128zM164 208q0 -52 24.5 -81t67.5 -29q49 0 98 47l41 220q-40 37 -89 37q-61 0 -101.5 -55
t-40.5 -139z" />
    <glyph glyph-name="Emacron" unicode="&#x112;" horiz-adv-x="556" 
d="M43 0l129 688h408l-19 -107h-278l-33 -179h237l-18 -105h-239l-36 -190h285l-20 -107h-416zM222 783l17 87h335l-17 -87h-335z" />
    <glyph glyph-name="emacron" unicode="&#x113;" horiz-adv-x="520" 
d="M32 197q0 138 78 226.5t199 88.5q82 0 134 -53.5t52 -138.5q0 -53 -13 -105h-325q-1 -4 -1 -15q0 -51 34 -82t91 -31q72 0 152 46l-20 -110q-81 -35 -166 -35q-94 0 -154.5 59t-60.5 150zM171 298h205q2 18 2 28q0 39 -21.5 63t-57.5 24q-45 0 -80 -31t-48 -84zM167 595
l17 87h335l-17 -87h-335z" />
    <glyph glyph-name="Ebreve" unicode="&#x114;" horiz-adv-x="556" 
d="M43 0l129 688h408l-19 -107h-278l-33 -179h237l-18 -105h-239l-36 -190h285l-20 -107h-416zM260 907h78q-1 -6 -1 -17q0 -27 19 -44.5t49 -17.5q33 0 56 22t28 57h82q-10 -78 -56.5 -121t-120.5 -43q-58 0 -97.5 37.5t-39.5 91.5q0 17 3 35z" />
    <glyph glyph-name="ebreve" unicode="&#x115;" horiz-adv-x="520" 
d="M32 197q0 138 78 226.5t199 88.5q82 0 134 -53.5t52 -138.5q0 -53 -13 -105h-325q-1 -4 -1 -15q0 -51 34 -82t91 -31q72 0 152 46l-20 -110q-81 -35 -166 -35q-94 0 -154.5 59t-60.5 150zM171 298h205q2 18 2 28q0 39 -21.5 63t-57.5 24q-45 0 -80 -31t-48 -84zM205 719
h78q-1 -6 -1 -17q0 -27 19 -44.5t49 -17.5q33 0 56 22t28 57h82q-10 -78 -56.5 -121t-120.5 -43q-58 0 -97.5 37.5t-39.5 91.5q0 17 3 35z" />
    <glyph glyph-name="Edotaccent" unicode="&#x116;" horiz-adv-x="556" 
d="M43 0l129 688h408l-19 -107h-278l-33 -179h237l-18 -105h-239l-36 -190h285l-20 -107h-416zM325 819q0 34 23 57t57 23q29 0 47 -18.5t18 -46.5q0 -34 -23 -57t-57 -23q-28 0 -46.5 18t-18.5 47z" />
    <glyph glyph-name="edotaccent" unicode="&#x117;" horiz-adv-x="520" 
d="M32 197q0 138 78 226.5t199 88.5q82 0 134 -53.5t52 -138.5q0 -53 -13 -105h-325q-1 -4 -1 -15q0 -51 34 -82t91 -31q72 0 152 46l-20 -110q-81 -35 -166 -35q-94 0 -154.5 59t-60.5 150zM171 298h205q2 18 2 28q0 39 -21.5 63t-57.5 24q-45 0 -80 -31t-48 -84zM270 631
q0 34 23 57t57 23q28 0 46.5 -18.5t18.5 -46.5q0 -34 -23 -57t-57 -23q-29 0 -47 18t-18 47z" />
    <glyph glyph-name="Eogonek" unicode="&#x118;" horiz-adv-x="556" 
d="M43 0l129 688h408l-19 -107h-278l-33 -179h237l-18 -105h-239l-36 -190h285l-20 -107q-102 -52 -102 -108q0 -16 12.5 -27t29.5 -11t34 7l-15 -76q-27 -11 -62 -11q-41 0 -69 24t-28 60q0 89 107 142h-323z" />
    <glyph glyph-name="eogonek" unicode="&#x119;" horiz-adv-x="520" 
d="M32 197q0 138 78 226.5t199 88.5q82 0 134 -53.5t52 -138.5q0 -53 -13 -105h-325q-1 -4 -1 -15q0 -51 34 -82t91 -31q72 0 152 46l-20 -110q-105 -56 -105 -127q0 -17 12 -29.5t28 -12.5q20 0 35 7l-14 -76q-29 -11 -64 -11q-40 0 -67.5 25.5t-27.5 62.5q0 79 82 129
q-24 -3 -45 -3q-94 0 -154.5 59t-60.5 150zM171 298h204q3 15 3 28q0 39 -21.5 63t-57.5 24q-45 0 -80 -31t-48 -84z" />
    <glyph glyph-name="Ecaron" unicode="&#x11a;" horiz-adv-x="556" 
d="M43 0l129 688h408l-19 -107h-278l-33 -179h237l-18 -105h-239l-36 -190h285l-20 -107h-416zM581 907l-139 -162h-113l-79 162h91l53 -90l86 90h101z" />
    <glyph glyph-name="ecaron" unicode="&#x11b;" horiz-adv-x="520" 
d="M32 197q0 138 78 226.5t199 88.5q82 0 134 -53.5t52 -138.5q0 -53 -13 -105h-325q-1 -4 -1 -15q0 -51 34 -82t91 -31q72 0 152 46l-20 -110q-81 -35 -166 -35q-94 0 -154.5 59t-60.5 150zM171 298h205q2 18 2 28q0 39 -21.5 63t-57.5 24q-45 0 -80 -31t-48 -84zM526 719
l-139 -162h-113l-79 162h91l53 -90l86 90h101z" />
    <glyph glyph-name="Gcircumflex" unicode="&#x11c;" horiz-adv-x="685" 
d="M644 371l-63 -335q-120 -48 -234 -48q-128 0 -209.5 79t-81.5 202q0 189 110.5 310t283.5 121q109 0 215 -66l-22 -115q-93 71 -188 71q-116 0 -191.5 -86t-75.5 -219q0 -83 49.5 -135t129.5 -52q52 0 106 20l30 154h-140l19 99h262zM296 745l140 162h113l79 -162h-91
l-53 90l-86 -90h-102z" />
    <glyph glyph-name="gcircumflex" unicode="&#x11d;" horiz-adv-x="572" 
d="M549 500l-96 -510q-19 -102 -90.5 -161.5t-175.5 -59.5q-96 0 -186 48l21 106q83 -53 164 -53q51 0 89.5 32.5t48.5 84.5l8 43q-59 -42 -120 -42q-80 0 -130 56.5t-50 147.5q0 137 73.5 228.5t183.5 91.5q66 0 125 -45l7 33h128zM164 208q0 -52 24.5 -81t67.5 -29
q49 0 98 47l41 220q-40 37 -89 37q-61 0 -101.5 -55t-40.5 -139zM173 557l140 162h113l79 -162h-91l-53 90l-86 -90h-102z" />
    <glyph glyph-name="Gbreve" unicode="&#x11e;" horiz-adv-x="685" 
d="M644 371l-63 -335q-120 -48 -234 -48q-128 0 -209.5 79t-81.5 202q0 189 110.5 310t283.5 121q109 0 215 -66l-22 -115q-93 71 -188 71q-116 0 -191.5 -86t-75.5 -219q0 -83 49.5 -135t129.5 -52q52 0 106 20l30 154h-140l19 99h262zM343 907h78q-1 -6 -1 -17
q0 -27 19 -44.5t49 -17.5q33 0 56 22t28 57h82q-10 -78 -56.5 -121t-120.5 -43q-58 0 -97.5 37.5t-39.5 91.5q0 17 3 35z" />
    <glyph glyph-name="gbreve" unicode="&#x11f;" horiz-adv-x="572" 
d="M549 500l-96 -510q-19 -102 -90.5 -161.5t-175.5 -59.5q-96 0 -186 48l21 106q83 -53 164 -53q51 0 89.5 32.5t48.5 84.5l8 43q-59 -42 -120 -42q-80 0 -130 56.5t-50 147.5q0 137 73.5 228.5t183.5 91.5q66 0 125 -45l7 33h128zM164 208q0 -52 24.5 -81t67.5 -29
q49 0 98 47l41 220q-40 37 -89 37q-61 0 -101.5 -55t-40.5 -139zM220 719h78q-1 -6 -1 -17q0 -27 19 -44.5t49 -17.5q33 0 56 22t28 57h82q-10 -78 -56.5 -121t-120.5 -43q-58 0 -97.5 37.5t-39.5 91.5q0 17 3 35z" />
    <glyph glyph-name="Gdotaccent" unicode="&#x120;" horiz-adv-x="685" 
d="M644 371l-63 -335q-120 -48 -234 -48q-128 0 -209.5 79t-81.5 202q0 189 110.5 310t283.5 121q109 0 215 -66l-22 -115q-93 71 -188 71q-116 0 -191.5 -86t-75.5 -219q0 -83 49.5 -135t129.5 -52q52 0 106 20l30 154h-140l19 99h262zM408 819q0 34 23 57t57 23
q28 0 46.5 -18.5t18.5 -46.5q0 -34 -23 -57t-57 -23q-29 0 -47 18t-18 47z" />
    <glyph glyph-name="gdotaccent" unicode="&#x121;" horiz-adv-x="572" 
d="M549 500l-96 -510q-19 -102 -90.5 -161.5t-175.5 -59.5q-96 0 -186 48l21 106q83 -53 164 -53q51 0 89.5 32.5t48.5 84.5l8 43q-59 -42 -120 -42q-80 0 -130 56.5t-50 147.5q0 137 73.5 228.5t183.5 91.5q66 0 125 -45l7 33h128zM164 208q0 -52 24.5 -81t67.5 -29
q49 0 98 47l41 220q-40 37 -89 37q-61 0 -101.5 -55t-40.5 -139zM285 631q0 34 23 57t57 23q29 0 47 -18.5t18 -46.5q0 -34 -23 -57t-57 -23q-28 0 -46.5 18t-18.5 47z" />
    <glyph glyph-name="Gcommaaccent" unicode="&#x122;" horiz-adv-x="685" 
d="M644 371l-63 -335q-120 -48 -234 -48q-128 0 -209.5 79t-81.5 202q0 189 110.5 310t283.5 121q109 0 215 -66l-22 -115q-93 71 -188 71q-116 0 -191.5 -86t-75.5 -219q0 -83 49.5 -135t129.5 -52q52 0 106 20l30 154h-140l19 99h262zM170 -242l99 185h118l-115 -185h-102
z" />
    <glyph glyph-name="gcommaaccent" unicode="&#x123;" horiz-adv-x="572" 
d="M549 500l-96 -510q-19 -102 -90.5 -161.5t-175.5 -59.5q-96 0 -186 48l21 106q83 -53 164 -53q51 0 89.5 32.5t48.5 84.5l8 43q-59 -42 -120 -42q-80 0 -130 56.5t-50 147.5q0 137 73.5 228.5t183.5 91.5q66 0 125 -45l7 33h128zM164 208q0 -52 24.5 -81t67.5 -29
q49 0 98 47l41 220q-40 37 -89 37q-61 0 -101.5 -55t-40.5 -139zM490 743l-99 -186h-118l115 186h102z" />
    <glyph glyph-name="Hcircumflex" unicode="&#x124;" horiz-adv-x="736" 
d="M43 0l129 688h131l-53 -285h294l54 285h131l-129 -688h-132l56 297h-295l-56 -297h-130zM290 745l140 162h113l79 -162h-91l-53 90l-86 -90h-102z" />
    <glyph glyph-name="hcircumflex" unicode="&#x125;" horiz-adv-x="572" 
d="M23 0l135 719h128l-49 -259q67 52 141 52q63 0 104 -41t41 -104q0 -27 -6 -56l-58 -311h-128l56 303q4 20 4 30q0 31 -18.5 49t-50.5 18q-51 0 -106 -52l-65 -348h-128zM62 776l140 162h113l79 -162h-91l-53 90l-86 -90h-102z" />
    <glyph glyph-name="Hbar" unicode="&#x126;" horiz-adv-x="736" 
d="M43 0l91 490h-79l16 87h80l21 111h131l-21 -111h295l21 111h131l-21 -111h79l-16 -87h-79l-92 -490h-132l56 297h-295l-56 -297h-130zM265 490l-15 -87h294l16 87h-295z" />
    <glyph glyph-name="hbar" unicode="&#x127;" horiz-adv-x="572" 
d="M23 0l107 569h-68l17 87h68l11 63h128l-11 -63h149l-16 -87h-150l-21 -109q67 52 141 52q63 0 104 -41t41 -104q0 -27 -6 -56l-58 -311h-128l56 303q4 20 4 30q0 31 -18.5 49t-50.5 18q-51 0 -106 -52l-65 -348h-128z" />
    <glyph glyph-name="Itilde" unicode="&#x128;" horiz-adv-x="310" 
d="M43 0l129 688h131l-130 -688h-130zM80 769q8 57 41.5 92t80.5 35q33 0 71 -28t51 -28q17 0 29 12t16 32h76q-8 -57 -41.5 -92t-80.5 -35q-33 0 -71 28t-51 28q-18 0 -29.5 -12t-15.5 -32h-76z" />
    <glyph glyph-name="itilde" unicode="&#x129;" horiz-adv-x="268" 
d="M23 0l94 500h128l-94 -500h-128zM24 581q8 57 41.5 92t80.5 35q33 0 71 -28t51 -28q17 0 29 12t16 32h76q-8 -57 -41.5 -92t-80.5 -35q-33 0 -71 28t-51 28q-18 0 -29.5 -12t-15.5 -32h-76z" />
    <glyph glyph-name="Imacron" unicode="&#x12a;" horiz-adv-x="310" 
d="M43 0l129 688h131l-130 -688h-130zM86 783l17 87h335l-17 -87h-335z" />
    <glyph glyph-name="imacron" unicode="&#x12b;" horiz-adv-x="268" 
d="M23 0l94 500h128l-94 -500h-128zM30 595l17 87h335l-17 -87h-335z" />
    <glyph glyph-name="Ibreve" unicode="&#x12c;" horiz-adv-x="310" 
d="M43 0l129 688h131l-130 -688h-130zM124 907h78q-1 -6 -1 -17q0 -27 19 -44.5t49 -17.5q33 0 56 22t28 57h82q-10 -78 -56.5 -121t-120.5 -43q-58 0 -97.5 37.5t-39.5 91.5q0 17 3 35z" />
    <glyph glyph-name="ibreve" unicode="&#x12d;" horiz-adv-x="268" 
d="M23 0l94 500h128l-94 -500h-128zM68 719h78q-1 -6 -1 -17q0 -27 19 -44.5t49 -17.5q33 0 56 22t28 57h82q-10 -78 -56.5 -121t-120.5 -43q-58 0 -97.5 37.5t-39.5 91.5q0 17 3 35z" />
    <glyph glyph-name="Iogonek" unicode="&#x12e;" horiz-adv-x="313" 
d="M44 0l129 688h131l-130 -688q-102 -52 -102 -108q0 -16 12.5 -27t29.5 -11t34 7l-15 -76q-28 -11 -62 -11q-41 0 -69 24t-28 60q0 89 107 142h-37z" />
    <glyph glyph-name="iogonek" unicode="&#x12f;" horiz-adv-x="268" 
d="M23 0l94 500h128l-94 -500q-102 -52 -102 -108q0 -16 12.5 -27t29.5 -11t34 7l-15 -76q-28 -11 -62 -11q-41 0 -69 24t-28 60q0 89 107 142h-35zM133 631q0 34 23 57t57 23q29 0 47 -18.5t18 -46.5q0 -34 -23.5 -57t-57.5 -23q-28 0 -46 18t-18 47z" />
    <glyph glyph-name="Idotaccent" unicode="&#x130;" horiz-adv-x="310" 
d="M43 0l129 688h131l-130 -688h-130zM189 819q0 34 23 57t57 23q29 0 47 -18.5t18 -46.5q0 -34 -23 -57t-57 -23q-28 0 -46.5 18t-18.5 47z" />
    <glyph glyph-name="dotlessi" unicode="&#x131;" horiz-adv-x="268" 
d="M23 0l94 500h128l-94 -500h-128z" />
    <glyph glyph-name="Jcircumflex" unicode="&#x134;" horiz-adv-x="475" 
d="M472 688l-96 -512q-16 -88 -76 -138t-149 -50q-77 0 -156 40l21 107q59 -37 117 -37q45 0 76 26.5t39 71.5l92 492h132zM246 745l140 162h113l79 -162h-91l-53 90l-86 -90h-102z" />
    <glyph glyph-name="jcircumflex" unicode="&#x135;" horiz-adv-x="268" 
d="M245 500l-109 -582q-14 -71 -60 -110t-116 -39q-55 0 -119 28l20 101q41 -22 76 -22q29 0 49.5 17t25.5 45l105 562h128zM21 557l140 162h113l79 -162h-91l-53 90l-86 -90h-102z" />
    <glyph glyph-name="Kcommaaccent" unicode="&#x136;" horiz-adv-x="635" 
d="M43 0l129 688h128l-52 -281l295 281h165l-364 -343l246 -345h-149l-213 302l-57 -302h-128zM113 -242l99 185h118l-115 -185h-102z" />
    <glyph glyph-name="kcommaaccent" unicode="&#x137;" horiz-adv-x="508" 
d="M23 0l135 719h125l-76 -404l184 185h153l-250 -249l164 -251h-142l-129 204l-39 -204h-125zM51 -242l99 185h118l-115 -185h-102z" />
    <glyph glyph-name="kgreenlandic" unicode="&#x138;" horiz-adv-x="508" 
d="M23 0l94 500h125l-35 -185l184 185h153l-250 -249l164 -251h-142l-129 204l-39 -204h-125z" />
    <glyph glyph-name="Lacute" unicode="&#x139;" horiz-adv-x="506" 
d="M43 0l129 688h131l-109 -581h267l-20 -107h-398zM174 745l138 162h127l-156 -162h-109z" />
    <glyph glyph-name="lacute" unicode="&#x13a;" horiz-adv-x="268" 
d="M23 0l135 719h128l-135 -719h-128zM159 776l138 162h127l-156 -162h-109z" />
    <glyph glyph-name="Lcommaaccent" unicode="&#x13b;" horiz-adv-x="506" 
d="M43 0l129 688h131l-109 -581h267l-20 -107h-398zM72 -242l99 185h118l-115 -185h-102z" />
    <glyph glyph-name="lcommaaccent" unicode="&#x13c;" horiz-adv-x="268" 
d="M23 0l135 719h128l-135 -719h-128zM-70 -242l99 185h118l-115 -185h-102z" />
    <glyph glyph-name="Lcaron" unicode="&#x13d;" horiz-adv-x="506" 
d="M43 0l129 688h131l-109 -581h267l-20 -107h-398zM328 557l86 162h110l-99 -162h-97z" />
    <glyph glyph-name="lcaron" unicode="&#x13e;" horiz-adv-x="268" 
d="M23 0l135 719h128l-135 -719h-128zM291 557l86 162h110l-99 -162h-97z" />
    <glyph glyph-name="Ldot" unicode="&#x13f;" horiz-adv-x="506" 
d="M43 0l129 688h131l-109 -581h267l-20 -107h-398zM357 355q0 34 23 57t57 23q29 0 47 -18.5t18 -46.5q0 -34 -23 -57t-57 -23q-28 0 -46.5 18t-18.5 47z" />
    <glyph glyph-name="ldot" unicode="&#x140;" horiz-adv-x="399" 
d="M23 0l135 719h128l-135 -719h-128zM279 343q0 34 23 57t57 23q29 0 47 -18.5t18 -46.5q0 -34 -23 -57t-57 -23q-28 0 -46.5 18t-18.5 47z" />
    <glyph glyph-name="Lslash" unicode="&#x141;" horiz-adv-x="537" 
d="M74 0l46 250l-81 -32l20 106l81 33l63 331h131l-52 -274l148 59l-20 -106l-148 -59l-36 -201h266l-19 -107h-399z" />
    <glyph glyph-name="lslash" unicode="&#x142;" horiz-adv-x="314" 
d="M46 0l53 283l-91 -38l19 106l92 37l62 331h128l-52 -274l92 37l-20 -105l-91 -38l-64 -339h-128z" />
    <glyph glyph-name="Nacute" unicode="&#x143;" horiz-adv-x="736" 
d="M43 0l129 688h107l237 -480l89 480h124l-129 -688h-108l-237 480l-89 -480h-123zM387 745l138 162h127l-156 -162h-109z" />
    <glyph glyph-name="nacute" unicode="&#x144;" horiz-adv-x="572" 
d="M23 0l94 500h123l-8 -44q71 56 146 56q63 0 104 -41t41 -104q0 -27 -6 -56l-58 -311h-128l56 303q4 20 4 30q0 31 -18.5 49t-50.5 18q-51 0 -106 -52l-65 -348h-128zM272 557l138 162h127l-156 -162h-109z" />
    <glyph glyph-name="Ncommaaccent" unicode="&#x145;" horiz-adv-x="736" 
d="M43 0l129 688h107l237 -480l89 480h124l-129 -688h-108l-237 480l-89 -480h-123zM164 -242l99 185h118l-115 -185h-102z" />
    <glyph glyph-name="ncommaaccent" unicode="&#x146;" horiz-adv-x="572" 
d="M23 0l94 500h123l-8 -44q71 56 146 56q63 0 104 -41t41 -104q0 -27 -6 -56l-58 -311h-128l56 303q4 20 4 30q0 31 -18.5 49t-50.5 18q-51 0 -106 -52l-65 -348h-128zM84 -242l99 185h118l-115 -185h-102z" />
    <glyph glyph-name="Ncaron" unicode="&#x147;" horiz-adv-x="736" 
d="M43 0l129 688h107l237 -480l89 480h124l-129 -688h-108l-237 480l-89 -480h-123zM658 907l-139 -162h-113l-79 162h91l53 -90l86 90h101z" />
    <glyph glyph-name="ncaron" unicode="&#x148;" horiz-adv-x="572" 
d="M23 0l94 500h123l-8 -44q71 56 146 56q63 0 104 -41t41 -104q0 -27 -6 -56l-58 -311h-128l56 303q4 20 4 30q0 31 -18.5 49t-50.5 18q-51 0 -106 -52l-65 -348h-128zM543 719l-139 -162h-113l-79 162h91l53 -90l86 90h101z" />
    <glyph glyph-name="Eng" unicode="&#x14a;" horiz-adv-x="736" 
d="M43 0l129 688h107l237 -480l89 480h124l-137 -731q-17 -87 -77 -137.5t-148 -50.5q-77 0 -156 40l21 107q59 -37 118 -37q45 0 76.5 26.5t40.5 71.5l10 54l-221 449l-90 -480h-123z" />
    <glyph glyph-name="eng" unicode="&#x14b;" horiz-adv-x="572" 
d="M23 0l94 500h123l-8 -44q71 56 146 56q63 0 104 -41t41 -104q0 -27 -6 -56l-73 -393q-13 -70 -59.5 -109.5t-116.5 -39.5q-59 0 -119 29l19 100q42 -22 77 -22q28 0 49 17t26 45l67 365q4 20 4 30q0 31 -18.5 49t-50.5 18q-51 0 -106 -52l-65 -348h-128z" />
    <glyph glyph-name="Omacron" unicode="&#x14c;" horiz-adv-x="736" 
d="M56 268q0 189 107.5 310.5t274.5 121.5q125 0 201.5 -77t76.5 -203q0 -189 -108 -310.5t-275 -121.5q-124 0 -200.5 77.5t-76.5 202.5zM190 279q0 -82 42.5 -131.5t112.5 -49.5q98 0 167 90.5t69 220.5q0 82 -42 131.5t-113 49.5q-97 0 -166.5 -90.5t-69.5 -220.5z
M299 783l17 87h335l-17 -87h-335z" />
    <glyph glyph-name="omacron" unicode="&#x14d;" horiz-adv-x="572" 
d="M32 198q0 137 82 225.5t211 88.5q95 0 155 -58.5t60 -151.5q0 -137 -82.5 -225.5t-210.5 -88.5q-95 0 -155 58.5t-60 151.5zM164 209q0 -51 26.5 -82.5t71.5 -31.5q62 0 104 56t42 140q0 52 -26.5 83t-71.5 31q-62 0 -104 -56t-42 -140zM182 595l17 87h335l-17 -87h-335z
" />
    <glyph glyph-name="Obreve" unicode="&#x14e;" horiz-adv-x="736" 
d="M56 268q0 189 107.5 310.5t274.5 121.5q125 0 201.5 -77t76.5 -203q0 -189 -108 -310.5t-275 -121.5q-124 0 -200.5 77.5t-76.5 202.5zM190 279q0 -82 42.5 -131.5t112.5 -49.5q98 0 167 90.5t69 220.5q0 82 -42 131.5t-113 49.5q-97 0 -166.5 -90.5t-69.5 -220.5z
M337 907h78q-1 -6 -1 -17q0 -27 19 -44.5t49 -17.5q33 0 56 22t28 57h82q-10 -78 -56.5 -121t-120.5 -43q-58 0 -97.5 37.5t-39.5 91.5q0 17 3 35z" />
    <glyph glyph-name="obreve" unicode="&#x14f;" horiz-adv-x="572" 
d="M32 198q0 137 82 225.5t211 88.5q95 0 155 -58.5t60 -151.5q0 -137 -82.5 -225.5t-210.5 -88.5q-95 0 -155 58.5t-60 151.5zM164 209q0 -51 26.5 -82.5t71.5 -31.5q62 0 104 56t42 140q0 52 -26.5 83t-71.5 31q-62 0 -104 -56t-42 -140zM220 719h78q-1 -6 -1 -17
q0 -27 19 -44.5t49 -17.5q33 0 56 22t28 57h82q-10 -78 -56.5 -121t-120.5 -43q-58 0 -97.5 37.5t-39.5 91.5q0 17 3 35z" />
    <glyph glyph-name="Ohungarumlaut" unicode="&#x150;" horiz-adv-x="736" 
d="M56 268q0 189 107.5 310.5t274.5 121.5q125 0 201.5 -77t76.5 -203q0 -189 -108 -310.5t-275 -121.5q-124 0 -200.5 77.5t-76.5 202.5zM190 279q0 -82 42.5 -131.5t112.5 -49.5q98 0 167 90.5t69 220.5q0 82 -42 131.5t-113 49.5q-97 0 -166.5 -90.5t-69.5 -220.5z
M486 745l139 162h126l-155 -162h-110zM286 745l139 162h127l-156 -162h-110z" />
    <glyph glyph-name="ohungarumlaut" unicode="&#x151;" horiz-adv-x="572" 
d="M32 198q0 137 82 225.5t211 88.5q95 0 155 -58.5t60 -151.5q0 -137 -82.5 -225.5t-210.5 -88.5q-95 0 -155 58.5t-60 151.5zM164 209q0 -51 26.5 -82.5t71.5 -31.5q62 0 104 56t42 140q0 52 -26.5 83t-71.5 31q-62 0 -104 -56t-42 -140zM369 557l139 162h126l-155 -162
h-110zM169 557l139 162h127l-156 -162h-110z" />
    <glyph glyph-name="OE" unicode="&#x152;" horiz-adv-x="931" 
d="M955 688l-19 -107h-278l-34 -179h239l-20 -105h-238l-36 -190h285l-20 -107h-491q-128 0 -207.5 74.5t-79.5 193.5q0 192 106.5 306t286.5 114h506zM438 107l88 474h-87q-110 0 -179.5 -84.5t-69.5 -217.5q0 -79 47 -125.5t128 -46.5h73z" />
    <glyph glyph-name="oe" unicode="&#x153;" horiz-adv-x="885" 
d="M32 196q0 137 83 226.5t210 89.5q110 0 165 -79q74 79 185 79q82 0 134 -53.5t52 -138.5q0 -53 -13 -105h-326q0 -2 -0.5 -7t-0.5 -8q0 -51 34.5 -82t90.5 -31q72 0 153 46l-20 -110q-84 -35 -167 -35q-111 0 -168 83q-80 -83 -197 -83q-93 0 -154 58.5t-61 149.5z
M537 298h204q3 15 3 28q0 39 -22 63t-57 24q-45 0 -80 -31t-48 -84zM164 209q0 -51 26.5 -82.5t71.5 -31.5q62 0 104 56t42 140q0 52 -26.5 83t-71.5 31q-62 0 -104 -56t-42 -140z" />
    <glyph glyph-name="Racute" unicode="&#x154;" horiz-adv-x="611" 
d="M398 0l-100 255h-79l-48 -255h-128l129 688h220q95 0 150.5 -49.5t55.5 -134.5q0 -80 -48.5 -143t-127.5 -88l111 -273h-135zM281 584l-43 -225h80q66 0 107 37.5t41 94.5q0 43 -29 68t-79 25h-77zM324 745l138 162h127l-156 -162h-109z" />
    <glyph glyph-name="racute" unicode="&#x155;" horiz-adv-x="389" 
d="M23 0l94 500h123l-9 -48q65 60 130 60q28 0 49 -10l-22 -112q-22 9 -46 9q-64 0 -128 -64l-63 -335h-128zM198 557l138 162h127l-156 -162h-109z" />
    <glyph glyph-name="Rcommaaccent" unicode="&#x156;" horiz-adv-x="611" 
d="M398 0l-100 255h-79l-48 -255h-128l129 688h220q95 0 150.5 -49.5t55.5 -134.5q0 -80 -48.5 -143t-127.5 -88l111 -273h-135zM281 584l-43 -225h80q66 0 107 37.5t41 94.5q0 43 -29 68t-79 25h-77zM101 -242l99 185h118l-115 -185h-102z" />
    <glyph glyph-name="rcommaaccent" unicode="&#x157;" horiz-adv-x="389" 
d="M23 0l94 500h123l-9 -48q65 60 130 60q28 0 49 -10l-22 -112q-22 9 -46 9q-64 0 -128 -64l-63 -335h-128zM-70 -242l99 185h118l-115 -185h-102z" />
    <glyph glyph-name="Rcaron" unicode="&#x158;" horiz-adv-x="611" 
d="M398 0l-100 255h-79l-48 -255h-128l129 688h220q95 0 150.5 -49.5t55.5 -134.5q0 -80 -48.5 -143t-127.5 -88l111 -273h-135zM281 584l-43 -225h80q66 0 107 37.5t41 94.5q0 43 -29 68t-79 25h-77zM595 907l-139 -162h-113l-79 162h91l53 -90l86 90h101z" />
    <glyph glyph-name="rcaron" unicode="&#x159;" horiz-adv-x="389" 
d="M23 0l94 500h123l-9 -48q65 60 130 60q28 0 49 -10l-22 -112q-22 9 -46 9q-64 0 -128 -64l-63 -335h-128zM469 719l-139 -162h-113l-79 162h91l53 -90l86 90h101z" />
    <glyph glyph-name="Sacute" unicode="&#x15a;" horiz-adv-x="545" 
d="M23 46l21 114q97 -67 188 -67q56 0 91 27.5t35 72.5q0 34 -27 59.5t-65 44t-76.5 40.5t-65.5 61.5t-27 94.5q0 91 69.5 149t181.5 58q98 0 193 -52l-20 -111q-89 58 -173 58q-54 0 -88 -26t-34 -68q0 -33 27 -57t65.5 -42.5t77 -41t65.5 -63t27 -96.5q0 -94 -71 -153.5
t-185 -59.5q-102 0 -209 58zM292 745l138 162h127l-156 -162h-109z" />
    <glyph glyph-name="sacute" unicode="&#x15b;" horiz-adv-x="428" 
d="M10 30l20 108q72 -49 139 -49q33 0 53 15.5t20 40.5q0 20 -18.5 35.5t-45 28.5t-53 29t-45 45t-18.5 69q0 73 53.5 116.5t142.5 43.5q75 0 148 -38l-19 -106q-69 43 -129 43q-31 0 -50 -14.5t-19 -37.5q0 -16 13.5 -29.5t33.5 -22.5t43.5 -22t43.5 -28.5t33.5 -42.5
t13.5 -62q0 -74 -55 -119t-146 -45q-77 0 -159 42zM201 557l138 162h127l-156 -162h-109z" />
    <glyph glyph-name="Scircumflex" unicode="&#x15c;" horiz-adv-x="545" 
d="M23 46l21 114q97 -67 188 -67q56 0 91 27.5t35 72.5q0 34 -27 59.5t-65 44t-76.5 40.5t-65.5 61.5t-27 94.5q0 91 69.5 149t181.5 58q98 0 193 -52l-20 -111q-89 58 -173 58q-54 0 -88 -26t-34 -68q0 -33 27 -57t65.5 -42.5t77 -41t65.5 -63t27 -96.5q0 -94 -71 -153.5
t-185 -59.5q-102 0 -209 58zM195 745l140 162h113l79 -162h-91l-53 90l-86 -90h-102z" />
    <glyph glyph-name="scircumflex" unicode="&#x15d;" horiz-adv-x="428" 
d="M10 30l20 108q72 -49 139 -49q33 0 53 15.5t20 40.5q0 20 -18.5 35.5t-45 28.5t-53 29t-45 45t-18.5 69q0 73 53.5 116.5t142.5 43.5q75 0 148 -38l-19 -106q-69 43 -129 43q-31 0 -50 -14.5t-19 -37.5q0 -16 13.5 -29.5t33.5 -22.5t43.5 -22t43.5 -28.5t33.5 -42.5
t13.5 -62q0 -74 -55 -119t-146 -45q-77 0 -159 42zM104 557l140 162h113l79 -162h-91l-53 90l-86 -90h-102z" />
    <glyph glyph-name="Scedilla" unicode="&#x15e;" horiz-adv-x="545" 
d="M23 46l21 114q97 -67 188 -67q56 0 91 27.5t35 72.5q0 34 -27 59.5t-65 44t-76.5 40.5t-65.5 61.5t-27 94.5q0 91 69.5 149t181.5 58q98 0 193 -52l-20 -111q-89 58 -173 58q-54 0 -88 -26t-34 -68q0 -33 27 -57t65.5 -42.5t77 -41t65.5 -63t27 -96.5q0 -85 -60 -142.5
t-159 -68.5l-15 -37q24 -8 39 -28.5t15 -46.5q0 -47 -38.5 -78t-97.5 -31q-43 0 -89 24l14 73q34 -23 65 -23q22 0 36 11t14 28t-14 28t-36 11h-4l31 70q-85 11 -166 55z" />
    <glyph glyph-name="scedilla" unicode="&#x15f;" horiz-adv-x="428" 
d="M10 30l20 108q72 -49 139 -49q33 0 53 15.5t20 40.5q0 20 -18.5 35.5t-45 28.5t-53 29t-45 45t-18.5 69q0 72 54 116t142 44q75 0 148 -38l-19 -106q-69 43 -129 43q-31 0 -50 -14.5t-19 -37.5q0 -16 13.5 -29.5t33.5 -22.5t43.5 -22t43.5 -28.5t33.5 -42.5t13.5 -62
q0 -65 -41.5 -107t-113.5 -53l-17 -39q24 -8 39 -28.5t15 -46.5q0 -47 -38.5 -78t-97.5 -31q-46 0 -89 24l14 73q34 -23 66 -23q22 0 36 11t14 28t-14 28t-36 11h-4l30 70q-63 8 -123 39z" />
    <glyph glyph-name="Scaron" unicode="&#x160;" horiz-adv-x="545" 
d="M23 46l21 114q97 -67 188 -67q56 0 91 27.5t35 72.5q0 34 -27 59.5t-65 44t-76.5 40.5t-65.5 61.5t-27 94.5q0 91 69.5 149t181.5 58q98 0 193 -52l-20 -111q-89 58 -173 58q-54 0 -88 -26t-34 -68q0 -33 27 -57t65.5 -42.5t77 -41t65.5 -63t27 -96.5q0 -94 -71 -153.5
t-185 -59.5q-102 0 -209 58zM563 907l-139 -162h-113l-79 162h91l53 -90l86 90h101z" />
    <glyph glyph-name="scaron" unicode="&#x161;" horiz-adv-x="428" 
d="M10 30l20 108q72 -49 139 -49q33 0 53 15.5t20 40.5q0 20 -18.5 35.5t-45 28.5t-53 29t-45 45t-18.5 69q0 73 53.5 116.5t142.5 43.5q75 0 148 -38l-19 -106q-69 43 -129 43q-31 0 -50 -14.5t-19 -37.5q0 -16 13.5 -29.5t33.5 -22.5t43.5 -22t43.5 -28.5t33.5 -42.5
t13.5 -62q0 -74 -55 -119t-146 -45q-77 0 -159 42zM472 719l-139 -162h-113l-79 162h91l53 -90l86 90h101z" />
    <glyph glyph-name="uni0162" unicode="&#x162;" horiz-adv-x="584" 
d="M180 0l108 581h-201l20 107h535l-20 -107h-203l-108 -581h-131zM88 -242l99 185h118l-115 -185h-102z" />
    <glyph glyph-name="uni0163" unicode="&#x163;" horiz-adv-x="415" 
d="M305 641l-26 -141h144l-20 -103h-144l-42 -222q-3 -15 -3 -28q0 -23 16 -37.5t41 -14.5q37 0 80 20l-20 -110q-53 -17 -103 -17q-65 0 -105 37t-40 97q0 14 4 36l44 239h-85l19 103h86l26 141h128zM33 -242l99 185h118l-115 -185h-102z" />
    <glyph glyph-name="Tcaron" unicode="&#x164;" horiz-adv-x="584" 
d="M180 0l108 581h-201l20 107h535l-20 -107h-203l-108 -581h-131zM582 907l-139 -162h-113l-79 162h91l53 -90l86 90h101z" />
    <glyph glyph-name="tcaron" unicode="&#x165;" horiz-adv-x="415" 
d="M305 641l-26 -141h144l-20 -103h-144l-42 -222q-3 -15 -3 -28q0 -23 16 -37.5t41 -14.5q37 0 80 20l-20 -110q-53 -17 -103 -17q-65 0 -105 37t-40 97q0 14 4 36l44 239h-85l19 103h86l26 141h128zM332 557l86 162h110l-99 -162h-97z" />
    <glyph glyph-name="Tbar" unicode="&#x166;" horiz-adv-x="584" 
d="M180 0l52 283h-128l17 87h128l39 211h-201l20 107h535l-20 -107h-203l-39 -211h128l-17 -87h-128l-52 -283h-131z" />
    <glyph glyph-name="tbar" unicode="&#x167;" horiz-adv-x="415" 
d="M305 641l-26 -141h144l-20 -103h-144l-19 -99h129l-17 -88h-128l-7 -35q-3 -15 -3 -28q0 -23 16 -37.5t41 -14.5q37 0 80 20l-20 -110q-53 -17 -103 -17q-65 0 -105 37t-40 97q0 14 4 36l10 52h-79l16 88h79l18 99h-85l19 103h86l26 141h128z" />
    <glyph glyph-name="Utilde" unicode="&#x168;" horiz-adv-x="736" 
d="M732 688l-83 -451q-21 -115 -106.5 -182t-209.5 -67q-109 0 -179 61.5t-70 158.5q0 30 6 65l78 415h131l-77 -415q-5 -28 -5 -47q0 -57 35 -92.5t93 -35.5q67 0 114 42t60 112l82 436h131zM293 769q8 57 41.5 92t80.5 35q33 0 71 -28t51 -28q17 0 29 12t16 32h76
q-8 -57 -41.5 -92t-80.5 -35q-33 0 -71 28t-51 28q-18 0 -29.5 -12t-15.5 -32h-76z" />
    <glyph glyph-name="utilde" unicode="&#x169;" horiz-adv-x="572" 
d="M549 500l-94 -500h-122l8 44q-73 -56 -147 -56q-63 0 -104 41.5t-41 103.5q0 25 5 57l59 310h128l-56 -303q-3 -14 -3 -29q0 -32 18 -50t50 -18q51 0 105 52l66 348h128zM174 581q8 57 41.5 92t80.5 35q33 0 71 -28t51 -28q17 0 29 12t16 32h76q-8 -57 -41.5 -92
t-80.5 -35q-33 0 -71 28t-51 28q-18 0 -29.5 -12t-15.5 -32h-76z" />
    <glyph glyph-name="Umacron" unicode="&#x16a;" horiz-adv-x="736" 
d="M732 688l-83 -451q-21 -115 -106.5 -182t-209.5 -67q-109 0 -179 61.5t-70 158.5q0 30 6 65l78 415h131l-77 -415q-5 -28 -5 -47q0 -57 35 -92.5t93 -35.5q67 0 114 42t60 112l82 436h131zM299 783l17 87h335l-17 -87h-335z" />
    <glyph glyph-name="umacron" unicode="&#x16b;" horiz-adv-x="572" 
d="M549 500l-94 -500h-122l8 44q-73 -56 -147 -56q-63 0 -104 41.5t-41 103.5q0 25 5 57l59 310h128l-56 -303q-3 -14 -3 -29q0 -32 18 -50t50 -18q51 0 105 52l66 348h128zM180 595l17 87h335l-17 -87h-335z" />
    <glyph glyph-name="Ubreve" unicode="&#x16c;" horiz-adv-x="736" 
d="M732 688l-83 -451q-21 -115 -106.5 -182t-209.5 -67q-109 0 -179 61.5t-70 158.5q0 30 6 65l78 415h131l-77 -415q-5 -28 -5 -47q0 -57 35 -92.5t93 -35.5q67 0 114 42t60 112l82 436h131zM337 907h78q-1 -6 -1 -17q0 -27 19 -44.5t49 -17.5q33 0 56 22t28 57h82
q-10 -78 -56.5 -121t-120.5 -43q-58 0 -97.5 37.5t-39.5 91.5q0 17 3 35z" />
    <glyph glyph-name="ubreve" unicode="&#x16d;" horiz-adv-x="572" 
d="M549 500l-94 -500h-122l8 44q-73 -56 -147 -56q-63 0 -104 41.5t-41 103.5q0 25 5 57l59 310h128l-56 -303q-3 -14 -3 -29q0 -32 18 -50t50 -18q51 0 105 52l66 348h128zM218 719h78q-1 -6 -1 -17q0 -27 19 -44.5t49 -17.5q33 0 56 22t28 57h82q-10 -78 -56.5 -121
t-120.5 -43q-58 0 -97.5 37.5t-39.5 91.5q0 17 3 35z" />
    <glyph glyph-name="Uring" unicode="&#x16e;" horiz-adv-x="736" 
d="M732 688l-83 -451q-21 -115 -106.5 -182t-209.5 -67q-109 0 -179 61.5t-70 158.5q0 30 6 65l78 415h131l-77 -415q-5 -28 -5 -47q0 -57 35 -92.5t93 -35.5q67 0 114 42t60 112l82 436h131zM368 816q0 49 33.5 82.5t83.5 33.5q43 0 69.5 -26.5t26.5 -68.5q0 -49 -33.5 -83
t-83.5 -34q-42 0 -69 27t-27 69zM426 822q0 -20 12 -32.5t32 -12.5q23 0 38.5 15.5t15.5 38.5q0 20 -12.5 32.5t-31.5 12.5q-23 0 -38.5 -15.5t-15.5 -38.5z" />
    <glyph glyph-name="uring" unicode="&#x16f;" horiz-adv-x="572" 
d="M549 500l-94 -500h-122l8 44q-73 -56 -147 -56q-63 0 -104 41.5t-41 103.5q0 25 5 57l59 310h128l-56 -303q-3 -14 -3 -29q0 -32 18 -50t50 -18q51 0 105 52l66 348h128zM249 628q0 49 33.5 82.5t83.5 33.5q43 0 69.5 -26.5t26.5 -68.5q0 -49 -34 -83t-83 -34
q-42 0 -69 27t-27 69zM307 634q0 -20 12 -32.5t32 -12.5q23 0 38.5 15.5t15.5 38.5q0 20 -12.5 32.5t-31.5 12.5q-23 0 -38.5 -15.5t-15.5 -38.5z" />
    <glyph glyph-name="Uhungarumlaut" unicode="&#x170;" horiz-adv-x="736" 
d="M732 688l-83 -451q-21 -115 -106.5 -182t-209.5 -67q-109 0 -179 61.5t-70 158.5q0 30 6 65l78 415h131l-77 -415q-5 -28 -5 -47q0 -57 35 -92.5t93 -35.5q67 0 114 42t60 112l82 436h131zM486 745l139 162h126l-155 -162h-110zM286 745l139 162h127l-156 -162h-110z" />
    <glyph glyph-name="uhungarumlaut" unicode="&#x171;" horiz-adv-x="572" 
d="M549 500l-94 -500h-122l8 44q-73 -56 -147 -56q-63 0 -104 41.5t-41 103.5q0 25 5 57l59 310h128l-56 -303q-3 -14 -3 -29q0 -32 18 -50t50 -18q51 0 105 52l66 348h128zM367 557l139 162h126l-155 -162h-110zM167 557l139 162h127l-156 -162h-110z" />
    <glyph glyph-name="Uogonek" unicode="&#x172;" horiz-adv-x="736" 
d="M732 688l-84 -451q-28 -154 -193 -228q-53 -24 -82 -55.5t-29 -61.5q0 -16 12 -27t29 -11t35 7l-15 -76q-29 -11 -64 -11q-40 0 -67.5 24t-27.5 60q0 76 90 131q-4 -1 -11 -1q-105 0 -173 62t-68 158q0 32 6 65l78 415h131l-77 -415q-5 -28 -5 -47q0 -57 35 -92.5
t93 -35.5q67 0 114 41t60 111l82 438h131z" />
    <glyph glyph-name="uogonek" unicode="&#x173;" horiz-adv-x="572" 
d="M362 0h-29l8 44q-73 -56 -147 -56q-63 0 -104 41.5t-41 103.5q0 25 5 57l59 310h128l-56 -303q-3 -14 -3 -29q0 -32 18 -50t50 -18q51 0 105 52l66 348h128l-94 -500q-102 -52 -102 -108q0 -16 12.5 -27t29.5 -11t34 7l-15 -76q-27 -11 -62 -11q-41 0 -69 24t-28 60
q0 89 107 142z" />
    <glyph glyph-name="Wcircumflex" unicode="&#x174;" horiz-adv-x="1017" 
d="M1085 688l-358 -688h-115l-59 524l-253 -524h-115l-97 688h123l58 -524l254 524h115l58 -524l253 524h136zM425 745l140 162h113l79 -162h-91l-53 90l-86 -90h-102z" />
    <glyph glyph-name="wcircumflex" unicode="&#x175;" horiz-adv-x="775" 
d="M810 500l-261 -500h-115l-32 346l-160 -346h-115l-70 500h119l34 -345l160 345h113l34 -345l160 345h133zM270 557l140 162h113l79 -162h-91l-53 90l-86 -90h-102z" />
    <glyph glyph-name="Ycircumflex" unicode="&#x176;" horiz-adv-x="606" 
d="M184 0l55 292l-161 396h138l104 -284l209 284h157l-317 -408l-53 -280h-132zM219 745l140 162h113l79 -162h-91l-53 90l-86 -90h-102z" />
    <glyph glyph-name="ycircumflex" unicode="&#x177;" horiz-adv-x="501" 
d="M540 500l-408 -719h-132l145 239l-92 480h122l53 -331l174 331h138zM134 557l140 162h113l79 -162h-91l-53 90l-86 -90h-102z" />
    <glyph glyph-name="Ydieresis" unicode="&#x178;" horiz-adv-x="606" 
d="M184 0l55 292l-161 396h138l104 -284l209 284h157l-317 -408l-53 -280h-132zM227 819q0 33 22.5 55t55.5 22q28 0 45.5 -17t17.5 -45q0 -33 -22.5 -55.5t-55.5 -22.5q-27 0 -45 17.5t-18 45.5zM439 819q0 33 22.5 55t55.5 22q27 0 44.5 -17t17.5 -45q0 -33 -22 -55.5
t-55 -22.5q-28 0 -45.5 17.5t-17.5 45.5z" />
    <glyph glyph-name="Zacute" unicode="&#x179;" horiz-adv-x="620" 
d="M-7 0l16 88l449 493h-338l21 107h505l-17 -88l-448 -493h362l-19 -107h-531zM329 745l138 162h127l-156 -162h-109z" />
    <glyph glyph-name="zacute" unicode="&#x17a;" horiz-adv-x="483" 
d="M-9 0l15 84l287 313h-215l20 103h380l-16 -84l-286 -313h234l-19 -103h-400zM225 557l138 162h127l-156 -162h-109z" />
    <glyph glyph-name="Zdotaccent" unicode="&#x17b;" horiz-adv-x="620" 
d="M-7 0l16 88l449 493h-338l21 107h505l-17 -88l-448 -493h362l-19 -107h-531zM344 819q0 34 23 57t57 23q28 0 46.5 -18.5t18.5 -46.5q0 -34 -23 -57t-57 -23q-29 0 -47 18t-18 47z" />
    <glyph glyph-name="zdotaccent" unicode="&#x17c;" horiz-adv-x="483" 
d="M-9 0l15 84l287 313h-215l20 103h380l-16 -84l-286 -313h234l-19 -103h-400zM240 631q0 34 23 57t57 23q28 0 46.5 -18.5t18.5 -46.5q0 -34 -23 -57t-57 -23q-29 0 -47 18t-18 47z" />
    <glyph glyph-name="Zcaron" unicode="&#x17d;" horiz-adv-x="620" 
d="M-7 0l16 88l449 493h-338l21 107h505l-17 -88l-448 -493h362l-19 -107h-531zM600 907l-139 -162h-113l-79 162h91l53 -90l86 90h101z" />
    <glyph glyph-name="zcaron" unicode="&#x17e;" horiz-adv-x="483" 
d="M-9 0l15 84l287 313h-215l20 103h380l-16 -84l-286 -313h234l-19 -103h-400zM496 719l-139 -162h-113l-79 162h91l53 -90l86 90h101z" />
    <glyph glyph-name="florin" unicode="&#x192;" 
d="M128 343l19 103h97l20 108q13 68 59.5 107t116.5 39q56 0 112 -25l-20 -104q-36 19 -70 19q-26 0 -46 -16.5t-25 -44.5l-16 -83h118l-20 -103h-117l-61 -334q-13 -68 -59.5 -107t-116.5 -39q-59 0 -112 25l19 104q36 -19 71 -19q26 0 45.5 16.5t24.5 44.5l58 309h-97z
" />
    <glyph glyph-name="Scommaaccent" unicode="&#x218;" horiz-adv-x="545" 
d="M23 46l21 114q97 -67 188 -67q56 0 91 27.5t35 72.5q0 34 -27 59.5t-65 44t-76.5 40.5t-65.5 61.5t-27 94.5q0 91 69.5 149t181.5 58q98 0 193 -52l-20 -111q-89 58 -173 58q-54 0 -88 -26t-34 -68q0 -33 27 -57t65.5 -42.5t77 -41t65.5 -63t27 -96.5q0 -94 -71 -153.5
t-185 -59.5q-102 0 -209 58zM68 -242l99 185h118l-115 -185h-102z" />
    <glyph glyph-name="scommaaccent" unicode="&#x219;" horiz-adv-x="428" 
d="M10 30l20 108q72 -49 139 -49q33 0 53 15.5t20 40.5q0 20 -18.5 35.5t-45 28.5t-53 29t-45 45t-18.5 69q0 73 53.5 116.5t142.5 43.5q75 0 148 -38l-19 -106q-69 43 -129 43q-31 0 -50 -14.5t-19 -37.5q0 -16 13.5 -29.5t33.5 -22.5t43.5 -22t43.5 -28.5t33.5 -42.5
t13.5 -62q0 -74 -55 -119t-146 -45q-77 0 -159 42zM13 -242l99 185h118l-115 -185h-102z" />
    <glyph glyph-name="uni021A" unicode="&#x21a;" horiz-adv-x="584" 
d="M180 0l108 581h-201l20 107h535l-20 -107h-203l-108 -581h-131zM88 -242l99 185h118l-115 -185h-102z" />
    <glyph glyph-name="uni021B" unicode="&#x21b;" horiz-adv-x="415" 
d="M305 641l-26 -141h144l-20 -103h-144l-42 -222q-3 -15 -3 -28q0 -23 16 -37.5t41 -14.5q37 0 80 20l-20 -110q-53 -17 -103 -17q-65 0 -105 37t-40 97q0 14 4 36l44 239h-85l19 103h86l26 141h128zM33 -242l99 185h118l-115 -185h-102z" />
    <glyph glyph-name="dotlessj" unicode="&#x237;" horiz-adv-x="268" 
d="M245 500l-109 -582q-14 -71 -60 -110t-116 -39q-55 0 -119 28l20 101q41 -22 76 -22q29 0 49.5 17t25.5 45l105 562h128z" />
    <glyph glyph-name="circumflex" unicode="&#x2c6;" horiz-adv-x="250" 
d="M12 557l140 162h113l79 -162h-91l-53 90l-86 -90h-102z" />
    <glyph glyph-name="caron" unicode="&#x2c7;" horiz-adv-x="250" 
d="M380 719l-139 -162h-113l-79 162h91l53 -90l86 90h101z" />
    <glyph glyph-name="uni02C9" unicode="&#x2c9;" horiz-adv-x="250" 
d="M21 595l17 87h335l-17 -87h-335z" />
    <glyph glyph-name="breve" unicode="&#x2d8;" horiz-adv-x="250" 
d="M59 719h78q-1 -6 -1 -17q0 -27 19 -44.5t49 -17.5q33 0 56 22t28 57h82q-10 -78 -56.5 -121t-120.5 -43q-58 0 -97.5 37.5t-39.5 91.5q0 17 3 35z" />
    <glyph glyph-name="dotaccent" unicode="&#x2d9;" horiz-adv-x="250" 
d="M124 631q0 34 23 57t57 23q28 0 46.5 -18.5t18.5 -46.5q0 -34 -23 -57t-57 -23q-29 0 -47 18t-18 47z" />
    <glyph glyph-name="ring" unicode="&#x2da;" horiz-adv-x="250" 
d="M90 628q0 49 33.5 82.5t83.5 33.5q43 0 69.5 -26.5t26.5 -68.5q0 -49 -33.5 -83t-83.5 -34q-42 0 -69 27t-27 69zM148 634q0 -20 12 -32.5t32 -12.5q23 0 38.5 15.5t15.5 38.5q0 20 -12.5 32.5t-31.5 12.5q-23 0 -38.5 -15.5t-15.5 -38.5z" />
    <glyph glyph-name="ogonek" unicode="&#x2db;" horiz-adv-x="250" 
d="M49 0h93q-102 -52 -102 -108q0 -16 12.5 -27t29.5 -11t34 7l-15 -76q-27 -11 -62 -11q-41 0 -69 24t-28 60q0 89 107 142z" />
    <glyph glyph-name="tilde" unicode="&#x2dc;" horiz-adv-x="250" 
d="M15 581q8 57 41.5 92t80.5 35q33 0 71 -28t51 -28q17 0 29 12t16 32h76q-8 -57 -41.5 -92t-80.5 -35q-33 0 -71 28t-51 28q-18 0 -29.5 -12t-15.5 -32h-76z" />
    <glyph glyph-name="hungarumlaut" unicode="&#x2dd;" horiz-adv-x="250" 
d="M208 557l139 162h126l-155 -162h-110zM8 557l139 162h127l-156 -162h-110z" />
    <glyph glyph-name="uni0394" unicode="&#x394;" horiz-adv-x="642" 
d="M-10 0l14 74l348 614h109l121 -621l-12 -67h-580zM381 511l-223 -407h294z" />
    <glyph glyph-name="uni03A9" unicode="&#x3a9;" horiz-adv-x="767" 
d="M-12 0l19 104h168q-89 126 -89 260q0 147 101 241.5t259 94.5q122 0 204 -74.5t82 -186.5q0 -186 -185 -335h157l-19 -104h-306l15 77q97 77 150.5 166t53.5 176q0 77 -46 124t-118 47q-100 0 -159.5 -69t-59.5 -182q0 -133 80 -262l-14 -77h-293z" />
    <glyph glyph-name="uni03BC" unicode="&#x3bc;" horiz-adv-x="576" 
d="M-18 -219l135 719h128l-56 -303q-3 -15 -3 -29q0 -32 18 -50t50 -18q51 0 106 52l65 348h128l-94 -500h-122l8 44q-57 -51 -118 -51q-41 0 -73 27l-44 -239h-128z" />
    <glyph glyph-name="pi" unicode="&#x3c0;" horiz-adv-x="595" 
d="M47 0l76 399h-84l19 101h572l-19 -101h-83l-74 -399h-128l74 399h-150l-75 -399h-128z" />
    <glyph glyph-name="Wgrave" unicode="&#x1e80;" horiz-adv-x="1017" 
d="M1085 688l-358 -688h-115l-59 524l-253 -524h-115l-97 688h123l58 -524l254 524h115l58 -524l253 524h136zM569 745l-96 162h110l80 -162h-94z" />
    <glyph glyph-name="wgrave" unicode="&#x1e81;" horiz-adv-x="775" 
d="M810 500l-261 -500h-115l-32 346l-160 -346h-115l-70 500h119l34 -345l160 345h113l34 -345l160 345h133zM414 557l-96 162h110l80 -162h-94z" />
    <glyph glyph-name="Wacute" unicode="&#x1e82;" horiz-adv-x="1017" 
d="M1085 688l-358 -688h-115l-59 524l-253 -524h-115l-97 688h123l58 -524l254 524h115l58 -524l253 524h136zM522 745l138 162h127l-156 -162h-109z" />
    <glyph glyph-name="wacute" unicode="&#x1e83;" horiz-adv-x="775" 
d="M810 500l-261 -500h-115l-32 346l-160 -346h-115l-70 500h119l34 -345l160 345h113l34 -345l160 345h133zM367 557l138 162h127l-156 -162h-109z" />
    <glyph glyph-name="Wdieresis" unicode="&#x1e84;" horiz-adv-x="1017" 
d="M1085 688l-358 -688h-115l-59 524l-253 -524h-115l-97 688h123l58 -524l254 524h115l58 -524l253 524h136zM433 819q0 33 22.5 55t55.5 22q28 0 45.5 -17t17.5 -45q0 -33 -22.5 -55.5t-55.5 -22.5q-27 0 -45 17.5t-18 45.5zM645 819q0 33 22.5 55t55.5 22q27 0 44.5 -17
t17.5 -45q0 -33 -22 -55.5t-55 -22.5q-28 0 -45.5 17.5t-17.5 45.5z" />
    <glyph glyph-name="wdieresis" unicode="&#x1e85;" horiz-adv-x="775" 
d="M810 500l-261 -500h-115l-32 346l-160 -346h-115l-70 500h119l34 -345l160 345h113l34 -345l160 345h133zM278 631q0 33 22.5 55t55.5 22q28 0 45.5 -17t17.5 -45q0 -33 -22.5 -55.5t-55.5 -22.5q-27 0 -45 17.5t-18 45.5zM490 631q0 33 22.5 55t55.5 22q27 0 44.5 -17
t17.5 -45q0 -33 -22 -55.5t-55 -22.5q-28 0 -45.5 17.5t-17.5 45.5z" />
    <glyph glyph-name="uni1E9E" unicode="&#x1e9e;" horiz-adv-x="734" 
d="M43 0l129 688h566l-17 -88l-166 -191q61 -19 97.5 -66t36.5 -108q0 -103 -77 -175t-188 -72q-77 0 -151 40l21 114q62 -44 130 -44q56 0 94.5 35t38.5 86q0 50 -37 79.5t-101 29.5h-21l16 87l144 166h-278l-109 -581h-128z" />
    <glyph glyph-name="Ygrave" unicode="&#x1ef2;" horiz-adv-x="606" 
d="M184 0l55 292l-161 396h138l104 -284l209 284h157l-317 -408l-53 -280h-132zM363 745l-96 162h110l80 -162h-94z" />
    <glyph glyph-name="ygrave" unicode="&#x1ef3;" horiz-adv-x="501" 
d="M540 500l-408 -719h-132l145 239l-92 480h122l53 -331l174 331h138zM278 557l-96 162h110l80 -162h-94z" />
    <glyph glyph-name="figuredash" unicode="&#x2012;" 
d="M46 306l14 77h491l-14 -77h-491z" />
    <glyph glyph-name="endash" unicode="&#x2013;" horiz-adv-x="500" 
d="M19 203l19 103h444l-20 -103h-443z" />
    <glyph glyph-name="emdash" unicode="&#x2014;" horiz-adv-x="1000" 
d="M19 203l19 103h943l-19 -103h-943z" />
    <glyph glyph-name="quoteleft" unicode="&#x2018;" horiz-adv-x="250" 
d="M315 688l-132 -242h-130l149 242h113z" />
    <glyph glyph-name="quoteright" unicode="&#x2019;" horiz-adv-x="250" 
d="M53 446l133 242h129l-148 -242h-114z" />
    <glyph glyph-name="quotesinglbase" unicode="&#x201a;" horiz-adv-x="250" 
d="M-89 -125l132 242h131l-149 -242h-114z" />
    <glyph glyph-name="quotedblleft" unicode="&#x201c;" horiz-adv-x="439" 
d="M504 688l-132 -242h-130l148 242h114zM315 688l-132 -242h-130l149 242h113z" />
    <glyph glyph-name="quotedblright" unicode="&#x201d;" horiz-adv-x="439" 
d="M53 446l133 242h129l-148 -242h-114zM242 446l132 242h130l-148 -242h-114z" />
    <glyph glyph-name="quotedblbase" unicode="&#x201e;" horiz-adv-x="439" 
d="M100 -125l132 242h130l-148 -242h-114zM-89 -125l132 242h131l-149 -242h-114z" />
    <glyph glyph-name="dagger" unicode="&#x2020;" horiz-adv-x="459" 
d="M128 0l79 424h-154l20 110h154l29 154h111l-29 -154h153l-20 -110h-154l-79 -424h-110z" />
    <glyph glyph-name="daggerdbl" unicode="&#x2021;" horiz-adv-x="459" 
d="M128 0l28 154h-154l20 110h155l30 160h-154l20 110h154l29 154h111l-29 -154h153l-20 -110h-154l-30 -160h154l-21 -110h-154l-28 -154h-110z" />
    <glyph glyph-name="bullet" unicode="&#x2022;" horiz-adv-x="500" 
d="M127 344q0 58 41.5 99.5t99.5 41.5t99.5 -41.5t41.5 -99.5t-41.5 -99.5t-99.5 -41.5t-99.5 41.5t-41.5 99.5z" />
    <glyph glyph-name="ellipsis" unicode="&#x2026;" horiz-adv-x="1001" 
d="M724 57q0 37 24 60.5t61 23.5q30 0 49 -19t19 -49q0 -37 -23.5 -61t-61.5 -24q-30 0 -49 19.5t-19 49.5zM390 57q0 37 24 60.5t61 23.5q30 0 49 -19t19 -49q0 -37 -23.5 -61t-61.5 -24q-30 0 -49 19.5t-19 49.5zM56 57q0 37 24 60.5t61 23.5q30 0 49.5 -19t19.5 -49
q0 -37 -24 -61t-61 -24q-31 0 -50 19.5t-19 49.5z" />
    <glyph glyph-name="perthousand" unicode="&#x2030;" horiz-adv-x="1215" 
d="M450 128q0 97 58 162.5t144 65.5q64 0 105.5 -39t41.5 -101q0 -97 -58 -162.5t-144 -65.5q-64 0 -105.5 39t-41.5 101zM539 138q0 -35 18.5 -56t48.5 -21q44 0 74 42.5t30 102.5q0 35 -18.5 56t-48.5 21q-44 0 -74 -42.5t-30 -102.5zM81 475q0 97 58 161t144 64
q64 0 105 -40.5t41 -102.5q0 -97 -57.5 -161t-143.5 -64q-64 0 -105.5 40.5t-41.5 102.5zM170 485q0 -35 18 -57t49 -22q43 0 73 41t30 100q0 36 -18 58t-48 22q-44 0 -74 -41t-30 -101zM67 0l641 688h105l-641 -688h-105zM821 128q0 97 58 162.5t143 65.5q65 0 106.5 -39
t41.5 -101q0 -97 -58 -162.5t-144 -65.5q-65 0 -106 39t-41 101zM910 138q0 -35 18.5 -56t48.5 -21q43 0 73 42.5t30 102.5q0 35 -18 56t-49 21q-43 0 -73 -42.5t-30 -102.5z" />
    <glyph glyph-name="guilsinglleft" unicode="&#x2039;" horiz-adv-x="414" 
d="M419 464l-230 -217l141 -211h-126l-165 217l236 211h144z" />
    <glyph glyph-name="guilsinglright" unicode="&#x203a;" horiz-adv-x="414" 
d="M-6 36l230 217l-141 211h126l166 -217l-237 -211h-144z" />
    <glyph glyph-name="fraction" unicode="&#x2044;" horiz-adv-x="156" 
d="M-277 0l641 688h105l-641 -688h-105z" />
    <glyph glyph-name="uni2070" unicode="&#x2070;" horiz-adv-x="376" 
d="M95 549q0 115 55 193t137 78q60 0 94 -39.5t34 -109.5q0 -115 -55 -193t-137 -78q-60 0 -94 39.5t-34 109.5zM188 554q0 -34 12 -54.5t32 -20.5q37 0 63 54.5t26 132.5q0 34 -11.5 54.5t-31.5 20.5q-37 0 -63.5 -54.5t-26.5 -132.5z" />
    <glyph glyph-name="uni2074" unicode="&#x2074;" horiz-adv-x="352" 
d="M215 407l17 94h-170l13 66l225 246h80l-46 -241h58l-13 -71h-58l-18 -94h-88zM163 572h82l21 112z" />
    <glyph glyph-name="uni2075" unicode="&#x2075;" horiz-adv-x="316" 
d="M369 813l-16 -79h-138l-13 -71q8 1 23 1q53 0 85.5 -31t32.5 -81q0 -67 -49 -109.5t-126 -42.5q-53 0 -102 28l15 82q45 -31 87 -31q34 0 57 18t23 45q0 23 -19.5 38.5t-49.5 15.5q-36 0 -73 -10l42 227h221z" />
    <glyph glyph-name="uni2076" unicode="&#x2076;" horiz-adv-x="352" 
d="M256 813h125q-116 -76 -164 -151q27 12 54 12q47 0 79.5 -34t32.5 -83q0 -67 -47.5 -112t-118.5 -45q-57 0 -94.5 37.5t-37.5 97.5q0 72 45 145t126 133zM183 573q-7 -15 -7 -36q0 -26 14.5 -42t36.5 -16q28 0 46.5 19.5t18.5 48.5q0 22 -14 36t-37 14q-29 0 -58 -24z
" />
    <glyph glyph-name="uni2077" unicode="&#x2077;" horiz-adv-x="288" 
d="M61 407l197 327h-166l15 79h273l-11 -59l-207 -347h-101z" />
    <glyph glyph-name="uni2078" unicode="&#x2078;" horiz-adv-x="353" 
d="M122 692q0 55 44 91.5t111 36.5q53 0 88 -29t35 -74q0 -72 -74 -105q49 -23 49 -80t-46.5 -94.5t-118.5 -37.5q-56 0 -93.5 30t-37.5 75q0 39 23 69t62 43q-42 23 -42 75zM170 517q0 -19 14 -31.5t35 -12.5q29 0 47 17t18 45q0 19 -13.5 31t-34.5 12q-29 0 -47.5 -17.5
t-18.5 -43.5zM209 690q0 -19 12.5 -30.5t32.5 -11.5q25 0 42 16.5t17 41.5q0 18 -12.5 29.5t-32.5 11.5q-26 0 -42.5 -16t-16.5 -41z" />
    <glyph glyph-name="uni2079" unicode="&#x2079;" horiz-adv-x="352" 
d="M231 407h-126q114 73 165 151q-27 -12 -53 -12q-48 0 -80.5 33.5t-32.5 83.5q0 67 47 112t118 45q57 0 95 -37.5t38 -97.5q0 -71 -45 -144.5t-126 -133.5zM304 647q7 19 7 36q0 26 -14.5 42t-36.5 16q-28 0 -46.5 -19.5t-18.5 -48.5q0 -23 13.5 -36.5t36.5 -13.5
q31 0 59 24z" />
    <glyph glyph-name="uni207A" unicode="&#x207a;" horiz-adv-x="344" 
d="M92 570v80h108v108h80v-108h108v-80h-108v-108h-80v108h-108z" />
    <glyph glyph-name="uni207B" unicode="&#x207b;" horiz-adv-x="344" 
d="M92 570v80h296v-80h-296z" />
    <glyph glyph-name="uni207C" unicode="&#x207c;" horiz-adv-x="344" 
d="M92 507v78h296v-78h-296zM92 635v78h296v-78h-296z" />
    <glyph glyph-name="uni207D" unicode="&#x207d;" horiz-adv-x="214" 
d="M98 559q0 179 133 310h106q-71 -61 -109.5 -140t-38.5 -165q0 -116 48 -213h-88q-51 102 -51 208z" />
    <glyph glyph-name="uni207E" unicode="&#x207e;" horiz-adv-x="214" 
d="M247 662q0 -179 -132 -311h-107q148 126 148 306q0 115 -48 212h88q51 -99 51 -207z" />
    <glyph glyph-name="uni2080" unicode="&#x2080;" horiz-adv-x="376" 
d="M-5 17q0 115 55 193t137 78q60 0 94 -39.5t34 -109.5q0 -115 -55 -193t-137 -78q-60 0 -94 39.5t-34 109.5zM88 22q0 -34 12 -54.5t32 -20.5q37 0 63 54.5t26 132.5q0 34 -11.5 54.5t-31.5 20.5q-37 0 -63.5 -54.5t-26.5 -132.5z" />
    <glyph glyph-name="uni2081" unicode="&#x2081;" horiz-adv-x="268" 
d="M44 -125l57 303l-104 -43l16 86l143 60h60l-76 -406h-96z" />
    <glyph glyph-name="uni2082" unicode="&#x2082;" horiz-adv-x="315" 
d="M-52 -125l12 61q92 59 147.5 118t55.5 100q0 24 -13.5 38t-38.5 14q-47 0 -98 -36l16 91q54 27 113 27q54 0 86.5 -31.5t32.5 -83.5q0 -100 -163 -219h127l-15 -79h-262z" />
    <glyph glyph-name="uni2083" unicode="&#x2083;" horiz-adv-x="311" 
d="M57 44l14 74h20q32 0 52 15t20 39q0 17 -13.5 28t-35.5 11q-44 0 -94 -28l15 85q51 20 99 20q54 0 88 -28t34 -72q0 -37 -21.5 -66.5t-58.5 -41.5q56 -24 56 -83q0 -56 -45 -92.5t-113 -36.5q-64 0 -117 32l15 81q49 -36 98 -36q28 0 47.5 16t19.5 38q0 20 -16.5 32.5
t-43.5 12.5h-20z" />
    <glyph glyph-name="uni2084" unicode="&#x2084;" horiz-adv-x="352" 
d="M115 -125l17 94h-170l13 66l225 246h80l-46 -241h58l-13 -71h-58l-18 -94h-88zM63 40h82l21 112z" />
    <glyph glyph-name="uni2085" unicode="&#x2085;" horiz-adv-x="316" 
d="M269 281l-16 -79h-138l-13 -71q8 1 23 1q53 0 85.5 -31t32.5 -81q0 -67 -49 -109.5t-126 -42.5q-53 0 -102 28l15 82q45 -31 87 -31q34 0 57 18t23 45q0 23 -19.5 38.5t-49.5 15.5q-36 0 -73 -10l42 227h221z" />
    <glyph glyph-name="uni2086" unicode="&#x2086;" horiz-adv-x="352" 
d="M156 281h125q-116 -76 -164 -151q27 12 54 12q47 0 79.5 -34t32.5 -83q0 -67 -47.5 -112t-118.5 -45q-57 0 -94.5 37.5t-37.5 97.5q0 72 45 145t126 133zM83 41q-7 -15 -7 -36q0 -26 14.5 -42t36.5 -16q28 0 46.5 19.5t18.5 48.5q0 22 -14 36t-37 14q-29 0 -58 -24z" />
    <glyph glyph-name="uni2087" unicode="&#x2087;" horiz-adv-x="288" 
d="M-39 -125l197 327h-166l15 79h273l-11 -59l-207 -347h-101z" />
    <glyph glyph-name="uni2088" unicode="&#x2088;" horiz-adv-x="353" 
d="M22 160q0 55 44 91.5t111 36.5q53 0 88 -29t35 -74q0 -72 -74 -105q49 -23 49 -80t-46.5 -94.5t-118.5 -37.5q-56 0 -93.5 30t-37.5 75q0 39 23 69t62 43q-42 23 -42 75zM70 -15q0 -19 14 -31.5t35 -12.5q29 0 47 17t18 45q0 19 -13.5 31t-34.5 12q-29 0 -47.5 -17.5
t-18.5 -43.5zM109 158q0 -19 12.5 -30.5t32.5 -11.5q25 0 42 16.5t17 41.5q0 18 -12.5 29.5t-32.5 11.5q-26 0 -42.5 -16t-16.5 -41z" />
    <glyph glyph-name="uni2089" unicode="&#x2089;" horiz-adv-x="352" 
d="M131 -125h-126q114 73 165 151q-27 -12 -53 -12q-48 0 -80.5 33.5t-32.5 83.5q0 67 47 112t118 45q57 0 95 -37.5t38 -97.5q0 -71 -45 -144.5t-126 -133.5zM204 115q7 19 7 36q0 26 -14.5 42t-36.5 16q-28 0 -46.5 -19.5t-18.5 -48.5q0 -23 13.5 -36.5t36.5 -13.5
q31 0 59 24z" />
    <glyph glyph-name="uni208A" unicode="&#x208a;" horiz-adv-x="344" 
d="M-8 38v80h108v108h80v-108h108v-80h-108v-108h-80v108h-108z" />
    <glyph glyph-name="uni208B" unicode="&#x208b;" horiz-adv-x="344" 
d="M-8 38v80h296v-80h-296z" />
    <glyph glyph-name="uni208C" unicode="&#x208c;" horiz-adv-x="344" 
d="M-8 -25v78h296v-78h-296zM-8 103v78h296v-78h-296z" />
    <glyph glyph-name="uni208D" unicode="&#x208d;" horiz-adv-x="214" 
d="M-2 27q0 179 133 310h106q-71 -61 -109.5 -140t-38.5 -165q0 -116 48 -213h-88q-51 102 -51 208z" />
    <glyph glyph-name="uni208E" unicode="&#x208e;" horiz-adv-x="214" 
d="M147 130q0 -179 -132 -311h-107q148 126 148 306q0 115 -48 212h88q51 -99 51 -207z" />
    <glyph glyph-name="Euro" unicode="&#x20ac;" 
d="M5 223l17 88h60q3 35 9 67h-57l16 87h69q45 108 128.5 171.5t187.5 63.5q86 0 168 -44l-20 -110q-69 47 -140 47q-59 0 -107.5 -34t-79.5 -94h213l-17 -87h-232q-8 -44 -10 -67h229l-16 -88h-209q11 -60 49.5 -94t98.5 -34q72 0 142 39l-21 -116q-79 -30 -154 -30
q-101 0 -169.5 65.5t-78.5 169.5h-76z" />
    <glyph glyph-name="afii61289" unicode="&#x2113;" horiz-adv-x="407" 
d="M317 115l-20 -110q-49 -17 -100 -17q-66 0 -107 37t-41 97q0 20 4 36l76 409q15 78 59.5 121t110.5 43q61 0 99 -40t38 -104q0 -179 -238 -333l-14 -79q-4 -18 -4 -28q0 -23 16 -37.5t41 -14.5q37 0 80 20zM347 573q0 25 -10.5 39.5t-27.5 14.5q-40 0 -53 -67l-34 -178
q125 94 125 191z" />
    <glyph glyph-name="numero" unicode="&#x2116;" horiz-adv-x="1110" 
d="M43 0l129 688h107l237 -480l89 480h124l-129 -688h-108l-237 480l-89 -480h-123zM771 245l13 73h303l-15 -73h-301zM813 501q0 85 52.5 140t134.5 55q61 0 99.5 -37.5t38.5 -95.5q0 -85 -52.5 -140t-134.5 -55q-61 0 -99.5 37t-38.5 96zM907 508q0 -29 15 -46.5t40 -17.5
q35 0 58.5 32t23.5 80q0 28 -15 45.5t-40 17.5q-35 0 -58.5 -31.5t-23.5 -79.5z" />
    <glyph glyph-name="uni2117" unicode="&#x2117;" horiz-adv-x="845" 
d="M81 344q0 158 100.5 259t258.5 101t259 -101t101 -259t-101 -259t-259 -101t-258.5 101t-100.5 259zM153 344q0 -126 80.5 -207t206.5 -81q127 0 207.5 81t80.5 207t-80.5 207t-207.5 81q-126 0 -206.5 -81t-80.5 -207zM316 141v406h154q64 0 105 -37.5t41 -95.5
t-41 -95.5t-105 -37.5h-61v-140h-93zM409 472v-115h48q28 0 45.5 16t17.5 41q0 26 -17.5 42t-45.5 16h-48z" />
    <glyph glyph-name="uni2120" unicode="&#x2120;" horiz-adv-x="864" 
d="M85 302v84q57 -36 115 -36q29 0 47 13.5t18 34.5q0 19 -19.5 31.5t-47.5 21t-55.5 20.5t-47 38t-19.5 65q0 54 42 87.5t109 33.5q57 0 113 -22v-84q-52 31 -106 31q-28 0 -45.5 -12.5t-17.5 -32.5q0 -19 19.5 -30.5t47.5 -20t55.5 -20.5t47 -38.5t19.5 -66.5
q0 -55 -43 -89.5t-110 -34.5q-65 0 -122 27zM445 282v406h82l122 -168l122 168h82v-406h-89v255l-87 -120h-56l-87 120v-255h-89z" />
    <glyph glyph-name="trademark" unicode="&#x2122;" horiz-adv-x="890" 
d="M182 282v328h-118v78h332v-78h-119v-328h-95zM471 282v406h81l123 -168l122 168h81v-406h-88v255l-87 -120h-56l-87 120v-255h-89z" />
    <glyph glyph-name="Omega" unicode="&#x2126;" horiz-adv-x="767" 
d="M-12 0l19 104h168q-89 126 -89 260q0 147 101 241.5t259 94.5q122 0 204 -74.5t82 -186.5q0 -186 -185 -335h157l-19 -104h-306l15 77q97 77 150.5 166t53.5 176q0 77 -46 124t-118 47q-100 0 -159.5 -69t-59.5 -182q0 -133 80 -262l-14 -77h-293z" />
    <glyph glyph-name="estimated" unicode="&#x212e;" horiz-adv-x="938" 
d="M113 344q0 148 114.5 252t276.5 104t276.5 -104t114.5 -252v-16h-641v-191q46 -55 111 -86t139 -31q76 0 142 32t111 89h68q-54 -71 -138.5 -112t-182.5 -41q-162 0 -276.5 104.5t-114.5 251.5zM254 551v-191h500v191q-45 55 -110.5 86.5t-139.5 31.5t-139 -31.5
t-111 -86.5z" />
    <glyph glyph-name="onethird" unicode="&#x2153;" horiz-adv-x="845" 
d="M159 282l57 303l-104 -43l16 86l143 60h60l-76 -406h-96zM67 0l641 688h105l-641 -688h-105zM598 169l14 74h20q32 0 52 15t20 39q0 17 -13.5 28t-35.5 11q-44 0 -94 -28l15 85q51 20 99 20q54 0 88 -28t34 -72q0 -37 -21.5 -66.5t-58.5 -41.5q56 -24 56 -83
q0 -56 -45 -92.5t-113 -36.5q-64 0 -117 32l15 81q49 -36 98 -36q28 0 47.5 16t19.5 38q0 20 -16.5 32.5t-43.5 12.5h-20z" />
    <glyph glyph-name="twothirds" unicode="&#x2154;" horiz-adv-x="845" 
d="M40 282l12 61q92 59 147.5 118t55.5 100q0 24 -13.5 38t-38.5 14q-47 0 -98 -36l16 91q54 27 113 27q54 0 86.5 -31.5t32.5 -83.5q0 -100 -163 -219h127l-15 -79h-262zM67 0l641 688h105l-641 -688h-105zM598 169l14 74h20q32 0 52 15t20 39q0 17 -13.5 28t-35.5 11
q-44 0 -94 -28l15 85q51 20 99 20q54 0 88 -28t34 -72q0 -37 -21.5 -66.5t-58.5 -41.5q56 -24 56 -83q0 -56 -45 -92.5t-113 -36.5q-64 0 -117 32l15 81q49 -36 98 -36q28 0 47.5 16t19.5 38q0 20 -16.5 32.5t-43.5 12.5h-20z" />
    <glyph glyph-name="uni2155" unicode="&#x2155;" horiz-adv-x="845" 
d="M159 282l57 303l-104 -43l16 86l143 60h60l-76 -406h-96zM67 0l641 688h105l-641 -688h-105zM808 406l-16 -79h-138l-13 -71q8 1 23 1q53 0 85.5 -31t32.5 -81q0 -67 -49 -109.5t-126 -42.5q-53 0 -102 28l15 82q45 -31 87 -31q34 0 57 18t23 45q0 23 -19.5 38.5
t-49.5 15.5q-36 0 -73 -10l42 227h221z" />
    <glyph glyph-name="uni2156" unicode="&#x2156;" horiz-adv-x="845" 
d="M40 282l12 61q92 59 147.5 118t55.5 100q0 24 -13.5 38t-38.5 14q-47 0 -98 -36l16 91q54 27 113 27q54 0 86.5 -31.5t32.5 -83.5q0 -100 -163 -219h127l-15 -79h-262zM67 0l641 688h105l-641 -688h-105zM808 406l-16 -79h-138l-13 -71q8 1 23 1q53 0 85.5 -31t32.5 -81
q0 -67 -49 -109.5t-126 -42.5q-53 0 -102 28l15 82q45 -31 87 -31q34 0 57 18t23 45q0 23 -19.5 38.5t-49.5 15.5q-36 0 -73 -10l42 227h221z" />
    <glyph glyph-name="uni2157" unicode="&#x2157;" horiz-adv-x="845" 
d="M151 451l14 74h20q32 0 52 15t20 39q0 17 -13.5 28t-35.5 11q-44 0 -94 -28l15 85q51 20 99 20q54 0 88 -28t34 -72q0 -37 -21.5 -66.5t-58.5 -41.5q56 -24 56 -83q0 -56 -45 -92.5t-113 -36.5q-64 0 -117 32l15 81q49 -36 98 -36q28 0 47.5 16t19.5 38q0 20 -16.5 32.5
t-43.5 12.5h-20zM67 0l641 688h105l-641 -688h-105zM808 406l-16 -79h-138l-13 -71q8 1 23 1q53 0 85.5 -31t32.5 -81q0 -67 -49 -109.5t-126 -42.5q-53 0 -102 28l15 82q45 -31 87 -31q34 0 57 18t23 45q0 23 -19.5 38.5t-49.5 15.5q-36 0 -73 -10l42 227h221z" />
    <glyph glyph-name="uni2158" unicode="&#x2158;" horiz-adv-x="845" 
d="M188 282l17 94h-170l13 66l225 246h80l-46 -241h58l-13 -71h-58l-18 -94h-88zM136 447h82l21 112zM67 0l641 688h105l-641 -688h-105zM808 406l-16 -79h-138l-13 -71q8 1 23 1q53 0 85.5 -31t32.5 -81q0 -67 -49 -109.5t-126 -42.5q-53 0 -102 28l15 82q45 -31 87 -31
q34 0 57 18t23 45q0 23 -19.5 38.5t-49.5 15.5q-36 0 -73 -10l42 227h221z" />
    <glyph glyph-name="uni2159" unicode="&#x2159;" horiz-adv-x="845" 
d="M159 282l57 303l-104 -43l16 86l143 60h60l-76 -406h-96zM67 0l641 688h105l-641 -688h-105zM676 406h125q-116 -76 -164 -151q27 12 54 12q47 0 79.5 -34t32.5 -83q0 -67 -47.5 -112t-118.5 -45q-57 0 -94.5 37.5t-37.5 97.5q0 72 45 145t126 133zM603 166
q-7 -15 -7 -36q0 -26 14.5 -42t36.5 -16q28 0 46.5 19.5t18.5 48.5q0 22 -14 36t-37 14q-29 0 -58 -24z" />
    <glyph glyph-name="uni215A" unicode="&#x215a;" horiz-adv-x="845" 
d="M360 688l-16 -79h-138l-13 -71q8 1 23 1q53 0 85.5 -31t32.5 -81q0 -67 -49 -109.5t-126 -42.5q-53 0 -102 28l15 82q45 -31 87 -31q34 0 57 18t23 45q0 23 -19.5 38.5t-49.5 15.5q-36 0 -73 -10l42 227h221zM67 0l641 688h105l-641 -688h-105zM676 406h125
q-116 -76 -164 -151q27 12 54 12q47 0 79.5 -34t32.5 -83q0 -67 -47.5 -112t-118.5 -45q-57 0 -94.5 37.5t-37.5 97.5q0 72 45 145t126 133zM603 166q-7 -15 -7 -36q0 -26 14.5 -42t36.5 -16q28 0 46.5 19.5t18.5 48.5q0 22 -14 36t-37 14q-29 0 -58 -24z" />
    <glyph glyph-name="oneeighth" unicode="&#x215b;" horiz-adv-x="845" 
d="M159 282l57 303l-104 -43l16 86l143 60h60l-76 -406h-96zM67 0l641 688h105l-641 -688h-105zM542 285q0 55 44 91.5t111 36.5q53 0 88 -29t35 -74q0 -72 -74 -105q49 -23 49 -80t-46.5 -94.5t-118.5 -37.5q-56 0 -93.5 30t-37.5 75q0 39 23 69t62 43q-42 23 -42 75z
M590 110q0 -19 14 -31.5t35 -12.5q29 0 47 17t18 45q0 19 -13.5 31t-34.5 12q-29 0 -47.5 -17.5t-18.5 -43.5zM629 283q0 -19 12.5 -30.5t32.5 -11.5q25 0 42 16.5t17 41.5q0 18 -12.5 29.5t-32.5 11.5q-26 0 -42.5 -16t-16.5 -41z" />
    <glyph glyph-name="threeeighths" unicode="&#x215c;" horiz-adv-x="845" 
d="M148 451l14 74h20q32 0 52 15t20 39q0 17 -13.5 28t-35.5 11q-44 0 -94 -28l15 85q51 20 99 20q54 0 88 -28t34 -72q0 -37 -21.5 -66.5t-58.5 -41.5q56 -24 56 -83q0 -56 -45 -92.5t-113 -36.5q-64 0 -117 32l15 81q49 -36 98 -36q28 0 47.5 16t19.5 38q0 20 -16.5 32.5
t-43.5 12.5h-20zM67 0l641 688h105l-641 -688h-105zM542 285q0 55 44 91.5t111 36.5q53 0 88 -29t35 -74q0 -72 -74 -105q49 -23 49 -80t-46.5 -94.5t-118.5 -37.5q-56 0 -93.5 30t-37.5 75q0 39 23 69t62 43q-42 23 -42 75zM590 110q0 -19 14 -31.5t35 -12.5q29 0 47 17
t18 45q0 19 -13.5 31t-34.5 12q-29 0 -47.5 -17.5t-18.5 -43.5zM629 283q0 -19 12.5 -30.5t32.5 -11.5q25 0 42 16.5t17 41.5q0 18 -12.5 29.5t-32.5 11.5q-26 0 -42.5 -16t-16.5 -41z" />
    <glyph glyph-name="fiveeighths" unicode="&#x215d;" horiz-adv-x="845" 
d="M360 688l-16 -79h-138l-13 -71q8 1 23 1q53 0 85.5 -31t32.5 -81q0 -67 -49 -109.5t-126 -42.5q-53 0 -102 28l15 82q45 -31 87 -31q34 0 57 18t23 45q0 23 -19.5 38.5t-49.5 15.5q-36 0 -73 -10l42 227h221zM67 0l641 688h105l-641 -688h-105zM542 285q0 55 44 91.5
t111 36.5q53 0 88 -29t35 -74q0 -72 -74 -105q49 -23 49 -80t-46.5 -94.5t-118.5 -37.5q-56 0 -93.5 30t-37.5 75q0 39 23 69t62 43q-42 23 -42 75zM590 110q0 -19 14 -31.5t35 -12.5q29 0 47 17t18 45q0 19 -13.5 31t-34.5 12q-29 0 -47.5 -17.5t-18.5 -43.5zM629 283
q0 -19 12.5 -30.5t32.5 -11.5q25 0 42 16.5t17 41.5q0 18 -12.5 29.5t-32.5 11.5q-26 0 -42.5 -16t-16.5 -41z" />
    <glyph glyph-name="seveneighths" unicode="&#x215e;" horiz-adv-x="845" 
d="M67 282l197 327h-166l15 79h273l-11 -59l-207 -347h-101zM67 0l641 688h105l-641 -688h-105zM542 285q0 55 44 91.5t111 36.5q53 0 88 -29t35 -74q0 -72 -74 -105q49 -23 49 -80t-46.5 -94.5t-118.5 -37.5q-56 0 -93.5 30t-37.5 75q0 39 23 69t62 43q-42 23 -42 75z
M590 110q0 -19 14 -31.5t35 -12.5q29 0 47 17t18 45q0 19 -13.5 31t-34.5 12q-29 0 -47.5 -17.5t-18.5 -43.5zM629 283q0 -19 12.5 -30.5t32.5 -11.5q25 0 42 16.5t17 41.5q0 18 -12.5 29.5t-32.5 11.5q-26 0 -42.5 -16t-16.5 -41z" />
    <glyph glyph-name="uni215F" unicode="&#x215f;" horiz-adv-x="500" 
d="M159 282l57 303l-104 -43l16 86l143 60h60l-76 -406h-96zM67 0l641 688h105l-641 -688h-105z" />
    <glyph glyph-name="arrowleft" unicode="&#x2190;" horiz-adv-x="1000" 
d="M937 221h-641l221 -221h-172l-282 282l282 282h172l-221 -221h641v-122z" />
    <glyph glyph-name="arrowup" unicode="&#x2191;" horiz-adv-x="1000" 
d="M439 -155v641l-221 -221v172l282 282l282 -282v-172l-221 221v-641h-122z" />
    <glyph glyph-name="arrowright" unicode="&#x2192;" horiz-adv-x="1000" 
d="M63 343h641l-221 221h172l282 -282l-282 -282h-172l221 221h-641v122z" />
    <glyph glyph-name="arrowdown" unicode="&#x2193;" horiz-adv-x="1000" 
d="M561 719v-641l221 221v-172l-282 -282l-282 282v172l221 -221v641h122z" />
    <glyph glyph-name="uni2196" unicode="&#x2196;" horiz-adv-x="1000" 
d="M766 -70l-453 453v-313l-122 122v399h399l122 -122h-313l453 -453z" />
    <glyph glyph-name="uni2197" unicode="&#x2197;" horiz-adv-x="1000" 
d="M148 16l453 453h-313l122 122h399v-399l-122 -122v313l-453 -453z" />
    <glyph glyph-name="uni2198" unicode="&#x2198;" horiz-adv-x="1000" 
d="M234 634l453 -453v313l122 -122v-399h-399l-122 122h313l-453 453z" />
    <glyph glyph-name="uni2199" unicode="&#x2199;" horiz-adv-x="1000" 
d="M852 548l-453 -453h313l-122 -122h-399v399l122 122v-313l453 453z" />
    <glyph glyph-name="partialdiff" unicode="&#x2202;" horiz-adv-x="587" 
d="M36 256q0 112 66 184t169 72q74 0 127 -46q-11 75 -51 118t-98 43q-77 0 -151 -48v113q78 39 168 39q122 0 199.5 -104.5t77.5 -274.5q0 -162 -73.5 -263t-190.5 -101q-107 0 -175 75t-68 193zM165 253q0 -70 32.5 -114t84.5 -44q59 0 94.5 54.5t35.5 147.5q0 25 -3 51
q-55 57 -118 57q-55 0 -90.5 -42.5t-35.5 -109.5z" />
    <glyph glyph-name="Delta" unicode="&#x2206;" horiz-adv-x="642" 
d="M-10 0l14 74l348 614h109l121 -621l-12 -67h-580zM381 511l-223 -407h294z" />
    <glyph glyph-name="product" unicode="&#x220f;" horiz-adv-x="783" 
d="M90 -219v938h604v-938h-132v835h-342v-835h-130z" />
    <glyph glyph-name="summation" unicode="&#x2211;" horiz-adv-x="678" 
d="M65 -219v78l308 397l-292 385v78h535v-103h-368l244 -323v-74l-260 -334h399v-104h-566z" />
    <glyph glyph-name="minus" unicode="&#x2212;" 
d="M37 226v111h501v-111h-501z" />
    <glyph glyph-name="uni2215" unicode="&#x2215;" horiz-adv-x="156" 
d="M-277 0l641 688h105l-641 -688h-105z" />
    <glyph glyph-name="uni2219" unicode="&#x2219;" horiz-adv-x="250" 
d="M49 242q0 36 24 60t61 24q29 0 48.5 -19t19.5 -49q0 -36 -24 -60.5t-61 -24.5q-30 0 -49 19.5t-19 49.5z" />
    <glyph glyph-name="radical" unicode="&#x221a;" horiz-adv-x="688" 
d="M655 719l-235 -938h-119l-107 321l-153 -51v110l220 74l94 -282l192 766h108z" />
    <glyph glyph-name="infinity" unicode="&#x221e;" horiz-adv-x="814" 
d="M42 282q0 91 53 148.5t136 57.5q102 0 162 -91l20 -30l20 30q59 91 162 91q83 0 136 -57.5t53 -148.5t-53 -149t-136 -58q-103 0 -162 91l-20 30l-20 -30q-60 -91 -162 -91q-83 0 -136 58t-53 149zM156 282q0 -46 23.5 -74.5t60.5 -28.5q50 0 82 49l35 54l-35 53
q-33 50 -82 50q-37 0 -60.5 -29t-23.5 -74zM670 282q0 45 -24 74t-61 29q-48 0 -81 -50l-35 -53l35 -54q32 -49 81 -49q38 0 61.5 28.5t23.5 74.5z" />
    <glyph glyph-name="integral" unicode="&#x222b;" horiz-adv-x="500" 
d="M306 444q0 -50 11.5 -183t11.5 -192q0 -142 -54.5 -221t-157.5 -79q-42 0 -83 18l20 103q25 -14 49 -14q92 0 92 180q0 50 -12 183t-12 193q0 141 55 220t157 79q41 0 84 -17l-20 -103q-25 13 -49 13q-92 0 -92 -180z" />
    <glyph glyph-name="approxequal" unicode="&#x2248;" 
d="M37 103v114q62 45 134 45q49 0 120 -28t116 -28q67 0 131 49v-115q-63 -44 -134 -44q-59 0 -123 27q-72 29 -113 29q-67 0 -131 -49zM37 309v114q66 46 134 46q53 0 120 -28q71 -28 116 -28q68 0 131 48v-114q-61 -44 -134 -44q-59 0 -123 27q-69 28 -113 28
q-69 0 -131 -49z" />
    <glyph glyph-name="notequal" unicode="&#x2260;" 
d="M85 0l61 121h-109v109h163l51 103h-214v109h270l60 121h123l-61 -121h109v-109h-163l-51 -103h214v-109h-270l-60 -121h-123z" />
    <glyph glyph-name="lessequal" unicode="&#x2264;" 
d="M37 0v110h501v-110h-501zM538 144l-501 213v91l501 213v-119l-330 -139l330 -140v-119z" />
    <glyph glyph-name="greaterequal" unicode="&#x2265;" 
d="M37 0v110h501v-110h-501zM37 661l501 -213v-91l-501 -213v119l330 140l-330 139v119z" />
    <glyph glyph-name="lozenge" unicode="&#x25ca;" 
d="M246 0l-198 344l198 344h107l197 -344l-197 -344h-107zM299 559l-124 -215l124 -214l124 214z" />
    <glyph glyph-name="zero.lnum_pnum" unicode="&#xe010;" horiz-adv-x="613" 
d="M60 240q0 196 91.5 328t227.5 132q98 0 153.5 -66.5t55.5 -184.5q0 -197 -91.5 -329t-227.5 -132q-98 0 -153.5 67t-55.5 185zM189 251q0 -71 25 -112t67 -41q74 0 126.5 99.5t52.5 239.5q0 71 -25.5 112t-67.5 41q-74 0 -126 -99.5t-52 -239.5z" />
    <glyph glyph-name="one.lnum_pnum" unicode="&#xe011;" horiz-adv-x="418" 
d="M146 0l102 544l-183 -79l23 121l234 102h85l-129 -688h-132z" />
    <glyph glyph-name="two.lnum_pnum" unicode="&#xe012;" horiz-adv-x="509" 
d="M-21 0l17 88q175 117 271 221t96 181q0 45 -26 71t-70 26q-86 0 -174 -61l23 124q91 50 186 50q88 0 141.5 -49.5t53.5 -129.5q0 -181 -311 -411h247l-20 -110h-434z" />
    <glyph glyph-name="three.lnum_pnum" unicode="&#xe013;" horiz-adv-x="501" 
d="M163 299l19 101h36q62 0 102.5 31.5t40.5 79.5q0 36 -27.5 59t-70.5 23q-76 0 -160 -46l22 118q82 35 166 35q87 0 142.5 -47t55.5 -120q0 -64 -39 -114.5t-103 -70.5q47 -17 74 -55.5t27 -88.5q0 -94 -74.5 -155t-188.5 -61q-101 0 -193 55l21 113q84 -61 167 -61
q58 0 97 32t39 79q0 42 -33 67.5t-86 25.5h-34z" />
    <glyph glyph-name="four.lnum_pnum" unicode="&#xe014;" horiz-adv-x="569" 
d="M270 0l33 171h-298l18 93l389 424h111l-78 -418h101l-18 -99h-102l-32 -171h-124zM149 270h172l44 235z" />
    <glyph glyph-name="five.lnum_pnum" unicode="&#xe015;" horiz-adv-x="509" 
d="M511 688l-21 -110h-249l-28 -151q27 3 50 3q88 0 144 -53.5t56 -136.5q0 -110 -80 -181t-204 -71q-88 0 -172 48l22 116q76 -54 150 -54q65 0 108.5 36.5t43.5 92.5q0 47 -35.5 77t-92.5 30q-53 0 -125 -16l70 370h363z" />
    <glyph glyph-name="six.lnum_pnum" unicode="&#xe016;" horiz-adv-x="567" 
d="M343 688h179q-202 -132 -289 -270q51 27 109 27q80 0 133.5 -55.5t53.5 -139.5q0 -111 -77.5 -186.5t-192.5 -75.5q-94 0 -155 61t-61 160q0 123 78.5 248.5t221.5 230.5zM184 290q-14 -39 -14 -76q0 -52 28 -84t73 -32q55 0 93.5 41t38.5 99q0 44 -28 72t-72 28
q-62 0 -119 -48z" />
    <glyph glyph-name="seven.lnum_pnum" unicode="&#xe017;" horiz-adv-x="459" 
d="M5 0l351 578h-299l20 110h449l-15 -82l-364 -606h-142z" />
    <glyph glyph-name="eight.lnum_pnum" unicode="&#xe018;" horiz-adv-x="569" 
d="M106 487q0 91 72.5 152t180.5 61q86 0 142.5 -48t56.5 -122q0 -62 -34.5 -109t-98.5 -72q43 -19 67 -56t24 -84q0 -95 -76.5 -158t-194.5 -63q-90 0 -151 50.5t-61 124.5q0 67 40.5 119t109.5 73q-36 19 -56.5 54t-20.5 78zM159 179q0 -38 28 -63.5t70 -25.5
q58 0 95.5 34t37.5 87q0 39 -28.5 64t-70.5 25q-58 0 -95 -34t-37 -87zM227 484q0 -37 25 -60.5t65 -23.5q51 0 85.5 32.5t34.5 80.5q0 38 -25 61.5t-65 23.5q-51 0 -85.5 -32.5t-34.5 -81.5z" />
    <glyph glyph-name="nine.lnum_pnum" unicode="&#xe019;" horiz-adv-x="567" 
d="M259 0h-179q207 138 289 270q-54 -27 -108 -27q-80 0 -134 56t-54 139q0 112 77.5 187t192.5 75q94 0 155 -61t61 -160q0 -123 -78.5 -248.5t-221.5 -230.5zM418 398q15 38 15 76q0 52 -28.5 84t-72.5 32q-55 0 -93.5 -40.5t-38.5 -98.5q0 -44 27.5 -72.5t71.5 -28.5
q63 0 119 48z" />
    <glyph glyph-name="zero.onum_tnum" unicode="&#xe020;" 
d="M31 210q0 143 84.5 238.5t211.5 95.5q94 0 152 -62t58 -160q0 -144 -84 -239t-211 -95q-94 0 -152.5 62t-58.5 160zM160 221q0 -57 26.5 -91.5t70.5 -34.5q63 0 107.5 63.5t44.5 152.5q0 57 -26.5 91.5t-70.5 34.5q-63 0 -107.5 -63.5t-44.5 -152.5z" />
    <glyph glyph-name="one.onum_tnum" unicode="&#xe021;" 
d="M211 0l73 392l-145 -64l23 121l195 83h82l-100 -532h-128z" />
    <glyph glyph-name="two.onum_tnum" unicode="&#xe022;" 
d="M37 0l16 86q140 83 214 154.5t74 123.5q0 32 -19 51t-51 19q-64 0 -144 -51l23 120q78 41 157 41q76 0 122 -42.5t46 -112.5q0 -129 -224 -282h180l-20 -107h-374z" />
    <glyph glyph-name="three.onum_tnum" unicode="&#xe023;" 
d="M179 174l19 101h31q54 0 88.5 26t34.5 67q0 30 -23 49.5t-60 19.5q-66 0 -147 -43l22 117q81 33 152 33q81 0 132.5 -43.5t51.5 -112.5q0 -57 -34.5 -102t-91.5 -64q41 -16 65 -52t24 -83q0 -83 -68.5 -138t-172.5 -55q-90 0 -177 50l21 113q77 -56 151 -56q48 0 81 27.5
t33 66.5q0 35 -28 57t-74 22h-30z" />
    <glyph glyph-name="four.onum_tnum" unicode="&#xe024;" 
d="M239 -94l29 152h-268l18 90l351 384h110l-71 -376h92l-19 -98h-91l-29 -152h-122zM143 155l143 1l36 196z" />
    <glyph glyph-name="five.onum_tnum" unicode="&#xe025;" 
d="M495 532l-21 -110h-221l-23 -125q30 4 43 4q79 0 129.5 -47.5t50.5 -121.5q0 -104 -73.5 -171t-188.5 -67q-78 0 -158 44l22 115q72 -49 136 -49q57 0 94 31t37 79q0 40 -31 65t-81 25q-57 0 -114 -14l64 342h335z" />
    <glyph glyph-name="six.onum_tnum" unicode="&#xe026;" 
d="M320 626h176q-179 -119 -259 -239q50 21 93 21q74 0 123 -51.5t49 -127.5q0 -103 -72 -172t-179 -69q-86 0 -143 57t-57 148q0 112 70.5 225t198.5 208zM190 261q-13 -29 -13 -64q0 -44 24.5 -71.5t63.5 -27.5q47 0 79 34.5t32 83.5q0 38 -24 61.5t-61 23.5
q-53 0 -101 -40z" />
    <glyph glyph-name="seven.onum_tnum" unicode="&#xe027;" 
d="M50 -94l313 516h-268l21 110h415l-15 -83l-326 -543h-140z" />
    <glyph glyph-name="eight.onum_tnum" unicode="&#xe028;" 
d="M111 441q0 83 67.5 139.5t167.5 56.5q81 0 132.5 -44.5t51.5 -113.5q0 -55 -31 -97t-88 -66q37 -16 58.5 -50t21.5 -75q0 -87 -71.5 -145t-179.5 -58q-83 0 -139 47t-56 116q0 58 36.5 105t98.5 68q-32 17 -50.5 48t-18.5 69zM171 166q0 -33 23 -55t59 -22q49 0 80.5 30
t31.5 75q0 32 -23 53.5t-58 21.5q-49 0 -81 -29.5t-32 -73.5zM231 439q0 -31 21.5 -51.5t54.5 -20.5q44 0 73 28t29 70q0 31 -21 51t-55 20q-44 0 -73 -27.5t-29 -69.5z" />
    <glyph glyph-name="nine.onum_tnum" unicode="&#xe029;" 
d="M248 -94h-176q181 120 259 239q-47 -21 -93 -21q-74 0 -123 51.5t-49 127.5q0 103 72 172t179 69q86 0 143 -57t57 -149q0 -111 -70.5 -224t-198.5 -208zM378 271q13 29 13 64q0 43 -24.5 71t-63.5 28q-47 0 -79 -34.5t-32 -83.5q0 -38 23.5 -61.5t61.5 -23.5
q53 0 101 40z" />
    <glyph glyph-name="dollar.onum" unicode="&#xe02a;" 
d="M148 -164l26 140q-58 11 -117 41l21 111q80 -53 157 -53q41 0 66 19.5t25 50.5q0 25 -21.5 44t-52 34t-61 33t-52 50.5t-21.5 77.5q0 68 44.5 114.5t120.5 57.5l26 140h111l-27 -140q58 -12 105 -37l-21 -110q-75 48 -144 48q-38 0 -61.5 -18.5t-23.5 -47.5
q0 -23 21.5 -41t52 -33t61.5 -33t52.5 -52t21.5 -80q0 -71 -47 -118.5t-126 -58.5l-25 -139h-111z" />
    <glyph glyph-name="cent.onum" unicode="&#xe02b;" 
d="M193 -109l28 148q-59 19 -94 68t-35 114q0 109 59.5 185t155.5 93l27 142h109l-26 -143q44 -9 86 -33l-20 -108q-56 41 -115 41q-64 0 -104.5 -45t-40.5 -116q0 -46 27.5 -74.5t73.5 -28.5q61 0 123 34l-21 -111q-46 -22 -97 -27l-26 -139h-110z" />
    <glyph glyph-name="Euro.onum" unicode="&#xe02c;" 
d="M28 200l16 85h50q3 29 9 56h-48l15 85h60q40 97 116.5 154t170.5 57q81 0 157 -40l-21 -110q-58 43 -128 43q-49 0 -90 -27.5t-67 -76.5h190l-16 -85h-212q-7 -30 -8 -56h209l-16 -85h-187q10 -49 44 -77t85 -28q64 0 129 34l-21 -112q-74 -29 -141 -29q-93 0 -156.5 59
t-73.5 153h-66z" />
    <glyph glyph-name="sterling.onum" unicode="&#xe02d;" 
d="M25 0l15 82l88 185h-49l19 103h78l64 134q62 133 187 133q60 0 117 -28l-20 -105q-40 24 -76 24q-57 0 -84 -58l-47 -100h112l-19 -103h-142l-76 -161h280l-20 -106h-427z" />
    <glyph glyph-name="yen.onum" unicode="&#xe02e;" 
d="M170 0l22 114h-127l15 87h128l11 62h-127l17 87h93l-113 276h136l79 -222l160 222h155l-215 -276h91l-16 -87h-132l-11 -62h132l-17 -87h-132l-21 -114h-128z" />
    <glyph glyph-name="zero.onum_pnum" unicode="&#xe030;" horiz-adv-x="582" 
d="M40 210q0 143 84.5 238.5t211.5 95.5q94 0 152 -62t58 -160q0 -144 -84 -239t-211 -95q-94 0 -152.5 62t-58.5 160zM169 221q0 -57 26.5 -91.5t70.5 -34.5q63 0 107.5 63.5t44.5 152.5q0 57 -26.5 91.5t-70.5 34.5q-63 0 -107.5 -63.5t-44.5 -152.5z" />
    <glyph glyph-name="one.onum_pnum" unicode="&#xe031;" horiz-adv-x="356" 
d="M107 0l73 392l-145 -64l23 121l195 83h82l-100 -532h-128z" />
    <glyph glyph-name="two.onum_pnum" unicode="&#xe032;" horiz-adv-x="433" 
d="M-28 0l16 86q140 83 214 154.5t74 123.5q0 32 -19 51t-51 19q-64 0 -144 -51l23 120q78 41 157 41q76 0 122 -42.5t46 -112.5q0 -129 -224 -282h180l-20 -107h-374z" />
    <glyph glyph-name="three.onum_pnum" unicode="&#xe033;" horiz-adv-x="449" 
d="M121 174l19 101h31q54 0 88.5 26t34.5 67q0 30 -23 49.5t-60 19.5q-66 0 -147 -43l22 117q81 33 152 33q81 0 132.5 -43.5t51.5 -112.5q0 -57 -34.5 -102t-91.5 -64q41 -16 65 -52t24 -83q0 -83 -68.5 -138t-172.5 -55q-90 0 -177 50l21 113q77 -56 151 -56q48 0 81 27.5
t33 66.5q0 35 -28 57t-74 22h-30z" />
    <glyph glyph-name="four.onum_pnum" unicode="&#xe034;" horiz-adv-x="522" 
d="M218 -94l29 152h-268l18 90l351 384h110l-71 -376h92l-19 -98h-91l-29 -152h-122zM122 155l143 1l36 196z" />
    <glyph glyph-name="five.onum_pnum" unicode="&#xe035;" horiz-adv-x="451" 
d="M439 532l-21 -110h-221l-23 -125q30 4 43 4q79 0 129.5 -47.5t50.5 -121.5q0 -104 -73.5 -171t-188.5 -67q-78 0 -158 44l22 115q72 -49 136 -49q57 0 94 31t37 79q0 40 -31 65t-81 25q-57 0 -114 -14l64 342h335z" />
    <glyph glyph-name="six.onum_pnum" unicode="&#xe036;" horiz-adv-x="525" 
d="M301 626h176q-179 -119 -259 -239q50 21 93 21q74 0 123 -51.5t49 -127.5q0 -103 -72 -172t-179 -69q-86 0 -143 57t-57 148q0 112 70.5 225t198.5 208zM171 261q-13 -29 -13 -64q0 -44 24.5 -71.5t63.5 -27.5q47 0 79 34.5t32 83.5q0 38 -23.5 61.5t-61.5 23.5
q-53 0 -101 -40z" />
    <glyph glyph-name="seven.onum_pnum" unicode="&#xe037;" horiz-adv-x="420" 
d="M-21 -94l313 516h-268l21 110h415l-15 -83l-326 -543h-140z" />
    <glyph glyph-name="eight.onum_pnum" unicode="&#xe038;" horiz-adv-x="522" 
d="M90 441q0 83 67.5 139.5t167.5 56.5q81 0 132.5 -44.5t51.5 -113.5q0 -55 -31 -97t-88 -66q37 -16 58.5 -50t21.5 -75q0 -87 -71.5 -145t-179.5 -58q-83 0 -139 47t-56 116q0 58 36.5 105t98.5 68q-32 17 -50.5 48t-18.5 69zM150 166q0 -33 23 -55t59 -22q49 0 80.5 30
t31.5 75q0 32 -23 53.5t-58 21.5q-49 0 -81 -29.5t-32 -73.5zM210 439q0 -31 21.5 -51.5t54.5 -20.5q44 0 73 28t29 70q0 31 -21 51t-55 20q-44 0 -73 -27.5t-29 -69.5z" />
    <glyph glyph-name="nine.onum_pnum" unicode="&#xe039;" horiz-adv-x="525" 
d="M229 -94h-176q181 120 259 239q-46 -21 -93 -21q-74 0 -123 51.5t-49 127.5q0 103 72 172t179 69q86 0 143 -57t57 -149q0 -111 -70.5 -224t-198.5 -208zM359 271q13 29 13 64q0 43 -24.5 71t-63.5 28q-47 0 -79 -34.5t-32 -83.5q0 -38 23.5 -61.5t61.5 -23.5
q53 0 101 40z" />
    <glyph glyph-name="zero.numerator" unicode="&#xe040;" horiz-adv-x="376" 
d="M72 424q0 115 55 193t137 78q60 0 94 -39.5t34 -109.5q0 -115 -55 -193t-137 -78q-60 0 -94 39.5t-34 109.5zM165 429q0 -34 12 -54.5t32 -20.5q37 0 63 54.5t26 132.5q0 34 -11.5 54.5t-31.5 20.5q-37 0 -63.5 -54.5t-26.5 -132.5z" />
    <glyph glyph-name="one.numerator" unicode="&#xe041;" horiz-adv-x="268" 
d="M121 282l57 303l-104 -43l16 86l143 60h60l-76 -406h-96z" />
    <glyph glyph-name="two.numerator" unicode="&#xe042;" horiz-adv-x="315" 
d="M25 282l12 61q92 59 147.5 118t55.5 100q0 24 -13.5 38t-38.5 14q-47 0 -98 -36l16 91q54 27 113 27q54 0 86.5 -31.5t32.5 -83.5q0 -100 -163 -219h127l-15 -79h-262z" />
    <glyph glyph-name="three.numerator" unicode="&#xe043;" horiz-adv-x="311" 
d="M134 451l14 74h20q32 0 52 15t20 39q0 17 -13.5 28t-35.5 11q-44 0 -94 -28l15 85q51 20 99 20q54 0 88 -28t34 -72q0 -37 -21.5 -66.5t-58.5 -41.5q56 -24 56 -83q0 -56 -45 -92.5t-113 -36.5q-64 0 -117 32l15 81q49 -36 98 -36q28 0 47.5 16t19.5 38q0 20 -16.5 32.5
t-43.5 12.5h-20z" />
    <glyph glyph-name="four.numerator" unicode="&#xe044;" horiz-adv-x="352" 
d="M192 282l17 94h-170l13 66l225 246h80l-46 -241h58l-13 -71h-58l-18 -94h-88zM140 447h82l21 112z" />
    <glyph glyph-name="five.numerator" unicode="&#xe045;" horiz-adv-x="316" 
d="M346 688l-16 -79h-138l-13 -71q8 1 23 1q53 0 85.5 -31t32.5 -81q0 -67 -49 -109.5t-126 -42.5q-53 0 -102 28l15 82q45 -31 87 -31q34 0 57 18t23 45q0 23 -19.5 38.5t-49.5 15.5q-36 0 -73 -10l42 227h221z" />
    <glyph glyph-name="six.numerator" unicode="&#xe046;" horiz-adv-x="352" 
d="M233 688h125q-116 -76 -164 -151q27 12 54 12q47 0 79.5 -34t32.5 -83q0 -67 -47.5 -112t-118.5 -45q-57 0 -94.5 37.5t-37.5 97.5q0 72 45 145t126 133zM160 448q-7 -15 -7 -36q0 -26 14.5 -42t36.5 -16q28 0 46.5 19.5t18.5 48.5q0 22 -14 36t-37 14q-30 0 -58 -24z
" />
    <glyph glyph-name="seven.numerator" unicode="&#xe047;" horiz-adv-x="288" 
d="M38 282l197 327h-166l15 79h273l-11 -59l-207 -347h-101z" />
    <glyph glyph-name="eight.numerator" unicode="&#xe048;" horiz-adv-x="353" 
d="M99 567q0 55 44 91.5t111 36.5q53 0 88 -29t35 -74q0 -72 -74 -105q49 -23 49 -80t-46.5 -94.5t-118.5 -37.5q-56 0 -93.5 30t-37.5 75q0 39 23 69t62 43q-42 23 -42 75zM147 392q0 -19 14 -31.5t35 -12.5q29 0 47 17t18 45q0 19 -13.5 31t-34.5 12q-29 0 -47.5 -17.5
t-18.5 -43.5zM186 565q0 -19 12.5 -30.5t32.5 -11.5q25 0 42 16.5t17 41.5q0 18 -12.5 29.5t-32.5 11.5q-26 0 -42.5 -16t-16.5 -41z" />
    <glyph glyph-name="nine.numerator" unicode="&#xe049;" horiz-adv-x="352" 
d="M208 282h-126q114 73 165 151q-27 -12 -53 -12q-48 0 -80.5 33.5t-32.5 83.5q0 67 47 112t118 45q57 0 95 -37.5t38 -97.5q0 -71 -45 -144.5t-126 -133.5zM281 522q7 19 7 36q0 26 -14.5 42t-36.5 16q-28 0 -46.5 -19.5t-18.5 -48.5q0 -22 14 -36t36 -14q30 0 59 24z" />
    <glyph glyph-name="plus.numerator" unicode="&#xe04a;" horiz-adv-x="344" 
d="M69 445v80h108v108h80v-108h108v-80h-108v-108h-80v108h-108z" />
    <glyph glyph-name="minus.numerator" unicode="&#xe04b;" horiz-adv-x="344" 
d="M69 445v80h296v-80h-296z" />
    <glyph glyph-name="equal.numerator" unicode="&#xe04c;" horiz-adv-x="344" 
d="M69 382v78h296v-78h-296zM69 510v78h296v-78h-296z" />
    <glyph glyph-name="parenleft.numerator" unicode="&#xe04d;" horiz-adv-x="214" 
d="M75 434q0 179 133 310h106q-71 -61 -109.5 -140t-38.5 -165q0 -115 48 -213h-88q-51 102 -51 208z" />
    <glyph glyph-name="parenright.numerator" unicode="&#xe04e;" horiz-adv-x="214" 
d="M224 537q0 -179 -132 -311h-107q148 126 148 306q0 114 -48 212h88q51 -99 51 -207z" />
    <glyph glyph-name="zero.denominator" unicode="&#xe050;" horiz-adv-x="376" 
d="M19 142q0 115 55 193t137 78q60 0 94 -39.5t34 -109.5q0 -115 -55 -193t-137 -78q-60 0 -94 39.5t-34 109.5zM112 147q0 -34 12 -54.5t32 -20.5q37 0 63 54.5t26 132.5q0 34 -11.5 54.5t-31.5 20.5q-37 0 -63.5 -54.5t-26.5 -132.5z" />
    <glyph glyph-name="one.denominator" unicode="&#xe051;" horiz-adv-x="268" 
d="M68 0l57 303l-104 -43l16 86l143 60h60l-76 -406h-96z" />
    <glyph glyph-name="two.denominator" unicode="&#xe052;" horiz-adv-x="315" 
d="M-28 0l12 61q92 59 147.5 118t55.5 100q0 24 -13.5 38t-38.5 14q-47 0 -98 -36l16 91q54 27 113 27q54 0 86.5 -31.5t32.5 -83.5q0 -100 -163 -219h127l-15 -79h-262z" />
    <glyph glyph-name="three.denominator" unicode="&#xe053;" horiz-adv-x="311" 
d="M81 169l14 74h20q32 0 52 15t20 39q0 17 -13.5 28t-35.5 11q-44 0 -94 -28l15 85q51 20 99 20q54 0 88 -28t34 -72q0 -37 -21.5 -66.5t-58.5 -41.5q56 -24 56 -83q0 -56 -45 -92.5t-113 -36.5q-64 0 -117 32l15 81q49 -36 98 -36q28 0 47.5 16t19.5 38q0 20 -16.5 32.5
t-43.5 12.5h-20z" />
    <glyph glyph-name="four.denominator" unicode="&#xe054;" horiz-adv-x="352" 
d="M139 0l17 94h-170l13 66l225 246h80l-46 -241h58l-13 -71h-58l-18 -94h-88zM87 165h82l21 112z" />
    <glyph glyph-name="five.denominator" unicode="&#xe055;" horiz-adv-x="316" 
d="M293 406l-16 -79h-138l-13 -71q8 1 23 1q53 0 85.5 -31t32.5 -81q0 -67 -49 -109.5t-126 -42.5q-53 0 -102 28l15 82q45 -31 87 -31q34 0 57 18t23 45q0 23 -19.5 38.5t-49.5 15.5q-36 0 -73 -10l42 227h221z" />
    <glyph glyph-name="six.denominator" unicode="&#xe056;" horiz-adv-x="352" 
d="M180 406h125q-116 -76 -164 -151q27 12 54 12q47 0 79.5 -34t32.5 -83q0 -67 -47.5 -112t-118.5 -45q-57 0 -94.5 37.5t-37.5 97.5q0 72 45 145t126 133zM107 166q-7 -15 -7 -36q0 -26 14.5 -42t36.5 -16q28 0 46.5 19.5t18.5 48.5q0 22 -14 36t-37 14q-29 0 -58 -24z
" />
    <glyph glyph-name="seven.denominator" unicode="&#xe057;" horiz-adv-x="288" 
d="M-15 0l197 327h-166l15 79h273l-11 -59l-207 -347h-101z" />
    <glyph glyph-name="eight.denominator" unicode="&#xe058;" horiz-adv-x="353" 
d="M46 285q0 55 44 91.5t111 36.5q53 0 88 -29t35 -74q0 -72 -74 -105q49 -23 49 -80t-46.5 -94.5t-118.5 -37.5q-56 0 -93.5 30t-37.5 75q0 39 23 69t62 43q-42 23 -42 75zM94 110q0 -19 14 -31.5t35 -12.5q29 0 47 17t18 45q0 19 -13.5 31t-34.5 12q-29 0 -47.5 -17.5
t-18.5 -43.5zM133 283q0 -19 12.5 -30.5t32.5 -11.5q25 0 42 16.5t17 41.5q0 18 -12.5 29.5t-32.5 11.5q-26 0 -42.5 -16t-16.5 -41z" />
    <glyph glyph-name="nine.denominator" unicode="&#xe059;" horiz-adv-x="352" 
d="M155 0h-126q114 73 165 151q-27 -12 -53 -12q-48 0 -80.5 33.5t-32.5 83.5q0 67 47 112t118 45q57 0 95 -37.5t38 -97.5q0 -71 -45 -144.5t-126 -133.5zM228 240q7 19 7 36q0 26 -14.5 42t-36.5 16q-28 0 -46.5 -19.5t-18.5 -48.5q0 -22 13.5 -36t36.5 -14q31 0 59 24z
" />
    <glyph glyph-name="plus.denominator" unicode="&#xe05a;" horiz-adv-x="344" 
d="M16 163v80h108v108h80v-108h108v-80h-108v-108h-80v108h-108z" />
    <glyph glyph-name="minus.denominator" unicode="&#xe05b;" horiz-adv-x="344" 
d="M16 163v80h296v-80h-296z" />
    <glyph glyph-name="equal.denominator" unicode="&#xe05c;" horiz-adv-x="344" 
d="M16 100v78h296v-78h-296zM16 228v78h296v-78h-296z" />
    <glyph glyph-name="parenleft.denominator" unicode="&#xe05d;" horiz-adv-x="214" 
d="M22 152q0 179 133 310h106q-71 -61 -109.5 -140t-38.5 -165q0 -116 48 -213h-88q-51 102 -51 208z" />
    <glyph glyph-name="parenright.denominator" unicode="&#xe05e;" horiz-adv-x="214" 
d="M171 255q0 -179 -132 -311h-107q148 126 148 306q0 114 -48 212h88q51 -99 51 -207z" />
    <glyph glyph-name="period.superior" unicode="&#xe060;" horiz-adv-x="160" 
d="M63 448q0 26 17.5 43t42.5 17q22 0 35.5 -13.5t13.5 -34.5q0 -26 -17.5 -43t-43.5 -17q-21 0 -34.5 13t-13.5 35z" />
    <glyph glyph-name="comma.superior" unicode="&#xe061;" horiz-adv-x="160" 
d="M-2 332l84 154h92l-94 -154h-82z" />
    <glyph glyph-name="period.inferior" unicode="&#xe062;" horiz-adv-x="160" 
d="M-37 -84q0 26 17.5 43t42.5 17q22 0 35.5 -13.5t13.5 -34.5q0 -26 -17.5 -43t-43.5 -17q-21 0 -34.5 13t-13.5 35z" />
    <glyph glyph-name="comma.inferior" unicode="&#xe063;" horiz-adv-x="160" 
d="M-102 -200l84 154h92l-94 -154h-82z" />
    <glyph glyph-name="period.numerator" unicode="&#xe064;" horiz-adv-x="160" 
d="M40 323q0 25 17 42.5t43 17.5q22 0 35.5 -13.5t13.5 -34.5q0 -26 -17.5 -43t-43.5 -17q-21 0 -34.5 13t-13.5 35z" />
    <glyph glyph-name="comma.numerator" unicode="&#xe065;" horiz-adv-x="160" 
d="M-25 207l84 154h92l-94 -154h-82z" />
    <glyph glyph-name="period.denominator" unicode="&#xe066;" horiz-adv-x="160" 
d="M-13 41q0 25 17.5 42.5t42.5 17.5q22 0 35.5 -13.5t13.5 -34.5q0 -26 -17.5 -43t-43.5 -17q-21 0 -34.5 13t-13.5 35z" />
    <glyph glyph-name="comma.denominator" unicode="&#xe067;" horiz-adv-x="160" 
d="M-78 -75l84 154h92l-94 -154h-82z" />
    <glyph glyph-name="onehalf.nut" unicode="&#xe080;" 
d="M286 438l57 303l-104 -43l16 86l143 60h60l-76 -406h-96zM46 306l14 77h491l-14 -77h-491zM66 -156l12 61q92 59 147.5 118t55.5 100q0 24 -13.5 38t-38.5 14q-47 0 -98 -36l16 91q54 27 113 27q54 0 86.5 -31.5t32.5 -83.5q0 -100 -163 -219h127l-15 -79h-262z" />
    <glyph glyph-name="onethird.nut" unicode="&#xe081;" 
d="M290 438l57 303l-104 -43l16 86l143 60h60l-76 -406h-96zM46 306l14 77h491l-14 -77h-491zM177 13l14 74h20q32 0 52 15t20 39q0 17 -13.5 28t-35.5 11q-44 0 -94 -28l15 85q51 20 99 20q54 0 88 -28t34 -72q0 -37 -21.5 -66.5t-58.5 -41.5q56 -24 56 -83
q0 -56 -45 -92.5t-113 -36.5q-64 0 -117 32l15 81q49 -36 98 -36q28 0 47.5 16t19.5 38q0 20 -16.5 32.5t-43.5 12.5h-20z" />
    <glyph glyph-name="twothirds.nut" unicode="&#xe082;" 
d="M178 438l12 61q92 59 147.5 118t55.5 100q0 24 -13.5 38t-38.5 14q-47 0 -98 -36l16 91q54 27 113 27q54 0 86.5 -31.5t32.5 -83.5q0 -100 -163 -219h127l-15 -79h-262zM46 306l14 77h491l-14 -77h-491zM177 13l14 74h20q32 0 52 15t20 39q0 17 -13.5 28t-35.5 11
q-44 0 -94 -28l15 85q51 20 99 20q54 0 88 -28t34 -72q0 -37 -21.5 -66.5t-58.5 -41.5q56 -24 56 -83q0 -56 -45 -92.5t-113 -36.5q-64 0 -117 32l15 81q49 -36 98 -36q28 0 47.5 16t19.5 38q0 20 -16.5 32.5t-43.5 12.5h-20z" />
    <glyph glyph-name="onequarter.nut" unicode="&#xe083;" 
d="M290 438l57 303l-104 -43l16 86l143 60h60l-76 -406h-96zM46 306l14 77h491l-14 -77h-491zM215 -156l17 94h-170l13 66l225 246h80l-46 -241h58l-13 -71h-58l-18 -94h-88zM163 9h82l21 112z" />
    <glyph glyph-name="quarter.nut" unicode="&#xe084;" 
d="M289 607l14 74h20q32 0 52 15t20 39q0 17 -13.5 28t-35.5 11q-44 0 -94 -28l15 85q51 20 99 20q54 0 88 -28t34 -72q0 -37 -21.5 -66.5t-58.5 -41.5q56 -24 56 -83q0 -56 -45 -92.5t-113 -36.5q-64 0 -117 32l15 81q49 -36 98 -36q28 0 47.5 16t19.5 38q0 20 -16.5 32.5
t-43.5 12.5h-20zM46 306l14 77h491l-14 -77h-491zM215 -156l17 94h-170l13 66l225 246h80l-46 -241h58l-13 -71h-58l-18 -94h-88zM163 9h82l21 112z" />
    <glyph glyph-name="onefifth.nut" unicode="&#xe085;" 
d="M290 438l57 303l-104 -43l16 86l143 60h60l-76 -406h-96zM46 306l14 77h491l-14 -77h-491zM387 250l-16 -79h-138l-13 -71q8 1 23 1q53 0 85.5 -31t32.5 -81q0 -67 -49 -109.5t-126 -42.5q-53 0 -102 28l15 82q45 -31 87 -31q34 0 57 18t23 45q0 23 -19.5 38.5
t-49.5 15.5q-36 0 -73 -10l42 227h221z" />
    <glyph glyph-name="twofifths.nut" unicode="&#xe086;" 
d="M178 438l12 61q92 59 147.5 118t55.5 100q0 24 -13.5 38t-38.5 14q-47 0 -98 -36l16 91q54 27 113 27q54 0 86.5 -31.5t32.5 -83.5q0 -100 -163 -219h127l-15 -79h-262zM46 306l14 77h491l-14 -77h-491zM387 250l-16 -79h-138l-13 -71q8 1 23 1q53 0 85.5 -31t32.5 -81
q0 -67 -49 -109.5t-126 -42.5q-53 0 -102 28l15 82q45 -31 87 -31q34 0 57 18t23 45q0 23 -19.5 38.5t-49.5 15.5q-36 0 -73 -10l42 227h221z" />
    <glyph glyph-name="threefifths.nut" unicode="&#xe087;" 
d="M287 607l14 74h20q32 0 52 15t20 39q0 17 -13.5 28t-35.5 11q-44 0 -94 -28l15 85q51 20 99 20q54 0 88 -28t34 -72q0 -37 -21.5 -66.5t-58.5 -41.5q56 -24 56 -83q0 -56 -45 -92.5t-113 -36.5q-64 0 -117 32l15 81q49 -36 98 -36q28 0 47.5 16t19.5 38q0 20 -16.5 32.5
t-43.5 12.5h-20zM46 306l14 77h491l-14 -77h-491zM387 250l-16 -79h-138l-13 -71q8 1 23 1q53 0 85.5 -31t32.5 -81q0 -67 -49 -109.5t-126 -42.5q-53 0 -102 28l15 82q45 -31 87 -31q34 0 57 18t23 45q0 23 -19.5 38.5t-49.5 15.5q-36 0 -73 -10l42 227h221z" />
    <glyph glyph-name="fourfifths.nut" unicode="&#xe088;" 
d="M327 438l17 94h-170l13 66l225 246h80l-46 -241h58l-13 -71h-58l-18 -94h-88zM275 603h82l21 112zM46 306l14 77h491l-14 -77h-491zM387 250l-16 -79h-138l-13 -71q8 1 23 1q53 0 85.5 -31t32.5 -81q0 -67 -49 -109.5t-126 -42.5q-53 0 -102 28l15 82q45 -31 87 -31
q34 0 57 18t23 45q0 23 -19.5 38.5t-49.5 15.5q-36 0 -73 -10l42 227h221z" />
    <glyph glyph-name="onesixth.nut" unicode="&#xe089;" 
d="M290 438l57 303l-104 -43l16 86l143 60h60l-76 -406h-96zM46 306l14 77h491l-14 -77h-491zM255 250h125q-116 -76 -164 -151q27 12 54 12q47 0 79.5 -34t32.5 -83q0 -67 -47.5 -112t-118.5 -45q-57 0 -94.5 37.5t-37.5 97.5q0 72 45 145t126 133zM182 10q-7 -15 -7 -36
q0 -26 14.5 -42t36.5 -16q28 0 46.5 19.5t18.5 48.5q0 22 -14 36t-37 14q-30 0 -58 -24z" />
    <glyph glyph-name="fivesixths.nut" unicode="&#xe08a;" 
d="M499 844l-16 -79h-138l-13 -71q8 1 23 1q53 0 85.5 -31t32.5 -81q0 -67 -49 -109.5t-126 -42.5q-53 0 -102 28l15 82q45 -31 87 -31q34 0 57 18t23 45q0 23 -19.5 38.5t-49.5 15.5q-36 0 -73 -10l42 227h221zM46 306l14 77h491l-14 -77h-491zM255 250h125
q-116 -76 -164 -151q27 12 54 12q47 0 79.5 -34t32.5 -83q0 -67 -47.5 -112t-118.5 -45q-57 0 -94.5 37.5t-37.5 97.5q0 72 45 145t126 133zM182 10q-7 -15 -7 -36q0 -26 14.5 -42t36.5 -16q28 0 46.5 19.5t18.5 48.5q0 22 -14 36t-37 14q-30 0 -58 -24z" />
    <glyph glyph-name="oneeighth.nut" unicode="&#xe08b;" 
d="M290 438l57 303l-104 -43l16 86l143 60h60l-76 -406h-96zM46 306l14 77h491l-14 -77h-491zM121 129q0 55 44 91.5t111 36.5q53 0 88 -29t35 -74q0 -72 -74 -105q49 -23 49 -80t-46.5 -94.5t-118.5 -37.5q-56 0 -93.5 30t-37.5 75q0 39 23 69t62 43q-42 23 -42 75z
M169 -46q0 -19 14 -31.5t35 -12.5q29 0 47 17t18 45q0 19 -13.5 31t-34.5 12q-29 0 -47.5 -17.5t-18.5 -43.5zM208 127q0 -19 12.5 -30.5t32.5 -11.5q25 0 42 16.5t17 41.5q0 18 -12.5 29.5t-32.5 11.5q-26 0 -42.5 -16t-16.5 -41z" />
    <glyph glyph-name="threeeighths.nut" unicode="&#xe08c;" 
d="M287 607l14 74h20q32 0 52 15t20 39q0 17 -13.5 28t-35.5 11q-44 0 -94 -28l15 85q51 20 99 20q54 0 88 -28t34 -72q0 -37 -21.5 -66.5t-58.5 -41.5q56 -24 56 -83q0 -56 -45 -92.5t-113 -36.5q-64 0 -117 32l15 81q49 -36 98 -36q28 0 47.5 16t19.5 38q0 20 -16.5 32.5
t-43.5 12.5h-20zM46 306l14 77h491l-14 -77h-491zM121 129q0 55 44 91.5t111 36.5q53 0 88 -29t35 -74q0 -72 -74 -105q49 -23 49 -80t-46.5 -94.5t-118.5 -37.5q-56 0 -93.5 30t-37.5 75q0 39 23 69t62 43q-42 23 -42 75zM169 -46q0 -19 14 -31.5t35 -12.5q29 0 47 17
t18 45q0 19 -13.5 31t-34.5 12q-29 0 -47.5 -17.5t-18.5 -43.5zM208 127q0 -19 12.5 -30.5t32.5 -11.5q25 0 42 16.5t17 41.5q0 18 -12.5 29.5t-32.5 11.5q-26 0 -42.5 -16t-16.5 -41z" />
    <glyph glyph-name="fiveeighths.nut" unicode="&#xe08d;" 
d="M499 844l-16 -79h-138l-13 -71q8 1 23 1q53 0 85.5 -31t32.5 -81q0 -67 -49 -109.5t-126 -42.5q-53 0 -102 28l15 82q45 -31 87 -31q34 0 57 18t23 45q0 23 -19.5 38.5t-49.5 15.5q-36 0 -73 -10l42 227h221zM46 306l14 77h491l-14 -77h-491zM121 129q0 55 44 91.5
t111 36.5q53 0 88 -29t35 -74q0 -72 -74 -105q49 -23 49 -80t-46.5 -94.5t-118.5 -37.5q-56 0 -93.5 30t-37.5 75q0 39 23 69t62 43q-42 23 -42 75zM169 -46q0 -19 14 -31.5t35 -12.5q29 0 47 17t18 45q0 19 -13.5 31t-34.5 12q-29 0 -47.5 -17.5t-18.5 -43.5zM208 127
q0 -19 12.5 -30.5t32.5 -11.5q25 0 42 16.5t17 41.5q0 18 -12.5 29.5t-32.5 11.5q-26 0 -42.5 -16t-16.5 -41z" />
    <glyph glyph-name="seveneighths.nut" unicode="&#xe08e;" 
d="M204 438l197 327h-166l15 79h273l-11 -59l-207 -347h-101zM46 306l14 77h491l-14 -77h-491zM121 129q0 55 44 91.5t111 36.5q53 0 88 -29t35 -74q0 -72 -74 -105q49 -23 49 -80t-46.5 -94.5t-118.5 -37.5q-56 0 -93.5 30t-37.5 75q0 39 23 69t62 43q-42 23 -42 75z
M169 -46q0 -19 14 -31.5t35 -12.5q29 0 47 17t18 45q0 19 -13.5 31t-34.5 12q-29 0 -47.5 -17.5t-18.5 -43.5zM208 127q0 -19 12.5 -30.5t32.5 -11.5q25 0 42 16.5t17 41.5q0 18 -12.5 29.5t-32.5 11.5q-26 0 -42.5 -16t-16.5 -41z" />
    <glyph glyph-name="fractionone.nut" unicode="&#xe08f;" 
d="M290 438l57 303l-104 -43l16 86l143 60h60l-76 -406h-96zM46 306l14 77h491l-14 -77h-491z" />
    <glyph glyph-name="A.superior" unicode="&#xe100;" horiz-adv-x="398" 
d="M12 282l231 406h79l78 -406h-86l-14 85h-144l-46 -85h-98zM266 573l-72 -135h94z" />
    <glyph glyph-name="B.superior" unicode="&#xe101;" horiz-adv-x="382" 
d="M184 453l-19 -98h57q28 0 46 16t18 41q0 41 -48 41h-54zM60 282l77 406h145q53 0 84.5 -26t31.5 -69q0 -35 -19 -63.5t-52 -42.5q52 -21 52 -77q0 -55 -45 -91.5t-113 -36.5h-161zM214 615l-18 -91h51q26 0 42.5 15t16.5 38q0 38 -44 38h-48z" />
    <glyph glyph-name="C.superior" unicode="&#xe102;" horiz-adv-x="379" 
d="M70 443q0 111 65.5 181.5t166.5 70.5q62 0 122 -35l-15 -80q-51 35 -100 35q-63 0 -102.5 -44.5t-39.5 -116.5q0 -45 27 -72.5t72 -27.5q51 0 106 32l-16 -86q-51 -25 -116 -25q-75 0 -122.5 47t-47.5 121z" />
    <glyph glyph-name="D.superior" unicode="&#xe103;" horiz-adv-x="435" 
d="M60 282l77 406h145q76 0 123 -44.5t47 -115.5q0 -111 -63.5 -178.5t-168.5 -67.5h-160zM218 610l-47 -251h55q56 0 93 45.5t37 115.5q0 41 -24 65.5t-66 24.5h-48z" />
    <glyph glyph-name="E.superior" unicode="&#xe104;" horiz-adv-x="343" 
d="M60 282l77 406h250l-15 -78h-154l-16 -84h131l-13 -75h-133l-16 -92h159l-15 -77h-255z" />
    <glyph glyph-name="F.superior" unicode="&#xe105;" horiz-adv-x="330" 
d="M60 282l77 406h250l-15 -78h-154l-19 -99h131l-14 -78h-132l-28 -151h-96z" />
    <glyph glyph-name="G.superior" unicode="&#xe106;" horiz-adv-x="424" 
d="M428 507l-37 -204q-70 -28 -144 -28q-78 0 -127.5 47.5t-49.5 120.5q0 111 67 181.5t171 70.5q64 0 132 -40l-16 -81q-55 41 -112 41q-65 0 -106 -45t-41 -116q0 -44 27 -72t71 -28q27 0 50 8l14 73h-76l13 72h164z" />
    <glyph glyph-name="H.superior" unicode="&#xe107;" horiz-adv-x="453" 
d="M60 282l77 406h95l-30 -161h153l30 161h95l-77 -406h-95l32 168h-153l-31 -168h-96z" />
    <glyph glyph-name="I.superior" unicode="&#xe108;" horiz-adv-x="206" 
d="M60 282l77 406h95l-76 -406h-96z" />
    <glyph glyph-name="J.superior" unicode="&#xe109;" horiz-adv-x="298" 
d="M326 688l-56 -297q-10 -54 -47 -85t-92 -31q-49 0 -95 23l14 76q35 -20 66 -20q24 0 41 14.5t22 37.5l52 282h95z" />
    <glyph glyph-name="K.superior" unicode="&#xe10a;" horiz-adv-x="400" 
d="M60 282l77 406h93l-29 -156l157 156h116l-207 -203l138 -203h-107l-113 170l-31 -170h-94z" />
    <glyph glyph-name="L.superior" unicode="&#xe10b;" horiz-adv-x="316" 
d="M60 282l77 406h95l-61 -327h150l-15 -79h-246z" />
    <glyph glyph-name="M.superior" unicode="&#xe10c;" horiz-adv-x="505" 
d="M60 282l77 406h78l83 -166l145 166h88l-76 -406h-89l48 255l-103 -120h-52l-61 122l-49 -257h-89z" />
    <glyph glyph-name="N.superior" unicode="&#xe10d;" horiz-adv-x="453" 
d="M60 282l77 406h77l129 -258l49 258h88l-77 -406h-77l-128 257l-49 -257h-89z" />
    <glyph glyph-name="O.superior" unicode="&#xe10e;" horiz-adv-x="453" 
d="M70 441q0 112 65 183t167 71q76 0 122.5 -46t46.5 -121q0 -112 -65 -182.5t-167 -70.5q-76 0 -122.5 46t-46.5 120zM168 449q0 -43 21.5 -69t58.5 -26q52 0 89 48.5t37 117.5q0 43 -22 69t-59 26q-52 0 -88.5 -48t-36.5 -118z" />
    <glyph glyph-name="P.superior" unicode="&#xe10f;" horiz-adv-x="375" 
d="M60 282l77 406h143q58 0 92 -31t34 -84q0 -64 -49.5 -108t-122.5 -44h-54l-26 -139h-94zM216 613l-22 -116h42q33 0 54 19t21 49q0 23 -14.5 35.5t-40.5 12.5h-40z" />
    <glyph glyph-name="Q.superior" unicode="&#xe110;" horiz-adv-x="453" 
d="M168 449q0 -43 21.5 -69t58.5 -26q52 0 89 48.5t37 117.5q0 43 -22 69t-59 26q-52 0 -88.5 -48t-36.5 -118zM70 441q0 112 65 183t167 71q76 0 122.5 -46t46.5 -121q0 -72 -28 -128t-78 -89l62 -90h-100l-40 58q-20 -4 -48 -4q-76 0 -122.5 46t-46.5 120z" />
    <glyph glyph-name="R.superior" unicode="&#xe111;" horiz-adv-x="380" 
d="M269 282l-53 144h-35l-27 -144h-94l77 406h140q58 0 91 -30t33 -82q0 -45 -26 -82t-70 -54l62 -158h-98zM216 613l-21 -112h39q32 0 52.5 19t20.5 47q0 46 -54 46h-37z" />
    <glyph glyph-name="S.superior" unicode="&#xe112;" horiz-adv-x="339" 
d="M51 308l15 80q58 -38 111 -38q29 0 46.5 13.5t17.5 35.5q0 21 -23 37.5t-51 27.5t-51 38t-23 67q0 55 43 90.5t113 35.5q57 0 117 -30l-15 -79q-53 34 -102 34q-28 0 -45 -13t-17 -33q0 -16 15 -29t37 -23t44 -23t37 -37t15 -57q0 -57 -43.5 -93.5t-114.5 -36.5
q-63 0 -126 33z" />
    <glyph glyph-name="T.superior" unicode="&#xe113;" horiz-adv-x="362" 
d="M139 282l61 328h-113l15 78h322l-14 -78h-115l-61 -328h-95z" />
    <glyph glyph-name="U.superior" unicode="&#xe114;" horiz-adv-x="453" 
d="M482 688l-50 -264q-13 -69 -64.5 -109t-128.5 -40q-68 0 -110.5 37t-42.5 96q0 20 4 37l45 243h95l-46 -243q-2 -16 -2 -24q0 -30 18 -48.5t48 -18.5q35 0 59.5 22t31.5 59l48 253h95z" />
    <glyph glyph-name="V.superior" unicode="&#xe115;" horiz-adv-x="398" 
d="M473 688l-230 -406h-79l-79 406h91l45 -280l150 280h102z" />
    <glyph glyph-name="W.superior" unicode="&#xe116;" horiz-adv-x="620" 
d="M693 688l-213 -406h-84l-30 290l-137 -290h-84l-57 406h89l30 -290l136 290h84l30 -290l136 290h100z" />
    <glyph glyph-name="X.superior" unicode="&#xe117;" horiz-adv-x="406" 
d="M11 282l180 209l-97 197h99l63 -133l103 133h109l-169 -203l100 -203h-102l-62 140l-113 -140h-111z" />
    <glyph glyph-name="Y.superior" unicode="&#xe118;" horiz-adv-x="379" 
d="M144 282l32 170l-94 236h100l53 -155l109 155h113l-188 -245l-30 -161h-95z" />
    <glyph glyph-name="Z.superior" unicode="&#xe119;" horiz-adv-x="383" 
d="M34 282l11 62l243 266h-182l14 78h306l-12 -62l-243 -267h197l-14 -77h-320z" />
    <glyph glyph-name="ordfeminine.cap" unicode="&#xe11a;" horiz-adv-x="429" 
d="M2 151l13 73h389l-14 -73h-388zM28 282l230 406h79l79 -406h-86l-15 85h-144l-46 -85h-97zM282 573l-72 -135h94z" />
    <glyph glyph-name="ordmasculine.cap" unicode="&#xe11b;" horiz-adv-x="453" 
d="M18 151l13 73h382l-14 -73h-381zM70 441q0 112 65 183t167 71q76 0 122.5 -46t46.5 -121q0 -112 -65 -182.5t-167 -70.5q-76 0 -122.5 46t-46.5 120zM168 449q0 -43 21.5 -69t58.5 -26q52 0 89 48.5t37 117.5q0 43 -22 69t-59 26q-52 0 -88.5 -48t-36.5 -118z" />
    <glyph glyph-name="registered.superior" unicode="&#xe11c;" horiz-adv-x="500" 
d="M79 485q0 95 60.5 155t154.5 60t154.5 -60t60.5 -155t-60.5 -155t-154.5 -60t-154.5 60t-60.5 155zM126 485q0 -73 47 -120.5t121 -47.5t121 47.5t47 120.5t-47 120.5t-121 47.5t-121 -47.5t-47 -120.5zM269 560v-66h27q15 0 25 9t10 24q0 14 -10 23.5t-25 9.5h-27z
M216 368v234h87q36 0 59 -21t23 -54q0 -49 -43 -68l52 -91h-58l-46 84h-21v-84h-53z" />
    <glyph glyph-name="a.superior" unicode="&#xe120;" horiz-adv-x="374" 
d="M391 594l-58 -312h-88l4 18q-38 -26 -77 -26q-49 0 -80.5 36t-31.5 93q0 85 46 142t114 57q40 0 76 -27l3 19h92zM154 414q0 -29 13.5 -45.5t37.5 -16.5q26 0 54 26l23 125q-22 20 -49 20q-34 0 -56.5 -31t-22.5 -78z" />
    <glyph glyph-name="b.superior" unicode="&#xe121;" horiz-adv-x="374" 
d="M53 282l84 449h92l-29 -153q37 24 72 24q50 0 81 -36t31 -93q0 -85 -45.5 -142t-113.5 -57q-40 0 -77 26l-3 -18h-92zM291 462q0 29 -14 45t-38 16q-26 0 -54 -25l-22 -125q24 -21 48 -21q34 0 57 31.5t23 78.5z" />
    <glyph glyph-name="c.superior" unicode="&#xe122;" horiz-adv-x="313" 
d="M60 407q0 85 52.5 140t132.5 55q49 0 97 -27l-14 -77q-39 27 -76 27q-43 0 -70.5 -30t-27.5 -77q0 -30 18.5 -48.5t49.5 -18.5q42 0 82 24l-14 -81q-44 -20 -94 -20q-59 0 -97.5 37.5t-38.5 95.5z" />
    <glyph glyph-name="d.superior" unicode="&#xe123;" horiz-adv-x="374" 
d="M417 731l-84 -449h-88l4 18q-38 -26 -77 -26q-49 0 -80.5 36t-31.5 93q0 85 46 142t114 57q40 0 76 -27l29 156h92zM154 414q0 -29 13.5 -45.5t37.5 -16.5q26 0 54 26l23 125q-22 20 -49 20q-34 0 -56.5 -31t-22.5 -78z" />
    <glyph glyph-name="e.superior" unicode="&#xe124;" horiz-adv-x="341" 
d="M60 405q0 86 49.5 141.5t126.5 55.5q53 0 86.5 -34.5t33.5 -88.5q0 -31 -9 -67h-199q-1 -3 -1 -8q0 -60 75 -60q41 0 96 29l-15 -77q-53 -22 -107 -22q-59 0 -97.5 37t-38.5 94zM158 470h113q1 5 1 15q0 21 -12 34t-31 13q-25 0 -44.5 -17t-26.5 -45z" />
    <glyph glyph-name="f.superior" unicode="&#xe125;" horiz-adv-x="249" 
d="M57 194l61 326h-51l14 74h51l8 48q8 46 38.5 71.5t76.5 25.5q36 0 76 -17l-14 -72q-23 12 -45 12q-16 0 -28 -9.5t-15 -25.5l-5 -33h73l-14 -74h-73l-62 -326h-91z" />
    <glyph glyph-name="g.superior" unicode="&#xe126;" horiz-adv-x="374" 
d="M391 594l-59 -316q-12 -65 -59 -103t-114 -38q-60 0 -119 31l15 75q52 -33 103 -33q30 0 52.5 18t28.5 47l5 23q-37 -24 -72 -24q-49 0 -80.5 36t-31.5 93q0 85 46 142t114 57q40 0 76 -27l3 19h92zM154 414q0 -29 13.5 -45.5t37.5 -16.5q26 0 54 26l23 125
q-22 20 -49 20q-34 0 -56.5 -31t-22.5 -78z" />
    <glyph glyph-name="h.superior" unicode="&#xe127;" horiz-adv-x="374" 
d="M53 282l84 449h92l-29 -159q41 30 84 30q39 0 65 -26t26 -66q0 -20 -4 -36l-36 -192h-92l35 186q2 10 2 16q0 17 -10 26.5t-27 9.5q-31 0 -59 -27l-39 -211h-92z" />
    <glyph glyph-name="i.superior" unicode="&#xe128;" horiz-adv-x="186" 
d="M53 282l59 312h92l-59 -312h-92zM121 673q0 24 16.5 40.5t40.5 16.5q20 0 32.5 -12.5t12.5 -32.5q0 -25 -16 -41t-40 -16q-20 0 -33 12.5t-13 32.5z" />
    <glyph glyph-name="j.superior" unicode="&#xe129;" horiz-adv-x="186" 
d="M204 594l-68 -360q-8 -46 -38.5 -71.5t-76.5 -25.5q-33 0 -75 16l13 73q22 -12 45 -12q36 0 43 35l65 345h92zM121 673q0 24 16.5 40.5t40.5 16.5q20 0 32.5 -12.5t12.5 -32.5q0 -25 -16 -41t-40 -16q-20 0 -33 12.5t-13 32.5z" />
    <glyph glyph-name="k.superior" unicode="&#xe12a;" horiz-adv-x="337" 
d="M53 282l84 449h90l-46 -246l103 109h109l-152 -156l98 -156h-101l-72 122l-23 -122h-90z" />
    <glyph glyph-name="l.superior" unicode="&#xe12b;" horiz-adv-x="186" 
d="M53 282l84 449h92l-84 -449h-92z" />
    <glyph glyph-name="m.superior" unicode="&#xe12c;" horiz-adv-x="551" 
d="M53 282l59 312h87l-4 -23q45 31 85 31q52 0 78 -45q54 45 106 45q37 0 63 -26t26 -64q0 -13 -4 -33l-38 -197h-91l36 189q0 2 0.5 7.5t0.5 8.5q0 15 -9.5 24t-25.5 9q-28 0 -53 -25l-40 -213h-93l36 189q1 5 1 16q0 33 -35 33q-27 0 -53 -25l-40 -213h-92z" />
    <glyph glyph-name="n.superior" unicode="&#xe12d;" horiz-adv-x="374" 
d="M53 282l59 312h87l-4 -26q45 34 89 34q39 0 65 -26t26 -66q0 -20 -4 -36l-36 -192h-92l35 186q2 10 2 16q0 17 -10 26.5t-27 9.5q-31 0 -59 -27l-39 -211h-92z" />
    <glyph glyph-name="o.superior" unicode="&#xe12e;" horiz-adv-x="374" 
d="M60 407q0 85 52.5 140t134.5 55q60 0 98.5 -37.5t38.5 -95.5q0 -85 -52 -140t-134 -55q-61 0 -99.5 37t-38.5 96zM154 414q0 -28 15 -45.5t40 -17.5q35 0 58 31.5t23 79.5q0 28 -14.5 45.5t-39.5 17.5q-35 0 -58.5 -31.5t-23.5 -79.5z" />
    <glyph glyph-name="p.superior" unicode="&#xe12f;" horiz-adv-x="374" 
d="M27 145l85 449h87l-3 -19q36 27 76 27q50 0 81 -36t31 -93q0 -85 -45.5 -142t-113.5 -57q-40 0 -77 26l-29 -155h-92zM291 462q0 29 -14 45t-38 16q-26 0 -54 -25l-22 -125q24 -21 48 -21q34 0 57 31.5t23 78.5z" />
    <glyph glyph-name="q.superior" unicode="&#xe130;" horiz-adv-x="374" 
d="M391 594l-84 -449h-92l29 153q-37 -24 -72 -24q-49 0 -80.5 36t-31.5 93q0 85 46 142t114 57q40 0 76 -27l3 19h92zM154 414q0 -29 13.5 -45.5t37.5 -16.5q26 0 54 26l23 125q-22 20 -49 20q-34 0 -56.5 -31t-22.5 -78z" />
    <glyph glyph-name="r.superior" unicode="&#xe131;" horiz-adv-x="258" 
d="M53 282l59 312h87l-4 -28q39 36 77 36q16 0 29 -6l-15 -80q-15 5 -26 5q-40 0 -77 -37l-38 -202h-92z" />
    <glyph glyph-name="s.superior" unicode="&#xe132;" horiz-adv-x="282" 
d="M46 301l14 76q43 -30 88 -30q38 0 38 28q0 13 -17 24t-37.5 19t-37.5 29t-17 52q0 46 35 74.5t93 28.5q44 0 95 -23l-14 -76q-44 26 -81 26q-36 0 -36 -25q0 -12 17 -22.5t37.5 -19t37.5 -30t17 -53.5q0 -48 -35.5 -76.5t-94.5 -28.5q-51 0 -102 27z" />
    <glyph glyph-name="t.superior" unicode="&#xe133;" horiz-adv-x="274" 
d="M240 682l-16 -88h84l-14 -74h-84l-24 -123q-1 -6 -1 -17q0 -13 8.5 -21t22.5 -8q26 0 48 11l-13 -78q-30 -10 -64 -10q-43 0 -70 24t-27 63q0 11 3 23l25 136h-51l14 74h51l17 88h91z" />
    <glyph glyph-name="u.superior" unicode="&#xe134;" horiz-adv-x="374" 
d="M391 594l-58 -312h-88l5 26q-43 -34 -90 -34q-39 0 -65 26t-26 66q0 20 4 36l36 192h92l-35 -186q-2 -10 -2 -16q0 -17 10.5 -27t27.5 -10q28 0 58 28l39 211h92z" />
    <glyph glyph-name="v.superior" unicode="&#xe135;" horiz-adv-x="330" 
d="M386 594l-176 -312h-78l-60 312h88l28 -192l100 192h98z" />
    <glyph glyph-name="w.superior" unicode="&#xe136;" horiz-adv-x="501" 
d="M554 594l-163 -312h-82l-18 202l-90 -202h-82l-44 312h85l18 -203l91 203h82l17 -203l91 203h95z" />
    <glyph glyph-name="x.superior" unicode="&#xe137;" horiz-adv-x="338" 
d="M14 282l138 161l-74 151h94l41 -90l68 90h104l-130 -156l76 -156h-97l-41 95l-73 -95h-106z" />
    <glyph glyph-name="y.superior" unicode="&#xe138;" horiz-adv-x="330" 
d="M386 594l-254 -449h-95l92 150l-57 299h88l28 -192l100 192h98z" />
    <glyph glyph-name="z.superior" unicode="&#xe139;" horiz-adv-x="317" 
d="M35 282l10 59l165 179h-123l14 74h242l-11 -59l-164 -179h135l-14 -74h-254z" />
    <glyph glyph-name="a_superior.alt" unicode="&#xe13a;" horiz-adv-x="341" 
d="M218 282l4 21q-38 -29 -84 -29q-38 0 -63.5 24t-25.5 61q0 53 45 87t116 34q20 0 41 -3l1 8q0 1 0.5 5t0.5 5q0 17 -13 27t-34 10q-48 0 -105 -27l15 75q57 22 109 22q51 0 83.5 -26.5t32.5 -68.5q0 -16 -3 -34l-37 -191h-83zM140 377q0 -33 35 -33q28 0 55 25l10 55
q-10 2 -30 2q-31 0 -50.5 -14t-19.5 -35z" />
    <glyph glyph-name="l_superior.alt" unicode="&#xe13b;" horiz-adv-x="214" 
d="M230 731l-65 -343q0 -2 -0.5 -6.5t-0.5 -6.5q0 -24 24 -24q18 0 35 6l-14 -75q-27 -8 -52 -8q-40 0 -64 21.5t-24 58.5q0 6 2 22l66 355h93z" />
    <glyph glyph-name="y_superior.alt" unicode="&#xe13c;" horiz-adv-x="374" 
d="M391 594l-59 -316q-12 -65 -59 -103t-114 -38q-60 0 -119 31l15 75q52 -33 103 -33q31 0 53.5 18t28.5 47l5 29q-43 -30 -85 -30q-39 0 -65 26t-26 66q0 20 4 36l36 192h92l-35 -186q-2 -10 -2 -16q0 -16 10.5 -26.5t27.5 -10.5q29 0 57 28l40 211h92z" />
    <glyph glyph-name="ordfeminine.alt" unicode="&#xe13d;" horiz-adv-x="341" 
d="M35 245l13 73h269l-14 -73h-268zM236 375l4 22q-40 -29 -85 -29q-37 0 -62.5 24.5t-25.5 60.5q0 53 45 87t116 34q20 0 40 -3l1 8q1 3 1 10q0 16 -13 26t-34 10q-49 0 -104 -26l15 75q57 22 109 22q50 0 82.5 -27t32.5 -68q0 -16 -3 -34l-36 -192h-83zM157 471
q0 -15 10 -24t26 -9q30 0 55 25l10 55q-10 2 -30 2q-31 0 -51 -14t-20 -35z" />
    <glyph glyph-name="a.sc" unicode="&#xe200;" horiz-adv-x="527" 
d="M-36 0l300 532h108l103 -532h-117l-17 110h-186l-60 -110h-131zM298 376l-92 -171h120z" />
    <glyph glyph-name="b.sc" unicode="&#xe201;" horiz-adv-x="505" 
d="M189 225l-24 -130h76q35 0 58.5 21.5t23.5 53.5q0 26 -17 40.5t-46 14.5h-71zM27 0l100 532h192q69 0 110.5 -34.5t41.5 -91.5q0 -45 -24.5 -81.5t-66.5 -55.5q30 -13 48 -40t18 -61q0 -72 -59 -120t-147 -48h-213zM229 437l-23 -123h66q34 0 56 20.5t22 51.5
q0 23 -15.5 37t-41.5 14h-64z" />
    <glyph glyph-name="c.sc" unicode="&#xe202;" horiz-adv-x="501" 
d="M38 211q0 145 86 239t219 94q79 0 160 -45l-20 -109q-68 47 -132 47q-80 0 -131 -59.5t-51 -151.5q0 -59 35 -95t93 -36q63 0 139 41l-22 -114q-74 -34 -153 -34q-98 0 -160.5 63.5t-62.5 159.5z" />
    <glyph glyph-name="d.sc" unicode="&#xe203;" horiz-adv-x="576" 
d="M27 0l100 532h192q99 0 161.5 -59t62.5 -152q0 -145 -84 -233t-222 -88h-210zM235 429l-61 -326h73q71 0 118 59.5t47 148.5q0 54 -31 86t-84 32h-62z" />
    <glyph glyph-name="e.sc" unicode="&#xe204;" horiz-adv-x="454" 
d="M27 0l100 532h328l-18 -101h-204l-21 -114h172l-17 -95h-173l-23 -121h209l-19 -101h-334z" />
    <glyph glyph-name="f.sc" unicode="&#xe205;" horiz-adv-x="436" 
d="M27 0l100 532h328l-18 -101h-204l-25 -134h173l-19 -98h-172l-38 -199h-125z" />
    <glyph glyph-name="g.sc" unicode="&#xe206;" horiz-adv-x="560" 
d="M510 295l-50 -271q-103 -36 -190 -36q-102 0 -167 63.5t-65 159.5q0 145 87.5 239t224.5 94q86 0 174 -52l-21 -106q-78 54 -148 54q-82 0 -135 -61t-53 -153q0 -59 34.5 -96.5t89.5 -37.5q28 0 64 12l18 96h-95l18 95h214z" />
    <glyph glyph-name="h.sc" unicode="&#xe207;" horiz-adv-x="599" 
d="M27 0l100 532h127l-39 -211h195l40 211h128l-100 -532h-128l41 218h-195l-41 -218h-128z" />
    <glyph glyph-name="i.sc" unicode="&#xe208;" horiz-adv-x="276" 
d="M27 0l100 532h127l-99 -532h-128z" />
    <glyph glyph-name="j.sc" unicode="&#xe209;" horiz-adv-x="394" 
d="M376 532l-72 -388q-14 -72 -63 -114t-121 -42q-63 0 -125 31l19 101q43 -25 86 -25q31 0 53 19t27 50l68 368h128z" />
    <glyph glyph-name="k.sc" unicode="&#xe20a;" horiz-adv-x="529" 
d="M27 0l100 532h125l-38 -203l202 203h155l-269 -266l179 -266h-144l-143 221l-42 -221h-125z" />
    <glyph glyph-name="l.sc" unicode="&#xe20b;" horiz-adv-x="418" 
d="M27 0l100 532h127l-80 -429h195l-19 -103h-323z" />
    <glyph glyph-name="m.sc" unicode="&#xe20c;" horiz-adv-x="665" 
d="M27 0l100 532h104l108 -214l187 214h118l-100 -532h-117l61 329l-132 -154h-70l-79 158l-62 -333h-118z" />
    <glyph glyph-name="n.sc" unicode="&#xe20d;" horiz-adv-x="599" 
d="M27 0l100 532h104l166 -333l63 333h118l-100 -532h-103l-168 333l-62 -333h-118z" />
    <glyph glyph-name="o.sc" unicode="&#xe20e;" horiz-adv-x="599" 
d="M38 211q0 147 85.5 240t218.5 93q100 0 162.5 -62t62.5 -161q0 -147 -85 -240t-220 -93q-100 0 -162 62t-62 161zM169 221q0 -57 29 -91.5t76 -34.5q67 0 114 63t47 153q0 57 -28.5 91.5t-75.5 34.5q-67 0 -114.5 -63t-47.5 -153z" />
    <glyph glyph-name="p.sc" unicode="&#xe20f;" horiz-adv-x="495" 
d="M27 0l100 532h189q77 0 122 -40.5t45 -110.5q0 -84 -65.5 -141.5t-161.5 -57.5h-72l-34 -182h-123zM231 434l-29 -154h57q43 0 70.5 25t27.5 64q0 31 -19.5 48t-54.5 17h-52z" />
    <glyph glyph-name="q.sc" unicode="&#xe210;" horiz-adv-x="599" 
d="M38 211q0 147 85.5 240t218.5 93q100 0 162.5 -62t62.5 -161q0 -94 -37.5 -169t-102.5 -118l80 -112h-133l-51 74q-30 -8 -61 -8q-100 0 -162 62t-62 161zM169 221q0 -57 29 -91.5t76 -34.5q67 0 114 63t47 153q0 57 -28.5 91.5t-75.5 34.5q-67 0 -114.5 -63t-47.5 -153z
" />
    <glyph glyph-name="r.sc" unicode="&#xe211;" horiz-adv-x="502" 
d="M303 0l-68 188h-50l-35 -188h-123l100 532h187q75 0 119 -39.5t44 -107.5q0 -59 -34.5 -107.5t-92.5 -72.5l81 -205h-128zM231 434l-28 -148h53q42 0 68.5 24.5t26.5 61.5q0 29 -18.5 45.5t-51.5 16.5h-50z" />
    <glyph glyph-name="s.sc" unicode="&#xe212;" horiz-adv-x="447" 
d="M15 33l21 107q76 -51 145 -51q37 0 59 18.5t22 47.5q0 22 -20 39t-48 30.5t-56 30t-48 47t-20 73.5q0 73 56.5 121t147.5 48q77 0 154 -41l-19 -105q-69 44 -135 44q-35 0 -56.5 -17t-21.5 -44q0 -21 20 -37t48 -29t56.5 -29.5t48.5 -48t20 -75.5q0 -76 -57.5 -125
t-150.5 -49q-79 0 -166 45z" />
    <glyph glyph-name="t.sc" unicode="&#xe213;" horiz-adv-x="479" 
d="M129 0l80 429h-147l19 103h423l-20 -103h-147l-80 -429h-128z" />
    <glyph glyph-name="u.sc" unicode="&#xe214;" horiz-adv-x="599" 
d="M583 532l-64 -342q-17 -92 -87 -147t-170 -55q-90 0 -147.5 47.5t-57.5 121.5q0 22 5 47l61 328h128l-61 -326q-3 -14 -3 -29q0 -37 23.5 -59.5t63.5 -22.5q45 0 77 28t41 75l63 334h128z" />
    <glyph glyph-name="v.sc" unicode="&#xe215;" horiz-adv-x="527" 
d="M569 532l-300 -532h-107l-103 532h122l58 -362l194 362h136z" />
    <glyph glyph-name="w.sc" unicode="&#xe216;" horiz-adv-x="817" 
d="M856 532l-279 -532h-113l-39 375l-174 -375h-113l-75 532h120l38 -376l174 376h113l39 -376l176 376h133z" />
    <glyph glyph-name="x.sc" unicode="&#xe217;" horiz-adv-x="538" 
d="M-37 0l236 275l-127 257h133l80 -173l133 173h145l-220 -267l129 -265h-135l-80 180l-145 -180h-149z" />
    <glyph glyph-name="y.sc" unicode="&#xe218;" horiz-adv-x="501" 
d="M135 0l42 222l-121 310h135l67 -201l140 201h153l-248 -322l-40 -210h-128z" />
    <glyph glyph-name="z.sc" unicode="&#xe219;" horiz-adv-x="506" 
d="M-7 0l15 83l315 346h-237l19 103h402l-15 -83l-314 -346h255l-19 -103h-421z" />
    <glyph glyph-name="agrave.sc" unicode="&#xe21a;" horiz-adv-x="527" 
d="M-36 0l300 532h108l103 -532h-117l-17 110h-186l-60 -110h-131zM298 376l-92 -171h120zM305 588l-96 162h110l80 -162h-94z" />
    <glyph glyph-name="aacute.sc" unicode="&#xe21b;" horiz-adv-x="527" 
d="M-36 0l300 532h108l103 -532h-117l-17 110h-186l-60 -110h-131zM298 376l-92 -171h120zM258 588l138 162h127l-156 -162h-109z" />
    <glyph glyph-name="acircumflex.sc" unicode="&#xe21c;" horiz-adv-x="527" 
d="M-36 0l300 532h108l103 -532h-117l-17 110h-186l-60 -110h-131zM298 376l-92 -171h120zM161 588l140 162h113l79 -162h-91l-53 90l-86 -90h-102z" />
    <glyph glyph-name="atilde.sc" unicode="&#xe21d;" horiz-adv-x="527" 
d="M-36 0l300 532h108l103 -532h-117l-17 110h-186l-60 -110h-131zM298 376l-92 -171h120zM164 612q8 57 41.5 92t80.5 35q33 0 71 -28t51 -28q17 0 29 12t16 32h76q-8 -57 -41.5 -92t-80.5 -35q-33 0 -71 28t-51 28q-18 0 -29.5 -12t-15.5 -32h-76z" />
    <glyph glyph-name="adieresis.sc" unicode="&#xe21e;" horiz-adv-x="527" 
d="M-36 0l300 532h108l103 -532h-117l-17 110h-186l-60 -110h-131zM298 376l-92 -171h120zM169 662q0 33 22.5 55t55.5 22q28 0 45.5 -17t17.5 -45q0 -33 -22.5 -55.5t-55.5 -22.5q-27 0 -45 17.5t-18 45.5zM381 662q0 33 22.5 55t55.5 22q27 0 44.5 -17t17.5 -45
q0 -33 -22 -55.5t-55 -22.5q-28 0 -45.5 17.5t-17.5 45.5z" />
    <glyph glyph-name="aring.sc" unicode="&#xe21f;" horiz-adv-x="527" 
d="M-36 0l300 532h108l103 -532h-117l-17 110h-186l-60 -110h-131zM298 376l-92 -171h120zM239 659q0 49 33.5 82.5t83.5 33.5q43 0 69.5 -26.5t26.5 -68.5q0 -50 -34 -83.5t-83 -33.5q-42 0 -69 27t-27 69zM297 665q0 -20 12 -32.5t32 -12.5q23 0 38.5 15.5t15.5 38.5
q0 20 -12.5 32.5t-31.5 12.5q-23 0 -38.5 -15.5t-15.5 -38.5z" />
    <glyph glyph-name="amacron.sc" unicode="&#xe221;" horiz-adv-x="527" 
d="M-36 0l300 532h108l103 -532h-117l-17 110h-186l-60 -110h-131zM298 376l-92 -171h120zM170 626l17 87h335l-17 -87h-335z" />
    <glyph glyph-name="abreve.sc" unicode="&#xe222;" horiz-adv-x="527" 
d="M-36 0l300 532h108l103 -532h-117l-17 110h-186l-60 -110h-131zM298 376l-92 -171h120zM208 750h78q-1 -6 -1 -17q0 -27 19 -44.5t49 -17.5q33 0 56 22t28 57h82q-10 -78 -56.5 -121t-120.5 -43q-58 0 -97.5 37.5t-39.5 91.5q0 17 3 35z" />
    <glyph glyph-name="aogonek.sc" unicode="&#xe223;" horiz-adv-x="527" 
d="M382 0h-24l-17 110h-186l-60 -110h-131l300 532h108l103 -532q-102 -52 -102 -108q0 -16 12.5 -27t29.5 -11t34 7l-15 -76q-27 -11 -62 -11q-41 0 -69 24t-28 60q0 89 107 142zM298 376l-92 -171h120z" />
    <glyph glyph-name="ae.sc" unicode="&#xe224;" horiz-adv-x="732" 
d="M304 0l18 98h-164l-77 -98h-142l427 532h367l-19 -101h-204l-21 -114h173l-18 -95h-173l-23 -121h210l-19 -101h-335zM376 384l-149 -193h113z" />
    <glyph glyph-name="cacute.sc" unicode="&#xe226;" horiz-adv-x="501" 
d="M38 211q0 145 86 239t219 94q79 0 160 -45l-20 -109q-68 47 -132 47q-80 0 -131 -59.5t-51 -151.5q0 -59 35 -95t93 -36q63 0 139 41l-22 -114q-74 -34 -153 -34q-98 0 -160.5 63.5t-62.5 159.5zM280 588l138 162h127l-156 -162h-109z" />
    <glyph glyph-name="ccircumflex.sc" unicode="&#xe227;" horiz-adv-x="501" 
d="M38 211q0 145 86 239t219 94q79 0 160 -45l-20 -109q-68 47 -132 47q-80 0 -131 -59.5t-51 -151.5q0 -59 35 -95t93 -36q63 0 139 41l-22 -114q-74 -34 -153 -34q-98 0 -160.5 63.5t-62.5 159.5zM183 588l140 162h113l79 -162h-91l-53 90l-86 -90h-102z" />
    <glyph glyph-name="ccaron.sc" unicode="&#xe228;" horiz-adv-x="501" 
d="M38 211q0 145 86 239t219 94q79 0 160 -45l-20 -109q-68 47 -132 47q-80 0 -131 -59.5t-51 -151.5q0 -59 35 -95t93 -36q63 0 139 41l-22 -114q-74 -34 -153 -34q-98 0 -160.5 63.5t-62.5 159.5zM551 750l-139 -162h-113l-79 162h91l53 -90l86 90h101z" />
    <glyph glyph-name="cdotaccent.sc" unicode="&#xe229;" horiz-adv-x="501" 
d="M38 211q0 145 86 239t219 94q79 0 160 -45l-20 -109q-68 47 -132 47q-80 0 -131 -59.5t-51 -151.5q0 -59 35 -95t93 -36q63 0 139 41l-22 -114q-74 -34 -153 -34q-98 0 -160.5 63.5t-62.5 159.5zM295 662q0 34 23 57t57 23q29 0 47 -18t18 -47q0 -34 -23 -57t-57 -23
q-28 0 -46.5 18.5t-18.5 46.5z" />
    <glyph glyph-name="ccedilla.sc" unicode="&#xe22a;" horiz-adv-x="501" 
d="M38 211q0 145 86 239t219 94q79 0 160 -45l-20 -109q-68 47 -132 47q-80 0 -131 -59.5t-51 -151.5q0 -59 35 -95t93 -36q63 0 139 41l-22 -114q-58 -28 -126 -33l-16 -36q25 -8 39.5 -28.5t14.5 -46.5q0 -47 -38.5 -78t-96.5 -31q-42 0 -90 24l15 73q32 -23 64 -23
q22 0 36 11t14 28t-14 28t-36 11h-4l33 73q-77 17 -124 76t-47 141z" />
    <glyph glyph-name="dcaron.sc" unicode="&#xe22b;" horiz-adv-x="576" 
d="M27 0l100 532h192q99 0 161.5 -59t62.5 -152q0 -145 -84 -233t-222 -88h-210zM235 429l-61 -326h73q71 0 118 59.5t47 148.5q0 54 -31 86t-84 32h-62zM537 750l-139 -162h-113l-79 162h91l53 -90l86 90h101z" />
    <glyph glyph-name="dcroat.sc" unicode="&#xe22c;" horiz-adv-x="587" 
d="M39 0l42 229h-70l16 82h70l41 221h193q99 0 161.5 -59t62.5 -152q0 -145 -84 -233t-222 -88h-210zM244 429l-22 -118h102l-16 -82h-101l-23 -126h78q71 0 118 59.5t47 148.5q0 54 -31 86t-84 32h-68z" />
    <glyph glyph-name="egrave.sc" unicode="&#xe22d;" horiz-adv-x="454" 
d="M27 0l100 532h328l-18 -101h-204l-21 -114h172l-17 -95h-173l-23 -121h209l-19 -101h-334zM273 588l-96 162h110l80 -162h-94z" />
    <glyph glyph-name="eacute.sc" unicode="&#xe22e;" horiz-adv-x="454" 
d="M27 0l100 532h328l-18 -101h-204l-21 -114h172l-17 -95h-173l-23 -121h209l-19 -101h-334zM226 588l138 162h127l-156 -162h-109z" />
    <glyph glyph-name="ecircumflex.sc" unicode="&#xe22f;" horiz-adv-x="454" 
d="M27 0l100 532h328l-18 -101h-204l-21 -114h172l-17 -95h-173l-23 -121h209l-19 -101h-334zM129 588l140 162h113l79 -162h-91l-53 90l-86 -90h-102z" />
    <glyph glyph-name="ecaron.sc" unicode="&#xe230;" horiz-adv-x="454" 
d="M27 0l100 532h328l-18 -101h-204l-21 -114h172l-17 -95h-173l-23 -121h209l-19 -101h-334zM497 750l-139 -162h-113l-79 162h91l53 -90l86 90h101z" />
    <glyph glyph-name="edieresis.sc" unicode="&#xe231;" horiz-adv-x="454" 
d="M27 0l100 532h328l-18 -101h-204l-21 -114h172l-17 -95h-173l-23 -121h209l-19 -101h-334zM137 662q0 33 22.5 55t55.5 22q28 0 45.5 -17t17.5 -45q0 -33 -22.5 -55.5t-55.5 -22.5q-27 0 -45 17.5t-18 45.5zM349 662q0 33 22.5 55t55.5 22q27 0 44.5 -17t17.5 -45
q0 -33 -22 -55.5t-55 -22.5q-28 0 -45.5 17.5t-17.5 45.5z" />
    <glyph glyph-name="emacron.sc" unicode="&#xe232;" horiz-adv-x="454" 
d="M27 0l100 532h328l-18 -101h-204l-21 -114h172l-17 -95h-173l-23 -121h209l-19 -101h-334zM138 626l17 87h335l-17 -87h-335z" />
    <glyph glyph-name="ebreve.sc" unicode="&#xe233;" horiz-adv-x="454" 
d="M27 0l100 532h328l-18 -101h-204l-21 -114h172l-17 -95h-173l-23 -121h209l-19 -101h-334zM176 750h78q-1 -6 -1 -17q0 -27 19 -44.5t49 -17.5q33 0 56 22t28 57h82q-10 -78 -56.5 -121t-120.5 -43q-58 0 -97.5 37.5t-39.5 91.5q0 17 3 35z" />
    <glyph glyph-name="edotaccent.sc" unicode="&#xe234;" horiz-adv-x="454" 
d="M27 0l100 532h328l-18 -101h-204l-21 -114h172l-17 -95h-173l-23 -121h209l-19 -101h-334zM241 662q0 34 23 57t57 23q29 0 47 -18t18 -47q0 -34 -23 -57t-57 -23q-28 0 -46.5 18.5t-18.5 46.5z" />
    <glyph glyph-name="eogonek.sc" unicode="&#xe235;" horiz-adv-x="454" 
d="M27 0l100 532h328l-18 -101h-204l-21 -114h172l-17 -95h-173l-23 -121h209l-19 -101q-102 -52 -102 -108q0 -16 12.5 -27t29.5 -11t34 7l-15 -76q-28 -11 -62 -11q-41 0 -69 24t-28 60q0 89 107 142h-241z" />
    <glyph glyph-name="gcircumflex.sc" unicode="&#xe236;" horiz-adv-x="560" 
d="M510 295l-50 -271q-103 -36 -190 -36q-102 0 -167 63.5t-65 159.5q0 145 87.5 239t224.5 94q86 0 174 -52l-21 -106q-78 54 -148 54q-82 0 -135 -61t-53 -153q0 -59 34.5 -96.5t89.5 -37.5q28 0 64 12l18 96h-95l18 95h214zM198 588l140 162h113l79 -162h-91l-53 90
l-86 -90h-102z" />
    <glyph glyph-name="gbreve.sc" unicode="&#xe237;" horiz-adv-x="560" 
d="M510 295l-50 -271q-103 -36 -190 -36q-102 0 -167 63.5t-65 159.5q0 145 87.5 239t224.5 94q86 0 174 -52l-21 -106q-78 54 -148 54q-82 0 -135 -61t-53 -153q0 -59 34.5 -96.5t89.5 -37.5q28 0 64 12l18 96h-95l18 95h214zM245 750h78q-1 -6 -1 -17q0 -27 19 -44.5
t49 -17.5q33 0 56 22t28 57h82q-10 -78 -56.5 -121t-120.5 -43q-58 0 -97.5 37.5t-39.5 91.5q0 17 3 35z" />
    <glyph glyph-name="gdotaccent.sc" unicode="&#xe238;" horiz-adv-x="560" 
d="M510 295l-50 -271q-103 -36 -190 -36q-102 0 -167 63.5t-65 159.5q0 145 87.5 239t224.5 94q86 0 174 -52l-21 -106q-78 54 -148 54q-82 0 -135 -61t-53 -153q0 -59 34.5 -96.5t89.5 -37.5q28 0 64 12l18 96h-95l18 95h214zM310 662q0 34 23 57t57 23q28 0 46.5 -18
t18.5 -47q0 -34 -23 -57t-57 -23q-29 0 -47 18.5t-18 46.5z" />
    <glyph glyph-name="gcommaaccent.sc" unicode="&#xe239;" horiz-adv-x="560" 
d="M510 295l-50 -271q-103 -36 -190 -36q-102 0 -167 63.5t-65 159.5q0 145 87.5 239t224.5 94q86 0 174 -52l-21 -106q-78 54 -148 54q-82 0 -135 -61t-53 -153q0 -59 34.5 -96.5t89.5 -37.5q28 0 64 12l18 96h-95l18 95h214zM101 -242l99 185h118l-115 -185h-102z" />
    <glyph glyph-name="hcircumflex.sc" unicode="&#xe23a;" horiz-adv-x="599" 
d="M27 0l100 532h127l-39 -211h195l40 211h128l-100 -532h-128l41 218h-195l-41 -218h-128zM192 588l140 162h113l79 -162h-91l-53 90l-86 -90h-102z" />
    <glyph glyph-name="hbar.sc" unicode="&#xe23b;" horiz-adv-x="599" 
d="M27 0l71 378h-64l15 76h63l15 78h127l-14 -78h195l15 78h128l-15 -78h64l-14 -76h-64l-71 -378h-128l42 221h-196l-41 -221h-128zM226 378l-11 -60h195l11 60h-195z" />
    <glyph glyph-name="igrave.sc" unicode="&#xe23c;" horiz-adv-x="276" 
d="M27 0l100 532h127l-99 -532h-128zM174 588l-96 162h110l80 -162h-94z" />
    <glyph glyph-name="iacute.sc" unicode="&#xe23d;" horiz-adv-x="276" 
d="M27 0l100 532h127l-99 -532h-128zM127 588l138 162h127l-156 -162h-109z" />
    <glyph glyph-name="icircumflex.sc" unicode="&#xe23e;" horiz-adv-x="276" 
d="M27 0l100 532h127l-99 -532h-128zM30 588l140 162h113l79 -162h-91l-53 90l-86 -90h-102z" />
    <glyph glyph-name="itilde.sc" unicode="&#xe23f;" horiz-adv-x="276" 
d="M27 0l100 532h127l-99 -532h-128zM33 612q8 57 41.5 92t80.5 35q33 0 71 -28t51 -28q17 0 29 12t16 32h76q-8 -57 -41.5 -92t-80.5 -35q-33 0 -71 28t-51 28q-18 0 -29.5 -12t-15.5 -32h-76z" />
    <glyph glyph-name="idieresis.sc" unicode="&#xe240;" horiz-adv-x="276" 
d="M27 0l100 532h127l-99 -532h-128zM38 662q0 33 22.5 55t55.5 22q28 0 45.5 -17t17.5 -45q0 -33 -22.5 -55.5t-55.5 -22.5q-27 0 -45 17.5t-18 45.5zM250 662q0 33 22.5 55t55.5 22q27 0 44.5 -17t17.5 -45q0 -33 -22 -55.5t-55 -22.5q-28 0 -45.5 17.5t-17.5 45.5z" />
    <glyph glyph-name="imacron.sc" unicode="&#xe241;" horiz-adv-x="276" 
d="M27 0l100 532h127l-99 -532h-128zM39 626l17 87h335l-17 -87h-335z" />
    <glyph glyph-name="ibreve.sc" unicode="&#xe242;" horiz-adv-x="276" 
d="M27 0l100 532h127l-99 -532h-128zM77 750h78q-1 -6 -1 -17q0 -27 19 -44.5t49 -17.5q33 0 56 22t28 57h82q-10 -78 -56.5 -121t-120.5 -43q-58 0 -97.5 37.5t-39.5 91.5q0 17 3 35z" />
    <glyph glyph-name="idotaccent.sc" unicode="&#xe243;" horiz-adv-x="276" 
d="M27 0l100 532h127l-99 -532h-128zM142 662q0 34 23 57t57 23q28 0 46.5 -18t18.5 -47q0 -34 -23 -57t-57 -23q-29 0 -47 18.5t-18 46.5z" />
    <glyph glyph-name="iogonek.sc" unicode="&#xe244;" horiz-adv-x="276" 
d="M27 0l100 532h127l-99 -532q-102 -52 -102 -108q0 -16 12.5 -27t29.5 -11t34 7l-15 -76q-27 -11 -62 -11q-41 0 -69 24t-28 60q0 89 107 142h-35z" />
    <glyph glyph-name="ij.sc" unicode="&#xe245;" horiz-adv-x="669" 
d="M652 532l-72 -388q-14 -72 -63 -114t-121 -42q-63 0 -125 31l19 101q43 -25 86 -25q31 0 53 19t27 50l68 368h128zM27 0l100 532h127l-99 -532h-128z" />
    <glyph glyph-name="jcircumflex.sc" unicode="&#xe246;" horiz-adv-x="394" 
d="M376 532l-72 -388q-14 -72 -63 -114t-121 -42q-63 0 -125 31l19 101q43 -25 86 -25q31 0 53 19t27 50l68 368h128zM153 588l140 162h113l79 -162h-91l-53 90l-86 -90h-102z" />
    <glyph glyph-name="kcommaaccent.sc" unicode="&#xe247;" horiz-adv-x="529" 
d="M27 0l100 532h125l-38 -203l202 203h155l-269 -266l179 -266h-144l-143 221l-42 -221h-125zM62 -242l99 185h118l-115 -185h-102z" />
    <glyph glyph-name="lacute.sc" unicode="&#xe248;" horiz-adv-x="419" 
d="M27 0l100 532h127l-80 -429h195l-19 -103h-323zM127 588l138 162h127l-156 -162h-109z" />
    <glyph glyph-name="lcaron.sc" unicode="&#xe249;" horiz-adv-x="419" 
d="M27 0l100 532h127l-80 -429h195l-19 -103h-323zM264 401l86 162h110l-99 -162h-97z" />
    <glyph glyph-name="ldot.sc" unicode="&#xe24a;" horiz-adv-x="419" 
d="M27 0l100 532h127l-80 -429h195l-19 -103h-323zM281 276q0 34 23 57t57 23q29 0 47 -18t18 -47q0 -34 -23 -57t-57 -23q-28 0 -46.5 18.5t-18.5 46.5z" />
    <glyph glyph-name="lcommaaccent.sc" unicode="&#xe24b;" horiz-adv-x="419" 
d="M27 0l100 532h127l-80 -429h195l-19 -103h-323zM28 -242l99 185h118l-115 -185h-102z" />
    <glyph glyph-name="lslash.sc" unicode="&#xe24c;" horiz-adv-x="430" 
d="M39 0l34 181l-62 -24l18 100l63 25l46 250h128l-37 -195l121 49l-19 -101l-120 -48l-25 -134h194l-19 -103h-322z" />
    <glyph glyph-name="nacute.sc" unicode="&#xe24d;" horiz-adv-x="599" 
d="M27 0l100 532h104l166 -333l63 333h118l-100 -532h-103l-168 333l-62 -333h-118zM289 588l138 162h127l-156 -162h-109z" />
    <glyph glyph-name="ncaron.sc" unicode="&#xe24e;" horiz-adv-x="599" 
d="M27 0l100 532h104l166 -333l63 333h118l-100 -532h-103l-168 333l-62 -333h-118zM560 750l-139 -162h-113l-79 162h91l53 -90l86 90h101z" />
    <glyph glyph-name="ntilde.sc" unicode="&#xe24f;" horiz-adv-x="599" 
d="M27 0l100 532h104l166 -333l63 333h118l-100 -532h-103l-168 333l-62 -333h-118zM195 612q8 57 41.5 92t80.5 35q33 0 71 -28t51 -28q17 0 29 12t16 32h76q-8 -57 -41.5 -92t-80.5 -35q-33 0 -71 28t-51 28q-18 0 -29.5 -12t-15.5 -32h-76z" />
    <glyph glyph-name="ncommaaccent.sc" unicode="&#xe250;" horiz-adv-x="599" 
d="M27 0l100 532h104l166 -333l63 333h118l-100 -532h-103l-168 333l-62 -333h-118zM95 -242l99 185h118l-115 -185h-102z" />
    <glyph glyph-name="napostrophe.sc" unicode="&#xe251;" horiz-adv-x="787" 
d="M53 446l133 242h129l-148 -242h-114zM215 0l100 532h104l166 -333l63 333h118l-100 -532h-103l-168 333l-62 -333h-118z" />
    <glyph glyph-name="ograve.sc" unicode="&#xe252;" horiz-adv-x="599" 
d="M38 211q0 147 85.5 240t218.5 93q100 0 162.5 -62t62.5 -161q0 -147 -85 -240t-220 -93q-100 0 -162 62t-62 161zM169 221q0 -57 29 -91.5t76 -34.5q67 0 114 63t47 153q0 57 -28.5 91.5t-75.5 34.5q-67 0 -114.5 -63t-47.5 -153zM336 588l-96 162h110l80 -162h-94z" />
    <glyph glyph-name="oacute.sc" unicode="&#xe253;" horiz-adv-x="599" 
d="M38 211q0 147 85.5 240t218.5 93q100 0 162.5 -62t62.5 -161q0 -147 -85 -240t-220 -93q-100 0 -162 62t-62 161zM169 221q0 -57 29 -91.5t76 -34.5q67 0 114 63t47 153q0 57 -28.5 91.5t-75.5 34.5q-67 0 -114.5 -63t-47.5 -153zM289 588l138 162h127l-156 -162h-109z
" />
    <glyph glyph-name="ocircumflex.sc" unicode="&#xe254;" horiz-adv-x="599" 
d="M38 211q0 147 85.5 240t218.5 93q100 0 162.5 -62t62.5 -161q0 -147 -85 -240t-220 -93q-100 0 -162 62t-62 161zM169 221q0 -57 29 -91.5t76 -34.5q67 0 114 63t47 153q0 57 -28.5 91.5t-75.5 34.5q-67 0 -114.5 -63t-47.5 -153zM192 588l140 162h113l79 -162h-91
l-53 90l-86 -90h-102z" />
    <glyph glyph-name="otilde.sc" unicode="&#xe255;" horiz-adv-x="599" 
d="M38 211q0 147 85.5 240t218.5 93q100 0 162.5 -62t62.5 -161q0 -147 -85 -240t-220 -93q-100 0 -162 62t-62 161zM169 221q0 -57 29 -91.5t76 -34.5q67 0 114 63t47 153q0 57 -28.5 91.5t-75.5 34.5q-67 0 -114.5 -63t-47.5 -153zM195 612q8 57 41.5 92t80.5 35
q33 0 71 -28t51 -28q17 0 29 12t16 32h76q-8 -57 -41.5 -92t-80.5 -35q-33 0 -71 28t-51 28q-18 0 -29.5 -12t-15.5 -32h-76z" />
    <glyph glyph-name="odieresis.sc" unicode="&#xe256;" horiz-adv-x="599" 
d="M38 211q0 147 85.5 240t218.5 93q100 0 162.5 -62t62.5 -161q0 -147 -85 -240t-220 -93q-100 0 -162 62t-62 161zM169 221q0 -57 29 -91.5t76 -34.5q67 0 114 63t47 153q0 57 -28.5 91.5t-75.5 34.5q-67 0 -114.5 -63t-47.5 -153zM200 662q0 33 22.5 55t55.5 22
q28 0 45.5 -17t17.5 -45q0 -33 -22.5 -55.5t-55.5 -22.5q-27 0 -45 17.5t-18 45.5zM412 662q0 33 22.5 55t55.5 22q27 0 44.5 -17t17.5 -45q0 -33 -22 -55.5t-55 -22.5q-28 0 -45.5 17.5t-17.5 45.5z" />
    <glyph glyph-name="omacron.sc" unicode="&#xe257;" horiz-adv-x="599" 
d="M38 211q0 147 85.5 240t218.5 93q100 0 162.5 -62t62.5 -161q0 -147 -85 -240t-220 -93q-100 0 -162 62t-62 161zM169 221q0 -57 29 -91.5t76 -34.5q67 0 114 63t47 153q0 57 -28.5 91.5t-75.5 34.5q-67 0 -114.5 -63t-47.5 -153zM201 626l17 87h335l-17 -87h-335z" />
    <glyph glyph-name="obreve.sc" unicode="&#xe258;" horiz-adv-x="599" 
d="M38 211q0 147 85.5 240t218.5 93q100 0 162.5 -62t62.5 -161q0 -147 -85 -240t-220 -93q-100 0 -162 62t-62 161zM169 221q0 -57 29 -91.5t76 -34.5q67 0 114 63t47 153q0 57 -28.5 91.5t-75.5 34.5q-67 0 -114.5 -63t-47.5 -153zM239 750h78q-1 -6 -1 -17
q0 -27 19 -44.5t49 -17.5q33 0 56 22t28 57h82q-10 -78 -56.5 -121t-120.5 -43q-58 0 -97.5 37.5t-39.5 91.5q0 17 3 35z" />
    <glyph glyph-name="ohungarumlaut.sc" unicode="&#xe259;" horiz-adv-x="599" 
d="M38 211q0 147 85.5 240t218.5 93q100 0 162.5 -62t62.5 -161q0 -147 -85 -240t-220 -93q-100 0 -162 62t-62 161zM169 221q0 -57 29 -91.5t76 -34.5q67 0 114 63t47 153q0 57 -28.5 91.5t-75.5 34.5q-67 0 -114.5 -63t-47.5 -153zM388 588l139 162h126l-155 -162h-110z
M188 588l139 162h127l-156 -162h-110z" />
    <glyph glyph-name="oslash.sc" unicode="&#xe25a;" horiz-adv-x="599" 
d="M38 211q0 147 85.5 240t219.5 93q79 0 136 -43l29 31h85l-69 -74q43 -57 43 -137q0 -147 -85.5 -240t-219.5 -93q-80 0 -137 43l-28 -31h-84l68 73q-43 57 -43 138zM441 311q0 28 -8 50l-227 -244q27 -25 68 -25q69 0 118 63.5t49 155.5zM164 221q0 -25 7 -51l228 245
q-27 25 -68 25q-69 0 -118 -63.5t-49 -155.5z" />
    <glyph glyph-name="oe.sc" unicode="&#xe25c;" horiz-adv-x="739" 
d="M740 532l-19 -101h-204l-21 -114h173l-17 -95h-174l-23 -121h210l-19 -101h-383q-100 0 -162.5 58.5t-62.5 152.5q0 145 84 233t223 88h395zM330 103l62 326h-58q-71 0 -118 -59.5t-47 -148.5q0 -54 31 -86t84 -32h46z" />
    <glyph glyph-name="racute.sc" unicode="&#xe25d;" horiz-adv-x="502" 
d="M303 0l-68 188h-50l-35 -188h-123l100 532h187q75 0 119 -39.5t44 -107.5q0 -59 -34.5 -107.5t-92.5 -72.5l81 -205h-128zM231 434l-28 -148h53q42 0 68.5 24.5t26.5 61.5q0 29 -18.5 45.5t-51.5 16.5h-50zM242 588l138 162h127l-156 -162h-109z" />
    <glyph glyph-name="rcaron.sc" unicode="&#xe25e;" horiz-adv-x="502" 
d="M303 0l-68 188h-50l-35 -188h-123l100 532h187q75 0 119 -39.5t44 -107.5q0 -59 -34.5 -107.5t-92.5 -72.5l81 -205h-128zM231 434l-28 -148h53q42 0 68.5 24.5t26.5 61.5q0 29 -18.5 45.5t-51.5 16.5h-50zM513 750l-139 -162h-113l-79 162h91l53 -90l86 90h101z" />
    <glyph glyph-name="rcommaaccent.sc" unicode="&#xe25f;" horiz-adv-x="502" 
d="M303 0l-68 188h-50l-35 -188h-123l100 532h187q75 0 119 -39.5t44 -107.5q0 -59 -34.5 -107.5t-92.5 -72.5l81 -205h-128zM231 434l-28 -148h53q42 0 68.5 24.5t26.5 61.5q0 29 -18.5 45.5t-51.5 16.5h-50zM48 -242l99 185h118l-115 -185h-102z" />
    <glyph glyph-name="sacute.sc" unicode="&#xe260;" horiz-adv-x="447" 
d="M15 33l21 107q76 -51 145 -51q37 0 59 18.5t22 47.5q0 22 -20 39t-48 30.5t-56 30t-48 47t-20 73.5q0 73 56.5 121t147.5 48q77 0 154 -41l-19 -105q-69 44 -135 44q-35 0 -56.5 -17t-21.5 -44q0 -21 20 -37t48 -29t56.5 -29.5t48.5 -48t20 -75.5q0 -76 -57.5 -125
t-150.5 -49q-79 0 -166 45zM213 588l138 162h127l-156 -162h-109z" />
    <glyph glyph-name="scircumflex.sc" unicode="&#xe261;" horiz-adv-x="447" 
d="M15 33l21 107q76 -51 145 -51q37 0 59 18.5t22 47.5q0 22 -20 39t-48 30.5t-56 30t-48 47t-20 73.5q0 73 56.5 121t147.5 48q77 0 154 -41l-19 -105q-69 44 -135 44q-35 0 -56.5 -17t-21.5 -44q0 -21 20 -37t48 -29t56.5 -29.5t48.5 -48t20 -75.5q0 -76 -57.5 -125
t-150.5 -49q-79 0 -166 45zM116 588l140 162h113l79 -162h-91l-53 90l-86 -90h-102z" />
    <glyph glyph-name="scaron.sc" unicode="&#xe262;" horiz-adv-x="447" 
d="M15 33l21 107q76 -51 145 -51q37 0 59 18.5t22 47.5q0 22 -20 39t-48 30.5t-56 30t-48 47t-20 73.5q0 73 56.5 121t147.5 48q77 0 154 -41l-19 -105q-69 44 -135 44q-35 0 -56.5 -17t-21.5 -44q0 -21 20 -37t48 -29t56.5 -29.5t48.5 -48t20 -75.5q0 -76 -57.5 -125
t-150.5 -49q-79 0 -166 45zM484 750l-139 -162h-113l-79 162h91l53 -90l86 90h101z" />
    <glyph glyph-name="scedilla.sc" unicode="&#xe263;" horiz-adv-x="447" 
d="M15 33l21 107q76 -51 145 -51q37 0 59 18.5t22 47.5q0 22 -20 39t-48 30.5t-56 30t-48 47t-20 73.5q0 73 56.5 121t147.5 48q77 0 154 -41l-19 -105q-69 44 -135 44q-35 0 -56.5 -17t-21.5 -44q0 -21 20 -37t48 -29t56.5 -29.5t48.5 -48t20 -75.5q0 -67 -46 -113.5
t-122 -56.5l-16 -39q24 -8 39 -28.5t15 -46.5q0 -47 -38.5 -78t-97.5 -31q-41 0 -89 24l14 73q34 -23 65 -23q22 0 36 11t14 28t-13.5 28t-35.5 11h-4l30 70q-64 9 -125 42z" />
    <glyph glyph-name="scommaaccent.sc" unicode="&#xe264;" horiz-adv-x="447" 
d="M15 33l21 107q76 -51 145 -51q37 0 59 18.5t22 47.5q0 22 -20 39t-48 30.5t-56 30t-48 47t-20 73.5q0 73 56.5 121t147.5 48q77 0 154 -41l-19 -105q-69 44 -135 44q-35 0 -56.5 -17t-21.5 -44q0 -21 20 -37t48 -29t56.5 -29.5t48.5 -48t20 -75.5q0 -76 -57.5 -125
t-150.5 -49q-79 0 -166 45zM20 -242l99 185h118l-115 -185h-102z" />
    <glyph glyph-name="germandbls.sc" unicode="&#xe265;" horiz-adv-x="599" 
d="M27 0l100 532h458l-15 -83l-113 -130q41 -19 65.5 -55t24.5 -79q0 -82 -62 -139.5t-151 -57.5q-57 0 -116 31l20 106q46 -33 96 -33q37 0 62 22.5t25 56.5q0 33 -26 53.5t-69 20.5h-19l16 82l89 104h-181l-81 -431h-123z" />
    <glyph glyph-name="tcaron.sc" unicode="&#xe266;" horiz-adv-x="479" 
d="M129 0l80 429h-147l19 103h423l-20 -103h-147l-80 -429h-128zM500 750l-139 -162h-113l-79 162h91l53 -90l86 90h101z" />
    <glyph glyph-name="tbar.sc" unicode="&#xe268;" horiz-adv-x="479" 
d="M129 0l38 204h-98l16 88h98l26 136h-147l19 104h423l-20 -104h-147l-26 -136h98l-16 -88h-98l-38 -204h-128z" />
    <glyph glyph-name="ugrave.sc" unicode="&#xe269;" horiz-adv-x="599" 
d="M583 532l-64 -342q-17 -92 -87 -147t-170 -55q-90 0 -147.5 47.5t-57.5 121.5q0 22 5 47l61 328h128l-61 -326q-3 -14 -3 -29q0 -37 23.5 -59.5t63.5 -22.5q45 0 77 28t41 75l63 334h128zM336 588l-96 162h110l80 -162h-94z" />
    <glyph glyph-name="uacute.sc" unicode="&#xe26a;" horiz-adv-x="599" 
d="M583 532l-64 -342q-17 -92 -87 -147t-170 -55q-90 0 -147.5 47.5t-57.5 121.5q0 22 5 47l61 328h128l-61 -326q-3 -14 -3 -29q0 -37 23.5 -59.5t63.5 -22.5q45 0 77 28t41 75l63 334h128zM289 588l138 162h127l-156 -162h-109z" />
    <glyph glyph-name="ucircumflex.sc" unicode="&#xe26b;" horiz-adv-x="599" 
d="M583 532l-64 -342q-17 -92 -87 -147t-170 -55q-90 0 -147.5 47.5t-57.5 121.5q0 22 5 47l61 328h128l-61 -326q-3 -14 -3 -29q0 -37 23.5 -59.5t63.5 -22.5q45 0 77 28t41 75l63 334h128zM192 588l140 162h113l79 -162h-91l-53 90l-86 -90h-102z" />
    <glyph glyph-name="utilde.sc" unicode="&#xe26c;" horiz-adv-x="599" 
d="M583 532l-64 -342q-17 -92 -87 -147t-170 -55q-90 0 -147.5 47.5t-57.5 121.5q0 22 5 47l61 328h128l-61 -326q-3 -14 -3 -29q0 -37 23.5 -59.5t63.5 -22.5q45 0 77 28t41 75l63 334h128zM195 612q8 57 41.5 92t80.5 35q33 0 71 -28t51 -28q17 0 29 12t16 32h76
q-8 -57 -41.5 -92t-80.5 -35q-33 0 -71 28t-51 28q-18 0 -29.5 -12t-15.5 -32h-76z" />
    <glyph glyph-name="udieresis.sc" unicode="&#xe26d;" horiz-adv-x="599" 
d="M583 532l-64 -342q-17 -92 -87 -147t-170 -55q-90 0 -147.5 47.5t-57.5 121.5q0 22 5 47l61 328h128l-61 -326q-3 -14 -3 -29q0 -37 23.5 -59.5t63.5 -22.5q45 0 77 28t41 75l63 334h128zM200 662q0 33 22.5 55t55.5 22q28 0 45.5 -17t17.5 -45q0 -33 -22.5 -55.5
t-55.5 -22.5q-27 0 -45 17.5t-18 45.5zM412 662q0 33 22.5 55t55.5 22q27 0 44.5 -17t17.5 -45q0 -33 -22 -55.5t-55 -22.5q-28 0 -45.5 17.5t-17.5 45.5z" />
    <glyph glyph-name="uhungarumlaut.sc" unicode="&#xe271;" horiz-adv-x="599" 
d="M583 532l-64 -342q-17 -92 -87 -147t-170 -55q-90 0 -147.5 47.5t-57.5 121.5q0 22 5 47l61 328h128l-61 -326q-3 -14 -3 -29q0 -37 23.5 -59.5t63.5 -22.5q45 0 77 28t41 75l63 334h128zM388 588l139 162h126l-155 -162h-110zM188 588l139 162h127l-156 -162h-110z" />
    <glyph glyph-name="uogonek.sc" unicode="&#xe272;" horiz-adv-x="599" 
d="M583 532l-65 -342q-23 -121 -138 -179q-47 -24 -74 -55.5t-27 -63.5q0 -16 12 -27t29 -11q19 0 34 7l-14 -76q-29 -11 -64 -11q-40 0 -67.5 24t-27.5 60q0 35 23.5 70.5t63.5 60.5q-3 -1 -8 -1q-85 0 -144 48t-59 121q0 22 5 47l62 328h127l-61 -326q-3 -14 -3 -29
q0 -37 23.5 -59.5t63.5 -22.5q45 0 77 28t41 75l63 334h128z" />
    <glyph glyph-name="wgrave.sc" unicode="&#xe273;" horiz-adv-x="817" 
d="M856 532l-279 -532h-113l-39 375l-174 -375h-113l-75 532h120l38 -376l174 376h113l39 -376l176 376h133zM441 588l-96 162h110l80 -162h-94z" />
    <glyph glyph-name="wacute.sc" unicode="&#xe274;" horiz-adv-x="817" 
d="M856 532l-279 -532h-113l-39 375l-174 -375h-113l-75 532h120l38 -376l174 376h113l39 -376l176 376h133zM394 588l138 162h127l-156 -162h-109z" />
    <glyph glyph-name="wcircumflex.sc" unicode="&#xe275;" horiz-adv-x="817" 
d="M856 532l-279 -532h-113l-39 375l-174 -375h-113l-75 532h120l38 -376l174 376h113l39 -376l176 376h133zM295 588l140 162h113l79 -162h-91l-53 90l-86 -90h-102z" />
    <glyph glyph-name="wdieresis.sc" unicode="&#xe276;" horiz-adv-x="817" 
d="M856 532l-279 -532h-113l-39 375l-174 -375h-113l-75 532h120l38 -376l174 376h113l39 -376l176 376h133zM305 662q0 33 22.5 55t55.5 22q28 0 45.5 -17t17.5 -45q0 -33 -22.5 -55.5t-55.5 -22.5q-27 0 -45 17.5t-18 45.5zM517 662q0 33 22.5 55t55.5 22q27 0 44.5 -17
t17.5 -45q0 -33 -22 -55.5t-55 -22.5q-28 0 -45.5 17.5t-17.5 45.5z" />
    <glyph glyph-name="ygrave.sc" unicode="&#xe277;" horiz-adv-x="501" 
d="M135 0l42 222l-121 310h135l67 -201l140 201h153l-248 -322l-40 -210h-128zM284 588l-96 162h110l80 -162h-94z" />
    <glyph glyph-name="yacute.sc" unicode="&#xe278;" horiz-adv-x="501" 
d="M135 0l42 222l-121 310h135l67 -201l140 201h153l-248 -322l-40 -210h-128zM237 588l138 162h127l-156 -162h-109z" />
    <glyph glyph-name="ycircumflex.sc" unicode="&#xe279;" horiz-adv-x="501" 
d="M135 0l42 222l-121 310h135l67 -201l140 201h153l-248 -322l-40 -210h-128zM140 588l140 162h113l79 -162h-91l-53 90l-86 -90h-102z" />
    <glyph glyph-name="ydieresis.sc" unicode="&#xe27a;" horiz-adv-x="501" 
d="M135 0l42 222l-121 310h135l67 -201l140 201h153l-248 -322l-40 -210h-128zM148 662q0 33 22.5 55t55.5 22q28 0 45.5 -17t17.5 -45q0 -33 -22.5 -55.5t-55.5 -22.5q-27 0 -45 17.5t-18 45.5zM360 662q0 33 22.5 55t55.5 22q27 0 44.5 -17t17.5 -45q0 -33 -22 -55.5
t-55 -22.5q-28 0 -45.5 17.5t-17.5 45.5z" />
    <glyph glyph-name="zacute.sc" unicode="&#xe27b;" horiz-adv-x="506" 
d="M-7 0l15 83l315 346h-237l19 103h402l-15 -83l-314 -346h255l-19 -103h-421zM243 588l138 162h127l-156 -162h-109z" />
    <glyph glyph-name="zcaron.sc" unicode="&#xe27c;" horiz-adv-x="506" 
d="M-7 0l15 83l315 346h-237l19 103h402l-15 -83l-314 -346h255l-19 -103h-421zM514 750l-139 -162h-113l-79 162h91l53 -90l86 90h101z" />
    <glyph glyph-name="zdotaccent.sc" unicode="&#xe27d;" horiz-adv-x="506" 
d="M-7 0l15 83l315 346h-237l19 103h402l-15 -83l-314 -346h255l-19 -103h-421zM258 662q0 34 23 57t57 23q28 0 46.5 -18t18.5 -47q0 -34 -23 -57t-57 -23q-29 0 -47 18.5t-18 46.5z" />
    <glyph glyph-name="eng.sc" unicode="&#xe27e;" horiz-adv-x="599" 
d="M27 0l100 532h104l166 -333l63 333h118l-113 -607q-14 -73 -62.5 -114.5t-122.5 -41.5q-62 0 -125 31l19 102q46 -26 89 -26q32 0 55.5 19t28.5 50l14 78l-154 310l-62 -333h-118z" />
    <glyph glyph-name="eth.sc" unicode="&#xe27f;" horiz-adv-x="587" 
d="M39 0l42 229h-70l16 82h70l41 221h193q99 0 161.5 -59t62.5 -152q0 -145 -84 -233t-222 -88h-210zM244 429l-22 -118h102l-16 -82h-101l-23 -126h78q71 0 118 59.5t47 148.5q0 54 -31 86t-84 32h-68z" />
    <glyph glyph-name="thorn.sc" unicode="&#xe280;" horiz-adv-x="495" 
d="M27 0l100 532h123l-17 -87h67q76 0 121 -41t45 -110q0 -84 -65 -141.5t-161 -57.5h-72l-18 -95h-123zM214 347l-28 -154h57q43 0 70.5 25t27.5 64q0 30 -20 47.5t-54 17.5h-53z" />
    <glyph glyph-name="quoteleft.sc" unicode="&#xe281;" horiz-adv-x="250" 
d="M286 532l-132 -242h-130l149 242h113z" />
    <glyph glyph-name="quoteright.sc" unicode="&#xe282;" horiz-adv-x="250" 
d="M24 290l133 242h129l-148 -242h-114z" />
    <glyph glyph-name="quotedblleft.sc" unicode="&#xe283;" horiz-adv-x="439" 
d="M475 532l-132 -242h-130l148 242h114zM286 532l-132 -242h-130l149 242h113z" />
    <glyph glyph-name="quotedblright.sc" unicode="&#xe284;" horiz-adv-x="439" 
d="M24 290l133 242h129l-148 -242h-114zM213 290l132 242h130l-148 -242h-114z" />
    <glyph glyph-name="exclam.sc" unicode="&#xe285;" horiz-adv-x="272" 
d="M60 176l67 356h125l-67 -356h-125zM32 51q0 33 22.5 55t55.5 22q27 0 44.5 -17t17.5 -45q0 -33 -22.5 -55.5t-55.5 -22.5q-27 0 -44.5 17.5t-17.5 45.5z" />
    <glyph glyph-name="exclamdown.sc" unicode="&#xe286;" horiz-adv-x="236" 
d="M201 356l-68 -356h-124l67 356h125zM228 481q0 -33 -22 -55.5t-55 -22.5q-28 0 -45.5 17.5t-17.5 45.5q0 33 22.5 55.5t55.5 22.5q28 0 45 -17.5t17 -45.5z" />
    <glyph glyph-name="question.sc" unicode="&#xe287;" horiz-adv-x="374" 
d="M92 176l5 25q7 35 28.5 64t43.5 44.5t39 36t17 40.5t-14.5 33.5t-38.5 13.5q-50 0 -112 -38l23 118q62 31 127 31q67 0 107 -38.5t40 -99.5q0 -40 -21 -74t-46 -53.5t-49 -44t-28 -47.5l-2 -11h-119zM68 51q0 33 22.5 55t55.5 22q27 0 44.5 -17t17.5 -45
q0 -33 -22.5 -55.5t-55.5 -22.5q-27 0 -44.5 17.5t-17.5 45.5z" />
    <glyph glyph-name="questiondown.sc" unicode="&#xe288;" horiz-adv-x="374" 
d="M288 356l-5 -25q-7 -35 -28.5 -64.5t-43 -45t-39 -36t-17.5 -40.5t14.5 -33t38.5 -13q50 0 112 38l-22 -118q-64 -31 -128 -31q-66 0 -106 38.5t-40 98.5q0 40 20.5 74.5t46 54t49 44t27.5 47.5l2 11h119zM312 481q0 -33 -22 -55.5t-56 -22.5q-27 0 -44.5 17.5
t-17.5 45.5q0 33 22.5 55.5t55.5 22.5q28 0 45 -17.5t17 -45.5z" />
    <glyph glyph-name="slash.sc" unicode="&#xe289;" horiz-adv-x="313" 
d="M-53 -72l293 677h131l-293 -677h-131z" />
    <glyph glyph-name="backslash.sc" unicode="&#xe28a;" horiz-adv-x="313" 
d="M162 -72l-129 677h122l129 -677h-122z" />
    <glyph glyph-name="parenleft.sc" unicode="&#xe28b;" horiz-adv-x="285" 
d="M46 199q0 231 172 405h144q-94 -80 -144 -183t-50 -217q0 -148 64 -276h-120q-66 132 -66 271z" />
    <glyph glyph-name="parenright.sc" unicode="&#xe28c;" horiz-adv-x="285" 
d="M245 333q0 -233 -172 -405h-143q93 80 143 182.5t50 216.5q0 149 -64 277h120q66 -132 66 -271z" />
    <glyph glyph-name="bracketleft.sc" unicode="&#xe28d;" horiz-adv-x="285" 
d="M4 -72l127 676h193l-18 -95h-73l-91 -486h73l-18 -95h-193z" />
    <glyph glyph-name="bracketright.sc" unicode="&#xe28e;" horiz-adv-x="285" 
d="M287 604l-127 -676h-192l17 95h73l91 486h-73l19 95h192z" />
    <glyph glyph-name="braceleft.sc" unicode="&#xe28f;" horiz-adv-x="285" 
d="M324 604l-18 -95h-13q-21 0 -37.5 -14.5t-20.5 -36.5l-18 -102q-6 -33 -30.5 -57.5t-60.5 -35.5q25 -9 40 -32t15 -52q0 -15 -3 -27l-13 -72q-2 -12 -2 -18q0 -17 12 -28t31 -11h9l-18 -95h-29q-58 0 -92 32.5t-34 87.5q0 13 4 35l14 77q2 12 2 19q0 17 -10.5 28
t-26.5 11h-9l18 95h6q22 0 39 18t22 47l20 103q11 56 56 89.5t110 33.5h37z" />
    <glyph glyph-name="braceright.sc" unicode="&#xe290;" horiz-adv-x="285" 
d="M-32 -72l17 95h13q21 0 37.5 14.5t20.5 36.5l19 101q6 33 30 58t60 36q-25 9 -40 32t-15 52q0 13 3 27l13 71q2 12 2 19q0 17 -12 28t-31 11h-9l19 95h29q58 0 91.5 -32.5t33.5 -87.5q0 -20 -4 -36l-14 -76q-2 -12 -2 -19q0 -17 10.5 -28.5t27.5 -11.5h8l-18 -95h-6
q-21 0 -38.5 -18t-22.5 -46l-19 -103q-10 -56 -55.5 -89.5t-110.5 -33.5h-37z" />
    <glyph glyph-name="ampersand.sc" unicode="&#xe291;" horiz-adv-x="508" 
d="M525 314l-17 -89h-90l-35 -193q-90 -44 -186 -44q-73 0 -122.5 41.5t-49.5 102.5q0 51 30 91t82 58q-53 33 -53 99q0 69 54 116.5t134 47.5q66 0 136 -31l-19 -100q-49 29 -103 29q-34 0 -56.5 -19t-22.5 -48q0 -26 19.5 -43.5t48.5 -17.5h250zM149 149q0 -26 19.5 -43
t50.5 -17q26 0 54 13l23 123h-51q-41 0 -68.5 -21.5t-27.5 -54.5z" />
    <glyph glyph-name="at.sc" unicode="&#xe292;" horiz-adv-x="780" 
d="M580 435l-38 -200q0 -1 -0.5 -6t-0.5 -7q0 -11 8 -19t21 -8q34 0 59 41t25 98q0 86 -61.5 141t-157.5 55q-128 0 -212.5 -89.5t-84.5 -222.5q0 -97 62.5 -157t164.5 -60q87 0 180 42l-18 -94q-85 -35 -173 -35q-142 0 -229.5 82t-87.5 212q0 178 116 294t294 116
q136 0 222 -77t86 -195q0 -109 -63.5 -183t-155.5 -74q-59 0 -92 41q-48 -41 -106 -41q-53 0 -87.5 40t-34.5 102q0 89 49 150.5t121 61.5q40 0 79 -28l3 20h112zM331 245q0 -26 12.5 -41t34.5 -15q25 0 48 21l22 115q-23 18 -44 18q-31 0 -52 -28.5t-21 -69.5z" />
    <glyph glyph-name="zero.sc" unicode="&#xe300;" horiz-adv-x="499" 
d="M44 187q0 151 71.5 254t178.5 103q78 0 122.5 -53.5t44.5 -145.5q0 -152 -71.5 -254.5t-179.5 -102.5q-77 0 -121.5 53.5t-44.5 145.5zM165 195q0 -45 16 -72.5t42 -27.5q48 0 83 71t35 171q0 44 -16 72t-42 28q-48 0 -83 -71t-35 -171z" />
    </font>
</defs>
</svg>
