<?xml version="1.0" standalone="no"?>
<!DOCTYPE svg PUBLIC "-//W3C//DTD SVG 1.1//EN" "http://www.w3.org/Graphics/SVG/1.1/DTD/svg11.dtd" >
<svg xmlns="http://www.w3.org/2000/svg" xmlns:xlink="http://www.w3.org/1999/xlink" version="1.1">
<metadata>
Created by FontForge 20170731 at Tue Mar 22 14:42:17 2011
 By Aleksey,,,
Copyright 2010 Monotype Imaging Inc. All rights reserved. Designed by Nick Job.
</metadata>
<defs>
<font id="CamphorPro-HeavyItalic" horiz-adv-x="563" >
  <font-face 
    font-family="Camphor Pro Heavy"
    font-weight="900"
    font-style="italic"
    font-stretch="normal"
    units-per-em="1000"
    panose-1="2 11 9 4 3 4 4 9 2 4"
    ascent="800"
    descent="-200"
    x-height="500"
    cap-height="688"
    bbox="-289 -250 1249 938"
    underline-thickness="62"
    underline-position="-249"
    slope="-10"
    unicode-range="U+0020-FB04"
  />
<missing-glyph horiz-adv-x="500" 
d="M12 0v665h475v-665h-475zM88 618l162 -243l161 243h-323zM60 575v-484l40 61l80 120l41 61zM440 575l-162 -242l162 -243v485zM411 48l-161 242l-162 -242h323z" />
    <glyph glyph-name="IJ" unicode="IJ" horiz-adv-x="816" 
d="M35 0l129 688h167l-129 -688h-167zM819 688l-94 -501q-18 -93 -81 -146t-157 -53q-79 0 -162 39l26 132q55 -31 109 -31q40 0 68.5 24t35.5 62l89 474h166z" />
    <glyph glyph-name="ij" unicode="ij" horiz-adv-x="577" 
d="M16 0l93 500h164l-94 -500h-163zM125 624q0 42 28.5 70t71.5 28q35 0 57 -22t22 -57q0 -41 -28.5 -69.5t-70.5 -28.5q-35 0 -57.5 22t-22.5 57zM561 500l-107 -571q-14 -76 -63.5 -118t-126.5 -42q-59 0 -123 26l23 126q37 -16 69 -16q24 0 41 14t22 37l101 544h164z
M413 624q0 42 28.5 70t71.5 28q35 0 57 -22t22 -57q0 -41 -28.5 -69.5t-70.5 -28.5q-35 0 -57.5 22t-22.5 57z" />
    <glyph glyph-name="napostrophe" unicode="&#x27;n" horiz-adv-x="760" 
d="M190 0l93 500h156l-7 -39q68 51 140 51q63 0 104 -42t41 -106q0 -29 -6 -59l-57 -305h-162l54 293q3 12 3 25q0 23 -14.5 37t-37.5 14q-40 0 -83 -40l-61 -329h-163zM21 423l145 265h162l-163 -265h-144z" />
    <glyph glyph-name="f_b" unicode="fb" horiz-adv-x="937" 
d="M21 -141l96 510h-79l25 131h78l8 41q16 86 82 138t160 52q131 0 262 -74l-33 -178q51 33 110 33q79 0 129.5 -58t50.5 -149q0 -135 -73.5 -226t-182.5 -91q-62 0 -119 39l-5 -27h-162l109 582q-40 17 -78 17q-34 0 -59 -18.5t-30 -47.5l-6 -33h110l-24 -131h-111
l-95 -510h-163zM743 285q0 42 -19 64.5t-54 22.5q-39 0 -76 -35l-35 -182q35 -27 70 -27q49 0 81.5 44.5t32.5 112.5z" />
    <glyph glyph-name="f_f_b" unicode="ffb" horiz-adv-x="1257" 
d="M21 -141l96 510h-79l25 131h78l13 72q14 76 64 117.5t126 41.5q61 0 123 -27l-23 -124q-36 15 -69 15q-24 0 -41.5 -14t-21.5 -36l-8 -45h157l8 41q16 86 82.5 138t159.5 52q130 0 263 -74l-34 -178q53 33 110 33q79 0 129.5 -58t50.5 -149q0 -135 -73.5 -226t-182.5 -91
q-62 0 -118 39l-6 -27h-163l110 582q-40 17 -79 17q-33 0 -58.5 -18.5t-29.5 -47.5l-6 -33h110l-25 -131h-109l-97 -510h-162l95 510h-157l-95 -510h-163zM1064 285q0 41 -20 64t-54 23q-40 0 -77 -35l-33 -182q32 -27 69 -27q49 0 82 45t33 112z" />
    <glyph glyph-name="f_h" unicode="fh" horiz-adv-x="937" 
d="M21 -141l96 510h-79l25 131h78l8 41q16 87 82 138.5t160 51.5q131 0 262 -74l-36 -190q61 45 133 45q63 0 104 -42t41 -106q0 -29 -6 -59l-57 -305h-163l54 293q3 12 3 25q0 23 -14 37t-37 14q-40 0 -82 -40l-63 -329h-162l109 582q-40 17 -78 17q-34 0 -59 -18.5
t-30 -47.5l-6 -33h110l-24 -131h-111l-95 -510h-163z" />
    <glyph glyph-name="f_f_h" unicode="ffh" horiz-adv-x="1257" 
d="M21 -141l96 510h-79l25 131h78l13 72q14 76 64 117.5t126 41.5q61 0 123 -27l-23 -124q-36 15 -69 15q-24 0 -41.5 -14t-21.5 -36l-8 -45h157l8 41q16 87 82.5 138.5t159.5 51.5q130 0 263 -74l-36 -190q62 45 131 45q64 0 105 -41.5t41 -106.5q0 -29 -6 -59l-58 -305
h-162l55 293q2 16 2 25q0 23 -14 37t-38 14q-39 0 -82 -40l-62 -329h-163l110 582q-40 17 -79 17q-33 0 -58.5 -18.5t-29.5 -47.5l-6 -33h110l-25 -131h-109l-97 -510h-162l95 510h-157l-95 -510h-163z" />
    <glyph glyph-name="f_j" unicode="fj" horiz-adv-x="640" 
d="M38 369l25 131h78l8 41q16 87 79.5 138.5t154.5 51.5q79 0 166 -39l-23 -128q-67 35 -123 35q-37 0 -62.5 -19t-31.5 -51l-5 -29h320l-102 -540q-17 -87 -82 -139t-159 -52q-128 0 -263 75l99 525h-79zM279 369l-84 -450q37 -18 78 -18q34 0 59 19t30 48l74 401h-157z
" />
    <glyph glyph-name="f_f_j" unicode="ffj" horiz-adv-x="960" 
d="M21 -141l96 510h-79l25 131h78l13 72q14 76 64 117.5t126 41.5q61 0 123 -27l-23 -124q-36 15 -69 15q-24 0 -41.5 -14t-21.5 -36l-8 -45h157l8 41q16 87 80 138.5t154 51.5q78 0 167 -39l-24 -128q-67 35 -124 35q-36 0 -60.5 -19t-31.5 -51l-6 -29h320l-101 -540
q-16 -87 -82.5 -139t-159.5 -52q-130 0 -263 75l98 525h-157l-95 -510h-163zM600 369l-85 -450q37 -18 78 -18q34 0 58.5 19t29.5 48l76 401h-157z" />
    <glyph glyph-name="f_k" unicode="fk" horiz-adv-x="883" 
d="M21 -141l96 510h-79l25 131h78l8 41q16 87 82 138.5t160 51.5q131 0 259 -74l-61 -322l150 165h190l-235 -250l149 -250h-178l-103 189l-36 -189h-158l109 582q-40 17 -78 17q-34 0 -59 -18.5t-30 -47.5l-6 -33h110l-24 -131h-111l-95 -510h-163z" />
    <glyph glyph-name="f_f_k" unicode="ffk" horiz-adv-x="1202" 
d="M21 -141l96 510h-79l25 131h78l13 72q14 76 64 117.5t126 41.5q61 0 123 -27l-23 -124q-36 15 -69 15q-24 0 -41.5 -14t-21.5 -36l-8 -45h157l8 41q16 87 82.5 138.5t159.5 51.5q129 0 259 -74l-60 -322l149 165h190l-235 -250l149 -250h-179l-102 189l-35 -189h-160
l110 582q-40 17 -79 17q-33 0 -58.5 -18.5t-29.5 -47.5l-6 -33h110l-25 -131h-109l-97 -510h-162l95 510h-157l-95 -510h-163z" />
    <glyph glyph-name="f_t" unicode="ft" horiz-adv-x="742" 
d="M21 -141l96 510h-79l25 131h78l8 41q16 87 82 138.5t160 51.5q131 0 262 -74l-29 -157h126l-25 -131h-125l-35 -178q-2 -18 -2 -26q0 -19 12.5 -30t33.5 -11q30 0 73 16l-25 -136q-48 -16 -105 -16q-71 0 -113.5 39.5t-42.5 104.5q0 18 3 36l37 201h-157l-95 -510h-163z
M304 500h157l16 82q-40 17 -78 17q-34 0 -59 -18.5t-30 -47.5z" />
    <glyph glyph-name="f_f_t" unicode="fft" horiz-adv-x="1063" 
d="M21 -141l96 510h-79l25 131h78l13 72q14 76 64 117.5t126 41.5q61 0 123 -27l-23 -124q-36 15 -69 15q-24 0 -41.5 -14t-21.5 -36l-8 -45h157l8 41q16 87 82.5 138.5t159.5 51.5q130 0 263 -74l-30 -157h126l-25 -131h-126l-33 -178q0 -1 -1.5 -11t-1.5 -15
q0 -19 12.5 -30t33.5 -11q30 0 73 16l-24 -136q-49 -16 -105 -16q-72 0 -114.5 39.5t-42.5 104.5q0 18 3 36l38 201h-157l-97 -510h-162l95 510h-157l-95 -510h-163zM624 500h157l16 82q-40 17 -79 17q-33 0 -58.5 -18.5t-29.5 -47.5z" />
    <glyph glyph-name="f_thorn" unicode="f&#xfe;" horiz-adv-x="937" 
d="M21 -141l96 510h-79l25 131h78l8 41q16 86 82 138t160 52q131 0 262 -74l-33 -178q51 33 110 33q79 0 129.5 -58t50.5 -149q0 -135 -73.5 -226t-182.5 -91q-62 0 -119 39l-46 -246h-163l151 801q-40 17 -78 17q-34 0 -59 -18.5t-30 -47.5l-6 -33h110l-24 -131h-111
l-95 -510h-163zM743 285q0 42 -19 64.5t-54 22.5q-39 0 -76 -35l-35 -182q35 -27 70 -27q49 0 81.5 44.5t32.5 112.5z" />
    <glyph glyph-name="f_f_thorn" unicode="ff&#xfe;" horiz-adv-x="1257" 
d="M21 -141l96 510h-79l25 131h78l13 72q14 76 64 117.5t126 41.5q61 0 123 -27l-23 -124q-36 15 -69 15q-24 0 -41.5 -14t-21.5 -36l-8 -45h157l8 41q16 86 82.5 138t159.5 52q130 0 263 -74l-34 -178q53 33 110 33q79 0 129.5 -58t50.5 -149q0 -135 -73.5 -226t-182.5 -91
q-62 0 -118 39l-47 -246h-163l151 801q-40 17 -79 17q-33 0 -58.5 -18.5t-29.5 -47.5l-6 -33h110l-25 -131h-109l-97 -510h-162l95 510h-157l-95 -510h-163zM1064 285q0 41 -20 64t-54 23q-40 0 -77 -35l-33 -182q32 -27 69 -27q49 0 82 45t33 112z" />
    <glyph glyph-name="f_f" unicode="ff" horiz-adv-x="703" 
d="M21 -141l96 510h-79l25 131h78l13 72q14 76 64 117.5t126 41.5q61 0 123 -27l-23 -124q-36 15 -69 15q-24 0 -41.5 -14t-21.5 -36l-8 -45h157l14 72q14 76 63.5 117.5t125.5 41.5q59 0 123 -27l-24 -124q-35 15 -68 15q-24 0 -41.5 -14t-21.5 -36l-8 -45h110l-25 -131
h-109l-97 -510h-162l95 510h-157l-95 -510h-163z" />
    <glyph glyph-name="fi" unicode="fi" horiz-adv-x="640" 
d="M21 -141l96 510h-79l25 131h78l8 41q16 87 79.5 138.5t154.5 51.5q79 0 166 -39l-23 -128q-67 35 -123 35q-37 0 -62.5 -19t-31.5 -51l-5 -29h320l-94 -500h-162l68 369h-157l-95 -510h-163z" />
    <glyph glyph-name="fl" unicode="fl" horiz-adv-x="640" 
d="M21 -141l96 510h-79l25 131h78l8 41q16 87 82 138.5t160 51.5q131 0 262 -74l-123 -657h-162l109 582q-40 17 -78 17q-34 0 -59 -18.5t-30 -47.5l-6 -33h110l-24 -131h-111l-95 -510h-163z" />
    <glyph glyph-name="f_f_i" unicode="ffi" horiz-adv-x="960" 
d="M21 -141l96 510h-79l25 131h78l13 72q14 76 64 117.5t126 41.5q61 0 123 -27l-23 -124q-36 15 -69 15q-24 0 -41.5 -14t-21.5 -36l-8 -45h157l8 41q16 87 80 138.5t154 51.5q78 0 167 -39l-24 -128q-67 35 -124 35q-36 0 -61 -19t-31 -51l-6 -29h320l-94 -500h-163
l70 369h-157l-97 -510h-162l95 510h-157l-95 -510h-163z" />
    <glyph glyph-name="f_f_l" unicode="ffl" horiz-adv-x="960" 
d="M21 -141l96 510h-79l25 131h78l13 72q14 76 64 117.5t126 41.5q61 0 123 -27l-23 -124q-36 15 -69 15q-24 0 -41.5 -14t-21.5 -36l-8 -45h157l8 41q16 87 82.5 138.5t159.5 51.5q130 0 263 -74l-124 -657h-163l110 582q-40 17 -79 17q-33 0 -58.5 -18.5t-29.5 -47.5
l-6 -33h110l-25 -131h-109l-97 -510h-162l95 510h-157l-95 -510h-163z" />
    <glyph glyph-name=".notdef" horiz-adv-x="500" 
d="M12 0v665h475v-665h-475zM88 618l162 -243l161 243h-323zM60 575v-484l40 61l80 120l41 61zM440 575l-162 -242l162 -243v485zM411 48l-161 242l-162 -242h323z" />
    <glyph glyph-name=".null" horiz-adv-x="0" 
 />
    <glyph glyph-name="nonmarkingreturn" horiz-adv-x="333" 
 />
    <glyph glyph-name="space" unicode=" " horiz-adv-x="250" 
 />
    <glyph glyph-name="exclam" unicode="!" horiz-adv-x="312" 
d="M68 218l88 470h164l-88 -470h-164zM31 71q0 44 29.5 74t73.5 30q37 0 60.5 -23.5t23.5 -60.5q0 -43 -30 -73t-73 -30q-37 0 -60.5 23.5t-23.5 59.5z" />
    <glyph glyph-name="quotedbl" unicode="&#x22;" horiz-adv-x="453" 
d="M287 408l53 280h139l-52 -280h-140zM85 408l52 280h139l-52 -280h-139z" />
    <glyph glyph-name="numbersign" unicode="#" 
d="M-27 150l26 138h85l34 112h-67l26 139h85l47 149h144l-46 -149h105l47 149h145l-47 -149h68l-27 -139h-85l-34 -112h67l-26 -138h-85l-46 -150h-145l46 150h-104l-47 -150h-145l46 150h-67zM264 400l-35 -112h104l36 112h-105z" />
    <glyph glyph-name="dollar" unicode="$" 
d="M142 -125l28 151q-63 12 -127 44l27 140q88 -59 172 -59q39 0 63 18t24 48q0 24 -23 42.5t-55.5 34t-64.5 35t-55 55.5t-23 85q0 75 48.5 126.5t132.5 67.5l29 150h138l-28 -152q59 -11 112 -37l-26 -138q-84 51 -158 51q-37 0 -59 -16.5t-22 -43.5q0 -22 23 -39.5
t55.5 -32.5t64.5 -35t55 -57t23 -88q0 -79 -50 -132t-138 -68l-27 -150h-139z" />
    <glyph glyph-name="percent" unicode="%" horiz-adv-x="845" 
d="M445 129q0 97 59.5 162t147.5 65q67 0 110 -39t43 -102q0 -97 -59.5 -162t-148.5 -65q-67 0 -109.5 39t-42.5 102zM553 141q0 -29 15 -46.5t41 -17.5q36 0 61.5 37t25.5 89q0 29 -15 46.5t-41 17.5q-36 0 -61.5 -37t-25.5 -89zM75 477q0 97 59.5 160t148.5 63
q66 0 109 -40.5t43 -104.5q0 -96 -59 -159.5t-148 -63.5q-67 0 -110 40.5t-43 104.5zM184 489q0 -30 15.5 -49t39.5 -19q37 0 62.5 35.5t25.5 87.5q0 30 -15.5 48.5t-40.5 18.5q-37 0 -62 -35.5t-25 -86.5zM55 0l641 688h129l-641 -688h-129z" />
    <glyph glyph-name="ampersand" unicode="&#x26;" horiz-adv-x="656" 
d="M679 412l-23 -124h-115l-45 -243q-117 -57 -242 -57q-96 0 -159.5 52.5t-63.5 131.5q0 65 39.5 116.5t106.5 75.5q-71 43 -71 125q0 89 70.5 150t175.5 61q86 0 176 -39l-26 -136q-64 39 -131 39q-44 0 -73 -23.5t-29 -59.5q0 -32 23.5 -50.5t63.5 -18.5h323zM198 196
q0 -32 24.5 -52t61.5 -20q32 0 70 16l28 148h-65q-52 0 -85.5 -26t-33.5 -66z" />
    <glyph glyph-name="quotesingle" unicode="'" horiz-adv-x="250" 
d="M85 408l52 280h139l-52 -280h-139z" />
    <glyph glyph-name="parenleft" unicode="(" horiz-adv-x="344" 
d="M47 196q0 144 57.5 279.5t166.5 243.5h185q-121 -103 -185.5 -236t-64.5 -280q0 -193 82 -359h-155q-86 170 -86 352z" />
    <glyph glyph-name="parenright" unicode=")" horiz-adv-x="344" 
d="M304 368q0 -145 -57 -280.5t-166 -243.5h-186q121 103 186 236t65 280q0 193 -82 359h154q86 -169 86 -351z" />
    <glyph glyph-name="asterisk" unicode="*" horiz-adv-x="469" 
d="M494 408h-133l41 -127l-119 -39l-41 127l-107 -79l-72 101l107 78l-107 79l72 101l107 -78l41 126l119 -39l-41 -126h133v-124z" />
    <glyph glyph-name="plus" unicode="+" 
d="M37 212v139h181v181h139v-181h181v-139h-181v-181h-139v181h-181z" />
    <glyph glyph-name="comma" unicode="," horiz-adv-x="250" 
d="M-112 -125l144 265h163l-164 -265h-143z" />
    <glyph glyph-name="hyphen" unicode="-" horiz-adv-x="313" 
d="M12 189l25 131h264l-25 -131h-264z" />
    <glyph glyph-name="period" unicode="." horiz-adv-x="250" 
d="M1 71q0 45 29 74.5t74 29.5q36 0 59.5 -23.5t23.5 -60.5q0 -44 -29.5 -73.5t-73.5 -29.5q-37 0 -60 23.5t-23 59.5z" />
    <glyph glyph-name="slash" unicode="/" horiz-adv-x="375" 
d="M-81 -156l379 875h170l-379 -875h-170z" />
    <glyph glyph-name="zero" unicode="0" 
d="M27 242q0 195 94 326.5t233 131.5q103 0 160 -67t57 -187q0 -195 -94 -326.5t-233 -131.5q-103 0 -160 67t-57 187zM191 254q0 -59 18.5 -92.5t50.5 -33.5q62 0 105 89t43 217q0 58 -19 92t-51 34q-62 0 -104.5 -89t-42.5 -217z" />
    <glyph glyph-name="one" unicode="1" 
d="M200 0l95 506l-174 -71l29 152l241 101h105l-129 -688h-167z" />
    <glyph glyph-name="two" unicode="2" 
d="M0 0l21 108q154 96 247 195.5t93 170.5q0 38 -22 60t-60 22q-82 0 -171 -60l29 153q96 51 191 51q92 0 148 -51.5t56 -136.5q0 -86 -70.5 -183t-197.5 -189h208l-26 -140h-446z" />
    <glyph glyph-name="three" unicode="3" 
d="M188 286l24 127h34q53 0 86 24.5t33 62.5q0 29 -22 46.5t-58 17.5q-77 0 -160 -47l27 148q84 35 169 35q92 0 149.5 -48t57.5 -124q0 -61 -36.5 -110.5t-97.5 -69.5q44 -19 69.5 -56.5t25.5 -84.5q0 -94 -76.5 -156.5t-193.5 -62.5q-107 0 -199 55l26 142q83 -61 165 -61
q46 0 78.5 25.5t32.5 61.5q0 34 -27 54.5t-72 20.5h-35z" />
    <glyph glyph-name="four" unicode="4" 
d="M247 0l30 157h-286l21 117l380 414h139l-76 -406h98l-23 -125h-98l-30 -157h-155zM167 282h133l34 181z" />
    <glyph glyph-name="five" unicode="5" 
d="M544 688l-27 -140h-232l-21 -112q26 2 37 2q89 0 144 -53.5t55 -138.5q0 -111 -84.5 -184.5t-212.5 -73.5q-88 0 -174 47l28 144q74 -51 146 -51q57 0 93.5 29t36.5 74q0 38 -32 62.5t-82 24.5q-59 0 -124 -16l73 386h376z" />
    <glyph glyph-name="six" unicode="6" 
d="M318 688h221q-191 -124 -278 -251q46 17 87 17q81 0 136 -57.5t55 -142.5q0 -114 -80 -190t-201 -76q-98 0 -162.5 64t-64.5 167q0 120 76 243.5t211 225.5zM202 282q-11 -31 -11 -59q0 -42 23 -68.5t60 -26.5q45 0 75.5 31.5t30.5 79.5q0 35 -22.5 57t-60.5 22
q-50 0 -95 -36z" />
    <glyph glyph-name="seven" unicode="7" 
d="M42 0l330 548h-277l25 140h467l-20 -104l-347 -584h-178z" />
    <glyph glyph-name="eight" unicode="8" 
d="M92 483q0 93 75.5 155t188.5 62q91 0 150 -50t59 -126q0 -120 -124 -176q39 -19 61 -54.5t22 -80.5q0 -97 -79.5 -161t-202.5 -64q-95 0 -158.5 51.5t-63.5 128.5q0 64 38 115t103 73q-32 19 -50.5 52.5t-18.5 74.5zM179 188q0 -31 22 -51.5t57 -20.5q47 0 77 28t30 73
q0 31 -22.5 51t-57.5 20q-47 0 -76.5 -28t-29.5 -72zM243 479q0 -29 20.5 -48t53.5 -19q41 0 69 26.5t28 65.5q0 31 -20.5 49.5t-53.5 18.5q-41 0 -69 -26.5t-28 -66.5z" />
    <glyph glyph-name="nine" unicode="9" 
d="M281 0h-221q195 130 277 251q-44 -16 -87 -16q-81 0 -135.5 57t-54.5 142q0 115 79.5 190.5t200.5 75.5q98 0 162.5 -64t64.5 -167q0 -120 -75.5 -243.5t-210.5 -225.5zM396 407q12 29 12 58q0 42 -23.5 68.5t-59.5 26.5q-46 0 -76.5 -31.5t-30.5 -78.5q0 -35 23 -57.5
t60 -22.5q50 0 95 37z" />
    <glyph glyph-name="colon" unicode=":" horiz-adv-x="250" 
d="M1 71q0 45 29 74.5t74 29.5q36 0 59.5 -23.5t23.5 -60.5q0 -44 -29.5 -73.5t-73.5 -29.5q-37 0 -60 23.5t-23 59.5zM64 410q0 44 29 73t73 29q37 0 60 -23t23 -60q0 -44 -29 -73.5t-73 -29.5q-37 0 -60 23.5t-23 60.5z" />
    <glyph glyph-name="semicolon" unicode=";" horiz-adv-x="250" 
d="M-112 -125l144 265h163l-164 -265h-143zM64 410q0 44 29 73t73 29q37 0 60 -23t23 -60q0 -44 -29 -73.5t-73 -29.5q-37 0 -60 23.5t-23 60.5z" />
    <glyph glyph-name="less" unicode="&#x3c;" 
d="M538 12l-501 212v115l501 212v-151l-284 -118l284 -119v-151z" />
    <glyph glyph-name="equal" unicode="=" 
d="M37 103v139h501v-139h-501zM37 321v139h501v-139h-501z" />
    <glyph glyph-name="greater" unicode="&#x3e;" 
d="M37 551l501 -212v-115l-501 -212v151l284 119l-284 118v151z" />
    <glyph glyph-name="question" unicode="?" horiz-adv-x="461" 
d="M117 219l7 34q7 39 27 71.5t43 53.5t45 39.5t36.5 38.5t14.5 42q0 26 -18 42t-48 16q-68 0 -145 -51l29 156q75 39 166 39q85 0 136 -48t51 -128q0 -42 -17.5 -79t-43 -64t-51.5 -50.5t-47 -47t-25 -44.5l-4 -20h-156zM86 71q0 44 30 74t74 30q36 0 59.5 -23.5
t23.5 -60.5q0 -43 -29.5 -73t-73.5 -30q-37 0 -60.5 23.5t-23.5 59.5z" />
    <glyph glyph-name="at" unicode="@" horiz-adv-x="985" 
d="M744 469l-49 -263q-2 -10 -2 -15q0 -32 32 -32q40 0 68.5 51.5t28.5 125.5q0 106 -75.5 171t-199.5 65q-158 0 -267 -111t-109 -273q0 -119 77 -189.5t206 -70.5q114 0 239 55l-26 -137q-110 -46 -225 -46q-183 0 -297 104.5t-114 271.5q0 226 150.5 375t377.5 149
q176 0 289 -98t113 -250q0 -144 -80 -237t-203 -93q-85 0 -125 44q-59 -44 -137 -44q-68 0 -112 51t-44 130q0 117 65 196.5t159 79.5q55 0 102 -31l3 21h155zM419 223q0 -33 15.5 -50.5t42.5 -17.5q31 0 58 24l27 147q-25 19 -52 19q-39 0 -65 -35t-26 -87z" />
    <glyph glyph-name="A" unicode="A" horiz-adv-x="656" 
d="M-47 0l389 688h140l133 -688h-152l-23 142h-241l-75 -142h-171zM385 487l-118 -221h153z" />
    <glyph glyph-name="B" unicode="B" horiz-adv-x="629" 
d="M248 288l-30 -160h94q44 0 73.5 26.5t29.5 66.5q0 31 -21 49t-56 18h-90zM35 0l129 688h250q88 0 141.5 -44t53.5 -118q0 -59 -31.5 -107t-85.5 -71q39 -17 62.5 -52t23.5 -79q0 -92 -76.5 -154.5t-191.5 -62.5h-275zM299 560l-27 -148h82q43 0 70 24.5t27 62.5
q0 28 -19.5 44.5t-52.5 16.5h-80z" />
    <glyph glyph-name="C" unicode="C" horiz-adv-x="622" 
d="M51 274q0 187 111.5 306.5t283.5 119.5q105 0 207 -59l-27 -141q-86 60 -169 60q-104 0 -169.5 -74.5t-65.5 -192.5q0 -75 44.5 -120t119.5 -45q85 0 179 53l-26 -150q-92 -43 -199 -43q-126 0 -207.5 81t-81.5 205z" />
    <glyph glyph-name="D" unicode="D" horiz-adv-x="718" 
d="M35 0l129 688h249q130 0 210 -75.5t80 -196.5q0 -188 -108.5 -302t-286.5 -114h-273zM305 552l-77 -416h92q92 0 152.5 76t60.5 191q0 68 -39.5 108.5t-107.5 40.5h-81z" />
    <glyph glyph-name="E" unicode="E" 
d="M35 0l129 688h426l-25 -136h-259l-25 -137h218l-23 -131h-220l-28 -148h266l-25 -136h-434z" />
    <glyph glyph-name="F" unicode="F" horiz-adv-x="540" 
d="M35 0l129 688h426l-25 -136h-260l-30 -163h220l-26 -136h-220l-47 -253h-167z" />
    <glyph glyph-name="G" unicode="G" horiz-adv-x="699" 
d="M662 382l-65 -347q-127 -47 -243 -47q-133 0 -218 81t-85 205q0 188 113.5 307t291.5 119q113 0 223 -67l-26 -143q-94 70 -190 70q-107 0 -176 -74.5t-69 -192.5q0 -73 45 -119t117 -46q40 0 81 12l24 119h-127l24 123h280z" />
    <glyph glyph-name="H" unicode="H" horiz-adv-x="750" 
d="M35 0l129 688h167l-50 -271h251l52 271h166l-129 -688h-166l52 283h-252l-53 -283h-167z" />
    <glyph glyph-name="I" unicode="I" horiz-adv-x="331" 
d="M35 0l129 688h167l-129 -688h-167z" />
    <glyph glyph-name="J" unicode="J" horiz-adv-x="485" 
d="M488 688l-94 -501q-18 -93 -81 -146t-157 -53q-80 0 -162 39l26 132q55 -31 109 -31q40 0 68.5 24t35.5 62l89 474h166z" />
    <glyph glyph-name="K" unicode="K" horiz-adv-x="660" 
d="M35 0l129 688h163l-48 -261l261 261h202l-349 -344l232 -344h-187l-186 286l-54 -286h-163z" />
    <glyph glyph-name="L" unicode="L" horiz-adv-x="516" 
d="M35 0l129 688h167l-103 -552h250l-25 -136h-418z" />
    <glyph glyph-name="M" unicode="M" horiz-adv-x="836" 
d="M35 0l129 688h136l140 -276l241 276h155l-129 -688h-155l80 424l-170 -197h-91l-101 201l-79 -428h-156z" />
    <glyph glyph-name="N" unicode="N" horiz-adv-x="750" 
d="M35 0l129 688h136l215 -428l79 428h156l-129 -688h-136l-215 428l-79 -428h-156z" />
    <glyph glyph-name="O" unicode="O" horiz-adv-x="750" 
d="M51 272q0 189 110.5 308.5t284.5 119.5q128 0 208 -78.5t80 -205.5q0 -189 -110.5 -308.5t-283.5 -119.5q-129 0 -209 79t-80 205zM222 285q0 -71 36.5 -114t97.5 -43q85 0 146.5 80t61.5 195q0 71 -37 114t-97 43q-86 0 -147 -80t-61 -195z" />
    <glyph glyph-name="P" unicode="P" horiz-adv-x="617" 
d="M35 0l129 688h246q98 0 156.5 -53t58.5 -142q0 -109 -85 -183t-209 -74h-89l-44 -236h-163zM303 556l-36 -189h68q54 0 88.5 31.5t34.5 78.5q0 37 -24 58t-66 21h-65z" />
    <glyph glyph-name="Q" unicode="Q" horiz-adv-x="750" 
d="M51 272q0 189 110.5 308.5t284.5 119.5q128 0 208 -78.5t80 -205.5q0 -120 -47.5 -215.5t-131.5 -150.5l105 -152h-174l-66 98q-42 -8 -80 -8q-129 0 -209 79t-80 205zM222 285q0 -71 36.5 -114t97.5 -43q85 0 146.5 80t61.5 195q0 71 -37 114t-97 43q-86 0 -147 -80
t-61 -195z" />
    <glyph glyph-name="R" unicode="R" horiz-adv-x="625" 
d="M387 0l-86 243h-57l-46 -243h-163l129 688h242q97 0 154 -51.5t57 -139.5q0 -76 -44 -138t-117 -91l102 -268h-171zM303 556l-34 -182h62q53 0 86.5 31t33.5 76q0 36 -23 55.5t-64 19.5h-61z" />
    <glyph glyph-name="S" unicode="S" horiz-adv-x="555" 
d="M20 45l26 140q98 -65 189 -65q47 0 75.5 22t28.5 59q0 29 -25.5 50.5t-62 38.5t-73.5 38.5t-62.5 61.5t-25.5 95q0 94 73.5 154.5t192.5 60.5q99 0 198 -51l-24 -138q-92 57 -174 57q-46 0 -73.5 -20.5t-27.5 -54.5q0 -27 25.5 -47.5t62 -37.5t73 -38.5t62 -62.5
t25.5 -98q0 -97 -74 -159t-194 -62q-106 0 -215 57z" />
    <glyph glyph-name="T" unicode="T" horiz-adv-x="594" 
d="M167 0l103 552h-190l26 136h547l-26 -136h-191l-103 -552h-166z" />
    <glyph glyph-name="U" unicode="U" horiz-adv-x="750" 
d="M753 688l-82 -446q-22 -117 -111 -185.5t-220 -68.5q-115 0 -188.5 63.5t-73.5 163.5q0 30 6 63l76 410h167l-76 -410q-4 -19 -4 -40q0 -49 29.5 -79.5t79.5 -30.5q57 0 98.5 36.5t52.5 97.5l80 426h166z" />
    <glyph glyph-name="V" unicode="V" horiz-adv-x="656" 
d="M738 688l-389 -688h-140l-133 688h160l74 -467l250 467h178z" />
    <glyph glyph-name="W" unicode="W" horiz-adv-x="1031" 
d="M1108 688l-360 -688h-146l-49 485l-228 -485h-145l-98 688h156l48 -485l228 485h146l49 -485l228 485h171z" />
    <glyph glyph-name="X" unicode="X" horiz-adv-x="672" 
d="M-49 0l305 356l-164 332h173l104 -222l171 222h190l-285 -344l168 -344h-177l-104 234l-186 -234h-195z" />
    <glyph glyph-name="Y" unicode="Y" horiz-adv-x="625" 
d="M176 0l54 287l-158 401h175l86 -259l182 259h198l-319 -416l-51 -272h-167z" />
    <glyph glyph-name="Z" unicode="Z" horiz-adv-x="630" 
d="M-10 0l21 108l405 444h-305l26 136h520l-21 -108l-405 -444h329l-25 -136h-545z" />
    <glyph glyph-name="bracketleft" unicode="[" horiz-adv-x="344" 
d="M-5 -156l164 875h249l-23 -124h-95l-117 -627h94l-24 -124h-248z" />
    <glyph glyph-name="backslash" unicode="\" horiz-adv-x="375" 
d="M218 -156l-164 875h158l164 -875h-158z" />
    <glyph glyph-name="bracketright" unicode="]" horiz-adv-x="344" 
d="M361 719l-165 -875h-248l23 124h94l118 627h-95l23 124h250z" />
    <glyph glyph-name="asciicircum" unicode="^" 
d="M29 188l212 500h116l212 -500h-152l-118 283l-118 -283h-152z" />
    <glyph glyph-name="underscore" unicode="_" horiz-adv-x="500" 
d="M-84 -191l25 131h501l-26 -131h-500z" />
    <glyph glyph-name="grave" unicode="`" horiz-adv-x="250" 
d="M145 547l-101 172h134l83 -172h-116z" />
    <glyph glyph-name="a" unicode="a" horiz-adv-x="586" 
d="M570 500l-94 -500h-155l6 27q-59 -39 -120 -39q-79 0 -129.5 58.5t-50.5 149.5q0 134 74 225t182 91q63 0 119 -39l6 27h162zM195 215q0 -42 19 -64.5t54 -22.5q38 0 76 35l34 182q-32 27 -69 27q-50 0 -82 -44.5t-32 -112.5z" />
    <glyph glyph-name="b" unicode="b" horiz-adv-x="586" 
d="M16 0l135 719h163l-45 -240q53 33 109 33q79 0 129.5 -58t50.5 -149q0 -135 -73.5 -226t-182.5 -91q-63 0 -118 39l-5 -27h-163zM392 285q0 42 -19.5 64.5t-53.5 22.5q-40 0 -77 -35l-34 -182q33 -27 69 -27q49 0 82 44.5t33 112.5z" />
    <glyph glyph-name="c" unicode="c" horiz-adv-x="485" 
d="M27 203q0 135 85 222t216 87q79 0 159 -43l-26 -136q-61 43 -121 43q-65 0 -105 -42.5t-40 -110.5q0 -45 27.5 -72t73.5 -27q62 0 132 37l-25 -141q-74 -32 -153 -32q-97 0 -160 60.5t-63 154.5z" />
    <glyph glyph-name="d" unicode="d" horiz-adv-x="586" 
d="M611 719l-135 -719h-155l6 27q-59 -39 -120 -39q-79 0 -129.5 58.5t-50.5 149.5q0 134 74 225t182 91q63 0 119 -39l47 246h162zM195 215q0 -42 19 -64.5t54 -22.5q38 0 76 35l34 182q-32 27 -69 27q-50 0 -82 -44.5t-32 -112.5z" />
    <glyph glyph-name="e" unicode="e" horiz-adv-x="531" 
d="M27 199q0 136 81 224.5t205 88.5q88 0 143 -55.5t55 -143.5q0 -55 -15 -109h-313v-4q0 -41 30 -64.5t83 -23.5q69 0 154 45l-25 -134q-85 -35 -175 -35q-97 0 -160 59.5t-63 151.5zM201 305h162q2 12 2 18q0 30 -17.5 47.5t-46.5 17.5q-35 0 -62.5 -22.5t-37.5 -60.5z
" />
    <glyph glyph-name="f" unicode="f" horiz-adv-x="383" 
d="M21 -141l96 510h-79l25 131h78l13 72q14 76 64 117.5t126 41.5q57 0 123 -25l-24 -126q-35 15 -68 15q-24 0 -41.5 -14t-21.5 -36l-8 -45h110l-24 -131h-111l-95 -510h-163z" />
    <glyph glyph-name="g" unicode="g" horiz-adv-x="586" 
d="M570 500l-94 -500q-19 -106 -96.5 -168.5t-187.5 -62.5q-102 0 -196 51l26 132q84 -55 168 -55q45 0 79.5 26.5t42.5 68.5l6 30q-54 -34 -111 -34q-79 0 -129.5 58.5t-50.5 149.5q0 134 74 225t182 91q63 0 119 -39l6 27h162zM195 215q0 -42 19 -64.5t54 -22.5
q38 0 76 35l34 182q-32 27 -69 27q-50 0 -82 -44.5t-32 -112.5z" />
    <glyph glyph-name="h" unicode="h" horiz-adv-x="586" 
d="M16 0l135 719h163l-48 -252q62 45 132 45q63 0 104 -42t41 -106q0 -29 -6 -59l-57 -305h-162l54 293q3 12 3 25q0 23 -14.5 37t-37.5 14q-40 0 -83 -40l-61 -329h-163z" />
    <glyph glyph-name="i" unicode="i" horiz-adv-x="288" 
d="M16 0l93 500h164l-94 -500h-163zM125 624q0 42 28.5 70t71.5 28q35 0 57 -22t22 -57q0 -41 -28.5 -69.5t-70.5 -28.5q-35 0 -57.5 22t-22.5 57z" />
    <glyph glyph-name="j" unicode="j" horiz-adv-x="288" 
d="M273 500l-107 -571q-14 -76 -63.5 -118t-126.5 -42q-59 0 -123 26l23 126q37 -16 69 -16q24 0 41 14t22 37l101 544h164zM125 624q0 42 28.5 70t71.5 28q35 0 57 -22t22 -57q0 -41 -28.5 -69.5t-70.5 -28.5q-35 0 -57.5 22t-22.5 57z" />
    <glyph glyph-name="k" unicode="k" horiz-adv-x="531" 
d="M16 0l135 719h159l-72 -384l149 165h191l-236 -250l150 -250h-179l-103 189l-35 -189h-159z" />
    <glyph glyph-name="l" unicode="l" horiz-adv-x="288" 
d="M16 0l135 719h163l-135 -719h-163z" />
    <glyph glyph-name="m" unicode="m" horiz-adv-x="867" 
d="M16 0l93 500h156l-6 -35q70 47 133 47q80 0 123 -70q85 70 168 70q60 0 101.5 -41.5t41.5 -102.5q0 -27 -5 -55l-60 -313h-162l56 297q3 13 3 25q0 20 -13.5 33.5t-36.5 13.5q-39 0 -75 -36l-63 -333h-163l57 297q3 13 3 25q0 20 -14 33.5t-36 13.5q-39 0 -76 -36
l-62 -333h-163z" />
    <glyph glyph-name="n" unicode="n" horiz-adv-x="586" 
d="M16 0l93 500h156l-7 -39q68 51 140 51q63 0 104 -42t41 -106q0 -29 -6 -59l-57 -305h-162l54 293q3 12 3 25q0 23 -14.5 37t-37.5 14q-40 0 -83 -40l-61 -329h-163z" />
    <glyph glyph-name="o" unicode="o" horiz-adv-x="586" 
d="M27 203q0 135 86 222t219 87q98 0 162 -60.5t64 -154.5q0 -135 -85.5 -222t-218.5 -87q-99 0 -163 60.5t-64 154.5zM195 215q0 -41 21 -66t57 -25q51 0 85 45.5t34 115.5q0 41 -22 66t-57 25q-51 0 -84.5 -45t-33.5 -116z" />
    <glyph glyph-name="p" unicode="p" horiz-adv-x="586" 
d="M-25 -219l134 719h156l-5 -27q57 39 118 39q79 0 129.5 -58t50.5 -149q0 -135 -73.5 -226t-182.5 -91q-63 0 -118 39l-46 -246h-163zM392 285q0 42 -19.5 64.5t-53.5 22.5q-40 0 -77 -35l-34 -182q33 -27 69 -27q49 0 82 44.5t33 112.5z" />
    <glyph glyph-name="q" unicode="q" horiz-adv-x="586" 
d="M570 500l-135 -719h-162l45 241q-54 -34 -111 -34q-79 0 -129.5 58.5t-50.5 149.5q0 134 74 225t182 91q63 0 119 -39l6 27h162zM195 215q0 -42 19 -64.5t54 -22.5q38 0 76 35l34 182q-32 27 -69 27q-50 0 -82 -44.5t-32 -112.5z" />
    <glyph glyph-name="r" unicode="r" horiz-adv-x="399" 
d="M16 0l93 500h156l-8 -43q61 55 121 55q24 0 43 -8l-26 -141q-21 6 -40 6q-59 0 -117 -55l-59 -314h-163z" />
    <glyph glyph-name="s" unicode="s" horiz-adv-x="438" 
d="M6 29l25 134q71 -47 141 -47q23 0 37.5 10t14.5 26q0 15 -17.5 27t-42.5 23.5t-49.5 27t-42 45t-17.5 69.5q0 76 57.5 122t153.5 46q76 0 153 -37l-24 -132q-68 41 -129 41q-48 0 -48 -32q0 -14 17.5 -25t42 -22.5t49 -27t42 -46t17.5 -71.5q0 -79 -58 -125.5t-156 -46.5
q-82 0 -166 41z" />
    <glyph glyph-name="t" unicode="t" horiz-adv-x="422" 
d="M330 641l-26 -141h126l-25 -131h-126l-33 -178q-3 -12 -3 -24q0 -19 12.5 -31t32.5 -12q33 0 75 16l-25 -136q-51 -16 -107 -16q-70 0 -113 40t-43 105q0 13 4 35l38 201h-79l25 131h78l26 141h163z" />
    <glyph glyph-name="u" unicode="u" horiz-adv-x="586" 
d="M570 500l-94 -500h-155l8 39q-71 -51 -141 -51q-64 0 -105 42t-41 107q0 29 6 59l58 304h163l-55 -293q-2 -16 -2 -24q0 -24 13.5 -37.5t37.5 -13.5q41 0 82 39l63 329h162z" />
    <glyph glyph-name="v" unicode="v" horiz-adv-x="515" 
d="M562 500l-281 -500h-140l-94 500h155l39 -287l147 287h174z" />
    <glyph glyph-name="w" unicode="w" horiz-adv-x="789" 
d="M832 500l-262 -500h-146l-23 307l-134 -307h-146l-70 500h151l24 -306l134 306h145l24 -306l135 306h168z" />
    <glyph glyph-name="x" unicode="x" horiz-adv-x="531" 
d="M-47 0l219 258l-117 242h167l59 -133l98 133h183l-207 -250l121 -250h-171l-59 142l-106 -142h-187z" />
    <glyph glyph-name="y" unicode="y" horiz-adv-x="515" 
d="M562 500l-407 -719h-166l148 242l-90 477h155l39 -287l147 287h174z" />
    <glyph glyph-name="z" unicode="z" horiz-adv-x="493" 
d="M-12 0l20 105l244 264h-183l25 131h395l-20 -104l-244 -264h202l-25 -132h-414z" />
    <glyph glyph-name="braceleft" unicode="{" horiz-adv-x="344" 
d="M408 719l-23 -124h-17q-28 0 -49 -18.5t-26 -47.5l-24 -130q-8 -43 -40 -75.5t-78 -45.5q33 -13 52.5 -42.5t19.5 -67.5q0 -13 -4 -35l-17 -91q-3 -12 -3 -23q0 -23 15.5 -37t40.5 -14h12l-24 -124h-38q-75 0 -119 42.5t-44 112.5q0 20 5 47l19 99q3 21 3 23q0 22 -14 37
t-35 15h-11l24 123h6q28 0 50.5 23.5t29.5 59.5l26 134q14 72 72.5 115.5t142.5 43.5h48z" />
    <glyph glyph-name="bar" unicode="|" horiz-adv-x="250" 
d="M56 -250v1001h139v-1001h-139z" />
    <glyph glyph-name="braceright" unicode="}" horiz-adv-x="344" 
d="M-53 -156l24 124h17q26 0 47 19t26 47l26 130q8 43 39.5 75.5t76.5 45.5q-33 13 -52.5 42.5t-19.5 67.5q0 13 4 35l18 91q0 3 1 7.5t1.5 8.5t0.5 8q0 22 -15.5 36t-41.5 14h-12l24 124h39q74 0 118 -42.5t44 -112.5q0 -20 -5 -47l-19 -99q-3 -21 -3 -23q0 -23 14 -37.5
t36 -14.5h10l-22 -123h-7q-28 0 -50.5 -23.5t-29.5 -59.5l-25 -134q-13 -72 -72.5 -115.5t-142.5 -43.5h-49z" />
    <glyph glyph-name="asciitilde" unicode="~" 
d="M7 188q0 91 47 147t124 56q35 0 67 -12.5t52 -27t42 -27t38 -12.5q23 0 37.5 17.5t14.5 45.5h139q0 -91 -47 -147t-124 -56q-44 0 -83 20t-68 39.5t-48 19.5q-23 0 -37.5 -17.5t-14.5 -45.5h-139z" />
    <glyph glyph-name="uni00A0" unicode="&#xa0;" horiz-adv-x="250" 
 />
    <glyph glyph-name="exclamdown" unicode="&#xa1;" horiz-adv-x="312" 
d="M243 282l-88 -470h-163l88 470h163zM281 429q0 -44 -29.5 -73.5t-73.5 -29.5q-37 0 -60.5 23.5t-23.5 60.5q0 44 29.5 73t73.5 29q37 0 60.5 -23t23.5 -60z" />
    <glyph glyph-name="cent" unicode="&#xa2;" 
d="M189 -63l30 161q-63 23 -99 76t-36 123q0 114 63 195.5t165 105.5l29 153h139l-29 -153q45 -10 93 -35l-26 -136q-61 43 -121 43q-65 0 -105.5 -42.5t-40.5 -110.5q0 -45 28 -72t74 -27q62 0 133 37l-27 -142q-55 -23 -104 -28l-28 -148h-138z" />
    <glyph glyph-name="sterling" unicode="&#xa3;" 
d="M0 0l20 105l84 179h-45l25 131h81l61 130q74 155 220 155q63 0 133 -31l-26 -132q-41 23 -80 23q-59 0 -87 -59l-40 -86h112l-24 -131h-151l-70 -148h289l-25 -136h-477z" />
    <glyph glyph-name="currency" unicode="&#xa4;" 
d="M80 344q0 55 22 98l-85 84l100 100l83 -85q43 22 99 22q57 0 98 -22l84 85l100 -100l-85 -84q22 -43 22 -98q0 -56 -22 -99l85 -83l-100 -100l-84 85q-41 -22 -98 -22q-56 0 -99 22l-83 -85l-100 100l85 83q-22 43 -22 99zM204 344q0 -41 27 -68t68 -27t68 27t27 68
t-27 68t-68 27t-68 -27t-27 -68z" />
    <glyph glyph-name="yen" unicode="&#xa5;" 
d="M146 0l20 110h-135l20 109h136l11 63h-135l20 108h93l-116 298h172l77 -228l159 228h196l-228 -298h84l-20 -108h-135l-12 -63h136l-21 -109h-136l-20 -110h-166z" />
    <glyph glyph-name="brokenbar" unicode="&#xa6;" horiz-adv-x="250" 
d="M56 313v375h139v-375h-139zM56 -188v376h139v-376h-139z" />
    <glyph glyph-name="section" unicode="&#xa7;" horiz-adv-x="511" 
d="M-2 -90l26 138q82 -53 158 -53q30 0 48.5 13t18.5 35q0 16 -14.5 29.5t-36.5 22.5t-47 24t-47 33t-36.5 50.5t-14.5 75.5q0 96 82 158q-24 39 -24 80q0 81 65 132.5t166 51.5q81 0 169 -41l-24 -136q-78 45 -145 45q-29 0 -46 -12t-17 -32q0 -16 14.5 -28.5t36 -21
t47 -23.5t47 -33t36 -51.5t14.5 -77.5q0 -97 -80 -156q21 -37 21 -82q0 -84 -64.5 -136t-168.5 -52q-90 0 -184 47zM237 355q-33 -24 -33 -62q0 -17 5.5 -29t21 -21.5t26 -14t36.5 -14.5q31 27 31 60q0 24 -13.5 40.5t-27.5 23t-46 17.5z" />
    <glyph glyph-name="dieresis" unicode="&#xa8;" horiz-adv-x="250" 
d="M1 624q0 40 27 67.5t67 27.5q34 0 55.5 -21t21.5 -55q0 -41 -27 -68t-68 -27q-33 0 -54.5 21.5t-21.5 54.5zM220 624q0 41 27 68t67 27q33 0 54.5 -21t21.5 -55q0 -41 -27 -68t-67 -27q-34 0 -55 21.5t-21 54.5z" />
    <glyph glyph-name="copyright" unicode="&#xa9;" horiz-adv-x="845" 
d="M81 344q0 158 100.5 259t258.5 101t259 -101t101 -259t-101 -259t-259 -101t-258.5 101t-100.5 259zM166 344q0 -120 77 -197.5t197 -77.5q121 0 198 77.5t77 197.5t-77 197.5t-198 77.5q-120 0 -197 -77.5t-77 -197.5zM245 344q0 92 58.5 151t149.5 59q61 0 125 -28
v-102q-55 33 -102 33q-50 0 -81 -31.5t-31 -81.5t31 -81.5t81 -31.5q47 0 102 33v-102q-64 -28 -125 -28q-91 0 -149.5 59t-58.5 151z" />
    <glyph glyph-name="ordfeminine" unicode="&#xaa;" horiz-adv-x="383" 
d="M28 237l17 89h320l-17 -89h-320zM421 688l-59 -313h-106l3 16q-35 -23 -72 -23q-50 0 -81.5 36.5t-31.5 94.5q0 83 46.5 140t113.5 57q37 0 71 -23l3 15h113zM189 512q0 -48 40 -48q23 0 41 20l19 101q-17 14 -37 14q-26 0 -44.5 -25t-18.5 -62z" />
    <glyph glyph-name="guillemotleft" unicode="&#xab;" horiz-adv-x="686" 
d="M702 469l-235 -223l141 -215h-158l-168 223l238 215h182zM453 469l-235 -223l141 -215h-160l-168 223l239 215h183z" />
    <glyph glyph-name="logicalnot" unicode="&#xac;" 
d="M37 212v139h501v-320h-140v181h-361z" />
    <glyph glyph-name="uni00AD" unicode="&#xad;" horiz-adv-x="313" 
d="M12 189l25 131h264l-25 -131h-264z" />
    <glyph glyph-name="registered" unicode="&#xae;" horiz-adv-x="500" 
d="M79 485q0 95 60.5 155t154.5 60t154.5 -60t60.5 -155t-60.5 -155t-154.5 -60t-154.5 60t-60.5 155zM134 485q0 -71 45 -115.5t115 -44.5q71 0 116 45t45 115t-45 115t-116 45q-70 0 -115 -44.5t-45 -115.5zM273 553v-55h23q13 0 21.5 7.5t8.5 19.5t-8.5 20t-21.5 8h-23z
M212 368v234h93q36 0 59.5 -21.5t23.5 -55.5q0 -46 -40 -68l50 -89h-67l-43 81h-15v-81h-61z" />
    <glyph glyph-name="macron" unicode="&#xaf;" horiz-adv-x="250" 
d="M6 580l20 108h359l-20 -108h-359z" />
    <glyph glyph-name="degree" unicode="&#xb0;" horiz-adv-x="375" 
d="M90 548q0 67 42.5 109.5t109.5 42.5t109.5 -42.5t42.5 -109.5t-42.5 -109.5t-109.5 -42.5t-109.5 42.5t-42.5 109.5zM184 548q0 -26 16 -42.5t42 -16.5t42.5 16.5t16.5 42.5t-16.5 42.5t-42.5 16.5t-42 -16.5t-16 -42.5z" />
    <glyph glyph-name="plusminus" unicode="&#xb1;" 
d="M37 352v140h181v180h139v-180h181v-140h-181v-181h-139v181h-181zM37 0v140h501v-140h-501z" />
    <glyph glyph-name="twosuperior" unicode="&#xb2;" horiz-adv-x="319" 
d="M47 407l14 73q80 47 133.5 103t53.5 92q0 45 -45 45q-43 0 -95 -35l20 108q54 27 115 27q56 0 90 -32.5t34 -87.5q0 -45 -37 -98t-99 -98h103l-18 -97h-269z" />
    <glyph glyph-name="threesuperior" unicode="&#xb3;" horiz-adv-x="315" 
d="M155 568l17 90h19q26 0 42 11t16 28q0 13 -10.5 21t-27.5 8q-45 0 -95 -29l19 103q51 20 101 20q56 0 91 -28t35 -74q0 -36 -20 -64.5t-55 -41.5q53 -25 53 -80q0 -56 -46.5 -94t-116.5 -38q-67 0 -120 32l18 98q47 -36 97 -36q20 0 36 12t16 28t-13 25t-35 9h-21z" />
    <glyph glyph-name="acute" unicode="&#xb4;" horiz-adv-x="250" 
d="M91 547l145 172h154l-163 -172h-136z" />
    <glyph glyph-name="mu" unicode="&#xb5;" horiz-adv-x="589" 
d="M-25 -219l134 719h164l-55 -293q-2 -16 -2 -24q0 -24 13.5 -37.5t37.5 -13.5q41 0 82 39l63 329h162l-94 -500h-155l8 39q-48 -43 -98 -43q-29 0 -55 12l-42 -227h-163z" />
    <glyph glyph-name="paragraph" unicode="&#xb6;" horiz-adv-x="601" 
d="M309 251h-35q-95 0 -151.5 51t-56.5 136q0 105 83 177.5t203 72.5h249l-152 -813h-140l127 673h-71z" />
    <glyph glyph-name="periodcentered" unicode="&#xb7;" horiz-adv-x="250" 
d="M32 240q0 45 29 74.5t74 29.5q36 0 59.5 -23.5t23.5 -60.5q0 -44 -29.5 -73.5t-73.5 -29.5q-37 0 -60 23.5t-23 59.5z" />
    <glyph glyph-name="cedilla" unicode="&#xb8;" horiz-adv-x="250" 
d="M135 0l-17 -39q50 -21 50 -76q0 -50 -40.5 -83t-104.5 -33q-45 0 -93 24l17 87q31 -22 61 -22q19 0 31.5 9.5t12.5 24.5t-12.5 24.5t-31.5 9.5h-4l33 74h98z" />
    <glyph glyph-name="onesuperior" unicode="&#xb9;" horiz-adv-x="280" 
d="M138 407l53 280l-99 -38l20 105l148 59h71l-76 -406h-117z" />
    <glyph glyph-name="ordmasculine" unicode="&#xba;" horiz-adv-x="383" 
d="M28 237l17 89h320l-17 -89h-320zM74 504q0 83 54.5 137.5t139.5 54.5q64 0 105 -38.5t41 -97.5q0 -84 -55 -138t-140 -54q-63 0 -104 38.5t-41 97.5zM189 512q0 -23 12 -37t32 -14q28 0 46.5 25.5t18.5 65.5q0 22 -12 36t-31 14q-28 0 -47 -25.5t-19 -64.5z" />
    <glyph glyph-name="guillemotright" unicode="&#xbb;" horiz-adv-x="686" 
d="M-16 31l235 223l-141 215h160l168 -223l-239 -215h-183zM235 31l234 223l-141 215h159l168 -223l-239 -215h-181z" />
    <glyph glyph-name="onequarter" unicode="&#xbc;" horiz-adv-x="845" 
d="M147 282l53 280l-99 -38l20 105l148 59h71l-76 -406h-117zM55 0l641 688h129l-641 -688h-129zM623 0l16 85h-163l15 81l219 240h98l-44 -234h55l-16 -87h-56l-16 -85h-108zM596 172h59l16 80z" />
    <glyph glyph-name="onehalf" unicode="&#xbd;" horiz-adv-x="845" 
d="M55 0l641 688h129l-641 -688h-129zM484 0l14 73q80 47 133.5 103t53.5 92q0 45 -45 45q-43 0 -95 -35l20 108q54 27 115 27q56 0 90 -32.5t34 -87.5q0 -45 -37 -98t-99 -98h103l-18 -97h-269zM147 282l53 280l-99 -38l20 105l148 59h71l-76 -406h-117z" />
    <glyph glyph-name="threequarters" unicode="&#xbe;" horiz-adv-x="845" 
d="M147 443l17 90h19q26 0 42 11t16 28q0 13 -10.5 21t-27.5 8q-45 0 -95 -29l19 103q51 20 101 20q56 0 91 -28t35 -74q0 -36 -20 -64.5t-55 -41.5q53 -25 53 -80q0 -56 -46.5 -94t-116.5 -38q-67 0 -120 32l18 98q47 -36 97 -36q20 0 36 12t16 28t-13 25t-35 9h-21zM55 0
l641 688h129l-641 -688h-129zM623 0l16 85h-163l15 81l219 240h98l-44 -234h55l-16 -87h-56l-16 -85h-108zM596 172h59l16 80z" />
    <glyph glyph-name="questiondown" unicode="&#xbf;" horiz-adv-x="461" 
d="M343 282l-7 -34q-7 -39 -27 -71.5t-43 -53.5t-44.5 -39.5t-36 -38.5t-14.5 -42q0 -26 18 -42t48 -16q67 0 144 51l-28 -156q-75 -39 -166 -39q-85 0 -136 48t-51 128q0 42 17.5 79t43 64t51.5 50.5t46.5 47t25.5 44.5l4 20h155zM374 430q0 -44 -29.5 -74t-73.5 -30
q-36 0 -59.5 23.5t-23.5 60.5q0 44 29.5 73.5t73.5 29.5q37 0 60 -23.5t23 -59.5z" />
    <glyph glyph-name="Agrave" unicode="&#xc0;" horiz-adv-x="656" 
d="M-47 0l389 688h140l133 -688h-152l-23 142h-241l-75 -142h-171zM385 487l-118 -221h153zM387 735l-101 172h134l83 -172h-116z" />
    <glyph glyph-name="Aacute" unicode="&#xc1;" horiz-adv-x="656" 
d="M-47 0l389 688h140l133 -688h-152l-23 142h-241l-75 -142h-171zM385 487l-118 -221h153zM333 735l145 172h154l-163 -172h-136z" />
    <glyph glyph-name="Acircumflex" unicode="&#xc2;" horiz-adv-x="656" 
d="M-47 0l389 688h140l133 -688h-152l-23 142h-241l-75 -142h-171zM385 487l-118 -221h153zM231 735l145 172h145l84 -172h-113l-52 88l-84 -88h-125z" />
    <glyph glyph-name="Atilde" unicode="&#xc3;" horiz-adv-x="656" 
d="M-47 0l389 688h140l133 -688h-152l-23 142h-241l-75 -142h-171zM385 487l-118 -221h153zM239 756q9 64 46.5 104t89.5 40q35 0 75 -27.5t52 -27.5q17 0 28.5 12t14.5 31h93q-9 -65 -46.5 -104.5t-89.5 -39.5q-27 0 -52 14t-44 27.5t-31 13.5q-36 0 -43 -43h-93z" />
    <glyph glyph-name="Adieresis" unicode="&#xc4;" horiz-adv-x="656" 
d="M-47 0l389 688h140l133 -688h-152l-23 142h-241l-75 -142h-171zM385 487l-118 -221h153zM243 812q0 40 27 67.5t67 27.5q34 0 55.5 -21t21.5 -55q0 -41 -27 -68t-68 -27q-33 0 -54.5 21.5t-21.5 54.5zM462 812q0 41 27 68t67 27q33 0 54.5 -21t21.5 -55q0 -41 -27 -68
t-67 -27q-34 0 -55 21.5t-21 54.5z" />
    <glyph glyph-name="Aring" unicode="&#xc5;" horiz-adv-x="656" 
d="M-47 0l389 688h140l133 -688h-152l-23 142h-241l-75 -142h-171zM385 487l-118 -221h153zM324 810q0 53 36 89t89 36q45 0 73.5 -28.5t28.5 -73.5q0 -53 -36 -88.5t-89 -35.5q-45 0 -73.5 28t-28.5 73zM391 817q0 -19 11.5 -30.5t30.5 -11.5q22 0 36.5 14.5t14.5 36.5
q0 19 -11.5 30.5t-30.5 11.5q-22 0 -36.5 -14.5t-14.5 -36.5z" />
    <glyph glyph-name="AE" unicode="&#xc6;" horiz-adv-x="922" 
d="M395 0l23 126h-208l-98 -126h-190l550 688h477l-24 -136h-259l-27 -137h220l-24 -131h-220l-28 -148h266l-25 -136h-433zM485 483l-180 -233h137z" />
    <glyph glyph-name="Ccedilla" unicode="&#xc7;" horiz-adv-x="622" 
d="M51 274q0 187 111.5 306.5t283.5 119.5q105 0 207 -59l-27 -141q-86 60 -169 60q-104 0 -169.5 -74.5t-65.5 -192.5q0 -75 44.5 -120t119.5 -45q85 0 179 53l-26 -150q-82 -39 -176 -42l-13 -28q51 -22 51 -76q0 -50 -41 -83t-104 -33q-44 0 -94 24l17 87q33 -22 61 -22
q19 0 31 9.5t12 24.5t-11.5 24.5t-30.5 9.5h-4l31 70q-98 22 -157.5 97.5t-59.5 180.5z" />
    <glyph glyph-name="Egrave" unicode="&#xc8;" 
d="M35 0l129 688h426l-25 -136h-259l-25 -137h218l-23 -131h-220l-28 -148h266l-25 -136h-434zM348 735l-101 172h134l83 -172h-116z" />
    <glyph glyph-name="Eacute" unicode="&#xc9;" 
d="M35 0l129 688h426l-25 -136h-259l-25 -137h218l-23 -131h-220l-28 -148h266l-25 -136h-434zM294 735l145 172h154l-163 -172h-136z" />
    <glyph glyph-name="Ecircumflex" unicode="&#xca;" 
d="M35 0l129 688h426l-25 -136h-259l-25 -137h218l-23 -131h-220l-28 -148h266l-25 -136h-434zM192 735l145 172h145l84 -172h-113l-52 88l-84 -88h-125z" />
    <glyph glyph-name="Edieresis" unicode="&#xcb;" 
d="M35 0l129 688h426l-25 -136h-259l-25 -137h218l-23 -131h-220l-28 -148h266l-25 -136h-434zM204 812q0 40 27 67.5t67 27.5q34 0 55.5 -21t21.5 -55q0 -41 -27.5 -68t-67.5 -27q-33 0 -54.5 21.5t-21.5 54.5zM423 812q0 41 27 68t67 27q33 0 54.5 -21t21.5 -55
q0 -41 -27 -68t-67 -27q-34 0 -55 21.5t-21 54.5z" />
    <glyph glyph-name="Igrave" unicode="&#xcc;" horiz-adv-x="331" 
d="M35 0l129 688h167l-129 -688h-167zM221 735l-101 172h134l83 -172h-116z" />
    <glyph glyph-name="Iacute" unicode="&#xcd;" horiz-adv-x="331" 
d="M35 0l129 688h167l-129 -688h-167zM167 735l145 172h154l-163 -172h-136z" />
    <glyph glyph-name="Icircumflex" unicode="&#xce;" horiz-adv-x="331" 
d="M35 0l129 688h167l-129 -688h-167zM65 735l145 172h145l84 -172h-113l-52 88l-84 -88h-125z" />
    <glyph glyph-name="Idieresis" unicode="&#xcf;" horiz-adv-x="331" 
d="M35 0l129 688h167l-129 -688h-167zM77 812q0 40 27 67.5t67 27.5q34 0 55.5 -21t21.5 -55q0 -41 -27 -68t-68 -27q-33 0 -54.5 21.5t-21.5 54.5zM296 812q0 41 27 68t67 27q33 0 54.5 -21t21.5 -55q0 -41 -27 -68t-67 -27q-34 0 -55 21.5t-21 54.5z" />
    <glyph glyph-name="Eth" unicode="&#xd0;" horiz-adv-x="734" 
d="M24 295l20 110h83l53 283h249q129 0 209 -76t80 -196q0 -188 -108 -302t-286 -114h-273l55 295h-82zM321 552l-27 -147h125l-20 -110h-126l-30 -159h92q92 0 152.5 76t60.5 191q0 69 -39 109t-107 40h-81z" />
    <glyph glyph-name="Ntilde" unicode="&#xd1;" horiz-adv-x="750" 
d="M35 0l129 688h136l215 -428l79 428h156l-129 -688h-136l-215 428l-79 -428h-156zM282 756q9 64 46.5 104t89.5 40q27 0 52 -14t44 -27.5t31 -13.5q17 0 28.5 12t14.5 31h93q-9 -65 -46.5 -104.5t-89.5 -39.5q-35 0 -75 27.5t-52 27.5q-36 0 -43 -43h-93z" />
    <glyph glyph-name="Ograve" unicode="&#xd2;" horiz-adv-x="750" 
d="M51 272q0 189 110.5 308.5t284.5 119.5q128 0 208 -78.5t80 -205.5q0 -189 -110.5 -308.5t-283.5 -119.5q-129 0 -209 79t-80 205zM222 285q0 -71 36.5 -114t97.5 -43q85 0 146.5 80t61.5 195q0 71 -37 114t-97 43q-86 0 -147 -80t-61 -195zM430 735l-101 172h134
l83 -172h-116z" />
    <glyph glyph-name="Oacute" unicode="&#xd3;" horiz-adv-x="750" 
d="M51 272q0 189 110.5 308.5t284.5 119.5q128 0 208 -78.5t80 -205.5q0 -189 -110.5 -308.5t-283.5 -119.5q-129 0 -209 79t-80 205zM222 285q0 -71 36.5 -114t97.5 -43q85 0 146.5 80t61.5 195q0 71 -37 114t-97 43q-86 0 -147 -80t-61 -195zM376 735l145 172h154
l-163 -172h-136z" />
    <glyph glyph-name="Ocircumflex" unicode="&#xd4;" horiz-adv-x="750" 
d="M51 272q0 189 110.5 308.5t284.5 119.5q128 0 208 -78.5t80 -205.5q0 -189 -110.5 -308.5t-283.5 -119.5q-129 0 -209 79t-80 205zM222 285q0 -71 36.5 -114t97.5 -43q85 0 146.5 80t61.5 195q0 71 -37 114t-97 43q-86 0 -147 -80t-61 -195zM274 735l145 172h145l84 -172
h-113l-52 88l-84 -88h-125z" />
    <glyph glyph-name="Otilde" unicode="&#xd5;" horiz-adv-x="750" 
d="M51 272q0 189 110.5 308.5t284.5 119.5q128 0 208 -78.5t80 -205.5q0 -189 -110.5 -308.5t-283.5 -119.5q-129 0 -209 79t-80 205zM222 285q0 -71 36.5 -114t97.5 -43q85 0 146.5 80t61.5 195q0 71 -37 114t-97 43q-86 0 -147 -80t-61 -195zM282 756q9 64 46.5 104
t89.5 40q27 0 52 -14t44 -27.5t31 -13.5q17 0 28.5 12t14.5 31h93q-9 -65 -46.5 -104.5t-89.5 -39.5q-35 0 -75 27.5t-52 27.5q-36 0 -43 -43h-93z" />
    <glyph glyph-name="Odieresis" unicode="&#xd6;" horiz-adv-x="750" 
d="M51 272q0 189 110.5 308.5t284.5 119.5q128 0 208 -78.5t80 -205.5q0 -189 -110.5 -308.5t-283.5 -119.5q-129 0 -209 79t-80 205zM222 285q0 -71 36.5 -114t97.5 -43q85 0 146.5 80t61.5 195q0 71 -37 114t-97 43q-86 0 -147 -80t-61 -195zM286 812q0 40 27 67.5
t67 27.5q34 0 55.5 -21t21.5 -55q0 -41 -27.5 -68t-67.5 -27q-33 0 -54.5 21.5t-21.5 54.5zM505 812q0 41 27 68t67 27q33 0 54.5 -21t21.5 -55q0 -41 -27 -68t-67 -27q-34 0 -55 21.5t-21 54.5z" />
    <glyph glyph-name="multiply" unicode="&#xd7;" 
d="M138 33l-99 99l150 150l-150 149l99 99l150 -150l149 150l99 -99l-150 -149l150 -150l-99 -99l-149 150z" />
    <glyph glyph-name="Oslash" unicode="&#xd8;" horiz-adv-x="750" 
d="M51 272q0 189 110.5 308.5t284.5 119.5q96 0 170 -47l33 35h128l-94 -100q51 -71 51 -172q0 -189 -110.5 -308.5t-283.5 -119.5q-99 0 -170 48l-34 -36h-128l94 101q-51 71 -51 171zM564 403q0 26 -6 50l-279 -301q32 -24 77 -24q85 0 146.5 80t61.5 195zM222 285
q0 -24 5 -49l280 300q-34 24 -77 24q-86 0 -147 -80t-61 -195z" />
    <glyph glyph-name="Ugrave" unicode="&#xd9;" horiz-adv-x="750" 
d="M753 688l-82 -446q-22 -117 -111 -185.5t-220 -68.5q-115 0 -188.5 63.5t-73.5 163.5q0 30 6 63l76 410h167l-76 -410q-4 -19 -4 -40q0 -49 29.5 -79.5t79.5 -30.5q57 0 98.5 36.5t52.5 97.5l80 426h166zM430 735l-101 172h134l83 -172h-116z" />
    <glyph glyph-name="Uacute" unicode="&#xda;" horiz-adv-x="750" 
d="M753 688l-82 -446q-22 -117 -111 -185.5t-220 -68.5q-115 0 -188.5 63.5t-73.5 163.5q0 30 6 63l76 410h167l-76 -410q-4 -19 -4 -40q0 -49 29.5 -79.5t79.5 -30.5q57 0 98.5 36.5t52.5 97.5l80 426h166zM376 735l145 172h154l-163 -172h-136z" />
    <glyph glyph-name="Ucircumflex" unicode="&#xdb;" horiz-adv-x="750" 
d="M753 688l-82 -446q-22 -117 -111 -185.5t-220 -68.5q-115 0 -188.5 63.5t-73.5 163.5q0 30 6 63l76 410h167l-76 -410q-4 -19 -4 -40q0 -49 29.5 -79.5t79.5 -30.5q57 0 98.5 36.5t52.5 97.5l80 426h166zM274 735l145 172h145l84 -172h-113l-52 88l-84 -88h-125z" />
    <glyph glyph-name="Udieresis" unicode="&#xdc;" horiz-adv-x="750" 
d="M753 688l-82 -446q-22 -117 -111 -185.5t-220 -68.5q-115 0 -188.5 63.5t-73.5 163.5q0 30 6 63l76 410h167l-76 -410q-4 -19 -4 -40q0 -49 29.5 -79.5t79.5 -30.5q57 0 98.5 36.5t52.5 97.5l80 426h166zM286 812q0 40 27 67.5t67 27.5q34 0 55.5 -21t21.5 -55
q0 -41 -27.5 -68t-67.5 -27q-33 0 -54.5 21.5t-21.5 54.5zM505 812q0 41 27 68t67 27q33 0 54.5 -21t21.5 -55q0 -41 -27 -68t-67 -27q-34 0 -55 21.5t-21 54.5z" />
    <glyph glyph-name="Yacute" unicode="&#xdd;" horiz-adv-x="625" 
d="M176 0l54 287l-158 401h175l86 -259l182 259h198l-319 -416l-51 -272h-167zM308 735l145 172h154l-163 -172h-136z" />
    <glyph glyph-name="Thorn" unicode="&#xde;" horiz-adv-x="617" 
d="M35 0l129 688h163l-21 -111h83q98 0 156.5 -53.5t58.5 -142.5q0 -108 -85 -183t-209 -75h-89l-23 -123h-163zM282 445l-36 -190h68q54 0 88.5 31.5t34.5 79.5q0 37 -24 58t-66 21h-65z" />
    <glyph glyph-name="germandbls" unicode="&#xdf;" horiz-adv-x="687" 
d="M264 29l24 134q71 -47 141 -47q52 0 52 40q0 13 -16 26t-38.5 27t-44.5 32t-38 48t-16 67q0 34 14.5 63.5t32.5 46.5t32.5 38t14.5 41q0 23 -18.5 38.5t-45.5 15.5q-29 0 -51.5 -18.5t-27.5 -47.5l-127 -674h-163l128 682q16 87 82.5 138.5t160.5 51.5q100 0 163 -47.5
t63 -123.5q0 -37 -15 -68t-32.5 -48t-32.5 -36.5t-15 -36.5t16 -32t38.5 -29.5t44.5 -32.5t38 -47t16 -66q0 -80 -58 -128t-157 -48q-81 0 -165 41z" />
    <glyph glyph-name="agrave" unicode="&#xe0;" horiz-adv-x="586" 
d="M570 500l-94 -500h-155l6 27q-59 -39 -120 -39q-79 0 -129.5 58.5t-50.5 149.5q0 134 74 225t182 91q63 0 119 -39l6 27h162zM195 215q0 -42 19 -64.5t54 -22.5q38 0 76 35l34 182q-32 27 -69 27q-50 0 -82 -44.5t-32 -112.5zM313 547l-101 172h134l83 -172h-116z" />
    <glyph glyph-name="aacute" unicode="&#xe1;" horiz-adv-x="586" 
d="M570 500l-94 -500h-155l6 27q-59 -39 -120 -39q-79 0 -129.5 58.5t-50.5 149.5q0 134 74 225t182 91q63 0 119 -39l6 27h162zM195 215q0 -42 19 -64.5t54 -22.5q38 0 76 35l34 182q-32 27 -69 27q-50 0 -82 -44.5t-32 -112.5zM259 547l145 172h154l-163 -172h-136z" />
    <glyph glyph-name="acircumflex" unicode="&#xe2;" horiz-adv-x="586" 
d="M570 500l-94 -500h-155l6 27q-59 -39 -120 -39q-79 0 -129.5 58.5t-50.5 149.5q0 134 74 225t182 91q63 0 119 -39l6 27h162zM195 215q0 -42 19 -64.5t54 -22.5q38 0 76 35l34 182q-32 27 -69 27q-50 0 -82 -44.5t-32 -112.5zM157 547l145 172h145l84 -172h-113l-52 88
l-84 -88h-125z" />
    <glyph glyph-name="atilde" unicode="&#xe3;" horiz-adv-x="586" 
d="M570 500l-94 -500h-155l6 27q-59 -39 -120 -39q-79 0 -129.5 58.5t-50.5 149.5q0 134 74 225t182 91q63 0 119 -39l6 27h162zM195 215q0 -42 19 -64.5t54 -22.5q38 0 76 35l34 182q-32 27 -69 27q-50 0 -82 -44.5t-32 -112.5zM165 568q9 64 46.5 104t89.5 40
q35 0 75 -27.5t52 -27.5q17 0 28.5 12t14.5 31h93q-9 -65 -46.5 -104.5t-89.5 -39.5q-27 0 -52 14t-44 27.5t-31 13.5q-36 0 -43 -43h-93z" />
    <glyph glyph-name="adieresis" unicode="&#xe4;" horiz-adv-x="586" 
d="M570 500l-94 -500h-155l6 27q-59 -39 -120 -39q-79 0 -129.5 58.5t-50.5 149.5q0 134 74 225t182 91q63 0 119 -39l6 27h162zM195 215q0 -42 19 -64.5t54 -22.5q38 0 76 35l34 182q-32 27 -69 27q-50 0 -82 -44.5t-32 -112.5zM169 624q0 40 27 67.5t67 27.5
q34 0 55.5 -21t21.5 -55q0 -41 -27 -68t-68 -27q-33 0 -54.5 21.5t-21.5 54.5zM388 624q0 41 27 68t67 27q33 0 54.5 -21t21.5 -55q0 -41 -27 -68t-67 -27q-34 0 -55 21.5t-21 54.5z" />
    <glyph glyph-name="aring" unicode="&#xe5;" horiz-adv-x="586" 
d="M570 500l-94 -500h-155l6 27q-59 -39 -120 -39q-79 0 -129.5 58.5t-50.5 149.5q0 134 74 225t182 91q63 0 119 -39l6 27h162zM195 215q0 -42 19 -64.5t54 -22.5q38 0 76 35l34 182q-32 27 -69 27q-50 0 -82 -44.5t-32 -112.5zM250 622q0 53 36 89t89 36q45 0 73.5 -28.5
t28.5 -73.5q0 -53 -36 -88.5t-89 -35.5q-45 0 -73.5 28t-28.5 73zM317 629q0 -19 11.5 -30.5t30.5 -11.5q22 0 36.5 14.5t14.5 36.5q0 19 -11.5 30.5t-30.5 11.5q-22 0 -36.5 -14.5t-14.5 -36.5z" />
    <glyph glyph-name="ae" unicode="&#xe6;" horiz-adv-x="813" 
d="M330 317l2 8q1 4 1 11q0 24 -19.5 38t-51.5 14q-79 0 -170 -43l25 132q92 35 180 35q83 0 141 -50q65 50 156 50q88 0 144 -55.5t56 -143.5q0 -51 -16 -109h-314v-4q0 -41 31 -64.5t84 -23.5q69 0 154 45l-25 -134q-88 -35 -176 -35q-92 0 -164 67q-94 -67 -196 -67
q-68 0 -114 39.5t-46 97.5q0 88 71 142t187 54q20 0 60 -4zM171 157q0 -21 15 -34t40 -13q48 0 92 41q-6 22 -6 48q0 18 2 25q-22 3 -44 3q-43 0 -71 -20t-28 -50zM482 305h163q1 6 1 18q0 30 -17 47.5t-46 17.5q-35 0 -63 -22.5t-38 -60.5z" />
    <glyph glyph-name="ccedilla" unicode="&#xe7;" horiz-adv-x="485" 
d="M27 203q0 135 85 222t216 87q79 0 159 -43l-26 -136q-61 43 -121 43q-65 0 -105 -42.5t-40 -110.5q0 -45 27.5 -72t73.5 -27q62 0 132 37l-25 -141q-56 -25 -120 -30l-13 -29q51 -22 51 -76q0 -50 -41 -83t-104 -33q-46 0 -94 24l17 87q33 -22 61 -22q19 0 31 9.5
t12 24.5t-12 24.5t-31 9.5h-4l32 70q-73 18 -117 74t-44 133z" />
    <glyph glyph-name="egrave" unicode="&#xe8;" horiz-adv-x="531" 
d="M27 199q0 136 81 224.5t205 88.5q88 0 143 -55.5t55 -143.5q0 -55 -15 -109h-313v-4q0 -41 30 -64.5t83 -23.5q69 0 154 45l-25 -134q-85 -35 -175 -35q-97 0 -160 59.5t-63 151.5zM201 305h162q2 12 2 18q0 30 -17.5 47.5t-46.5 17.5q-35 0 -62.5 -22.5t-37.5 -60.5z
M305 547l-101 172h134l83 -172h-116z" />
    <glyph glyph-name="eacute" unicode="&#xe9;" horiz-adv-x="531" 
d="M27 199q0 136 81 224.5t205 88.5q88 0 143 -55.5t55 -143.5q0 -55 -15 -109h-313v-4q0 -41 30 -64.5t83 -23.5q69 0 154 45l-25 -134q-85 -35 -175 -35q-97 0 -160 59.5t-63 151.5zM201 305h162q2 12 2 18q0 30 -17.5 47.5t-46.5 17.5q-35 0 -62.5 -22.5t-37.5 -60.5z
M251 547l145 172h154l-163 -172h-136z" />
    <glyph glyph-name="ecircumflex" unicode="&#xea;" horiz-adv-x="531" 
d="M27 199q0 136 81 224.5t205 88.5q88 0 143 -55.5t55 -143.5q0 -55 -15 -109h-313v-4q0 -41 30 -64.5t83 -23.5q69 0 154 45l-25 -134q-85 -35 -175 -35q-97 0 -160 59.5t-63 151.5zM201 305h162q2 12 2 18q0 30 -17.5 47.5t-46.5 17.5q-35 0 -62.5 -22.5t-37.5 -60.5z
M149 547l145 172h145l84 -172h-113l-52 88l-84 -88h-125z" />
    <glyph glyph-name="edieresis" unicode="&#xeb;" horiz-adv-x="531" 
d="M27 199q0 136 81 224.5t205 88.5q88 0 143 -55.5t55 -143.5q0 -55 -15 -109h-313v-4q0 -41 30 -64.5t83 -23.5q69 0 154 45l-25 -134q-85 -35 -175 -35q-97 0 -160 59.5t-63 151.5zM201 305h162q2 12 2 18q0 30 -17.5 47.5t-46.5 17.5q-35 0 -62.5 -22.5t-37.5 -60.5z
M161 624q0 40 27 67.5t67 27.5q34 0 55.5 -21t21.5 -55q0 -41 -27 -68t-68 -27q-33 0 -54.5 21.5t-21.5 54.5zM380 624q0 41 27 68t67 27q33 0 54.5 -21t21.5 -55q0 -41 -27 -68t-67 -27q-34 0 -55 21.5t-21 54.5z" />
    <glyph glyph-name="igrave" unicode="&#xec;" horiz-adv-x="288" 
d="M16 0l93 500h164l-94 -500h-163zM165 547l-101 172h134l83 -172h-116z" />
    <glyph glyph-name="iacute" unicode="&#xed;" horiz-adv-x="288" 
d="M16 0l93 500h164l-94 -500h-163zM111 547l145 172h154l-163 -172h-136z" />
    <glyph glyph-name="icircumflex" unicode="&#xee;" horiz-adv-x="288" 
d="M16 0l93 500h164l-94 -500h-163zM9 547l145 172h145l84 -172h-113l-52 88l-84 -88h-125z" />
    <glyph glyph-name="idieresis" unicode="&#xef;" horiz-adv-x="288" 
d="M16 0l93 500h164l-94 -500h-163zM21 624q0 40 27 67.5t67 27.5q34 0 55.5 -21t21.5 -55q0 -41 -27 -68t-68 -27q-33 0 -54.5 21.5t-21.5 54.5zM240 624q0 41 27 68t67 27q33 0 54.5 -21t21.5 -55q0 -41 -27 -68t-67 -27q-34 0 -55 21.5t-21 54.5z" />
    <glyph glyph-name="eth" unicode="&#xf0;" horiz-adv-x="586" 
d="M27 203q0 135 76.5 222t193.5 87q41 0 75 -19q-9 35 -34 78l-145 -41l21 108l60 17q-33 35 -74 64h194q9 -7 24 -22l115 33l-20 -108l-27 -9q76 -119 76 -257q0 -158 -90 -263t-226 -105q-94 0 -156.5 61t-62.5 154zM195 215q0 -40 20.5 -65.5t52.5 -25.5q56 0 90 56
t34 125q0 27 -2 44q-34 27 -75 27q-54 0 -87 -47.5t-33 -113.5z" />
    <glyph glyph-name="ntilde" unicode="&#xf1;" horiz-adv-x="586" 
d="M16 0l93 500h156l-7 -39q68 51 140 51q63 0 104 -42t41 -106q0 -29 -6 -59l-57 -305h-162l54 293q3 12 3 25q0 23 -14.5 37t-37.5 14q-40 0 -83 -40l-61 -329h-163zM167 568q9 64 46.5 104t89.5 40q35 0 75 -27.5t52 -27.5q17 0 28.5 12t14.5 31h93q-9 -65 -46.5 -104.5
t-89.5 -39.5q-27 0 -52 14t-44 27.5t-31 13.5q-36 0 -43 -43h-93z" />
    <glyph glyph-name="ograve" unicode="&#xf2;" horiz-adv-x="586" 
d="M27 203q0 135 86 222t219 87q98 0 162 -60.5t64 -154.5q0 -135 -85.5 -222t-218.5 -87q-99 0 -163 60.5t-64 154.5zM195 215q0 -41 21 -66t57 -25q51 0 85 45.5t34 115.5q0 41 -22 66t-57 25q-51 0 -84.5 -45t-33.5 -116zM313 547l-101 172h134l83 -172h-116z" />
    <glyph glyph-name="oacute" unicode="&#xf3;" horiz-adv-x="586" 
d="M27 203q0 135 86 222t219 87q98 0 162 -60.5t64 -154.5q0 -135 -85.5 -222t-218.5 -87q-99 0 -163 60.5t-64 154.5zM195 215q0 -41 21 -66t57 -25q51 0 85 45.5t34 115.5q0 41 -22 66t-57 25q-51 0 -84.5 -45t-33.5 -116zM259 547l145 172h154l-163 -172h-136z" />
    <glyph glyph-name="ocircumflex" unicode="&#xf4;" horiz-adv-x="586" 
d="M27 203q0 135 86 222t219 87q98 0 162 -60.5t64 -154.5q0 -135 -85.5 -222t-218.5 -87q-99 0 -163 60.5t-64 154.5zM195 215q0 -41 21 -66t57 -25q51 0 85 45.5t34 115.5q0 41 -22 66t-57 25q-51 0 -84.5 -45t-33.5 -116zM157 547l145 172h145l84 -172h-113l-52 88
l-84 -88h-125z" />
    <glyph glyph-name="otilde" unicode="&#xf5;" horiz-adv-x="586" 
d="M27 203q0 135 86 222t219 87q98 0 162 -60.5t64 -154.5q0 -135 -85.5 -222t-218.5 -87q-99 0 -163 60.5t-64 154.5zM195 215q0 -41 21 -66t57 -25q51 0 85 45.5t34 115.5q0 41 -22 66t-57 25q-51 0 -84.5 -45t-33.5 -116zM165 568q9 64 46.5 104t89.5 40q35 0 75 -27.5
t52 -27.5q17 0 28.5 12t14.5 31h93q-9 -65 -46.5 -104.5t-89.5 -39.5q-27 0 -52 14t-44 27.5t-31 13.5q-36 0 -43 -43h-93z" />
    <glyph glyph-name="odieresis" unicode="&#xf6;" horiz-adv-x="586" 
d="M27 203q0 135 86 222t219 87q98 0 162 -60.5t64 -154.5q0 -135 -85.5 -222t-218.5 -87q-99 0 -163 60.5t-64 154.5zM195 215q0 -41 21 -66t57 -25q51 0 85 45.5t34 115.5q0 41 -22 66t-57 25q-51 0 -84.5 -45t-33.5 -116zM169 624q0 40 27 67.5t67 27.5q34 0 55.5 -21
t21.5 -55q0 -41 -27 -68t-68 -27q-33 0 -54.5 21.5t-21.5 54.5zM388 624q0 41 27 68t67 27q33 0 54.5 -21t21.5 -55q0 -41 -27 -68t-67 -27q-34 0 -55 21.5t-21 54.5z" />
    <glyph glyph-name="divide" unicode="&#xf7;" 
d="M203 94q0 38 23.5 61.5t61.5 23.5t61.5 -23.5t23.5 -61.5t-23.5 -61.5t-61.5 -23.5t-61.5 23.5t-23.5 61.5zM37 212v139h501v-139h-501zM203 469q0 38 23.5 61.5t61.5 23.5t61.5 -23.5t23.5 -61.5q0 -37 -23.5 -61t-61.5 -24t-61.5 23.5t-23.5 61.5z" />
    <glyph glyph-name="oslash" unicode="&#xf8;" horiz-adv-x="586" 
d="M27 196q0 137 86.5 226.5t218.5 89.5q73 0 127 -31l19 19h96l-60 -65q44 -53 44 -130q0 -137 -86.5 -227t-217.5 -90q-71 0 -127 32l-19 -20h-97l61 65q-45 55 -45 131zM400 289q0 12 -3 21l-167 -180q20 -10 43 -10q49 0 88 50.5t39 118.5zM187 211q0 -15 1 -21l169 181
q-20 9 -44 9q-49 0 -87.5 -50t-38.5 -119z" />
    <glyph glyph-name="ugrave" unicode="&#xf9;" horiz-adv-x="586" 
d="M570 500l-94 -500h-155l8 39q-71 -51 -141 -51q-64 0 -105 42t-41 107q0 29 6 59l58 304h163l-55 -293q-2 -16 -2 -24q0 -24 13.5 -37.5t37.5 -13.5q41 0 82 39l63 329h162zM311 547l-101 172h134l83 -172h-116z" />
    <glyph glyph-name="uacute" unicode="&#xfa;" horiz-adv-x="586" 
d="M570 500l-94 -500h-155l8 39q-71 -51 -141 -51q-64 0 -105 42t-41 107q0 29 6 59l58 304h163l-55 -293q-2 -16 -2 -24q0 -24 13.5 -37.5t37.5 -13.5q41 0 82 39l63 329h162zM257 547l145 172h154l-163 -172h-136z" />
    <glyph glyph-name="ucircumflex" unicode="&#xfb;" horiz-adv-x="586" 
d="M570 500l-94 -500h-155l8 39q-71 -51 -141 -51q-64 0 -105 42t-41 107q0 29 6 59l58 304h163l-55 -293q-2 -16 -2 -24q0 -24 13.5 -37.5t37.5 -13.5q41 0 82 39l63 329h162zM155 547l145 172h145l84 -172h-113l-52 88l-84 -88h-125z" />
    <glyph glyph-name="udieresis" unicode="&#xfc;" horiz-adv-x="586" 
d="M570 500l-94 -500h-155l8 39q-71 -51 -141 -51q-64 0 -105 42t-41 107q0 29 6 59l58 304h163l-55 -293q-2 -16 -2 -24q0 -24 13.5 -37.5t37.5 -13.5q41 0 82 39l63 329h162zM167 624q0 40 27 67.5t67 27.5q34 0 55.5 -21t21.5 -55q0 -41 -27 -68t-68 -27
q-33 0 -54.5 21.5t-21.5 54.5zM386 624q0 41 27 68t67 27q33 0 54.5 -21t21.5 -55q0 -41 -27 -68t-67 -27q-34 0 -55 21.5t-21 54.5z" />
    <glyph glyph-name="yacute" unicode="&#xfd;" horiz-adv-x="515" 
d="M562 500l-407 -719h-166l148 242l-90 477h155l39 -287l147 287h174zM220 547l145 172h154l-163 -172h-136z" />
    <glyph glyph-name="thorn" unicode="&#xfe;" horiz-adv-x="586" 
d="M-25 -219l176 938h163l-45 -240q53 33 109 33q79 0 129.5 -58t50.5 -149q0 -135 -73.5 -226t-182.5 -91q-63 0 -118 39l-46 -246h-163zM392 285q0 42 -19.5 64.5t-53.5 22.5q-40 0 -77 -35l-34 -182q33 -27 69 -27q49 0 82 44.5t33 112.5z" />
    <glyph glyph-name="ydieresis" unicode="&#xff;" horiz-adv-x="515" 
d="M562 500l-407 -719h-166l148 242l-90 477h155l39 -287l147 287h174zM130 624q0 40 27 67.5t67 27.5q34 0 55.5 -21t21.5 -55q0 -41 -27.5 -68t-67.5 -27q-33 0 -54.5 21.5t-21.5 54.5zM349 624q0 41 27 68t67 27q33 0 54.5 -21t21.5 -55q0 -41 -27 -68t-67 -27
q-34 0 -55 21.5t-21 54.5z" />
    <glyph glyph-name="Amacron" unicode="&#x100;" horiz-adv-x="656" 
d="M-47 0l389 688h140l133 -688h-152l-23 142h-241l-75 -142h-171zM385 487l-118 -221h153zM248 768l20 108h359l-20 -108h-359z" />
    <glyph glyph-name="amacron" unicode="&#x101;" horiz-adv-x="586" 
d="M570 500l-94 -500h-155l6 27q-59 -39 -120 -39q-79 0 -129.5 58.5t-50.5 149.5q0 134 74 225t182 91q63 0 119 -39l6 27h162zM195 215q0 -42 19 -64.5t54 -22.5q38 0 76 35l34 182q-32 27 -69 27q-50 0 -82 -44.5t-32 -112.5zM174 580l20 108h359l-20 -108h-359z" />
    <glyph glyph-name="Abreve" unicode="&#x102;" horiz-adv-x="656" 
d="M-47 0l389 688h140l133 -688h-152l-23 142h-241l-75 -142h-171zM385 487l-118 -221h153zM288 907h95q-1 -5 -1 -15q0 -26 18 -42.5t47 -16.5q31 0 53 20.5t27 53.5h99q-11 -85 -61.5 -131.5t-130.5 -46.5q-63 0 -106 40t-43 99q0 20 3 39z" />
    <glyph glyph-name="abreve" unicode="&#x103;" horiz-adv-x="586" 
d="M570 500l-94 -500h-155l6 27q-59 -39 -120 -39q-79 0 -129.5 58.5t-50.5 149.5q0 134 74 225t182 91q63 0 119 -39l6 27h162zM195 215q0 -42 19 -64.5t54 -22.5q38 0 76 35l34 182q-32 27 -69 27q-50 0 -82 -44.5t-32 -112.5zM214 719h95q-1 -5 -1 -15q0 -26 18 -42.5
t47 -16.5q31 0 53 20.5t27 53.5h99q-11 -85 -61.5 -131.5t-130.5 -46.5q-63 0 -106 40t-43 99q0 20 3 39z" />
    <glyph glyph-name="Aogonek" unicode="&#x104;" horiz-adv-x="656" 
d="M503 0h-40l-23 142h-241l-75 -142h-171l389 688h140l133 -688q-94 -49 -94 -97q0 -15 12 -26t28 -11t30 7l-17 -92q-32 -12 -71 -12q-43 0 -72.5 26t-29.5 64q0 92 102 141zM385 487l-118 -221h153z" />
    <glyph glyph-name="aogonek" unicode="&#x105;" horiz-adv-x="586" 
d="M364 0h-43l6 27q-59 -39 -120 -39q-79 0 -129.5 58.5t-50.5 149.5q0 134 74 225t182 91q63 0 119 -39l6 27h162l-94 -500q-94 -49 -94 -97q0 -15 12 -26t28 -11t30 7l-17 -92q-32 -12 -71 -12q-43 0 -72.5 26t-29.5 64q0 92 102 141zM195 215q0 -42 19 -64.5t54 -22.5
q38 0 76 35l34 182q-32 27 -69 27q-50 0 -82 -44.5t-32 -112.5z" />
    <glyph glyph-name="Cacute" unicode="&#x106;" horiz-adv-x="622" 
d="M51 274q0 187 111.5 306.5t283.5 119.5q105 0 207 -59l-27 -141q-86 60 -169 60q-104 0 -169.5 -74.5t-65.5 -192.5q0 -75 44.5 -120t119.5 -45q85 0 179 53l-26 -150q-92 -43 -199 -43q-126 0 -207.5 81t-81.5 205zM359 735l145 172h154l-163 -172h-136z" />
    <glyph glyph-name="cacute" unicode="&#x107;" horiz-adv-x="485" 
d="M27 203q0 135 85 222t216 87q79 0 159 -43l-26 -136q-61 43 -121 43q-65 0 -105 -42.5t-40 -110.5q0 -45 27.5 -72t73.5 -27q62 0 132 37l-25 -141q-74 -32 -153 -32q-97 0 -160 60.5t-63 154.5zM243 547l145 172h154l-163 -172h-136z" />
    <glyph glyph-name="Ccircumflex" unicode="&#x108;" horiz-adv-x="622" 
d="M51 274q0 187 111.5 306.5t283.5 119.5q105 0 207 -59l-27 -141q-86 60 -169 60q-104 0 -169.5 -74.5t-65.5 -192.5q0 -75 44.5 -120t119.5 -45q85 0 179 53l-26 -150q-92 -43 -199 -43q-126 0 -207.5 81t-81.5 205zM257 735l145 172h145l84 -172h-113l-52 88l-84 -88
h-125z" />
    <glyph glyph-name="ccircumflex" unicode="&#x109;" horiz-adv-x="485" 
d="M27 203q0 135 85 222t216 87q79 0 159 -43l-26 -136q-61 43 -121 43q-65 0 -105 -42.5t-40 -110.5q0 -45 27.5 -72t73.5 -27q62 0 132 37l-25 -141q-74 -32 -153 -32q-97 0 -160 60.5t-63 154.5zM141 547l145 172h145l84 -172h-113l-52 88l-84 -88h-125z" />
    <glyph glyph-name="Cdotaccent" unicode="&#x10a;" horiz-adv-x="622" 
d="M51 274q0 187 111.5 306.5t283.5 119.5q105 0 207 -59l-27 -141q-86 60 -169 60q-104 0 -169.5 -74.5t-65.5 -192.5q0 -75 44.5 -120t119.5 -45q85 0 179 53l-26 -150q-92 -43 -199 -43q-126 0 -207.5 81t-81.5 205zM375 812q0 42 28 70t70 28q35 0 57 -22t22 -57
q0 -41 -28 -69.5t-70 -28.5q-35 0 -57 22t-22 57z" />
    <glyph glyph-name="cdotaccent" unicode="&#x10b;" horiz-adv-x="485" 
d="M27 203q0 135 85 222t216 87q79 0 159 -43l-26 -136q-61 43 -121 43q-65 0 -105 -42.5t-40 -110.5q0 -45 27.5 -72t73.5 -27q62 0 132 37l-25 -141q-74 -32 -153 -32q-97 0 -160 60.5t-63 154.5zM259 624q0 42 28 70t70 28q35 0 57 -22t22 -57q0 -41 -28 -69.5t-70 -28.5
q-35 0 -57 22t-22 57z" />
    <glyph glyph-name="Ccaron" unicode="&#x10c;" horiz-adv-x="622" 
d="M51 274q0 187 111.5 306.5t283.5 119.5q105 0 207 -59l-27 -141q-86 60 -169 60q-104 0 -169.5 -74.5t-65.5 -192.5q0 -75 44.5 -120t119.5 -45q85 0 179 53l-26 -150q-92 -43 -199 -43q-126 0 -207.5 81t-81.5 205zM670 907l-145 -172h-145l-84 172h113l52 -88l84 88
h125z" />
    <glyph glyph-name="ccaron" unicode="&#x10d;" horiz-adv-x="485" 
d="M27 203q0 135 85 222t216 87q79 0 159 -43l-26 -136q-61 43 -121 43q-65 0 -105 -42.5t-40 -110.5q0 -45 27.5 -72t73.5 -27q62 0 132 37l-25 -141q-74 -32 -153 -32q-97 0 -160 60.5t-63 154.5zM554 719l-145 -172h-145l-84 172h113l52 -88l84 88h125z" />
    <glyph glyph-name="Dcaron" unicode="&#x10e;" horiz-adv-x="718" 
d="M35 0l129 688h249q130 0 210 -75.5t80 -196.5q0 -188 -108.5 -302t-286.5 -114h-273zM305 552l-77 -416h92q92 0 152.5 76t60.5 191q0 68 -39.5 108.5t-107.5 40.5h-81zM656 907l-145 -172h-145l-84 172h113l52 -88l84 88h125z" />
    <glyph glyph-name="dcaron" unicode="&#x10f;" horiz-adv-x="586" 
d="M611 719l-135 -719h-155l6 27q-59 -39 -120 -39q-79 0 -129.5 58.5t-50.5 149.5q0 134 74 225t182 91q63 0 119 -39l47 246h162zM195 215q0 -42 19 -64.5t54 -22.5q38 0 76 35l34 182q-32 27 -69 27q-50 0 -82 -44.5t-32 -112.5zM594 547l89 172h136l-105 -172h-120z" />
    <glyph glyph-name="Dcroat" unicode="&#x110;" horiz-adv-x="734" 
d="M24 295l20 110h83l53 283h249q129 0 209 -76t80 -196q0 -188 -108 -302t-286 -114h-273l55 295h-82zM321 552l-27 -147h125l-20 -110h-126l-30 -159h92q92 0 152.5 76t60.5 191q0 69 -39 109t-107 40h-81z" />
    <glyph glyph-name="dcroat" unicode="&#x111;" horiz-adv-x="586" 
d="M611 719l-10 -54h62l-20 -109h-63l-104 -556h-155l6 27q-59 -39 -120 -39q-79 0 -129.5 58.5t-50.5 149.5q0 134 74 225t182 91q63 0 119 -39l15 83h-148l20 109h149l11 54h162zM195 215q0 -42 19 -64.5t54 -22.5q38 0 76 35l34 182q-32 27 -69 27q-50 0 -82 -44.5
t-32 -112.5z" />
    <glyph glyph-name="Emacron" unicode="&#x112;" 
d="M35 0l129 688h426l-25 -136h-259l-25 -137h218l-23 -131h-220l-28 -148h266l-25 -136h-434zM209 768l20 108h359l-20 -108h-359z" />
    <glyph glyph-name="emacron" unicode="&#x113;" horiz-adv-x="531" 
d="M27 199q0 136 81 224.5t205 88.5q88 0 143 -55.5t55 -143.5q0 -55 -15 -109h-313v-4q0 -41 30 -64.5t83 -23.5q69 0 154 45l-25 -134q-85 -35 -175 -35q-97 0 -160 59.5t-63 151.5zM201 305h162q2 12 2 18q0 30 -17.5 47.5t-46.5 17.5q-35 0 -62.5 -22.5t-37.5 -60.5z
M158 580l20 108h359l-20 -108h-359z" />
    <glyph glyph-name="Ebreve" unicode="&#x114;" 
d="M35 0l129 688h426l-25 -136h-259l-25 -137h218l-23 -131h-220l-28 -148h266l-25 -136h-434zM249 907h95q-1 -5 -1 -15q0 -26 18 -42.5t47 -16.5q31 0 53 20.5t27 53.5h99q-11 -85 -61.5 -131.5t-130.5 -46.5q-63 0 -106 40t-43 99q0 20 3 39z" />
    <glyph glyph-name="ebreve" unicode="&#x115;" horiz-adv-x="531" 
d="M27 199q0 136 81 224.5t205 88.5q88 0 143 -55.5t55 -143.5q0 -55 -15 -109h-313v-4q0 -41 30 -64.5t83 -23.5q69 0 154 45l-25 -134q-85 -35 -175 -35q-97 0 -160 59.5t-63 151.5zM201 305h162q2 12 2 18q0 30 -17.5 47.5t-46.5 17.5q-35 0 -62.5 -22.5t-37.5 -60.5z
M198 719h95q-1 -5 -1 -15q0 -26 18 -42.5t47 -16.5q31 0 53 20.5t27 53.5h99q-11 -85 -61.5 -131.5t-130.5 -46.5q-63 0 -106 40t-43 99q0 20 3 39z" />
    <glyph glyph-name="Edotaccent" unicode="&#x116;" 
d="M35 0l129 688h426l-25 -136h-259l-25 -137h218l-23 -131h-220l-28 -148h266l-25 -136h-434zM310 812q0 42 28 70t70 28q35 0 57 -22t22 -57q0 -41 -28 -69.5t-70 -28.5q-35 0 -57 22t-22 57z" />
    <glyph glyph-name="edotaccent" unicode="&#x117;" horiz-adv-x="531" 
d="M27 199q0 136 81 224.5t205 88.5q88 0 143 -55.5t55 -143.5q0 -55 -15 -109h-313v-4q0 -41 30 -64.5t83 -23.5q69 0 154 45l-25 -134q-85 -35 -175 -35q-97 0 -160 59.5t-63 151.5zM201 305h162q2 12 2 18q0 30 -17.5 47.5t-46.5 17.5q-35 0 -62.5 -22.5t-37.5 -60.5z
M259 624q0 42 28 70t70 28q35 0 57 -22t22 -57q0 -41 -28 -69.5t-70 -28.5q-35 0 -57 22t-22 57z" />
    <glyph glyph-name="Eogonek" unicode="&#x118;" 
d="M35 0l129 688h426l-25 -136h-259l-25 -137h218l-23 -131h-220l-28 -148h266l-25 -136q-94 -49 -94 -97q0 -15 12 -26t28 -11t30 7l-17 -92q-32 -12 -71 -12q-43 0 -72.5 26t-29.5 64q0 92 102 141h-322z" />
    <glyph glyph-name="eogonek" unicode="&#x119;" horiz-adv-x="531" 
d="M27 199q0 136 81 224.5t205 88.5q88 0 143 -55.5t55 -143.5q0 -55 -15 -109h-313v-4q0 -41 30 -64.5t83 -23.5q69 0 154 45l-25 -134q-98 -49 -98 -116q0 -17 11.5 -29t27.5 -12q17 0 31 7l-17 -92q-32 -12 -72 -12q-42 0 -71.5 27t-29.5 67q0 82 82 128q-21 -3 -39 -3
q-97 0 -160 59.5t-63 151.5zM201 305h162q2 12 2 18q0 30 -17.5 47.5t-46.5 17.5q-35 0 -62.5 -22.5t-37.5 -60.5z" />
    <glyph glyph-name="Ecaron" unicode="&#x11a;" 
d="M35 0l129 688h426l-25 -136h-259l-25 -137h218l-23 -131h-220l-28 -148h266l-25 -136h-434zM605 907l-145 -172h-145l-84 172h113l52 -88l84 88h125z" />
    <glyph glyph-name="ecaron" unicode="&#x11b;" horiz-adv-x="531" 
d="M27 199q0 136 81 224.5t205 88.5q88 0 143 -55.5t55 -143.5q0 -55 -15 -109h-313v-4q0 -41 30 -64.5t83 -23.5q69 0 154 45l-25 -134q-85 -35 -175 -35q-97 0 -160 59.5t-63 151.5zM201 305h162q2 12 2 18q0 30 -17.5 47.5t-46.5 17.5q-35 0 -62.5 -22.5t-37.5 -60.5z
M554 719l-145 -172h-145l-84 172h113l52 -88l84 88h125z" />
    <glyph glyph-name="Gcircumflex" unicode="&#x11c;" horiz-adv-x="699" 
d="M662 382l-65 -347q-127 -47 -243 -47q-133 0 -218 81t-85 205q0 188 113.5 307t291.5 119q113 0 223 -67l-26 -143q-94 70 -190 70q-107 0 -176 -74.5t-69 -192.5q0 -73 45 -119t117 -46q40 0 81 12l24 119h-127l24 123h280zM280 735l145 172h145l84 -172h-113l-52 88
l-84 -88h-125z" />
    <glyph glyph-name="gcircumflex" unicode="&#x11d;" horiz-adv-x="586" 
d="M570 500l-94 -500q-19 -106 -96.5 -168.5t-187.5 -62.5q-102 0 -196 51l26 132q84 -55 168 -55q45 0 79.5 26.5t42.5 68.5l6 30q-54 -34 -111 -34q-79 0 -129.5 58.5t-50.5 149.5q0 134 74 225t182 91q63 0 119 -39l6 27h162zM195 215q0 -42 19 -64.5t54 -22.5
q38 0 76 35l34 182q-32 27 -69 27q-50 0 -82 -44.5t-32 -112.5zM157 547l145 172h145l84 -172h-113l-52 88l-84 -88h-125z" />
    <glyph glyph-name="Gbreve" unicode="&#x11e;" horiz-adv-x="699" 
d="M662 382l-65 -347q-127 -47 -243 -47q-133 0 -218 81t-85 205q0 188 113.5 307t291.5 119q113 0 223 -67l-26 -143q-94 70 -190 70q-107 0 -176 -74.5t-69 -192.5q0 -73 45 -119t117 -46q40 0 81 12l24 119h-127l24 123h280zM337 907h95q-1 -5 -1 -15q0 -26 18 -42.5
t47 -16.5q31 0 53 20.5t27 53.5h99q-11 -85 -61.5 -131.5t-130.5 -46.5q-63 0 -106 40t-43 99q0 20 3 39z" />
    <glyph glyph-name="gbreve" unicode="&#x11f;" horiz-adv-x="586" 
d="M570 500l-94 -500q-19 -106 -96.5 -168.5t-187.5 -62.5q-102 0 -196 51l26 132q84 -55 168 -55q45 0 79.5 26.5t42.5 68.5l6 30q-54 -34 -111 -34q-79 0 -129.5 58.5t-50.5 149.5q0 134 74 225t182 91q63 0 119 -39l6 27h162zM195 215q0 -42 19 -64.5t54 -22.5
q38 0 76 35l34 182q-32 27 -69 27q-50 0 -82 -44.5t-32 -112.5zM214 719h95q-1 -5 -1 -15q0 -26 18 -42.5t47 -16.5q31 0 53 20.5t27 53.5h99q-11 -85 -61.5 -131.5t-130.5 -46.5q-63 0 -106 40t-43 99q0 20 3 39z" />
    <glyph glyph-name="Gdotaccent" unicode="&#x120;" horiz-adv-x="699" 
d="M662 382l-65 -347q-127 -47 -243 -47q-133 0 -218 81t-85 205q0 188 113.5 307t291.5 119q113 0 223 -67l-26 -143q-94 70 -190 70q-107 0 -176 -74.5t-69 -192.5q0 -73 45 -119t117 -46q40 0 81 12l24 119h-127l24 123h280zM398 812q0 42 28 70t70 28q35 0 57 -22
t22 -57q0 -41 -28 -69.5t-70 -28.5q-35 0 -57 22t-22 57z" />
    <glyph glyph-name="gdotaccent" unicode="&#x121;" horiz-adv-x="586" 
d="M570 500l-94 -500q-19 -106 -96.5 -168.5t-187.5 -62.5q-102 0 -196 51l26 132q84 -55 168 -55q45 0 79.5 26.5t42.5 68.5l6 30q-54 -34 -111 -34q-79 0 -129.5 58.5t-50.5 149.5q0 134 74 225t182 91q63 0 119 -39l6 27h162zM195 215q0 -42 19 -64.5t54 -22.5
q38 0 76 35l34 182q-32 27 -69 27q-50 0 -82 -44.5t-32 -112.5zM275 624q0 42 28 70t70 28q35 0 57 -22t22 -57q0 -41 -28 -69.5t-70 -28.5q-35 0 -57 22t-22 57z" />
    <glyph glyph-name="Gcommaaccent" unicode="&#x122;" horiz-adv-x="699" 
d="M662 382l-65 -347q-127 -47 -243 -47q-133 0 -218 81t-85 205q0 188 113.5 307t291.5 119q113 0 223 -67l-26 -143q-94 70 -190 70q-107 0 -176 -74.5t-69 -192.5q0 -73 45 -119t117 -46q40 0 81 12l24 119h-127l24 123h280zM163 -242l101 195h147l-120 -195h-128z" />
    <glyph glyph-name="gcommaaccent" unicode="&#x123;" horiz-adv-x="586" 
d="M570 500l-94 -500q-19 -106 -96.5 -168.5t-187.5 -62.5q-102 0 -196 51l26 132q84 -55 168 -55q45 0 79.5 26.5t42.5 68.5l6 30q-54 -34 -111 -34q-79 0 -129.5 58.5t-50.5 149.5q0 134 74 225t182 91q63 0 119 -39l6 27h162zM195 215q0 -42 19 -64.5t54 -22.5
q38 0 76 35l34 182q-32 27 -69 27q-50 0 -82 -44.5t-32 -112.5zM511 743l-101 -196h-147l120 196h128z" />
    <glyph glyph-name="Hcircumflex" unicode="&#x124;" horiz-adv-x="750" 
d="M35 0l129 688h167l-50 -271h251l52 271h166l-129 -688h-166l52 283h-252l-53 -283h-167zM274 735l145 172h145l84 -172h-113l-52 88l-84 -88h-125z" />
    <glyph glyph-name="hcircumflex" unicode="&#x125;" horiz-adv-x="586" 
d="M16 0l135 719h163l-48 -252q62 45 132 45q63 0 104 -42t41 -106q0 -29 -6 -59l-57 -305h-162l54 293q3 12 3 25q0 23 -14.5 37t-37.5 14q-40 0 -83 -40l-61 -329h-163zM50 766l145 172h145l84 -172h-113l-52 88l-84 -88h-125z" />
    <glyph glyph-name="Hbar" unicode="&#x126;" horiz-adv-x="750" 
d="M35 0l91 485h-74l20 108h75l17 95h167l-17 -95h251l19 95h166l-18 -95h74l-20 -108h-74l-91 -485h-166l52 283h-252l-53 -283h-167zM293 485l-12 -68h251l13 68h-252z" />
    <glyph glyph-name="hbar" unicode="&#x127;" horiz-adv-x="586" 
d="M16 0l104 556h-63l21 109h63l10 54h163l-10 -54h148l-20 -109h-149l-17 -89q62 45 132 45q63 0 104 -42t41 -106q0 -29 -6 -59l-57 -305h-162l54 293q3 12 3 25q0 23 -14.5 37t-37.5 14q-40 0 -83 -40l-61 -329h-163z" />
    <glyph glyph-name="Itilde" unicode="&#x128;" horiz-adv-x="331" 
d="M35 0l129 688h167l-129 -688h-167zM73 756q9 64 46.5 104t89.5 40q35 0 75 -27.5t52 -27.5q17 0 28.5 12t14.5 31h93q-9 -65 -46.5 -104.5t-89.5 -39.5q-27 0 -52 14t-44 27.5t-31 13.5q-36 0 -43 -43h-93z" />
    <glyph glyph-name="itilde" unicode="&#x129;" horiz-adv-x="288" 
d="M16 0l93 500h164l-94 -500h-163zM17 568q9 64 46.5 104t89.5 40q35 0 75 -27.5t52 -27.5q17 0 28.5 12t14.5 31h93q-9 -65 -46.5 -104.5t-89.5 -39.5q-27 0 -52 14t-44 27.5t-31 13.5q-36 0 -43 -43h-93z" />
    <glyph glyph-name="Imacron" unicode="&#x12a;" horiz-adv-x="331" 
d="M35 0l129 688h167l-129 -688h-167zM82 768l20 108h359l-20 -108h-359z" />
    <glyph glyph-name="imacron" unicode="&#x12b;" horiz-adv-x="288" 
d="M16 0l93 500h164l-94 -500h-163zM26 580l20 108h359l-20 -108h-359z" />
    <glyph glyph-name="Ibreve" unicode="&#x12c;" horiz-adv-x="331" 
d="M35 0l129 688h167l-129 -688h-167zM122 907h95q-1 -5 -1 -15q0 -26 18 -42.5t47 -16.5q31 0 53 20.5t27 53.5h99q-11 -85 -61.5 -131.5t-130.5 -46.5q-63 0 -106 40t-43 99q0 20 3 39z" />
    <glyph glyph-name="ibreve" unicode="&#x12d;" horiz-adv-x="288" 
d="M16 0l93 500h164l-94 -500h-163zM66 719h95q-1 -5 -1 -15q0 -26 18 -42.5t47 -16.5q31 0 53 20.5t27 53.5h99q-11 -85 -61.5 -131.5t-130.5 -46.5q-63 0 -106 40t-43 99q0 20 3 39z" />
    <glyph glyph-name="Iogonek" unicode="&#x12e;" horiz-adv-x="331" 
d="M35 0l129 688h167l-129 -688q-94 -49 -94 -97q0 -15 12 -26t28 -11t30 7l-17 -92q-32 -12 -71 -12q-43 0 -72.5 26t-29.5 64q0 92 102 141h-55z" />
    <glyph glyph-name="iogonek" unicode="&#x12f;" horiz-adv-x="288" 
d="M16 0l93 500h164l-94 -500q-94 -49 -94 -97q0 -15 12 -26t28 -11t30 7l-17 -92q-32 -12 -71 -12q-43 0 -72.5 26t-29.5 64q0 92 102 141h-51zM125 624q0 42 28.5 70t71.5 28q35 0 57 -22t22 -57q0 -41 -28.5 -69.5t-70.5 -28.5q-35 0 -57.5 22t-22.5 57z" />
    <glyph glyph-name="Idotaccent" unicode="&#x130;" horiz-adv-x="331" 
d="M35 0l129 688h167l-129 -688h-167zM183 812q0 42 28 70t70 28q35 0 57 -22t22 -57q0 -41 -28 -69.5t-70 -28.5q-35 0 -57 22t-22 57z" />
    <glyph glyph-name="dotlessi" unicode="&#x131;" horiz-adv-x="288" 
d="M16 0l93 500h164l-94 -500h-163z" />
    <glyph glyph-name="Jcircumflex" unicode="&#x134;" horiz-adv-x="485" 
d="M488 688l-94 -501q-18 -93 -81 -146t-157 -53q-80 0 -162 39l26 132q55 -31 109 -31q40 0 68.5 24t35.5 62l89 474h166zM222 735l145 172h145l84 -172h-113l-52 88l-84 -88h-125z" />
    <glyph glyph-name="jcircumflex" unicode="&#x135;" horiz-adv-x="288" 
d="M273 500l-107 -571q-14 -76 -63.5 -118t-126.5 -42q-59 0 -123 26l23 126q37 -16 69 -16q24 0 41 14t22 37l101 544h164zM9 547l145 172h145l84 -172h-113l-52 88l-84 -88h-125z" />
    <glyph glyph-name="Kcommaaccent" unicode="&#x136;" horiz-adv-x="660" 
d="M35 0l129 688h163l-48 -261l261 261h202l-349 -344l232 -344h-187l-186 286l-54 -286h-163zM110 -242l101 195h147l-120 -195h-128z" />
    <glyph glyph-name="kcommaaccent" unicode="&#x137;" horiz-adv-x="531" 
d="M16 0l135 719h159l-72 -384l149 165h191l-236 -250l150 -250h-179l-103 189l-35 -189h-159zM48 -242l101 195h147l-120 -195h-128z" />
    <glyph glyph-name="kgreenlandic" unicode="&#x138;" horiz-adv-x="531" 
d="M16 0l94 500h159l-31 -165l149 165h191l-236 -250l150 -250h-179l-103 189l-35 -189h-159z" />
    <glyph glyph-name="Lacute" unicode="&#x139;" horiz-adv-x="516" 
d="M35 0l129 688h167l-103 -552h250l-25 -136h-418zM167 735l145 172h154l-163 -172h-136z" />
    <glyph glyph-name="lacute" unicode="&#x13a;" horiz-adv-x="288" 
d="M16 0l135 719h163l-135 -719h-163zM152 766l145 172h154l-163 -172h-136z" />
    <glyph glyph-name="Lcommaaccent" unicode="&#x13b;" horiz-adv-x="516" 
d="M35 0l129 688h167l-103 -552h250l-25 -136h-418zM63 -242l101 195h147l-120 -195h-128z" />
    <glyph glyph-name="lcommaaccent" unicode="&#x13c;" horiz-adv-x="288" 
d="M16 0l135 719h163l-135 -719h-163zM-73 -242l101 195h147l-120 -195h-128z" />
    <glyph glyph-name="Lcaron" unicode="&#x13d;" horiz-adv-x="516" 
d="M35 0l129 688h167l-103 -552h250l-25 -136h-418zM336 547l89 172h136l-105 -172h-120z" />
    <glyph glyph-name="lcaron" unicode="&#x13e;" horiz-adv-x="288" 
d="M16 0l135 719h163l-135 -719h-163zM297 547l89 172h136l-105 -172h-120z" />
    <glyph glyph-name="Ldot" unicode="&#x13f;" horiz-adv-x="516" 
d="M35 0l129 688h167l-103 -552h250l-25 -136h-418zM357 358q0 42 28 70t70 28q35 0 57 -22t22 -57q0 -41 -28 -69.5t-70 -28.5q-35 0 -57 22t-22 57z" />
    <glyph glyph-name="ldot" unicode="&#x140;" horiz-adv-x="436" 
d="M16 0l135 719h163l-135 -719h-163zM293 341q0 42 28 70t70 28q35 0 57 -22t22 -57q0 -41 -28 -69.5t-70 -28.5q-35 0 -57 22t-22 57z" />
    <glyph glyph-name="Lslash" unicode="&#x141;" horiz-adv-x="547" 
d="M66 0l44 235l-77 -31l25 131l77 33l61 320h167l-47 -248l136 55l-25 -132l-136 -55l-31 -172h249l-25 -136h-418z" />
    <glyph glyph-name="lslash" unicode="&#x142;" horiz-adv-x="327" 
d="M35 0l50 262l-83 -34l25 132l82 33l61 326h163l-47 -253l82 33l-25 -131l-82 -34l-63 -334h-163z" />
    <glyph glyph-name="Nacute" unicode="&#x143;" horiz-adv-x="750" 
d="M35 0l129 688h136l215 -428l79 428h156l-129 -688h-136l-215 428l-79 -428h-156zM376 735l145 172h154l-163 -172h-136z" />
    <glyph glyph-name="nacute" unicode="&#x144;" horiz-adv-x="586" 
d="M16 0l93 500h156l-7 -39q68 51 140 51q63 0 104 -42t41 -106q0 -29 -6 -59l-57 -305h-162l54 293q3 12 3 25q0 23 -14.5 37t-37.5 14q-40 0 -83 -40l-61 -329h-163zM261 547l145 172h154l-163 -172h-136z" />
    <glyph glyph-name="Ncommaaccent" unicode="&#x145;" horiz-adv-x="750" 
d="M35 0l129 688h136l215 -428l79 428h156l-129 -688h-136l-215 428l-79 -428h-156zM157 -242l101 195h147l-120 -195h-128z" />
    <glyph glyph-name="ncommaaccent" unicode="&#x146;" horiz-adv-x="586" 
d="M16 0l93 500h156l-7 -39q68 51 140 51q63 0 104 -42t41 -106q0 -29 -6 -59l-57 -305h-162l54 293q3 12 3 25q0 23 -14.5 37t-37.5 14q-40 0 -83 -40l-61 -329h-163zM77 -242l101 195h147l-120 -195h-128z" />
    <glyph glyph-name="Ncaron" unicode="&#x147;" horiz-adv-x="750" 
d="M35 0l129 688h136l215 -428l79 428h156l-129 -688h-136l-215 428l-79 -428h-156zM687 907l-145 -172h-145l-84 172h113l52 -88l84 88h125z" />
    <glyph glyph-name="ncaron" unicode="&#x148;" horiz-adv-x="586" 
d="M16 0l93 500h156l-7 -39q68 51 140 51q63 0 104 -42t41 -106q0 -29 -6 -59l-57 -305h-162l54 293q3 12 3 25q0 23 -14.5 37t-37.5 14q-40 0 -83 -40l-61 -329h-163zM572 719l-145 -172h-145l-84 172h113l52 -88l84 88h125z" />
    <glyph glyph-name="Eng" unicode="&#x14a;" horiz-adv-x="750" 
d="M35 0l129 688h136l215 -428l79 428h156l-135 -720q-17 -93 -80.5 -146t-157.5 -53q-79 0 -162 39l26 132q56 -31 111 -31q40 0 68.5 24t36.5 62l8 44l-195 389l-79 -428h-156z" />
    <glyph glyph-name="eng" unicode="&#x14b;" horiz-adv-x="586" 
d="M16 0l93 500h156l-7 -39q68 51 140 51q63 0 104 -42t41 -106q0 -29 -6 -59l-70 -376q-14 -76 -63.5 -118t-125.5 -42q-62 0 -124 28l24 124q38 -16 68 -16q24 0 41 14t22 37l63 337q3 12 3 25q0 23 -14.5 37t-37.5 14q-40 0 -83 -40l-61 -329h-163z" />
    <glyph glyph-name="Omacron" unicode="&#x14c;" horiz-adv-x="750" 
d="M51 272q0 189 110.5 308.5t284.5 119.5q128 0 208 -78.5t80 -205.5q0 -189 -110.5 -308.5t-283.5 -119.5q-129 0 -209 79t-80 205zM222 285q0 -71 36.5 -114t97.5 -43q85 0 146.5 80t61.5 195q0 71 -37 114t-97 43q-86 0 -147 -80t-61 -195zM291 768l20 108h359l-20 -108
h-359z" />
    <glyph glyph-name="omacron" unicode="&#x14d;" horiz-adv-x="586" 
d="M27 203q0 135 86 222t219 87q98 0 162 -60.5t64 -154.5q0 -135 -85.5 -222t-218.5 -87q-99 0 -163 60.5t-64 154.5zM195 215q0 -41 21 -66t57 -25q51 0 85 45.5t34 115.5q0 41 -22 66t-57 25q-51 0 -84.5 -45t-33.5 -116zM174 580l20 108h359l-20 -108h-359z" />
    <glyph glyph-name="Obreve" unicode="&#x14e;" horiz-adv-x="750" 
d="M51 272q0 189 110.5 308.5t284.5 119.5q128 0 208 -78.5t80 -205.5q0 -189 -110.5 -308.5t-283.5 -119.5q-129 0 -209 79t-80 205zM222 285q0 -71 36.5 -114t97.5 -43q85 0 146.5 80t61.5 195q0 71 -37 114t-97 43q-86 0 -147 -80t-61 -195zM331 907h95q-1 -5 -1 -15
q0 -26 18 -42.5t47 -16.5q31 0 53 20.5t27 53.5h99q-11 -85 -61.5 -131.5t-130.5 -46.5q-63 0 -106 40t-43 99q0 20 3 39z" />
    <glyph glyph-name="obreve" unicode="&#x14f;" horiz-adv-x="586" 
d="M27 203q0 135 86 222t219 87q98 0 162 -60.5t64 -154.5q0 -135 -85.5 -222t-218.5 -87q-99 0 -163 60.5t-64 154.5zM195 215q0 -41 21 -66t57 -25q51 0 85 45.5t34 115.5q0 41 -22 66t-57 25q-51 0 -84.5 -45t-33.5 -116zM214 719h95q-1 -5 -1 -15q0 -26 18 -42.5
t47 -16.5q31 0 53 20.5t27 53.5h99q-11 -85 -61.5 -131.5t-130.5 -46.5q-63 0 -106 40t-43 99q0 20 3 39z" />
    <glyph glyph-name="Ohungarumlaut" unicode="&#x150;" horiz-adv-x="750" 
d="M51 272q0 189 110.5 308.5t284.5 119.5q128 0 208 -78.5t80 -205.5q0 -189 -110.5 -308.5t-283.5 -119.5q-129 0 -209 79t-80 205zM222 285q0 -71 36.5 -114t97.5 -43q85 0 146.5 80t61.5 195q0 71 -37 114t-97 43q-86 0 -147 -80t-61 -195zM484 735l145 172h155
l-164 -172h-136zM266 735l145 172h156l-165 -172h-136z" />
    <glyph glyph-name="ohungarumlaut" unicode="&#x151;" horiz-adv-x="586" 
d="M27 203q0 135 86 222t219 87q98 0 162 -60.5t64 -154.5q0 -135 -85.5 -222t-218.5 -87q-99 0 -163 60.5t-64 154.5zM195 215q0 -41 21 -66t57 -25q51 0 85 45.5t34 115.5q0 41 -22 66t-57 25q-51 0 -84.5 -45t-33.5 -116zM367 547l145 172h155l-164 -172h-136zM149 547
l145 172h156l-165 -172h-136z" />
    <glyph glyph-name="OE" unicode="&#x152;" horiz-adv-x="931" 
d="M958 688l-25 -136h-259l-26 -137h220l-25 -131h-220l-27 -148h266l-25 -136h-497q-129 0 -209 75.5t-80 196.5q0 188 108 302t287 114h512zM429 136l78 416h-73q-92 0 -152 -76t-60 -191q0 -68 39 -108.5t107 -40.5h61z" />
    <glyph glyph-name="oe" unicode="&#x153;" horiz-adv-x="884" 
d="M27 199q0 137 85.5 225t219.5 88q99 0 161 -59q73 59 172 59q88 0 143.5 -55.5t55.5 -143.5q0 -55 -15 -109h-314v-4q0 -41 30.5 -64.5t83.5 -23.5q69 0 154 45l-25 -134q-88 -35 -176 -35q-97 0 -160 61q-80 -61 -188 -61q-98 0 -162.5 60t-64.5 151zM553 305h162
q2 12 2 18q0 30 -17.5 47.5t-46.5 17.5q-34 0 -62 -22.5t-38 -60.5zM195 215q0 -41 21 -66t57 -25q51 0 85 45.5t34 115.5q0 41 -22 66t-57 25q-51 0 -84.5 -45t-33.5 -116z" />
    <glyph glyph-name="Racute" unicode="&#x154;" horiz-adv-x="625" 
d="M387 0l-86 243h-57l-46 -243h-163l129 688h242q97 0 154 -51.5t57 -139.5q0 -76 -44 -138t-117 -91l102 -268h-171zM303 556l-34 -182h62q53 0 86.5 31t33.5 76q0 36 -23 55.5t-64 19.5h-61zM314 735l145 172h154l-163 -172h-136z" />
    <glyph glyph-name="racute" unicode="&#x155;" horiz-adv-x="399" 
d="M16 0l93 500h156l-8 -43q61 55 121 55q24 0 43 -8l-26 -141q-21 6 -40 6q-59 0 -117 -55l-59 -314h-163zM185 547l145 172h154l-163 -172h-136z" />
    <glyph glyph-name="Rcommaaccent" unicode="&#x156;" horiz-adv-x="625" 
d="M387 0l-86 243h-57l-46 -243h-163l129 688h242q97 0 154 -51.5t57 -139.5q0 -76 -44 -138t-117 -91l102 -268h-171zM303 556l-34 -182h62q53 0 86.5 31t33.5 76q0 36 -23 55.5t-64 19.5h-61zM95 -242l101 195h147l-120 -195h-128z" />
    <glyph glyph-name="rcommaaccent" unicode="&#x157;" horiz-adv-x="399" 
d="M16 0l93 500h156l-8 -43q61 55 121 55q24 0 43 -8l-26 -141q-21 6 -40 6q-59 0 -117 -55l-59 -314h-163zM-73 -242l101 195h147l-120 -195h-128z" />
    <glyph glyph-name="Rcaron" unicode="&#x158;" horiz-adv-x="625" 
d="M387 0l-86 243h-57l-46 -243h-163l129 688h242q97 0 154 -51.5t57 -139.5q0 -76 -44 -138t-117 -91l102 -268h-171zM303 556l-34 -182h62q53 0 86.5 31t33.5 76q0 36 -23 55.5t-64 19.5h-61zM625 907l-145 -172h-145l-84 172h113l52 -88l84 88h125z" />
    <glyph glyph-name="rcaron" unicode="&#x159;" horiz-adv-x="399" 
d="M16 0l93 500h156l-8 -43q61 55 121 55q24 0 43 -8l-26 -141q-21 6 -40 6q-59 0 -117 -55l-59 -314h-163zM496 719l-145 -172h-145l-84 172h113l52 -88l84 88h125z" />
    <glyph glyph-name="Sacute" unicode="&#x15a;" horiz-adv-x="555" 
d="M20 45l26 140q98 -65 189 -65q47 0 75.5 22t28.5 59q0 29 -25.5 50.5t-62 38.5t-73.5 38.5t-62.5 61.5t-25.5 95q0 94 73.5 154.5t192.5 60.5q99 0 198 -51l-24 -138q-92 57 -174 57q-46 0 -73.5 -20.5t-27.5 -54.5q0 -27 25.5 -47.5t62 -37.5t73 -38.5t62 -62.5
t25.5 -98q0 -97 -74 -159t-194 -62q-106 0 -215 57zM279 735l145 172h154l-163 -172h-136z" />
    <glyph glyph-name="sacute" unicode="&#x15b;" horiz-adv-x="438" 
d="M6 29l25 134q71 -47 141 -47q23 0 37.5 10t14.5 26q0 15 -17.5 27t-42.5 23.5t-49.5 27t-42 45t-17.5 69.5q0 76 57.5 122t153.5 46q76 0 153 -37l-24 -132q-68 41 -129 41q-48 0 -48 -32q0 -14 17.5 -25t42 -22.5t49 -27t42 -46t17.5 -71.5q0 -79 -58 -125.5t-156 -46.5
q-82 0 -166 41zM189 547l145 172h154l-163 -172h-136z" />
    <glyph glyph-name="Scircumflex" unicode="&#x15c;" horiz-adv-x="555" 
d="M20 45l26 140q98 -65 189 -65q47 0 75.5 22t28.5 59q0 29 -25.5 50.5t-62 38.5t-73.5 38.5t-62.5 61.5t-25.5 95q0 94 73.5 154.5t192.5 60.5q99 0 198 -51l-24 -138q-92 57 -174 57q-46 0 -73.5 -20.5t-27.5 -54.5q0 -27 25.5 -47.5t62 -37.5t73 -38.5t62 -62.5
t25.5 -98q0 -97 -74 -159t-194 -62q-106 0 -215 57zM177 735l145 172h145l84 -172h-113l-52 88l-84 -88h-125z" />
    <glyph glyph-name="scircumflex" unicode="&#x15d;" horiz-adv-x="438" 
d="M6 29l25 134q71 -47 141 -47q23 0 37.5 10t14.5 26q0 15 -17.5 27t-42.5 23.5t-49.5 27t-42 45t-17.5 69.5q0 76 57.5 122t153.5 46q76 0 153 -37l-24 -132q-68 41 -129 41q-48 0 -48 -32q0 -14 17.5 -25t42 -22.5t49 -27t42 -46t17.5 -71.5q0 -79 -58 -125.5t-156 -46.5
q-82 0 -166 41zM87 547l145 172h145l84 -172h-113l-52 88l-84 -88h-125z" />
    <glyph glyph-name="Scedilla" unicode="&#x15e;" horiz-adv-x="555" 
d="M20 45l26 140q98 -65 189 -65q47 0 75.5 22t28.5 59q0 29 -25.5 50.5t-62 38.5t-73.5 38.5t-62.5 61.5t-25.5 95q0 94 73.5 154.5t192.5 60.5q99 0 198 -51l-24 -138q-92 57 -174 57q-46 0 -73.5 -20.5t-27.5 -54.5q0 -27 25.5 -47.5t62 -37.5t73 -38.5t62 -62.5
t25.5 -98q0 -86 -60 -145.5t-161 -72.5l-12 -30q50 -22 50 -76q0 -50 -40.5 -83t-103.5 -33q-46 0 -94 24l17 87q33 -22 61 -22q19 0 31 9.5t12 24.5t-12 24.5t-31 9.5h-4l30 66q-88 11 -166 53z" />
    <glyph glyph-name="scedilla" unicode="&#x15f;" horiz-adv-x="438" 
d="M6 29l25 134q71 -47 141 -47q23 0 37.5 10t14.5 26q0 15 -17.5 27t-42.5 23.5t-49.5 27t-42 45t-17.5 69.5q0 76 57.5 122t153.5 46q76 0 153 -37l-24 -132q-68 41 -129 41q-48 0 -48 -32q0 -14 17.5 -25t42 -22.5t49 -27t42 -46t17.5 -71.5q0 -66 -42 -110t-115 -57
l-14 -32q50 -22 50 -76q0 -51 -40.5 -83.5t-103.5 -32.5q-49 0 -94 24l17 87q33 -22 62 -22q19 0 31 9.5t12 24.5t-12 24.5t-31 9.5h-4l29 65q-62 7 -125 38z" />
    <glyph glyph-name="Scaron" unicode="&#x160;" horiz-adv-x="555" 
d="M20 45l26 140q98 -65 189 -65q47 0 75.5 22t28.5 59q0 29 -25.5 50.5t-62 38.5t-73.5 38.5t-62.5 61.5t-25.5 95q0 94 73.5 154.5t192.5 60.5q99 0 198 -51l-24 -138q-92 57 -174 57q-46 0 -73.5 -20.5t-27.5 -54.5q0 -27 25.5 -47.5t62 -37.5t73 -38.5t62 -62.5
t25.5 -98q0 -97 -74 -159t-194 -62q-106 0 -215 57zM590 907l-145 -172h-145l-84 172h113l52 -88l84 88h125z" />
    <glyph glyph-name="scaron" unicode="&#x161;" horiz-adv-x="438" 
d="M6 29l25 134q71 -47 141 -47q23 0 37.5 10t14.5 26q0 15 -17.5 27t-42.5 23.5t-49.5 27t-42 45t-17.5 69.5q0 76 57.5 122t153.5 46q76 0 153 -37l-24 -132q-68 41 -129 41q-48 0 -48 -32q0 -14 17.5 -25t42 -22.5t49 -27t42 -46t17.5 -71.5q0 -79 -58 -125.5t-156 -46.5
q-82 0 -166 41zM500 719l-145 -172h-145l-84 172h113l52 -88l84 88h125z" />
    <glyph glyph-name="uni0162" unicode="&#x162;" horiz-adv-x="594" 
d="M167 0l103 552h-190l26 136h547l-26 -136h-191l-103 -552h-166zM79 -242l101 195h147l-120 -195h-128z" />
    <glyph glyph-name="uni0163" unicode="&#x163;" horiz-adv-x="422" 
d="M330 641l-26 -141h126l-25 -131h-126l-33 -178q-3 -12 -3 -24q0 -19 12.5 -31t32.5 -12q33 0 75 16l-25 -136q-51 -16 -107 -16q-70 0 -113 40t-43 105q0 13 4 35l38 201h-79l25 131h78l26 141h163zM20 -242l101 195h147l-120 -195h-128z" />
    <glyph glyph-name="Tcaron" unicode="&#x164;" horiz-adv-x="594" 
d="M167 0l103 552h-190l26 136h547l-26 -136h-191l-103 -552h-166zM609 907l-145 -172h-145l-84 172h113l52 -88l84 88h125z" />
    <glyph glyph-name="tcaron" unicode="&#x165;" horiz-adv-x="422" 
d="M330 641l-26 -141h126l-25 -131h-126l-33 -178q-3 -12 -3 -24q0 -19 12.5 -31t32.5 -12q33 0 75 16l-25 -136q-51 -16 -107 -16q-70 0 -113 40t-43 105q0 13 4 35l38 201h-79l25 131h78l26 141h163zM336 547l89 172h136l-105 -172h-120z" />
    <glyph glyph-name="Tbar" unicode="&#x166;" horiz-adv-x="594" 
d="M167 0l49 267h-120l21 108h120l33 177h-190l26 136h547l-26 -136h-191l-33 -177h119l-20 -108h-120l-49 -267h-166z" />
    <glyph glyph-name="tbar" unicode="&#x167;" horiz-adv-x="422" 
d="M330 641l-26 -141h126l-25 -131h-126l-11 -60h110l-20 -110h-111l-1 -8q-3 -12 -3 -24q0 -19 12.5 -31t32.5 -12q33 0 75 16l-25 -136q-51 -16 -107 -16q-70 0 -113 40t-43 105q0 13 4 35l6 31h-71l20 110h71l12 60h-79l25 131h78l26 141h163z" />
    <glyph glyph-name="Utilde" unicode="&#x168;" horiz-adv-x="750" 
d="M753 688l-82 -446q-22 -117 -111 -185.5t-220 -68.5q-115 0 -188.5 63.5t-73.5 163.5q0 30 6 63l76 410h167l-76 -410q-4 -19 -4 -40q0 -49 29.5 -79.5t79.5 -30.5q57 0 98.5 36.5t52.5 97.5l80 426h166zM282 756q9 64 46.5 104t89.5 40q27 0 52 -14t44 -27.5t31 -13.5
q17 0 28.5 12t14.5 31h93q-9 -65 -46.5 -104.5t-89.5 -39.5q-35 0 -75 27.5t-52 27.5q-36 0 -43 -43h-93z" />
    <glyph glyph-name="utilde" unicode="&#x169;" horiz-adv-x="586" 
d="M570 500l-94 -500h-155l8 39q-71 -51 -141 -51q-64 0 -105 42t-41 107q0 29 6 59l58 304h163l-55 -293q-2 -16 -2 -24q0 -24 13.5 -37.5t37.5 -13.5q41 0 82 39l63 329h162zM163 568q9 64 46.5 104t89.5 40q35 0 75 -27.5t52 -27.5q17 0 28.5 12t14.5 31h93
q-9 -65 -46.5 -104.5t-89.5 -39.5q-27 0 -52 14t-44 27.5t-31 13.5q-36 0 -43 -43h-93z" />
    <glyph glyph-name="Umacron" unicode="&#x16a;" horiz-adv-x="750" 
d="M753 688l-82 -446q-22 -117 -111 -185.5t-220 -68.5q-115 0 -188.5 63.5t-73.5 163.5q0 30 6 63l76 410h167l-76 -410q-4 -19 -4 -40q0 -49 29.5 -79.5t79.5 -30.5q57 0 98.5 36.5t52.5 97.5l80 426h166zM291 768l20 108h359l-20 -108h-359z" />
    <glyph glyph-name="umacron" unicode="&#x16b;" horiz-adv-x="586" 
d="M570 500l-94 -500h-155l8 39q-71 -51 -141 -51q-64 0 -105 42t-41 107q0 29 6 59l58 304h163l-55 -293q-2 -16 -2 -24q0 -24 13.5 -37.5t37.5 -13.5q41 0 82 39l63 329h162zM172 580l20 108h359l-20 -108h-359z" />
    <glyph glyph-name="Ubreve" unicode="&#x16c;" horiz-adv-x="750" 
d="M753 688l-82 -446q-22 -117 -111 -185.5t-220 -68.5q-115 0 -188.5 63.5t-73.5 163.5q0 30 6 63l76 410h167l-76 -410q-4 -19 -4 -40q0 -49 29.5 -79.5t79.5 -30.5q57 0 98.5 36.5t52.5 97.5l80 426h166zM331 907h95q-1 -5 -1 -15q0 -26 18 -42.5t47 -16.5q31 0 53 20.5
t27 53.5h99q-11 -85 -61.5 -131.5t-130.5 -46.5q-63 0 -106 40t-43 99q0 20 3 39z" />
    <glyph glyph-name="ubreve" unicode="&#x16d;" horiz-adv-x="586" 
d="M570 500l-94 -500h-155l8 39q-71 -51 -141 -51q-64 0 -105 42t-41 107q0 29 6 59l58 304h163l-55 -293q-2 -16 -2 -24q0 -24 13.5 -37.5t37.5 -13.5q41 0 82 39l63 329h162zM212 719h95q-1 -5 -1 -15q0 -26 18 -42.5t47 -16.5q31 0 53 20.5t27 53.5h99
q-11 -85 -61.5 -131.5t-130.5 -46.5q-63 0 -106 40t-43 99q0 20 3 39z" />
    <glyph glyph-name="Uring" unicode="&#x16e;" horiz-adv-x="750" 
d="M753 688l-82 -446q-22 -117 -111 -185.5t-220 -68.5q-115 0 -188.5 63.5t-73.5 163.5q0 30 6 63l76 410h167l-76 -410q-4 -19 -4 -40q0 -49 29.5 -79.5t79.5 -30.5q57 0 98.5 36.5t52.5 97.5l80 426h166zM367 810q0 53 36 89t89 36q45 0 73.5 -28.5t28.5 -73.5
q0 -53 -36 -88.5t-89 -35.5q-45 0 -73.5 28t-28.5 73zM434 817q0 -19 11.5 -30.5t30.5 -11.5q22 0 36.5 14.5t14.5 36.5q0 19 -11.5 30.5t-30.5 11.5q-22 0 -36.5 -14.5t-14.5 -36.5z" />
    <glyph glyph-name="uring" unicode="&#x16f;" horiz-adv-x="586" 
d="M570 500l-94 -500h-155l8 39q-71 -51 -141 -51q-64 0 -105 42t-41 107q0 29 6 59l58 304h163l-55 -293q-2 -16 -2 -24q0 -24 13.5 -37.5t37.5 -13.5q41 0 82 39l63 329h162zM248 622q0 53 36 89t89 36q45 0 73.5 -28.5t28.5 -73.5q0 -53 -36 -88.5t-89 -35.5
q-45 0 -73.5 28t-28.5 73zM315 629q0 -19 11.5 -30.5t30.5 -11.5q22 0 36.5 14.5t14.5 36.5q0 19 -11.5 30.5t-30.5 11.5q-22 0 -36.5 -14.5t-14.5 -36.5z" />
    <glyph glyph-name="Uhungarumlaut" unicode="&#x170;" horiz-adv-x="750" 
d="M753 688l-82 -446q-22 -117 -111 -185.5t-220 -68.5q-115 0 -188.5 63.5t-73.5 163.5q0 30 6 63l76 410h167l-76 -410q-4 -19 -4 -40q0 -49 29.5 -79.5t79.5 -30.5q57 0 98.5 36.5t52.5 97.5l80 426h166zM484 735l145 172h155l-164 -172h-136zM266 735l145 172h156
l-165 -172h-136z" />
    <glyph glyph-name="uhungarumlaut" unicode="&#x171;" horiz-adv-x="586" 
d="M570 500l-94 -500h-155l8 39q-71 -51 -141 -51q-64 0 -105 42t-41 107q0 29 6 59l58 304h163l-55 -293q-2 -16 -2 -24q0 -24 13.5 -37.5t37.5 -13.5q41 0 82 39l63 329h162zM365 547l145 172h155l-164 -172h-136zM147 547l145 172h156l-165 -172h-136z" />
    <glyph glyph-name="Uogonek" unicode="&#x172;" horiz-adv-x="750" 
d="M753 688l-83 -446q-15 -84 -67.5 -139t-137.5 -95q-102 -49 -102 -105q0 -15 11.5 -26t27.5 -11t31 7l-17 -92q-32 -12 -72 -12q-43 0 -72.5 26t-29.5 64q0 74 90 129h-4q-107 0 -178.5 64t-71.5 163q0 31 6 63l76 410h167l-76 -410q-4 -19 -4 -40q0 -49 29.5 -79.5
t79.5 -30.5q57 0 98 35.5t52 94.5l81 430h166z" />
    <glyph glyph-name="uogonek" unicode="&#x173;" horiz-adv-x="586" 
d="M364 0h-43l8 39q-71 -51 -141 -51q-64 0 -105 42t-41 107q0 29 6 59l58 304h163l-55 -293q-2 -16 -2 -24q0 -24 13.5 -37.5t37.5 -13.5q41 0 82 39l63 329h162l-94 -500q-94 -49 -94 -97q0 -15 12 -26t28 -11t30 7l-17 -92q-32 -12 -71 -12q-43 0 -72.5 26t-29.5 64
q0 92 102 141z" />
    <glyph glyph-name="Wcircumflex" unicode="&#x174;" horiz-adv-x="1031" 
d="M1108 688l-360 -688h-146l-49 485l-228 -485h-145l-98 688h156l48 -485l228 485h146l49 -485l228 485h171zM409 735l145 172h145l84 -172h-113l-52 88l-84 -88h-125z" />
    <glyph glyph-name="wcircumflex" unicode="&#x175;" horiz-adv-x="789" 
d="M832 500l-262 -500h-146l-23 307l-134 -307h-146l-70 500h151l24 -306l134 306h145l24 -306l135 306h168zM255 547l145 172h145l84 -172h-113l-52 88l-84 -88h-125z" />
    <glyph glyph-name="Ycircumflex" unicode="&#x176;" horiz-adv-x="625" 
d="M176 0l54 287l-158 401h175l86 -259l182 259h198l-319 -416l-51 -272h-167zM206 735l145 172h145l84 -172h-113l-52 88l-84 -88h-125z" />
    <glyph glyph-name="ycircumflex" unicode="&#x177;" horiz-adv-x="515" 
d="M562 500l-407 -719h-166l148 242l-90 477h155l39 -287l147 287h174zM118 547l145 172h145l84 -172h-113l-52 88l-84 -88h-125z" />
    <glyph glyph-name="Ydieresis" unicode="&#x178;" horiz-adv-x="625" 
d="M176 0l54 287l-158 401h175l86 -259l182 259h198l-319 -416l-51 -272h-167zM218 812q0 40 27 67.5t67 27.5q34 0 55.5 -21t21.5 -55q0 -41 -27.5 -68t-67.5 -27q-33 0 -54.5 21.5t-21.5 54.5zM437 812q0 41 27 68t67 27q33 0 54.5 -21t21.5 -55q0 -41 -27 -68t-67 -27
q-34 0 -55 21.5t-21 54.5z" />
    <glyph glyph-name="Zacute" unicode="&#x179;" horiz-adv-x="630" 
d="M-10 0l21 108l405 444h-305l26 136h520l-21 -108l-405 -444h329l-25 -136h-545zM316 735l145 172h154l-163 -172h-136z" />
    <glyph glyph-name="zacute" unicode="&#x17a;" horiz-adv-x="493" 
d="M-12 0l20 105l244 264h-183l25 131h395l-20 -104l-244 -264h202l-25 -132h-414zM212 547l145 172h154l-163 -172h-136z" />
    <glyph glyph-name="Zdotaccent" unicode="&#x17b;" horiz-adv-x="630" 
d="M-10 0l21 108l405 444h-305l26 136h520l-21 -108l-405 -444h329l-25 -136h-545zM332 812q0 42 28 70t70 28q35 0 57 -22t22 -57q0 -41 -28 -69.5t-70 -28.5q-35 0 -57 22t-22 57z" />
    <glyph glyph-name="zdotaccent" unicode="&#x17c;" horiz-adv-x="493" 
d="M-12 0l20 105l244 264h-183l25 131h395l-20 -104l-244 -264h202l-25 -132h-414zM228 624q0 42 28 70t70 28q35 0 57 -22t22 -57q0 -41 -28 -69.5t-70 -28.5q-35 0 -57 22t-22 57z" />
    <glyph glyph-name="Zcaron" unicode="&#x17d;" horiz-adv-x="630" 
d="M-10 0l21 108l405 444h-305l26 136h520l-21 -108l-405 -444h329l-25 -136h-545zM627 907l-145 -172h-145l-84 172h113l52 -88l84 88h125z" />
    <glyph glyph-name="zcaron" unicode="&#x17e;" horiz-adv-x="493" 
d="M-12 0l20 105l244 264h-183l25 131h395l-20 -104l-244 -264h202l-25 -132h-414zM523 719l-145 -172h-145l-84 172h113l52 -88l84 88h125z" />
    <glyph glyph-name="florin" unicode="&#x192;" 
d="M115 322l24 132h89l16 87q14 75 65 117t127 42q61 0 121 -25l-25 -130q-32 15 -65 15q-23 0 -40.5 -14t-21.5 -37l-11 -55h105l-25 -132h-105l-54 -300q-13 -75 -64 -117t-128 -42q-66 0 -121 24l25 132q31 -16 65 -16q23 0 40.5 14t21.5 37l49 268h-88z" />
    <glyph glyph-name="Scommaaccent" unicode="&#x218;" horiz-adv-x="555" 
d="M20 45l26 140q98 -65 189 -65q47 0 75.5 22t28.5 59q0 29 -25.5 50.5t-62 38.5t-73.5 38.5t-62.5 61.5t-25.5 95q0 94 73.5 154.5t192.5 60.5q99 0 198 -51l-24 -138q-92 57 -174 57q-46 0 -73.5 -20.5t-27.5 -54.5q0 -27 25.5 -47.5t62 -37.5t73 -38.5t62 -62.5
t25.5 -98q0 -97 -74 -159t-194 -62q-106 0 -215 57zM59 -242l101 195h147l-120 -195h-128z" />
    <glyph glyph-name="scommaaccent" unicode="&#x219;" horiz-adv-x="438" 
d="M6 29l25 134q71 -47 141 -47q23 0 37.5 10t14.5 26q0 15 -17.5 27t-42.5 23.5t-49.5 27t-42 45t-17.5 69.5q0 76 57.5 122t153.5 46q76 0 153 -37l-24 -132q-68 41 -129 41q-48 0 -48 -32q0 -14 17.5 -25t42 -22.5t49 -27t42 -46t17.5 -71.5q0 -79 -58 -125.5t-156 -46.5
q-82 0 -166 41zM5 -242l101 195h147l-120 -195h-128z" />
    <glyph glyph-name="uni021A" unicode="&#x21a;" horiz-adv-x="594" 
d="M167 0l103 552h-190l26 136h547l-26 -136h-191l-103 -552h-166zM79 -242l101 195h147l-120 -195h-128z" />
    <glyph glyph-name="uni021B" unicode="&#x21b;" horiz-adv-x="422" 
d="M330 641l-26 -141h126l-25 -131h-126l-33 -178q-3 -12 -3 -24q0 -19 12.5 -31t32.5 -12q33 0 75 16l-25 -136q-51 -16 -107 -16q-70 0 -113 40t-43 105q0 13 4 35l38 201h-79l25 131h78l26 141h163zM20 -242l101 195h147l-120 -195h-128z" />
    <glyph glyph-name="dotlessj" unicode="&#x237;" horiz-adv-x="288" 
d="M273 500l-107 -571q-14 -76 -63.5 -118t-126.5 -42q-59 0 -123 26l23 126q37 -16 69 -16q24 0 41 14t22 37l101 544h164z" />
    <glyph glyph-name="circumflex" unicode="&#x2c6;" horiz-adv-x="250" 
d="M-11 547l145 172h145l84 -172h-113l-52 88l-84 -88h-125z" />
    <glyph glyph-name="caron" unicode="&#x2c7;" horiz-adv-x="250" 
d="M402 719l-145 -172h-145l-84 172h113l52 -88l84 88h125z" />
    <glyph glyph-name="uni02C9" unicode="&#x2c9;" horiz-adv-x="250" 
d="M6 580l20 108h359l-20 -108h-359z" />
    <glyph glyph-name="breve" unicode="&#x2d8;" horiz-adv-x="250" 
d="M46 719h95q-1 -5 -1 -15q0 -26 18 -42.5t47 -16.5q31 0 53 20.5t27 53.5h99q-11 -85 -61.5 -131.5t-130.5 -46.5q-63 0 -106 40t-43 99q0 20 3 39z" />
    <glyph glyph-name="dotaccent" unicode="&#x2d9;" horiz-adv-x="250" 
d="M107 624q0 42 28 70t70 28q35 0 57 -22t22 -57q0 -41 -28 -69.5t-70 -28.5q-35 0 -57 22t-22 57z" />
    <glyph glyph-name="ring" unicode="&#x2da;" horiz-adv-x="250" 
d="M82 622q0 53 36 89t89 36q45 0 73.5 -28.5t28.5 -73.5q0 -53 -36 -88.5t-89 -35.5q-45 0 -73.5 28t-28.5 73zM149 629q0 -19 11.5 -30.5t30.5 -11.5q22 0 36.5 14.5t14.5 36.5q0 19 -11.5 30.5t-30.5 11.5q-22 0 -36.5 -14.5t-14.5 -36.5z" />
    <glyph glyph-name="ogonek" unicode="&#x2db;" horiz-adv-x="250" 
d="M47 0h112q-94 -49 -94 -97q0 -15 12 -26t28 -11t30 7l-17 -92q-32 -12 -71 -12q-43 0 -72.5 26t-29.5 64q0 92 102 141z" />
    <glyph glyph-name="tilde" unicode="&#x2dc;" horiz-adv-x="250" 
d="M-3 568q9 64 46.5 104t89.5 40q35 0 75 -27.5t52 -27.5q17 0 28.5 12t14.5 31h93q-9 -65 -46.5 -104.5t-89.5 -39.5q-27 0 -52 14t-44 27.5t-31 13.5q-36 0 -43 -43h-93z" />
    <glyph glyph-name="hungarumlaut" unicode="&#x2dd;" horiz-adv-x="250" 
d="M199 547l145 172h155l-164 -172h-136zM-19 547l145 172h156l-165 -172h-136z" />
    <glyph glyph-name="uni0394" unicode="&#x394;" horiz-adv-x="656" 
d="M-12 0l18 93l336 595h140l117 -603l-16 -85h-595zM381 467l-180 -335h234z" />
    <glyph glyph-name="uni03A9" unicode="&#x3a9;" horiz-adv-x="781" 
d="M-16 0l25 132h152q-75 111 -75 243q0 142 103 233.5t265 91.5q126 0 211 -75.5t85 -190.5q0 -81 -42 -159t-120 -143h139l-24 -132h-324l18 93q84 69 133.5 154.5t49.5 163.5q0 67 -40 108t-102 41q-88 0 -138.5 -59t-50.5 -157q0 -140 61 -251l-18 -93h-308z" />
    <glyph glyph-name="uni03BC" unicode="&#x3bc;" horiz-adv-x="589" 
d="M-25 -219l134 719h164l-55 -293q-2 -16 -2 -24q0 -24 13.5 -37.5t37.5 -13.5q41 0 82 39l63 329h162l-94 -500h-155l8 39q-48 -43 -98 -43q-29 0 -55 12l-42 -227h-163z" />
    <glyph glyph-name="pi" unicode="&#x3c0;" horiz-adv-x="609" 
d="M39 0l71 372h-78l24 128h590l-23 -128h-78l-69 -372h-162l69 372h-111l-70 -372h-163z" />
    <glyph glyph-name="Wgrave" unicode="&#x1e80;" horiz-adv-x="1031" 
d="M1108 688l-360 -688h-146l-49 485l-228 -485h-145l-98 688h156l48 -485l228 485h146l49 -485l228 485h171zM565 735l-101 172h134l83 -172h-116z" />
    <glyph glyph-name="wgrave" unicode="&#x1e81;" horiz-adv-x="789" 
d="M832 500l-262 -500h-146l-23 307l-134 -307h-146l-70 500h151l24 -306l134 306h145l24 -306l135 306h168zM411 547l-101 172h134l83 -172h-116z" />
    <glyph glyph-name="Wacute" unicode="&#x1e82;" horiz-adv-x="1031" 
d="M1108 688l-360 -688h-146l-49 485l-228 -485h-145l-98 688h156l48 -485l228 485h146l49 -485l228 485h171zM511 735l145 172h154l-163 -172h-136z" />
    <glyph glyph-name="wacute" unicode="&#x1e83;" horiz-adv-x="789" 
d="M832 500l-262 -500h-146l-23 307l-134 -307h-146l-70 500h151l24 -306l134 306h145l24 -306l135 306h168zM357 547l145 172h154l-163 -172h-136z" />
    <glyph glyph-name="Wdieresis" unicode="&#x1e84;" horiz-adv-x="1031" 
d="M1108 688l-360 -688h-146l-49 485l-228 -485h-145l-98 688h156l48 -485l228 485h146l49 -485l228 485h171zM421 812q0 40 27 67.5t67 27.5q34 0 55.5 -21t21.5 -55q0 -41 -27 -68t-68 -27q-33 0 -54.5 21.5t-21.5 54.5zM640 812q0 41 27 68t67 27q33 0 54.5 -21t21.5 -55
q0 -41 -27 -68t-67 -27q-34 0 -55 21.5t-21 54.5z" />
    <glyph glyph-name="wdieresis" unicode="&#x1e85;" horiz-adv-x="789" 
d="M832 500l-262 -500h-146l-23 307l-134 -307h-146l-70 500h151l24 -306l134 306h145l24 -306l135 306h168zM267 624q0 40 27 67.5t67 27.5q34 0 55.5 -21t21.5 -55q0 -41 -27 -68t-68 -27q-33 0 -54.5 21.5t-21.5 54.5zM486 624q0 41 27 68t67 27q33 0 54.5 -21t21.5 -55
q0 -41 -27 -68t-67 -27q-34 0 -55 21.5t-21 54.5z" />
    <glyph glyph-name="uni1E9E" unicode="&#x1e9e;" horiz-adv-x="747" 
d="M35 0l129 688h594l-21 -108l-145 -166q55 -24 86 -70t31 -102q0 -105 -80.5 -179.5t-194.5 -74.5q-76 0 -152 39l25 142q61 -41 127 -41q46 0 77.5 27.5t31.5 67.5q0 41 -33 66t-88 25h-27l20 108l114 130h-227l-104 -552h-163z" />
    <glyph glyph-name="Ygrave" unicode="&#x1ef2;" horiz-adv-x="625" 
d="M176 0l54 287l-158 401h175l86 -259l182 259h198l-319 -416l-51 -272h-167zM362 735l-101 172h134l83 -172h-116z" />
    <glyph glyph-name="ygrave" unicode="&#x1ef3;" horiz-adv-x="515" 
d="M562 500l-407 -719h-166l148 242l-90 477h155l39 -287l147 287h174zM274 547l-101 172h134l83 -172h-116z" />
    <glyph glyph-name="figuredash" unicode="&#x2012;" 
d="M39 297l18 94h500l-17 -94h-501z" />
    <glyph glyph-name="endash" unicode="&#x2013;" horiz-adv-x="500" 
d="M11 189l25 131h454l-26 -131h-453z" />
    <glyph glyph-name="emdash" unicode="&#x2014;" horiz-adv-x="1000" 
d="M11 189l25 131h953l-25 -131h-953z" />
    <glyph glyph-name="quoteleft" unicode="&#x2018;" horiz-adv-x="250" 
d="M335 688l-143 -265h-164l164 265h143z" />
    <glyph glyph-name="quoteright" unicode="&#x2019;" horiz-adv-x="250" 
d="M28 423l145 265h162l-163 -265h-144z" />
    <glyph glyph-name="quotesinglbase" unicode="&#x201a;" horiz-adv-x="250" 
d="M-112 -125l144 265h163l-164 -265h-143z" />
    <glyph glyph-name="quotedblleft" unicode="&#x201c;" horiz-adv-x="453" 
d="M539 688l-145 -265h-163l164 265h144zM335 688l-143 -265h-164l164 265h143z" />
    <glyph glyph-name="quotedblright" unicode="&#x201d;" horiz-adv-x="453" 
d="M28 423l145 265h162l-163 -265h-144zM231 423l144 265h164l-165 -265h-143z" />
    <glyph glyph-name="quotedblbase" unicode="&#x201e;" horiz-adv-x="453" 
d="M90 -125l145 265h162l-163 -265h-144zM-112 -125l144 265h163l-164 -265h-143z" />
    <glyph glyph-name="dagger" unicode="&#x2020;" horiz-adv-x="469" 
d="M117 0l76 400h-150l26 140h149l28 148h140l-28 -148h148l-25 -140h-150l-74 -400h-140z" />
    <glyph glyph-name="daggerdbl" unicode="&#x2021;" horiz-adv-x="469" 
d="M117 0l28 149h-149l26 139h149l22 112h-150l26 140h149l28 148h140l-28 -148h148l-25 -140h-150l-20 -112h148l-26 -139h-149l-27 -149h-140z" />
    <glyph glyph-name="bullet" unicode="&#x2022;" horiz-adv-x="500" 
d="M127 344q0 58 41.5 99.5t99.5 41.5t99.5 -41.5t41.5 -99.5t-41.5 -99.5t-99.5 -41.5t-99.5 41.5t-41.5 99.5z" />
    <glyph glyph-name="ellipsis" unicode="&#x2026;" horiz-adv-x="1001" 
d="M710 71q0 46 28.5 75t74.5 29q36 0 59.5 -23.5t23.5 -60.5q0 -45 -28.5 -74t-74.5 -29q-37 0 -60 23.5t-23 59.5zM376 71q0 46 28.5 75t74.5 29q36 0 59.5 -23.5t23.5 -60.5q0 -45 -28.5 -74t-74.5 -29q-37 0 -60 23.5t-23 59.5zM43 71q0 46 28.5 75t73.5 29
q37 0 60 -23.5t23 -60.5q0 -45 -28.5 -74t-73.5 -29q-37 0 -60 23.5t-23 59.5z" />
    <glyph glyph-name="perthousand" unicode="&#x2030;" horiz-adv-x="1220" 
d="M445 129q0 97 59.5 162t147.5 65q67 0 110 -39t43 -102q0 -97 -59.5 -162t-148.5 -65q-67 0 -109.5 39t-42.5 102zM553 141q0 -29 15 -46.5t41 -17.5q36 0 61.5 37t25.5 89q0 29 -15 46.5t-41 17.5q-36 0 -61.5 -37t-25.5 -89zM75 477q0 97 59.5 160t148.5 63
q66 0 109 -40.5t43 -104.5q0 -96 -59 -159.5t-148 -63.5q-67 0 -110 40.5t-43 104.5zM184 489q0 -30 15.5 -49t39.5 -19q37 0 62.5 35.5t25.5 87.5q0 30 -15.5 48.5t-40.5 18.5q-37 0 -62 -35.5t-25 -86.5zM55 0l641 688h129l-641 -688h-129zM820 129q0 97 59.5 162
t147.5 65q67 0 110 -39t43 -102q0 -97 -59.5 -162t-147.5 -65q-68 0 -110.5 39t-42.5 102zM929 141q0 -29 15 -46.5t40 -17.5q36 0 61 37t25 89q0 29 -14.5 46.5t-39.5 17.5q-36 0 -61.5 -37t-25.5 -89z" />
    <glyph glyph-name="guilsinglleft" unicode="&#x2039;" horiz-adv-x="437" 
d="M453 469l-235 -223l141 -215h-160l-168 223l239 215h183z" />
    <glyph glyph-name="guilsinglright" unicode="&#x203a;" horiz-adv-x="437" 
d="M-16 31l235 223l-141 215h160l168 -223l-239 -215h-183z" />
    <glyph glyph-name="fraction" unicode="&#x2044;" horiz-adv-x="156" 
d="M-289 0l641 688h129l-641 -688h-129z" />
    <glyph glyph-name="uni2070" unicode="&#x2070;" horiz-adv-x="379" 
d="M93 551q0 115 56.5 192t139.5 77q62 0 97 -40t35 -111q0 -115 -56.5 -192t-139.5 -77q-62 0 -97 40t-35 111zM206 555q0 -58 30 -58t51 49t21 119q0 58 -30 58q-29 0 -50.5 -49t-21.5 -119z" />
    <glyph glyph-name="uni2074" unicode="&#x2074;" horiz-adv-x="358" 
d="M205 407l16 85h-163l15 81l219 240h98l-44 -234h55l-16 -87h-56l-16 -85h-108zM178 579h59l16 80z" />
    <glyph glyph-name="uni2075" unicode="&#x2075;" horiz-adv-x="320" 
d="M374 813l-19 -97h-128l-9 -47h14q53 0 86 -31t33 -83q0 -68 -51.5 -111.5t-130.5 -43.5q-53 0 -104 27l19 99q43 -29 85 -29q28 0 47 13.5t19 33.5q0 18 -17.5 30t-43.5 12q-33 0 -72 -10l44 237h228z" />
    <glyph glyph-name="uni2076" unicode="&#x2076;" horiz-adv-x="360" 
d="M244 813h151q-109 -71 -158 -139q19 5 42 5q48 0 81 -34.5t33 -85.5q0 -69 -49 -114t-123 -45q-59 0 -99 39t-40 102q0 70 43 142t119 130zM197 568q-5 -13 -5 -25q0 -20 11.5 -33t29.5 -13q22 0 35.5 14.5t13.5 36.5q0 17 -11 27t-29 10q-20 0 -45 -17z" />
    <glyph glyph-name="uni2077" unicode="&#x2077;" horiz-adv-x="294" 
d="M54 407l185 309h-153l19 97h283l-14 -72l-197 -334h-123z" />
    <glyph glyph-name="uni2078" unicode="&#x2078;" horiz-adv-x="359" 
d="M119 690q0 56 45.5 93t115.5 37q56 0 92.5 -30t36.5 -76q0 -68 -69 -102q45 -23 45 -78q0 -58 -48.5 -96t-123.5 -38q-59 0 -98 31t-39 77q0 37 21.5 66.5t57.5 42.5q-36 23 -36 73zM187 522q0 -15 10.5 -24.5t26.5 -9.5q22 0 36 14t14 36q0 14 -10.5 23t-25.5 9
q-22 0 -36.5 -13.5t-14.5 -34.5zM223 687q0 -13 10.5 -22t24.5 -9q19 0 32 12.5t13 31.5q0 14 -9.5 23t-24.5 9q-20 0 -33 -13t-13 -32z" />
    <glyph glyph-name="uni2079" unicode="&#x2079;" horiz-adv-x="360" 
d="M249 407h-151q109 71 159 139q-20 -5 -41 -5q-48 0 -81.5 34.5t-33.5 85.5q0 69 49 114t123 45q59 0 99 -39t40 -102q0 -70 -43.5 -142t-119.5 -130zM296 652q5 13 5 25q0 20 -11.5 33t-28.5 13q-22 0 -36 -14.5t-14 -36.5q0 -17 11 -27t30 -10q22 0 44 17z" />
    <glyph glyph-name="uni207A" unicode="&#x207a;" horiz-adv-x="344" 
d="M92 561v98h99v99h98v-99h99v-98h-99v-99h-98v99h-99z" />
    <glyph glyph-name="uni207B" unicode="&#x207b;" horiz-adv-x="344" 
d="M92 561v98h296v-98h-296z" />
    <glyph glyph-name="uni207C" unicode="&#x207c;" horiz-adv-x="344" 
d="M92 495v97h296v-97h-296zM92 628v97h296v-97h-296z" />
    <glyph glyph-name="uni207D" unicode="&#x207d;" horiz-adv-x="220" 
d="M92 561q0 173 129 308h129q-147 -127 -147 -304q0 -118 48 -214h-107q-52 101 -52 210z" />
    <glyph glyph-name="uni207E" unicode="&#x207e;" horiz-adv-x="220" 
d="M259 660q0 -173 -130 -309h-129q147 128 147 304q0 118 -48 214h108q52 -101 52 -209z" />
    <glyph glyph-name="uni2080" unicode="&#x2080;" horiz-adv-x="379" 
d="M-7 19q0 115 56.5 192t139.5 77q62 0 97 -40t35 -111q0 -115 -56.5 -192t-139.5 -77q-62 0 -97 40t-35 111zM106 23q0 -58 30 -58t51 49t21 119q0 58 -30 58q-29 0 -50.5 -49t-21.5 -119z" />
    <glyph glyph-name="uni2081" unicode="&#x2081;" horiz-adv-x="280" 
d="M38 -125l53 280l-99 -38l20 105l148 59h71l-76 -406h-117z" />
    <glyph glyph-name="uni2082" unicode="&#x2082;" horiz-adv-x="319" 
d="M-53 -125l14 73q80 47 133.5 103t53.5 92q0 45 -45 45q-43 0 -95 -35l20 108q54 27 115 27q56 0 90 -32.5t34 -87.5q0 -45 -37 -98t-99 -98h103l-18 -97h-269z" />
    <glyph glyph-name="uni2083" unicode="&#x2083;" horiz-adv-x="315" 
d="M55 36l17 90h19q26 0 42 11t16 28q0 13 -10.5 21t-27.5 8q-45 0 -95 -29l19 103q51 20 101 20q56 0 91 -28t35 -74q0 -36 -20 -64.5t-55 -41.5q53 -25 53 -80q0 -56 -46.5 -94t-116.5 -38q-67 0 -120 32l18 98q47 -36 97 -36q20 0 36 12t16 28t-13 25t-35 9h-21z" />
    <glyph glyph-name="uni2084" unicode="&#x2084;" horiz-adv-x="358" 
d="M105 -125l16 85h-163l15 81l219 240h98l-44 -234h55l-16 -87h-56l-16 -85h-108zM78 47h59l16 80z" />
    <glyph glyph-name="uni2085" unicode="&#x2085;" horiz-adv-x="320" 
d="M274 281l-19 -97h-128l-9 -47h14q53 0 86 -31t33 -83q0 -68 -51.5 -111.5t-130.5 -43.5q-53 0 -104 27l19 99q43 -29 85 -29q28 0 47 13.5t19 33.5q0 18 -17.5 30t-43.5 12q-33 0 -72 -10l44 237h228z" />
    <glyph glyph-name="uni2086" unicode="&#x2086;" horiz-adv-x="360" 
d="M144 281h151q-109 -71 -158 -139q19 5 42 5q48 0 81 -34.5t33 -85.5q0 -69 -49 -114t-123 -45q-59 0 -99 39t-40 102q0 70 43 142t119 130zM97 36q-5 -13 -5 -25q0 -20 11.5 -33t29.5 -13q22 0 35.5 14.5t13.5 36.5q0 17 -11 27t-29 10q-20 0 -45 -17z" />
    <glyph glyph-name="uni2087" unicode="&#x2087;" horiz-adv-x="294" 
d="M-46 -125l185 309h-153l19 97h283l-14 -72l-197 -334h-123z" />
    <glyph glyph-name="uni2088" unicode="&#x2088;" horiz-adv-x="359" 
d="M19 158q0 56 45.5 93t115.5 37q56 0 92.5 -30t36.5 -76q0 -68 -69 -102q45 -23 45 -78q0 -58 -48.5 -96t-123.5 -38q-59 0 -98 31t-39 77q0 37 21.5 66.5t57.5 42.5q-36 23 -36 73zM87 -10q0 -15 10.5 -24.5t26.5 -9.5q22 0 36 14t14 36q0 14 -10.5 23t-25.5 9
q-22 0 -36.5 -13.5t-14.5 -34.5zM123 155q0 -13 10.5 -22t24.5 -9q19 0 32 12.5t13 31.5q0 14 -9.5 23t-24.5 9q-20 0 -33 -13t-13 -32z" />
    <glyph glyph-name="uni2089" unicode="&#x2089;" horiz-adv-x="360" 
d="M149 -125h-151q109 71 159 139q-20 -5 -41 -5q-48 0 -81.5 34.5t-33.5 85.5q0 69 49 114t123 45q59 0 99 -39t40 -102q0 -70 -43.5 -142t-119.5 -130zM196 120q5 13 5 25q0 20 -11.5 33t-28.5 13q-22 0 -36 -14.5t-14 -36.5q0 -17 11 -27t30 -10q22 0 44 17z" />
    <glyph glyph-name="uni208A" unicode="&#x208a;" horiz-adv-x="344" 
d="M-8 29v98h99v99h98v-99h99v-98h-99v-99h-98v99h-99z" />
    <glyph glyph-name="uni208B" unicode="&#x208b;" horiz-adv-x="344" 
d="M-8 29v98h296v-98h-296z" />
    <glyph glyph-name="uni208C" unicode="&#x208c;" horiz-adv-x="344" 
d="M-8 -37v97h296v-97h-296zM-8 96v97h296v-97h-296z" />
    <glyph glyph-name="uni208D" unicode="&#x208d;" horiz-adv-x="220" 
d="M-8 29q0 173 129 308h129q-147 -127 -147 -304q0 -118 48 -214h-107q-52 101 -52 210z" />
    <glyph glyph-name="uni208E" unicode="&#x208e;" horiz-adv-x="220" 
d="M159 128q0 -173 -130 -309h-129q147 128 147 304q0 118 -48 214h108q52 -101 52 -209z" />
    <glyph glyph-name="Euro" unicode="&#x20ac;" 
d="M0 212l21 109h49q2 19 8 47h-49l21 108h62q47 104 131.5 164t188.5 60q93 0 176 -43l-26 -138q-67 45 -138 45q-97 0 -158 -88h201l-21 -108h-226q-4 -17 -8 -47h225l-20 -109h-199q31 -88 135 -88q71 0 141 35l-27 -143q-81 -28 -161 -28q-100 0 -171.5 62.5
t-85.5 161.5h-69z" />
    <glyph glyph-name="afii61289" unicode="&#x2113;" horiz-adv-x="421" 
d="M331 140l-24 -136q-48 -16 -104 -16q-71 0 -115 40.5t-44 104.5q0 17 3 35l73 388q16 83 64.5 129t120.5 46q67 0 109 -42.5t42 -109.5q0 -175 -230 -325l-11 -63q-3 -12 -3 -24q0 -19 12.5 -31t32.5 -12q32 0 74 16zM348 560q0 39 -27 39q-29 0 -39 -51l-26 -135
q92 76 92 147z" />
    <glyph glyph-name="numero" unicode="&#x2116;" horiz-adv-x="1132" 
d="M35 0l129 688h136l215 -428l79 428h156l-129 -688h-136l-215 428l-79 -428h-156zM778 237l17 89h320l-17 -89h-320zM824 504q0 83 54.5 137.5t139.5 54.5q64 0 105 -38.5t41 -97.5q0 -84 -55 -138t-140 -54q-63 0 -104 38.5t-41 97.5zM939 512q0 -23 12 -37t32 -14
q28 0 46.5 25.5t18.5 65.5q0 22 -12 36t-31 14q-28 0 -47 -25.5t-19 -64.5z" />
    <glyph glyph-name="uni2117" unicode="&#x2117;" horiz-adv-x="845" 
d="M81 344q0 158 100.5 259t258.5 101t259 -101t101 -259t-101 -259t-259 -101t-258.5 101t-100.5 259zM166 344q0 -120 77 -197.5t197 -77.5q121 0 198 77.5t77 197.5t-77 197.5t-198 77.5q-120 0 -197 -77.5t-77 -197.5zM307 141v406h168q65 0 107 -38.5t42 -97.5
q0 -60 -42 -98.5t-107 -38.5h-54v-133h-114zM421 456v-89h38q21 0 35 12.5t14 31.5t-14 32t-35 13h-38z" />
    <glyph glyph-name="uni2120" unicode="&#x2120;" horiz-adv-x="876" 
d="M83 301v100q57 -35 117 -35q23 0 38 10.5t15 26.5q0 15 -18.5 24.5t-45 17.5t-53 20t-45 38.5t-18.5 65.5q0 56 44 91t114 35q59 0 117 -21v-100q-51 30 -108 30q-23 0 -37 -9.5t-14 -24.5q0 -14 18.5 -23.5t45 -17.5t53 -19.5t45 -38.5t18.5 -67q0 -57 -45 -93t-116 -36
q-66 0 -125 26zM446 282v406h99l113 -151l112 151h100v-406h-108v222l-70 -93h-68l-70 93v-222h-108z" />
    <glyph glyph-name="trademark" unicode="&#x2122;" horiz-adv-x="902" 
d="M174 282v311h-111v95h340v-95h-113v-311h-116zM472 282v406h99l113 -151l112 151h99v-406h-107v222l-70 -93h-68l-70 93v-222h-108z" />
    <glyph glyph-name="Omega" unicode="&#x2126;" horiz-adv-x="781" 
d="M-16 0l25 132h152q-75 111 -75 243q0 142 103 233.5t265 91.5q126 0 211 -75.5t85 -190.5q0 -81 -42 -159t-120 -143h139l-24 -132h-324l18 93q84 69 133.5 154.5t49.5 163.5q0 67 -40 108t-102 41q-88 0 -138.5 -59t-50.5 -157q0 -140 61 -251l-18 -93h-308z" />
    <glyph glyph-name="estimated" unicode="&#x212e;" horiz-adv-x="938" 
d="M113 344q0 148 114.5 252t276.5 104t276.5 -104t114.5 -252v-16h-641v-191q46 -55 111 -86t139 -31q76 0 142 32t111 89h68q-54 -71 -138.5 -112t-182.5 -41q-162 0 -276.5 104.5t-114.5 251.5zM254 551v-191h500v191q-45 55 -110.5 86.5t-139.5 31.5t-139 -31.5
t-111 -86.5z" />
    <glyph glyph-name="onethird" unicode="&#x2153;" horiz-adv-x="845" 
d="M147 282l53 280l-99 -38l20 105l148 59h71l-76 -406h-117zM55 0l641 688h129l-641 -688h-129zM594 161l17 90h19q26 0 42 11t16 28q0 13 -10.5 21t-27.5 8q-45 0 -95 -29l19 103q51 20 101 20q56 0 91 -28t35 -74q0 -36 -20 -64.5t-55 -41.5q53 -25 53 -80
q0 -56 -46.5 -94t-116.5 -38q-67 0 -120 32l18 98q47 -36 97 -36q20 0 36 12t16 28t-13 25t-35 9h-21z" />
    <glyph glyph-name="twothirds" unicode="&#x2154;" horiz-adv-x="845" 
d="M37 282l14 73q80 47 133.5 103t53.5 92q0 45 -45 45q-43 0 -95 -35l20 108q54 27 115 27q56 0 90 -32.5t34 -87.5q0 -45 -37 -98t-99 -98h103l-18 -97h-269zM55 0l641 688h129l-641 -688h-129zM594 161l17 90h19q26 0 42 11t16 28q0 13 -10.5 21t-27.5 8q-45 0 -95 -29
l19 103q51 20 101 20q56 0 91 -28t35 -74q0 -36 -20 -64.5t-55 -41.5q53 -25 53 -80q0 -56 -46.5 -94t-116.5 -38q-67 0 -120 32l18 98q47 -36 97 -36q20 0 36 12t16 28t-13 25t-35 9h-21z" />
    <glyph glyph-name="uni2155" unicode="&#x2155;" horiz-adv-x="845" 
d="M147 282l53 280l-99 -38l20 105l148 59h71l-76 -406h-117zM55 0l641 688h129l-641 -688h-129zM811 406l-19 -97h-128l-9 -47h14q53 0 86 -31t33 -83q0 -68 -51.5 -111.5t-130.5 -43.5q-53 0 -104 27l19 99q43 -29 85 -29q28 0 47 13.5t19 33.5q0 18 -17.5 30t-43.5 12
q-33 0 -72 -10l44 237h228z" />
    <glyph glyph-name="uni2156" unicode="&#x2156;" horiz-adv-x="845" 
d="M37 282l14 73q80 47 133.5 103t53.5 92q0 45 -45 45q-43 0 -95 -35l20 108q54 27 115 27q56 0 90 -32.5t34 -87.5q0 -45 -37 -98t-99 -98h103l-18 -97h-269zM55 0l641 688h129l-641 -688h-129zM811 406l-19 -97h-128l-9 -47h14q53 0 86 -31t33 -83q0 -68 -51.5 -111.5
t-130.5 -43.5q-53 0 -104 27l19 99q43 -29 85 -29q28 0 47 13.5t19 33.5q0 18 -17.5 30t-43.5 12q-33 0 -72 -10l44 237h228z" />
    <glyph glyph-name="uni2157" unicode="&#x2157;" horiz-adv-x="845" 
d="M147 443l17 90h19q26 0 42 11t16 28q0 13 -10.5 21t-27.5 8q-45 0 -95 -29l19 103q51 20 101 20q56 0 91 -28t35 -74q0 -36 -20 -64.5t-55 -41.5q53 -25 53 -80q0 -56 -46.5 -94t-116.5 -38q-67 0 -120 32l18 98q47 -36 97 -36q20 0 36 12t16 28t-13 25t-35 9h-21zM55 0
l641 688h129l-641 -688h-129zM811 406l-19 -97h-128l-9 -47h14q53 0 86 -31t33 -83q0 -68 -51.5 -111.5t-130.5 -43.5q-53 0 -104 27l19 99q43 -29 85 -29q28 0 47 13.5t19 33.5q0 18 -17.5 30t-43.5 12q-33 0 -72 -10l44 237h228z" />
    <glyph glyph-name="uni2158" unicode="&#x2158;" horiz-adv-x="845" 
d="M175 282l16 85h-163l15 81l219 240h98l-44 -234h55l-16 -87h-56l-16 -85h-108zM148 454h59l16 80zM55 0l641 688h129l-641 -688h-129zM811 406l-19 -97h-128l-9 -47h14q53 0 86 -31t33 -83q0 -68 -51.5 -111.5t-130.5 -43.5q-53 0 -104 27l19 99q43 -29 85 -29
q28 0 47 13.5t19 33.5q0 18 -17.5 30t-43.5 12q-33 0 -72 -10l44 237h228z" />
    <glyph glyph-name="uni2159" unicode="&#x2159;" horiz-adv-x="845" 
d="M147 282l53 280l-99 -38l20 105l148 59h71l-76 -406h-117zM55 0l641 688h129l-641 -688h-129zM661 406h151q-109 -71 -158 -139q19 5 42 5q48 0 81 -34.5t33 -85.5q0 -69 -49 -114t-123 -45q-59 0 -99 39t-40 102q0 70 43 142t119 130zM614 161q-5 -13 -5 -25
q0 -20 11.5 -33t29.5 -13q22 0 35.5 14.5t13.5 36.5q0 17 -11 27t-29 10q-20 0 -45 -17z" />
    <glyph glyph-name="uni215A" unicode="&#x215a;" horiz-adv-x="845" 
d="M363 688l-19 -97h-128l-9 -47h14q53 0 86 -31t33 -83q0 -68 -51.5 -111.5t-130.5 -43.5q-53 0 -104 27l19 99q43 -29 85 -29q28 0 47 13.5t19 33.5q0 18 -17.5 30t-43.5 12q-33 0 -72 -10l44 237h228zM55 0l641 688h129l-641 -688h-129zM661 406h151q-109 -71 -158 -139
q19 5 42 5q48 0 81 -34.5t33 -85.5q0 -69 -49 -114t-123 -45q-59 0 -99 39t-40 102q0 70 43 142t119 130zM614 161q-5 -13 -5 -25q0 -20 11.5 -33t29.5 -13q22 0 35.5 14.5t13.5 36.5q0 17 -11 27t-29 10q-20 0 -45 -17z" />
    <glyph glyph-name="oneeighth" unicode="&#x215b;" horiz-adv-x="845" 
d="M147 282l53 280l-99 -38l20 105l148 59h71l-76 -406h-117zM55 0l641 688h129l-641 -688h-129zM536 283q0 56 45.5 93t115.5 37q56 0 92.5 -30t36.5 -76q0 -68 -69 -102q45 -23 45 -78q0 -58 -48.5 -96t-123.5 -38q-59 0 -98 31t-39 77q0 37 21.5 66.5t57.5 42.5
q-36 23 -36 73zM604 115q0 -15 10.5 -24.5t26.5 -9.5q22 0 36 14t14 36q0 14 -10.5 23t-25.5 9q-22 0 -36.5 -13.5t-14.5 -34.5zM640 280q0 -13 10.5 -22t24.5 -9q19 0 32 12.5t13 31.5q0 14 -9.5 23t-24.5 9q-20 0 -33 -13t-13 -32z" />
    <glyph glyph-name="threeeighths" unicode="&#x215c;" horiz-adv-x="845" 
d="M144 443l17 90h19q26 0 42 11t16 28q0 13 -10.5 21t-27.5 8q-45 0 -95 -29l19 103q51 20 101 20q56 0 91 -28t35 -74q0 -36 -20 -64.5t-55 -41.5q53 -25 53 -80q0 -56 -46.5 -94t-116.5 -38q-67 0 -120 32l18 98q47 -36 97 -36q20 0 36 12t16 28t-13 25t-35 9h-21zM55 0
l641 688h129l-641 -688h-129zM536 283q0 56 45.5 93t115.5 37q56 0 92.5 -30t36.5 -76q0 -68 -69 -102q45 -23 45 -78q0 -58 -48.5 -96t-123.5 -38q-59 0 -98 31t-39 77q0 37 21.5 66.5t57.5 42.5q-36 23 -36 73zM604 115q0 -15 10.5 -24.5t26.5 -9.5q22 0 36 14t14 36
q0 14 -10.5 23t-25.5 9q-22 0 -36.5 -13.5t-14.5 -34.5zM640 280q0 -13 10.5 -22t24.5 -9q19 0 32 12.5t13 31.5q0 14 -9.5 23t-24.5 9q-20 0 -33 -13t-13 -32z" />
    <glyph glyph-name="fiveeighths" unicode="&#x215d;" horiz-adv-x="845" 
d="M363 688l-19 -97h-128l-9 -47h14q53 0 86 -31t33 -83q0 -68 -51.5 -111.5t-130.5 -43.5q-53 0 -104 27l19 99q43 -29 85 -29q28 0 47 13.5t19 33.5q0 18 -17.5 30t-43.5 12q-33 0 -72 -10l44 237h228zM55 0l641 688h129l-641 -688h-129zM536 283q0 56 45.5 93t115.5 37
q56 0 92.5 -30t36.5 -76q0 -68 -69 -102q45 -23 45 -78q0 -58 -48.5 -96t-123.5 -38q-59 0 -98 31t-39 77q0 37 21.5 66.5t57.5 42.5q-36 23 -36 73zM604 115q0 -15 10.5 -24.5t26.5 -9.5q22 0 36 14t14 36q0 14 -10.5 23t-25.5 9q-22 0 -36.5 -13.5t-14.5 -34.5zM640 280
q0 -13 10.5 -22t24.5 -9q19 0 32 12.5t13 31.5q0 14 -9.5 23t-24.5 9q-20 0 -33 -13t-13 -32z" />
    <glyph glyph-name="seveneighths" unicode="&#x215e;" horiz-adv-x="845" 
d="M57 282l185 309h-153l19 97h283l-14 -72l-197 -334h-123zM55 0l641 688h129l-641 -688h-129zM536 283q0 56 45.5 93t115.5 37q56 0 92.5 -30t36.5 -76q0 -68 -69 -102q45 -23 45 -78q0 -58 -48.5 -96t-123.5 -38q-59 0 -98 31t-39 77q0 37 21.5 66.5t57.5 42.5
q-36 23 -36 73zM604 115q0 -15 10.5 -24.5t26.5 -9.5q22 0 36 14t14 36q0 14 -10.5 23t-25.5 9q-22 0 -36.5 -13.5t-14.5 -34.5zM640 280q0 -13 10.5 -22t24.5 -9q19 0 32 12.5t13 31.5q0 14 -9.5 23t-24.5 9q-20 0 -33 -13t-13 -32z" />
    <glyph glyph-name="uni215F" unicode="&#x215f;" horiz-adv-x="500" 
d="M147 282l53 280l-99 -38l20 105l148 59h71l-76 -406h-117zM55 0l641 688h129l-641 -688h-129z" />
    <glyph glyph-name="arrowleft" unicode="&#x2190;" horiz-adv-x="1000" 
d="M937 205h-579l205 -205h-218l-282 282l282 282h218l-205 -205h579v-154z" />
    <glyph glyph-name="arrowup" unicode="&#x2191;" horiz-adv-x="1000" 
d="M423 -155v579l-205 -205v218l282 282l282 -282v-218l-205 205v-579h-154z" />
    <glyph glyph-name="arrowright" unicode="&#x2192;" horiz-adv-x="1000" 
d="M63 359h579l-205 205h218l282 -282l-282 -282h-218l205 205h-579v154z" />
    <glyph glyph-name="arrowdown" unicode="&#x2193;" horiz-adv-x="1000" 
d="M577 719v-579l205 205v-218l-282 -282l-282 282v218l205 -205v579h154z" />
    <glyph glyph-name="uni2196" unicode="&#x2196;" horiz-adv-x="1000" 
d="M754 -82l-408 409v-290l-155 155v399h399l155 -155h-290l409 -408z" />
    <glyph glyph-name="uni2197" unicode="&#x2197;" horiz-adv-x="1000" 
d="M136 28l409 408h-290l155 155h399v-399l-155 -155v290l-408 -409z" />
    <glyph glyph-name="uni2198" unicode="&#x2198;" horiz-adv-x="1000" 
d="M246 646l408 -409v290l155 -155v-399h-399l-155 155h290l-409 408z" />
    <glyph glyph-name="uni2199" unicode="&#x2199;" horiz-adv-x="1000" 
d="M864 536l-409 -408h290l-155 -155h-399v399l155 155v-290l408 409z" />
    <glyph glyph-name="partialdiff" unicode="&#x2202;" horiz-adv-x="601" 
d="M46 258q0 111 67.5 182.5t171.5 71.5q61 0 108 -32q-10 57 -44.5 88t-83.5 31q-78 0 -156 -47v140q84 39 180 39q125 0 206.5 -105t81.5 -270q0 -163 -77.5 -265.5t-199.5 -102.5q-111 0 -182.5 76t-71.5 194zM210 254q0 -58 26.5 -94t67.5 -36q48 0 77.5 44t29.5 121
q0 16 -4 48q-48 39 -95 39q-44 0 -73 -34t-29 -88z" />
    <glyph glyph-name="Delta" unicode="&#x2206;" horiz-adv-x="656" 
d="M-12 0l18 93l336 595h140l117 -603l-16 -85h-595zM381 467l-180 -335h234z" />
    <glyph glyph-name="product" unicode="&#x220f;" horiz-adv-x="797" 
d="M82 -219v938h633v-938h-167v807h-299v-807h-167z" />
    <glyph glyph-name="summation" unicode="&#x2211;" horiz-adv-x="688" 
d="M63 -219v97l294 378l-279 367v96h548v-131h-335l216 -285v-94l-231 -296h365v-132h-578z" />
    <glyph glyph-name="minus" unicode="&#x2212;" 
d="M37 212v139h501v-139h-501z" />
    <glyph glyph-name="uni2215" unicode="&#x2215;" horiz-adv-x="156" 
d="M-289 0l641 688h129l-641 -688h-129z" />
    <glyph glyph-name="uni2219" unicode="&#x2219;" horiz-adv-x="250" 
d="M32 240q0 45 29 74.5t74 29.5q36 0 59.5 -23.5t23.5 -60.5q0 -44 -29.5 -73.5t-73.5 -29.5q-37 0 -60 23.5t-23 59.5z" />
    <glyph glyph-name="radical" unicode="&#x221a;" horiz-adv-x="688" 
d="M668 719l-235 -938h-154l-100 302l-148 -49v139l232 76l86 -259l183 729h136z" />
    <glyph glyph-name="infinity" unicode="&#x221e;" horiz-adv-x="828" 
d="M37 282q0 96 56.5 157t145.5 61q51 0 95 -23t71 -67l15 -24l16 24q60 90 166 90q88 0 144.5 -61t56.5 -157t-56.5 -157.5t-144.5 -61.5q-106 0 -166 90l-16 24l-15 -24q-27 -44 -71 -67t-95 -23q-89 0 -145.5 61t-56.5 158zM181 282q0 -38 20 -62.5t51 -24.5q41 0 67 40
l31 47l-31 46q-27 41 -67 41q-31 0 -51 -24.5t-20 -62.5zM659 282q0 38 -20 62.5t-51 24.5q-40 0 -67 -41l-31 -46l31 -47q26 -40 67 -40q31 0 51 24.5t20 62.5z" />
    <glyph glyph-name="integral" unicode="&#x222b;" horiz-adv-x="500" 
d="M324 434q0 -45 11.5 -167t11.5 -178q0 -149 -60.5 -234.5t-173.5 -85.5q-45 0 -90 20l24 130q23 -14 47 -14q83 0 83 161q0 45 -12 167t-12 179q0 148 60.5 233.5t173.5 85.5q43 0 91 -19l-24 -130q-23 13 -47 13q-83 0 -83 -161z" />
    <glyph glyph-name="approxequal" unicode="&#x2248;" 
d="M37 83v142q68 45 135 45q47 0 119 -26q71 -27 116 -27q69 0 131 47v-142q-68 -45 -135 -45q-51 0 -123 26q-77 27 -112 27q-69 0 -131 -47zM37 301v140q71 47 135 47q47 0 119 -26q71 -27 116 -27q69 0 131 47v-142q-68 -45 -135 -45q-51 0 -123 26q-77 27 -112 27
q-69 0 -131 -47z" />
    <glyph glyph-name="notequal" unicode="&#x2260;" 
d="M69 0l51 103h-83v139h152l40 79h-192v139h262l52 103h155l-51 -103h83v-139h-152l-40 -79h192v-139h-262l-52 -103h-155z" />
    <glyph glyph-name="lessequal" unicode="&#x2264;" 
d="M37 0v140h501v-140h-501zM538 152l-501 212v116l501 211v-151l-284 -119l284 -118v-151z" />
    <glyph glyph-name="greaterequal" unicode="&#x2265;" 
d="M37 0v140h501v-140h-501zM37 691l501 -211v-116l-501 -212v151l284 118l-284 119v151z" />
    <glyph glyph-name="lozenge" unicode="&#x25ca;" 
d="M230 0l-196 344l196 344h139l195 -344l-195 -344h-139zM299 527l-104 -183l104 -183l105 183z" />
    <glyph glyph-name="zero.lnum_pnum" unicode="&#xe010;" horiz-adv-x="618" 
d="M54 242q0 195 94 326.5t233 131.5q103 0 160 -67t57 -187q0 -195 -94 -326.5t-233 -131.5q-103 0 -160 67t-57 187zM218 254q0 -59 18.5 -92.5t50.5 -33.5q62 0 105 89t43 217q0 58 -19 92t-51 34q-62 0 -104.5 -89t-42.5 -217z" />
    <glyph glyph-name="one.lnum_pnum" unicode="&#xe011;" horiz-adv-x="437" 
d="M137 0l95 506l-174 -71l29 152l241 101h105l-129 -688h-167z" />
    <glyph glyph-name="two.lnum_pnum" unicode="&#xe012;" horiz-adv-x="516" 
d="M-23 0l21 108q154 96 247 195.5t93 170.5q0 38 -22 60t-60 22q-82 0 -171 -60l29 153q96 51 191 51q92 0 148 -51.5t56 -136.5q0 -86 -70.5 -183t-197.5 -189h208l-26 -140h-446z" />
    <glyph glyph-name="three.lnum_pnum" unicode="&#xe013;" horiz-adv-x="508" 
d="M161 286l24 127h34q53 0 86 24.5t33 62.5q0 29 -22 46.5t-58 17.5q-77 0 -160 -47l27 148q84 35 169 35q92 0 149.5 -48t57.5 -124q0 -61 -36.5 -110.5t-97.5 -69.5q44 -19 69.5 -56.5t25.5 -84.5q0 -94 -76.5 -156.5t-193.5 -62.5q-107 0 -199 55l26 142q83 -61 165 -61
q46 0 78.5 25.5t32.5 61.5q0 34 -27 54.5t-72 20.5h-35z" />
    <glyph glyph-name="four.lnum_pnum" unicode="&#xe014;" horiz-adv-x="579" 
d="M255 0l30 157h-286l21 117l380 414h139l-76 -406h98l-23 -125h-98l-30 -157h-155zM175 282h133l34 181z" />
    <glyph glyph-name="five.lnum_pnum" unicode="&#xe015;" horiz-adv-x="516" 
d="M521 688l-27 -140h-232l-21 -112q26 2 37 2q89 0 144 -53.5t55 -138.5q0 -111 -84.5 -184.5t-212.5 -73.5q-88 0 -174 47l28 144q74 -51 146 -51q57 0 93.5 29t36.5 74q0 38 -32 62.5t-82 24.5q-59 0 -124 -16l73 386h376z" />
    <glyph glyph-name="six.lnum_pnum" unicode="&#xe016;" horiz-adv-x="578" 
d="M326 688h221q-191 -124 -278 -251q46 17 87 17q81 0 136 -57.5t55 -142.5q0 -114 -80 -190t-201 -76q-98 0 -162.5 64t-64.5 167q0 120 76 243.5t211 225.5zM210 282q-11 -31 -11 -59q0 -42 23 -68.5t60 -26.5q45 0 75.5 31.5t30.5 79.5q0 35 -22.5 57t-60.5 22
q-50 0 -95 -36z" />
    <glyph glyph-name="seven.lnum_pnum" unicode="&#xe017;" horiz-adv-x="469" 
d="M-5 0l330 548h-277l25 140h467l-20 -104l-347 -584h-178z" />
    <glyph glyph-name="eight.lnum_pnum" unicode="&#xe018;" horiz-adv-x="579" 
d="M100 483q0 93 75.5 155t188.5 62q91 0 150 -50t59 -126q0 -120 -124 -176q39 -19 61 -54.5t22 -80.5q0 -97 -79.5 -161t-202.5 -64q-95 0 -158.5 51.5t-63.5 128.5q0 64 38 115t103 73q-32 19 -50.5 52.5t-18.5 74.5zM187 188q0 -31 22 -51.5t57 -20.5q47 0 77 28t30 73
q0 31 -22.5 51t-57.5 20q-47 0 -76.5 -28t-29.5 -72zM251 479q0 -29 20.5 -48t53.5 -19q41 0 69 26.5t28 65.5q0 31 -20.5 49.5t-53.5 18.5q-41 0 -69 -26.5t-28 -66.5z" />
    <glyph glyph-name="nine.lnum_pnum" unicode="&#xe019;" horiz-adv-x="578" 
d="M289 0h-221q195 130 277 251q-44 -16 -87 -16q-81 0 -135.5 57t-54.5 142q0 115 79.5 190.5t200.5 75.5q98 0 162.5 -64t64.5 -167q0 -120 -75.5 -243.5t-210.5 -225.5zM404 407q12 29 12 58q0 42 -23.5 68.5t-59.5 26.5q-46 0 -76.5 -31.5t-30.5 -78.5q0 -35 23 -57.5
t60 -22.5q50 0 95 37z" />
    <glyph glyph-name="zero.onum_tnum" unicode="&#xe020;" 
d="M24 215q0 141 86.5 235t216.5 94q96 0 156.5 -63.5t60.5 -163.5q0 -141 -86.5 -235t-216.5 -94q-95 0 -156 63.5t-61 163.5zM188 227q0 -47 20 -75t53 -28q49 0 84.5 53.5t35.5 127.5q0 47 -20 75t-53 28q-49 0 -84.5 -53.5t-35.5 -127.5z" />
    <glyph glyph-name="one.onum_tnum" unicode="&#xe021;" 
d="M193 0l66 354l-138 -60l29 152l204 86h101l-100 -532h-162z" />
    <glyph glyph-name="two.onum_tnum" unicode="&#xe022;" 
d="M27 0l20 105q125 71 195 135t70 109q0 25 -15.5 40t-41.5 15q-64 0 -141 -51l28 151q80 40 163 40q81 0 129.5 -44t48.5 -117q0 -122 -184 -247h144l-25 -136h-391z" />
    <glyph glyph-name="three.onum_tnum" unicode="&#xe023;" 
d="M171 161l25 127h29q44 0 71.5 19t27.5 50q0 23 -18.5 37t-47.5 14q-67 0 -147 -44l28 146q81 34 155 34q86 0 139.5 -44.5t53.5 -114.5q0 -55 -32 -99t-86 -64q39 -17 61 -51.5t22 -78.5q0 -84 -71 -141t-178 -57q-95 0 -183 51l27 142q73 -57 149 -57q36 0 62 21t26 49
q0 27 -22 44t-59 17h-32z" />
    <glyph glyph-name="four.onum_tnum" unicode="&#xe024;" 
d="M220 -94l26 138h-257l21 113l343 375h139l-69 -365h87l-23 -123h-86l-27 -138h-154zM165 167h104l26 142z" />
    <glyph glyph-name="five.onum_tnum" unicode="&#xe025;" 
d="M500 532l-26 -140h-203l-16 -85q20 2 30 2q79 0 128.5 -47t49.5 -121q0 -108 -77 -177.5t-198 -69.5q-78 0 -161 43l28 144q70 -47 133 -47q49 0 78.5 23t29.5 60q0 32 -27 52t-70 20q-51 0 -113 -15l66 358h348z" />
    <glyph glyph-name="six.onum_tnum" unicode="&#xe026;" 
d="M296 626h219q-170 -113 -248 -220q42 10 71 10q75 0 125 -52.5t50 -130.5q0 -106 -74 -175.5t-187 -69.5q-90 0 -150.5 59.5t-60.5 155.5q0 108 67.5 220t187.5 203zM210 252q-10 -20 -10 -45q0 -34 19.5 -56.5t50.5 -22.5q36 0 60.5 25t24.5 64q0 29 -18.5 46.5
t-49.5 17.5q-40 0 -77 -29z" />
    <glyph glyph-name="seven.onum_tnum" unicode="&#xe027;" 
d="M34 -94l292 486h-244l26 140h432l-20 -105l-308 -521h-178z" />
    <glyph glyph-name="eight.onum_tnum" unicode="&#xe028;" 
d="M100 438q0 84 71 141.5t175 57.5q85 0 139.5 -46.5t54.5 -117.5q0 -105 -111 -158q34 -17 53.5 -49t19.5 -72q0 -89 -74.5 -147.5t-187.5 -58.5q-89 0 -147 48t-58 120q0 55 34.5 100.5t91.5 68.5q-27 17 -44 47.5t-17 65.5zM195 174q0 -25 17.5 -41.5t44.5 -16.5
q37 0 61.5 23.5t24.5 59.5q0 25 -17.5 41.5t-44.5 16.5q-38 0 -62 -23.5t-24 -59.5zM251 434q0 -23 17 -38.5t42 -15.5q34 0 56 21.5t22 54.5q0 23 -16.5 38t-42.5 15q-34 0 -56 -21t-22 -54z" />
    <glyph glyph-name="nine.onum_tnum" unicode="&#xe029;" 
d="M272 -94h-219q169 111 248 220q-42 -10 -71 -10q-75 0 -125 52.5t-50 130.5q0 106 74 175.5t187 69.5q90 0 150.5 -60t60.5 -156q0 -108 -67.5 -219.5t-187.5 -202.5zM358 280q10 20 10 45q0 34 -19.5 56.5t-50.5 22.5q-36 0 -60.5 -25t-24.5 -64q0 -29 18.5 -46.5
t49.5 -17.5q40 0 77 29z" />
    <glyph glyph-name="dollar.onum" unicode="&#xe02a;" 
d="M134 -164l26 142q-57 11 -111 38l26 139q79 -52 158 -52q32 0 50.5 13t18.5 36q0 20 -20 35.5t-49 29t-58 31t-49 50t-20 77.5q0 69 43 116t119 63l27 142h139l-27 -142q53 -11 100 -34l-26 -138q-76 47 -145 47q-29 0 -46 -12.5t-17 -33.5q0 -18 20 -32t48.5 -27.5
t57.5 -31.5t49 -52t20 -80q0 -71 -45 -120t-124 -63l-26 -141h-139z" />
    <glyph glyph-name="cent.onum" unicode="&#xe02b;" 
d="M177 -109l28 152q-56 23 -89.5 72t-33.5 112q0 102 57 175t151 95l28 144h138l-27 -146q40 -9 79 -30l-25 -136q-57 40 -112 40t-88.5 -34t-33.5 -89q0 -37 24 -60t63 -23q58 0 122 33l-26 -139q-40 -18 -90 -26l-26 -140h-139z" />
    <glyph glyph-name="Euro.onum" unicode="&#xe02c;" 
d="M23 189l20 104h39q4 29 7 39h-38l19 105h52q43 93 120 146.5t172 53.5q86 0 165 -39l-26 -138q-59 41 -127 41q-80 0 -127 -64h177l-20 -105h-206q-4 -17 -6 -39h205l-20 -104h-176q29 -65 115 -65q64 0 128 31l-27 -141q-76 -26 -148 -26q-92 0 -158.5 56t-80.5 145h-59
z" />
    <glyph glyph-name="sterling.onum" unicode="&#xe02d;" 
d="M20 0l19 105l70 148h-39l25 131h75l50 106q69 147 206 147q62 0 123 -27l-25 -132q-38 20 -70 20q-52 0 -76 -51l-28 -63h96l-25 -131h-134l-54 -117h250l-26 -136h-437z" />
    <glyph glyph-name="yen.onum" unicode="&#xe02e;" 
d="M153 0l19 99h-120l19 108h121l9 47h-120l20 109h76l-104 263h172l62 -197l134 197h195l-200 -263h71l-20 -109h-124l-9 -47h124l-21 -108h-123l-18 -99h-163z" />
    <glyph glyph-name="zero.onum_pnum" unicode="&#xe030;" horiz-adv-x="587" 
d="M36 215q0 141 86.5 235t216.5 94q96 0 156.5 -63.5t60.5 -163.5q0 -141 -86.5 -235t-216.5 -94q-95 0 -156 63.5t-61 163.5zM200 227q0 -47 20 -75t53 -28q49 0 84.5 53.5t35.5 127.5q0 47 -20 75t-53 28q-49 0 -84.5 -53.5t-35.5 -127.5z" />
    <glyph glyph-name="one.onum_pnum" unicode="&#xe031;" horiz-adv-x="374" 
d="M99 0l66 354l-138 -60l29 152l204 86h101l-100 -532h-162z" />
    <glyph glyph-name="two.onum_pnum" unicode="&#xe032;" horiz-adv-x="438" 
d="M-36 0l20 105q125 71 195 135t70 109q0 25 -15.5 40t-41.5 15q-64 0 -141 -51l28 151q80 40 163 40q81 0 129.5 -44t48.5 -117q0 -122 -184 -247h144l-25 -136h-391z" />
    <glyph glyph-name="three.onum_pnum" unicode="&#xe033;" horiz-adv-x="454" 
d="M116 161l25 127h29q44 0 71.5 19t27.5 50q0 23 -18.5 37t-47.5 14q-67 0 -147 -44l28 146q81 34 155 34q86 0 139.5 -44.5t53.5 -114.5q0 -55 -32 -99t-86 -64q39 -17 61 -51.5t22 -78.5q0 -84 -71 -141t-178 -57q-95 0 -183 51l27 142q73 -57 149 -57q36 0 62 21t26 49
q0 27 -22 44t-59 17h-32z" />
    <glyph glyph-name="four.onum_pnum" unicode="&#xe034;" horiz-adv-x="532" 
d="M204 -94l26 138h-257l21 113l343 375h139l-69 -365h87l-23 -123h-86l-27 -138h-154zM149 167h104l26 142z" />
    <glyph glyph-name="five.onum_pnum" unicode="&#xe035;" horiz-adv-x="461" 
d="M449 532l-26 -140h-203l-16 -85q20 2 30 2q79 0 128.5 -47t49.5 -121q0 -108 -77 -177.5t-198 -69.5q-78 0 -161 43l28 144q70 -47 133 -47q49 0 78.5 23t29.5 60q0 32 -27 52t-70 20q-51 0 -113 -15l66 358h348z" />
    <glyph glyph-name="six.onum_pnum" unicode="&#xe036;" horiz-adv-x="536" 
d="M282 626h219q-170 -113 -248 -220q42 10 71 10q75 0 125 -52.5t50 -130.5q0 -106 -74 -175.5t-187 -69.5q-90 0 -150.5 59.5t-60.5 155.5q0 108 67.5 220t187.5 203zM196 252q-10 -20 -10 -45q0 -34 19.5 -56.5t50.5 -22.5q36 0 60.5 25t24.5 64q0 29 -18.5 46.5
t-49.5 17.5q-40 0 -77 -29z" />
    <glyph glyph-name="seven.onum_pnum" unicode="&#xe037;" horiz-adv-x="430" 
d="M-32 -94l292 486h-244l26 140h432l-20 -105l-308 -521h-178z" />
    <glyph glyph-name="eight.onum_pnum" unicode="&#xe038;" horiz-adv-x="532" 
d="M84 438q0 84 71 141.5t175 57.5q85 0 139.5 -46.5t54.5 -117.5q0 -105 -111 -158q34 -17 53.5 -49t19.5 -72q0 -89 -74.5 -147.5t-187.5 -58.5q-89 0 -147 48t-58 120q0 55 34.5 100.5t91.5 68.5q-27 17 -44 47.5t-17 65.5zM179 174q0 -25 17.5 -41.5t44.5 -16.5
q37 0 61.5 23.5t24.5 59.5q0 25 -17.5 41.5t-44.5 16.5q-38 0 -62 -23.5t-24 -59.5zM235 434q0 -23 17 -38.5t42 -15.5q34 0 56 21.5t22 54.5q0 23 -16.5 38t-42.5 15q-34 0 -56 -21t-22 -54z" />
    <glyph glyph-name="nine.onum_pnum" unicode="&#xe039;" horiz-adv-x="536" 
d="M258 -94h-219q169 111 248 220q-42 -10 -71 -10q-75 0 -125 52.5t-50 130.5q0 106 74 175.5t187 69.5q90 0 150.5 -60t60.5 -156q0 -108 -67.5 -219.5t-187.5 -202.5zM344 280q10 20 10 45q0 34 -19.5 56.5t-50.5 22.5q-36 0 -60.5 -25t-24.5 -64q0 -29 18.5 -46.5
t49.5 -17.5q40 0 77 29z" />
    <glyph glyph-name="zero.numerator" unicode="&#xe040;" horiz-adv-x="379" 
d="M70 426q0 115 56.5 192t139.5 77q62 0 97 -40t35 -111q0 -115 -56.5 -192t-139.5 -77q-62 0 -97 40t-35 111zM183 430q0 -58 30 -58t51 49t21 119q0 58 -30 58q-29 0 -50.5 -49t-21.5 -119z" />
    <glyph glyph-name="one.numerator" unicode="&#xe041;" horiz-adv-x="280" 
d="M115 282l53 280l-99 -38l20 105l148 59h71l-76 -406h-117z" />
    <glyph glyph-name="two.numerator" unicode="&#xe042;" horiz-adv-x="319" 
d="M24 282l14 73q80 47 133.5 103t53.5 92q0 45 -45 45q-43 0 -95 -35l20 108q54 27 115 27q56 0 90 -32.5t34 -87.5q0 -45 -37 -98t-99 -98h103l-18 -97h-269z" />
    <glyph glyph-name="three.numerator" unicode="&#xe043;" horiz-adv-x="315" 
d="M132 443l17 90h19q26 0 42 11t16 28q0 13 -10.5 21t-27.5 8q-45 0 -95 -29l19 103q51 20 101 20q56 0 91 -28t35 -74q0 -36 -20 -64.5t-55 -41.5q53 -25 53 -80q0 -56 -46.5 -94t-116.5 -38q-67 0 -120 32l18 98q47 -36 97 -36q20 0 36 12t16 28t-13 25t-35 9h-21z" />
    <glyph glyph-name="four.numerator" unicode="&#xe044;" horiz-adv-x="358" 
d="M182 282l16 85h-163l15 81l219 240h98l-44 -234h55l-16 -87h-56l-16 -85h-108zM155 454h59l16 80z" />
    <glyph glyph-name="five.numerator" unicode="&#xe045;" horiz-adv-x="320" 
d="M351 688l-19 -97h-128l-9 -47h14q53 0 86 -31t33 -83q0 -68 -51.5 -111.5t-130.5 -43.5q-53 0 -104 27l19 99q43 -29 85 -29q28 0 47 13.5t19 33.5q0 18 -17.5 30t-43.5 12q-33 0 -72 -10l44 237h228z" />
    <glyph glyph-name="six.numerator" unicode="&#xe046;" horiz-adv-x="360" 
d="M221 688h151q-109 -71 -158 -139q19 5 42 5q48 0 81 -34.5t33 -85.5q0 -69 -49 -114t-123 -45q-59 0 -99 39t-40 102q0 70 43 142t119 130zM174 443q-5 -13 -5 -25q0 -20 11.5 -33t29.5 -13q22 0 35.5 14.5t13.5 36.5q0 17 -11 27t-29 10q-20 0 -45 -17z" />
    <glyph glyph-name="seven.numerator" unicode="&#xe047;" horiz-adv-x="294" 
d="M31 282l185 309h-153l19 97h283l-14 -72l-197 -334h-123z" />
    <glyph glyph-name="eight.numerator" unicode="&#xe048;" horiz-adv-x="359" 
d="M96 565q0 56 45.5 93t115.5 37q56 0 92.5 -30t36.5 -76q0 -68 -69 -102q45 -23 45 -78q0 -58 -48.5 -96t-123.5 -38q-59 0 -98 31t-39 77q0 37 21.5 66.5t57.5 42.5q-36 23 -36 73zM164 397q0 -15 10.5 -24.5t26.5 -9.5q22 0 36 14t14 36q0 14 -10.5 23t-25.5 9
q-22 0 -36.5 -13.5t-14.5 -34.5zM200 562q0 -13 10.5 -22t24.5 -9q19 0 32 12.5t13 31.5q0 14 -9.5 23t-24.5 9q-20 0 -33 -13t-13 -32z" />
    <glyph glyph-name="nine.numerator" unicode="&#xe049;" horiz-adv-x="360" 
d="M226 282h-151q109 71 159 139q-20 -5 -41 -5q-48 0 -81.5 34.5t-33.5 85.5q0 69 49 114t123 45q59 0 99 -39t40 -102q0 -70 -43.5 -142t-119.5 -130zM273 527q5 13 5 25q0 20 -11.5 33t-28.5 13q-22 0 -36 -14.5t-14 -36.5q0 -17 11 -27t30 -10q22 0 44 17z" />
    <glyph glyph-name="plus.numerator" unicode="&#xe04a;" horiz-adv-x="344" 
d="M69 436v98h99v99h98v-99h99v-98h-99v-99h-98v99h-99z" />
    <glyph glyph-name="minus.numerator" unicode="&#xe04b;" horiz-adv-x="344" 
d="M69 436v98h296v-98h-296z" />
    <glyph glyph-name="equal.numerator" unicode="&#xe04c;" horiz-adv-x="344" 
d="M69 370v97h296v-97h-296zM69 503v97h296v-97h-296z" />
    <glyph glyph-name="parenleft.numerator" unicode="&#xe04d;" horiz-adv-x="220" 
d="M69 436q0 173 129 308h129q-147 -127 -147 -304q0 -118 48 -214h-107q-52 101 -52 210z" />
    <glyph glyph-name="parenright.numerator" unicode="&#xe04e;" horiz-adv-x="220" 
d="M236 535q0 -173 -130 -309h-129q147 128 147 304q0 118 -48 214h108q52 -101 52 -209z" />
    <glyph glyph-name="zero.denominator" unicode="&#xe050;" horiz-adv-x="379" 
d="M17 144q0 115 56.5 192t139.5 77q62 0 97 -40t35 -111q0 -115 -56.5 -192t-139.5 -77q-62 0 -97 40t-35 111zM130 148q0 -58 30 -58t51 49t21 119q0 58 -30 58q-29 0 -50.5 -49t-21.5 -119z" />
    <glyph glyph-name="one.denominator" unicode="&#xe051;" horiz-adv-x="280" 
d="M62 0l53 280l-99 -38l20 105l148 59h71l-76 -406h-117z" />
    <glyph glyph-name="two.denominator" unicode="&#xe052;" horiz-adv-x="319" 
d="M-29 0l14 73q80 47 133.5 103t53.5 92q0 45 -45 45q-43 0 -95 -35l20 108q54 27 115 27q56 0 90 -32.5t34 -87.5q0 -45 -37 -98t-99 -98h103l-18 -97h-269z" />
    <glyph glyph-name="three.denominator" unicode="&#xe053;" horiz-adv-x="315" 
d="M79 161l17 90h19q26 0 42 11t16 28q0 13 -10.5 21t-27.5 8q-45 0 -95 -29l19 103q51 20 101 20q56 0 91 -28t35 -74q0 -36 -20 -64.5t-55 -41.5q53 -25 53 -80q0 -56 -46.5 -94t-116.5 -38q-67 0 -120 32l18 98q47 -36 97 -36q20 0 36 12t16 28t-13 25t-35 9h-21z" />
    <glyph glyph-name="four.denominator" unicode="&#xe054;" horiz-adv-x="358" 
d="M129 0l16 85h-163l15 81l219 240h98l-44 -234h55l-16 -87h-56l-16 -85h-108zM102 172h59l16 80z" />
    <glyph glyph-name="five.denominator" unicode="&#xe055;" horiz-adv-x="320" 
d="M298 406l-19 -97h-128l-9 -47h14q53 0 86 -31t33 -83q0 -68 -51.5 -111.5t-130.5 -43.5q-53 0 -104 27l19 99q43 -29 85 -29q28 0 47 13.5t19 33.5q0 18 -17.5 30t-43.5 12q-33 0 -72 -10l44 237h228z" />
    <glyph glyph-name="six.denominator" unicode="&#xe056;" horiz-adv-x="360" 
d="M168 406h151q-109 -71 -158 -139q19 5 42 5q48 0 81 -34.5t33 -85.5q0 -69 -49 -114t-123 -45q-59 0 -99 39t-40 102q0 70 43 142t119 130zM121 161q-5 -13 -5 -25q0 -20 11.5 -33t29.5 -13q22 0 35.5 14.5t13.5 36.5q0 17 -11 27t-29 10q-20 0 -45 -17z" />
    <glyph glyph-name="seven.denominator" unicode="&#xe057;" horiz-adv-x="294" 
d="M-22 0l185 309h-153l19 97h283l-14 -72l-197 -334h-123z" />
    <glyph glyph-name="eight.denominator" unicode="&#xe058;" horiz-adv-x="359" 
d="M43 283q0 56 45.5 93t115.5 37q56 0 92.5 -30t36.5 -76q0 -68 -69 -102q45 -23 45 -78q0 -58 -48.5 -96t-123.5 -38q-59 0 -98 31t-39 77q0 37 21.5 66.5t57.5 42.5q-36 23 -36 73zM111 115q0 -15 10.5 -24.5t26.5 -9.5q22 0 36 14t14 36q0 14 -10.5 23t-25.5 9
q-22 0 -36.5 -13.5t-14.5 -34.5zM147 280q0 -13 10.5 -22t24.5 -9q19 0 32 12.5t13 31.5q0 14 -9.5 23t-24.5 9q-20 0 -33 -13t-13 -32z" />
    <glyph glyph-name="nine.denominator" unicode="&#xe059;" horiz-adv-x="360" 
d="M173 0h-151q109 71 159 139q-20 -5 -41 -5q-48 0 -81.5 34.5t-33.5 85.5q0 69 49 114t123 45q59 0 99 -39t40 -102q0 -70 -43.5 -142t-119.5 -130zM220 245q5 13 5 25q0 20 -11.5 33t-28.5 13q-22 0 -36 -14.5t-14 -36.5q0 -17 11 -27t30 -10q22 0 44 17z" />
    <glyph glyph-name="plus.denominator" unicode="&#xe05a;" horiz-adv-x="344" 
d="M16 154v98h99v99h98v-99h99v-98h-99v-99h-98v99h-99z" />
    <glyph glyph-name="minus.denominator" unicode="&#xe05b;" horiz-adv-x="344" 
d="M16 154v98h296v-98h-296z" />
    <glyph glyph-name="equal.denominator" unicode="&#xe05c;" horiz-adv-x="344" 
d="M16 88v97h296v-97h-296zM16 221v97h296v-97h-296z" />
    <glyph glyph-name="parenleft.denominator" unicode="&#xe05d;" horiz-adv-x="220" 
d="M16 154q0 173 129 308h129q-147 -127 -147 -304q0 -118 48 -214h-107q-52 101 -52 210z" />
    <glyph glyph-name="parenright.denominator" unicode="&#xe05e;" horiz-adv-x="220" 
d="M183 253q0 -173 -130 -309h-129q147 128 147 304q0 118 -48 214h108q52 -101 52 -209z" />
    <glyph glyph-name="period.superior" unicode="&#xe060;" horiz-adv-x="160" 
d="M55 457q0 30 20.5 50.5t50.5 20.5q25 0 41 -16t16 -41q0 -30 -20 -50.5t-51 -20.5q-26 0 -41.5 16t-15.5 41z" />
    <glyph glyph-name="comma.superior" unicode="&#xe061;" horiz-adv-x="160" 
d="M-15 332l89 167h113l-103 -167h-99z" />
    <glyph glyph-name="period.inferior" unicode="&#xe062;" horiz-adv-x="160" 
d="M-45 -75q0 30 20.5 50.5t50.5 20.5q25 0 41 -16t16 -41q0 -30 -20 -50.5t-51 -20.5q-26 0 -41.5 16t-15.5 41z" />
    <glyph glyph-name="comma.inferior" unicode="&#xe063;" horiz-adv-x="160" 
d="M-115 -200l89 167h113l-103 -167h-99z" />
    <glyph glyph-name="period.numerator" unicode="&#xe064;" horiz-adv-x="160" 
d="M32 332q0 30 20.5 50.5t50.5 20.5q25 0 41 -16t16 -41q0 -30 -20 -50.5t-51 -20.5q-25 0 -41 15.5t-16 41.5z" />
    <glyph glyph-name="comma.numerator" unicode="&#xe065;" horiz-adv-x="160" 
d="M-38 207l89 167h113l-103 -167h-99z" />
    <glyph glyph-name="period.denominator" unicode="&#xe066;" horiz-adv-x="160" 
d="M-21 50q0 30 20.5 50.5t50.5 20.5q25 0 41 -16t16 -41q0 -30 -20 -50.5t-51 -20.5q-26 0 -41.5 15.5t-15.5 41.5z" />
    <glyph glyph-name="comma.denominator" unicode="&#xe067;" horiz-adv-x="160" 
d="M-91 -75l89 167h113l-103 -167h-99z" />
    <glyph glyph-name="onehalf.nut" unicode="&#xe080;" 
d="M272 438l53 280l-99 -38l20 105l148 59h71l-76 -406h-117zM39 297l18 94h500l-17 -94h-501zM62 -156l14 73q80 47 133.5 103t53.5 92q0 45 -45 45q-43 0 -95 -35l20 108q54 27 115 27q56 0 90 -32.5t34 -87.5q0 -45 -37 -98t-99 -98h103l-18 -97h-269z" />
    <glyph glyph-name="onethird.nut" unicode="&#xe081;" 
d="M278 438l53 280l-99 -38l20 105l148 59h71l-76 -406h-117zM39 297l18 94h500l-17 -94h-501zM173 5l17 90h19q26 0 42 11t16 28q0 13 -10.5 21t-27.5 8q-45 0 -95 -29l19 103q51 20 101 20q56 0 91 -28t35 -74q0 -36 -20 -64.5t-55 -41.5q53 -25 53 -80q0 -56 -46.5 -94
t-116.5 -38q-67 0 -120 32l18 98q47 -36 97 -36q20 0 36 12t16 28t-13 25t-35 9h-21z" />
    <glyph glyph-name="twothirds.nut" unicode="&#xe082;" 
d="M175 438l14 73q80 47 133.5 103t53.5 92q0 45 -45 45q-43 0 -95 -35l20 108q54 27 115 27q56 0 90 -32.5t34 -87.5q0 -45 -37 -98t-99 -98h103l-18 -97h-269zM39 297l18 94h500l-17 -94h-501zM173 5l17 90h19q26 0 42 11t16 28q0 13 -10.5 21t-27.5 8q-45 0 -95 -29
l19 103q51 20 101 20q56 0 91 -28t35 -74q0 -36 -20 -64.5t-55 -41.5q53 -25 53 -80q0 -56 -46.5 -94t-116.5 -38q-67 0 -120 32l18 98q47 -36 97 -36q20 0 36 12t16 28t-13 25t-35 9h-21z" />
    <glyph glyph-name="onequarter.nut" unicode="&#xe083;" 
d="M278 438l53 280l-99 -38l20 105l148 59h71l-76 -406h-117zM39 297l18 94h500l-17 -94h-501zM202 -156l16 85h-163l15 81l219 240h98l-44 -234h55l-16 -87h-56l-16 -85h-108zM175 16h59l16 80z" />
    <glyph glyph-name="quarter.nut" unicode="&#xe084;" 
d="M285 599l17 90h19q26 0 42 11t16 28q0 13 -10.5 21t-27.5 8q-45 0 -95 -29l19 103q51 20 101 20q56 0 91 -28t35 -74q0 -36 -20 -64.5t-55 -41.5q53 -25 53 -80q0 -56 -46.5 -94t-116.5 -38q-67 0 -120 32l18 98q47 -36 97 -36q20 0 36 12t16 28t-13 25t-35 9h-21z
M39 297l18 94h500l-17 -94h-501zM202 -156l16 85h-163l15 81l219 240h98l-44 -234h55l-16 -87h-56l-16 -85h-108zM175 16h59l16 80z" />
    <glyph glyph-name="onefifth.nut" unicode="&#xe085;" 
d="M278 438l53 280l-99 -38l20 105l148 59h71l-76 -406h-117zM39 297l18 94h500l-17 -94h-501zM390 250l-19 -97h-128l-9 -47h14q53 0 86 -31t33 -83q0 -68 -51.5 -111.5t-130.5 -43.5q-53 0 -104 27l19 99q43 -29 85 -29q28 0 47 13.5t19 33.5q0 18 -17.5 30t-43.5 12
q-33 0 -72 -10l44 237h228z" />
    <glyph glyph-name="twofifths.nut" unicode="&#xe086;" 
d="M175 438l14 73q80 47 133.5 103t53.5 92q0 45 -45 45q-43 0 -95 -35l20 108q54 27 115 27q56 0 90 -32.5t34 -87.5q0 -45 -37 -98t-99 -98h103l-18 -97h-269zM39 297l18 94h500l-17 -94h-501zM390 250l-19 -97h-128l-9 -47h14q53 0 86 -31t33 -83q0 -68 -51.5 -111.5
t-130.5 -43.5q-53 0 -104 27l19 99q43 -29 85 -29q28 0 47 13.5t19 33.5q0 18 -17.5 30t-43.5 12q-33 0 -72 -10l44 237h228z" />
    <glyph glyph-name="threefifths.nut" unicode="&#xe087;" 
d="M283 599l17 90h19q26 0 42 11t16 28q0 13 -10.5 21t-27.5 8q-45 0 -95 -29l19 103q51 20 101 20q56 0 91 -28t35 -74q0 -36 -20 -64.5t-55 -41.5q53 -25 53 -80q0 -56 -46.5 -94t-116.5 -38q-67 0 -120 32l18 98q47 -36 97 -36q20 0 36 12t16 28t-13 25t-35 9h-21z
M39 297l18 94h500l-17 -94h-501zM390 250l-19 -97h-128l-9 -47h14q53 0 86 -31t33 -83q0 -68 -51.5 -111.5t-130.5 -43.5q-53 0 -104 27l19 99q43 -29 85 -29q28 0 47 13.5t19 33.5q0 18 -17.5 30t-43.5 12q-33 0 -72 -10l44 237h228z" />
    <glyph glyph-name="fourfifths.nut" unicode="&#xe088;" 
d="M314 438l16 85h-163l15 81l219 240h98l-44 -234h55l-16 -87h-56l-16 -85h-108zM287 610h59l16 80zM39 297l18 94h500l-17 -94h-501zM390 250l-19 -97h-128l-9 -47h14q53 0 86 -31t33 -83q0 -68 -51.5 -111.5t-130.5 -43.5q-53 0 -104 27l19 99q43 -29 85 -29
q28 0 47 13.5t19 33.5q0 18 -17.5 30t-43.5 12q-33 0 -72 -10l44 237h228z" />
    <glyph glyph-name="onesixth.nut" unicode="&#xe089;" 
d="M278 438l53 280l-99 -38l20 105l148 59h71l-76 -406h-117zM39 297l18 94h500l-17 -94h-501zM240 250h151q-109 -71 -158 -139q19 5 42 5q48 0 81 -34.5t33 -85.5q0 -69 -49 -114t-123 -45q-59 0 -99 39t-40 102q0 70 43 142t119 130zM193 5q-5 -13 -5 -25q0 -20 11.5 -33
t29.5 -13q22 0 35.5 14.5t13.5 36.5q0 17 -11 27t-29 10q-20 0 -45 -17z" />
    <glyph glyph-name="fivesixths.nut" unicode="&#xe08a;" 
d="M502 844l-19 -97h-128l-9 -47h14q53 0 86 -31t33 -83q0 -68 -51.5 -111.5t-130.5 -43.5q-53 0 -104 27l19 99q43 -29 85 -29q28 0 47 13.5t19 33.5q0 18 -17.5 30t-43.5 12q-33 0 -72 -10l44 237h228zM39 297l18 94h500l-17 -94h-501zM240 250h151q-109 -71 -158 -139
q19 5 42 5q48 0 81 -34.5t33 -85.5q0 -69 -49 -114t-123 -45q-59 0 -99 39t-40 102q0 70 43 142t119 130zM193 5q-5 -13 -5 -25q0 -20 11.5 -33t29.5 -13q22 0 35.5 14.5t13.5 36.5q0 17 -11 27t-29 10q-20 0 -45 -17z" />
    <glyph glyph-name="oneeighth.nut" unicode="&#xe08b;" 
d="M278 438l53 280l-99 -38l20 105l148 59h71l-76 -406h-117zM39 297l18 94h500l-17 -94h-501zM115 127q0 56 45.5 93t115.5 37q56 0 92.5 -30t36.5 -76q0 -68 -69 -102q45 -23 45 -78q0 -58 -48.5 -96t-123.5 -38q-59 0 -98 31t-39 77q0 37 21.5 66.5t57.5 42.5
q-36 23 -36 73zM183 -41q0 -15 10.5 -24.5t26.5 -9.5q22 0 36 14t14 36q0 14 -10.5 23t-25.5 9q-22 0 -36.5 -13.5t-14.5 -34.5zM219 124q0 -13 10.5 -22t24.5 -9q19 0 32 12.5t13 31.5q0 14 -9.5 23t-24.5 9q-20 0 -33 -13t-13 -32z" />
    <glyph glyph-name="threeeighths.nut" unicode="&#xe08c;" 
d="M283 599l17 90h19q26 0 42 11t16 28q0 13 -10.5 21t-27.5 8q-45 0 -95 -29l19 103q51 20 101 20q56 0 91 -28t35 -74q0 -36 -20 -64.5t-55 -41.5q53 -25 53 -80q0 -56 -46.5 -94t-116.5 -38q-67 0 -120 32l18 98q47 -36 97 -36q20 0 36 12t16 28t-13 25t-35 9h-21z
M39 297l18 94h500l-17 -94h-501zM115 127q0 56 45.5 93t115.5 37q56 0 92.5 -30t36.5 -76q0 -68 -69 -102q45 -23 45 -78q0 -58 -48.5 -96t-123.5 -38q-59 0 -98 31t-39 77q0 37 21.5 66.5t57.5 42.5q-36 23 -36 73zM183 -41q0 -15 10.5 -24.5t26.5 -9.5q22 0 36 14t14 36
q0 14 -10.5 23t-25.5 9q-22 0 -36.5 -13.5t-14.5 -34.5zM219 124q0 -13 10.5 -22t24.5 -9q19 0 32 12.5t13 31.5q0 14 -9.5 23t-24.5 9q-20 0 -33 -13t-13 -32z" />
    <glyph glyph-name="fiveeighths.nut" unicode="&#xe08d;" 
d="M502 844l-19 -97h-128l-9 -47h14q53 0 86 -31t33 -83q0 -68 -51.5 -111.5t-130.5 -43.5q-53 0 -104 27l19 99q43 -29 85 -29q28 0 47 13.5t19 33.5q0 18 -17.5 30t-43.5 12q-33 0 -72 -10l44 237h228zM39 297l18 94h500l-17 -94h-501zM115 127q0 56 45.5 93t115.5 37
q56 0 92.5 -30t36.5 -76q0 -68 -69 -102q45 -23 45 -78q0 -58 -48.5 -96t-123.5 -38q-59 0 -98 31t-39 77q0 37 21.5 66.5t57.5 42.5q-36 23 -36 73zM183 -41q0 -15 10.5 -24.5t26.5 -9.5q22 0 36 14t14 36q0 14 -10.5 23t-25.5 9q-22 0 -36.5 -13.5t-14.5 -34.5zM219 124
q0 -13 10.5 -22t24.5 -9q19 0 32 12.5t13 31.5q0 14 -9.5 23t-24.5 9q-20 0 -33 -13t-13 -32z" />
    <glyph glyph-name="seveneighths.nut" unicode="&#xe08e;" 
d="M194 438l185 309h-153l19 97h283l-14 -72l-197 -334h-123zM39 297l18 94h500l-17 -94h-501zM115 127q0 56 45.5 93t115.5 37q56 0 92.5 -30t36.5 -76q0 -68 -69 -102q45 -23 45 -78q0 -58 -48.5 -96t-123.5 -38q-59 0 -98 31t-39 77q0 37 21.5 66.5t57.5 42.5
q-36 23 -36 73zM183 -41q0 -15 10.5 -24.5t26.5 -9.5q22 0 36 14t14 36q0 14 -10.5 23t-25.5 9q-22 0 -36.5 -13.5t-14.5 -34.5zM219 124q0 -13 10.5 -22t24.5 -9q19 0 32 12.5t13 31.5q0 14 -9.5 23t-24.5 9q-20 0 -33 -13t-13 -32z" />
    <glyph glyph-name="fractionone.nut" unicode="&#xe08f;" 
d="M278 438l53 280l-99 -38l20 105l148 59h71l-76 -406h-117zM39 297l18 94h500l-17 -94h-501z" />
    <glyph glyph-name="A.superior" unicode="&#xe100;" horiz-adv-x="407" 
d="M7 282l230 406h97l78 -406h-105l-10 72h-133l-38 -72h-119zM267 550l-58 -110h74z" />
    <glyph glyph-name="B.superior" unicode="&#xe101;" horiz-adv-x="391" 
d="M197 445l-14 -75h47q19 0 33 13t14 31q0 31 -36 31h-44zM56 282l76 406h157q55 0 87.5 -26.5t32.5 -70.5q0 -34 -18 -62t-50 -43q50 -23 50 -75q0 -55 -46.5 -92t-115.5 -37h-173zM226 599l-13 -67h41q19 0 31 11t12 28q0 28 -32 28h-39z" />
    <glyph glyph-name="C.superior" unicode="&#xe102;" horiz-adv-x="383" 
d="M67 446q0 110 67 179.5t170 69.5q63 0 126 -35l-18 -96q-52 34 -99 34q-57 0 -92 -38.5t-35 -100.5q0 -41 24 -64t66 -23q48 0 106 31l-20 -103q-54 -25 -120 -25q-76 0 -125.5 48.5t-49.5 122.5z" />
    <glyph glyph-name="D.superior" unicode="&#xe103;" horiz-adv-x="444" 
d="M56 282l76 406h160q77 0 124.5 -45.5t47.5 -117.5q0 -109 -64.5 -176t-169.5 -67h-174zM231 593l-40 -217h47q45 0 76 41t31 100q0 35 -19 55.5t-52 20.5h-43z" />
    <glyph glyph-name="E.superior" unicode="&#xe104;" horiz-adv-x="347" 
d="M56 282l76 406h261l-18 -95h-144l-11 -58h121l-17 -93h-122l-11 -66h148l-18 -94h-265z" />
    <glyph glyph-name="F.superior" unicode="&#xe105;" horiz-adv-x="334" 
d="M56 282l76 406h261l-18 -95h-144l-14 -77h120l-18 -95h-121l-25 -139h-117z" />
    <glyph glyph-name="G.superior" unicode="&#xe106;" horiz-adv-x="433" 
d="M440 514l-39 -212q-74 -27 -150 -27q-81 0 -132.5 48.5t-51.5 122.5q0 110 68.5 179.5t175.5 69.5q67 0 138 -40l-19 -98q-56 41 -113 41q-59 0 -96.5 -38.5t-37.5 -100.5q0 -39 24 -63t64 -24q22 0 35 3l10 52h-68l16 87h176z" />
    <glyph glyph-name="H.superior" unicode="&#xe107;" horiz-adv-x="462" 
d="M56 282l76 406h117l-29 -152h128l28 152h116l-76 -406h-116l29 159h-127l-29 -159h-117z" />
    <glyph glyph-name="I.superior" unicode="&#xe108;" horiz-adv-x="218" 
d="M56 282l76 406h117l-76 -406h-117z" />
    <glyph glyph-name="J.superior" unicode="&#xe109;" horiz-adv-x="304" 
d="M336 688l-54 -290q-11 -58 -50 -90.5t-98 -32.5q-51 0 -98 22l17 91q31 -17 61 -17q21 0 36 13t19 33l50 271h117z" />
    <glyph glyph-name="K.superior" unicode="&#xe10a;" horiz-adv-x="414" 
d="M56 282l76 406h114l-27 -145l137 145h138l-197 -204l128 -202h-129l-97 160l-29 -160h-114z" />
    <glyph glyph-name="L.superior" unicode="&#xe10b;" horiz-adv-x="322" 
d="M56 282l76 406h117l-58 -309h141l-19 -97h-257z" />
    <glyph glyph-name="M.superior" unicode="&#xe10c;" horiz-adv-x="512" 
d="M56 282l76 406h95l77 -149l131 149h108l-76 -406h-109l43 223l-81 -95h-63l-50 98l-43 -226h-108z" />
    <glyph glyph-name="N.superior" unicode="&#xe10d;" horiz-adv-x="462" 
d="M56 282l76 406h94l117 -227l42 227h107l-76 -406h-94l-115 226l-43 -226h-108z" />
    <glyph glyph-name="O.superior" unicode="&#xe10e;" horiz-adv-x="462" 
d="M67 444q0 111 67 181t172 70q79 0 127.5 -47t48.5 -123q0 -111 -66.5 -180.5t-172.5 -69.5q-78 0 -127 47t-49 122zM186 453q0 -37 19 -59t50 -22q44 0 76 42.5t32 102.5q0 37 -18.5 59t-49.5 22q-45 0 -77 -42.5t-32 -102.5z" />
    <glyph glyph-name="P.superior" unicode="&#xe10f;" horiz-adv-x="385" 
d="M56 282l76 406h157q60 0 94.5 -32t34.5 -87q0 -65 -51.5 -110t-125.5 -45h-46l-25 -132h-114zM229 596l-17 -89h32q25 0 41 14.5t16 37.5q0 37 -42 37h-30z" />
    <glyph glyph-name="Q.superior" unicode="&#xe110;" horiz-adv-x="462" 
d="M186 453q0 -37 19 -59t50 -22q44 0 76 42.5t32 102.5q0 37 -18.5 59t-49.5 22q-45 0 -77 -42.5t-32 -102.5zM67 444q0 111 67 181t172 70q79 0 128 -47t49 -123q0 -69 -28 -123.5t-77 -87.5l62 -93h-120l-36 55q-13 -1 -41 -1q-78 0 -127 47t-49 122z" />
    <glyph glyph-name="R.superior" unicode="&#xe111;" horiz-adv-x="389" 
d="M262 282l-44 137h-22l-26 -137h-114l76 406h154q59 0 93 -31.5t34 -85.5q0 -42 -24 -78t-64 -56l56 -155h-119zM229 596l-16 -85h29q24 0 39.5 14.5t15.5 35.5q0 35 -40 35h-28z" />
    <glyph glyph-name="S.superior" unicode="&#xe112;" horiz-adv-x="345" 
d="M49 307l18 96q59 -37 112 -37q23 0 36.5 10.5t13.5 27.5t-22 31t-48 24t-48 37.5t-22 67.5q0 57 45 94t119 37q61 0 121 -30l-18 -94q-54 33 -103 33q-22 0 -35.5 -10t-13.5 -25q0 -16 22 -29t48.5 -23.5t48.5 -38t22 -68.5q0 -60 -45.5 -97.5t-120.5 -37.5
q-64 0 -130 32z" />
    <glyph glyph-name="T.superior" unicode="&#xe113;" horiz-adv-x="368" 
d="M131 282l58 311h-106l18 95h330l-18 -95h-107l-59 -311h-116z" />
    <glyph glyph-name="U.superior" unicode="&#xe114;" horiz-adv-x="462" 
d="M494 688l-49 -261q-13 -71 -67 -111.5t-135 -40.5q-71 0 -116 38t-45 99q0 19 4 36l45 240h116l-46 -240q-1 -7 -1 -19q0 -26 14.5 -41.5t40.5 -15.5q29 0 49.5 18.5t26.5 50.5l47 247h116z" />
    <glyph glyph-name="V.superior" unicode="&#xe115;" horiz-adv-x="407" 
d="M486 688l-229 -406h-98l-78 406h111l38 -254l132 254h124z" />
    <glyph glyph-name="W.superior" unicode="&#xe116;" horiz-adv-x="629" 
d="M706 688l-214 -406h-103l-24 266l-121 -266h-102l-57 406h107l26 -266l119 266h103l25 -266l120 266h121z" />
    <glyph glyph-name="X.superior" unicode="&#xe117;" horiz-adv-x="418" 
d="M5 282l181 210l-97 196h120l55 -120l88 120h132l-167 -204l98 -202h-123l-53 127l-99 -127h-135z" />
    <glyph glyph-name="Y.superior" unicode="&#xe118;" horiz-adv-x="391" 
d="M139 282l31 167l-91 239h121l43 -141l92 141h138l-189 -250l-29 -156h-116z" />
    <glyph glyph-name="Z.superior" unicode="&#xe119;" horiz-adv-x="389" 
d="M32 282l14 74l217 237h-163l18 95h315l-15 -74l-217 -238h178l-17 -94h-330z" />
    <glyph glyph-name="ordfeminine.cap" unicode="&#xe11a;" horiz-adv-x="438" 
d="M-5 143l17 90h406l-16 -90h-407zM22 282l230 406h98l78 -406h-105l-11 72h-133l-38 -72h-119zM283 550l-58 -110h74z" />
    <glyph glyph-name="ordmasculine.cap" unicode="&#xe11b;" horiz-adv-x="462" 
d="M11 143l17 90h399l-17 -90h-399zM67 444q0 111 67 181t172 70q79 0 127.5 -47t48.5 -123q0 -111 -66.5 -180.5t-172.5 -69.5q-78 0 -127 47t-49 122zM186 453q0 -37 19 -59t50 -22q44 0 76 42.5t32 102.5q0 37 -18.5 59t-49.5 22q-45 0 -77 -42.5t-32 -102.5z" />
    <glyph glyph-name="registered.superior" unicode="&#xe11c;" horiz-adv-x="500" 
d="M79 485q0 95 60.5 155t154.5 60t154.5 -60t60.5 -155t-60.5 -155t-154.5 -60t-154.5 60t-60.5 155zM134 485q0 -71 45 -115.5t115 -44.5q71 0 116 45t45 115t-45 115t-116 45q-70 0 -115 -44.5t-45 -115.5zM273 553v-55h23q13 0 21.5 7.5t8.5 19.5t-8.5 20t-21.5 8h-23z
M212 368v234h93q36 0 59.5 -21.5t23.5 -55.5q0 -46 -40 -68l50 -89h-67l-43 81h-15v-81h-61z" />
    <glyph glyph-name="a.superior" unicode="&#xe120;" horiz-adv-x="383" 
d="M403 594l-58 -312h-107l3 15q-35 -23 -72 -23q-49 0 -80.5 36.5t-31.5 94.5q0 83 46 140t114 57q37 0 71 -23l3 15h112zM172 418q0 -48 40 -48q21 0 41 20l18 101q-14 14 -36 14q-27 0 -45 -25t-18 -62z" />
    <glyph glyph-name="b.superior" unicode="&#xe121;" horiz-adv-x="383" 
d="M49 282l84 449h112l-27 -148q33 19 66 19q49 0 80.5 -37t31.5 -94q0 -83 -46 -140t-114 -57q-38 0 -72 23l-3 -15h-112zM281 458q0 47 -40 47q-22 0 -42 -19l-18 -101q16 -15 37 -15q27 0 45 25t18 63z" />
    <glyph glyph-name="c.superior" unicode="&#xe122;" horiz-adv-x="317" 
d="M57 410q0 84 53.5 138t136.5 54q49 0 101 -27l-18 -93q-36 26 -74 26q-37 0 -60.5 -23.5t-23.5 -61.5q0 -25 16 -40t43 -15q40 0 82 23l-17 -97q-47 -20 -98 -20q-61 0 -101 38.5t-40 97.5z" />
    <glyph glyph-name="d.superior" unicode="&#xe123;" horiz-adv-x="383" 
d="M429 731l-84 -449h-107l3 15q-35 -23 -72 -23q-49 0 -80.5 36.5t-31.5 94.5q0 83 46 140t114 57q37 0 71 -23l29 152h112zM172 418q0 -48 40 -48q21 0 41 20l18 101q-14 14 -36 14q-27 0 -45 -25t-18 -62z" />
    <glyph glyph-name="e.superior" unicode="&#xe124;" horiz-adv-x="348" 
d="M57 407q0 84 51 139.5t130 55.5q56 0 92 -35.5t36 -91.5q0 -30 -10 -70h-193v-4q0 -42 68 -42q43 0 97 28l-17 -91q-58 -22 -113 -22q-61 0 -101 37.5t-40 95.5zM175 474h88q1 3 1 9q0 15 -9 24.5t-25 9.5q-18 0 -34 -12t-21 -31z" />
    <glyph glyph-name="f.superior" unicode="&#xe125;" horiz-adv-x="253" 
d="M51 194l58 309h-47l18 91h46l7 40q9 50 41.5 77.5t82.5 27.5q37 0 78 -15l-16 -87q-22 8 -40 8q-14 0 -24.5 -8t-12.5 -21l-4 -22h65l-17 -91h-65l-58 -309h-112z" />
    <glyph glyph-name="g.superior" unicode="&#xe126;" horiz-adv-x="383" 
d="M403 594l-58 -310q-13 -67 -62.5 -107t-120.5 -40q-65 0 -125 33l18 90q54 -35 106 -35q26 0 45.5 15t24.5 38l3 15q-33 -19 -65 -19q-49 0 -80.5 36.5t-31.5 94.5q0 83 46 140t114 57q37 0 71 -23l3 15h112zM172 418q0 -48 40 -48q21 0 41 20l18 101q-14 14 -36 14
q-27 0 -45 -25t-18 -62z" />
    <glyph glyph-name="h.superior" unicode="&#xe127;" horiz-adv-x="383" 
d="M49 282l84 449h112l-28 -155q37 26 78 26q40 0 66 -27t26 -68q0 -20 -4 -37l-36 -188h-112l34 180q1 4 1 13q0 27 -27 27q-23 0 -45 -21l-37 -199h-112z" />
    <glyph glyph-name="i.superior" unicode="&#xe128;" horiz-adv-x="198" 
d="M49 282l59 312h112l-59 -312h-112zM117 669q0 29 19.5 48.5t48.5 19.5q23 0 38 -15t15 -39q0 -29 -18.5 -48t-47.5 -19q-24 0 -39.5 14.5t-15.5 38.5z" />
    <glyph glyph-name="j.superior" unicode="&#xe129;" horiz-adv-x="198" 
d="M220 594l-67 -353q-9 -50 -41 -77t-81 -27q-37 0 -78 15l16 87q21 -8 40 -8q14 0 24 8t11 21l64 334h112zM117 669q0 29 19.5 48.5t48.5 19.5q23 0 38 -15t15 -39q0 -29 -18.5 -48t-47.5 -19q-24 0 -39.5 14.5t-15.5 38.5z" />
    <glyph glyph-name="k.superior" unicode="&#xe12a;" horiz-adv-x="350" 
d="M49 282l84 449h109l-43 -234l83 97h130l-142 -157l88 -155h-122l-57 112l-21 -112h-109z" />
    <glyph glyph-name="l.superior" unicode="&#xe12b;" horiz-adv-x="198" 
d="M49 282l84 449h112l-84 -449h-112z" />
    <glyph glyph-name="m.superior" unicode="&#xe12c;" horiz-adv-x="558" 
d="M49 282l59 312h106l-3 -20q44 28 81 28q49 0 78 -43q50 43 104 43q37 0 63.5 -27t26.5 -65q0 -13 -4 -35l-37 -193h-113l35 182q0 2 0.5 6.5t0.5 6.5q0 11 -7 18t-19 7q-21 0 -40 -18l-38 -202h-113l35 182q0 2 0.5 6.5t0.5 6.5q0 25 -26 25q-21 0 -40 -18l-38 -202h-112
z" />
    <glyph glyph-name="n.superior" unicode="&#xe12d;" horiz-adv-x="383" 
d="M49 282l59 312h106l-4 -23q43 31 85 31q40 0 66 -27t26 -68q0 -20 -4 -37l-36 -188h-112l34 180q1 4 1 13q0 27 -27 27q-23 0 -45 -21l-37 -199h-112z" />
    <glyph glyph-name="o.superior" unicode="&#xe12e;" horiz-adv-x="383" 
d="M57 410q0 84 54.5 138t139.5 54q63 0 104 -38.5t41 -97.5q0 -84 -54.5 -138t-139.5 -54q-63 0 -104 38.5t-41 97.5zM172 418q0 -22 12 -36t32 -14q27 0 45.5 25.5t18.5 64.5q0 22 -12 36t-31 14q-28 0 -46.5 -25.5t-18.5 -64.5z" />
    <glyph glyph-name="p.superior" unicode="&#xe12f;" horiz-adv-x="383" 
d="M23 145l85 449h106l-3 -15q35 23 73 23q49 0 80.5 -37t31.5 -94q0 -83 -46 -140t-114 -57q-38 0 -72 23l-29 -152h-112zM281 458q0 47 -40 47q-22 0 -42 -19l-18 -101q16 -15 37 -15q27 0 45 25t18 63z" />
    <glyph glyph-name="q.superior" unicode="&#xe130;" horiz-adv-x="383" 
d="M403 594l-84 -449h-112l27 148q-33 -19 -65 -19q-49 0 -80.5 36.5t-31.5 94.5q0 83 46 140t114 57q37 0 71 -23l3 15h112zM172 418q0 -48 40 -48q21 0 41 20l18 101q-14 14 -36 14q-27 0 -45 -25t-18 -62z" />
    <glyph glyph-name="r.superior" unicode="&#xe131;" horiz-adv-x="264" 
d="M49 282l59 312h106l-4 -25q38 33 73 33q12 0 25 -5l-18 -96q-16 2 -22 2q-37 0 -71 -31l-36 -190h-112z" />
    <glyph glyph-name="s.superior" unicode="&#xe132;" horiz-adv-x="288" 
d="M44 300l17 91q44 -29 88 -29q25 0 25 17q0 9 -16 17.5t-34.5 16.5t-34.5 29t-16 52q0 49 37.5 78.5t98.5 29.5q46 0 99 -23l-17 -91q-44 26 -82 26q-23 0 -23 -14q0 -8 16 -16.5t35 -16.5t35 -29.5t16 -53.5q0 -51 -37.5 -80.5t-101.5 -29.5q-51 0 -105 26z" />
    <glyph glyph-name="t.superior" unicode="&#xe133;" horiz-adv-x="278" 
d="M255 682l-17 -88h74l-17 -91h-74l-18 -96q-1 -5 -1 -16q0 -10 7 -16.5t18 -6.5q25 0 45 8l-17 -93q-32 -9 -66 -9q-46 0 -74.5 26t-28.5 68q0 6 2 22l21 113h-47l18 91h46l17 88h112z" />
    <glyph glyph-name="u.superior" unicode="&#xe134;" horiz-adv-x="383" 
d="M403 594l-58 -312h-107l4 23q-40 -31 -85 -31q-40 0 -66 27t-26 68q0 20 4 37l36 188h112l-34 -180q-1 -4 -1 -13q0 -28 28 -28q22 0 44 22l37 199h112z" />
    <glyph glyph-name="v.superior" unicode="&#xe135;" horiz-adv-x="339" 
d="M399 594l-176 -312h-96l-59 312h107l22 -166l82 166h120z" />
    <glyph glyph-name="w.superior" unicode="&#xe136;" horiz-adv-x="510" 
d="M567 594l-164 -312h-100l-12 179l-75 -179h-101l-44 312h104l13 -180l75 180h100l13 -180l75 180h116z" />
    <glyph glyph-name="x.superior" unicode="&#xe137;" horiz-adv-x="350" 
d="M9 282l137 161l-73 151h114l34 -77l54 77h125l-129 -157l76 -155h-118l-32 82l-60 -82h-128z" />
    <glyph glyph-name="y.superior" unicode="&#xe138;" horiz-adv-x="339" 
d="M399 594l-254 -449h-115l94 152l-56 297h107l22 -166l82 166h120z" />
    <glyph glyph-name="z.superior" unicode="&#xe139;" horiz-adv-x="323" 
d="M33 282l13 71l140 150h-105l17 91h252l-14 -71l-139 -151h116l-17 -90h-263z" />
    <glyph glyph-name="a_superior.alt" unicode="&#xe13a;" horiz-adv-x="348" 
d="M211 282l3 17q-36 -25 -79 -25q-36 0 -62 25.5t-26 61.5q0 55 44.5 89t117.5 34q12 0 34 -2l1 6q1 13 -10.5 21t-30.5 8q-49 0 -108 -27l18 89q60 23 115 23t89 -28t34 -72q0 -16 -3 -36l-35 -184h-102zM157 385q0 -26 26 -26q22 0 40 18l8 42q-7 1 -22 1q-22 0 -37 -10
t-15 -25z" />
    <glyph glyph-name="l_superior.alt" unicode="&#xe13b;" horiz-adv-x="220" 
d="M246 731l-63 -331q0 -3 -0.5 -7t-0.5 -5q0 -20 19 -20q17 0 32 3l-17 -90q-32 -7 -55 -7q-43 0 -69 23.5t-26 63.5q0 6 2 22l65 348h113z" />
    <glyph glyph-name="y_superior.alt" unicode="&#xe13c;" horiz-adv-x="383" 
d="M403 594l-58 -310q-13 -67 -62.5 -107t-120.5 -40q-65 0 -125 33l18 90q54 -35 106 -35q26 0 46 15t25 38l4 22q-38 -26 -79 -26q-40 0 -66 27t-26 68q0 20 4 37l36 188h112l-34 -180q-1 -4 -1 -13q0 -28 28 -28q21 0 43 22l38 199h112z" />
    <glyph glyph-name="ordfeminine.alt" unicode="&#xe13d;" horiz-adv-x="348" 
d="M28 237l17 89h285l-16 -89h-286zM229 375l3 18q-35 -25 -80 -25q-35 0 -61 25.5t-26 61.5q0 55 44.5 89t117.5 34q12 0 34 -2l1 6q2 12 -10 20t-31 8q-51 0 -108 -26l18 89q60 23 115 23q54 0 88.5 -28t34.5 -72q0 -19 -4 -36l-34 -185h-102zM174 479q0 -26 27 -26
q23 0 40 18l8 42q-8 1 -22 1q-23 0 -38 -10t-15 -25z" />
    <glyph glyph-name="a.sc" unicode="&#xe200;" horiz-adv-x="541" 
d="M-45 0l299 532h138l102 -532h-146l-12 87h-170l-46 -87h-165zM299 340l-69 -133h88z" />
    <glyph glyph-name="b.sc" unicode="&#xe201;" horiz-adv-x="519" 
d="M211 213l-17 -93h59q23 0 40 16t17 38q0 18 -12 28.5t-32 10.5h-55zM20 0l99 532h211q72 0 115 -35.5t43 -93.5q0 -44 -22.5 -80t-62.5 -55q61 -30 61 -98q0 -72 -61 -121t-152 -49h-231zM248 412l-15 -86h50q23 0 38.5 14t15.5 35q0 17 -10.5 27t-28.5 10h-50z" />
    <glyph glyph-name="c.sc" unicode="&#xe202;" horiz-adv-x="508" 
d="M33 215q0 144 88.5 236.5t224.5 92.5q80 0 166 -45l-25 -136q-68 45 -129 45q-70 0 -114 -48t-44 -125q0 -50 30.5 -80.5t81.5 -30.5q61 0 138 41l-27 -143q-74 -34 -159 -34q-101 0 -166 65t-65 162z" />
    <glyph glyph-name="d.sc" unicode="&#xe203;" horiz-adv-x="589" 
d="M20 0l99 532h216q100 0 163.5 -60t63.5 -155q0 -141 -85.5 -229t-223.5 -88h-233zM258 400l-50 -268h57q54 0 92.5 50.5t38.5 122.5q0 42 -24 68.5t-63 26.5h-51z" />
    <glyph glyph-name="e.sc" unicode="&#xe204;" horiz-adv-x="461" 
d="M20 0l99 532h346l-24 -128h-187l-13 -75h155l-22 -119h-156l-15 -82h191l-23 -128h-351z" />
    <glyph glyph-name="f.sc" unicode="&#xe205;" horiz-adv-x="444" 
d="M20 0l99 532h346l-24 -128h-187l-18 -99h156l-24 -124h-155l-34 -181h-159z" />
    <glyph glyph-name="g.sc" unicode="&#xe206;" horiz-adv-x="574" 
d="M528 307l-53 -284q-105 -35 -199 -35q-107 0 -175 65t-68 162q0 144 90 236.5t231 92.5q91 0 183 -53l-25 -132q-80 53 -150 53q-73 0 -119.5 -49.5t-46.5 -127.5q0 -50 30.5 -82.5t77.5 -32.5q10 0 40 4l11 63h-81l22 120h232z" />
    <glyph glyph-name="h.sc" unicode="&#xe207;" horiz-adv-x="613" 
d="M20 0l99 532h163l-36 -197h153l38 197h162l-100 -532h-162l38 204h-154l-38 -204h-163z" />
    <glyph glyph-name="i.sc" unicode="&#xe208;" horiz-adv-x="296" 
d="M20 0l99 532h163l-99 -532h-163z" />
    <glyph glyph-name="j.sc" unicode="&#xe209;" horiz-adv-x="403" 
d="M392 532l-70 -377q-14 -78 -66.5 -122.5t-130.5 -44.5q-65 0 -131 30l24 126q37 -20 78 -20q25 0 44.5 16.5t24.5 40.5l65 351h162z" />
    <glyph glyph-name="k.sc" unicode="&#xe20a;" horiz-adv-x="554" 
d="M20 0l99 532h160l-35 -183l169 183h192l-255 -267l165 -265h-181l-117 206l-38 -206h-159z" />
    <glyph glyph-name="l.sc" unicode="&#xe20b;" horiz-adv-x="428" 
d="M20 0l99 532h163l-74 -400h178l-25 -132h-341z" />
    <glyph glyph-name="m.sc" unicode="&#xe20c;" horiz-adv-x="676" 
d="M20 0l99 532h132l98 -187l164 187h149l-100 -532h-148l51 276l-96 -112h-87l-61 118l-52 -282h-149z" />
    <glyph glyph-name="n.sc" unicode="&#xe20d;" horiz-adv-x="613" 
d="M20 0l99 532h132l146 -282l53 282h149l-100 -532h-131l-147 282l-52 -282h-149z" />
    <glyph glyph-name="o.sc" unicode="&#xe20e;" horiz-adv-x="613" 
d="M33 215q0 146 88.5 237.5t228.5 91.5q104 0 170 -64t66 -163q0 -146 -88.5 -237.5t-227.5 -91.5q-105 0 -171 64t-66 163zM200 227q0 -46 23.5 -74.5t61.5 -28.5q55 0 94.5 52.5t39.5 128.5q0 46 -23.5 74.5t-61.5 28.5q-55 0 -94.5 -53t-39.5 -128z" />
    <glyph glyph-name="p.sc" unicode="&#xe20f;" horiz-adv-x="511" 
d="M20 0l99 532h210q79 0 125.5 -42.5t46.5 -115.5q0 -85 -68 -144t-165 -59h-61l-32 -171h-155zM251 408l-21 -114h41q31 0 51.5 19t20.5 47q0 48 -54 48h-38z" />
    <glyph glyph-name="q.sc" unicode="&#xe210;" horiz-adv-x="613" 
d="M33 215q0 146 88.5 237.5t228.5 91.5q104 0 170 -64t66 -163q0 -90 -36.5 -162.5t-100.5 -115.5l80 -117h-166l-45 70q-30 -4 -48 -4q-105 0 -171 64t-66 163zM200 227q0 -46 23.5 -74.5t61.5 -28.5q55 0 94.5 52.5t39.5 128.5q0 46 -23.5 74.5t-61.5 28.5
q-55 0 -94.5 -53t-39.5 -128z" />
    <glyph glyph-name="r.sc" unicode="&#xe211;" horiz-adv-x="515" 
d="M293 0l-54 177h-31l-33 -177h-155l99 532h208q79 0 124 -41.5t45 -113.5q0 -54 -30 -101.5t-82 -76.5l71 -199h-162zM251 408l-20 -108h38q30 0 49 18.5t19 44.5q0 45 -50 45h-36z" />
    <glyph glyph-name="s.sc" unicode="&#xe212;" horiz-adv-x="457" 
d="M12 31l25 134q75 -49 147 -49q27 0 43.5 12.5t16.5 34.5q0 17 -18.5 30t-45 25t-53.5 28t-45.5 47t-18.5 74q0 77 60 127t159 50q77 0 159 -40l-24 -132q-67 43 -135 43q-27 0 -42.5 -11t-15.5 -31q0 -15 18.5 -27.5t45 -24t53 -27.5t45 -48t18.5 -76q0 -80 -60.5 -131
t-159.5 -51q-86 0 -172 43z" />
    <glyph glyph-name="t.sc" unicode="&#xe213;" horiz-adv-x="489" 
d="M116 0l75 400h-136l25 132h434l-25 -132h-136l-74 -400h-163z" />
    <glyph glyph-name="u.sc" unicode="&#xe214;" horiz-adv-x="613" 
d="M603 532l-62 -335q-18 -95 -91.5 -152t-179.5 -57q-96 0 -158 49t-62 125q0 26 4 43l61 327h164l-61 -323q-2 -14 -2 -21q0 -28 19 -46t50 -18q35 0 61.5 23t33.5 60l61 325h162z" />
    <glyph glyph-name="v.sc" unicode="&#xe215;" horiz-adv-x="541" 
d="M591 532l-299 -532h-138l-101 532h155l45 -319l166 319h172z" />
    <glyph glyph-name="w.sc" unicode="&#xe216;" horiz-adv-x="832" 
d="M879 532l-280 -532h-143l-30 336l-149 -336h-144l-76 532h151l30 -337l149 337h144l29 -337l151 337h168z" />
    <glyph glyph-name="x.sc" unicode="&#xe217;" horiz-adv-x="556" 
d="M-45 0l235 276l-125 256h167l66 -150l109 150h182l-217 -268l127 -264h-171l-64 157l-122 -157h-187z" />
    <glyph glyph-name="y.sc" unicode="&#xe218;" horiz-adv-x="519" 
d="M127 0l41 217l-117 315h171l49 -177l113 177h192l-248 -331l-38 -201h-163z" />
    <glyph glyph-name="z.sc" unicode="&#xe219;" horiz-adv-x="516" 
d="M-10 0l20 103l272 297h-205l25 132h416l-19 -103l-272 -297h223l-25 -132h-435z" />
    <glyph glyph-name="agrave.sc" unicode="&#xe21a;" horiz-adv-x="541" 
d="M-45 0l299 532h138l102 -532h-146l-12 87h-170l-46 -87h-165zM299 340l-69 -133h88zM301 578l-101 172h134l83 -172h-116z" />
    <glyph glyph-name="aacute.sc" unicode="&#xe21b;" horiz-adv-x="541" 
d="M-45 0l299 532h138l102 -532h-146l-12 87h-170l-46 -87h-165zM299 340l-69 -133h88zM247 578l145 172h154l-163 -172h-136z" />
    <glyph glyph-name="acircumflex.sc" unicode="&#xe21c;" horiz-adv-x="541" 
d="M-45 0l299 532h138l102 -532h-146l-12 87h-170l-46 -87h-165zM299 340l-69 -133h88zM145 578l145 172h145l84 -172h-113l-52 88l-84 -88h-125z" />
    <glyph glyph-name="atilde.sc" unicode="&#xe21d;" horiz-adv-x="541" 
d="M-45 0l299 532h138l102 -532h-146l-12 87h-170l-46 -87h-165zM299 340l-69 -133h88zM153 599q9 64 46.5 104t89.5 40q35 0 75 -27.5t52 -27.5q17 0 28.5 12t14.5 31h93q-9 -65 -46.5 -104.5t-89.5 -39.5q-27 0 -52 13.5t-44 27.5t-31 14q-36 0 -43 -43h-93z" />
    <glyph glyph-name="adieresis.sc" unicode="&#xe21e;" horiz-adv-x="541" 
d="M-45 0l299 532h138l102 -532h-146l-12 87h-170l-46 -87h-165zM299 340l-69 -133h88zM157 655q0 40 27 67.5t67 27.5q34 0 55.5 -21t21.5 -55q0 -40 -27 -67.5t-68 -27.5q-33 0 -54.5 21.5t-21.5 54.5zM376 655q0 41 27 68t67 27q33 0 54.5 -21t21.5 -55q0 -41 -27 -68
t-67 -27q-34 0 -55 21.5t-21 54.5z" />
    <glyph glyph-name="aring.sc" unicode="&#xe21f;" horiz-adv-x="541" 
d="M-45 0l299 532h138l102 -532h-146l-12 87h-170l-46 -87h-165zM299 340l-69 -133h88zM238 653q0 53 36 89t89 36q45 0 73.5 -28.5t28.5 -73.5q0 -53 -36 -88.5t-89 -35.5q-45 0 -73.5 28t-28.5 73zM305 660q0 -19 11.5 -30.5t30.5 -11.5q22 0 36.5 14.5t14.5 36.5
q0 19 -11.5 30.5t-30.5 11.5q-22 0 -36.5 -14.5t-14.5 -36.5z" />
    <glyph glyph-name="amacron.sc" unicode="&#xe221;" horiz-adv-x="541" 
d="M-45 0l299 532h138l102 -532h-146l-12 87h-170l-46 -87h-165zM299 340l-69 -133h88zM162 611l20 108h359l-20 -108h-359z" />
    <glyph glyph-name="abreve.sc" unicode="&#xe222;" horiz-adv-x="541" 
d="M-45 0l299 532h138l102 -532h-146l-12 87h-170l-46 -87h-165zM299 340l-69 -133h88zM202 750h95q-1 -5 -1 -15q0 -26 18 -42.5t47 -16.5q31 0 53 20.5t27 53.5h99q-11 -85 -61.5 -131.5t-130.5 -46.5q-63 0 -106 40t-43 99q0 19 3 39z" />
    <glyph glyph-name="aogonek.sc" unicode="&#xe223;" horiz-adv-x="541" 
d="M382 0h-34l-12 87h-170l-46 -87h-165l299 532h138l102 -532q-94 -49 -94 -97q0 -15 12 -26t28 -11t30 7l-17 -92q-32 -12 -71 -12q-43 0 -72.5 26t-29.5 64q0 92 102 141zM299 340l-69 -133h88z" />
    <glyph glyph-name="ae.sc" unicode="&#xe224;" horiz-adv-x="743" 
d="M301 0l13 71h-149l-53 -71h-180l421 532h393l-24 -128h-186l-14 -75h155l-22 -119h-155l-17 -82h193l-24 -128h-351zM366 346l-116 -158h86z" />
    <glyph glyph-name="cacute.sc" unicode="&#xe226;" horiz-adv-x="508" 
d="M33 215q0 144 88.5 236.5t224.5 92.5q80 0 166 -45l-25 -136q-68 45 -129 45q-70 0 -114 -48t-44 -125q0 -50 30.5 -80.5t81.5 -30.5q61 0 138 41l-27 -143q-74 -34 -159 -34q-101 0 -166 65t-65 162zM265 578l145 172h154l-163 -172h-136z" />
    <glyph glyph-name="ccircumflex.sc" unicode="&#xe227;" horiz-adv-x="508" 
d="M33 215q0 144 88.5 236.5t224.5 92.5q80 0 166 -45l-25 -136q-68 45 -129 45q-70 0 -114 -48t-44 -125q0 -50 30.5 -80.5t81.5 -30.5q61 0 138 41l-27 -143q-74 -34 -159 -34q-101 0 -166 65t-65 162zM163 578l145 172h145l84 -172h-113l-52 88l-84 -88h-125z" />
    <glyph glyph-name="ccaron.sc" unicode="&#xe228;" horiz-adv-x="508" 
d="M33 215q0 144 88.5 236.5t224.5 92.5q80 0 166 -45l-25 -136q-68 45 -129 45q-70 0 -114 -48t-44 -125q0 -50 30.5 -80.5t81.5 -30.5q61 0 138 41l-27 -143q-74 -34 -159 -34q-101 0 -166 65t-65 162zM576 750l-145 -172h-145l-84 172h113l52 -88l84 88h125z" />
    <glyph glyph-name="cdotaccent.sc" unicode="&#xe229;" horiz-adv-x="508" 
d="M33 215q0 144 88.5 236.5t224.5 92.5q80 0 166 -45l-25 -136q-68 45 -129 45q-70 0 -114 -48t-44 -125q0 -50 30.5 -80.5t81.5 -30.5q61 0 138 41l-27 -143q-74 -34 -159 -34q-101 0 -166 65t-65 162zM281 655q0 42 28 70t70 28q35 0 57 -22t22 -57q0 -41 -28 -69.5
t-70 -28.5q-35 0 -57 22t-22 57z" />
    <glyph glyph-name="ccedilla.sc" unicode="&#xe22a;" horiz-adv-x="508" 
d="M33 215q0 144 88.5 236.5t224.5 92.5q80 0 166 -45l-25 -136q-68 45 -129 45q-70 0 -114 -48t-44 -125q0 -50 30.5 -80.5t81.5 -30.5q61 0 138 41l-27 -143q-57 -27 -124 -32l-14 -29q51 -21 51 -76q0 -50 -40.5 -83t-103.5 -33q-46 0 -94 24l17 87q31 -22 61 -22
q19 0 31 9.5t12 24.5t-12 24.5t-31 9.5h-4l31 70q-77 18 -123.5 78t-46.5 141z" />
    <glyph glyph-name="dcaron.sc" unicode="&#xe22b;" horiz-adv-x="589" 
d="M20 0l99 532h216q100 0 163.5 -60t63.5 -155q0 -141 -85.5 -229t-223.5 -88h-233zM258 400l-50 -268h57q54 0 92.5 50.5t38.5 122.5q0 42 -24 68.5t-63 26.5h-51zM566 750l-145 -172h-145l-84 172h113l52 -88l84 88h125z" />
    <glyph glyph-name="dcroat.sc" unicode="&#xe22c;" horiz-adv-x="601" 
d="M31 0l41 219h-66l19 102h66l40 211h216q100 0 163.5 -60t63.5 -155q0 -141 -85.5 -229t-223.5 -88h-234zM265 400l-14 -79h86l-18 -102h-87l-16 -87h65q54 0 92.5 50.5t38.5 122.5q0 42 -24 68.5t-64 26.5h-59z" />
    <glyph glyph-name="egrave.sc" unicode="&#xe22d;" horiz-adv-x="461" 
d="M20 0l99 532h346l-24 -128h-187l-13 -75h155l-22 -119h-156l-15 -82h191l-23 -128h-351zM265 578l-101 172h134l83 -172h-116z" />
    <glyph glyph-name="eacute.sc" unicode="&#xe22e;" horiz-adv-x="461" 
d="M20 0l99 532h346l-24 -128h-187l-13 -75h155l-22 -119h-156l-15 -82h191l-23 -128h-351zM211 578l145 172h154l-163 -172h-136z" />
    <glyph glyph-name="ecircumflex.sc" unicode="&#xe22f;" horiz-adv-x="461" 
d="M20 0l99 532h346l-24 -128h-187l-13 -75h155l-22 -119h-156l-15 -82h191l-23 -128h-351zM109 578l145 172h145l84 -172h-113l-52 88l-84 -88h-125z" />
    <glyph glyph-name="ecaron.sc" unicode="&#xe230;" horiz-adv-x="461" 
d="M20 0l99 532h346l-24 -128h-187l-13 -75h155l-22 -119h-156l-15 -82h191l-23 -128h-351zM522 750l-145 -172h-145l-84 172h113l52 -88l84 88h125z" />
    <glyph glyph-name="edieresis.sc" unicode="&#xe231;" horiz-adv-x="461" 
d="M20 0l99 532h346l-24 -128h-187l-13 -75h155l-22 -119h-156l-15 -82h191l-23 -128h-351zM121 655q0 40 27 67.5t67 27.5q34 0 55.5 -21t21.5 -55q0 -40 -27 -67.5t-68 -27.5q-33 0 -54.5 21.5t-21.5 54.5zM340 655q0 41 27 68t67 27q33 0 54.5 -21t21.5 -55
q0 -41 -27 -68t-67 -27q-34 0 -55 21.5t-21 54.5z" />
    <glyph glyph-name="emacron.sc" unicode="&#xe232;" horiz-adv-x="461" 
d="M20 0l99 532h346l-24 -128h-187l-13 -75h155l-22 -119h-156l-15 -82h191l-23 -128h-351zM126 611l20 108h359l-20 -108h-359z" />
    <glyph glyph-name="ebreve.sc" unicode="&#xe233;" horiz-adv-x="461" 
d="M20 0l99 532h346l-24 -128h-187l-13 -75h155l-22 -119h-156l-15 -82h191l-23 -128h-351zM166 750h95q-1 -5 -1 -15q0 -26 18 -42.5t47 -16.5q31 0 53 20.5t27 53.5h99q-11 -85 -61.5 -131.5t-130.5 -46.5q-63 0 -106 40t-43 99q0 19 3 39z" />
    <glyph glyph-name="edotaccent.sc" unicode="&#xe234;" horiz-adv-x="461" 
d="M20 0l99 532h346l-24 -128h-187l-13 -75h155l-22 -119h-156l-15 -82h191l-23 -128h-351zM227 655q0 42 28 70t70 28q35 0 57 -22t22 -57q0 -41 -28 -69.5t-70 -28.5q-35 0 -57 22t-22 57z" />
    <glyph glyph-name="eogonek.sc" unicode="&#xe235;" horiz-adv-x="461" 
d="M20 0l99 532h346l-24 -128h-187l-13 -75h155l-22 -119h-156l-15 -82h191l-23 -128q-94 -49 -94 -97q0 -15 12 -26t28 -11t30 7l-17 -92q-32 -12 -71 -12q-43 0 -72.5 26t-29.5 64q0 92 102 141h-239z" />
    <glyph glyph-name="gcircumflex.sc" unicode="&#xe236;" horiz-adv-x="574" 
d="M528 307l-53 -284q-105 -35 -199 -35q-107 0 -175 65t-68 162q0 144 90 236.5t231 92.5q91 0 183 -53l-25 -132q-80 53 -150 53q-73 0 -119.5 -49.5t-46.5 -127.5q0 -50 30.5 -82.5t77.5 -32.5q10 0 40 4l11 63h-81l22 120h232zM183 578l145 172h145l84 -172h-113l-52 88
l-84 -88h-125z" />
    <glyph glyph-name="gbreve.sc" unicode="&#xe237;" horiz-adv-x="574" 
d="M528 307l-53 -284q-105 -35 -199 -35q-107 0 -175 65t-68 162q0 144 90 236.5t231 92.5q91 0 183 -53l-25 -132q-80 53 -150 53q-73 0 -119.5 -49.5t-46.5 -127.5q0 -50 30.5 -82.5t77.5 -32.5q10 0 40 4l11 63h-81l22 120h232zM240 750h95q-1 -5 -1 -15q0 -26 18 -42.5
t47 -16.5q31 0 53 20.5t27 53.5h99q-11 -85 -61.5 -131.5t-130.5 -46.5q-63 0 -106 40t-43 99q0 19 3 39z" />
    <glyph glyph-name="gdotaccent.sc" unicode="&#xe238;" horiz-adv-x="574" 
d="M528 307l-53 -284q-105 -35 -199 -35q-107 0 -175 65t-68 162q0 144 90 236.5t231 92.5q91 0 183 -53l-25 -132q-80 53 -150 53q-73 0 -119.5 -49.5t-46.5 -127.5q0 -50 30.5 -82.5t77.5 -32.5q10 0 40 4l11 63h-81l22 120h232zM301 655q0 42 28 70t70 28q35 0 57 -22
t22 -57q0 -41 -28 -69.5t-70 -28.5q-35 0 -57 22t-22 57z" />
    <glyph glyph-name="gcommaaccent.sc" unicode="&#xe239;" horiz-adv-x="574" 
d="M528 307l-53 -284q-105 -35 -199 -35q-107 0 -175 65t-68 162q0 144 90 236.5t231 92.5q91 0 183 -53l-25 -132q-80 53 -150 53q-73 0 -119.5 -49.5t-46.5 -127.5q0 -50 30.5 -82.5t77.5 -32.5q10 0 40 4l11 63h-81l22 120h232zM95 -242l101 195h147l-120 -195h-128z" />
    <glyph glyph-name="hcircumflex.sc" unicode="&#xe23a;" horiz-adv-x="613" 
d="M20 0l99 532h163l-36 -197h153l38 197h162l-100 -532h-162l38 204h-154l-38 -204h-163zM177 578l145 172h145l84 -172h-113l-52 88l-84 -88h-125z" />
    <glyph glyph-name="hbar.sc" unicode="&#xe23b;" horiz-adv-x="613" 
d="M20 0l70 375h-59l18 93h59l11 64h163l-11 -64h153l13 64h162l-12 -64h59l-17 -93h-59l-71 -375h-162l39 208h-155l-38 -208h-163zM253 375l-8 -44h153l10 44h-155z" />
    <glyph glyph-name="igrave.sc" unicode="&#xe23c;" horiz-adv-x="296" 
d="M20 0l99 532h163l-99 -532h-163zM174 578l-101 172h134l83 -172h-116z" />
    <glyph glyph-name="iacute.sc" unicode="&#xe23d;" horiz-adv-x="296" 
d="M20 0l99 532h163l-99 -532h-163zM120 578l145 172h154l-163 -172h-136z" />
    <glyph glyph-name="icircumflex.sc" unicode="&#xe23e;" horiz-adv-x="296" 
d="M20 0l99 532h163l-99 -532h-163zM18 578l145 172h145l84 -172h-113l-52 88l-84 -88h-125z" />
    <glyph glyph-name="itilde.sc" unicode="&#xe23f;" horiz-adv-x="296" 
d="M20 0l99 532h163l-99 -532h-163zM26 599q9 64 46.5 104t89.5 40q27 0 52 -13.5t44 -27.5t31 -14q17 0 28.5 12t14.5 31h93q-9 -65 -46.5 -104.5t-89.5 -39.5q-35 0 -75 27.5t-52 27.5q-36 0 -43 -43h-93z" />
    <glyph glyph-name="idieresis.sc" unicode="&#xe240;" horiz-adv-x="296" 
d="M20 0l99 532h163l-99 -532h-163zM30 655q0 40 27 67.5t67 27.5q34 0 55.5 -21t21.5 -55q0 -40 -27.5 -67.5t-67.5 -27.5q-33 0 -54.5 21.5t-21.5 54.5zM249 655q0 41 27 68t67 27q33 0 54.5 -21t21.5 -55q0 -41 -27 -68t-67 -27q-34 0 -55 21.5t-21 54.5z" />
    <glyph glyph-name="imacron.sc" unicode="&#xe241;" horiz-adv-x="296" 
d="M20 0l99 532h163l-99 -532h-163zM35 611l20 108h359l-20 -108h-359z" />
    <glyph glyph-name="ibreve.sc" unicode="&#xe242;" horiz-adv-x="296" 
d="M20 0l99 532h163l-99 -532h-163zM75 750h95q-1 -5 -1 -15q0 -26 18 -42.5t47 -16.5q31 0 53 20.5t27 53.5h99q-11 -85 -61.5 -131.5t-130.5 -46.5q-63 0 -106 40t-43 99q0 19 3 39z" />
    <glyph glyph-name="idotaccent.sc" unicode="&#xe243;" horiz-adv-x="296" 
d="M20 0l99 532h163l-99 -532h-163zM136 655q0 42 28 70t70 28q35 0 57 -22t22 -57q0 -41 -28 -69.5t-70 -28.5q-35 0 -57 22t-22 57z" />
    <glyph glyph-name="iogonek.sc" unicode="&#xe244;" horiz-adv-x="296" 
d="M20 0l99 532h163l-99 -532q-94 -49 -94 -97q0 -15 12 -26t28 -11t30 7l-17 -92q-32 -12 -71 -12q-43 0 -72.5 26t-29.5 64q0 92 102 141h-51z" />
    <glyph glyph-name="ij.sc" unicode="&#xe245;" horiz-adv-x="699" 
d="M688 532l-70 -377q-14 -78 -66.5 -122.5t-130.5 -44.5q-65 0 -131 30l24 126q37 -20 78 -20q25 0 44.5 16.5t24.5 40.5l65 351h162zM20 0l99 532h163l-99 -532h-163z" />
    <glyph glyph-name="jcircumflex.sc" unicode="&#xe246;" horiz-adv-x="403" 
d="M392 532l-70 -377q-14 -78 -66.5 -122.5t-130.5 -44.5q-65 0 -131 30l24 126q37 -20 78 -20q25 0 44.5 16.5t24.5 40.5l65 351h162zM128 578l145 172h145l84 -172h-113l-52 88l-84 -88h-125z" />
    <glyph glyph-name="kcommaaccent.sc" unicode="&#xe247;" horiz-adv-x="554" 
d="M20 0l99 532h160l-35 -183l169 183h192l-255 -267l165 -265h-181l-117 206l-38 -206h-159zM59 -242l101 195h147l-120 -195h-128z" />
    <glyph glyph-name="lacute.sc" unicode="&#xe248;" horiz-adv-x="428" 
d="M20 0l99 532h163l-74 -400h178l-25 -132h-341zM120 578l145 172h154l-163 -172h-136z" />
    <glyph glyph-name="lcaron.sc" unicode="&#xe249;" horiz-adv-x="428" 
d="M20 0l99 532h163l-74 -400h178l-25 -132h-341zM274 391l89 172h136l-105 -172h-120z" />
    <glyph glyph-name="ldot.sc" unicode="&#xe24a;" horiz-adv-x="428" 
d="M20 0l99 532h163l-74 -400h178l-25 -132h-341zM280 280q0 42 28 70t70 28q35 0 57 -22t22 -57q0 -41 -28 -69.5t-70 -28.5q-35 0 -57 22t-22 57z" />
    <glyph glyph-name="lcommaaccent.sc" unicode="&#xe24b;" horiz-adv-x="428" 
d="M20 0l99 532h163l-74 -400h178l-25 -132h-341zM21 -242l101 195h147l-120 -195h-128z" />
    <glyph glyph-name="lslash.sc" unicode="&#xe24c;" horiz-adv-x="440" 
d="M31 0l32 167l-57 -22l23 124l57 22l45 241h163l-32 -171l108 44l-23 -124l-108 -44l-20 -105h178l-25 -132h-341z" />
    <glyph glyph-name="nacute.sc" unicode="&#xe24d;" horiz-adv-x="613" 
d="M20 0l99 532h132l146 -282l53 282h149l-100 -532h-131l-147 282l-52 -282h-149zM279 578l145 172h154l-163 -172h-136z" />
    <glyph glyph-name="ncaron.sc" unicode="&#xe24e;" horiz-adv-x="613" 
d="M20 0l99 532h132l146 -282l53 282h149l-100 -532h-131l-147 282l-52 -282h-149zM590 750l-145 -172h-145l-84 172h113l52 -88l84 88h125z" />
    <glyph glyph-name="ntilde.sc" unicode="&#xe24f;" horiz-adv-x="613" 
d="M20 0l99 532h132l146 -282l53 282h149l-100 -532h-131l-147 282l-52 -282h-149zM185 599q9 64 46.5 104t89.5 40q35 0 75 -27.5t52 -27.5q17 0 28.5 12t14.5 31h93q-9 -65 -46.5 -104.5t-89.5 -39.5q-27 0 -52 13.5t-44 27.5t-31 14q-36 0 -43 -43h-93z" />
    <glyph glyph-name="ncommaaccent.sc" unicode="&#xe250;" horiz-adv-x="613" 
d="M20 0l99 532h132l146 -282l53 282h149l-100 -532h-131l-147 282l-52 -282h-149zM89 -242l101 195h147l-120 -195h-128z" />
    <glyph glyph-name="napostrophe.sc" unicode="&#xe251;" horiz-adv-x="801" 
d="M28 423l145 265h162l-163 -265h-144zM208 0l99 532h132l146 -282l53 282h149l-100 -532h-131l-147 282l-52 -282h-149z" />
    <glyph glyph-name="ograve.sc" unicode="&#xe252;" horiz-adv-x="613" 
d="M33 215q0 146 88.5 237.5t228.5 91.5q104 0 170 -64t66 -163q0 -146 -88.5 -237.5t-227.5 -91.5q-105 0 -171 64t-66 163zM200 227q0 -46 23.5 -74.5t61.5 -28.5q55 0 94.5 52.5t39.5 128.5q0 46 -23.5 74.5t-61.5 28.5q-55 0 -94.5 -53t-39.5 -128zM333 578l-101 172
h134l83 -172h-116z" />
    <glyph glyph-name="oacute.sc" unicode="&#xe253;" horiz-adv-x="613" 
d="M33 215q0 146 88.5 237.5t228.5 91.5q104 0 170 -64t66 -163q0 -146 -88.5 -237.5t-227.5 -91.5q-105 0 -171 64t-66 163zM200 227q0 -46 23.5 -74.5t61.5 -28.5q55 0 94.5 52.5t39.5 128.5q0 46 -23.5 74.5t-61.5 28.5q-55 0 -94.5 -53t-39.5 -128zM279 578l145 172h154
l-163 -172h-136z" />
    <glyph glyph-name="ocircumflex.sc" unicode="&#xe254;" horiz-adv-x="613" 
d="M33 215q0 146 88.5 237.5t228.5 91.5q104 0 170 -64t66 -163q0 -146 -88.5 -237.5t-227.5 -91.5q-105 0 -171 64t-66 163zM200 227q0 -46 23.5 -74.5t61.5 -28.5q55 0 94.5 52.5t39.5 128.5q0 46 -23.5 74.5t-61.5 28.5q-55 0 -94.5 -53t-39.5 -128zM177 578l145 172h145
l84 -172h-113l-52 88l-84 -88h-125z" />
    <glyph glyph-name="otilde.sc" unicode="&#xe255;" horiz-adv-x="613" 
d="M33 215q0 146 88.5 237.5t228.5 91.5q104 0 170 -64t66 -163q0 -146 -88.5 -237.5t-227.5 -91.5q-105 0 -171 64t-66 163zM200 227q0 -46 23.5 -74.5t61.5 -28.5q55 0 94.5 52.5t39.5 128.5q0 46 -23.5 74.5t-61.5 28.5q-55 0 -94.5 -53t-39.5 -128zM185 599
q9 64 46.5 104t89.5 40q35 0 75 -27.5t52 -27.5q17 0 28.5 12t14.5 31h93q-9 -65 -46.5 -104.5t-89.5 -39.5q-27 0 -52 13.5t-44 27.5t-31 14q-36 0 -43 -43h-93z" />
    <glyph glyph-name="odieresis.sc" unicode="&#xe256;" horiz-adv-x="613" 
d="M33 215q0 146 88.5 237.5t228.5 91.5q104 0 170 -64t66 -163q0 -146 -88.5 -237.5t-227.5 -91.5q-105 0 -171 64t-66 163zM200 227q0 -46 23.5 -74.5t61.5 -28.5q55 0 94.5 52.5t39.5 128.5q0 46 -23.5 74.5t-61.5 28.5q-55 0 -94.5 -53t-39.5 -128zM189 655
q0 40 27 67.5t67 27.5q34 0 55.5 -21t21.5 -55q0 -40 -27 -67.5t-68 -27.5q-33 0 -54.5 21.5t-21.5 54.5zM408 655q0 41 27 68t67 27q33 0 54.5 -21t21.5 -55q0 -41 -27 -68t-67 -27q-34 0 -55 21.5t-21 54.5z" />
    <glyph glyph-name="omacron.sc" unicode="&#xe257;" horiz-adv-x="613" 
d="M33 215q0 146 88.5 237.5t228.5 91.5q104 0 170 -64t66 -163q0 -146 -88.5 -237.5t-227.5 -91.5q-105 0 -171 64t-66 163zM200 227q0 -46 23.5 -74.5t61.5 -28.5q55 0 94.5 52.5t39.5 128.5q0 46 -23.5 74.5t-61.5 28.5q-55 0 -94.5 -53t-39.5 -128zM194 611l20 108h359
l-20 -108h-359z" />
    <glyph glyph-name="obreve.sc" unicode="&#xe258;" horiz-adv-x="613" 
d="M33 215q0 146 88.5 237.5t228.5 91.5q104 0 170 -64t66 -163q0 -146 -88.5 -237.5t-227.5 -91.5q-105 0 -171 64t-66 163zM200 227q0 -46 23.5 -74.5t61.5 -28.5q55 0 94.5 52.5t39.5 128.5q0 46 -23.5 74.5t-61.5 28.5q-55 0 -94.5 -53t-39.5 -128zM234 750h95
q-1 -5 -1 -15q0 -26 18 -42.5t47 -16.5q31 0 53 20.5t27 53.5h99q-11 -85 -61.5 -131.5t-130.5 -46.5q-63 0 -106 40t-43 99q0 19 3 39z" />
    <glyph glyph-name="ohungarumlaut.sc" unicode="&#xe259;" horiz-adv-x="613" 
d="M33 215q0 146 88.5 237.5t228.5 91.5q104 0 170 -64t66 -163q0 -146 -88.5 -237.5t-227.5 -91.5q-105 0 -171 64t-66 163zM200 227q0 -46 23.5 -74.5t61.5 -28.5q55 0 94.5 52.5t39.5 128.5q0 46 -23.5 74.5t-61.5 28.5q-55 0 -94.5 -53t-39.5 -128zM387 578l145 172h155
l-164 -172h-136zM169 578l145 172h156l-165 -172h-136z" />
    <glyph glyph-name="oslash.sc" unicode="&#xe25a;" horiz-adv-x="613" 
d="M33 215q0 146 88.5 237.5t228.5 91.5q75 0 135 -37l24 25h97l-68 -73q48 -61 48 -142q0 -146 -88.5 -237.5t-227.5 -91.5q-77 0 -136 37l-24 -25h-97l68 72q-48 59 -48 143zM427 305q0 19 -4 31l-187 -202q20 -14 49 -14q58 0 100 54t42 131zM193 227q0 -12 2 -32
l189 203q-22 14 -50 14q-58 0 -99.5 -54t-41.5 -131z" />
    <glyph glyph-name="oe.sc" unicode="&#xe25c;" horiz-adv-x="739" 
d="M743 532l-25 -128h-186l-13 -75h155l-22 -119h-156l-16 -82h193l-24 -128h-389q-101 0 -164 60t-63 155q0 141 85.5 229t223.5 88h401zM322 132l51 268h-43q-53 0 -91.5 -50.5t-38.5 -122.5q0 -42 24 -68.5t63 -26.5h35z" />
    <glyph glyph-name="racute.sc" unicode="&#xe25d;" horiz-adv-x="515" 
d="M293 0l-54 177h-31l-33 -177h-155l99 532h208q79 0 124 -41.5t45 -113.5q0 -54 -30 -101.5t-82 -76.5l71 -199h-162zM251 408l-20 -108h38q30 0 49 18.5t19 44.5q0 45 -50 45h-36zM232 578l145 172h154l-163 -172h-136z" />
    <glyph glyph-name="rcaron.sc" unicode="&#xe25e;" horiz-adv-x="515" 
d="M293 0l-54 177h-31l-33 -177h-155l99 532h208q79 0 124 -41.5t45 -113.5q0 -54 -30 -101.5t-82 -76.5l71 -199h-162zM251 408l-20 -108h38q30 0 49 18.5t19 44.5q0 45 -50 45h-36zM543 750l-145 -172h-145l-84 172h113l52 -88l84 88h125z" />
    <glyph glyph-name="rcommaaccent.sc" unicode="&#xe25f;" horiz-adv-x="515" 
d="M293 0l-54 177h-31l-33 -177h-155l99 532h208q79 0 124 -41.5t45 -113.5q0 -54 -30 -101.5t-82 -76.5l71 -199h-162zM251 408l-20 -108h38q30 0 49 18.5t19 44.5q0 45 -50 45h-36zM42 -242l101 195h147l-120 -195h-128z" />
    <glyph glyph-name="sacute.sc" unicode="&#xe260;" horiz-adv-x="457" 
d="M12 31l25 134q75 -49 147 -49q27 0 43.5 12.5t16.5 34.5q0 17 -18.5 30t-45 25t-53.5 28t-45.5 47t-18.5 74q0 77 60 127t159 50q77 0 159 -40l-24 -132q-67 43 -135 43q-27 0 -42.5 -11t-15.5 -31q0 -15 18.5 -27.5t45 -24t53 -27.5t45 -48t18.5 -76q0 -80 -60.5 -131
t-159.5 -51q-86 0 -172 43zM200 578l145 172h154l-163 -172h-136z" />
    <glyph glyph-name="scircumflex.sc" unicode="&#xe261;" horiz-adv-x="457" 
d="M12 31l25 134q75 -49 147 -49q27 0 43.5 12.5t16.5 34.5q0 17 -18.5 30t-45 25t-53.5 28t-45.5 47t-18.5 74q0 77 60 127t159 50q77 0 159 -40l-24 -132q-67 43 -135 43q-27 0 -42.5 -11t-15.5 -31q0 -15 18.5 -27.5t45 -24t53 -27.5t45 -48t18.5 -76q0 -80 -60.5 -131
t-159.5 -51q-86 0 -172 43zM98 578l145 172h145l84 -172h-113l-52 88l-84 -88h-125z" />
    <glyph glyph-name="scaron.sc" unicode="&#xe262;" horiz-adv-x="457" 
d="M12 31l25 134q75 -49 147 -49q27 0 43.5 12.5t16.5 34.5q0 17 -18.5 30t-45 25t-53.5 28t-45.5 47t-18.5 74q0 77 60 127t159 50q77 0 159 -40l-24 -132q-67 43 -135 43q-27 0 -42.5 -11t-15.5 -31q0 -15 18.5 -27.5t45 -24t53 -27.5t45 -48t18.5 -76q0 -80 -60.5 -131
t-159.5 -51q-86 0 -172 43zM511 750l-145 -172h-145l-84 172h113l52 -88l84 88h125z" />
    <glyph glyph-name="scedilla.sc" unicode="&#xe263;" horiz-adv-x="457" 
d="M12 31l25 134q75 -49 147 -49q27 0 43.5 12.5t16.5 34.5q0 17 -18.5 30t-45 25t-53.5 28t-45.5 47t-18.5 74q0 77 60 127t159 50q77 0 159 -40l-24 -132q-67 43 -135 43q-27 0 -42.5 -11t-15.5 -31q0 -15 18.5 -27.5t45 -24t53 -27.5t45 -48t18.5 -76q0 -69 -46 -117
t-124 -60l-13 -32q50 -22 50 -76q0 -51 -40.5 -83.5t-103.5 -32.5q-44 0 -94 24l17 87q33 -22 61 -22q19 0 31 9.5t12 24.5t-11.5 24.5t-30.5 9.5h-4l29 66q-66 9 -125 39z" />
    <glyph glyph-name="scommaaccent.sc" unicode="&#xe264;" horiz-adv-x="457" 
d="M12 31l25 134q75 -49 147 -49q27 0 43.5 12.5t16.5 34.5q0 17 -18.5 30t-45 25t-53.5 28t-45.5 47t-18.5 74q0 77 60 127t159 50q77 0 159 -40l-24 -132q-67 43 -135 43q-27 0 -42.5 -11t-15.5 -31q0 -15 18.5 -27.5t45 -24t53 -27.5t45 -48t18.5 -76q0 -80 -60.5 -131
t-159.5 -51q-86 0 -172 43zM11 -242l101 195h147l-120 -195h-128z" />
    <glyph glyph-name="germandbls.sc" unicode="&#xe265;" horiz-adv-x="612" 
d="M20 0l99 532h486l-19 -103l-93 -106q73 -49 73 -131q0 -84 -65.5 -144t-156.5 -60q-55 0 -117 30l24 132q43 -30 93 -30q27 0 45.5 15.5t18.5 38.5q0 26 -22.5 42t-57.5 16h-23l20 102l60 70h-134l-76 -404h-155z" />
    <glyph glyph-name="tcaron.sc" unicode="&#xe266;" horiz-adv-x="489" 
d="M116 0l75 400h-136l25 132h434l-25 -132h-136l-74 -400h-163zM527 750l-145 -172h-145l-84 172h113l52 -88l84 88h125z" />
    <glyph glyph-name="tbar.sc" unicode="&#xe268;" horiz-adv-x="489" 
d="M116 0l36 189h-91l20 108h91l19 102h-136l25 133h434l-25 -133h-136l-19 -102h90l-19 -108h-91l-35 -189h-163z" />
    <glyph glyph-name="ugrave.sc" unicode="&#xe269;" horiz-adv-x="613" 
d="M603 532l-62 -335q-18 -95 -91.5 -152t-179.5 -57q-96 0 -158 49t-62 125q0 26 4 43l61 327h164l-61 -323q-2 -14 -2 -21q0 -28 19 -46t50 -18q35 0 61.5 23t33.5 60l61 325h162zM333 578l-101 172h134l83 -172h-116z" />
    <glyph glyph-name="uacute.sc" unicode="&#xe26a;" horiz-adv-x="613" 
d="M603 532l-62 -335q-18 -95 -91.5 -152t-179.5 -57q-96 0 -158 49t-62 125q0 26 4 43l61 327h164l-61 -323q-2 -14 -2 -21q0 -28 19 -46t50 -18q35 0 61.5 23t33.5 60l61 325h162zM279 578l145 172h154l-163 -172h-136z" />
    <glyph glyph-name="ucircumflex.sc" unicode="&#xe26b;" horiz-adv-x="613" 
d="M603 532l-62 -335q-18 -95 -91.5 -152t-179.5 -57q-96 0 -158 49t-62 125q0 26 4 43l61 327h164l-61 -323q-2 -14 -2 -21q0 -28 19 -46t50 -18q35 0 61.5 23t33.5 60l61 325h162zM177 578l145 172h145l84 -172h-113l-52 88l-84 -88h-125z" />
    <glyph glyph-name="utilde.sc" unicode="&#xe26c;" horiz-adv-x="613" 
d="M603 532l-62 -335q-18 -95 -91.5 -152t-179.5 -57q-96 0 -158 49t-62 125q0 26 4 43l61 327h164l-61 -323q-2 -14 -2 -21q0 -28 19 -46t50 -18q35 0 61.5 23t33.5 60l61 325h162zM185 599q9 64 46.5 104t89.5 40q35 0 75 -27.5t52 -27.5q17 0 28.5 12t14.5 31h93
q-9 -65 -46.5 -104.5t-89.5 -39.5q-27 0 -52 13.5t-44 27.5t-31 14q-36 0 -43 -43h-93z" />
    <glyph glyph-name="udieresis.sc" unicode="&#xe26d;" horiz-adv-x="613" 
d="M603 532l-62 -335q-18 -95 -91.5 -152t-179.5 -57q-96 0 -158 49t-62 125q0 26 4 43l61 327h164l-61 -323q-2 -14 -2 -21q0 -28 19 -46t50 -18q35 0 61.5 23t33.5 60l61 325h162zM189 655q0 40 27 67.5t67 27.5q34 0 55.5 -21t21.5 -55q0 -40 -27 -67.5t-68 -27.5
q-33 0 -54.5 21.5t-21.5 54.5zM408 655q0 41 27 68t67 27q33 0 54.5 -21t21.5 -55q0 -41 -27 -68t-67 -27q-34 0 -55 21.5t-21 54.5z" />
    <glyph glyph-name="uhungarumlaut.sc" unicode="&#xe271;" horiz-adv-x="613" 
d="M603 532l-62 -335q-18 -95 -91.5 -152t-179.5 -57q-96 0 -158 49t-62 125q0 26 4 43l61 327h164l-61 -323q-2 -14 -2 -21q0 -28 19 -46t50 -18q35 0 61.5 23t33.5 60l61 325h162zM387 578l145 172h155l-164 -172h-136zM169 578l145 172h156l-165 -172h-136z" />
    <glyph glyph-name="uogonek.sc" unicode="&#xe272;" horiz-adv-x="613" 
d="M603 532l-63 -335q-23 -124 -142 -183q-45 -22 -70.5 -52t-25.5 -59q0 -15 11.5 -26t27.5 -11q17 0 31 7l-17 -92q-33 -12 -72 -12q-42 0 -71.5 26t-29.5 64q0 35 24 70.5t64 58.5h-4q-88 0 -152 50t-64 124q0 26 4 43l63 327h162l-61 -323q-2 -14 -2 -21q0 -28 19 -46
t50 -18q35 0 61.5 23t33.5 60l61 325h162z" />
    <glyph glyph-name="wgrave.sc" unicode="&#xe273;" horiz-adv-x="832" 
d="M879 532l-280 -532h-143l-30 336l-149 -336h-144l-76 532h151l30 -337l149 337h144l29 -337l151 337h168zM438 578l-101 172h134l83 -172h-116z" />
    <glyph glyph-name="wacute.sc" unicode="&#xe274;" horiz-adv-x="832" 
d="M879 532l-280 -532h-143l-30 336l-149 -336h-144l-76 532h151l30 -337l149 337h144l29 -337l151 337h168zM384 578l145 172h154l-163 -172h-136z" />
    <glyph glyph-name="wcircumflex.sc" unicode="&#xe275;" horiz-adv-x="832" 
d="M879 532l-280 -532h-143l-30 336l-149 -336h-144l-76 532h151l30 -337l149 337h144l29 -337l151 337h168zM282 578l145 172h145l84 -172h-113l-52 88l-84 -88h-125z" />
    <glyph glyph-name="wdieresis.sc" unicode="&#xe276;" horiz-adv-x="832" 
d="M879 532l-280 -532h-143l-30 336l-149 -336h-144l-76 532h151l30 -337l149 337h144l29 -337l151 337h168zM294 655q0 40 27 67.5t67 27.5q34 0 55.5 -21t21.5 -55q0 -40 -27.5 -67.5t-67.5 -27.5q-33 0 -54.5 21.5t-21.5 54.5zM513 655q0 41 27 68t67 27q33 0 54.5 -21
t21.5 -55q0 -41 -27 -68t-67 -27q-34 0 -55 21.5t-21 54.5z" />
    <glyph glyph-name="ygrave.sc" unicode="&#xe277;" horiz-adv-x="519" 
d="M127 0l41 217l-117 315h171l49 -177l113 177h192l-248 -331l-38 -201h-163zM282 578l-101 172h134l83 -172h-116z" />
    <glyph glyph-name="yacute.sc" unicode="&#xe278;" horiz-adv-x="519" 
d="M127 0l41 217l-117 315h171l49 -177l113 177h192l-248 -331l-38 -201h-163zM228 578l145 172h154l-163 -172h-136z" />
    <glyph glyph-name="ycircumflex.sc" unicode="&#xe279;" horiz-adv-x="519" 
d="M127 0l41 217l-117 315h171l49 -177l113 177h192l-248 -331l-38 -201h-163zM126 578l145 172h145l84 -172h-113l-52 88l-84 -88h-125z" />
    <glyph glyph-name="ydieresis.sc" unicode="&#xe27a;" horiz-adv-x="519" 
d="M127 0l41 217l-117 315h171l49 -177l113 177h192l-248 -331l-38 -201h-163zM138 655q0 40 27 67.5t67 27.5q34 0 55.5 -21t21.5 -55q0 -40 -27.5 -67.5t-67.5 -27.5q-33 0 -54.5 21.5t-21.5 54.5zM357 655q0 41 27 68t67 27q33 0 54.5 -21t21.5 -55q0 -41 -27 -68
t-67 -27q-34 0 -55 21.5t-21 54.5z" />
    <glyph glyph-name="zacute.sc" unicode="&#xe27b;" horiz-adv-x="516" 
d="M-10 0l20 103l272 297h-205l25 132h416l-19 -103l-272 -297h223l-25 -132h-435zM230 578l145 172h154l-163 -172h-136z" />
    <glyph glyph-name="zcaron.sc" unicode="&#xe27c;" horiz-adv-x="516" 
d="M-10 0l20 103l272 297h-205l25 132h416l-19 -103l-272 -297h223l-25 -132h-435zM541 750l-145 -172h-145l-84 172h113l52 -88l84 88h125z" />
    <glyph glyph-name="zdotaccent.sc" unicode="&#xe27d;" horiz-adv-x="516" 
d="M-10 0l20 103l272 297h-205l25 132h416l-19 -103l-272 -297h223l-25 -132h-435zM246 655q0 42 28 70t70 28q35 0 57 -22t22 -57q0 -41 -28 -69.5t-70 -28.5q-35 0 -57 22t-22 57z" />
    <glyph glyph-name="eng.sc" unicode="&#xe27e;" horiz-adv-x="613" 
d="M20 0l99 532h132l146 -282l53 282h149l-111 -596q-15 -79 -66.5 -123t-130.5 -44q-65 0 -131 30l24 126q42 -20 82 -20q27 0 47.5 16.5t25.5 40.5l12 68l-130 252l-52 -282h-149z" />
    <glyph glyph-name="eth.sc" unicode="&#xe27f;" horiz-adv-x="601" 
d="M31 0l41 219h-66l19 102h66l40 211h216q100 0 163.5 -60t63.5 -155q0 -141 -85.5 -229t-223.5 -88h-234zM265 400l-14 -79h86l-18 -102h-87l-16 -87h65q54 0 92.5 50.5t38.5 122.5q0 42 -24 68.5t-64 26.5h-59z" />
    <glyph glyph-name="thorn.sc" unicode="&#xe280;" horiz-adv-x="511" 
d="M20 0l99 532h156l-15 -81h54q79 0 125.5 -42.5t46.5 -115.5q0 -85 -68 -144.5t-166 -59.5h-60l-17 -89h-155zM236 327l-21 -114h41q31 0 51.5 19t20.5 47q0 22 -14.5 35t-39.5 13h-38z" />
    <glyph glyph-name="quoteleft.sc" unicode="&#xe281;" horiz-adv-x="250" 
d="M306 532l-143 -265h-164l164 265h143z" />
    <glyph glyph-name="quoteright.sc" unicode="&#xe282;" horiz-adv-x="250" 
d="M-1 267l145 265h162l-163 -265h-144z" />
    <glyph glyph-name="quotedblleft.sc" unicode="&#xe283;" horiz-adv-x="453" 
d="M510 532l-145 -265h-163l164 265h144zM306 532l-143 -265h-164l164 265h143z" />
    <glyph glyph-name="quotedblright.sc" unicode="&#xe284;" horiz-adv-x="453" 
d="M-1 267l145 265h162l-163 -265h-144zM202 267l144 265h164l-165 -265h-143z" />
    <glyph glyph-name="exclam.sc" unicode="&#xe285;" horiz-adv-x="292" 
d="M55 187l64 345h160l-65 -345h-159zM29 64q0 40 27.5 67.5t67.5 27.5q34 0 55 -21t21 -55q0 -40 -27 -67.5t-67 -27.5q-34 0 -55.5 21.5t-21.5 54.5z" />
    <glyph glyph-name="exclamdown.sc" unicode="&#xe286;" horiz-adv-x="246" 
d="M220 345l-65 -345h-158l65 345h158zM245 468q0 -41 -27 -68.5t-67 -27.5q-34 0 -55 21.5t-21 55.5q0 40 27.5 67.5t67.5 27.5q33 0 54 -21.5t21 -54.5z" />
    <glyph glyph-name="question.sc" unicode="&#xe287;" horiz-adv-x="381" 
d="M82 187l5 27q6 32 25 58.5t37.5 40t33.5 29.5t15 30q0 30 -37 30q-47 0 -108 -33l28 147q61 28 130 28q72 0 113.5 -40t41.5 -105q0 -39 -19.5 -72t-42.5 -51.5t-44 -39.5t-24 -37l-2 -12h-152zM61 64q0 40 27.5 67.5t67.5 27.5q33 0 54.5 -21t21.5 -55
q0 -40 -27.5 -67.5t-67.5 -27.5q-34 0 -55 21.5t-21 54.5z" />
    <glyph glyph-name="questiondown.sc" unicode="&#xe288;" horiz-adv-x="381" 
d="M304 345l-5 -27q-6 -32 -25 -58.5t-37.5 -40.5t-33 -30t-14.5 -30q0 -13 10 -21t27 -8q46 0 107 33l-27 -147q-61 -28 -130 -28q-72 0 -113 40t-41 105q0 38 19 71.5t42.5 52t44 39t23.5 36.5l2 13h151zM325 468q0 -41 -27 -68.5t-67 -27.5q-34 0 -55 21.5t-21 55.5
q0 40 27.5 67.5t67.5 27.5q33 0 54 -21.5t21 -54.5z" />
    <glyph glyph-name="slash.sc" unicode="&#xe289;" horiz-adv-x="313" 
d="M-69 -72l291 677h166l-291 -677h-166z" />
    <glyph glyph-name="backslash.sc" unicode="&#xe28a;" horiz-adv-x="313" 
d="M137 -72l-101 677h154l101 -677h-154z" />
    <glyph glyph-name="parenleft.sc" unicode="&#xe28b;" horiz-adv-x="295" 
d="M37 201q0 227 167 403h180q-93 -80 -143 -182.5t-50 -214.5q0 -153 64 -279h-151q-67 131 -67 273z" />
    <glyph glyph-name="parenright.sc" unicode="&#xe28c;" horiz-adv-x="295" 
d="M263 330q0 -225 -166 -402h-180q93 81 143 183t50 214q0 153 -64 279h150q67 -131 67 -274z" />
    <glyph glyph-name="bracketleft.sc" unicode="&#xe28d;" horiz-adv-x="295" 
d="M-9 -72l127 676h217l-21 -120h-68l-82 -436h67l-23 -120h-217z" />
    <glyph glyph-name="bracketright.sc" unicode="&#xe28e;" horiz-adv-x="295" 
d="M310 604l-127 -676h-218l22 120h67l83 436h-68l23 120h218z" />
    <glyph glyph-name="braceleft.sc" unicode="&#xe28f;" horiz-adv-x="295" 
d="M335 604l-22 -120h-13q-16 0 -30 -13t-17 -30l-15 -82q-6 -33 -32 -59.5t-63 -37.5q26 -10 42 -34t16 -54q0 -15 -3 -27l-9 -53q-2 -10 -2 -15q0 -14 10 -23t26 -9h9l-24 -119h-36q-63 0 -100.5 36t-37.5 95q0 17 5 39l10 60q2 10 2 15q0 15 -8.5 24t-22.5 9h-9l23 119h5
q19 0 33.5 17t19.5 43l17 84q12 60 61.5 97.5t119.5 37.5h45z" />
    <glyph glyph-name="braceright.sc" unicode="&#xe290;" horiz-adv-x="295" 
d="M-35 -72l23 120h13q15 0 29 12.5t17 30.5l16 82q6 33 31.5 59.5t62.5 37.5q-26 10 -42 34t-16 54q0 14 3 27l10 52q2 10 2 16q0 14 -10.5 22.5t-26.5 8.5h-9l24 120h38q62 0 99 -36t37 -95q0 -17 -5 -39l-10 -60q-2 -10 -2 -15q0 -15 8.5 -24.5t22.5 -9.5h9l-22 -119h-5
q-19 0 -34 -17t-20 -42l-15 -85q-10 -60 -61 -97t-121 -37h-46z" />
    <glyph glyph-name="ampersand.sc" unicode="&#xe291;" horiz-adv-x="519" 
d="M543 326l-22 -113h-85l-32 -178q-99 -47 -201 -47q-78 0 -129.5 42.5t-51.5 106.5q0 48 26.5 87t74.5 59q-45 32 -45 92q0 71 57 120t141 49q67 0 140 -30l-23 -124q-47 25 -98 25q-26 0 -43.5 -13t-17.5 -34q0 -18 13 -30t34 -12h262zM179 160q0 -20 14 -32t37 -12
q17 0 35 8l17 89h-38q-27 0 -46 -15.5t-19 -37.5z" />
    <glyph glyph-name="at.sc" unicode="&#xe292;" horiz-adv-x="790" 
d="M592 435l-34 -178q0 -1 -0.5 -5.5t-0.5 -6.5q0 -8 7 -14.5t17 -6.5q25 0 44.5 31.5t19.5 72.5q0 79 -59 130t-150 51q-120 0 -200.5 -82t-80.5 -204q0 -90 60 -145.5t158 -55.5q88 0 181 39l-22 -116q-83 -31 -174 -31q-146 0 -236.5 83t-90.5 214q0 176 119.5 291.5
t301.5 115.5q141 0 229 -77.5t88 -196.5q0 -109 -67.5 -182t-167.5 -73q-58 0 -98 40q-45 -40 -104 -40q-54 0 -88.5 41t-34.5 105q0 86 49 147t119 61q37 0 73 -25l3 17h139zM353 252q0 -16 8.5 -26t23.5 -10q14 0 29 10l15 80q-13 10 -28 10q-20 0 -34 -18.5t-14 -45.5z
" />
    <glyph glyph-name="zero.sc" unicode="&#xe300;" horiz-adv-x="504" 
d="M39 190q0 151 73.5 252.5t184.5 101.5q82 0 128 -54t46 -148q0 -151 -73.5 -252.5t-184.5 -101.5q-81 0 -127.5 54t-46.5 148zM191 197q0 -32 11 -52.5t27 -20.5q37 0 64 61t27 149q0 32 -11 53t-27 21q-37 0 -64 -61t-27 -150z" />
    <glyph glyph-name="one.sc" unicode="&#xe301;" horiz-adv-x="374" 
d="M96 0l67 356l-126 -48l28 146l193 78h101l-100 -532h-163z" />
    <glyph glyph-name="two.sc" unicode="&#xe302;" horiz-adv-x="426" 
d="M-22 0l20 103q98 53 168 126.5t70 119.5q0 24 -15 39.5t-38 15.5q-56 0 -125 -47l28 151q71 36 153 36q74 0 119 -44t45 -117q0 -57 -46 -126t-120 -121h122l-25 -136h-356z" />
    <glyph glyph-name="three.sc" unicode="&#xe303;" horiz-adv-x="418" 
d="M119 210l23 119h24q33 0 53.5 13.5t20.5 34.5q0 16 -13 26.5t-34 10.5q-57 0 -124 -38l27 140q68 28 133 28q74 0 120 -38t46 -99q0 -46 -25.5 -84t-67.5 -54q65 -36 65 -107q0 -74 -60.5 -124t-153.5 -50q-90 0 -161 43l26 134q61 -47 127 -47q25 0 44 15t19 33
q0 20 -16 32t-43 12h-30z" />
    <glyph glyph-name="four.sc" unicode="&#xe304;" horiz-adv-x="477" 
d="M183 0l20 109h-211l22 112l283 311h136l-57 -303h71l-22 -120h-72l-20 -109h-150zM153 229h72l19 100z" />
    <glyph glyph-name="five.sc" unicode="&#xe305;" horiz-adv-x="426" 
d="M409 532l-26 -132h-162l-9 -54h16q68 0 110 -41.5t42 -108.5q0 -88 -69 -148t-172 -60q-70 0 -137 35l26 138q55 -37 111 -37q34 0 56.5 16t22.5 40q0 23 -21.5 38.5t-53.5 15.5q-47 0 -94 -12l59 310h301z" />
    <glyph glyph-name="six.sc" unicode="&#xe306;" horiz-adv-x="477" 
d="M234 532h207q-133 -90 -200 -179q20 5 43 5q66 0 110.5 -45.5t44.5 -113.5q0 -91 -64.5 -151t-161.5 -60q-80 0 -133 52.5t-53 137.5q0 92 55 186t152 168zM185 211q-6 -15 -6 -33q0 -23 14 -38.5t35 -15.5q26 0 43 16t17 42q0 20 -14 33t-37 13q-27 0 -52 -17z" />
    </font>
</defs>
</svg>
